<?xml version="1.0" standalone="no"?>
<!DOCTYPE svg PUBLIC "-//W3C//DTD SVG 1.1//EN" "http://www.w3.org/Graphics/SVG/1.1/DTD/svg11.dtd" >
<svg xmlns="http://www.w3.org/2000/svg" xmlns:xlink="http://www.w3.org/1999/xlink" version="1.1">
<metadata>
Created by FontForge 20201107 at Thu Feb  6 15:02:31 2025
 By 
Copyright 2019 The Big Shoulders Project Authors (https://github.com/xotypeco/big_shoulders)
</metadata>
<defs>
<font id="BigShoulders60pt-SemiBold" horiz-adv-x="848" >
  <font-face 
    font-family="Big Shoulders 60pt SemiBold"
    font-weight="600"
    font-stretch="normal"
    units-per-em="2000"
    panose-1="0 0 0 0 0 0 0 0 0 0"
    ascent="1600"
    descent="-400"
    x-height="1200"
    cap-height="1600"
    bbox="-523 -419 2153 2369"
    underline-thickness="40"
    underline-position="-100"
    unicode-range="U+0020-FB02"
  />
<missing-glyph horiz-adv-x="1331" 
d="M93 0v1600h1146v-1600h-1146zM459 201h414l-207 379zM319 413l211 384l-211 385v-769zM1012 414v767l-210 -384zM666 1015l210 384h-420z" />
    <glyph glyph-name="fi" unicode="fi" horiz-adv-x="1009" 
d="M137 0v1027h-118v173h118v113q-1 164 82 235t259 71q32 0 68.5 -4t69.5 -9v-167q-33 1 -67 2t-69 1q-59 0 -87.5 -27t-28.5 -85v-130h209v-173h-209v-1027h-227zM671 1404v196h259v-196h-259zM687 0v1200h227v-1200h-227z" />
    <glyph glyph-name="fl" unicode="fl" horiz-adv-x="1015" 
d="M137 0v1027h-118v173h118v113q-1 164 82 235t259 71q32 0 68.5 -4t69.5 -9v-167q-33 1 -67 2t-69 1q-59 0 -87.5 -27t-28.5 -85v-130h209v-173h-209v-1027h-227zM693 0v1600h226v-1600h-226z" />
    <glyph glyph-name="f_f" unicode="ff" horiz-adv-x="1162" 
d="M137 0l-1 1027h-117v173h117v113q0 164 83 235t259 71q32 0 68.5 -4t69.5 -9v-167q-33 1 -67 2t-69 1q-59 0 -88 -27t-29 -85v-130h338v112q0 164 83 235t259 71q32 0 68.5 -4t68.5 -9v-167q-32 1 -66 1.5t-70 0.5q-58 0 -87 -26.5t-29 -84.5v-129h207v-173h-207l1 -1028
h-228v1028h-338l1 -1027h-227z" />
    <glyph glyph-name="f_f_i" unicode="ffi" horiz-adv-x="1574" 
d="M137 0l-1 1027h-117v173h117v113q0 164 83 235t259 71q32 0 68.5 -4t69.5 -9v-167q-33 1 -67 2t-69 1q-59 0 -88 -27t-29 -85v-130h338v112q0 164 83 235t259 71q32 0 68.5 -4t68.5 -9v-167q-32 1 -66 1.5t-70 0.5q-58 0 -87 -26.5t-29 -84.5v-129h207v-173h-207l1 -1028
h-228v1028h-338l1 -1027h-227zM1235 1404v196h259v-196h-259zM1251 0v1200h227v-1200h-227z" />
    <glyph glyph-name="f_f_l" unicode="ffl" horiz-adv-x="1580" 
d="M137 0l-1 1027h-117v173h117v113q0 164 83 235t259 71q32 0 68.5 -4t69.5 -9v-167q-33 1 -67 2t-69 1q-59 0 -88 -27t-29 -85v-130h338v112q0 164 83 235t259 71q32 0 68.5 -4t68.5 -9v-167q-32 1 -66 1.5t-70 0.5q-58 0 -87 -26.5t-29 -84.5v-129h207v-173h-207l1 -1028
h-228v1028h-338l1 -1027h-227zM1258 0v1600h226v-1600h-226z" />
    <glyph glyph-name=".notdef" horiz-adv-x="1331" 
d="M93 0v1600h1146v-1600h-1146zM459 201h414l-207 379zM319 413l211 384l-211 385v-769zM1012 414v767l-210 -384zM666 1015l210 384h-420z" />
    <glyph glyph-name=".null" horiz-adv-x="0" 
 />
    <glyph glyph-name="nonmarkingreturn" horiz-adv-x="666" 
 />
    <glyph glyph-name="space" unicode=" " horiz-adv-x="428" 
 />
    <glyph glyph-name="exclam" unicode="!" horiz-adv-x="469" 
d="M147 384l-32 774v442h230v-443l-32 -773h-166zM82 0v235h297v-235h-297z" />
    <glyph glyph-name="quotedbl" unicode="&#x22;" horiz-adv-x="697" 
d="M127 1101l-41 255v244h192v-244l-41 -255h-110zM459 1101l-41 255v244h193v-244l-41 -255h-111z" />
    <glyph glyph-name="numbersign" unicode="#" horiz-adv-x="1326" 
d="M149 0l103 431h-192l46 187h185l91 355h-192l45 186h185l108 441h226l-107 -441h201l108 441h226l-108 -441h190l-42 -186h-187l-91 -355h188l-46 -187h-181l-103 -431h-225l102 431h-202l-102 -431h-226zM517 618h201l91 355h-202z" />
    <glyph glyph-name="dollar" unicode="$" horiz-adv-x="846" 
d="M323 -204v194q-129 19 -187 98.5t-65 234.5q-1 46 -1 90t1.5 88t5.5 89h214q-4 -80 -4.5 -158t4.5 -148q4 -58 36 -86t97 -28q64 0 93.5 28t34.5 86q4 43 5 81.5t-0.5 78.5t-4.5 85q-3 57 -25.5 98t-75.5 54l-140 35q-92 23 -144.5 68.5t-75 115t-25.5 167.5
q-1 53 -1 106t1 106q6 155 64.5 234t192.5 97v211h198v-211q128 -18 187 -97.5t65 -234.5q2 -49 1 -119t-4 -138h-218q3 75 3.5 149t-2.5 148q-1 57 -34 85t-95 28q-65 0 -95.5 -28t-35.5 -85q-5 -63 -5 -125.5t5 -125.5q4 -62 25.5 -100.5t75.5 -51.5l125 -29
q98 -23 154 -70t80 -118t27 -169q2 -39 2 -72t-1 -65.5t-2 -68.5q-6 -156 -65.5 -236t-192.5 -98v-193h-198z" />
    <glyph glyph-name="percent" unicode="%" horiz-adv-x="1209" 
d="M105 0l846 1600h159l-847 -1600h-158zM880 -10q-102 0 -159 53.5t-61 154.5q-2 54 -2.5 107.5t0 108.5t2.5 111q3 99 59.5 152t160.5 53q103 0 159.5 -53.5t61.5 -151.5q2 -39 2.5 -81.5t0.5 -84.5t-0.5 -83t-2.5 -78q-5 -99 -61.5 -153.5t-159.5 -54.5zM880 122
q26 0 39.5 14t16.5 35q2 33 3.5 82t1.5 103.5t-1 105.5t-4 89q-1 20 -15 33.5t-41 13.5q-26 0 -40 -13.5t-16 -33.5q-3 -51 -4.5 -123.5t0 -142t4.5 -114.5q2 -18 16 -33.5t40 -15.5zM301 868q-102 0 -159 53.5t-61 154.5q-2 54 -2.5 107.5t0 108.5t2.5 111q4 99 60.5 152
t159.5 53t159.5 -53.5t62.5 -151.5q1 -39 1.5 -81.5t0.5 -84.5t-0.5 -83t-1.5 -78q-6 -99 -62.5 -153.5t-159.5 -54.5zM301 1000q26 0 39.5 14t16.5 35q3 33 4.5 82t1.5 103.5t-1.5 105.5t-4.5 89q-1 20 -15 33.5t-41 13.5q-26 0 -40 -13.5t-16 -33.5q-3 -51 -4.5 -123.5
t0 -142t4.5 -114.5q3 -18 17 -33.5t39 -15.5z" />
    <glyph glyph-name="ampersand" unicode="&#x26;" horiz-adv-x="1114" 
d="M464 -17q-190 0 -275 79.5t-92 260.5q-2 59 -2 100t2 77.5t6 79.5q6 108 51.5 176.5t104.5 120.5q-45 101 -73 199t-35 187q-18 162 59 258t253 96q172 0 247 -87.5t60 -253.5q-8 -113 -58.5 -214t-140.5 -191q-11 -11 -23 -22.5t-24 -24.5q32 -61 68 -121.5t73 -118.5
q-2 51 -6.5 108t-12.5 117l185 1q7 -64 12 -144.5t6 -163t-3 -151.5q52 -67 97 -122t79 -95l-147 -138q-26 30 -53 62t-55 66q-27 -50 -68.5 -81t-99.5 -45.5t-135 -14.5zM470 166q50 0 80.5 14t46.5 44t24 77q-67 90 -132 185t-122 193q-16 -22 -28.5 -49t-15.5 -61
q-5 -39 -7 -71.5t-2 -74t3 -106.5q3 -75 40 -113t113 -38zM428 1000q48 46 78.5 91.5t46.5 91t20 92.5q13 89 -11 138.5t-99 49.5q-63 0 -88.5 -46.5t-21.5 -118.5q1 -65 21.5 -141t53.5 -157z" />
    <glyph glyph-name="quotesingle" unicode="'" horiz-adv-x="366" 
d="M128 1101l-42 255v244h195v-244l-42 -255h-111z" />
    <glyph glyph-name="parenleft" unicode="(" horiz-adv-x="540" 
d="M315 -400q-78 119 -135.5 279.5t-88.5 346.5t-31 381q0 177 27.5 359t84 346.5t143.5 287.5h165q-92 -228 -140 -486.5t-48 -513.5q0 -170 21.5 -344t63.5 -340.5t103 -315.5h-165z" />
    <glyph glyph-name="parenright" unicode=")" horiz-adv-x="534" 
d="M219 -400h-164q61 149 103 315.5t63 340.5t21 344q0 255 -47.5 513.5t-139.5 486.5h164q87 -123 143.5 -287.5t84 -346.5t27.5 -359q0 -195 -31 -381t-88 -346.5t-136 -279.5z" />
    <glyph glyph-name="asterisk" unicode="*" horiz-adv-x="515" 
d="M43 1327l138 65l-138 66l49 85l126 -85l-10 150h99l-11 -149l127 84l49 -85l-137 -66l137 -65l-49 -85l-127 85l11 -151h-99l10 149l-126 -83z" />
    <glyph glyph-name="plus" unicode="+" horiz-adv-x="993" 
d="M410 339v316h-316v172h316v317h174v-317h315v-172h-315v-316h-174z" />
    <glyph glyph-name="comma" unicode="," horiz-adv-x="466" 
d="M120 -249l106 249h-142v239h298v-217l-136 -271h-126z" />
    <glyph glyph-name="hyphen" unicode="-" horiz-adv-x="787" 
d="M60 634v200h667v-200h-667z" />
    <glyph glyph-name="period" unicode="." horiz-adv-x="460" 
d="M82 0v235h297v-235h-297z" />
    <glyph glyph-name="slash" unicode="/" horiz-adv-x="754" 
d="M60 -400l407 2000h227l-407 -2000h-227z" />
    <glyph glyph-name="zero" unicode="0" horiz-adv-x="903" 
d="M451 -17q-169 0 -261 88t-95 251q-3 159 -4 321t0 322.5t4 313.5q3 164 95 251t261 87q167 0 259 -87t96 -251q3 -117 5 -238t2 -242.5t-2 -241.5t-5 -235q-4 -164 -96.5 -251.5t-258.5 -87.5zM451 169q123 0 127 112q7 180 8.5 357.5t0 349.5t-8.5 331q-3 112 -127 112
q-126 0 -129 -112q-3 -135 -5 -268t-2 -262.5t2 -256.5t5 -250q3 -113 129 -113z" />
    <glyph glyph-name="one" unicode="1" horiz-adv-x="490" 
d="M166 0v1388h-91l-6 83l144 129h182v-1600h-229z" />
    <glyph glyph-name="two" unicode="2" horiz-adv-x="872" 
d="M94 0q-1 40 -1.5 70t-1 55t-1 51.5t0 59.5t1.5 79q3 119 34 206.5t89 152.5t142 114l116 71q64 43 82.5 98.5t21.5 105.5q3 63 3 127.5t-3 126.5q-4 57 -36 85.5t-98 28.5q-63 0 -93 -28.5t-32 -83.5q-2 -75 -2 -149t3 -150h-224q-2 45 -3 91t-1.5 88.5t0.5 78.5
q7 182 89 260.5t263 78.5q128 0 205.5 -34t114 -109t41.5 -196q1 -24 1.5 -51.5t0.5 -56.5v-56.5t-2 -50.5q-3 -98 -32 -171t-82.5 -129.5t-131.5 -104.5l-130 -78q-40 -25 -63 -69t-33 -95.5t-10 -100.5v-114h467v-201h-695z" />
    <glyph glyph-name="three" unicode="3" horiz-adv-x="893" 
d="M441 -17q-192 0 -279 79t-92 262q-1 39 -1.5 70t0 65t1.5 81h227v-245q0 -62 35 -94t103 -32q67 0 101 31.5t34 94.5q3 73 3 150.5t-3 142.5q-3 68 -33.5 108.5t-118.5 39.5l-158 -2l-7 191l280 474h-450v201h710l-2 -192l-290 -476q151 -11 220 -91.5t77 -252.5
q1 -38 1.5 -74t0.5 -68.5t-0.5 -63t-1.5 -58.5q-8 -183 -90.5 -262t-266.5 -79z" />
    <glyph glyph-name="four" unicode="4" horiz-adv-x="916" 
d="M489 0v440h-432v188l337 972h309v-960h160v-200h-160v-440h-214zM275 640h214l29 396l26 363h-49l-99 -363z" />
    <glyph glyph-name="five" unicode="5" horiz-adv-x="912" 
d="M462 -17q-193 0 -279.5 79t-91.5 262q-2 64 -1.5 114t2.5 102h228q-3 -36 -4 -81t-0.5 -88.5t2.5 -74.5q5 -64 38 -95.5t99 -31.5q68 0 100.5 31.5t36.5 95.5q7 107 8 206t-6 196q-4 59 -34.5 87.5t-90.5 28.5q-43 0 -74 -14.5t-48.5 -40.5t-18.5 -61h-216v902h689v-201
h-461v-498h38q23 43 74 72.5t120 29.5q122 0 182 -79t67 -220q3 -67 4 -132.5t-0.5 -127.5t-5.5 -120q-10 -122 -47.5 -197t-112.5 -109.5t-197 -34.5z" />
    <glyph glyph-name="six" unicode="6" horiz-adv-x="889" 
d="M447 -18q-187 0 -269 79.5t-84 261.5q-2 143 -2.5 280.5t-0.5 262t0.5 229.5t2.5 182q7 174 97.5 257t253.5 83q170 0 260 -85.5t96 -252.5q1 -24 1 -55.5t-0.5 -64t-1.5 -61.5h-226q2 36 2.5 68t0 68t-2.5 83q-2 55 -31.5 84t-94.5 29q-62 0 -93.5 -28t-33.5 -84
q-3 -95 -4.5 -203.5t-1.5 -229.5h44q23 44 77 73t123 29q140 0 194.5 -69.5t57.5 -230.5q1 -69 2 -129t0 -117t-4 -118q-8 -183 -91 -262t-271 -79zM449 169q65 0 98.5 28.5t34.5 85.5q2 57 2.5 108.5t0.5 100.5v96t-1 95q-1 58 -34 86t-91 28q-64 0 -103 -28.5t-41 -83.5
q1 -93 2 -193.5t4 -207.5q2 -58 34 -86.5t94 -28.5z" />
    <glyph glyph-name="seven" unicode="7" horiz-adv-x="833" 
d="M145 0l406 1399h-504v201h731v-204l-397 -1396h-236z" />
    <glyph glyph-name="eight" unicode="8" horiz-adv-x="889" 
d="M444 -17q-183 0 -266 79.5t-91 261.5q-1 33 -1 68t1 75.5t3 89.5q9 99 45 156t109 88v37q-53 21 -90.5 66t-48.5 116q-5 42 -7.5 88.5t-3.5 90t1 77.5q8 183 88.5 262t260.5 79q179 0 260 -79t90 -262q2 -33 1 -77.5t-4 -91t-7 -86.5q-12 -72 -49 -117.5t-91 -64.5v-39
q67 -31 105.5 -88t48.5 -154q5 -73 5 -129t-2 -105q-8 -183 -90.5 -262t-266.5 -79zM444 169q67 0 98 31.5t31 94.5q1 50 1.5 96.5t0 93.5t-1.5 96q0 64 -31.5 96.5t-97.5 32.5t-97 -32.5t-32 -96.5q-1 -74 -1 -143t1 -143q1 -62 32 -94t97 -32zM444 926q66 0 97.5 32
t31.5 97q1 64 1.5 125.5t-1.5 124.5q0 63 -31 94.5t-98 31.5q-65 0 -96.5 -31.5t-32.5 -94.5q-1 -33 -1 -64v-61.5v-61.5t1 -63q1 -65 32.5 -97t96.5 -32z" />
    <glyph glyph-name="nine" unicode="9" horiz-adv-x="889" 
d="M449 -18q-185 0 -266.5 79t-82.5 261v55t0.5 65t1.5 59h226q-1 -53 -2 -105.5t1 -113.5q3 -55 29 -84t90 -29q61 0 89 28t31 85q3 89 5.5 197.5t3.5 229.5h-38q-21 -44 -69 -73t-119 -29q-73 0 -135 31.5t-99.5 100.5t-38.5 180v90v94t0.5 91t1.5 82q5 182 90 261.5
t272 79.5q188 0 269 -79.5t84 -261.5q4 -176 4.5 -334t-0.5 -310.5t-4 -309.5q-3 -182 -85 -261t-259 -79zM437 796q61 0 96.5 26t41.5 74q-1 104 -3.5 209.5t-5.5 210.5q-1 58 -33.5 86t-94.5 28q-64 0 -98 -28t-35 -86q0 -40 -0.5 -91t-1 -106.5t-0.5 -109t1 -99.5
q2 -57 38 -85.5t95 -28.5z" />
    <glyph glyph-name="colon" unicode=":" horiz-adv-x="465" 
d="M84 600v235h297v-235h-297zM84 0v235h297v-235h-297z" />
    <glyph glyph-name="semicolon" unicode=";" horiz-adv-x="469" 
d="M122 -249l106 249h-142v239h299v-217l-137 -271h-126zM84 602v235h297v-235h-297z" />
    <glyph glyph-name="less" unicode="&#x3c;" horiz-adv-x="1030" 
d="M933 477l-836 129v281l836 133v-187l-408 -49l-258 -12v-49l259 -13l407 -46v-187z" />
    <glyph glyph-name="equal" unicode="=" horiz-adv-x="956" 
d="M92 817v172h772v-172h-772zM92 496v173h772v-173h-772z" />
    <glyph glyph-name="greater" unicode="&#x3e;" horiz-adv-x="1019" 
d="M92 477v187l407 46l259 13v49l-259 12l-407 49v187l836 -133v-281z" />
    <glyph glyph-name="question" unicode="?" horiz-adv-x="836" 
d="M309 391l-6 168q-4 74 6.5 126t43 91.5t94.5 76.5l37 20q26 14 38 39.5t15.5 61.5t3.5 82v261q0 56 -31.5 84t-95.5 28q-59 0 -89 -28t-33 -84q-4 -74 -4.5 -147.5t2.5 -144.5h-224q-2 42 -2.5 82.5t-1 82.5t1.5 86q8 184 88.5 263.5t259.5 79.5q193 0 277 -79.5
t84 -263.5v-98t0.5 -67t-0.5 -55q0 -100 -16 -161.5t-41.5 -96.5t-56 -54.5t-61.5 -34.5l-45 -22q-41 -21 -49.5 -56.5t-11.5 -71.5l-8 -168h-175zM248 0v235h297v-235h-297z" />
    <glyph glyph-name="at" unicode="@" horiz-adv-x="1251" 
d="M625 -285q-184 0 -300 39.5t-171 124.5t-58 223q-2 126 -3 242t-1.5 231.5t1 239t3.5 263.5q3 144 58 233t170.5 129.5t300.5 40.5q181 0 296.5 -40.5t172 -130t60.5 -233.5q3 -106 3.5 -198t0.5 -175.5t-1 -164t-3 -163.5q-3 -91 -64.5 -136t-168.5 -45t-157 26.5
t-66 68.5h-37q-23 -45 -50.5 -71t-81.5 -26q-73 0 -109.5 48t-44.5 162q-4 63 -5 137t0.5 145.5t4.5 127.5q6 113 45 162t112 49q50 0 77 -23.5t51 -72.5h25v83h177v-631q0 -34 15 -51t44 -17q25 0 38.5 17.5t16.5 51.5q2 67 4 146t2.5 169t-0.5 188t-4 203q-6 128 -86 185
t-267 57q-184 0 -264.5 -55.5t-84.5 -186.5t-5.5 -256t-1.5 -247.5t1.5 -244.5t5.5 -247q4 -121 85 -173t264 -52q181 0 262 50.5t82 173.5v21t-1 25h176q1 -17 1 -26v-20q-2 -137 -55 -219t-167 -119.5t-298 -37.5zM603 321q22 0 47 18.5t35 45.5v446q-10 30 -36.5 46.5
t-45.5 16.5q-26 0 -37.5 -16.5t-13.5 -48.5q-4 -76 -5 -147t0.5 -143t5.5 -151q2 -37 13.5 -52t36.5 -15z" />
    <glyph glyph-name="A" unicode="A" horiz-adv-x="846" 
d="M33 0l199 1600h382l199 -1600h-232l-38 392h-240l-37 -392h-233zM324 593h198l-34 351l-33 455h-63l-33 -456z" />
    <glyph glyph-name="B" unicode="B" horiz-adv-x="849" 
d="M95 0v1600h320q186 0 271.5 -77t86.5 -254q1 -61 1 -108.5t-2 -93.5q-6 -98 -42 -155t-113 -82v-43q80 -26 117 -83.5t40 -157.5q2 -58 2 -107t-2 -108q-7 -176 -89.5 -253.5t-268.5 -77.5h-321zM322 201h94q66 0 98.5 33t33.5 100q1 53 1 101t-1 101q-1 95 -32.5 134.5
t-102.5 39.5h-91v-509zM322 911h94q65 0 97.5 40.5t33.5 120.5q1 55 1 105t-1 103q-1 60 -34 89.5t-98 29.5h-93v-488z" />
    <glyph glyph-name="C" unicode="C" horiz-adv-x="871" 
d="M441 -18q-189 0 -270 79t-85 262q-2 113 -3 233.5t-1 243.5t1 244t3 235q2 163 86 250.5t268 87.5q183 0 265.5 -79.5t88.5 -259.5q1 -37 1 -83t-1 -92.5t-2 -82.5h-227q2 44 2.5 95t0.5 102.5t-1 94.5q-1 62 -32 90t-95 28t-95 -28t-33 -90q-3 -126 -4.5 -254.5
t-1.5 -257.5t1.5 -257.5t4.5 -254.5q2 -61 33.5 -90t95.5 -29q68 0 100.5 29t33.5 90q1 45 1.5 97t-0.5 105t-2 100h227q2 -66 2.5 -135t-1.5 -132q-6 -183 -89.5 -262t-271.5 -79z" />
    <glyph glyph-name="D" unicode="D" horiz-adv-x="883" 
d="M95 0v1600h344q188 0 271.5 -80.5t86.5 -264.5q3 -162 4 -308.5t0 -292t-4 -308.5q-3 -185 -86.5 -265.5t-270.5 -80.5h-345zM322 201h118q66 0 98 30t33 90q3 122 4 241.5t1 238.5t-1 238.5t-4 241.5q-1 59 -33.5 88.5t-98.5 29.5h-117v-1198z" />
    <glyph glyph-name="E" unicode="E" horiz-adv-x="737" 
d="M95 0v1600h595v-201h-368v-488h348v-201h-348v-509h368v-201h-595z" />
    <glyph glyph-name="F" unicode="F" horiz-adv-x="727" 
d="M95 0v1600h596v-201h-369v-488h349v-201h-349v-710h-227z" />
    <glyph glyph-name="G" unicode="G" horiz-adv-x="874" 
d="M444 -17q-127 0 -204 34.5t-113 109.5t-39 196q-3 108 -4.5 228.5t-1.5 244.5t1.5 244t4.5 226q4 127 40.5 204.5t113.5 112t201 34.5q179 0 260.5 -78.5t91.5 -260.5q3 -60 3 -128t-3 -129h-227q3 68 3 147t-3 147q-3 59 -33 87.5t-92 28.5q-64 0 -95 -28.5t-34 -87.5
q-5 -123 -7 -253t-2 -261.5t2 -261t7 -253.5q3 -59 33.5 -87.5t96.5 -28.5t99.5 28.5t37.5 87.5q2 37 2.5 81t0 87.5t-2.5 80.5h-123v198h344q4 -88 3 -194t-5 -216q-7 -182 -90 -261t-266 -79z" />
    <glyph glyph-name="H" unicode="H" horiz-adv-x="882" 
d="M95 0v1600h227v-689h238v689h227v-1600h-227v710h-238v-710h-227z" />
    <glyph glyph-name="I" unicode="I" horiz-adv-x="417" 
d="M95 0v1600h227v-1600h-227z" />
    <glyph glyph-name="J" unicode="J" horiz-adv-x="808" 
d="M385 -17q-123 0 -196 34.5t-106.5 109.5t-36.5 196q-1 65 -1 134t1 133h214q-1 -44 -1.5 -98t0 -107.5t1.5 -98.5q2 -59 31 -87.5t94 -28.5t92.5 28.5t27.5 87.5v1314h226v-1277q0 -182 -78.5 -261t-267.5 -79z" />
    <glyph glyph-name="K" unicode="K" horiz-adv-x="871" 
d="M95 0v1600h241l-3 -384l-35 -386h48l111 403l130 367h247l-253 -684l271 -916h-231l-190 662l-105 -241v-421h-231z" />
    <glyph glyph-name="L" unicode="L" horiz-adv-x="711" 
d="M95 0v1600h227v-1399h364v-201h-591z" />
    <glyph glyph-name="M" unicode="M" horiz-adv-x="1336" 
d="M95 0v1600h389l116 -628l43 -768h51l42 768l117 628h388v-1600h-228v483l42 916h-58l-94 -933l-102 -463h-268l-99 463l-95 933h-56l40 -916v-483h-228z" />
    <glyph glyph-name="N" unicode="N" horiz-adv-x="993" 
d="M95 0v1600h355l106 -508l122 -891h56l-41 767l-17 632h222v-1600h-371l-111 547l-96 853h-60l38 -793l18 -607h-221z" />
    <glyph glyph-name="O" unicode="O" horiz-adv-x="886" 
d="M443 -17q-187 0 -270 78.5t-86 261.5q-3 120 -4 239.5t-1 238.5t1 238t4 239q3 182 86 260.5t270 78.5t268.5 -78.5t86.5 -260.5q4 -121 5.5 -240.5t1.5 -238t-1.5 -237.5t-5.5 -239q-5 -183 -86.5 -261.5t-268.5 -78.5zM443 170q67 0 97.5 28t31.5 90q4 124 6 253.5
t2 260.5t-2 259.5t-6 250.5q-1 62 -32 90.5t-97 28.5q-65 0 -96.5 -28.5t-33.5 -90.5q-4 -121 -6 -249.5t-2 -259.5t2 -260.5t6 -254.5q2 -62 33.5 -90t96.5 -28z" />
    <glyph glyph-name="P" unicode="P" horiz-adv-x="836" 
d="M95 0v1600h331q185 0 267.5 -76.5t89.5 -254.5q3 -106 3 -193.5t-3 -183.5q-7 -177 -90 -254t-268 -77h-103v-561h-227zM322 762h103q66 0 97 30t34 88q3 63 4 131.5t0 137t-4 132.5q-3 59 -34 88.5t-96 29.5h-104v-637z" />
    <glyph glyph-name="Q" unicode="Q" horiz-adv-x="886" 
d="M764 -233q-147 -11 -225.5 40t-102.5 176q-183 1 -264.5 80t-84.5 260q-3 120 -4 239.5t-1 238.5t1 238t4 239q3 182 86 260.5t270 78.5t268.5 -78.5t86.5 -260.5q4 -121 5.5 -240.5t1.5 -238t-1.5 -237.5t-5.5 -239q-3 -119 -38.5 -191.5t-111.5 -108.5q7 -43 36 -61
t80 -12v-183zM443 170q67 0 97.5 28t31.5 90q4 124 6 253.5t2 260.5t-2 259.5t-6 250.5q-1 62 -31.5 90.5t-97.5 28.5q-65 0 -96.5 -28.5t-33.5 -90.5q-4 -121 -6 -249.5t-2 -259.5t2 -260.5t6 -254.5q2 -62 33.5 -90t96.5 -28z" />
    <glyph glyph-name="R" unicode="R" horiz-adv-x="854" 
d="M95 0v1600h329q185 0 268 -76.5t89 -254.5q3 -71 3.5 -130t0 -115.5t-3.5 -120.5q-4 -115 -39.5 -186.5t-110.5 -106.5l176 -610h-241l-149 572h-95v-572h-227zM322 773h101q66 0 97 30t34 88q3 64 4 129.5t0 131t-4 129.5q-3 59 -34 88.5t-96 29.5h-102v-626z" />
    <glyph glyph-name="S" unicode="S" horiz-adv-x="846" 
d="M425 -17q-186 0 -266 79t-88 261q-1 46 -1 90t1.5 88t5.5 89h214q-4 -80 -4.5 -158t4.5 -148q4 -58 36 -86t97 -28q64 0 93.5 28t34.5 86q4 43 5 81.5t-0.5 78.5t-4.5 85q-3 57 -25.5 98t-75.5 54l-140 35q-92 23 -144.5 68.5t-75 115t-25.5 167.5q-1 53 -1 106t1 106
q5 121 41 195.5t113.5 108.5t203.5 34q180 0 261 -78.5t88 -260.5q2 -49 1 -119t-4 -138h-218q3 75 3.5 149t-2.5 148q-1 57 -34 85t-95 28q-65 0 -95.5 -28t-35.5 -85q-5 -63 -5 -125.5t5 -125.5q4 -62 25.5 -100.5t75.5 -51.5l125 -29q98 -23 154 -70t80 -118t27 -169
q2 -39 2 -72t-1 -65.5t-2 -68.5q-7 -182 -88 -261t-266 -79z" />
    <glyph glyph-name="T" unicode="T" horiz-adv-x="726" 
d="M250 0v1399h-239v201h704v-201h-239v-1399h-226z" />
    <glyph glyph-name="U" unicode="U" horiz-adv-x="871" 
d="M436 -17q-189 0 -270.5 78.5t-84.5 259.5q-4 319 -4 640t4 639h227q-3 -212 -4 -435t0 -445.5t3 -435.5q0 -57 32.5 -85.5t96.5 -28.5q65 0 96.5 28.5t31.5 85.5q2 213 3 435.5t0.5 445.5t-3.5 435h226q5 -318 5 -639t-5 -640q-2 -181 -83.5 -259.5t-270.5 -78.5z" />
    <glyph glyph-name="V" unicode="V" horiz-adv-x="868" 
d="M239 0l-204 1600h235l105 -842l28 -557h62l28 557l104 842h236l-205 -1600h-389z" />
    <glyph glyph-name="W" unicode="W" horiz-adv-x="1392" 
d="M182 0l-133 1600h228l44 -673l37 -726h56l17 726l103 663h324l103 -663l16 -726h56l37 726l45 673h227l-133 -1600h-389l-61 482l-34 914h-58l-35 -914l-61 -482h-389z" />
    <glyph glyph-name="X" unicode="X" horiz-adv-x="823" 
d="M32 0l219 825l-212 775h222l90 -376l39 -308h46l39 308l87 376h222l-203 -783l210 -817h-221l-94 395l-40 320h-46l-40 -320l-96 -395h-222z" />
    <glyph glyph-name="Y" unicode="Y" horiz-adv-x="811" 
d="M292 0v423l-8 2l-257 1175h231l81 -417l42 -464h49l41 464l81 417h232l-258 -1176l-7 -1v-423h-227z" />
    <glyph glyph-name="Z" unicode="Z" horiz-adv-x="735" 
d="M34 0v188l424 1211h-401v201h643v-192l-438 -1207h406v-201h-634z" />
    <glyph glyph-name="bracketleft" unicode="[" horiz-adv-x="626" 
d="M92 -400v2000h474v-112h-247v-1776h247v-112h-474z" />
    <glyph glyph-name="backslash" unicode="\" horiz-adv-x="744" 
d="M684 -400h-227l-407 2000h227z" />
    <glyph glyph-name="bracketright" unicode="]" horiz-adv-x="626" 
d="M546 -400h-475v112h247v1776h-247v112h475v-2000z" />
    <glyph glyph-name="asciicircum" unicode="^" horiz-adv-x="802" 
d="M92 893l233 486h152l233 -486h-151l-158 333l-158 -333h-151z" />
    <glyph glyph-name="underscore" unicode="_" horiz-adv-x="1320" 
d="M60 -120v40h1200v-40h-1200z" />
    <glyph glyph-name="grave" unicode="`" horiz-adv-x="504" 
d="M257 1280l-165 255h155l157 -255h-147z" />
    <glyph glyph-name="a" unicode="a" 
d="M310 -14q-119 0 -176 61t-69 200q-1 21 -1 47t1 46q6 77 32.5 134t82.5 102t151 86q50 22 99 39.5t103 34.5v197q0 57 -23.5 84.5t-86.5 27.5q-53 0 -77.5 -23t-27.5 -81q-1 -18 -1.5 -53t0 -70.5t1.5 -56.5h-221q-1 25 -2 71.5t0 83.5q5 105 38 171.5t104.5 98
t192.5 31.5q125 0 196.5 -34.5t101 -108t29.5 -192.5l-1 -882h-226v120h-32q-30 -67 -71.5 -100.5t-116.5 -33.5zM398 151q46 0 80 25.5t53 70.5v332q-36 -10 -72 -24.5t-73 -36.5q-56 -32 -75 -76.5t-22 -101.5v-38.5t1 -37.5q5 -55 32.5 -84t75.5 -29z" />
    <glyph glyph-name="b" unicode="b" horiz-adv-x="887" 
d="M559 -17q-84 0 -127.5 35t-80.5 102h-28v-120h-227v1600h227v-520h42q37 68 80.5 102.5t128.5 34.5q113 0 169.5 -67.5t63.5 -226.5q2 -67 3 -152t1 -174t-1 -172.5t-3 -147.5q-7 -157 -71 -225.5t-177 -68.5zM480 151q52 0 74.5 25.5t24.5 81.5q4 73 5.5 157.5
t1.5 174.5t-1.5 179.5t-5.5 171.5q-2 56 -24.5 82t-74.5 26q-49 0 -93 -26t-64 -75v-696q20 -49 64.5 -75t92.5 -26z" />
    <glyph glyph-name="c" unicode="c" horiz-adv-x="824" 
d="M533 761q1 25 1.5 59.5t0 67.5t-1.5 53q-2 57 -27.5 80.5t-83.5 23.5q-60 0 -86 -23t-28 -81q-2 -89 -3 -173t-1 -166.5t1 -165.5t3 -170q2 -62 29 -86.5t87 -24.5q58 0 82.5 25t26.5 86q2 32 2 76t-2 100h221q3 -25 3.5 -71t-1.5 -82q-7 -163 -84 -234.5t-248 -71.5
q-176 0 -255.5 71.5t-87.5 234.5q-2 56 -3 137t-1 171t1 172t3 138q10 167 89 238.5t252 71.5t250.5 -70t83.5 -231q2 -36 1.5 -82.5t-3.5 -72.5h-221z" />
    <glyph glyph-name="d" unicode="d" horiz-adv-x="888" 
d="M318 -17q-113 0 -171.5 68.5t-65.5 225.5q-2 64 -3 147.5t-1 173t1 174t3 151.5q7 159 67.5 226.5t173.5 67.5q84 0 127.5 -34.5t80.5 -102.5h34v520h228v-1600h-228v120h-35q-37 -66 -81.5 -101.5t-129.5 -35.5zM407 151q49 0 93.5 26t63.5 75v696q-19 50 -63.5 75.5
t-92.5 25.5q-51 0 -74 -25.5t-26 -80.5q-4 -110 -5.5 -231.5t0 -238.5t5.5 -214q3 -57 26 -82.5t73 -25.5z" />
    <glyph glyph-name="e" unicode="e" horiz-adv-x="825" 
d="M426 -17q-178 0 -257 71.5t-88 234.5q-2 56 -3 137t-1 170.5t1 172t3 138.5q10 167 89.5 238.5t252.5 71.5q171 0 248.5 -70t84.5 -231q1 -25 2 -83t0.5 -130.5t-4.5 -142.5h-450q0 -72 1.5 -145t3.5 -149q2 -62 28.5 -86.5t87.5 -24.5q56 0 80.5 24.5t27.5 86.5
q2 30 2 75.5t-2 101.5h221q3 -26 3.5 -72t-1.5 -82q-7 -163 -83 -234.5t-247 -71.5zM305 721h230v92t-0.5 79t-1.5 48q-3 57 -28.5 81t-81.5 24q-61 0 -86.5 -24.5t-27.5 -80.5q-1 -57 -2 -111.5t-2 -107.5z" />
    <glyph glyph-name="f" unicode="f" horiz-adv-x="597" 
d="M137 0v1027h-118v173h118v113q-1 164 82 235t259 71q32 0 68.5 -4t69.5 -9v-167q-33 1 -67 2t-69 1q-59 0 -87.5 -27t-28.5 -85v-130h209v-173h-209v-1027h-227z" />
    <glyph glyph-name="g" unicode="g" horiz-adv-x="892" 
d="M414 -369q-157 0 -241 44.5t-98 132.5q-2 11 -4 28t0 33q5 51 40 86t90 42v35q-51 11 -80 39t-35 72q-1 12 -1 24.5t1 26.5q5 43 40.5 70t89.5 34v36q-72 33 -107 99.5t-42 174.5q-2 44 -3 81t-1 71.5t1 70.5t3 76q6 109 41.5 177.5t109.5 100.5t196 32
q119 0 189.5 -30.5t107.5 -97.5h35q7 58 41.5 84.5t102.5 26.5v-173h-31q-46 0 -72.5 -27t-26.5 -91l-1 -76v-52.5t0.5 -53.5t0 -56.5t-2.5 -62.5q-7 -112 -42.5 -180.5t-108.5 -99t-193 -30.5q-87 0 -122 -15.5t-35 -49.5v-9q0 -22 11 -35.5t44 -19.5t101 -8
q183 -3 270.5 -57.5t103.5 -168.5q2 -17 2.5 -35.5t-2.5 -41.5q-8 -81 -52.5 -131t-124.5 -73t-195 -23zM420 -210q54 0 92 8.5t60 27t28 48.5q4 14 3.5 27t-4.5 26q-6 30 -28 47t-59.5 24t-90.5 8q-78 2 -118.5 -16t-49.5 -63q-3 -14 -3 -27.5t3 -26.5q5 -30 25.5 -48.5
t56 -26.5t85.5 -8zM412 470q67 0 93 27t29 81q2 34 3.5 80t1.5 96.5t-1.5 97.5t-3.5 84q-3 57 -30 83t-92 26q-64 0 -92.5 -26t-30.5 -86q-2 -48 -3 -96t-1 -93t1 -86t3 -75q3 -54 28.5 -83.5t94.5 -29.5z" />
    <glyph glyph-name="h" unicode="h" horiz-adv-x="901" 
d="M96 0v1600h227v-520h42q37 68 80.5 102.5t128.5 34.5q113 0 174 -68t61 -226l1 -923h-228v942q0 56 -25 81.5t-77 25.5q-49 0 -93 -26t-64 -75v-948h-227z" />
    <glyph glyph-name="i" unicode="i" horiz-adv-x="418" 
d="M80 1404v196h259v-196h-259zM96 0v1200h227v-1200h-227z" />
    <glyph glyph-name="j" unicode="j" horiz-adv-x="420" 
d="M81 1404v196h260v-196h-260zM-20 -419q-31 0 -68.5 4t-68.5 9v170q26 -2 66 -3.5t70 -1.5q60 0 89 27t29 83v1331h227v-1312q0 -164 -83.5 -235.5t-260.5 -71.5z" />
    <glyph glyph-name="k" unicode="k" horiz-adv-x="802" 
d="M96 0v1600h213v-351l-26 -542h39l89 247l111 246h235l-231 -470l275 -730h-233l-184 501l-71 -125v-376h-217z" />
    <glyph glyph-name="l" unicode="l" horiz-adv-x="418" 
d="M96 0v1600h226v-1600h-226z" />
    <glyph glyph-name="m" unicode="m" horiz-adv-x="1370" 
d="M96 0v1200h227v-120h41q37 67 80 102t128 35q82 0 136 -35.5t77 -115.5h39q36 67 86.5 109t135.5 42q113 0 173 -67.5t60 -226.5v-923h-227v942q0 56 -24.5 81.5t-75.5 25.5q-45 0 -85.5 -29t-61.5 -76v-944h-227v942q0 56 -24.5 81.5t-75.5 25.5q-48 0 -92 -26t-63 -75
v-948h-227z" />
    <glyph glyph-name="n" unicode="n" horiz-adv-x="901" 
d="M96 0v1200h227v-120h42q37 66 81.5 101.5t127.5 35.5q113 0 174 -68t62 -226v-923h-227v942q-1 56 -26 81.5t-77 25.5q-46 0 -92 -27t-65 -74v-948h-227z" />
    <glyph glyph-name="o" unicode="o" horiz-adv-x="860" 
d="M431 -17q-125 0 -199.5 34t-109 108.5t-41.5 196.5q-1 54 -2.5 125.5t-1.5 149.5t1 151.5t3 130.5q7 121 41.5 195.5t109 108.5t199.5 34q126 0 199.5 -34.5t107.5 -109t40 -194.5q3 -55 4 -127t1 -149.5t-1 -150t-4 -130.5q-6 -121 -40 -195.5t-107.5 -109t-199.5 -34.5
zM431 155q64 0 91.5 27.5t28.5 85.5q3 86 4.5 169t1.5 164.5t-1.5 163.5t-4.5 168q-1 58 -28 85t-92 27q-64 0 -92.5 -27t-30.5 -85q-2 -83 -3.5 -165t-1.5 -165t1.5 -166.5t3.5 -168.5q2 -59 30.5 -86t92.5 -27z" />
    <glyph glyph-name="p" unicode="p" horiz-adv-x="887" 
d="M96 -400v1600h227v-120h35q37 68 80 102.5t128 34.5q114 0 174 -67.5t67 -226.5q2 -56 3 -140.5t1 -178t-1 -180t-3 -147.5q-7 -157 -73 -225.5t-179 -68.5q-65 0 -110.5 31.5t-86.5 105.5h-35v-520h-227zM466 151q52 0 81.5 25.5t31.5 81.5q4 84 6 172.5t1.5 177
t-2 173.5t-5.5 162q-2 55 -25 80.5t-74 25.5q-49 0 -93 -26t-64 -75v-696q22 -54 55.5 -77.5t87.5 -23.5z" />
    <glyph glyph-name="q" unicode="q" horiz-adv-x="887" 
d="M564 -400v520h-31q-40 -74 -86 -105.5t-112 -31.5q-112 0 -179.5 68.5t-74.5 225.5q-2 57 -3 141t-1 177t1 179.5t3 148.5q7 159 67 226.5t173 67.5q86 0 128.5 -34.5t79.5 -102.5h35v120h228v-1600h-228zM421 151q55 0 88.5 23.5t54.5 77.5v696q-19 50 -63.5 75.5
t-93.5 25.5t-72.5 -25t-26.5 -82q-4 -111 -5.5 -232.5t0 -238t5.5 -213.5q3 -56 33 -81.5t80 -25.5z" />
    <glyph glyph-name="r" unicode="r" horiz-adv-x="620" 
d="M96 0v1200h228v-134h41q13 79 54.5 109.5t108.5 30.5q22 0 43 -1.5t34 -2.5v-175h-75q-100 0 -146 -32.5t-60 -98.5v-896h-228z" />
    <glyph glyph-name="s" unicode="s" horiz-adv-x="783" 
d="M385 -17q-167 0 -238 71.5t-78 234.5q-1 37 -0.5 81t2.5 70h200q-2 -56 -1.5 -100t1.5 -74q2 -62 30 -86.5t84 -24.5q66 0 95 24.5t30 86.5q0 27 0.5 39.5t0.5 24v36.5q-1 49 -17 78t-59 42l-123 36q-82 25 -137 62t-82.5 95t-28.5 146q-1 22 -0.5 41.5t0.5 39.5
q1 167 75 239t257 72q169 0 238.5 -70t76.5 -231q2 -33 1 -80t-3 -72h-207q1 25 1.5 59t0 66.5t-1.5 51.5q-2 58 -25 81t-81 23q-60 0 -84 -23t-26 -81q-1 -25 -1.5 -42.5t-0.5 -54.5q1 -54 15 -89t67 -50l110 -28q123 -32 184 -99.5t61 -200.5v-46.5t-1 -46.5
q-1 -161 -77.5 -231t-257.5 -70z" />
    <glyph glyph-name="t" unicode="t" horiz-adv-x="609" 
d="M490 -17q-192 0 -272 71t-81 236v737h-101v173h104v340h228v-340h197v-173h-201l1 -762q0 -63 24.5 -87.5t101.5 -24.5q26 0 47 1.5t47 2.5v-164q-21 -5 -45 -7.5t-50 -2.5z" />
    <glyph glyph-name="u" unicode="u" horiz-adv-x="895" 
d="M329 -17q-112 0 -176.5 68.5t-64.5 225.5v923h227v-942q0 -56 24 -81.5t75 -25.5q47 0 92.5 27t64.5 74v948h228v-1200h-228v120h-33q-39 -72 -89.5 -104.5t-119.5 -32.5z" />
    <glyph glyph-name="v" unicode="v" horiz-adv-x="778" 
d="M195 0l-168 1200h232l67 -604l29 -427h64l30 427l70 604h232l-172 -1200h-384z" />
    <glyph glyph-name="w" unicode="w" horiz-adv-x="1327" 
d="M174 0l-144 1200h228l50 -604l25 -427h68l17 427l54 601h382l52 -601l17 -427h68l25 427l52 604h229l-147 -1200h-393l-35 465l-24 563h-71l-25 -563l-35 -465h-393z" />
    <glyph glyph-name="x" unicode="x" horiz-adv-x="736" 
d="M19 0l188 627l-184 573h221l68 -253l32 -228h48l32 228l69 253h220l-184 -577l188 -623h-220l-76 306l-29 247h-47l-29 -247l-76 -306h-221z" />
    <glyph glyph-name="y" unicode="y" horiz-adv-x="794" 
d="M202 -415q-31 0 -70.5 3.5t-71.5 8.5v170q26 -1 69 -3t72 -2q79 0 108.5 25t37.5 87l18 126h-134l-195 1200h231l61 -561l52 -469h63l37 469l53 561h231l-190 -1309q-15 -107 -54 -175t-114.5 -99.5t-203.5 -31.5z" />
    <glyph glyph-name="z" unicode="z" horiz-adv-x="704" 
d="M39 0v145l386 886l-378 -1v169l621 1v-149l-391 -882h384v-169h-622z" />
    <glyph glyph-name="braceleft" unicode="{" horiz-adv-x="697" 
d="M637 -403q-115 0 -208.5 34.5t-149 110.5t-55.5 202q0 23 1 68t3 99t4 107t3.5 93.5t1.5 57.5q0 81 -27.5 103t-78.5 22h-71v207h71q51 0 78.5 22t27.5 103q0 17 -1.5 57.5t-3 93.5t-3 107.5t-3 100t-1.5 69.5q0 125 55 201.5t148.5 110.5t208.5 34v-115q-50 0 -93.5 -31
t-69.5 -83.5t-26 -116.5q0 -20 1 -55.5t2.5 -78t3.5 -86t3 -81t1 -60.5q0 -109 -42.5 -184t-129.5 -92v-37q87 -16 129.5 -91.5t42.5 -184.5q0 -23 -1 -60t-3 -80.5t-3.5 -86.5t-2.5 -78t-1 -55q0 -64 26 -116.5t69.5 -84t93.5 -31.5v-115z" />
    <glyph glyph-name="bar" unicode="|" horiz-adv-x="410" 
d="M92 1823h226v-2063h-226v2063z" />
    <glyph glyph-name="braceright" unicode="}" horiz-adv-x="688" 
d="M51 -403v115q51 0 94 31.5t69 84t26 116.5q0 20 -1 55t-2.5 78t-3.5 86.5t-3 80.5t-1 60q0 109 42.5 184.5t128.5 91.5v37q-86 17 -128.5 92t-42.5 184q0 23 1 60.5t3 81t3.5 86t2.5 78t1 55.5q0 64 -26 116.5t-69 83.5t-94 31v115q115 0 208.5 -34t148.5 -110.5
t55 -201.5q0 -24 -1.5 -69.5t-3 -100t-3.5 -107.5t-3 -93.5t-1 -57.5q0 -81 28 -103t78 -22h71v-207h-71q-51 0 -78.5 -22t-27.5 -103q0 -17 1 -57.5t3.5 -93.5t4.5 -107t3 -99t1 -68q0 -126 -55.5 -202t-149 -110.5t-208.5 -34.5z" />
    <glyph glyph-name="asciitilde" unicode="~" horiz-adv-x="1008" 
d="M661 603q-58 1 -100 21t-76.5 45t-67.5 45.5t-73 22.5q-53 4 -86 -27.5t-39 -90.5h-127q10 154 81.5 221t178.5 62q63 -2 105.5 -21.5t74.5 -45t63 -44.5t71 -20q55 -3 87.5 25t35.5 79h127q-8 -144 -76.5 -209.5t-178.5 -62.5z" />
    <glyph glyph-name="uni00A0" unicode="&#xa0;" horiz-adv-x="428" 
 />
    <glyph glyph-name="exclamdown" unicode="&#xa1;" horiz-adv-x="469" 
d="M147 816h166l32 -774v-442h-230v443zM82 1200h297v-235h-297v235z" />
    <glyph glyph-name="cent" unicode="&#xa2;" horiz-adv-x="824" 
d="M318 0v191q-119 19 -174.5 90.5t-62.5 207.5q-2 56 -3 137.5t-1 172t1 172.5t3 136q7 140 63 211.5t174 90.5v191h198v-190q123 -16 179 -86.5t61 -207.5q2 -35 1 -82t-3 -73h-221q1 25 1.5 60t0 68t-1.5 52q-2 57 -27.5 80.5t-84.5 23.5t-85 -23t-28 -81q-2 -89 -3 -173
t-1 -166.5t1 -165.5t3 -170q2 -62 29 -86.5t87 -24.5q58 0 82.5 25t26.5 86q2 31 2 75.5t-2 100.5h221q2 -25 3 -71t-1 -82q-5 -139 -61.5 -211t-178.5 -89v-189h-198z" />
    <glyph glyph-name="sterling" unicode="&#xa3;" horiz-adv-x="938" 
d="M133 0v195q32 20 53.5 74.5t32.5 137t11 185.5q0 49 -3.5 91t-9.5 79h-123v115h94q-14 59 -29 117.5t-24.5 127.5t-9.5 157q2 159 85.5 248.5t267.5 89.5q183 0 265 -79t87 -261q1 -36 1.5 -81t-0.5 -90.5t-2 -86.5h-227q1 32 1.5 71t0.5 79.5v79t-1 68.5q-1 58 -32 85.5
t-93 27.5t-93.5 -27.5t-32.5 -85.5q0 -78 12 -149t29.5 -141.5t32.5 -149.5h180v-115h-165q4 -32 6.5 -66t2.5 -71q0 -136 -28.5 -233t-76.5 -154v-37h502v-201h-714z" />
    <glyph glyph-name="currency" unicode="&#xa4;" horiz-adv-x="1116" 
d="M194 52l-97 81l147 174q-20 38 -30 88t-14 113q-1 54 -2.5 125.5t-1.5 149.5t1 151.5t3 130.5q4 64 15 115t32 90l-153 176l92 82l147 -169q77 44 217 44q150 0 227 -50l154 172l93 -85l-167 -183q19 -36 28.5 -84t11.5 -108q3 -55 4 -127t1 -149.5t-1 -150.5t-4 -130
q-2 -60 -12 -108.5t-29 -87.5l152 -177l-94 -83l-141 164q-75 -47 -223 -47q-143 0 -220 45zM550 341q64 0 91.5 27t28.5 86q3 86 4.5 168.5t1.5 164.5t-1.5 164t-4.5 168q-1 58 -28 85t-92 27q-64 0 -92.5 -27t-30.5 -85q-2 -83 -3.5 -165t-1.5 -165t1.5 -166.5t3.5 -168.5
q2 -59 30.5 -86t92.5 -27z" />
    <glyph glyph-name="yen" unicode="&#xa5;" horiz-adv-x="811" 
d="M292 0v146h-182v93h182v57h-182v93h182v33l-8 2l-257 1176h232l82 -417l40 -464h49l40 464l82 417h232l-258 -1176l-7 -2v-33h183v-93h-183v-57h183v-93h-183v-146h-227z" />
    <glyph glyph-name="brokenbar" unicode="&#xa6;" horiz-adv-x="410" 
d="M92 1823h226v-807h-226v807zM92 536h226v-776h-226v776z" />
    <glyph glyph-name="section" unicode="&#xa7;" horiz-adv-x="846" 
d="M416 -417q-112 0 -180 25t-100 87t-37 171q-1 24 -1 59t1 67.5t2 49.5h201q-2 -38 -2.5 -69.5t0 -58t1.5 -49.5q3 -61 30.5 -85.5t84.5 -24.5q66 0 95 24.5t30 86.5q0 38 0.5 76.5t-0.5 73.5q-1 50 -13.5 80t-61.5 41l-113 31q-119 31 -186.5 92.5t-72.5 181.5
q-1 66 -1 123t1 131q3 89 39.5 144t91.5 78v37q-55 21 -90.5 63t-40.5 131q-3 41 -2.5 92t3.5 85q9 111 40 171t100 83t192 23q168 0 238 -70t77 -231q1 -35 1 -78.5t-3 -90.5h-208q2 32 2.5 70t0 71t-1.5 52q-3 58 -26 74.5t-80 16.5q-61 0 -83 -16.5t-27 -73.5
q-3 -29 -3.5 -85t0.5 -94q3 -53 16 -85t66 -45l110 -26q116 -27 177.5 -103.5t67.5 -199.5q5 -78 4 -129.5t-4 -117.5q-5 -75 -39.5 -124t-86.5 -72v-31q59 -23 92.5 -76t35.5 -130q2 -33 1 -73t-3 -70q-7 -106 -40 -168t-104 -88.5t-191 -26.5zM430 336q64 0 88 32t29 80
q3 36 4 80t0 88.5t-4 79.5q-5 48 -28.5 79t-88.5 31q-63 0 -90 -31t-31 -79q-4 -54 -3.5 -124.5t3.5 -123.5q7 -49 32.5 -80.5t88.5 -31.5z" />
    <glyph glyph-name="dieresis" unicode="&#xa8;" horiz-adv-x="644" 
d="M381 1310v160h161v-160h-161zM125 1310v160h160v-160h-160z" />
    <glyph glyph-name="copyright" unicode="&#xa9;" horiz-adv-x="1288" 
d="M645 -10q-182 0 -305.5 68.5t-185.5 204t-62 337.5t62 337.5t185.5 204t305.5 68.5q273 0 412.5 -153.5t139.5 -456.5q0 -202 -62 -337.5t-185 -204t-305 -68.5zM645 102q211 0 318 124.5t107 373.5q0 248 -107 373t-318 125q-212 0 -319.5 -124.5t-107.5 -373.5
t107.5 -373.5t319.5 -124.5zM648 210q-116 0 -168 48.5t-60 160.5q-1 31 -1.5 77.5t-0.5 97.5t0.5 98.5t1.5 81.5q6 114 58.5 162.5t168.5 48.5q117 0 167 -48t56 -157q2 -20 1 -37.5t-3 -31.5h-139q2 19 1 43t-1 40q0 46 -19.5 63t-62.5 17t-62 -17t-21 -63
q-3 -70 -3 -133.5t1 -126.5t2 -131q1 -47 21 -65t63 -18t61 18t20 65q2 19 2 36.5t-2 50.5h139q2 -16 3 -33.5t-1 -38.5q-7 -111 -56.5 -159.5t-165.5 -48.5z" />
    <glyph glyph-name="ordfeminine" unicode="&#xaa;" horiz-adv-x="737" 
d="M287 754q-94 0 -137 43t-56 147q-1 14 -1.5 31t0.5 33q8 84 53.5 134.5t159.5 91.5q39 14 78 25.5t85 22.5q-1 32 -1.5 64t-2.5 63q-1 35 -17 54.5t-70 19.5q-42 0 -61.5 -15t-24.5 -55q-1 -8 -1 -34.5t1 -52.5t1 -34h-174q-1 7 -1.5 27.5t-1 43t0.5 34.5q7 113 64 166.5
t202 53.5q100 0 156 -25.5t79 -80.5t25 -143q1 -36 1.5 -92t0.5 -124t-0.5 -138.5t-1 -135t-0.5 -113.5h-180q0 22 0.5 43.5t1.5 43.5h-26q-24 -48 -56.5 -73t-95.5 -25zM358 883q36 0 65 17.5t45 48.5q1 54 1 107v106q-31 -7 -62 -16.5t-59 -23.5q-45 -19 -60 -48t-18 -66
q-1 -9 -0.5 -25t0.5 -25q2 -38 27 -56.5t61 -18.5z" />
    <glyph glyph-name="guillemotleft" unicode="&#xab;" horiz-adv-x="701" 
d="M320 842l-298 -323v214l298 324v-215zM320 196l-298 323v214l298 -323v-214zM605 842l-298 -323v214l298 324v-215zM605 196l-298 323v214l298 -323v-214z" />
    <glyph glyph-name="logicalnot" unicode="&#xac;" horiz-adv-x="956" 
d="M691 468v349h-599v172h772v-521h-173z" />
    <glyph glyph-name="uni00AD" unicode="&#xad;" horiz-adv-x="787" 
d="M60 634v200h667v-200h-667z" />
    <glyph glyph-name="registered" unicode="&#xae;" horiz-adv-x="882" 
d="M443 996q-172 0 -261.5 96.5t-89.5 281.5q0 189 89.5 285t261.5 96q171 0 259.5 -96t88.5 -285q0 -185 -88.5 -281.5t-259.5 -96.5zM443 1067q141 0 208.5 75t67.5 232q0 160 -67.5 234.5t-208.5 74.5q-142 0 -210.5 -74.5t-68.5 -234.5q0 -157 68.5 -232t210.5 -75z
M339 1176v424h109q60 0 88 -23.5t31 -80.5v-20v-22q-1 -31 -15.5 -50t-45.5 -26v-13q30 -6 44 -24t15 -52q1 -16 2 -33.5t1 -37t-1 -42.5h-81q1 31 0 64t-2 60q-1 40 -36 40h-29v-164h-80zM419 1411h30q18 0 27 8.5t10 26.5v26v29q-1 29 -38 29h-29v-119z" />
    <glyph glyph-name="macron" unicode="&#xaf;" horiz-adv-x="850" 
d="M120 1381h576v-109h-576v109z" />
    <glyph glyph-name="degree" unicode="&#xb0;" horiz-adv-x="629" 
d="M316 1182q-62 0 -112.5 30t-81 79.5t-30.5 108.5q0 60 30.5 110t81.5 80t112 30q60 0 110 -30t80.5 -80t30.5 -110q0 -59 -30.5 -108.5t-80.5 -79.5t-110 -30zM315 1278q52 0 89 36t37 86q0 52 -37 88t-89 36t-89.5 -36t-37.5 -88q0 -50 37.5 -86t89.5 -36z" />
    <glyph glyph-name="plusminus" unicode="&#xb1;" horiz-adv-x="996" 
d="M412 502v153h-320v172h320v197h172v-197h320v-172h-320v-153h-172zM92 272v140h812v-140h-812z" />
    <glyph glyph-name="uni00B2" unicode="&#xb2;" horiz-adv-x="558" 
d="M65 879q-1 51 -1 82t1 72q2 74 44.5 124.5t112.5 84.5l69 34q27 16 35.5 33t10.5 44q2 22 2 41t-2 40q-1 18 -13.5 30.5t-41.5 12.5q-50 0 -52 -42q-2 -31 -1 -63t2 -51h-163q-1 21 -2 45t0 48q4 97 60 146t155 49q110 0 165.5 -50t56.5 -145q0 -10 0.5 -19t0.5 -19v-23
q-1 -73 -39 -118.5t-109 -78.5l-83 -38q-14 -9 -25.5 -26.5t-11.5 -39.5v-29h251v-144h-422z" />
    <glyph glyph-name="uni00B3" unicode="&#xb3;" horiz-adv-x="570" 
d="M287 870q-110 0 -170 46.5t-60 137.5q-1 10 -1 18t0.5 18.5t1.5 24.5h164q-1 -16 -1.5 -31.5t0.5 -28.5q1 -24 15.5 -38.5t46.5 -14.5q31 0 45.5 13t15.5 35v41.5v40.5q-1 28 -16.5 42t-47.5 14h-103l-5 120l124 148h-225v144h428l-2 -140l-141 -147q72 -10 113 -53.5
t41 -124.5q1 -12 1 -27.5v-30t-1 -24.5q-1 -87 -57 -135t-166 -48z" />
    <glyph glyph-name="acute" unicode="&#xb4;" horiz-adv-x="497" 
d="M85 1280l172 255h155l-179 -255h-148z" />
    <glyph glyph-name="uni00B5" unicode="&#xb5;" horiz-adv-x="924" 
d="M94 -400l-2 1600h227l1 -942q1 -56 25.5 -81.5t75.5 -25.5q47 0 91 27t63 74v948h228v-976q0 -73 7.5 -131.5t22.5 -92.5h-228q-9 21 -15 51.5t-11 68.5h-37q-26 -49 -57 -79t-72 -43q-48 -13 -91 -5v-393h-228z" />
    <glyph glyph-name="paragraph" unicode="&#xb6;" horiz-adv-x="1036" 
d="M509 -200v938h-67q-122 0 -196 33t-109.5 107.5t-42.5 198.5q-2 28 -2 62.5t0.5 67.5t1.5 56q6 122 41 196t108.5 107.5t198.5 33.5h503v-126h-85v-1674h-142v1674h-67v-1674h-142z" />
    <glyph glyph-name="periodcentered" unicode="&#xb7;" horiz-adv-x="346" 
d="M86 748v174h174v-174h-174z" />
    <glyph glyph-name="cedilla" unicode="&#xb8;" horiz-adv-x="448" 
d="M76 -306v112h60q56 0 78.5 23t13.5 76l-16 95h122l16 -95q16 -111 -36 -161t-178 -50h-60z" />
    <glyph glyph-name="uni00B9" unicode="&#xb9;" horiz-adv-x="383" 
d="M132 881v582h-90l-3 56l129 82h131v-720h-167z" />
    <glyph glyph-name="ordmasculine" unicode="&#xba;" horiz-adv-x="745" 
d="M372 753q-145 0 -206.5 57t-69.5 196q-1 20 -2 55t-1.5 77.5t0 85.5t1 80.5t2.5 60.5q8 92 35.5 147.5t84 80t153.5 24.5q155 0 215 -60.5t67 -191.5q1 -24 2 -61t1 -80.5v-86t-1 -77.5t-2 -54q-8 -87 -33.5 -143.5t-83.5 -83t-162 -26.5zM374 886q53 0 74 19t22 57
q3 67 4.5 123t1.5 107t-1.5 104t-4.5 113q-1 38 -22.5 56.5t-73.5 18.5q-51 0 -73.5 -18.5t-24.5 -56.5q-3 -82 -4.5 -149.5t-0.5 -137.5t5 -160q2 -39 25 -57.5t73 -18.5z" />
    <glyph glyph-name="guillemotright" unicode="&#xbb;" horiz-adv-x="693" 
d="M373 842v215l298 -324v-214zM373 196v214l298 323v-214zM88 842v215l298 -324v-214zM88 196v214l298 323v-214z" />
    <glyph glyph-name="onequarter" unicode="&#xbc;" horiz-adv-x="979" 
d="M132 881v582h-90l-3 56l129 82h131v-720h-167zM-140 0l914 1600h173l-916 -1600h-171zM854 720v-411h83v-142h-83v-167h-156v167h-249v137l193 416h212zM698 309l22 154l19 113h-29l-42 -113l-57 -154h87z" />
    <glyph glyph-name="onehalf" unicode="&#xbd;" horiz-adv-x="998" 
d="M132 881v582h-90l-3 56l129 82h131v-720h-167zM-140 0l914 1600h173l-916 -1600h-171zM505 0q-1 51 -1 82t1 72q2 74 44.5 124.5t112.5 84.5l69 34q27 16 35.5 33t10.5 44q2 22 2 41t-2 40q-1 18 -13.5 30.5t-41.5 12.5q-50 0 -52 -42q-2 -31 -1 -63t2 -51h-163
q-1 21 -2 45t0 48q4 97 60 146t155 49q110 0 165.5 -50t56.5 -145q0 -10 0.5 -19t0.5 -19v-23q-1 -73 -39 -118.5t-109 -78.5l-83 -38q-14 -9 -25.5 -26.5t-11.5 -39.5v-29h251v-144h-422z" />
    <glyph glyph-name="threequarters" unicode="&#xbe;" horiz-adv-x="1222" 
d="M287 870q-110 0 -170 46.5t-60 137.5q-1 10 -1 18t0.5 18.5t1.5 24.5h164q-1 -16 -1.5 -31.5t0.5 -28.5q1 -24 15.5 -38.5t46.5 -14.5q31 0 45.5 13t15.5 35v41.5v40.5q-1 28 -16.5 42t-47.5 14h-103l-5 120l124 148h-225v144h428l-2 -140l-141 -147q72 -10 113 -53.5
t41 -124.5q1 -12 1 -27.5v-30t-1 -24.5q-1 -87 -57 -135t-166 -48zM103 0l914 1600h173l-916 -1600h-171zM1097 720v-411h83v-142h-83v-167h-156v167h-249v137l193 416h212zM941 309l22 154l19 113h-29l-42 -113l-57 -154h87z" />
    <glyph glyph-name="questiondown" unicode="&#xbf;" horiz-adv-x="836" 
d="M424 -419q-193 0 -277 79.5t-84 263.5v98t-0.5 67t0.5 55q0 100 16 161.5t41.5 96.5t56 54.5t61.5 34.5l45 22q41 21 49.5 56.5t11.5 71.5l8 168h175l6 -168q4 -74 -6.5 -126t-43 -91.5t-94.5 -76.5l-37 -20q-26 -14 -38 -39.5t-15.5 -61.5t-3.5 -82v-261q0 -55 32 -83.5
t95 -28.5q59 0 89 28.5t33 83.5q5 74 5 147.5t-3 144.5h224q2 -42 3 -82.5t1 -82t-2 -86.5q-8 -183 -88.5 -263t-259.5 -80zM291 965v235h297v-235h-297z" />
    <glyph glyph-name="Agrave" unicode="&#xc0;" horiz-adv-x="846" 
d="M33 0l199 1600h382l199 -1600h-232l-38 392h-240l-37 -392h-233zM324 593h198l-34 351l-33 455h-63l-33 -456zM327 1680l-165 255h155l157 -255h-147z" />
    <glyph glyph-name="Aacute" unicode="&#xc1;" horiz-adv-x="846" 
d="M33 0l199 1600h382l199 -1600h-232l-38 392h-240l-37 -392h-233zM324 593h198l-34 351l-33 455h-63l-33 -456zM356 1680l172 255h155l-179 -255h-148z" />
    <glyph glyph-name="Acircumflex" unicode="&#xc2;" horiz-adv-x="846" 
d="M33 0l199 1600h382l199 -1600h-232l-38 392h-240l-37 -392h-233zM324 593h198l-34 351l-33 455h-63l-33 -456zM202 1682l152 255h136l152 -255h-152l-68 126l-68 -126h-152z" />
    <glyph glyph-name="Atilde" unicode="&#xc3;" horiz-adv-x="846" 
d="M33 0l199 1600h382l199 -1600h-232l-38 392h-240l-37 -392h-233zM324 593h198l-34 351l-33 455h-63l-33 -456zM562 1868h93q-4 -96 -38.5 -141.5t-98.5 -45.5q-40 0 -63.5 13t-40 30t-33 30t-43.5 13t-38 -19.5t-15 -55.5h-91q7 102 43.5 148t100.5 46q41 0 65 -12.5
t40.5 -29.5t32.5 -30t41 -13t34.5 17t10.5 50z" />
    <glyph glyph-name="Adieresis" unicode="&#xc4;" horiz-adv-x="846" 
d="M33 0l199 1600h382l199 -1600h-232l-38 392h-240l-37 -392h-233zM324 593h198l-34 351l-33 455h-63l-33 -456zM471 1710v160h161v-160h-161zM215 1710v160h160v-160h-160z" />
    <glyph glyph-name="Aring" unicode="&#xc5;" horiz-adv-x="846" 
d="M33 0l199 1600h382l199 -1600h-232l-38 392h-240l-37 -392h-233zM324 593h198l-34 351l-33 455h-63l-33 -456zM423 1672q-74 0 -127.5 53t-53.5 128t53.5 128t127.5 53q75 0 128.5 -53t53.5 -128t-53.5 -128t-128.5 -53zM423 1793q26 0 43 17.5t17 42.5t-17 42t-43 17
q-24 0 -41.5 -17t-17.5 -42t17.5 -42.5t41.5 -17.5z" />
    <glyph glyph-name="AE" unicode="&#xc6;" horiz-adv-x="1207" 
d="M33 0l303 1600h824v-201h-368v-488h348v-201h-348v-509h368v-201h-595v391h-212l-73 -391h-247zM395 592h170v807h-56l-57 -513z" />
    <glyph glyph-name="Ccedilla" unicode="&#xc7;" horiz-adv-x="871" 
d="M441 -18q-189 0 -270 79t-85 262q-2 113 -3 233.5t-1 243.5t1 244t3 235q2 163 86 250.5t268 87.5q183 0 265.5 -79.5t88.5 -259.5q1 -37 1 -83t-1 -92.5t-2 -82.5h-227q2 44 2.5 95t0.5 102.5t-1 94.5q-1 62 -32 90t-95 28t-95 -28t-33 -90q-3 -126 -4.5 -254.5
t-1.5 -257.5t1.5 -257.5t4.5 -254.5q2 -61 33.5 -90t95.5 -29q68 0 100.5 29t33.5 90q1 45 1.5 97t-0.5 105t-2 100h227q2 -66 2.5 -135t-1.5 -132q-6 -183 -89.5 -262t-271.5 -79zM238 -292v112h60q56 0 78.5 23t13.5 76l-16 95h122l16 -95q16 -111 -36 -161t-178 -50h-60z
" />
    <glyph glyph-name="Egrave" unicode="&#xc8;" horiz-adv-x="737" 
d="M95 0v1600h595v-201h-368v-488h348v-201h-348v-509h368v-201h-595zM284 1680l-165 255h155l157 -255h-147z" />
    <glyph glyph-name="Eacute" unicode="&#xc9;" horiz-adv-x="737" 
d="M95 0v1600h595v-201h-368v-488h348v-201h-348v-509h368v-201h-595zM313 1680l172 255h155l-179 -255h-148z" />
    <glyph glyph-name="Ecircumflex" unicode="&#xca;" horiz-adv-x="737" 
d="M95 0v1600h595v-201h-368v-488h348v-201h-348v-509h368v-201h-595zM159 1682l152 255h136l152 -255h-152l-68 126l-68 -126h-152z" />
    <glyph glyph-name="Edieresis" unicode="&#xcb;" horiz-adv-x="737" 
d="M95 0v1600h595v-201h-368v-488h348v-201h-348v-509h368v-201h-595zM428 1710v160h161v-160h-161zM172 1710v160h160v-160h-160z" />
    <glyph glyph-name="Igrave" unicode="&#xcc;" horiz-adv-x="417" 
d="M95 0v1600h227v-1600h-227zM112 1680l-165 255h155l157 -255h-147z" />
    <glyph glyph-name="Iacute" unicode="&#xcd;" horiz-adv-x="417" 
d="M95 0v1600h227v-1600h-227zM141 1680l172 255h155l-179 -255h-148z" />
    <glyph glyph-name="Icircumflex" unicode="&#xce;" horiz-adv-x="417" 
d="M95 0v1600h227v-1600h-227zM-13 1682l152 255h136l152 -255h-152l-68 126l-68 -126h-152z" />
    <glyph glyph-name="Idieresis" unicode="&#xcf;" horiz-adv-x="417" 
d="M95 0v1600h227v-1600h-227zM256 1710v160h161v-160h-161zM0 1710v160h160v-160h-160z" />
    <glyph glyph-name="Eth" unicode="&#xd0;" horiz-adv-x="968" 
d="M62 946h474v-115h-474v115zM179 0v1600h344q188 0 271.5 -80.5t87.5 -264.5q3 -162 4 -308.5t0 -292t-4 -308.5q-4 -185 -87.5 -265.5t-270.5 -80.5h-345zM406 201h118q66 0 98 30t33 90q3 122 4.5 241.5t1.5 238.5t-1.5 238.5t-4.5 241.5q-1 59 -33.5 88.5t-98.5 29.5
h-117v-1198z" />
    <glyph glyph-name="Ntilde" unicode="&#xd1;" horiz-adv-x="993" 
d="M95 0v1600h355l106 -508l122 -891h56l-41 767l-17 632h222v-1600h-371l-111 547l-96 853h-60l38 -793l18 -607h-221zM639 1868h93q-4 -96 -38.5 -141.5t-98.5 -45.5q-40 0 -63.5 13t-40 30t-33 30t-43.5 13t-38 -19.5t-15 -55.5h-91q7 102 43.5 148t100.5 46
q41 0 65 -12.5t40.5 -29.5t32.5 -30t41 -13t34.5 17t10.5 50z" />
    <glyph glyph-name="Ograve" unicode="&#xd2;" horiz-adv-x="886" 
d="M443 -17q-187 0 -270 78.5t-86 261.5q-3 120 -4 239.5t-1 238.5t1 238t4 239q3 182 86 260.5t270 78.5t268.5 -78.5t86.5 -260.5q4 -121 5.5 -240.5t1.5 -238t-1.5 -237.5t-5.5 -239q-5 -183 -86.5 -261.5t-268.5 -78.5zM443 170q67 0 97.5 28t31.5 90q4 124 6 253.5
t2 260.5t-2 259.5t-6 250.5q-1 62 -32 90.5t-97 28.5q-65 0 -96.5 -28.5t-33.5 -90.5q-4 -121 -6 -249.5t-2 -259.5t2 -260.5t6 -254.5q2 -62 33.5 -90t96.5 -28zM348 1680l-165 255h155l157 -255h-147z" />
    <glyph glyph-name="Oacute" unicode="&#xd3;" horiz-adv-x="886" 
d="M443 -17q-187 0 -270 78.5t-86 261.5q-3 120 -4 239.5t-1 238.5t1 238t4 239q3 182 86 260.5t270 78.5t268.5 -78.5t86.5 -260.5q4 -121 5.5 -240.5t1.5 -238t-1.5 -237.5t-5.5 -239q-5 -183 -86.5 -261.5t-268.5 -78.5zM443 170q67 0 97.5 28t31.5 90q4 124 6 253.5
t2 260.5t-2 259.5t-6 250.5q-1 62 -32 90.5t-97 28.5q-65 0 -96.5 -28.5t-33.5 -90.5q-4 -121 -6 -249.5t-2 -259.5t2 -260.5t6 -254.5q2 -62 33.5 -90t96.5 -28zM377 1680l172 255h155l-179 -255h-148z" />
    <glyph glyph-name="Ocircumflex" unicode="&#xd4;" horiz-adv-x="886" 
d="M443 -17q-187 0 -270 78.5t-86 261.5q-3 120 -4 239.5t-1 238.5t1 238t4 239q3 182 86 260.5t270 78.5t268.5 -78.5t86.5 -260.5q4 -121 5.5 -240.5t1.5 -238t-1.5 -237.5t-5.5 -239q-5 -183 -86.5 -261.5t-268.5 -78.5zM443 170q67 0 97.5 28t31.5 90q4 124 6 253.5
t2 260.5t-2 259.5t-6 250.5q-1 62 -32 90.5t-97 28.5q-65 0 -96.5 -28.5t-33.5 -90.5q-4 -121 -6 -249.5t-2 -259.5t2 -260.5t6 -254.5q2 -62 33.5 -90t96.5 -28zM223 1682l152 255h136l152 -255h-152l-68 126l-68 -126h-152z" />
    <glyph glyph-name="Otilde" unicode="&#xd5;" horiz-adv-x="886" 
d="M443 -17q-187 0 -270 78.5t-86 261.5q-3 120 -4 239.5t-1 238.5t1 238t4 239q3 182 86 260.5t270 78.5t268.5 -78.5t86.5 -260.5q4 -121 5.5 -240.5t1.5 -238t-1.5 -237.5t-5.5 -239q-5 -183 -86.5 -261.5t-268.5 -78.5zM443 170q67 0 97.5 28t31.5 90q4 124 6 253.5
t2 260.5t-2 259.5t-6 250.5q-1 62 -32 90.5t-97 28.5q-65 0 -96.5 -28.5t-33.5 -90.5q-4 -121 -6 -249.5t-2 -259.5t2 -260.5t6 -254.5q2 -62 33.5 -90t96.5 -28zM583 1868h93q-4 -96 -38.5 -141.5t-98.5 -45.5q-40 0 -63.5 13t-40 30t-33 30t-43.5 13t-38 -19.5t-15 -55.5
h-91q7 102 43.5 148t100.5 46q41 0 65 -12.5t40.5 -29.5t32.5 -30t41 -13t34.5 17t10.5 50z" />
    <glyph glyph-name="Odieresis" unicode="&#xd6;" horiz-adv-x="886" 
d="M443 -17q-187 0 -270 78.5t-86 261.5q-3 120 -4 239.5t-1 238.5t1 238t4 239q3 182 86 260.5t270 78.5t268.5 -78.5t86.5 -260.5q4 -121 5.5 -240.5t1.5 -238t-1.5 -237.5t-5.5 -239q-5 -183 -86.5 -261.5t-268.5 -78.5zM443 170q67 0 97.5 28t31.5 90q4 124 6 253.5
t2 260.5t-2 259.5t-6 250.5q-1 62 -32 90.5t-97 28.5q-65 0 -96.5 -28.5t-33.5 -90.5q-4 -121 -6 -249.5t-2 -259.5t2 -260.5t6 -254.5q2 -62 33.5 -90t96.5 -28zM492 1710v160h161v-160h-161zM236 1710v160h160v-160h-160z" />
    <glyph glyph-name="multiply" unicode="&#xd7;" horiz-adv-x="882" 
d="M214 396l-122 121l227 224l-227 225l122 121l227 -225l228 225l122 -121l-227 -225l227 -224l-122 -121l-228 224z" />
    <glyph glyph-name="Oslash" unicode="&#xd8;" horiz-adv-x="886" 
d="M443 -17q-187 0 -270 78.5t-86 261.5q-3 120 -4 239.5t-1 238.5t1 238t4 239q3 182 86 260.5t270 78.5t268.5 -78.5t86.5 -260.5q4 -121 5.5 -240.5t1.5 -238t-1.5 -237.5t-5.5 -239q-5 -183 -86.5 -261.5t-268.5 -78.5zM443 170q67 0 97.5 28t31.5 90q3 94 5 187.5
t2 187.5v191l-270 -402q1 -40 2 -81t2 -83q2 -62 33.5 -90t96.5 -28zM305 709l272 399q-1 51 -2.5 102t-2.5 102q-1 62 -32 90.5t-97 28.5q-65 0 -96.5 -28.5t-33.5 -90.5q-3 -97 -5 -196.5t-3 -201t0 -205.5z" />
    <glyph glyph-name="Ugrave" unicode="&#xd9;" horiz-adv-x="871" 
d="M436 -17q-189 0 -270.5 78.5t-84.5 259.5q-4 319 -4 640t4 639h227q-3 -212 -4 -435t0 -445.5t3 -435.5q0 -57 32.5 -85.5t96.5 -28.5q65 0 96.5 28.5t31.5 85.5q2 213 3 435.5t0.5 445.5t-3.5 435h226q5 -318 5 -639t-5 -640q-2 -181 -83.5 -259.5t-270.5 -78.5z
M340 1680l-165 255h155l157 -255h-147z" />
    <glyph glyph-name="Uacute" unicode="&#xda;" horiz-adv-x="871" 
d="M436 -17q-189 0 -270.5 78.5t-84.5 259.5q-4 319 -4 640t4 639h227q-3 -212 -4 -435t0 -445.5t3 -435.5q0 -57 32.5 -85.5t96.5 -28.5q65 0 96.5 28.5t31.5 85.5q2 213 3 435.5t0.5 445.5t-3.5 435h226q5 -318 5 -639t-5 -640q-2 -181 -83.5 -259.5t-270.5 -78.5z
M369 1680l172 255h155l-179 -255h-148z" />
    <glyph glyph-name="Ucircumflex" unicode="&#xdb;" horiz-adv-x="871" 
d="M436 -17q-189 0 -270.5 78.5t-84.5 259.5q-4 319 -4 640t4 639h227q-3 -212 -4 -435t0 -445.5t3 -435.5q0 -57 32.5 -85.5t96.5 -28.5q65 0 96.5 28.5t31.5 85.5q2 213 3 435.5t0.5 445.5t-3.5 435h226q5 -318 5 -639t-5 -640q-2 -181 -83.5 -259.5t-270.5 -78.5z
M215 1682l152 255h136l152 -255h-152l-68 126l-68 -126h-152z" />
    <glyph glyph-name="Udieresis" unicode="&#xdc;" horiz-adv-x="871" 
d="M436 -17q-189 0 -270.5 78.5t-84.5 259.5q-4 319 -4 640t4 639h227q-3 -212 -4 -435t0 -445.5t3 -435.5q0 -57 32.5 -85.5t96.5 -28.5q65 0 96.5 28.5t31.5 85.5q2 213 3 435.5t0.5 445.5t-3.5 435h226q5 -318 5 -639t-5 -640q-2 -181 -83.5 -259.5t-270.5 -78.5z
M484 1710v160h161v-160h-161zM228 1710v160h160v-160h-160z" />
    <glyph glyph-name="Yacute" unicode="&#xdd;" horiz-adv-x="811" 
d="M292 0v423l-8 2l-257 1175h231l81 -417l42 -464h49l41 464l81 417h232l-258 -1176l-7 -1v-423h-227zM332 1680l172 255h155l-179 -255h-148z" />
    <glyph glyph-name="Thorn" unicode="&#xde;" horiz-adv-x="827" 
d="M92 0v1600h226v-263h103q185 0 268 -77t89 -254q4 -106 4 -193.5t-4 -183.5q-6 -177 -89 -254t-269 -77h-102v-298h-226zM318 499h102q66 0 97.5 29.5t33.5 88.5q4 63 5 131.5t0 137t-5 131.5q-3 60 -34 89.5t-96 29.5h-103v-637z" />
    <glyph glyph-name="germandbls" unicode="&#xdf;" horiz-adv-x="869" 
d="M92 0v1262q0 118 35.5 192.5t114 110t206.5 35.5q187 0 267.5 -77t81.5 -255q1 -59 1 -105.5t-3 -94.5q-5 -98 -41.5 -154.5t-113.5 -82.5v-41q83 -25 123.5 -83t43.5 -162q2 -38 2.5 -71.5t0 -67.5t-2.5 -74q-5 -120 -44 -193t-116.5 -106t-200.5 -33h-39v201h39
q65 0 99 33.5t35 100.5q1 53 1 100.5t-1 99.5q-1 97 -34.5 136t-103.5 39h-27v201h20q66 0 100 41t34 121q2 46 1.5 78t-1 64.5t-1.5 77.5q-1 61 -31 91t-95 30q-64 0 -92 -31t-29 -88l-2 -1295h-227z" />
    <glyph glyph-name="agrave" unicode="&#xe0;" 
d="M310 -14q-119 0 -176 61t-69 200q-1 21 -1 47t1 46q6 77 32.5 134t82.5 102t151 86q50 22 99 39.5t103 34.5v197q0 57 -23.5 84.5t-86.5 27.5q-53 0 -77.5 -23t-27.5 -81q-1 -18 -1.5 -53t0 -70.5t1.5 -56.5h-221q-1 25 -2 71.5t0 83.5q5 105 38 171.5t104.5 98
t192.5 31.5q125 0 196.5 -34.5t101 -108t29.5 -192.5l-1 -882h-226v120h-32q-30 -67 -71.5 -100.5t-116.5 -33.5zM398 151q46 0 80 25.5t53 70.5v332q-36 -10 -72 -24.5t-73 -36.5q-56 -32 -75 -76.5t-22 -101.5v-38.5t1 -37.5q5 -55 32.5 -84t75.5 -29zM331 1280l-165 255
h155l157 -255h-147z" />
    <glyph glyph-name="aacute" unicode="&#xe1;" 
d="M310 -14q-119 0 -176 61t-69 200q-1 21 -1 47t1 46q6 77 32.5 134t82.5 102t151 86q50 22 99 39.5t103 34.5v197q0 57 -23.5 84.5t-86.5 27.5q-53 0 -77.5 -23t-27.5 -81q-1 -18 -1.5 -53t0 -70.5t1.5 -56.5h-221q-1 25 -2 71.5t0 83.5q5 105 38 171.5t104.5 98
t192.5 31.5q125 0 196.5 -34.5t101 -108t29.5 -192.5l-1 -882h-226v120h-32q-30 -67 -71.5 -100.5t-116.5 -33.5zM398 151q46 0 80 25.5t53 70.5v332q-36 -10 -72 -24.5t-73 -36.5q-56 -32 -75 -76.5t-22 -101.5v-38.5t1 -37.5q5 -55 32.5 -84t75.5 -29zM360 1280l172 255
h155l-179 -255h-148z" />
    <glyph glyph-name="acircumflex" unicode="&#xe2;" 
d="M310 -14q-119 0 -176 61t-69 200q-1 21 -1 47t1 46q6 77 32.5 134t82.5 102t151 86q50 22 99 39.5t103 34.5v197q0 57 -23.5 84.5t-86.5 27.5q-53 0 -77.5 -23t-27.5 -81q-1 -18 -1.5 -53t0 -70.5t1.5 -56.5h-221q-1 25 -2 71.5t0 83.5q5 105 38 171.5t104.5 98
t192.5 31.5q125 0 196.5 -34.5t101 -108t29.5 -192.5l-1 -882h-226v120h-32q-30 -67 -71.5 -100.5t-116.5 -33.5zM398 151q46 0 80 25.5t53 70.5v332q-36 -10 -72 -24.5t-73 -36.5q-56 -32 -75 -76.5t-22 -101.5v-38.5t1 -37.5q5 -55 32.5 -84t75.5 -29zM206 1282l152 255
h136l152 -255h-152l-68 126l-68 -126h-152z" />
    <glyph glyph-name="atilde" unicode="&#xe3;" 
d="M310 -14q-119 0 -176 61t-69 200q-1 21 -1 47t1 46q6 77 32.5 134t82.5 102t151 86q50 22 99 39.5t103 34.5v197q0 57 -23.5 84.5t-86.5 27.5q-53 0 -77.5 -23t-27.5 -81q-1 -18 -1.5 -53t0 -70.5t1.5 -56.5h-221q-1 25 -2 71.5t0 83.5q5 105 38 171.5t104.5 98
t192.5 31.5q125 0 196.5 -34.5t101 -108t29.5 -192.5l-1 -882h-226v120h-32q-30 -67 -71.5 -100.5t-116.5 -33.5zM398 151q46 0 80 25.5t53 70.5v332q-36 -10 -72 -24.5t-73 -36.5q-56 -32 -75 -76.5t-22 -101.5v-38.5t1 -37.5q5 -55 32.5 -84t75.5 -29zM566 1468h93
q-4 -96 -38.5 -141.5t-98.5 -45.5q-40 0 -63.5 13t-40 30t-33 30t-43.5 13t-38 -19.5t-15 -55.5h-91q7 102 43.5 148t100.5 46q41 0 65 -12.5t40.5 -29.5t32.5 -30t41 -13t34.5 17t10.5 50z" />
    <glyph glyph-name="adieresis" unicode="&#xe4;" 
d="M310 -14q-119 0 -176 61t-69 200q-1 21 -1 47t1 46q6 77 32.5 134t82.5 102t151 86q50 22 99 39.5t103 34.5v197q0 57 -23.5 84.5t-86.5 27.5q-53 0 -77.5 -23t-27.5 -81q-1 -18 -1.5 -53t0 -70.5t1.5 -56.5h-221q-1 25 -2 71.5t0 83.5q5 105 38 171.5t104.5 98
t192.5 31.5q125 0 196.5 -34.5t101 -108t29.5 -192.5l-1 -882h-226v120h-32q-30 -67 -71.5 -100.5t-116.5 -33.5zM398 151q46 0 80 25.5t53 70.5v332q-36 -10 -72 -24.5t-73 -36.5q-56 -32 -75 -76.5t-22 -101.5v-38.5t1 -37.5q5 -55 32.5 -84t75.5 -29zM475 1310v160h161
v-160h-161zM219 1310v160h160v-160h-160z" />
    <glyph glyph-name="aring" unicode="&#xe5;" 
d="M310 -14q-119 0 -176 61t-69 200q-1 21 -1 47t1 46q6 77 32.5 134t82.5 102t151 86q50 22 99 39.5t103 34.5v197q0 57 -23.5 84.5t-86.5 27.5q-53 0 -77.5 -23t-27.5 -81q-1 -18 -1.5 -53t0 -70.5t1.5 -56.5h-221q-1 25 -2 71.5t0 83.5q5 105 38 171.5t104.5 98
t192.5 31.5q125 0 196.5 -34.5t101 -108t29.5 -192.5l-1 -882h-226v120h-32q-30 -67 -71.5 -100.5t-116.5 -33.5zM398 151q46 0 80 25.5t53 70.5v332q-36 -10 -72 -24.5t-73 -36.5q-56 -32 -75 -76.5t-22 -101.5v-38.5t1 -37.5q5 -55 32.5 -84t75.5 -29zM427 1272
q-74 0 -127.5 53t-53.5 128t53.5 128t127.5 53q75 0 128.5 -53t53.5 -128t-53.5 -128t-128.5 -53zM427 1393q26 0 43 17.5t17 42.5t-17 42t-43 17q-24 0 -41.5 -17t-17.5 -42t17.5 -42.5t41.5 -17.5z" />
    <glyph glyph-name="ae" unicode="&#xe6;" horiz-adv-x="1271" 
d="M307 -14q-107 0 -169.5 60.5t-72.5 199.5q-1 23 -1 48t1 46q8 110 71.5 179.5t192.5 123.5q49 22 98 40.5t100 34.5v72v71.5v72.5q0 35 -8 60t-31.5 38t-66.5 13q-54 0 -77 -23.5t-26 -80.5q-1 -19 -1.5 -53t0 -69t1.5 -58h-221q-1 16 -2 44t-1 58.5t1 53.5
q4 105 37.5 171.5t104.5 97.5t190 31q75 0 129 -12t90 -39q41 27 96.5 39t127.5 12q170 0 247.5 -70t84.5 -231q1 -19 1.5 -56.5t0.5 -86.5t-1 -102t-3 -104h-448v-149.5v-151.5q0 -62 30 -86.5t90 -24.5q57 0 80.5 25.5t26.5 85.5q2 33 2 76.5t-2 100.5h221q2 -25 3 -71.5
t-1 -82.5q-8 -163 -83.5 -234.5t-245.5 -71.5q-120 0 -196 33t-112 104h-19q-31 -69 -94.5 -101.5t-144.5 -32.5zM397 151q29 0 59.5 14t51.5 56.5t21 127.5q0 47 -1 101t-1 110q-31 -10 -68 -25t-74 -37q-51 -29 -71.5 -66.5t-24.5 -91.5q-1 -18 -1 -37.5t2 -39.5
q5 -54 31.5 -83t75.5 -29zM752 728h228q1 60 0.5 120.5t-1.5 92.5q-1 56 -27 80t-82 24q-59 0 -88.5 -24t-29.5 -80v-108.5v-104.5z" />
    <glyph glyph-name="ccedilla" unicode="&#xe7;" horiz-adv-x="824" 
d="M533 761q1 25 1.5 59.5t0 67.5t-1.5 53q-2 57 -27.5 80.5t-83.5 23.5q-60 0 -86 -23t-28 -81q-2 -89 -3 -173t-1 -166.5t1 -165.5t3 -170q2 -62 29 -86.5t87 -24.5q58 0 82.5 25t26.5 86q2 32 2 76t-2 100h221q3 -25 3.5 -71t-1.5 -82q-7 -163 -84 -234.5t-248 -71.5
q-176 0 -255.5 71.5t-87.5 234.5q-2 56 -3 137t-1 171t1 172t3 138q10 167 89 238.5t252 71.5t250.5 -70t83.5 -231q2 -36 1.5 -82.5t-3.5 -72.5h-221zM214 -292v112h60q56 0 78.5 23t13.5 76l-16 95h122l16 -95q16 -111 -36 -161t-178 -50h-60z" />
    <glyph glyph-name="egrave" unicode="&#xe8;" horiz-adv-x="825" 
d="M426 -17q-178 0 -257 71.5t-88 234.5q-2 56 -3 137t-1 170.5t1 172t3 138.5q10 167 89.5 238.5t252.5 71.5q171 0 248.5 -70t84.5 -231q1 -25 2 -83t0.5 -130.5t-4.5 -142.5h-450q0 -72 1.5 -145t3.5 -149q2 -62 28.5 -86.5t87.5 -24.5q56 0 80.5 24.5t27.5 86.5
q2 30 2 75.5t-2 101.5h221q3 -26 3.5 -72t-1.5 -82q-7 -163 -83 -234.5t-247 -71.5zM305 721h230v92t-0.5 79t-1.5 48q-3 57 -28.5 81t-81.5 24q-61 0 -86.5 -24.5t-27.5 -80.5q-1 -57 -2 -111.5t-2 -107.5zM323 1280l-165 255h155l157 -255h-147z" />
    <glyph glyph-name="eacute" unicode="&#xe9;" horiz-adv-x="825" 
d="M426 -17q-178 0 -257 71.5t-88 234.5q-2 56 -3 137t-1 170.5t1 172t3 138.5q10 167 89.5 238.5t252.5 71.5q171 0 248.5 -70t84.5 -231q1 -25 2 -83t0.5 -130.5t-4.5 -142.5h-450q0 -72 1.5 -145t3.5 -149q2 -62 28.5 -86.5t87.5 -24.5q56 0 80.5 24.5t27.5 86.5
q2 30 2 75.5t-2 101.5h221q3 -26 3.5 -72t-1.5 -82q-7 -163 -83 -234.5t-247 -71.5zM305 721h230v92t-0.5 79t-1.5 48q-3 57 -28.5 81t-81.5 24q-61 0 -86.5 -24.5t-27.5 -80.5q-1 -57 -2 -111.5t-2 -107.5zM352 1280l172 255h155l-179 -255h-148z" />
    <glyph glyph-name="ecircumflex" unicode="&#xea;" horiz-adv-x="825" 
d="M426 -17q-178 0 -257 71.5t-88 234.5q-2 56 -3 137t-1 170.5t1 172t3 138.5q10 167 89.5 238.5t252.5 71.5q171 0 248.5 -70t84.5 -231q1 -25 2 -83t0.5 -130.5t-4.5 -142.5h-450q0 -72 1.5 -145t3.5 -149q2 -62 28.5 -86.5t87.5 -24.5q56 0 80.5 24.5t27.5 86.5
q2 30 2 75.5t-2 101.5h221q3 -26 3.5 -72t-1.5 -82q-7 -163 -83 -234.5t-247 -71.5zM305 721h230v92t-0.5 79t-1.5 48q-3 57 -28.5 81t-81.5 24q-61 0 -86.5 -24.5t-27.5 -80.5q-1 -57 -2 -111.5t-2 -107.5zM197 1282l152 255h136l152 -255h-152l-68 126l-68 -126h-152z" />
    <glyph glyph-name="edieresis" unicode="&#xeb;" horiz-adv-x="825" 
d="M426 -17q-178 0 -257 71.5t-88 234.5q-2 56 -3 137t-1 170.5t1 172t3 138.5q10 167 89.5 238.5t252.5 71.5q171 0 248.5 -70t84.5 -231q1 -25 2 -83t0.5 -130.5t-4.5 -142.5h-450q0 -72 1.5 -145t3.5 -149q2 -62 28.5 -86.5t87.5 -24.5q56 0 80.5 24.5t27.5 86.5
q2 30 2 75.5t-2 101.5h221q3 -26 3.5 -72t-1.5 -82q-7 -163 -83 -234.5t-247 -71.5zM305 721h230v92t-0.5 79t-1.5 48q-3 57 -28.5 81t-81.5 24q-61 0 -86.5 -24.5t-27.5 -80.5q-1 -57 -2 -111.5t-2 -107.5zM467 1310v160h161v-160h-161zM211 1310v160h160v-160h-160z" />
    <glyph glyph-name="igrave" unicode="&#xec;" horiz-adv-x="418" 
d="M96 0v1200h226v-1200h-226zM113 1280l-165 255h155l157 -255h-147z" />
    <glyph glyph-name="iacute" unicode="&#xed;" horiz-adv-x="418" 
d="M96 0v1200h226v-1200h-226zM142 1280l172 255h155l-179 -255h-148z" />
    <glyph glyph-name="icircumflex" unicode="&#xee;" horiz-adv-x="418" 
d="M96 0v1200h226v-1200h-226zM-12 1282l152 255h136l152 -255h-152l-68 126l-68 -126h-152z" />
    <glyph glyph-name="idieresis" unicode="&#xef;" horiz-adv-x="418" 
d="M96 0v1200h226v-1200h-226zM257 1310v160h161v-160h-161zM1 1310v160h160v-160h-160z" />
    <glyph glyph-name="eth" unicode="&#xf0;" horiz-adv-x="884" 
d="M451 -18q-186 0 -269 79t-92 262q-2 59 -3 133.5t-0.5 157.5t2.5 167q2 138 72 216.5t178 78.5q71 0 120.5 -26.5t71.5 -70.5h22q-15 65 -40 123.5t-60 108.5l-132 -64l-42 85l110 54q-33 41 -73.5 74.5t-86.5 63.5l122 193q73 -48 133.5 -100t108.5 -115l134 65l42 -84
l-118 -57q75 -118 111.5 -264.5t42.5 -327.5q2 -59 2.5 -132t0 -146t-2.5 -133q-4 -121 -40.5 -196.5t-112.5 -110t-201 -34.5zM450 169q61 0 93.5 28.5t34.5 85.5q2 79 3.5 162t0.5 170t-4 177q-3 48 -40.5 73.5t-97.5 25.5t-91 -28.5t-33 -86.5q-2 -77 -2.5 -163
t0.5 -171.5t3 -158.5q3 -57 36 -85.5t97 -28.5z" />
    <glyph glyph-name="ntilde" unicode="&#xf1;" horiz-adv-x="901" 
d="M96 0v1200h227v-120h42q37 66 81.5 101.5t127.5 35.5q113 0 174 -68t62 -226v-923h-227v942q-1 56 -26 81.5t-77 25.5q-46 0 -92 -27t-65 -74v-948h-227zM593 1468h93q-4 -96 -38.5 -141.5t-98.5 -45.5q-40 0 -63.5 13t-40 30t-33 30t-43.5 13t-38 -19.5t-15 -55.5h-91
q7 102 43.5 148t100.5 46q41 0 65 -12.5t40.5 -29.5t32.5 -30t41 -13t34.5 17t10.5 50z" />
    <glyph glyph-name="ograve" unicode="&#xf2;" horiz-adv-x="860" 
d="M431 -17q-125 0 -199.5 34t-109 108.5t-41.5 196.5q-1 54 -2.5 125.5t-1.5 149.5t1 151.5t3 130.5q7 121 41.5 195.5t109 108.5t199.5 34q126 0 199.5 -34.5t107.5 -109t40 -194.5q3 -55 4 -127t1 -149.5t-1 -150t-4 -130.5q-6 -121 -40 -195.5t-107.5 -109t-199.5 -34.5
zM431 155q64 0 91.5 27.5t28.5 85.5q3 86 4.5 169t1.5 164.5t-1.5 163.5t-4.5 168q-1 58 -28 85t-92 27q-64 0 -92.5 -27t-30.5 -85q-2 -83 -3.5 -165t-1.5 -165t1.5 -166.5t3.5 -168.5q2 -59 30.5 -86t92.5 -27zM334 1280l-165 255h155l157 -255h-147z" />
    <glyph glyph-name="oacute" unicode="&#xf3;" horiz-adv-x="860" 
d="M431 -17q-125 0 -199.5 34t-109 108.5t-41.5 196.5q-1 54 -2.5 125.5t-1.5 149.5t1 151.5t3 130.5q7 121 41.5 195.5t109 108.5t199.5 34q126 0 199.5 -34.5t107.5 -109t40 -194.5q3 -55 4 -127t1 -149.5t-1 -150t-4 -130.5q-6 -121 -40 -195.5t-107.5 -109t-199.5 -34.5
zM431 155q64 0 91.5 27.5t28.5 85.5q3 86 4.5 169t1.5 164.5t-1.5 163.5t-4.5 168q-1 58 -28 85t-92 27q-64 0 -92.5 -27t-30.5 -85q-2 -83 -3.5 -165t-1.5 -165t1.5 -166.5t3.5 -168.5q2 -59 30.5 -86t92.5 -27zM363 1280l172 255h155l-179 -255h-148z" />
    <glyph glyph-name="ocircumflex" unicode="&#xf4;" horiz-adv-x="860" 
d="M431 -17q-125 0 -199.5 34t-109 108.5t-41.5 196.5q-1 54 -2.5 125.5t-1.5 149.5t1 151.5t3 130.5q7 121 41.5 195.5t109 108.5t199.5 34q126 0 199.5 -34.5t107.5 -109t40 -194.5q3 -55 4 -127t1 -149.5t-1 -150t-4 -130.5q-6 -121 -40 -195.5t-107.5 -109t-199.5 -34.5
zM431 155q64 0 91.5 27.5t28.5 85.5q3 86 4.5 169t1.5 164.5t-1.5 163.5t-4.5 168q-1 58 -28 85t-92 27q-64 0 -92.5 -27t-30.5 -85q-2 -83 -3.5 -165t-1.5 -165t1.5 -166.5t3.5 -168.5q2 -59 30.5 -86t92.5 -27zM209 1282l152 255h136l152 -255h-152l-68 126l-68 -126h-152
z" />
    <glyph glyph-name="otilde" unicode="&#xf5;" horiz-adv-x="860" 
d="M431 -17q-125 0 -199.5 34t-109 108.5t-41.5 196.5q-1 54 -2.5 125.5t-1.5 149.5t1 151.5t3 130.5q7 121 41.5 195.5t109 108.5t199.5 34q126 0 199.5 -34.5t107.5 -109t40 -194.5q3 -55 4 -127t1 -149.5t-1 -150t-4 -130.5q-6 -121 -40 -195.5t-107.5 -109t-199.5 -34.5
zM431 155q64 0 91.5 27.5t28.5 85.5q3 86 4.5 169t1.5 164.5t-1.5 163.5t-4.5 168q-1 58 -28 85t-92 27q-64 0 -92.5 -27t-30.5 -85q-2 -83 -3.5 -165t-1.5 -165t1.5 -166.5t3.5 -168.5q2 -59 30.5 -86t92.5 -27zM569 1468h93q-4 -96 -38.5 -141.5t-98.5 -45.5
q-40 0 -63.5 13t-40 30t-33 30t-43.5 13t-38 -19.5t-15 -55.5h-91q7 102 43.5 148t100.5 46q41 0 65 -12.5t40.5 -29.5t32.5 -30t41 -13t34.5 17t10.5 50z" />
    <glyph glyph-name="odieresis" unicode="&#xf6;" horiz-adv-x="860" 
d="M431 -17q-125 0 -199.5 34t-109 108.5t-41.5 196.5q-1 54 -2.5 125.5t-1.5 149.5t1 151.5t3 130.5q7 121 41.5 195.5t109 108.5t199.5 34q126 0 199.5 -34.5t107.5 -109t40 -194.5q3 -55 4 -127t1 -149.5t-1 -150t-4 -130.5q-6 -121 -40 -195.5t-107.5 -109t-199.5 -34.5
zM431 155q64 0 91.5 27.5t28.5 85.5q3 86 4.5 169t1.5 164.5t-1.5 163.5t-4.5 168q-1 58 -28 85t-92 27q-64 0 -92.5 -27t-30.5 -85q-2 -83 -3.5 -165t-1.5 -165t1.5 -166.5t3.5 -168.5q2 -59 30.5 -86t92.5 -27zM478 1310v160h161v-160h-161zM222 1310v160h160v-160h-160z
" />
    <glyph glyph-name="divide" unicode="&#xf7;" horiz-adv-x="1007" 
d="M92 655v172h823v-172h-823zM411 941v185h186v-185h-186zM411 356v185h186v-185h-186z" />
    <glyph glyph-name="oslash" unicode="&#xf8;" horiz-adv-x="860" 
d="M138 353l532 588l75 -93l-542 -595zM431 -17q-125 0 -199.5 34t-109 108.5t-41.5 196.5q-1 54 -2.5 125.5t-1.5 149.5t1 151.5t3 130.5q7 121 41.5 195.5t109 108.5t199.5 34q126 0 199.5 -34.5t107.5 -109t40 -194.5q3 -55 4 -127t1 -149.5t-1 -150t-4 -130.5
q-6 -121 -40 -195.5t-107.5 -109t-199.5 -34.5zM431 155q64 0 91.5 27.5t28.5 85.5q3 86 4.5 169t1.5 164.5t-1.5 163.5t-4.5 168q-1 58 -28 85t-92 27q-64 0 -92.5 -27t-30.5 -85q-2 -83 -3.5 -165t-1.5 -165t1.5 -166.5t3.5 -168.5q2 -59 30.5 -86t92.5 -27z" />
    <glyph glyph-name="ugrave" unicode="&#xf9;" horiz-adv-x="895" 
d="M329 -17q-112 0 -176.5 68.5t-64.5 225.5v923h227v-942q0 -56 24 -81.5t75 -25.5q47 0 92.5 27t64.5 74v948h228v-1200h-228v120h-33q-39 -72 -89.5 -104.5t-119.5 -32.5zM345 1280l-165 255h155l157 -255h-147z" />
    <glyph glyph-name="uacute" unicode="&#xfa;" horiz-adv-x="895" 
d="M329 -17q-112 0 -176.5 68.5t-64.5 225.5v923h227v-942q0 -56 24 -81.5t75 -25.5q47 0 92.5 27t64.5 74v948h228v-1200h-228v120h-33q-39 -72 -89.5 -104.5t-119.5 -32.5zM373 1280l172 255h155l-179 -255h-148z" />
    <glyph glyph-name="ucircumflex" unicode="&#xfb;" horiz-adv-x="895" 
d="M329 -17q-112 0 -176.5 68.5t-64.5 225.5v923h227v-942q0 -56 24 -81.5t75 -25.5q47 0 92.5 27t64.5 74v948h228v-1200h-228v120h-33q-39 -72 -89.5 -104.5t-119.5 -32.5zM219 1282l152 255h136l152 -255h-152l-68 126l-68 -126h-152z" />
    <glyph glyph-name="udieresis" unicode="&#xfc;" horiz-adv-x="895" 
d="M329 -17q-112 0 -176.5 68.5t-64.5 225.5v923h227v-942q0 -56 24 -81.5t75 -25.5q47 0 92.5 27t64.5 74v948h228v-1200h-228v120h-33q-39 -72 -89.5 -104.5t-119.5 -32.5zM488 1310v160h161v-160h-161zM232 1310v160h160v-160h-160z" />
    <glyph glyph-name="yacute" unicode="&#xfd;" horiz-adv-x="794" 
d="M202 -415q-31 0 -70.5 3.5t-71.5 8.5v170q26 -1 69 -3t72 -2q79 0 108.5 25t37.5 87l18 126h-134l-195 1200h231l61 -561l52 -469h63l37 469l53 561h231l-190 -1309q-15 -107 -54 -175t-114.5 -99.5t-203.5 -31.5zM336 1280l172 255h155l-179 -255h-148z" />
    <glyph glyph-name="thorn" unicode="&#xfe;" horiz-adv-x="898" 
d="M92 -400v2000h227v-520h35q37 68 80 102.5t128 34.5q114 0 174 -67.5t66 -226.5q2 -56 3.5 -140.5t1.5 -178t-1.5 -180t-3.5 -147.5q-6 -157 -72 -225.5t-179 -68.5q-65 0 -110.5 31.5t-86.5 105.5h-35v-520h-227zM462 151q51 0 81 25.5t32 81.5q4 80 5.5 168.5t1.5 179
t-2 176.5t-5 161q-2 55 -25 80.5t-74 25.5q-49 0 -93.5 -26t-63.5 -75v-696q22 -54 55.5 -77.5t87.5 -23.5z" />
    <glyph glyph-name="ydieresis" unicode="&#xff;" horiz-adv-x="794" 
d="M202 -415q-31 0 -70.5 3.5t-71.5 8.5v170q26 -1 69 -3t72 -2q79 0 108.5 25t37.5 87l18 126h-134l-195 1200h231l61 -561l52 -469h63l37 469l53 561h231l-190 -1309q-15 -107 -54 -175t-114.5 -99.5t-203.5 -31.5zM451 1310v160h161v-160h-161zM195 1310v160h160v-160
h-160z" />
    <glyph glyph-name="Amacron" unicode="&#x100;" horiz-adv-x="846" 
d="M33 0l199 1600h382l199 -1600h-232l-38 392h-240l-37 -392h-233zM324 593h198l-34 351l-33 455h-63l-33 -456zM135 1781h576v-109h-576v109z" />
    <glyph glyph-name="amacron" unicode="&#x101;" 
d="M310 -14q-119 0 -176 61t-69 200q-1 21 -1 47t1 46q6 77 32.5 134t82.5 102t151 86q50 22 99 39.5t103 34.5v197q0 57 -23.5 84.5t-86.5 27.5q-53 0 -77.5 -23t-27.5 -81q-1 -18 -1.5 -53t0 -70.5t1.5 -56.5h-221q-1 25 -2 71.5t0 83.5q5 105 38 171.5t104.5 98
t192.5 31.5q125 0 196.5 -34.5t101 -108t29.5 -192.5l-1 -882h-226v120h-32q-30 -67 -71.5 -100.5t-116.5 -33.5zM398 151q46 0 80 25.5t53 70.5v332q-36 -10 -72 -24.5t-73 -36.5q-56 -32 -75 -76.5t-22 -101.5v-38.5t1 -37.5q5 -55 32.5 -84t75.5 -29zM139 1381h576v-109
h-576v109z" />
    <glyph glyph-name="Abreve" unicode="&#x102;" horiz-adv-x="846" 
d="M33 0l199 1600h382l199 -1600h-232l-38 392h-240l-37 -392h-233zM324 593h198l-34 351l-33 455h-63l-33 -456zM423 1672q-135 0 -197 60t-69 199h139q1 -75 30 -108t97 -33t97.5 33t29.5 108h139q-7 -139 -69 -199t-197 -60z" />
    <glyph glyph-name="abreve" unicode="&#x103;" 
d="M310 -14q-119 0 -176 61t-69 200q-1 21 -1 47t1 46q6 77 32.5 134t82.5 102t151 86q50 22 99 39.5t103 34.5v197q0 57 -23.5 84.5t-86.5 27.5q-53 0 -77.5 -23t-27.5 -81q-1 -18 -1.5 -53t0 -70.5t1.5 -56.5h-221q-1 25 -2 71.5t0 83.5q5 105 38 171.5t104.5 98
t192.5 31.5q125 0 196.5 -34.5t101 -108t29.5 -192.5l-1 -882h-226v120h-32q-30 -67 -71.5 -100.5t-116.5 -33.5zM398 151q46 0 80 25.5t53 70.5v332q-36 -10 -72 -24.5t-73 -36.5q-56 -32 -75 -76.5t-22 -101.5v-38.5t1 -37.5q5 -55 32.5 -84t75.5 -29zM428 1289
q-135 0 -197 60t-69 199h139q1 -75 30 -108t97 -33t97.5 33t29.5 108h139q-7 -139 -69 -199t-197 -60z" />
    <glyph glyph-name="Aogonek" unicode="&#x104;" horiz-adv-x="846" 
d="M33 0l199 1600h382l199 -1600h-232l-38 392h-240l-37 -392h-233zM324 593h198l-34 351l-33 455h-63l-33 -456zM839 -305h-61q-124 0 -176.5 50t-36.5 161l16 95h122l-16 -95q-8 -53 14 -76t78 -23h60v-112z" />
    <glyph glyph-name="aogonek" unicode="&#x105;" 
d="M310 -14q-119 0 -176 61t-69 200q-1 21 -1 47t1 46q6 77 32.5 134t82.5 102t151 86q50 22 99 39.5t103 34.5v197q0 57 -23.5 84.5t-86.5 27.5q-53 0 -77.5 -23t-27.5 -81q-1 -18 -1.5 -53t0 -70.5t1.5 -56.5h-221q-1 25 -2 71.5t0 83.5q5 105 38 171.5t104.5 98
t192.5 31.5q125 0 196.5 -34.5t101 -108t29.5 -192.5l-1 -882h-226v120h-32q-30 -67 -71.5 -100.5t-116.5 -33.5zM398 151q46 0 80 25.5t53 70.5v332q-36 -10 -72 -24.5t-73 -36.5q-56 -32 -75 -76.5t-22 -101.5v-38.5t1 -37.5q5 -55 32.5 -84t75.5 -29zM785 -300h-61
q-124 0 -176.5 50t-36.5 161l16 95h122l-16 -95q-8 -53 14 -76t78 -23h60v-112z" />
    <glyph glyph-name="Cacute" unicode="&#x106;" horiz-adv-x="871" 
d="M441 -18q-189 0 -270 79t-85 262q-2 113 -3 233.5t-1 243.5t1 244t3 235q2 163 86 250.5t268 87.5q183 0 265.5 -79.5t88.5 -259.5q1 -37 1 -83t-1 -92.5t-2 -82.5h-227q2 44 2.5 95t0.5 102.5t-1 94.5q-1 62 -32 90t-95 28t-95 -28t-33 -90q-3 -126 -4.5 -254.5
t-1.5 -257.5t1.5 -257.5t4.5 -254.5q2 -61 33.5 -90t95.5 -29q68 0 100.5 29t33.5 90q1 45 1.5 97t-0.5 105t-2 100h227q2 -66 2.5 -135t-1.5 -132q-6 -183 -89.5 -262t-271.5 -79zM367 1680l172 255h155l-179 -255h-148z" />
    <glyph glyph-name="cacute" unicode="&#x107;" horiz-adv-x="824" 
d="M533 761q1 25 1.5 59.5t0 67.5t-1.5 53q-2 57 -27.5 80.5t-83.5 23.5q-60 0 -86 -23t-28 -81q-2 -89 -3 -173t-1 -166.5t1 -165.5t3 -170q2 -62 29 -86.5t87 -24.5q58 0 82.5 25t26.5 86q2 32 2 76t-2 100h221q3 -25 3.5 -71t-1.5 -82q-7 -163 -84 -234.5t-248 -71.5
q-176 0 -255.5 71.5t-87.5 234.5q-2 56 -3 137t-1 171t1 172t3 138q10 167 89 238.5t252 71.5t250.5 -70t83.5 -231q2 -36 1.5 -82.5t-3.5 -72.5h-221zM354 1280l172 255h155l-179 -255h-148z" />
    <glyph glyph-name="Ccircumflex" unicode="&#x108;" horiz-adv-x="871" 
d="M441 -18q-189 0 -270 79t-85 262q-2 113 -3 233.5t-1 243.5t1 244t3 235q2 163 86 250.5t268 87.5q183 0 265.5 -79.5t88.5 -259.5q1 -37 1 -83t-1 -92.5t-2 -82.5h-227q2 44 2.5 95t0.5 102.5t-1 94.5q-1 62 -32 90t-95 28t-95 -28t-33 -90q-3 -126 -4.5 -254.5
t-1.5 -257.5t1.5 -257.5t4.5 -254.5q2 -61 33.5 -90t95.5 -29q68 0 100.5 29t33.5 90q1 45 1.5 97t-0.5 105t-2 100h227q2 -66 2.5 -135t-1.5 -132q-6 -183 -89.5 -262t-271.5 -79zM213 1682l152 255h136l152 -255h-152l-68 126l-68 -126h-152z" />
    <glyph glyph-name="ccircumflex" unicode="&#x109;" horiz-adv-x="824" 
d="M533 761q1 25 1.5 59.5t0 67.5t-1.5 53q-2 57 -27.5 80.5t-83.5 23.5q-60 0 -86 -23t-28 -81q-2 -89 -3 -173t-1 -166.5t1 -165.5t3 -170q2 -62 29 -86.5t87 -24.5q58 0 82.5 25t26.5 86q2 32 2 76t-2 100h221q3 -25 3.5 -71t-1.5 -82q-7 -163 -84 -234.5t-248 -71.5
q-176 0 -255.5 71.5t-87.5 234.5q-2 56 -3 137t-1 171t1 172t3 138q10 167 89 238.5t252 71.5t250.5 -70t83.5 -231q2 -36 1.5 -82.5t-3.5 -72.5h-221zM200 1282l152 255h136l152 -255h-152l-68 126l-68 -126h-152z" />
    <glyph glyph-name="Cdotaccent" unicode="&#x10a;" horiz-adv-x="871" 
d="M441 -18q-189 0 -270 79t-85 262q-2 113 -3 233.5t-1 243.5t1 244t3 235q2 163 86 250.5t268 87.5q183 0 265.5 -79.5t88.5 -259.5q1 -37 1 -83t-1 -92.5t-2 -82.5h-227q2 44 2.5 95t0.5 102.5t-1 94.5q-1 62 -32 90t-95 28t-95 -28t-33 -90q-3 -126 -4.5 -254.5
t-1.5 -257.5t1.5 -257.5t4.5 -254.5q2 -61 33.5 -90t95.5 -29q68 0 100.5 29t33.5 90q1 45 1.5 97t-0.5 105t-2 100h227q2 -66 2.5 -135t-1.5 -132q-6 -183 -89.5 -262t-271.5 -79zM354 1680v160h160v-160h-160z" />
    <glyph glyph-name="cdotaccent" unicode="&#x10b;" horiz-adv-x="824" 
d="M533 761q1 25 1.5 59.5t0 67.5t-1.5 53q-2 57 -27.5 80.5t-83.5 23.5q-60 0 -86 -23t-28 -81q-2 -89 -3 -173t-1 -166.5t1 -165.5t3 -170q2 -62 29 -86.5t87 -24.5q58 0 82.5 25t26.5 86q2 32 2 76t-2 100h221q3 -25 3.5 -71t-1.5 -82q-7 -163 -84 -234.5t-248 -71.5
q-176 0 -255.5 71.5t-87.5 234.5q-2 56 -3 137t-1 171t1 172t3 138q10 167 89 238.5t252 71.5t250.5 -70t83.5 -231q2 -36 1.5 -82.5t-3.5 -72.5h-221zM341 1280v160h160v-160h-160z" />
    <glyph glyph-name="Ccaron" unicode="&#x10c;" horiz-adv-x="871" 
d="M441 -18q-189 0 -270 79t-85 262q-2 113 -3 233.5t-1 243.5t1 244t3 235q2 163 86 250.5t268 87.5q183 0 265.5 -79.5t88.5 -259.5q1 -37 1 -83t-1 -92.5t-2 -82.5h-227q2 44 2.5 95t0.5 102.5t-1 94.5q-1 62 -32 90t-95 28t-95 -28t-33 -90q-3 -126 -4.5 -254.5
t-1.5 -257.5t1.5 -257.5t4.5 -254.5q2 -61 33.5 -90t95.5 -29q68 0 100.5 29t33.5 90q1 45 1.5 97t-0.5 105t-2 100h227q2 -66 2.5 -135t-1.5 -132q-6 -183 -89.5 -262t-271.5 -79zM372 1681l-152 256h137l76 -141l76 141h137l-152 -256h-122z" />
    <glyph glyph-name="ccaron" unicode="&#x10d;" horiz-adv-x="824" 
d="M533 761q1 25 1.5 59.5t0 67.5t-1.5 53q-2 57 -27.5 80.5t-83.5 23.5q-60 0 -86 -23t-28 -81q-2 -89 -3 -173t-1 -166.5t1 -165.5t3 -170q2 -62 29 -86.5t87 -24.5q58 0 82.5 25t26.5 86q2 32 2 76t-2 100h221q3 -25 3.5 -71t-1.5 -82q-7 -163 -84 -234.5t-248 -71.5
q-176 0 -255.5 71.5t-87.5 234.5q-2 56 -3 137t-1 171t1 172t3 138q10 167 89 238.5t252 71.5t250.5 -70t83.5 -231q2 -36 1.5 -82.5t-3.5 -72.5h-221zM360 1281l-152 256h137l76 -141l76 141h137l-152 -256h-122z" />
    <glyph glyph-name="Dcaron" unicode="&#x10e;" horiz-adv-x="883" 
d="M95 0v1600h344q188 0 271.5 -80.5t86.5 -264.5q3 -162 4 -308.5t0 -292t-4 -308.5q-3 -185 -86.5 -265.5t-270.5 -80.5h-345zM322 201h118q66 0 98 30t33 90q3 122 4 241.5t1 238.5t-1 238.5t-4 241.5q-1 59 -33.5 88.5t-98.5 29.5h-117v-1198zM379 1681l-152 256h137
l76 -141l76 141h137l-152 -256h-122z" />
    <glyph glyph-name="dcaron" unicode="&#x10f;" horiz-adv-x="1059" 
d="M318 -17q-113 0 -171.5 68.5t-65.5 225.5q-2 64 -3 147.5t-1 173t1 174t3 151.5q7 159 67.5 226.5t173.5 67.5q84 0 127.5 -34.5t80.5 -102.5h34v520h228v-1600h-228v120h-35q-37 -66 -81.5 -101.5t-129.5 -35.5zM407 151q49 0 93.5 26t63.5 75v696q-19 50 -63.5 75.5
t-92.5 25.5q-51 0 -74 -25.5t-26 -80.5q-4 -110 -5.5 -231.5t0 -238.5t5.5 -214q3 -57 26 -82.5t73 -25.5zM853 1332l53 268h153l-63 -268h-143z" />
    <glyph glyph-name="Dcroat" unicode="&#x110;" horiz-adv-x="968" 
d="M62 946h474v-115h-474v115zM179 0v1600h344q188 0 271.5 -80.5t87.5 -264.5q3 -162 4 -308.5t0 -292t-4 -308.5q-4 -185 -87.5 -265.5t-270.5 -80.5h-345zM406 201h118q66 0 98 30t33 90q3 122 4.5 241.5t1.5 238.5t-1.5 238.5t-4.5 241.5q-1 59 -33.5 88.5t-98.5 29.5
h-117v-1198z" />
    <glyph glyph-name="dcroat" unicode="&#x111;" horiz-adv-x="888" 
d="M358 1461h504v-123h-504v123zM318 -17q-113 0 -171.5 68.5t-65.5 225.5q-2 64 -3 147.5t-1 173t1 174t3 151.5q7 159 67.5 226.5t173.5 67.5q84 0 127.5 -34.5t80.5 -102.5h34v520h228v-1600h-228v120h-35q-37 -66 -81.5 -101.5t-129.5 -35.5zM407 151q49 0 93.5 26
t63.5 75v696q-19 50 -63.5 75.5t-92.5 25.5q-51 0 -74 -25.5t-26 -80.5q-4 -110 -5.5 -231.5t0 -238.5t5.5 -214q3 -57 26 -82.5t73 -25.5z" />
    <glyph glyph-name="Emacron" unicode="&#x112;" horiz-adv-x="737" 
d="M95 0v1600h595v-201h-368v-488h348v-201h-348v-509h368v-201h-595zM92 1781h576v-109h-576v109z" />
    <glyph glyph-name="emacron" unicode="&#x113;" horiz-adv-x="825" 
d="M426 -17q-178 0 -257 71.5t-88 234.5q-2 56 -3 137t-1 170.5t1 172t3 138.5q10 167 89.5 238.5t252.5 71.5q171 0 248.5 -70t84.5 -231q1 -25 2 -83t0.5 -130.5t-4.5 -142.5h-450q0 -72 1.5 -145t3.5 -149q2 -62 28.5 -86.5t87.5 -24.5q56 0 80.5 24.5t27.5 86.5
q2 30 2 75.5t-2 101.5h221q3 -26 3.5 -72t-1.5 -82q-7 -163 -83 -234.5t-247 -71.5zM305 721h230v92t-0.5 79t-1.5 48q-3 57 -28.5 81t-81.5 24q-61 0 -86.5 -24.5t-27.5 -80.5q-1 -57 -2 -111.5t-2 -107.5zM130 1381h576v-109h-576v109z" />
    <glyph glyph-name="Ebreve" unicode="&#x114;" horiz-adv-x="737" 
d="M95 0v1600h595v-201h-368v-488h348v-201h-348v-509h368v-201h-595zM380 1672q-135 0 -197 60t-69 199h139q1 -75 30 -108t97 -33t97.5 33t29.5 108h139q-7 -139 -69 -199t-197 -60z" />
    <glyph glyph-name="ebreve" unicode="&#x115;" horiz-adv-x="825" 
d="M426 -17q-178 0 -257 71.5t-88 234.5q-2 56 -3 137t-1 170.5t1 172t3 138.5q10 167 89.5 238.5t252.5 71.5q171 0 248.5 -70t84.5 -231q1 -25 2 -83t0.5 -130.5t-4.5 -142.5h-450q0 -72 1.5 -145t3.5 -149q2 -62 28.5 -86.5t87.5 -24.5q56 0 80.5 24.5t27.5 86.5
q2 30 2 75.5t-2 101.5h221q3 -26 3.5 -72t-1.5 -82q-7 -163 -83 -234.5t-247 -71.5zM305 721h230v92t-0.5 79t-1.5 48q-3 57 -28.5 81t-81.5 24q-61 0 -86.5 -24.5t-27.5 -80.5q-1 -57 -2 -111.5t-2 -107.5zM419 1272q-135 0 -197 60t-69 199h139q1 -75 30 -108t97 -33
t97.5 33t29.5 108h139q-7 -139 -69 -199t-197 -60z" />
    <glyph glyph-name="Edotaccent" unicode="&#x116;" horiz-adv-x="737" 
d="M95 0v1600h595v-201h-368v-488h348v-201h-348v-509h368v-201h-595zM300 1680v160h160v-160h-160z" />
    <glyph glyph-name="edotaccent" unicode="&#x117;" horiz-adv-x="825" 
d="M426 -17q-178 0 -257 71.5t-88 234.5q-2 56 -3 137t-1 170.5t1 172t3 138.5q10 167 89.5 238.5t252.5 71.5q171 0 248.5 -70t84.5 -231q1 -25 2 -83t0.5 -130.5t-4.5 -142.5h-450q0 -72 1.5 -145t3.5 -149q2 -62 28.5 -86.5t87.5 -24.5q56 0 80.5 24.5t27.5 86.5
q2 30 2 75.5t-2 101.5h221q3 -26 3.5 -72t-1.5 -82q-7 -163 -83 -234.5t-247 -71.5zM305 721h230v92t-0.5 79t-1.5 48q-3 57 -28.5 81t-81.5 24q-61 0 -86.5 -24.5t-27.5 -80.5q-1 -57 -2 -111.5t-2 -107.5zM338 1280v160h160v-160h-160z" />
    <glyph glyph-name="Eogonek" unicode="&#x118;" horiz-adv-x="737" 
d="M95 0v1600h595v-201h-368v-488h348v-201h-348v-509h368v-201h-595zM692 -301h-61q-124 0 -176.5 50t-36.5 161l16 95h122l-16 -95q-8 -53 14 -76t78 -23h60v-112z" />
    <glyph glyph-name="eogonek" unicode="&#x119;" horiz-adv-x="825" 
d="M426 -17q-178 0 -257 71.5t-88 234.5q-2 56 -3 137t-1 170.5t1 172t3 138.5q10 167 89.5 238.5t252.5 71.5q171 0 248.5 -70t84.5 -231q1 -25 2 -83t0.5 -130.5t-4.5 -142.5h-450q0 -72 1.5 -145t3.5 -149q2 -62 28.5 -86.5t87.5 -24.5q56 0 80.5 24.5t27.5 86.5
q2 30 2 75.5t-2 101.5h221q3 -26 3.5 -72t-1.5 -82q-7 -163 -83 -234.5t-247 -71.5zM305 721h230v92t-0.5 79t-1.5 48q-3 57 -28.5 81t-81.5 24q-61 0 -86.5 -24.5t-27.5 -80.5q-1 -57 -2 -111.5t-2 -107.5zM758 -279h-61q-124 0 -176.5 50t-36.5 161l16 95h122l-16 -95
q-8 -53 14 -76t78 -23h60v-112z" />
    <glyph glyph-name="Ecaron" unicode="&#x11a;" horiz-adv-x="737" 
d="M95 0v1600h595v-201h-368v-488h348v-201h-348v-509h368v-201h-595zM319 1681l-152 256h137l76 -141l76 141h137l-152 -256h-122z" />
    <glyph glyph-name="ecaron" unicode="&#x11b;" horiz-adv-x="825" 
d="M426 -17q-178 0 -257 71.5t-88 234.5q-2 56 -3 137t-1 170.5t1 172t3 138.5q10 167 89.5 238.5t252.5 71.5q171 0 248.5 -70t84.5 -231q1 -25 2 -83t0.5 -130.5t-4.5 -142.5h-450q0 -72 1.5 -145t3.5 -149q2 -62 28.5 -86.5t87.5 -24.5q56 0 80.5 24.5t27.5 86.5
q2 30 2 75.5t-2 101.5h221q3 -26 3.5 -72t-1.5 -82q-7 -163 -83 -234.5t-247 -71.5zM305 721h230v92t-0.5 79t-1.5 48q-3 57 -28.5 81t-81.5 24q-61 0 -86.5 -24.5t-27.5 -80.5q-1 -57 -2 -111.5t-2 -107.5zM357 1281l-152 256h137l76 -141l76 141h137l-152 -256h-122z" />
    <glyph glyph-name="Gcircumflex" unicode="&#x11c;" horiz-adv-x="874" 
d="M444 -17q-127 0 -204 34.5t-113 109.5t-39 196q-3 108 -4.5 228.5t-1.5 244.5t1.5 244t4.5 226q4 127 40.5 204.5t113.5 112t201 34.5q179 0 260.5 -78.5t91.5 -260.5q3 -60 3 -128t-3 -129h-227q3 68 3 147t-3 147q-3 59 -33 87.5t-92 28.5q-64 0 -95 -28.5t-34 -87.5
q-5 -123 -7 -253t-2 -261.5t2 -261t7 -253.5q3 -59 33.5 -87.5t96.5 -28.5t99.5 28.5t37.5 87.5q2 37 2.5 81t0 87.5t-2.5 80.5h-123v198h344q4 -88 3 -194t-5 -216q-7 -182 -90 -261t-266 -79zM215 1682l152 255h136l152 -255h-152l-68 126l-68 -126h-152z" />
    <glyph glyph-name="gcircumflex" unicode="&#x11d;" horiz-adv-x="892" 
d="M414 -369q-157 0 -241 44.5t-98 132.5q-2 11 -4 28t0 33q5 51 40 86t90 42v35q-51 11 -80 39t-35 72q-1 12 -1 24.5t1 26.5q5 43 40.5 70t89.5 34v36q-72 33 -107 99.5t-42 174.5q-2 44 -3 81t-1 71.5t1 70.5t3 76q6 109 41.5 177.5t109.5 100.5t196 32
q119 0 189.5 -30.5t107.5 -97.5h35q7 58 41.5 84.5t102.5 26.5v-173h-31q-46 0 -72.5 -27t-26.5 -91l-1 -76v-52.5t0.5 -53.5t0 -56.5t-2.5 -62.5q-7 -112 -42.5 -180.5t-108.5 -99t-193 -30.5q-87 0 -122 -15.5t-35 -49.5v-9q0 -22 11 -35.5t44 -19.5t101 -8
q183 -3 270.5 -57.5t103.5 -168.5q2 -17 2.5 -35.5t-2.5 -41.5q-8 -81 -52.5 -131t-124.5 -73t-195 -23zM420 -210q54 0 92 8.5t60 27t28 48.5q4 14 3.5 27t-4.5 26q-6 30 -28 47t-59.5 24t-90.5 8q-78 2 -118.5 -16t-49.5 -63q-3 -14 -3 -27.5t3 -26.5q5 -30 25.5 -48.5
t56 -26.5t85.5 -8zM412 470q67 0 93 27t29 81q2 34 3.5 80t1.5 96.5t-1.5 97.5t-3.5 84q-3 57 -30 83t-92 26q-64 0 -92.5 -26t-30.5 -86q-2 -48 -3 -96t-1 -93t1 -86t3 -75q3 -54 28.5 -83.5t94.5 -29.5zM193 1282l152 255h136l152 -255h-152l-68 126l-68 -126h-152z" />
    <glyph glyph-name="Gbreve" unicode="&#x11e;" horiz-adv-x="874" 
d="M444 -17q-127 0 -204 34.5t-113 109.5t-39 196q-3 108 -4.5 228.5t-1.5 244.5t1.5 244t4.5 226q4 127 40.5 204.5t113.5 112t201 34.5q179 0 260.5 -78.5t91.5 -260.5q3 -60 3 -128t-3 -129h-227q3 68 3 147t-3 147q-3 59 -33 87.5t-92 28.5q-64 0 -95 -28.5t-34 -87.5
q-5 -123 -7 -253t-2 -261.5t2 -261t7 -253.5q3 -59 33.5 -87.5t96.5 -28.5t99.5 28.5t37.5 87.5q2 37 2.5 81t0 87.5t-2.5 80.5h-123v198h344q4 -88 3 -194t-5 -216q-7 -182 -90 -261t-266 -79zM436 1672q-135 0 -197 60t-69 199h139q1 -75 30 -108t97 -33t97.5 33t29.5 108
h139q-7 -139 -69 -199t-197 -60z" />
    <glyph glyph-name="gbreve" unicode="&#x11f;" horiz-adv-x="892" 
d="M414 -369q-157 0 -241 44.5t-98 132.5q-2 11 -4 28t0 33q5 51 40 86t90 42v35q-51 11 -80 39t-35 72q-1 12 -1 24.5t1 26.5q5 43 40.5 70t89.5 34v36q-72 33 -107 99.5t-42 174.5q-2 44 -3 81t-1 71.5t1 70.5t3 76q6 109 41.5 177.5t109.5 100.5t196 32
q119 0 189.5 -30.5t107.5 -97.5h35q7 58 41.5 84.5t102.5 26.5v-173h-31q-46 0 -72.5 -27t-26.5 -91l-1 -76v-52.5t0.5 -53.5t0 -56.5t-2.5 -62.5q-7 -112 -42.5 -180.5t-108.5 -99t-193 -30.5q-87 0 -122 -15.5t-35 -49.5v-9q0 -22 11 -35.5t44 -19.5t101 -8
q183 -3 270.5 -57.5t103.5 -168.5q2 -17 2.5 -35.5t-2.5 -41.5q-8 -81 -52.5 -131t-124.5 -73t-195 -23zM420 -210q54 0 92 8.5t60 27t28 48.5q4 14 3.5 27t-4.5 26q-6 30 -28 47t-59.5 24t-90.5 8q-78 2 -118.5 -16t-49.5 -63q-3 -14 -3 -27.5t3 -26.5q5 -30 25.5 -48.5
t56 -26.5t85.5 -8zM412 470q67 0 93 27t29 81q2 34 3.5 80t1.5 96.5t-1.5 97.5t-3.5 84q-3 57 -30 83t-92 26q-64 0 -92.5 -26t-30.5 -86q-2 -48 -3 -96t-1 -93t1 -86t3 -75q3 -54 28.5 -83.5t94.5 -29.5zM415 1272q-135 0 -197 60t-69 199h139q1 -75 30 -108t97 -33
t97.5 33t29.5 108h139q-7 -139 -69 -199t-197 -60z" />
    <glyph glyph-name="Gdotaccent" unicode="&#x120;" horiz-adv-x="874" 
d="M444 -17q-127 0 -204 34.5t-113 109.5t-39 196q-3 108 -4.5 228.5t-1.5 244.5t1.5 244t4.5 226q4 127 40.5 204.5t113.5 112t201 34.5q179 0 260.5 -78.5t91.5 -260.5q3 -60 3 -128t-3 -129h-227q3 68 3 147t-3 147q-3 59 -33 87.5t-92 28.5q-64 0 -95 -28.5t-34 -87.5
q-5 -123 -7 -253t-2 -261.5t2 -261t7 -253.5q3 -59 33.5 -87.5t96.5 -28.5t99.5 28.5t37.5 87.5q2 37 2.5 81t0 87.5t-2.5 80.5h-123v198h344q4 -88 3 -194t-5 -216q-7 -182 -90 -261t-266 -79zM356 1680v160h160v-160h-160z" />
    <glyph glyph-name="gdotaccent" unicode="&#x121;" horiz-adv-x="892" 
d="M414 -369q-157 0 -241 44.5t-98 132.5q-2 11 -4 28t0 33q5 51 40 86t90 42v35q-51 11 -80 39t-35 72q-1 12 -1 24.5t1 26.5q5 43 40.5 70t89.5 34v36q-72 33 -107 99.5t-42 174.5q-2 44 -3 81t-1 71.5t1 70.5t3 76q6 109 41.5 177.5t109.5 100.5t196 32
q119 0 189.5 -30.5t107.5 -97.5h35q7 58 41.5 84.5t102.5 26.5v-173h-31q-46 0 -72.5 -27t-26.5 -91l-1 -76v-52.5t0.5 -53.5t0 -56.5t-2.5 -62.5q-7 -112 -42.5 -180.5t-108.5 -99t-193 -30.5q-87 0 -122 -15.5t-35 -49.5v-9q0 -22 11 -35.5t44 -19.5t101 -8
q183 -3 270.5 -57.5t103.5 -168.5q2 -17 2.5 -35.5t-2.5 -41.5q-8 -81 -52.5 -131t-124.5 -73t-195 -23zM420 -210q54 0 92 8.5t60 27t28 48.5q4 14 3.5 27t-4.5 26q-6 30 -28 47t-59.5 24t-90.5 8q-78 2 -118.5 -16t-49.5 -63q-3 -14 -3 -27.5t3 -26.5q5 -30 25.5 -48.5
t56 -26.5t85.5 -8zM412 470q67 0 93 27t29 81q2 34 3.5 80t1.5 96.5t-1.5 97.5t-3.5 84q-3 57 -30 83t-92 26q-64 0 -92.5 -26t-30.5 -86q-2 -48 -3 -96t-1 -93t1 -86t3 -75q3 -54 28.5 -83.5t94.5 -29.5zM334 1280v160h160v-160h-160z" />
    <glyph glyph-name="uni0122" unicode="&#x122;" horiz-adv-x="874" 
d="M444 -17q-127 0 -204 34.5t-113 109.5t-39 196q-3 108 -4.5 228.5t-1.5 244.5t1.5 244t4.5 226q4 127 40.5 204.5t113.5 112t201 34.5q179 0 260.5 -78.5t91.5 -260.5q3 -60 3 -128t-3 -129h-227q3 68 3 147t-3 147q-3 59 -33 87.5t-92 28.5q-64 0 -95 -28.5t-34 -87.5
q-5 -123 -7 -253t-2 -261.5t2 -261t7 -253.5q3 -59 33.5 -87.5t96.5 -28.5t99.5 28.5t37.5 87.5q2 37 2.5 81t0 87.5t-2.5 80.5h-123v198h344q4 -88 3 -194t-5 -216q-7 -182 -90 -261t-266 -79zM358 -410l63 141h-92v189h232v-167l-85 -163h-118z" />
    <glyph glyph-name="uni0123" unicode="&#x123;" horiz-adv-x="892" 
d="M414 -369q-157 0 -241 44.5t-98 132.5q-2 11 -4 28t0 33q5 51 40 86t90 42v35q-51 11 -80 39t-35 72q-1 12 -1 24.5t1 26.5q5 43 40.5 70t89.5 34v36q-72 33 -107 99.5t-42 174.5q-2 44 -3 81t-1 71.5t1 70.5t3 76q6 109 41.5 177.5t109.5 100.5t196 32
q119 0 189.5 -30.5t107.5 -97.5h35q7 58 41.5 84.5t102.5 26.5v-173h-31q-46 0 -72.5 -27t-26.5 -91l-1 -76v-52.5t0.5 -53.5t0 -56.5t-2.5 -62.5q-7 -112 -42.5 -180.5t-108.5 -99t-193 -30.5q-87 0 -122 -15.5t-35 -49.5v-9q0 -22 11 -35.5t44 -19.5t101 -8
q183 -3 270.5 -57.5t103.5 -168.5q2 -17 2.5 -35.5t-2.5 -41.5q-8 -81 -52.5 -131t-124.5 -73t-195 -23zM420 -210q54 0 92 8.5t60 27t28 48.5q4 14 3.5 27t-4.5 26q-6 30 -28 47t-59.5 24t-90.5 8q-78 2 -118.5 -16t-49.5 -63q-3 -14 -3 -27.5t3 -26.5q5 -30 25.5 -48.5
t56 -26.5t85.5 -8zM412 470q67 0 93 27t29 81q2 34 3.5 80t1.5 96.5t-1.5 97.5t-3.5 84q-3 57 -30 83t-92 26q-64 0 -92.5 -26t-30.5 -86q-2 -48 -3 -96t-1 -93t1 -86t3 -75q3 -54 28.5 -83.5t94.5 -29.5zM507 1621l-63 -141h93v-189h-232v167l85 163h117z" />
    <glyph glyph-name="Hcircumflex" unicode="&#x124;" horiz-adv-x="882" 
d="M95 0v1600h227v-689h238v689h227v-1600h-227v710h-238v-710h-227zM220 1682l152 255h136l152 -255h-152l-68 126l-68 -126h-152z" />
    <glyph glyph-name="hcircumflex" unicode="&#x125;" horiz-adv-x="901" 
d="M96 0v1600h227v-520h42q37 68 80.5 102.5t128.5 34.5q113 0 174 -68t61 -226l1 -923h-228v942q0 56 -25 81.5t-77 25.5q-49 0 -93 -26t-64 -75v-948h-227zM248 1682l152 255h136l152 -255h-152l-68 126l-68 -126h-152z" />
    <glyph glyph-name="Hbar" unicode="&#x126;" horiz-adv-x="1022" 
d="M62 1257h898v-115h-898v115zM166 0v1600h226v-689h239v689h226v-1600h-226v710h-239v-710h-226z" />
    <glyph glyph-name="hbar" unicode="&#x127;" horiz-adv-x="901" 
d="M96 0v1600h227v-520h42q37 68 80.5 102.5t128.5 34.5q113 0 174 -68t61 -226l1 -923h-228v942q0 56 -25 81.5t-77 25.5q-49 0 -93 -26t-64 -75v-948h-227zM34 1441h474v-123h-474v123z" />
    <glyph glyph-name="Itilde" unicode="&#x128;" horiz-adv-x="417" 
d="M95 0v1600h227v-1600h-227zM347 1868h93q-4 -96 -38.5 -141.5t-98.5 -45.5q-40 0 -63.5 13t-40 30t-33 30t-43.5 13t-38 -19.5t-15 -55.5h-91q7 102 43.5 148t100.5 46q41 0 65 -12.5t40.5 -29.5t32.5 -30t41 -13t34.5 17t10.5 50z" />
    <glyph glyph-name="itilde" unicode="&#x129;" horiz-adv-x="418" 
d="M96 0v1200h226v-1200h-226zM348 1468h93q-4 -96 -38.5 -141.5t-98.5 -45.5q-40 0 -63.5 13t-40 30t-33 30t-43.5 13t-38 -19.5t-15 -55.5h-91q7 102 43.5 148t100.5 46q41 0 65 -12.5t40.5 -29.5t32.5 -30t41 -13t34.5 17t10.5 50z" />
    <glyph glyph-name="Imacron" unicode="&#x12a;" horiz-adv-x="417" 
d="M95 0v1600h227v-1600h-227zM-80 1781h576v-109h-576v109z" />
    <glyph glyph-name="imacron" unicode="&#x12b;" horiz-adv-x="418" 
d="M96 0v1200h226v-1200h-226zM-79 1381h576v-109h-576v109z" />
    <glyph glyph-name="Ibreve" unicode="&#x12c;" horiz-adv-x="417" 
d="M95 0v1600h227v-1600h-227zM208 1672q-135 0 -197 60t-69 199h139q1 -75 30 -108t97 -33t97.5 33t29.5 108h139q-7 -139 -69 -199t-197 -60z" />
    <glyph glyph-name="ibreve" unicode="&#x12d;" horiz-adv-x="418" 
d="M96 0v1200h226v-1200h-226zM209 1272q-135 0 -197 60t-69 199h139q1 -75 30 -108t97 -33t97.5 33t29.5 108h139q-7 -139 -69 -199t-197 -60z" />
    <glyph glyph-name="Iogonek" unicode="&#x12e;" horiz-adv-x="417" 
d="M95 0v1600h227v-1600h-227zM354 -306h-61q-124 0 -176.5 50t-36.5 161l16 95h122l-16 -95q-8 -53 14 -76t78 -23h60v-112z" />
    <glyph glyph-name="iogonek" unicode="&#x12f;" horiz-adv-x="410" 
d="M77 1404v196h259v-196h-259zM96 0v1200h226v-1200h-226zM350 -306h-61q-125 0 -177.5 50t-35.5 161l16 95h121l-16 -95q-7 -53 15 -76t77 -23h61v-112z" />
    <glyph glyph-name="Idotaccent" unicode="&#x130;" horiz-adv-x="417" 
d="M95 0v1600h227v-1600h-227zM128 1680v160h160v-160h-160z" />
    <glyph glyph-name="dotlessi" unicode="&#x131;" horiz-adv-x="418" 
d="M96 0v1200h226v-1200h-226z" />
    <glyph glyph-name="Jcircumflex" unicode="&#x134;" horiz-adv-x="808" 
d="M385 -17q-123 0 -196 34.5t-106.5 109.5t-36.5 196q-1 65 -1 134t1 133h214q-1 -44 -1.5 -98t0 -107.5t1.5 -98.5q2 -59 31 -87.5t94 -28.5t92.5 28.5t27.5 87.5v1314h226v-1277q0 -182 -78.5 -261t-267.5 -79zM217 1682l152 255h136l152 -255h-152l-68 126l-68 -126
h-152z" />
    <glyph glyph-name="jcircumflex" unicode="&#x135;" horiz-adv-x="422" 
d="M-20 -419q-31 0 -68.5 4t-68.5 9v170q26 -2 66 -3.5t70 -1.5q60 0 89 27t29 83v1331h228v-1312q0 -164 -84 -235.5t-261 -71.5zM-9 1282l152 255h136l152 -255h-152l-68 126l-68 -126h-152z" />
    <glyph glyph-name="uni0136" unicode="&#x136;" horiz-adv-x="871" 
d="M95 0v1600h241l-3 -384l-35 -386h48l111 403l130 367h247l-253 -684l271 -916h-231l-190 662l-105 -241v-421h-231zM390 -410l63 141h-92v189h232v-167l-85 -163h-118z" />
    <glyph glyph-name="uni0137" unicode="&#x137;" horiz-adv-x="802" 
d="M96 0v1600h213v-351l-26 -542h39l89 247l111 246h235l-231 -470l275 -730h-233l-184 501l-71 -125v-376h-217zM349 -410l63 141h-92v189h232v-167l-85 -163h-118z" />
    <glyph glyph-name="kgreenlandic" unicode="&#x138;" horiz-adv-x="861" 
d="M96 0v1200h213v-171l-26 -351h39l90 241l142 281h235l-262 -499l274 -701h-233l-181 469l-74 -133v-336h-217z" />
    <glyph glyph-name="Lacute" unicode="&#x139;" horiz-adv-x="711" 
d="M95 0v1600h227v-1399h364v-201h-591zM323 1680l172 255h155l-179 -255h-148z" />
    <glyph glyph-name="lacute" unicode="&#x13a;" horiz-adv-x="418" 
d="M96 0v1600h226v-1600h-226zM142 1680l172 255h155l-179 -255h-148z" />
    <glyph glyph-name="uni013B" unicode="&#x13b;" horiz-adv-x="711" 
d="M95 0v1600h227v-1399h364v-201h-591zM313 -410l63 141h-92v189h232v-167l-85 -163h-118z" />
    <glyph glyph-name="uni013C" unicode="&#x13c;" horiz-adv-x="418" 
d="M96 0v1600h226v-1600h-226zM130 -410l63 141h-92v189h232v-167l-85 -163h-118z" />
    <glyph glyph-name="Lcaron" unicode="&#x13d;" horiz-adv-x="711" 
d="M95 0v1600h227v-1399h364v-201h-591zM466 1329l53 268h153l-63 -268h-143z" />
    <glyph glyph-name="lcaron" unicode="&#x13e;" horiz-adv-x="577" 
d="M96 0v1600h226v-1600h-226zM371 1331l53 268h153l-63 -268h-143z" />
    <glyph glyph-name="Ldot" unicode="&#x13f;" horiz-adv-x="711" 
d="M95 0v1600h227v-1399h364v-201h-591zM511 749v174h174v-174h-174z" />
    <glyph glyph-name="ldot" unicode="&#x140;" horiz-adv-x="622" 
d="M96 0v1600h226v-1600h-226zM414 743v174h174v-174h-174z" />
    <glyph glyph-name="Lslash" unicode="&#x141;" horiz-adv-x="821" 
d="M205 0v475l-34 -104h-160l194 386v843h226v-506l38 106h174l-212 -412v-587h365v-201h-591z" />
    <glyph glyph-name="lslash" unicode="&#x142;" horiz-adv-x="651" 
d="M205 0v478l-35 -107h-161l196 388v841h227v-504l36 104h174l-210 -410v-790h-227z" />
    <glyph glyph-name="Nacute" unicode="&#x143;" horiz-adv-x="993" 
d="M95 0v1600h355l106 -508l122 -891h56l-41 767l-17 632h222v-1600h-371l-111 547l-96 853h-60l38 -793l18 -607h-221zM433 1680l172 255h155l-179 -255h-148z" />
    <glyph glyph-name="nacute" unicode="&#x144;" horiz-adv-x="901" 
d="M96 0v1200h227v-120h42q37 66 81.5 101.5t127.5 35.5q113 0 174 -68t62 -226v-923h-227v942q-1 56 -26 81.5t-77 25.5q-46 0 -92 -27t-65 -74v-948h-227zM387 1280l172 255h155l-179 -255h-148z" />
    <glyph glyph-name="uni0145" unicode="&#x145;" horiz-adv-x="993" 
d="M95 0v1600h355l106 -508l122 -891h56l-41 767l-17 632h222v-1600h-371l-111 547l-96 853h-60l38 -793l18 -607h-221zM418 -410l63 141h-92v189h232v-167l-85 -163h-118z" />
    <glyph glyph-name="uni0146" unicode="&#x146;" horiz-adv-x="901" 
d="M96 0v1200h227v-120h42q37 66 81.5 101.5t127.5 35.5q113 0 174 -68t62 -226v-923h-227v942q-1 56 -26 81.5t-77 25.5q-46 0 -92 -27t-65 -74v-948h-227zM376 -410l63 141h-92v189h232v-167l-85 -163h-118z" />
    <glyph glyph-name="Ncaron" unicode="&#x147;" horiz-adv-x="993" 
d="M95 0v1600h355l106 -508l122 -891h56l-41 767l-17 632h222v-1600h-371l-111 547l-96 853h-60l38 -793l18 -607h-221zM439 1681l-152 256h137l76 -141l76 141h137l-152 -256h-122z" />
    <glyph glyph-name="ncaron" unicode="&#x148;" horiz-adv-x="901" 
d="M96 0v1200h227v-120h42q37 66 81.5 101.5t127.5 35.5q113 0 174 -68t62 -226v-923h-227v942q-1 56 -26 81.5t-77 25.5q-46 0 -92 -27t-65 -74v-948h-227zM393 1281l-152 256h137l76 -141l76 141h137l-152 -256h-122z" />
    <glyph glyph-name="Eng" unicode="&#x14a;" horiz-adv-x="993" 
d="M555 -414q-29 0 -65.5 3.5t-66.5 9.5v163q25 -2 63 -4t68 -2q70 0 110.5 23t40.5 80v264h193v-247q0 -154 -82 -222t-261 -68zM95 0v1600h355l106 -508l122 -891h56l-41 767l-17 632h222v-1600h-371l-111 547l-96 853h-60l38 -793l18 -607h-221z" />
    <glyph glyph-name="eng" unicode="&#x14b;" horiz-adv-x="899" 
d="M435 -416q-30 0 -67.5 4t-69.5 9v167q26 -2 66 -3.5t70 -1.5q80 0 113 24.5t33 86.5v1072q0 56 -24 81.5t-76 25.5q-46 0 -92 -27t-65 -74v-948h-227v1200h227v-120h43q36 66 80.5 101.5t127.5 35.5q113 0 173.5 -67.5t60.5 -226.5v-1033q0 -163 -90 -234.5t-283 -71.5z
" />
    <glyph glyph-name="Omacron" unicode="&#x14c;" horiz-adv-x="886" 
d="M443 -17q-187 0 -270 78.5t-86 261.5q-3 120 -4 239.5t-1 238.5t1 238t4 239q3 182 86 260.5t270 78.5t268.5 -78.5t86.5 -260.5q4 -121 5.5 -240.5t1.5 -238t-1.5 -237.5t-5.5 -239q-5 -183 -86.5 -261.5t-268.5 -78.5zM443 170q67 0 97.5 28t31.5 90q4 124 6 253.5
t2 260.5t-2 259.5t-6 250.5q-1 62 -32 90.5t-97 28.5q-65 0 -96.5 -28.5t-33.5 -90.5q-4 -121 -6 -249.5t-2 -259.5t2 -260.5t6 -254.5q2 -62 33.5 -90t96.5 -28zM156 1781h576v-109h-576v109z" />
    <glyph glyph-name="omacron" unicode="&#x14d;" horiz-adv-x="860" 
d="M431 -17q-125 0 -199.5 34t-109 108.5t-41.5 196.5q-1 54 -2.5 125.5t-1.5 149.5t1 151.5t3 130.5q7 121 41.5 195.5t109 108.5t199.5 34q126 0 199.5 -34.5t107.5 -109t40 -194.5q3 -55 4 -127t1 -149.5t-1 -150t-4 -130.5q-6 -121 -40 -195.5t-107.5 -109t-199.5 -34.5
zM431 155q64 0 91.5 27.5t28.5 85.5q3 86 4.5 169t1.5 164.5t-1.5 163.5t-4.5 168q-1 58 -28 85t-92 27q-64 0 -92.5 -27t-30.5 -85q-2 -83 -3.5 -165t-1.5 -165t1.5 -166.5t3.5 -168.5q2 -59 30.5 -86t92.5 -27zM142 1381h576v-109h-576v109z" />
    <glyph glyph-name="Obreve" unicode="&#x14e;" horiz-adv-x="886" 
d="M443 -17q-187 0 -270 78.5t-86 261.5q-3 120 -4 239.5t-1 238.5t1 238t4 239q3 182 86 260.5t270 78.5t268.5 -78.5t86.5 -260.5q4 -121 5.5 -240.5t1.5 -238t-1.5 -237.5t-5.5 -239q-5 -183 -86.5 -261.5t-268.5 -78.5zM443 170q67 0 97.5 28t31.5 90q4 124 6 253.5
t2 260.5t-2 259.5t-6 250.5q-1 62 -32 90.5t-97 28.5q-65 0 -96.5 -28.5t-33.5 -90.5q-4 -121 -6 -249.5t-2 -259.5t2 -260.5t6 -254.5q2 -62 33.5 -90t96.5 -28zM444 1672q-135 0 -197 60t-69 199h139q1 -75 30 -108t97 -33t97.5 33t29.5 108h139q-7 -139 -69 -199
t-197 -60z" />
    <glyph glyph-name="obreve" unicode="&#x14f;" horiz-adv-x="860" 
d="M431 -17q-125 0 -199.5 34t-109 108.5t-41.5 196.5q-1 54 -2.5 125.5t-1.5 149.5t1 151.5t3 130.5q7 121 41.5 195.5t109 108.5t199.5 34q126 0 199.5 -34.5t107.5 -109t40 -194.5q3 -55 4 -127t1 -149.5t-1 -150t-4 -130.5q-6 -121 -40 -195.5t-107.5 -109t-199.5 -34.5
zM431 155q64 0 91.5 27.5t28.5 85.5q3 86 4.5 169t1.5 164.5t-1.5 163.5t-4.5 168q-1 58 -28 85t-92 27q-64 0 -92.5 -27t-30.5 -85q-2 -83 -3.5 -165t-1.5 -165t1.5 -166.5t3.5 -168.5q2 -59 30.5 -86t92.5 -27zM430 1272q-135 0 -197 60t-69 199h139q1 -75 30 -108t97 -33
t97.5 33t29.5 108h139q-7 -139 -69 -199t-197 -60z" />
    <glyph glyph-name="Ohungarumlaut" unicode="&#x150;" horiz-adv-x="886" 
d="M443 -17q-187 0 -270 78.5t-86 261.5q-3 120 -4 239.5t-1 238.5t1 238t4 239q3 182 86 260.5t270 78.5t268.5 -78.5t86.5 -260.5q4 -121 5.5 -240.5t1.5 -238t-1.5 -237.5t-5.5 -239q-5 -183 -86.5 -261.5t-268.5 -78.5zM443 170q67 0 97.5 28t31.5 90q4 124 6 253.5
t2 260.5t-2 259.5t-6 250.5q-1 62 -32 90.5t-97 28.5q-65 0 -96.5 -28.5t-33.5 -90.5q-4 -121 -6 -249.5t-2 -259.5t2 -260.5t6 -254.5q2 -62 33.5 -90t96.5 -28zM237 1682l199 255h159l-199 -255h-159zM489 1682l200 255h158l-199 -255h-159z" />
    <glyph glyph-name="ohungarumlaut" unicode="&#x151;" horiz-adv-x="860" 
d="M431 -17q-125 0 -199.5 34t-109 108.5t-41.5 196.5q-1 54 -2.5 125.5t-1.5 149.5t1 151.5t3 130.5q7 121 41.5 195.5t109 108.5t199.5 34q126 0 199.5 -34.5t107.5 -109t40 -194.5q3 -55 4 -127t1 -149.5t-1 -150t-4 -130.5q-6 -121 -40 -195.5t-107.5 -109t-199.5 -34.5
zM431 155q64 0 91.5 27.5t28.5 85.5q3 86 4.5 169t1.5 164.5t-1.5 163.5t-4.5 168q-1 58 -28 85t-92 27q-64 0 -92.5 -27t-30.5 -85q-2 -83 -3.5 -165t-1.5 -165t1.5 -166.5t3.5 -168.5q2 -59 30.5 -86t92.5 -27zM223 1282l199 255h159l-199 -255h-159zM475 1282l200 255
h158l-199 -255h-159z" />
    <glyph glyph-name="OE" unicode="&#x152;" horiz-adv-x="1222" 
d="M443 -17q-187 0 -270 78.5t-86 261.5q-3 120 -4 239.5t-1 238.5t1 238t4 239q3 182 86 260.5t270 78.5q107 0 171 -28l1 11h560v-201h-368v-488h348v-201h-348v-509h368v-201h-560l-1 11q-64 -28 -171 -28zM443 170q67 0 97.5 28t31.5 90q2 55 3.5 123.5t2 146t1 159
t0 163.5t-1.5 160t-2 147.5t-3 124.5q-1 62 -32 90.5t-97 28.5q-65 0 -96.5 -28.5t-33.5 -90.5q-4 -121 -6 -249.5t-2 -259.5t2 -260.5t6 -254.5q2 -62 33.5 -90t96.5 -28z" />
    <glyph glyph-name="oe" unicode="&#x153;" horiz-adv-x="1306" 
d="M431 -17q-125 0 -199.5 34t-109 108.5t-41.5 196.5q-1 54 -2.5 125.5t-1.5 149.5t1 151.5t3 130.5q7 121 41.5 195.5t109 108.5t199.5 34q126 0 199.5 -34.5t107.5 -109t40 -194.5q3 -55 4 -127t1 -149.5t-1 -150t-4 -130.5q-6 -121 -40 -195.5t-107.5 -109t-199.5 -34.5
zM431 155q64 0 91.5 27.5t28.5 85.5q3 86 4.5 169t1.5 164.5t-1.5 163.5t-4.5 168q-1 58 -28 85t-92 27q-64 0 -92.5 -27t-30.5 -85q-2 -83 -3.5 -165t-1.5 -165t1.5 -166.5t3.5 -168.5q2 -59 30.5 -86t92.5 -27zM907 -17q-178 0 -257 71.5t-88 234.5q-2 56 -3 137t-1 170.5
t1 172t3 138.5q10 167 89.5 238.5t252.5 71.5q171 0 248.5 -70t84.5 -231q1 -25 2 -83t0.5 -130.5t-4.5 -142.5h-450q0 -72 1.5 -145t3.5 -149q2 -62 28.5 -86.5t87.5 -24.5q56 0 80.5 24.5t27.5 86.5q2 30 2 75.5t-2 101.5h221q3 -26 3.5 -72t-1.5 -82q-7 -163 -83 -234.5
t-247 -71.5zM786 721h230v92t-0.5 79t-1.5 48q-3 57 -28.5 81t-81.5 24q-61 0 -86.5 -24.5t-27.5 -80.5q-1 -57 -2 -111.5t-2 -107.5z" />
    <glyph glyph-name="Racute" unicode="&#x154;" horiz-adv-x="854" 
d="M95 0v1600h329q185 0 268 -76.5t89 -254.5q3 -71 3.5 -130t0 -115.5t-3.5 -120.5q-4 -115 -39.5 -186.5t-110.5 -106.5l176 -610h-241l-149 572h-95v-572h-227zM322 773h101q66 0 97 30t34 88q3 64 4 129.5t0 131t-4 129.5q-3 59 -34 88.5t-96 29.5h-102v-626zM352 1680
l172 255h155l-179 -255h-148z" />
    <glyph glyph-name="racute" unicode="&#x155;" horiz-adv-x="620" 
d="M96 0v1200h228v-134h41q13 79 54.5 109.5t108.5 30.5q22 0 43 -1.5t34 -2.5v-175h-75q-100 0 -146 -32.5t-60 -98.5v-896h-228zM275 1280l172 255h155l-179 -255h-148z" />
    <glyph glyph-name="uni0156" unicode="&#x156;" horiz-adv-x="854" 
d="M95 0v1600h329q185 0 268 -76.5t89 -254.5q3 -71 3.5 -130t0 -115.5t-3.5 -120.5q-4 -115 -39.5 -186.5t-110.5 -106.5l176 -610h-241l-149 572h-95v-572h-227zM322 773h101q66 0 97 30t34 88q3 64 4 129.5t0 131t-4 129.5q-3 59 -34 88.5t-96 29.5h-102v-626zM368 -410
l63 141h-92v189h232v-167l-85 -163h-118z" />
    <glyph glyph-name="uni0157" unicode="&#x157;" horiz-adv-x="620" 
d="M96 0v1200h228v-134h41q13 79 54.5 109.5t108.5 30.5q22 0 43 -1.5t34 -2.5v-175h-75q-100 0 -146 -32.5t-60 -98.5v-896h-228zM131 -410l63 141h-92v189h232v-167l-85 -163h-118z" />
    <glyph glyph-name="Rcaron" unicode="&#x158;" horiz-adv-x="854" 
d="M95 0v1600h329q185 0 268 -76.5t89 -254.5q3 -71 3.5 -130t0 -115.5t-3.5 -120.5q-4 -115 -39.5 -186.5t-110.5 -106.5l176 -610h-241l-149 572h-95v-572h-227zM322 773h101q66 0 97 30t34 88q3 64 4 129.5t0 131t-4 129.5q-3 59 -34 88.5t-96 29.5h-102v-626zM358 1681
l-152 256h137l76 -141l76 141h137l-152 -256h-122z" />
    <glyph glyph-name="rcaron" unicode="&#x159;" horiz-adv-x="620" 
d="M96 0v1200h228v-134h41q13 79 54.5 109.5t108.5 30.5q22 0 43 -1.5t34 -2.5v-175h-75q-100 0 -146 -32.5t-60 -98.5v-896h-228zM281 1281l-152 256h137l76 -141l76 141h137l-152 -256h-122z" />
    <glyph glyph-name="Sacute" unicode="&#x15a;" horiz-adv-x="846" 
d="M425 -17q-186 0 -266 79t-88 261q-1 46 -1 90t1.5 88t5.5 89h214q-4 -80 -4.5 -158t4.5 -148q4 -58 36 -86t97 -28q64 0 93.5 28t34.5 86q4 43 5 81.5t-0.5 78.5t-4.5 85q-3 57 -25.5 98t-75.5 54l-140 35q-92 23 -144.5 68.5t-75 115t-25.5 167.5q-1 53 -1 106t1 106
q5 121 41 195.5t113.5 108.5t203.5 34q180 0 261 -78.5t88 -260.5q2 -49 1 -119t-4 -138h-218q3 75 3.5 149t-2.5 148q-1 57 -34 85t-95 28q-65 0 -95.5 -28t-35.5 -85q-5 -63 -5 -125.5t5 -125.5q4 -62 25.5 -100.5t75.5 -51.5l125 -29q98 -23 154 -70t80 -118t27 -169
q2 -39 2 -72t-1 -65.5t-2 -68.5q-7 -182 -88 -261t-266 -79zM355 1680l172 255h155l-179 -255h-148z" />
    <glyph glyph-name="sacute" unicode="&#x15b;" horiz-adv-x="783" 
d="M385 -17q-167 0 -238 71.5t-78 234.5q-1 37 -0.5 81t2.5 70h200q-2 -56 -1.5 -100t1.5 -74q2 -62 30 -86.5t84 -24.5q66 0 95 24.5t30 86.5q0 27 0.5 39.5t0.5 24v36.5q-1 49 -17 78t-59 42l-123 36q-82 25 -137 62t-82.5 95t-28.5 146q-1 22 -0.5 41.5t0.5 39.5
q1 167 75 239t257 72q169 0 238.5 -70t76.5 -231q2 -33 1 -80t-3 -72h-207q1 25 1.5 59t0 66.5t-1.5 51.5q-2 58 -25 81t-81 23q-60 0 -84 -23t-26 -81q-1 -25 -1.5 -42.5t-0.5 -54.5q1 -54 15 -89t67 -50l110 -28q123 -32 184 -99.5t61 -200.5v-46.5t-1 -46.5
q-1 -161 -77.5 -231t-257.5 -70zM322 1280l172 255h155l-179 -255h-148z" />
    <glyph glyph-name="Scircumflex" unicode="&#x15c;" horiz-adv-x="846" 
d="M425 -17q-186 0 -266 79t-88 261q-1 46 -1 90t1.5 88t5.5 89h214q-4 -80 -4.5 -158t4.5 -148q4 -58 36 -86t97 -28q64 0 93.5 28t34.5 86q4 43 5 81.5t-0.5 78.5t-4.5 85q-3 57 -25.5 98t-75.5 54l-140 35q-92 23 -144.5 68.5t-75 115t-25.5 167.5q-1 53 -1 106t1 106
q5 121 41 195.5t113.5 108.5t203.5 34q180 0 261 -78.5t88 -260.5q2 -49 1 -119t-4 -138h-218q3 75 3.5 149t-2.5 148q-1 57 -34 85t-95 28q-65 0 -95.5 -28t-35.5 -85q-5 -63 -5 -125.5t5 -125.5q4 -62 25.5 -100.5t75.5 -51.5l125 -29q98 -23 154 -70t80 -118t27 -169
q2 -39 2 -72t-1 -65.5t-2 -68.5q-7 -182 -88 -261t-266 -79zM201 1682l152 255h136l152 -255h-152l-68 126l-68 -126h-152z" />
    <glyph glyph-name="scircumflex" unicode="&#x15d;" horiz-adv-x="783" 
d="M385 -17q-167 0 -238 71.5t-78 234.5q-1 37 -0.5 81t2.5 70h200q-2 -56 -1.5 -100t1.5 -74q2 -62 30 -86.5t84 -24.5q66 0 95 24.5t30 86.5q0 27 0.5 39.5t0.5 24v36.5q-1 49 -17 78t-59 42l-123 36q-82 25 -137 62t-82.5 95t-28.5 146q-1 22 -0.5 41.5t0.5 39.5
q1 167 75 239t257 72q169 0 238.5 -70t76.5 -231q2 -33 1 -80t-3 -72h-207q1 25 1.5 59t0 66.5t-1.5 51.5q-2 58 -25 81t-81 23q-60 0 -84 -23t-26 -81q-1 -25 -1.5 -42.5t-0.5 -54.5q1 -54 15 -89t67 -50l110 -28q123 -32 184 -99.5t61 -200.5v-46.5t-1 -46.5
q-1 -161 -77.5 -231t-257.5 -70zM168 1282l152 255h136l152 -255h-152l-68 126l-68 -126h-152z" />
    <glyph glyph-name="Scedilla" unicode="&#x15e;" horiz-adv-x="846" 
d="M425 -17q-186 0 -266 79t-88 261q-1 46 -1 90t1.5 88t5.5 89h214q-4 -80 -4.5 -158t4.5 -148q4 -58 36 -86t97 -28q64 0 93.5 28t34.5 86q4 43 5 81.5t-0.5 78.5t-4.5 85q-3 57 -25.5 98t-75.5 54l-140 35q-92 23 -144.5 68.5t-75 115t-25.5 167.5q-1 53 -1 106t1 106
q5 121 41 195.5t113.5 108.5t203.5 34q180 0 261 -78.5t88 -260.5q2 -49 1 -119t-4 -138h-218q3 75 3.5 149t-2.5 148q-1 57 -34 85t-95 28q-65 0 -95.5 -28t-35.5 -85q-5 -63 -5 -125.5t5 -125.5q4 -62 25.5 -100.5t75.5 -51.5l125 -29q98 -23 154 -70t80 -118t27 -169
q2 -39 2 -72t-1 -65.5t-2 -68.5q-7 -182 -88 -261t-266 -79zM226 -292v112h60q56 0 78.5 23t13.5 76l-16 95h122l16 -95q16 -111 -36 -161t-178 -50h-60z" />
    <glyph glyph-name="scedilla" unicode="&#x15f;" horiz-adv-x="783" 
d="M385 -17q-167 0 -238 71.5t-78 234.5q-1 37 -0.5 81t2.5 70h200q-2 -56 -1.5 -100t1.5 -74q2 -62 30 -86.5t84 -24.5q66 0 95 24.5t30 86.5q0 27 0.5 39.5t0.5 24v36.5q-1 49 -17 78t-59 42l-123 36q-82 25 -137 62t-82.5 95t-28.5 146q-1 22 -0.5 41.5t0.5 39.5
q1 167 75 239t257 72q169 0 238.5 -70t76.5 -231q2 -33 1 -80t-3 -72h-207q1 25 1.5 59t0 66.5t-1.5 51.5q-2 58 -25 81t-81 23q-60 0 -84 -23t-26 -81q-1 -25 -1.5 -42.5t-0.5 -54.5q1 -54 15 -89t67 -50l110 -28q123 -32 184 -99.5t61 -200.5v-46.5t-1 -46.5
q-1 -161 -77.5 -231t-257.5 -70zM193 -292v112h60q56 0 78.5 23t13.5 76l-16 95h122l16 -95q16 -111 -36 -161t-178 -50h-60z" />
    <glyph glyph-name="Scaron" unicode="&#x160;" horiz-adv-x="846" 
d="M425 -17q-186 0 -266 79t-88 261q-1 46 -1 90t1.5 88t5.5 89h214q-4 -80 -4.5 -158t4.5 -148q4 -58 36 -86t97 -28q64 0 93.5 28t34.5 86q4 43 5 81.5t-0.5 78.5t-4.5 85q-3 57 -25.5 98t-75.5 54l-140 35q-92 23 -144.5 68.5t-75 115t-25.5 167.5q-1 53 -1 106t1 106
q5 121 41 195.5t113.5 108.5t203.5 34q180 0 261 -78.5t88 -260.5q2 -49 1 -119t-4 -138h-218q3 75 3.5 149t-2.5 148q-1 57 -34 85t-95 28q-65 0 -95.5 -28t-35.5 -85q-5 -63 -5 -125.5t5 -125.5q4 -62 25.5 -100.5t75.5 -51.5l125 -29q98 -23 154 -70t80 -118t27 -169
q2 -39 2 -72t-1 -65.5t-2 -68.5q-7 -182 -88 -261t-266 -79zM361 1681l-152 256h137l76 -141l76 141h137l-152 -256h-122z" />
    <glyph glyph-name="scaron" unicode="&#x161;" horiz-adv-x="783" 
d="M385 -17q-167 0 -238 71.5t-78 234.5q-1 37 -0.5 81t2.5 70h200q-2 -56 -1.5 -100t1.5 -74q2 -62 30 -86.5t84 -24.5q66 0 95 24.5t30 86.5q0 27 0.5 39.5t0.5 24v36.5q-1 49 -17 78t-59 42l-123 36q-82 25 -137 62t-82.5 95t-28.5 146q-1 22 -0.5 41.5t0.5 39.5
q1 167 75 239t257 72q169 0 238.5 -70t76.5 -231q2 -33 1 -80t-3 -72h-207q1 25 1.5 59t0 66.5t-1.5 51.5q-2 58 -25 81t-81 23q-60 0 -84 -23t-26 -81q-1 -25 -1.5 -42.5t-0.5 -54.5q1 -54 15 -89t67 -50l110 -28q123 -32 184 -99.5t61 -200.5v-46.5t-1 -46.5
q-1 -161 -77.5 -231t-257.5 -70zM328 1281l-152 256h137l76 -141l76 141h137l-152 -256h-122z" />
    <glyph glyph-name="uni0162" unicode="&#x162;" horiz-adv-x="726" 
d="M250 0v1399h-239v201h704v-201h-239v-1399h-226zM167 -292v112h60q56 0 78.5 23t13.5 76l-16 95h122l16 -95q16 -111 -36 -161t-178 -50h-60z" />
    <glyph glyph-name="uni0163" unicode="&#x163;" horiz-adv-x="609" 
d="M490 -17q-192 0 -272 71t-81 236v737h-101v173h104v340h228v-340h197v-173h-201l1 -762q0 -63 24.5 -87.5t101.5 -24.5q26 0 47 1.5t47 2.5v-164q-21 -5 -45 -7.5t-50 -2.5zM180 -292v112h60q56 0 78.5 23t13.5 76l-16 95h122l16 -95q16 -111 -36 -161t-178 -50h-60z" />
    <glyph glyph-name="Tcaron" unicode="&#x164;" horiz-adv-x="726" 
d="M250 0v1399h-239v201h704v-201h-239v-1399h-226zM302 1681l-152 256h137l76 -141l76 141h137l-152 -256h-122z" />
    <glyph glyph-name="tcaron" unicode="&#x165;" horiz-adv-x="650" 
d="M490 -17q-192 0 -272 71t-81 236v737h-101v173h104v340h228v-340h197v-173h-201l1 -762q0 -63 24.5 -87.5t101.5 -24.5q26 0 47 1.5t47 2.5v-164q-21 -5 -45 -7.5t-50 -2.5zM421 1331l53 268h153l-63 -268h-143z" />
    <glyph glyph-name="Tbar" unicode="&#x166;" horiz-adv-x="726" 
d="M250 0v1399h-239v201h704v-201h-239v-1399h-226zM127 794h474v-123h-474v123z" />
    <glyph glyph-name="tbar" unicode="&#x167;" horiz-adv-x="609" 
d="M490 -17q-192 0 -272 71t-81 236v737h-101v173h104v340h228v-340h197v-173h-201l1 -762q0 -63 24.5 -87.5t101.5 -24.5q26 0 47 1.5t47 2.5v-164q-21 -5 -45 -7.5t-50 -2.5zM61 748h474v-123h-474v123z" />
    <glyph glyph-name="Utilde" unicode="&#x168;" horiz-adv-x="871" 
d="M436 -17q-189 0 -270.5 78.5t-84.5 259.5q-4 319 -4 640t4 639h227q-3 -212 -4 -435t0 -445.5t3 -435.5q0 -57 32.5 -85.5t96.5 -28.5q65 0 96.5 28.5t31.5 85.5q2 213 3 435.5t0.5 445.5t-3.5 435h226q5 -318 5 -639t-5 -640q-2 -181 -83.5 -259.5t-270.5 -78.5z
M575 1868h93q-4 -96 -38.5 -141.5t-98.5 -45.5q-40 0 -63.5 13t-40 30t-33 30t-43.5 13t-38 -19.5t-15 -55.5h-91q7 102 43.5 148t100.5 46q41 0 65 -12.5t40.5 -29.5t32.5 -30t41 -13t34.5 17t10.5 50z" />
    <glyph glyph-name="utilde" unicode="&#x169;" horiz-adv-x="895" 
d="M329 -17q-112 0 -176.5 68.5t-64.5 225.5v923h227v-942q0 -56 24 -81.5t75 -25.5q47 0 92.5 27t64.5 74v948h228v-1200h-228v120h-33q-39 -72 -89.5 -104.5t-119.5 -32.5zM579 1468h93q-4 -96 -38.5 -141.5t-98.5 -45.5q-40 0 -63.5 13t-40 30t-33 30t-43.5 13t-38 -19.5
t-15 -55.5h-91q7 102 43.5 148t100.5 46q41 0 65 -12.5t40.5 -29.5t32.5 -30t41 -13t34.5 17t10.5 50z" />
    <glyph glyph-name="Umacron" unicode="&#x16a;" horiz-adv-x="871" 
d="M436 -17q-189 0 -270.5 78.5t-84.5 259.5q-4 319 -4 640t4 639h227q-3 -212 -4 -435t0 -445.5t3 -435.5q0 -57 32.5 -85.5t96.5 -28.5q65 0 96.5 28.5t31.5 85.5q2 213 3 435.5t0.5 445.5t-3.5 435h226q5 -318 5 -639t-5 -640q-2 -181 -83.5 -259.5t-270.5 -78.5z
M148 1781h576v-109h-576v109z" />
    <glyph glyph-name="umacron" unicode="&#x16b;" horiz-adv-x="895" 
d="M329 -17q-112 0 -176.5 68.5t-64.5 225.5v923h227v-942q0 -56 24 -81.5t75 -25.5q47 0 92.5 27t64.5 74v948h228v-1200h-228v120h-33q-39 -72 -89.5 -104.5t-119.5 -32.5zM152 1381h576v-109h-576v109z" />
    <glyph glyph-name="Ubreve" unicode="&#x16c;" horiz-adv-x="871" 
d="M436 -17q-189 0 -270.5 78.5t-84.5 259.5q-4 319 -4 640t4 639h227q-3 -212 -4 -435t0 -445.5t3 -435.5q0 -57 32.5 -85.5t96.5 -28.5q65 0 96.5 28.5t31.5 85.5q2 213 3 435.5t0.5 445.5t-3.5 435h226q5 -318 5 -639t-5 -640q-2 -181 -83.5 -259.5t-270.5 -78.5z
M436 1672q-135 0 -197 60t-69 199h139q1 -75 30 -108t97 -33t97.5 33t29.5 108h139q-7 -139 -69 -199t-197 -60z" />
    <glyph glyph-name="ubreve" unicode="&#x16d;" horiz-adv-x="895" 
d="M329 -17q-112 0 -176.5 68.5t-64.5 225.5v923h227v-942q0 -56 24 -81.5t75 -25.5q47 0 92.5 27t64.5 74v948h228v-1200h-228v120h-33q-39 -72 -89.5 -104.5t-119.5 -32.5zM441 1272q-135 0 -197 60t-69 199h139q1 -75 30 -108t97 -33t97.5 33t29.5 108h139
q-7 -139 -69 -199t-197 -60z" />
    <glyph glyph-name="Uring" unicode="&#x16e;" horiz-adv-x="871" 
d="M436 -17q-189 0 -270.5 78.5t-84.5 259.5q-4 319 -4 640t4 639h227q-3 -212 -4 -435t0 -445.5t3 -435.5q0 -57 32.5 -85.5t96.5 -28.5q65 0 96.5 28.5t31.5 85.5q2 213 3 435.5t0.5 445.5t-3.5 435h226q5 -318 5 -639t-5 -640q-2 -181 -83.5 -259.5t-270.5 -78.5z
M436 1672q-74 0 -127.5 53t-53.5 128t53.5 128t127.5 53q75 0 128.5 -53t53.5 -128t-53.5 -128t-128.5 -53zM436 1793q26 0 43 17.5t17 42.5t-17 42t-43 17q-24 0 -41.5 -17t-17.5 -42t17.5 -42.5t41.5 -17.5z" />
    <glyph glyph-name="uring" unicode="&#x16f;" horiz-adv-x="895" 
d="M329 -17q-112 0 -176.5 68.5t-64.5 225.5v923h227v-942q0 -56 24 -81.5t75 -25.5q47 0 92.5 27t64.5 74v948h228v-1200h-228v120h-33q-39 -72 -89.5 -104.5t-119.5 -32.5zM440 1272q-74 0 -127.5 53t-53.5 128t53.5 128t127.5 53q75 0 128.5 -53t53.5 -128t-53.5 -128
t-128.5 -53zM440 1393q26 0 43 17.5t17 42.5t-17 42t-43 17q-24 0 -41.5 -17t-17.5 -42t17.5 -42.5t41.5 -17.5z" />
    <glyph glyph-name="Uhungarumlaut" unicode="&#x170;" horiz-adv-x="871" 
d="M436 -17q-189 0 -270.5 78.5t-84.5 259.5q-4 319 -4 640t4 639h227q-3 -212 -4 -435t0 -445.5t3 -435.5q0 -57 32.5 -85.5t96.5 -28.5q65 0 96.5 28.5t31.5 85.5q2 213 3 435.5t0.5 445.5t-3.5 435h226q5 -318 5 -639t-5 -640q-2 -181 -83.5 -259.5t-270.5 -78.5z
M229 1682l199 255h159l-199 -255h-159zM481 1682l200 255h158l-199 -255h-159z" />
    <glyph glyph-name="uhungarumlaut" unicode="&#x171;" horiz-adv-x="895" 
d="M329 -17q-112 0 -176.5 68.5t-64.5 225.5v923h227v-942q0 -56 24 -81.5t75 -25.5q47 0 92.5 27t64.5 74v948h228v-1200h-228v120h-33q-39 -72 -89.5 -104.5t-119.5 -32.5zM233 1282l199 255h159l-199 -255h-159zM485 1282l200 255h158l-199 -255h-159z" />
    <glyph glyph-name="Uogonek" unicode="&#x172;" horiz-adv-x="871" 
d="M436 -17q-189 0 -270.5 78.5t-84.5 259.5q-4 319 -4 640t4 639h227q-3 -212 -4 -435t0 -445.5t3 -435.5q0 -57 32.5 -85.5t96.5 -28.5q65 0 96.5 28.5t31.5 85.5q2 213 3 435.5t0.5 445.5t-3.5 435h226q5 -318 5 -639t-5 -640q-2 -181 -83.5 -259.5t-270.5 -78.5z
M756 -291h-61q-124 0 -176.5 50t-36.5 161l16 95h122l-16 -95q-8 -53 14 -76t78 -23h60v-112z" />
    <glyph glyph-name="uogonek" unicode="&#x173;" horiz-adv-x="895" 
d="M329 -17q-112 0 -176.5 68.5t-64.5 225.5v923h227v-942q0 -56 24 -81.5t75 -25.5q47 0 92.5 27t64.5 74v948h228v-1200h-228v120h-33q-39 -72 -89.5 -104.5t-119.5 -32.5zM829 -303h-61q-124 0 -176.5 50t-36.5 161l16 95h122l-16 -95q-8 -53 14 -76t78 -23h60v-112z" />
    <glyph glyph-name="Wcircumflex" unicode="&#x174;" horiz-adv-x="1392" 
d="M182 0l-133 1600h228l44 -673l37 -726h56l17 726l103 663h324l103 -663l16 -726h56l37 726l45 673h227l-133 -1600h-389l-61 482l-34 914h-58l-35 -914l-61 -482h-389zM466 1682l152 255h136l152 -255h-152l-68 126l-68 -126h-152z" />
    <glyph glyph-name="wcircumflex" unicode="&#x175;" horiz-adv-x="1327" 
d="M174 0l-144 1200h228l50 -604l25 -427h68l17 427l54 601h382l52 -601l17 -427h68l25 427l52 604h229l-147 -1200h-393l-35 465l-24 563h-71l-25 -563l-35 -465h-393zM441 1282l152 255h136l152 -255h-152l-68 126l-68 -126h-152z" />
    <glyph glyph-name="Ycircumflex" unicode="&#x176;" horiz-adv-x="811" 
d="M292 0v423l-8 2l-257 1175h231l81 -417l42 -464h49l41 464l81 417h232l-258 -1176l-7 -1v-423h-227zM178 1682l152 255h136l152 -255h-152l-68 126l-68 -126h-152z" />
    <glyph glyph-name="ycircumflex" unicode="&#x177;" horiz-adv-x="794" 
d="M202 -415q-31 0 -70.5 3.5t-71.5 8.5v170q26 -1 69 -3t72 -2q79 0 108.5 25t37.5 87l18 126h-134l-195 1200h231l61 -561l52 -469h63l37 469l53 561h231l-190 -1309q-15 -107 -54 -175t-114.5 -99.5t-203.5 -31.5zM182 1282l152 255h136l152 -255h-152l-68 126l-68 -126
h-152z" />
    <glyph glyph-name="Ydieresis" unicode="&#x178;" horiz-adv-x="811" 
d="M292 0v423l-8 2l-257 1175h231l81 -417l42 -464h49l41 464l81 417h232l-258 -1176l-7 -1v-423h-227zM447 1710v160h161v-160h-161zM191 1710v160h160v-160h-160z" />
    <glyph glyph-name="Zacute" unicode="&#x179;" horiz-adv-x="735" 
d="M34 0v188l424 1211h-401v201h643v-192l-438 -1207h406v-201h-634zM298 1680l172 255h155l-179 -255h-148z" />
    <glyph glyph-name="zacute" unicode="&#x17a;" horiz-adv-x="704" 
d="M39 0v145l386 886l-378 -1v169l621 1v-149l-391 -882h384v-169h-622zM286 1280l172 255h155l-179 -255h-148z" />
    <glyph glyph-name="Zdotaccent" unicode="&#x17b;" horiz-adv-x="735" 
d="M34 0v188l424 1211h-401v201h643v-192l-438 -1207h406v-201h-634zM285 1680v160h160v-160h-160z" />
    <glyph glyph-name="zdotaccent" unicode="&#x17c;" horiz-adv-x="704" 
d="M39 0v145l386 886l-378 -1v169l621 1v-149l-391 -882h384v-169h-622zM273 1280v160h160v-160h-160z" />
    <glyph glyph-name="Zcaron" unicode="&#x17d;" horiz-adv-x="735" 
d="M34 0v188l424 1211h-401v201h643v-192l-438 -1207h406v-201h-634zM304 1681l-152 256h137l76 -141l76 141h137l-152 -256h-122z" />
    <glyph glyph-name="zcaron" unicode="&#x17e;" horiz-adv-x="704" 
d="M39 0v145l386 886l-378 -1v169l621 1v-149l-391 -882h384v-169h-622zM292 1281l-152 256h137l76 -141l76 141h137l-152 -256h-122z" />
    <glyph glyph-name="uni018E" unicode="&#x18e;" horiz-adv-x="737" 
d="M641 0h-594v201h368v509h-348v201h348v488h-368v201h594v-1600z" />
    <glyph glyph-name="uni018F" unicode="&#x18f;" horiz-adv-x="887" 
d="M446 -18q-185 0 -268.5 79t-86.5 260q-1 141 -1 265.5t1 280.5h491q0 115 -2 227.5t-5 221.5q-1 58 -33.5 86t-95.5 28q-67 0 -100.5 -28t-35.5 -86q-1 -40 -1.5 -92t0.5 -108t2 -107h-227q-2 71 -2 138.5t1 128.5q6 183 90.5 261.5t272.5 78.5q190 0 271 -78.5
t85 -261.5q2 -111 3 -232t1 -245t-1 -245.5t-3 -233.5q-3 -163 -86 -250.5t-270 -87.5zM446 169q63 0 95.5 28t33.5 85q3 105 5 211t2 215h-268v-145t1 -139t3 -142q2 -57 33.5 -85t94.5 -28z" />
    <glyph glyph-name="florin" unicode="&#x192;" horiz-adv-x="1326" 
d="M231 -18q-37 0 -73 4.5t-66 9.5l28 169q25 -2 63 -3.5t62 -1.5q64 0 106.5 33t58.5 91l129 478h-228v115h259l121 448q44 163 140 228.5t264 65.5q39 0 74.5 -4.5t65.5 -9.5l-27 -166q-30 1 -61 2t-64 1q-65 0 -107.5 -33.5t-59.5 -90.5l-119 -441h273v-115h-305
l-131 -485q-29 -107 -79 -172t-129 -94t-195 -29z" />
    <glyph glyph-name="Ohorn" unicode="&#x1a0;" horiz-adv-x="886" 
d="M443 -17q-187 0 -270 78.5t-86 261.5q-3 120 -4 239.5t-1 238.5t1 238t4 239q3 182 86 260.5t270 78.5t268.5 -78.5t86.5 -260.5q4 -121 5.5 -240.5t1.5 -238t-1.5 -237.5t-5.5 -239q-5 -183 -86.5 -261.5t-268.5 -78.5zM443 170q67 0 97.5 28t31.5 90q4 124 6 253.5
t2 260.5t-2 259.5t-6 250.5q-1 62 -32 90.5t-97 28.5q-65 0 -96.5 -28.5t-33.5 -90.5q-4 -121 -6 -249.5t-2 -259.5t2 -260.5t6 -254.5q2 -62 33.5 -90t96.5 -28zM624 1480q-8 0 -18.5 0.5t-25.5 3.5v115h27h17q60 1 84.5 33.5t28.5 111.5q1 19 1.5 53.5t0 69t-1.5 54.5h130
q1 -20 1.5 -54.5t0 -69t-1.5 -53.5q-8 -138 -66 -201t-177 -63z" />
    <glyph glyph-name="ohorn" unicode="&#x1a1;" horiz-adv-x="860" 
d="M431 -17q-125 0 -199.5 34t-109 108.5t-41.5 196.5q-1 54 -2.5 125.5t-1.5 149.5t1 151.5t3 130.5q7 121 41.5 195.5t109 108.5t199.5 34q126 0 199.5 -34.5t107.5 -109t40 -194.5q3 -55 4 -127t1 -149.5t-1 -150t-4 -130.5q-6 -121 -40 -195.5t-107.5 -109t-199.5 -34.5
zM431 155q64 0 91.5 27.5t28.5 85.5q3 86 4.5 169t1.5 164.5t-1.5 163.5t-4.5 168q-1 58 -28 85t-92 27q-64 0 -92.5 -27t-30.5 -85q-2 -83 -3.5 -165t-1.5 -165t1.5 -166.5t3.5 -168.5q2 -59 30.5 -86t92.5 -27zM615 1081q-8 0 -18.5 0.5t-25.5 3.5v115h27h17
q60 1 84.5 33.5t28.5 111.5q1 19 1.5 53.5t0 69t-1.5 54.5h130q1 -20 1.5 -54.5t0 -69t-1.5 -53.5q-8 -138 -66 -201t-177 -63z" />
    <glyph glyph-name="Uhorn" unicode="&#x1af;" horiz-adv-x="871" 
d="M436 -17q-189 0 -270.5 78.5t-84.5 259.5q-4 319 -4 640t4 639h227q-3 -212 -4 -435t0 -445.5t3 -435.5q0 -57 32.5 -85.5t96.5 -28.5q65 0 96.5 28.5t31.5 85.5q2 213 3 435.5t0.5 445.5t-3.5 435h226q5 -318 5 -639t-5 -640q-2 -181 -83.5 -259.5t-270.5 -78.5z
M667 1481q-8 0 -18.5 0.5t-25.5 3.5v115h27h17q60 1 84.5 33.5t28.5 111.5q1 19 1.5 53.5t0 69t-1.5 54.5h130q1 -20 1.5 -54.5t0 -69t-1.5 -53.5q-8 -138 -66 -201t-177 -63z" />
    <glyph glyph-name="uhorn" unicode="&#x1b0;" horiz-adv-x="895" 
d="M329 -17q-112 0 -176.5 68.5t-64.5 225.5v923h227v-942q0 -56 24 -81.5t75 -25.5q47 0 92.5 27t64.5 74v948h228v-1200h-228v120h-33q-39 -72 -89.5 -104.5t-119.5 -32.5zM685 1080q-8 0 -18.5 0.5t-25.5 3.5v115h27h17q60 1 84.5 33.5t28.5 111.5q1 19 1.5 53.5t0 69
t-1.5 54.5h130q1 -20 1.5 -54.5t0 -69t-1.5 -53.5q-8 -138 -66 -201t-177 -63z" />
    <glyph glyph-name="uni01C4" unicode="&#x1c4;" horiz-adv-x="1603" 
d="M95 0v1600h344q188 0 271.5 -80.5t86.5 -264.5q3 -162 4 -308.5t0 -292t-4 -308.5q-3 -185 -86.5 -265.5t-270.5 -80.5h-345zM322 201h118q66 0 98 30t33 90q3 122 4 241.5t1 238.5t-1 238.5t-4 241.5q-1 59 -33.5 88.5t-98.5 29.5h-117v-1198zM902 0v188l424 1211h-401
v201h643v-192l-438 -1207h406v-201h-634zM1172 1681l-152 256h137l76 -141l76 141h137l-152 -256h-122z" />
    <glyph glyph-name="uni01C5" unicode="&#x1c5;" horiz-adv-x="1588" 
d="M95 0v1600h344q188 0 271.5 -80.5t86.5 -264.5q3 -162 4 -308.5t0 -292t-4 -308.5q-3 -185 -86.5 -265.5t-270.5 -80.5h-345zM322 201h118q66 0 98 30t33 90q3 122 4 241.5t1 238.5t-1 238.5t-4 241.5q-1 59 -33.5 88.5t-98.5 29.5h-117v-1198zM922 0v145l386 886
l-378 -1v169l621 1v-149l-391 -882h384v-169h-622zM1175 1281l-152 256h137l76 -141l76 141h137l-152 -256h-122z" />
    <glyph glyph-name="uni01C6" unicode="&#x1c6;" horiz-adv-x="1592" 
d="M318 -17q-113 0 -171.5 68.5t-65.5 225.5q-2 64 -3 147.5t-1 173t1 174t3 151.5q7 159 67.5 226.5t173.5 67.5q84 0 127.5 -34.5t80.5 -102.5h34v520h228v-1600h-228v120h-35q-37 -66 -81.5 -101.5t-129.5 -35.5zM407 151q49 0 93.5 26t63.5 75v696q-19 50 -63.5 75.5
t-92.5 25.5q-51 0 -74 -25.5t-26 -80.5q-4 -110 -5.5 -231.5t0 -238.5t5.5 -214q3 -57 26 -82.5t73 -25.5zM927 0v145l386 886l-378 -1v169l621 1v-149l-391 -882h384v-169h-622zM1179 1281l-152 256h137l76 -141l76 141h137l-152 -256h-122z" />
    <glyph glyph-name="uni01C7" unicode="&#x1c7;" horiz-adv-x="1520" 
d="M95 0v1600h227v-1399h364v-201h-591zM1096 -17q-123 0 -196 34.5t-106.5 109.5t-36.5 196q-1 65 -1 134t1 133h214q-1 -44 -1.5 -98t0 -107.5t1.5 -98.5q2 -59 31 -87.5t94 -28.5t92.5 28.5t27.5 87.5v1314h226v-1277q0 -182 -78.5 -261t-267.5 -79z" />
    <glyph glyph-name="uni01C8" unicode="&#x1c8;" horiz-adv-x="1131" 
d="M95 0v1600h227v-1399h364v-201h-591zM792 1404v196h260v-196h-260zM691 -419q-31 0 -68.5 4t-68.5 9v170q26 -2 66 -3.5t70 -1.5q60 0 89 27t29 83v1331h227v-1312q0 -164 -83.5 -235.5t-260.5 -71.5z" />
    <glyph glyph-name="uni01C9" unicode="&#x1c9;" horiz-adv-x="838" 
d="M96 0v1600h226v-1600h-226zM499 1404v196h260v-196h-260zM398 -419q-31 0 -68.5 4t-68.5 9v170q26 -2 66 -3.5t70 -1.5q60 0 89 27t29 83v1331h227v-1312q0 -164 -83.5 -235.5t-260.5 -71.5z" />
    <glyph glyph-name="uni01CA" unicode="&#x1ca;" horiz-adv-x="1801" 
d="M95 0v1600h355l106 -508l122 -891h56l-41 767l-17 632h222v-1600h-371l-111 547l-96 853h-60l38 -793l18 -607h-221zM1378 -17q-123 0 -196 34.5t-106.5 109.5t-36.5 196q-1 65 -1 134t1 133h214q-1 -44 -1.5 -98t0 -107.5t1.5 -98.5q2 -59 31 -87.5t94 -28.5t92.5 28.5
t27.5 87.5v1314h226v-1277q0 -182 -78.5 -261t-267.5 -79z" />
    <glyph glyph-name="uni01CB" unicode="&#x1cb;" horiz-adv-x="1413" 
d="M95 0v1600h355l106 -508l122 -891h56l-41 767l-17 632h222v-1600h-371l-111 547l-96 853h-60l38 -793l18 -607h-221zM1074 1404v196h260v-196h-260zM973 -419q-31 0 -68.5 4t-68.5 9v170q26 -2 66 -3.5t70 -1.5q60 0 89 27t29 83v1331h227v-1312q0 -164 -83.5 -235.5
t-260.5 -71.5z" />
    <glyph glyph-name="uni01CC" unicode="&#x1cc;" horiz-adv-x="1321" 
d="M96 0v1200h227v-120h42q37 66 81.5 101.5t127.5 35.5q113 0 174 -68t62 -226v-923h-227v942q-1 56 -26 81.5t-77 25.5q-46 0 -92 -27t-65 -74v-948h-227zM982 1404v196h260v-196h-260zM881 -419q-31 0 -68.5 4t-68.5 9v170q26 -2 66 -3.5t70 -1.5q60 0 89 27t29 83v1331
h227v-1312q0 -164 -83.5 -235.5t-260.5 -71.5z" />
    <glyph glyph-name="uni01CD" unicode="&#x1cd;" horiz-adv-x="846" 
d="M33 0l199 1600h382l199 -1600h-232l-38 392h-240l-37 -392h-233zM324 593h198l-34 351l-33 455h-63l-33 -456zM362 1681l-152 256h137l76 -141l76 141h137l-152 -256h-122z" />
    <glyph glyph-name="uni01CE" unicode="&#x1ce;" 
d="M310 -14q-119 0 -176 61t-69 200q-1 21 -1 47t1 46q6 77 32.5 134t82.5 102t151 86q50 22 99 39.5t103 34.5v197q0 57 -23.5 84.5t-86.5 27.5q-53 0 -77.5 -23t-27.5 -81q-1 -18 -1.5 -53t0 -70.5t1.5 -56.5h-221q-1 25 -2 71.5t0 83.5q5 105 38 171.5t104.5 98
t192.5 31.5q125 0 196.5 -34.5t101 -108t29.5 -192.5l-1 -882h-226v120h-32q-30 -67 -71.5 -100.5t-116.5 -33.5zM398 151q46 0 80 25.5t53 70.5v332q-36 -10 -72 -24.5t-73 -36.5q-56 -32 -75 -76.5t-22 -101.5v-38.5t1 -37.5q5 -55 32.5 -84t75.5 -29zM365 1281l-152 256
h137l76 -141l76 141h137l-152 -256h-122z" />
    <glyph glyph-name="uni01CF" unicode="&#x1cf;" horiz-adv-x="417" 
d="M95 0v1600h227v-1600h-227zM147 1681l-152 256h137l76 -141l76 141h137l-152 -256h-122z" />
    <glyph glyph-name="uni01D0" unicode="&#x1d0;" horiz-adv-x="418" 
d="M96 0v1200h226v-1200h-226zM148 1281l-152 256h137l76 -141l76 141h137l-152 -256h-122z" />
    <glyph glyph-name="uni01D1" unicode="&#x1d1;" horiz-adv-x="886" 
d="M443 -17q-187 0 -270 78.5t-86 261.5q-3 120 -4 239.5t-1 238.5t1 238t4 239q3 182 86 260.5t270 78.5t268.5 -78.5t86.5 -260.5q4 -121 5.5 -240.5t1.5 -238t-1.5 -237.5t-5.5 -239q-5 -183 -86.5 -261.5t-268.5 -78.5zM443 170q67 0 97.5 28t31.5 90q4 124 6 253.5
t2 260.5t-2 259.5t-6 250.5q-1 62 -32 90.5t-97 28.5q-65 0 -96.5 -28.5t-33.5 -90.5q-4 -121 -6 -249.5t-2 -259.5t2 -260.5t6 -254.5q2 -62 33.5 -90t96.5 -28zM383 1681l-152 256h137l76 -141l76 141h137l-152 -256h-122z" />
    <glyph glyph-name="uni01D2" unicode="&#x1d2;" horiz-adv-x="860" 
d="M431 -17q-125 0 -199.5 34t-109 108.5t-41.5 196.5q-1 54 -2.5 125.5t-1.5 149.5t1 151.5t3 130.5q7 121 41.5 195.5t109 108.5t199.5 34q126 0 199.5 -34.5t107.5 -109t40 -194.5q3 -55 4 -127t1 -149.5t-1 -150t-4 -130.5q-6 -121 -40 -195.5t-107.5 -109t-199.5 -34.5
zM431 155q64 0 91.5 27.5t28.5 85.5q3 86 4.5 169t1.5 164.5t-1.5 163.5t-4.5 168q-1 58 -28 85t-92 27q-64 0 -92.5 -27t-30.5 -85q-2 -83 -3.5 -165t-1.5 -165t1.5 -166.5t3.5 -168.5q2 -59 30.5 -86t92.5 -27zM369 1281l-152 256h137l76 -141l76 141h137l-152 -256h-122z
" />
    <glyph glyph-name="uni01D3" unicode="&#x1d3;" horiz-adv-x="871" 
d="M436 -17q-189 0 -270.5 78.5t-84.5 259.5q-4 319 -4 640t4 639h227q-3 -212 -4 -435t0 -445.5t3 -435.5q0 -57 32.5 -85.5t96.5 -28.5q65 0 96.5 28.5t31.5 85.5q2 213 3 435.5t0.5 445.5t-3.5 435h226q5 -318 5 -639t-5 -640q-2 -181 -83.5 -259.5t-270.5 -78.5z
M374 1681l-152 256h137l76 -141l76 141h137l-152 -256h-122z" />
    <glyph glyph-name="uni01D4" unicode="&#x1d4;" horiz-adv-x="895" 
d="M329 -17q-112 0 -176.5 68.5t-64.5 225.5v923h227v-942q0 -56 24 -81.5t75 -25.5q47 0 92.5 27t64.5 74v948h228v-1200h-228v120h-33q-39 -72 -89.5 -104.5t-119.5 -32.5zM379 1281l-152 256h137l76 -141l76 141h137l-152 -256h-122z" />
    <glyph glyph-name="uni01D5" unicode="&#x1d5;" horiz-adv-x="871" 
d="M436 -17q-189 0 -270.5 78.5t-84.5 259.5q-4 319 -4 640t4 639h227q-3 -212 -4 -435t0 -445.5t3 -435.5q0 -57 32.5 -85.5t96.5 -28.5q65 0 96.5 28.5t31.5 85.5q2 213 3 435.5t0.5 445.5t-3.5 435h226q5 -318 5 -639t-5 -640q-2 -181 -83.5 -259.5t-270.5 -78.5z
M484 1710v160h161v-160h-161zM228 1710v160h160v-160h-160zM148 2022h576v-109h-576v109z" />
    <glyph glyph-name="uni01D6" unicode="&#x1d6;" horiz-adv-x="895" 
d="M329 -17q-112 0 -176.5 68.5t-64.5 225.5v923h227v-942q0 -56 24 -81.5t75 -25.5q47 0 92.5 27t64.5 74v948h228v-1200h-228v120h-33q-39 -72 -89.5 -104.5t-119.5 -32.5zM488 1310v160h161v-160h-161zM232 1310v160h160v-160h-160zM152 1622h576v-109h-576v109z" />
    <glyph glyph-name="uni01D7" unicode="&#x1d7;" horiz-adv-x="871" 
d="M436 -17q-189 0 -270.5 78.5t-84.5 259.5q-4 319 -4 640t4 639h227q-3 -212 -4 -435t0 -445.5t3 -435.5q0 -57 32.5 -85.5t96.5 -28.5q65 0 96.5 28.5t31.5 85.5q2 213 3 435.5t0.5 445.5t-3.5 435h226q5 -318 5 -639t-5 -640q-2 -181 -83.5 -259.5t-270.5 -78.5z
M484 1710v160h161v-160h-161zM228 1710v160h160v-160h-160zM369 1921l172 255h155l-179 -255h-148z" />
    <glyph glyph-name="uni01D8" unicode="&#x1d8;" horiz-adv-x="895" 
d="M329 -17q-112 0 -176.5 68.5t-64.5 225.5v923h227v-942q0 -56 24 -81.5t75 -25.5q47 0 92.5 27t64.5 74v948h228v-1200h-228v120h-33q-39 -72 -89.5 -104.5t-119.5 -32.5zM488 1310v160h161v-160h-161zM232 1310v160h160v-160h-160zM373 1521l172 255h155l-179 -255h-148
z" />
    <glyph glyph-name="uni01D9" unicode="&#x1d9;" horiz-adv-x="871" 
d="M436 -17q-189 0 -270.5 78.5t-84.5 259.5q-4 319 -4 640t4 639h227q-3 -212 -4 -435t0 -445.5t3 -435.5q0 -57 32.5 -85.5t96.5 -28.5q65 0 96.5 28.5t31.5 85.5q2 213 3 435.5t0.5 445.5t-3.5 435h226q5 -318 5 -639t-5 -640q-2 -181 -83.5 -259.5t-270.5 -78.5z
M484 1710v160h161v-160h-161zM228 1710v160h160v-160h-160zM374 1922l-152 256h137l76 -141l76 141h137l-152 -256h-122z" />
    <glyph glyph-name="uni01DA" unicode="&#x1da;" horiz-adv-x="895" 
d="M329 -17q-112 0 -176.5 68.5t-64.5 225.5v923h227v-942q0 -56 24 -81.5t75 -25.5q47 0 92.5 27t64.5 74v948h228v-1200h-228v120h-33q-39 -72 -89.5 -104.5t-119.5 -32.5zM488 1310v160h161v-160h-161zM232 1310v160h160v-160h-160zM379 1522l-152 256h137l76 -141
l76 141h137l-152 -256h-122z" />
    <glyph glyph-name="uni01DB" unicode="&#x1db;" horiz-adv-x="871" 
d="M436 -17q-189 0 -270.5 78.5t-84.5 259.5q-4 319 -4 640t4 639h227q-3 -212 -4 -435t0 -445.5t3 -435.5q0 -57 32.5 -85.5t96.5 -28.5q65 0 96.5 28.5t31.5 85.5q2 213 3 435.5t0.5 445.5t-3.5 435h226q5 -318 5 -639t-5 -640q-2 -181 -83.5 -259.5t-270.5 -78.5z
M484 1710v160h161v-160h-161zM228 1710v160h160v-160h-160zM340 1921l-165 255h155l157 -255h-147z" />
    <glyph glyph-name="uni01DC" unicode="&#x1dc;" horiz-adv-x="895" 
d="M329 -17q-112 0 -176.5 68.5t-64.5 225.5v923h227v-942q0 -56 24 -81.5t75 -25.5q47 0 92.5 27t64.5 74v948h228v-1200h-228v120h-33q-39 -72 -89.5 -104.5t-119.5 -32.5zM488 1310v160h161v-160h-161zM232 1310v160h160v-160h-160zM345 1521l-165 255h155l157 -255h-147
z" />
    <glyph glyph-name="uni01DD" unicode="&#x1dd;" horiz-adv-x="825" 
d="M400 1217q178 0 257.5 -71t87.5 -235q2 -56 3.5 -137t1.5 -170.5t-1.5 -171.5t-3.5 -139q-10 -166 -89.5 -238t-252.5 -72q-171 0 -248.5 70.5t-85.5 230.5q-1 25 -1.5 83t0 130.5t3.5 142.5h450q0 73 -1 145.5t-3 148.5q-1 62 -28 86.5t-88 24.5q-57 0 -81.5 -24.5
t-27.5 -86.5q-1 -30 -1 -75t2 -102h-222q-2 26 -2.5 72.5t0.5 81.5q8 164 84 235t247 71zM521 479h-231q0 -47 0.5 -92t1 -79t0.5 -48q4 -57 29.5 -81t81.5 -24q61 0 87 24.5t27 80.5q2 57 2.5 111.5t1.5 107.5z" />
    <glyph glyph-name="Gcaron" unicode="&#x1e6;" horiz-adv-x="874" 
d="M444 -17q-127 0 -204 34.5t-113 109.5t-39 196q-3 108 -4.5 228.5t-1.5 244.5t1.5 244t4.5 226q4 127 40.5 204.5t113.5 112t201 34.5q179 0 260.5 -78.5t91.5 -260.5q3 -60 3 -128t-3 -129h-227q3 68 3 147t-3 147q-3 59 -33 87.5t-92 28.5q-64 0 -95 -28.5t-34 -87.5
q-5 -123 -7 -253t-2 -261.5t2 -261t7 -253.5q3 -59 33.5 -87.5t96.5 -28.5t99.5 28.5t37.5 87.5q2 37 2.5 81t0 87.5t-2.5 80.5h-123v198h344q4 -88 3 -194t-5 -216q-7 -182 -90 -261t-266 -79zM375 1681l-152 256h137l76 -141l76 141h137l-152 -256h-122z" />
    <glyph glyph-name="gcaron" unicode="&#x1e7;" horiz-adv-x="892" 
d="M414 -369q-157 0 -241 44.5t-98 132.5q-2 11 -4 28t0 33q5 51 40 86t90 42v35q-51 11 -80 39t-35 72q-1 12 -1 24.5t1 26.5q5 43 40.5 70t89.5 34v36q-72 33 -107 99.5t-42 174.5q-2 44 -3 81t-1 71.5t1 70.5t3 76q6 109 41.5 177.5t109.5 100.5t196 32
q119 0 189.5 -30.5t107.5 -97.5h35q7 58 41.5 84.5t102.5 26.5v-173h-31q-46 0 -72.5 -27t-26.5 -91l-1 -76v-52.5t0.5 -53.5t0 -56.5t-2.5 -62.5q-7 -112 -42.5 -180.5t-108.5 -99t-193 -30.5q-87 0 -122 -15.5t-35 -49.5v-9q0 -22 11 -35.5t44 -19.5t101 -8
q183 -3 270.5 -57.5t103.5 -168.5q2 -17 2.5 -35.5t-2.5 -41.5q-8 -81 -52.5 -131t-124.5 -73t-195 -23zM420 -210q54 0 92 8.5t60 27t28 48.5q4 14 3.5 27t-4.5 26q-6 30 -28 47t-59.5 24t-90.5 8q-78 2 -118.5 -16t-49.5 -63q-3 -14 -3 -27.5t3 -26.5q5 -30 25.5 -48.5
t56 -26.5t85.5 -8zM412 470q67 0 93 27t29 81q2 34 3.5 80t1.5 96.5t-1.5 97.5t-3.5 84q-3 57 -30 83t-92 26q-64 0 -92.5 -26t-30.5 -86q-2 -48 -3 -96t-1 -93t1 -86t3 -75q3 -54 28.5 -83.5t94.5 -29.5zM353 1281l-152 256h137l76 -141l76 141h137l-152 -256h-122z" />
    <glyph glyph-name="uni01EA" unicode="&#x1ea;" horiz-adv-x="886" 
d="M443 -17q-187 0 -270 78.5t-86 261.5q-3 120 -4 239.5t-1 238.5t1 238t4 239q3 182 86 260.5t270 78.5t268.5 -78.5t86.5 -260.5q4 -121 5.5 -240.5t1.5 -238t-1.5 -237.5t-5.5 -239q-5 -183 -86.5 -261.5t-268.5 -78.5zM443 170q67 0 97.5 28t31.5 90q4 124 6 253.5
t2 260.5t-2 259.5t-6 250.5q-1 62 -32 90.5t-97 28.5q-65 0 -96.5 -28.5t-33.5 -90.5q-4 -121 -6 -249.5t-2 -259.5t2 -260.5t6 -254.5q2 -62 33.5 -90t96.5 -28zM764 -290h-61q-124 0 -176.5 50t-36.5 161l16 95h122l-16 -95q-8 -53 14 -76t78 -23h60v-112z" />
    <glyph glyph-name="uni01EB" unicode="&#x1eb;" horiz-adv-x="860" 
d="M431 -17q-125 0 -199.5 34t-109 108.5t-41.5 196.5q-1 54 -2.5 125.5t-1.5 149.5t1 151.5t3 130.5q7 121 41.5 195.5t109 108.5t199.5 34q126 0 199.5 -34.5t107.5 -109t40 -194.5q3 -55 4 -127t1 -149.5t-1 -150t-4 -130.5q-6 -121 -40 -195.5t-107.5 -109t-199.5 -34.5
zM431 155q64 0 91.5 27.5t28.5 85.5q3 86 4.5 169t1.5 164.5t-1.5 163.5t-4.5 168q-1 58 -28 85t-92 27q-64 0 -92.5 -27t-30.5 -85q-2 -83 -3.5 -165t-1.5 -165t1.5 -166.5t3.5 -168.5q2 -59 30.5 -86t92.5 -27zM759 -288h-61q-124 0 -176.5 50t-36.5 161l16 95h122
l-16 -95q-8 -53 14 -76t78 -23h60v-112z" />
    <glyph glyph-name="Aringacute" unicode="&#x1fa;" horiz-adv-x="846" 
d="M33 0l199 1600h382l199 -1600h-232l-38 392h-240l-37 -392h-233zM324 593h198l-34 351l-33 455h-63l-33 -456zM423 1672q-74 0 -127.5 53t-53.5 128t53.5 128t127.5 53q75 0 128.5 -53t53.5 -128t-53.5 -128t-128.5 -53zM423 1793q26 0 43 17.5t17 42.5t-17 42t-43 17
q-24 0 -41.5 -17t-17.5 -42t17.5 -42.5t41.5 -17.5zM356 2114l172 255h155l-179 -255h-148z" />
    <glyph glyph-name="aringacute" unicode="&#x1fb;" 
d="M310 -14q-119 0 -176 61t-69 200q-1 21 -1 47t1 46q6 77 32.5 134t82.5 102t151 86q50 22 99 39.5t103 34.5v197q0 57 -23.5 84.5t-86.5 27.5q-53 0 -77.5 -23t-27.5 -81q-1 -18 -1.5 -53t0 -70.5t1.5 -56.5h-221q-1 25 -2 71.5t0 83.5q5 105 38 171.5t104.5 98
t192.5 31.5q125 0 196.5 -34.5t101 -108t29.5 -192.5l-1 -882h-226v120h-32q-30 -67 -71.5 -100.5t-116.5 -33.5zM398 151q46 0 80 25.5t53 70.5v332q-36 -10 -72 -24.5t-73 -36.5q-56 -32 -75 -76.5t-22 -101.5v-38.5t1 -37.5q5 -55 32.5 -84t75.5 -29zM427 1272
q-74 0 -127.5 53t-53.5 128t53.5 128t127.5 53q75 0 128.5 -53t53.5 -128t-53.5 -128t-128.5 -53zM427 1393q26 0 43 17.5t17 42.5t-17 42t-43 17q-24 0 -41.5 -17t-17.5 -42t17.5 -42.5t41.5 -17.5zM360 1714l172 255h155l-179 -255h-148z" />
    <glyph glyph-name="AEacute" unicode="&#x1fc;" horiz-adv-x="1207" 
d="M33 0l303 1600h824v-201h-368v-488h348v-201h-348v-509h368v-201h-595v391h-212l-73 -391h-247zM395 592h170v807h-56l-57 -513zM635 1680l172 255h155l-179 -255h-148z" />
    <glyph glyph-name="aeacute" unicode="&#x1fd;" horiz-adv-x="1271" 
d="M307 -14q-107 0 -169.5 60.5t-72.5 199.5q-1 23 -1 48t1 46q8 110 71.5 179.5t192.5 123.5q49 22 98 40.5t100 34.5v72v71.5v72.5q0 35 -8 60t-31.5 38t-66.5 13q-54 0 -77 -23.5t-26 -80.5q-1 -19 -1.5 -53t0 -69t1.5 -58h-221q-1 16 -2 44t-1 58.5t1 53.5
q4 105 37.5 171.5t104.5 97.5t190 31q75 0 129 -12t90 -39q41 27 96.5 39t127.5 12q170 0 247.5 -70t84.5 -231q1 -19 1.5 -56.5t0.5 -86.5t-1 -102t-3 -104h-448v-149.5v-151.5q0 -62 30 -86.5t90 -24.5q57 0 80.5 25.5t26.5 85.5q2 33 2 76.5t-2 100.5h221q2 -25 3 -71.5
t-1 -82.5q-8 -163 -83.5 -234.5t-245.5 -71.5q-120 0 -196 33t-112 104h-19q-31 -69 -94.5 -101.5t-144.5 -32.5zM397 151q29 0 59.5 14t51.5 56.5t21 127.5q0 47 -1 101t-1 110q-31 -10 -68 -25t-74 -37q-51 -29 -71.5 -66.5t-24.5 -91.5q-1 -18 -1 -37.5t2 -39.5
q5 -54 31.5 -83t75.5 -29zM752 728h228q1 60 0.5 120.5t-1.5 92.5q-1 56 -27 80t-82 24q-59 0 -88.5 -24t-29.5 -80v-108.5v-104.5zM584 1280l172 255h155l-179 -255h-148z" />
    <glyph glyph-name="Oslashacute" unicode="&#x1fe;" horiz-adv-x="886" 
d="M443 -17q-187 0 -270 78.5t-86 261.5q-3 120 -4 239.5t-1 238.5t1 238t4 239q3 182 86 260.5t270 78.5t268.5 -78.5t86.5 -260.5q4 -121 5.5 -240.5t1.5 -238t-1.5 -237.5t-5.5 -239q-5 -183 -86.5 -261.5t-268.5 -78.5zM443 170q67 0 97.5 28t31.5 90q3 94 5 187.5
t2 187.5v191l-270 -402q1 -40 2 -81t2 -83q2 -62 33.5 -90t96.5 -28zM305 709l272 399q-1 51 -2.5 102t-2.5 102q-1 62 -32 90.5t-97 28.5q-65 0 -96.5 -28.5t-33.5 -90.5q-3 -97 -5 -196.5t-3 -201t0 -205.5zM377 1680l172 255h155l-179 -255h-148z" />
    <glyph glyph-name="oslashacute" unicode="&#x1ff;" horiz-adv-x="860" 
d="M138 353l532 588l75 -93l-542 -595zM431 -17q-125 0 -199.5 34t-109 108.5t-41.5 196.5q-1 54 -2.5 125.5t-1.5 149.5t1 151.5t3 130.5q7 121 41.5 195.5t109 108.5t199.5 34q126 0 199.5 -34.5t107.5 -109t40 -194.5q3 -55 4 -127t1 -149.5t-1 -150t-4 -130.5
q-6 -121 -40 -195.5t-107.5 -109t-199.5 -34.5zM431 155q64 0 91.5 27.5t28.5 85.5q3 86 4.5 169t1.5 164.5t-1.5 163.5t-4.5 168q-1 58 -28 85t-92 27q-64 0 -92.5 -27t-30.5 -85q-2 -83 -3.5 -165t-1.5 -165t1.5 -166.5t3.5 -168.5q2 -59 30.5 -86t92.5 -27zM363 1280
l172 255h155l-179 -255h-148z" />
    <glyph glyph-name="uni0200" unicode="&#x200;" horiz-adv-x="846" 
d="M33 0l199 1600h382l199 -1600h-232l-38 392h-240l-37 -392h-233zM324 593h198l-34 351l-33 455h-63l-33 -456zM463 1680l-171 255h154l170 -255h-153zM213 1680l-171 255h153l171 -255h-153z" />
    <glyph glyph-name="uni0201" unicode="&#x201;" 
d="M310 -14q-119 0 -176 61t-69 200q-1 21 -1 47t1 46q6 77 32.5 134t82.5 102t151 86q50 22 99 39.5t103 34.5v197q0 57 -23.5 84.5t-86.5 27.5q-53 0 -77.5 -23t-27.5 -81q-1 -18 -1.5 -53t0 -70.5t1.5 -56.5h-221q-1 25 -2 71.5t0 83.5q5 105 38 171.5t104.5 98
t192.5 31.5q125 0 196.5 -34.5t101 -108t29.5 -192.5l-1 -882h-226v120h-32q-30 -67 -71.5 -100.5t-116.5 -33.5zM398 151q46 0 80 25.5t53 70.5v332q-36 -10 -72 -24.5t-73 -36.5q-56 -32 -75 -76.5t-22 -101.5v-38.5t1 -37.5q5 -55 32.5 -84t75.5 -29zM467 1280l-171 255
h154l170 -255h-153zM217 1280l-171 255h153l171 -255h-153z" />
    <glyph glyph-name="uni0202" unicode="&#x202;" horiz-adv-x="846" 
d="M33 0l199 1600h382l199 -1600h-232l-38 392h-240l-37 -392h-233zM324 593h198l-34 351l-33 455h-63l-33 -456zM423 1934q135 0 197 -60.5t69 -199.5h-139q0 76 -29.5 109t-97.5 33t-97 -33t-30 -109h-139q7 139 69 199.5t197 60.5z" />
    <glyph glyph-name="uni0203" unicode="&#x203;" 
d="M310 -14q-119 0 -176 61t-69 200q-1 21 -1 47t1 46q6 77 32.5 134t82.5 102t151 86q50 22 99 39.5t103 34.5v197q0 57 -23.5 84.5t-86.5 27.5q-53 0 -77.5 -23t-27.5 -81q-1 -18 -1.5 -53t0 -70.5t1.5 -56.5h-221q-1 25 -2 71.5t0 83.5q5 105 38 171.5t104.5 98
t192.5 31.5q125 0 196.5 -34.5t101 -108t29.5 -192.5l-1 -882h-226v120h-32q-30 -67 -71.5 -100.5t-116.5 -33.5zM398 151q46 0 80 25.5t53 70.5v332q-36 -10 -72 -24.5t-73 -36.5q-56 -32 -75 -76.5t-22 -101.5v-38.5t1 -37.5q5 -55 32.5 -84t75.5 -29zM427 1534
q135 0 197 -60.5t69 -199.5h-139q0 76 -29.5 109t-97.5 33t-97 -33t-30 -109h-139q7 139 69 199.5t197 60.5z" />
    <glyph glyph-name="uni0204" unicode="&#x204;" horiz-adv-x="737" 
d="M95 0v1600h595v-201h-368v-488h348v-201h-348v-509h368v-201h-595zM420 1680l-171 255h154l170 -255h-153zM170 1680l-171 255h153l171 -255h-153z" />
    <glyph glyph-name="uni0205" unicode="&#x205;" horiz-adv-x="825" 
d="M426 -17q-178 0 -257 71.5t-88 234.5q-2 56 -3 137t-1 170.5t1 172t3 138.5q10 167 89.5 238.5t252.5 71.5q171 0 248.5 -70t84.5 -231q1 -25 2 -83t0.5 -130.5t-4.5 -142.5h-450q0 -72 1.5 -145t3.5 -149q2 -62 28.5 -86.5t87.5 -24.5q56 0 80.5 24.5t27.5 86.5
q2 30 2 75.5t-2 101.5h221q3 -26 3.5 -72t-1.5 -82q-7 -163 -83 -234.5t-247 -71.5zM305 721h230v92t-0.5 79t-1.5 48q-3 57 -28.5 81t-81.5 24q-61 0 -86.5 -24.5t-27.5 -80.5q-1 -57 -2 -111.5t-2 -107.5zM459 1280l-171 255h154l170 -255h-153zM209 1280l-171 255h153
l171 -255h-153z" />
    <glyph glyph-name="uni0206" unicode="&#x206;" horiz-adv-x="737" 
d="M95 0v1600h595v-201h-368v-488h348v-201h-348v-509h368v-201h-595zM380 1934q135 0 197 -60.5t69 -199.5h-139q0 76 -29.5 109t-97.5 33t-97 -33t-30 -109h-139q7 139 69 199.5t197 60.5z" />
    <glyph glyph-name="uni0207" unicode="&#x207;" horiz-adv-x="825" 
d="M426 -17q-178 0 -257 71.5t-88 234.5q-2 56 -3 137t-1 170.5t1 172t3 138.5q10 167 89.5 238.5t252.5 71.5q171 0 248.5 -70t84.5 -231q1 -25 2 -83t0.5 -130.5t-4.5 -142.5h-450q0 -72 1.5 -145t3.5 -149q2 -62 28.5 -86.5t87.5 -24.5q56 0 80.5 24.5t27.5 86.5
q2 30 2 75.5t-2 101.5h221q3 -26 3.5 -72t-1.5 -82q-7 -163 -83 -234.5t-247 -71.5zM305 721h230v92t-0.5 79t-1.5 48q-3 57 -28.5 81t-81.5 24q-61 0 -86.5 -24.5t-27.5 -80.5q-1 -57 -2 -111.5t-2 -107.5zM419 1534q135 0 197 -60.5t69 -199.5h-139q0 76 -29.5 109
t-97.5 33t-97 -33t-30 -109h-139q7 139 69 199.5t197 60.5z" />
    <glyph glyph-name="uni0208" unicode="&#x208;" horiz-adv-x="417" 
d="M95 0v1600h227v-1600h-227zM248 1680l-171 255h154l170 -255h-153zM-2 1680l-171 255h153l171 -255h-153z" />
    <glyph glyph-name="uni0209" unicode="&#x209;" horiz-adv-x="418" 
d="M96 0v1200h226v-1200h-226zM249 1280l-171 255h154l170 -255h-153zM-1 1280l-171 255h153l171 -255h-153z" />
    <glyph glyph-name="uni020A" unicode="&#x20a;" horiz-adv-x="417" 
d="M95 0v1600h227v-1600h-227zM208 1934q135 0 197 -60.5t69 -199.5h-139q0 76 -29.5 109t-97.5 33t-97 -33t-30 -109h-139q7 139 69 199.5t197 60.5z" />
    <glyph glyph-name="uni020B" unicode="&#x20b;" horiz-adv-x="418" 
d="M96 0v1200h226v-1200h-226zM209 1534q135 0 197 -60.5t69 -199.5h-139q0 76 -29.5 109t-97.5 33t-97 -33t-30 -109h-139q7 139 69 199.5t197 60.5z" />
    <glyph glyph-name="uni020C" unicode="&#x20c;" horiz-adv-x="886" 
d="M443 -17q-187 0 -270 78.5t-86 261.5q-3 120 -4 239.5t-1 238.5t1 238t4 239q3 182 86 260.5t270 78.5t268.5 -78.5t86.5 -260.5q4 -121 5.5 -240.5t1.5 -238t-1.5 -237.5t-5.5 -239q-5 -183 -86.5 -261.5t-268.5 -78.5zM443 170q67 0 97.5 28t31.5 90q4 124 6 253.5
t2 260.5t-2 259.5t-6 250.5q-1 62 -32 90.5t-97 28.5q-65 0 -96.5 -28.5t-33.5 -90.5q-4 -121 -6 -249.5t-2 -259.5t2 -260.5t6 -254.5q2 -62 33.5 -90t96.5 -28zM484 1680l-171 255h154l170 -255h-153zM234 1680l-171 255h153l171 -255h-153z" />
    <glyph glyph-name="uni020D" unicode="&#x20d;" horiz-adv-x="860" 
d="M431 -17q-125 0 -199.5 34t-109 108.5t-41.5 196.5q-1 54 -2.5 125.5t-1.5 149.5t1 151.5t3 130.5q7 121 41.5 195.5t109 108.5t199.5 34q126 0 199.5 -34.5t107.5 -109t40 -194.5q3 -55 4 -127t1 -149.5t-1 -150t-4 -130.5q-6 -121 -40 -195.5t-107.5 -109t-199.5 -34.5
zM431 155q64 0 91.5 27.5t28.5 85.5q3 86 4.5 169t1.5 164.5t-1.5 163.5t-4.5 168q-1 58 -28 85t-92 27q-64 0 -92.5 -27t-30.5 -85q-2 -83 -3.5 -165t-1.5 -165t1.5 -166.5t3.5 -168.5q2 -59 30.5 -86t92.5 -27zM470 1280l-171 255h154l170 -255h-153zM220 1280l-171 255
h153l171 -255h-153z" />
    <glyph glyph-name="uni020E" unicode="&#x20e;" horiz-adv-x="886" 
d="M443 -17q-187 0 -270 78.5t-86 261.5q-3 120 -4 239.5t-1 238.5t1 238t4 239q3 182 86 260.5t270 78.5t268.5 -78.5t86.5 -260.5q4 -121 5.5 -240.5t1.5 -238t-1.5 -237.5t-5.5 -239q-5 -183 -86.5 -261.5t-268.5 -78.5zM443 170q67 0 97.5 28t31.5 90q4 124 6 253.5
t2 260.5t-2 259.5t-6 250.5q-1 62 -32 90.5t-97 28.5q-65 0 -96.5 -28.5t-33.5 -90.5q-4 -121 -6 -249.5t-2 -259.5t2 -260.5t6 -254.5q2 -62 33.5 -90t96.5 -28zM444 1934q135 0 197 -60.5t69 -199.5h-139q0 76 -29.5 109t-97.5 33t-97 -33t-30 -109h-139q7 139 69 199.5
t197 60.5z" />
    <glyph glyph-name="uni020F" unicode="&#x20f;" horiz-adv-x="860" 
d="M431 -17q-125 0 -199.5 34t-109 108.5t-41.5 196.5q-1 54 -2.5 125.5t-1.5 149.5t1 151.5t3 130.5q7 121 41.5 195.5t109 108.5t199.5 34q126 0 199.5 -34.5t107.5 -109t40 -194.5q3 -55 4 -127t1 -149.5t-1 -150t-4 -130.5q-6 -121 -40 -195.5t-107.5 -109t-199.5 -34.5
zM431 155q64 0 91.5 27.5t28.5 85.5q3 86 4.5 169t1.5 164.5t-1.5 163.5t-4.5 168q-1 58 -28 85t-92 27q-64 0 -92.5 -27t-30.5 -85q-2 -83 -3.5 -165t-1.5 -165t1.5 -166.5t3.5 -168.5q2 -59 30.5 -86t92.5 -27zM430 1534q135 0 197 -60.5t69 -199.5h-139q0 76 -29.5 109
t-97.5 33t-97 -33t-30 -109h-139q7 139 69 199.5t197 60.5z" />
    <glyph glyph-name="uni0210" unicode="&#x210;" horiz-adv-x="854" 
d="M95 0v1600h329q185 0 268 -76.5t89 -254.5q3 -71 3.5 -130t0 -115.5t-3.5 -120.5q-4 -115 -39.5 -186.5t-110.5 -106.5l176 -610h-241l-149 572h-95v-572h-227zM322 773h101q66 0 97 30t34 88q3 64 4 129.5t0 131t-4 129.5q-3 59 -34 88.5t-96 29.5h-102v-626zM459 1680
l-171 255h154l170 -255h-153zM209 1680l-171 255h153l171 -255h-153z" />
    <glyph glyph-name="uni0211" unicode="&#x211;" horiz-adv-x="620" 
d="M96 0v1200h228v-134h41q13 79 54.5 109.5t108.5 30.5q22 0 43 -1.5t34 -2.5v-175h-75q-100 0 -146 -32.5t-60 -98.5v-896h-228zM382 1280l-171 255h154l170 -255h-153zM132 1280l-171 255h153l171 -255h-153z" />
    <glyph glyph-name="uni0212" unicode="&#x212;" horiz-adv-x="854" 
d="M95 0v1600h329q185 0 268 -76.5t89 -254.5q3 -71 3.5 -130t0 -115.5t-3.5 -120.5q-4 -115 -39.5 -186.5t-110.5 -106.5l176 -610h-241l-149 572h-95v-572h-227zM322 773h101q66 0 97 30t34 88q3 64 4 129.5t0 131t-4 129.5q-3 59 -34 88.5t-96 29.5h-102v-626zM419 1934
q135 0 197 -60.5t69 -199.5h-139q0 76 -29.5 109t-97.5 33t-97 -33t-30 -109h-139q7 139 69 199.5t197 60.5z" />
    <glyph glyph-name="uni0213" unicode="&#x213;" horiz-adv-x="620" 
d="M96 0v1200h228v-134h41q13 79 54.5 109.5t108.5 30.5q22 0 43 -1.5t34 -2.5v-175h-75q-100 0 -146 -32.5t-60 -98.5v-896h-228zM342 1534q135 0 197 -60.5t69 -199.5h-139q0 76 -29.5 109t-97.5 33t-97 -33t-30 -109h-139q7 139 69 199.5t197 60.5z" />
    <glyph glyph-name="uni0214" unicode="&#x214;" horiz-adv-x="871" 
d="M436 -17q-189 0 -270.5 78.5t-84.5 259.5q-4 319 -4 640t4 639h227q-3 -212 -4 -435t0 -445.5t3 -435.5q0 -57 32.5 -85.5t96.5 -28.5q65 0 96.5 28.5t31.5 85.5q2 213 3 435.5t0.5 445.5t-3.5 435h226q5 -318 5 -639t-5 -640q-2 -181 -83.5 -259.5t-270.5 -78.5z
M476 1680l-171 255h154l170 -255h-153zM226 1680l-171 255h153l171 -255h-153z" />
    <glyph glyph-name="uni0215" unicode="&#x215;" horiz-adv-x="895" 
d="M329 -17q-112 0 -176.5 68.5t-64.5 225.5v923h227v-942q0 -56 24 -81.5t75 -25.5q47 0 92.5 27t64.5 74v948h228v-1200h-228v120h-33q-39 -72 -89.5 -104.5t-119.5 -32.5zM481 1280l-171 255h154l170 -255h-153zM231 1280l-171 255h153l171 -255h-153z" />
    <glyph glyph-name="uni0216" unicode="&#x216;" horiz-adv-x="871" 
d="M436 -17q-189 0 -270.5 78.5t-84.5 259.5q-4 319 -4 640t4 639h227q-3 -212 -4 -435t0 -445.5t3 -435.5q0 -57 32.5 -85.5t96.5 -28.5q65 0 96.5 28.5t31.5 85.5q2 213 3 435.5t0.5 445.5t-3.5 435h226q5 -318 5 -639t-5 -640q-2 -181 -83.5 -259.5t-270.5 -78.5z
M436 1934q135 0 197 -60.5t69 -199.5h-139q0 76 -29.5 109t-97.5 33t-97 -33t-30 -109h-139q7 139 69 199.5t197 60.5z" />
    <glyph glyph-name="uni0217" unicode="&#x217;" horiz-adv-x="895" 
d="M329 -17q-112 0 -176.5 68.5t-64.5 225.5v923h227v-942q0 -56 24 -81.5t75 -25.5q47 0 92.5 27t64.5 74v948h228v-1200h-228v120h-33q-39 -72 -89.5 -104.5t-119.5 -32.5zM441 1534q135 0 197 -60.5t69 -199.5h-139q0 76 -29.5 109t-97.5 33t-97 -33t-30 -109h-139
q7 139 69 199.5t197 60.5z" />
    <glyph glyph-name="uni0218" unicode="&#x218;" horiz-adv-x="846" 
d="M425 -17q-186 0 -266 79t-88 261q-1 46 -1 90t1.5 88t5.5 89h214q-4 -80 -4.5 -158t4.5 -148q4 -58 36 -86t97 -28q64 0 93.5 28t34.5 86q4 43 5 81.5t-0.5 78.5t-4.5 85q-3 57 -25.5 98t-75.5 54l-140 35q-92 23 -144.5 68.5t-75 115t-25.5 167.5q-1 53 -1 106t1 106
q5 121 41 195.5t113.5 108.5t203.5 34q180 0 261 -78.5t88 -260.5q2 -49 1 -119t-4 -138h-218q3 75 3.5 149t-2.5 148q-1 57 -34 85t-95 28q-65 0 -95.5 -28t-35.5 -85q-5 -63 -5 -125.5t5 -125.5q4 -62 25.5 -100.5t75.5 -51.5l125 -29q98 -23 154 -70t80 -118t27 -169
q2 -39 2 -72t-1 -65.5t-2 -68.5q-7 -182 -88 -261t-266 -79zM343 -410l63 141h-92v189h232v-167l-85 -163h-118z" />
    <glyph glyph-name="uni0219" unicode="&#x219;" horiz-adv-x="783" 
d="M385 -17q-167 0 -238 71.5t-78 234.5q-1 37 -0.5 81t2.5 70h200q-2 -56 -1.5 -100t1.5 -74q2 -62 30 -86.5t84 -24.5q66 0 95 24.5t30 86.5q0 27 0.5 39.5t0.5 24v36.5q-1 49 -17 78t-59 42l-123 36q-82 25 -137 62t-82.5 95t-28.5 146q-1 22 -0.5 41.5t0.5 39.5
q1 167 75 239t257 72q169 0 238.5 -70t76.5 -231q2 -33 1 -80t-3 -72h-207q1 25 1.5 59t0 66.5t-1.5 51.5q-2 58 -25 81t-81 23q-60 0 -84 -23t-26 -81q-1 -25 -1.5 -42.5t-0.5 -54.5q1 -54 15 -89t67 -50l110 -28q123 -32 184 -99.5t61 -200.5v-46.5t-1 -46.5
q-1 -161 -77.5 -231t-257.5 -70zM310 -410l63 141h-92v189h232v-167l-85 -163h-118z" />
    <glyph glyph-name="uni021A" unicode="&#x21a;" horiz-adv-x="726" 
d="M250 0v1399h-239v201h704v-201h-239v-1399h-226zM284 -410l63 141h-92v189h232v-167l-85 -163h-118z" />
    <glyph glyph-name="uni021B" unicode="&#x21b;" horiz-adv-x="609" 
d="M490 -17q-192 0 -272 71t-81 236v737h-101v173h104v340h228v-340h197v-173h-201l1 -762q0 -63 24.5 -87.5t101.5 -24.5q26 0 47 1.5t47 2.5v-164q-21 -5 -45 -7.5t-50 -2.5zM297 -410l63 141h-92v189h232v-167l-85 -163h-118z" />
    <glyph glyph-name="uni022A" unicode="&#x22a;" horiz-adv-x="886" 
d="M443 -17q-187 0 -270 78.5t-86 261.5q-3 120 -4 239.5t-1 238.5t1 238t4 239q3 182 86 260.5t270 78.5t268.5 -78.5t86.5 -260.5q4 -121 5.5 -240.5t1.5 -238t-1.5 -237.5t-5.5 -239q-5 -183 -86.5 -261.5t-268.5 -78.5zM443 170q67 0 97.5 28t31.5 90q4 124 6 253.5
t2 260.5t-2 259.5t-6 250.5q-1 62 -32 90.5t-97 28.5q-65 0 -96.5 -28.5t-33.5 -90.5q-4 -121 -6 -249.5t-2 -259.5t2 -260.5t6 -254.5q2 -62 33.5 -90t96.5 -28zM492 1710v160h161v-160h-161zM236 1710v160h160v-160h-160zM156 2022h576v-109h-576v109z" />
    <glyph glyph-name="uni022B" unicode="&#x22b;" horiz-adv-x="860" 
d="M431 -17q-125 0 -199.5 34t-109 108.5t-41.5 196.5q-1 54 -2.5 125.5t-1.5 149.5t1 151.5t3 130.5q7 121 41.5 195.5t109 108.5t199.5 34q126 0 199.5 -34.5t107.5 -109t40 -194.5q3 -55 4 -127t1 -149.5t-1 -150t-4 -130.5q-6 -121 -40 -195.5t-107.5 -109t-199.5 -34.5
zM431 155q64 0 91.5 27.5t28.5 85.5q3 86 4.5 169t1.5 164.5t-1.5 163.5t-4.5 168q-1 58 -28 85t-92 27q-64 0 -92.5 -27t-30.5 -85q-2 -83 -3.5 -165t-1.5 -165t1.5 -166.5t3.5 -168.5q2 -59 30.5 -86t92.5 -27zM478 1310v160h161v-160h-161zM222 1310v160h160v-160h-160z
M142 1622h576v-109h-576v109z" />
    <glyph glyph-name="uni022C" unicode="&#x22c;" horiz-adv-x="886" 
d="M443 -17q-187 0 -270 78.5t-86 261.5q-3 120 -4 239.5t-1 238.5t1 238t4 239q3 182 86 260.5t270 78.5t268.5 -78.5t86.5 -260.5q4 -121 5.5 -240.5t1.5 -238t-1.5 -237.5t-5.5 -239q-5 -183 -86.5 -261.5t-268.5 -78.5zM443 170q67 0 97.5 28t31.5 90q4 124 6 253.5
t2 260.5t-2 259.5t-6 250.5q-1 62 -32 90.5t-97 28.5q-65 0 -96.5 -28.5t-33.5 -90.5q-4 -121 -6 -249.5t-2 -259.5t2 -260.5t6 -254.5q2 -62 33.5 -90t96.5 -28zM583 1868h93q-4 -96 -38.5 -141.5t-98.5 -45.5q-40 0 -63.5 13t-40 30t-33 30t-43.5 13t-38 -19.5t-15 -55.5
h-91q7 102 43.5 148t100.5 46q41 0 65 -12.5t40.5 -29.5t32.5 -30t41 -13t34.5 17t10.5 50zM154 2067h576v-109h-576v109z" />
    <glyph glyph-name="uni022D" unicode="&#x22d;" horiz-adv-x="860" 
d="M431 -17q-125 0 -199.5 34t-109 108.5t-41.5 196.5q-1 54 -2.5 125.5t-1.5 149.5t1 151.5t3 130.5q7 121 41.5 195.5t109 108.5t199.5 34q126 0 199.5 -34.5t107.5 -109t40 -194.5q3 -55 4 -127t1 -149.5t-1 -150t-4 -130.5q-6 -121 -40 -195.5t-107.5 -109t-199.5 -34.5
zM431 155q64 0 91.5 27.5t28.5 85.5q3 86 4.5 169t1.5 164.5t-1.5 163.5t-4.5 168q-1 58 -28 85t-92 27q-64 0 -92.5 -27t-30.5 -85q-2 -83 -3.5 -165t-1.5 -165t1.5 -166.5t3.5 -168.5q2 -59 30.5 -86t92.5 -27zM569 1468h93q-4 -96 -38.5 -141.5t-98.5 -45.5
q-40 0 -63.5 13t-40 30t-33 30t-43.5 13t-38 -19.5t-15 -55.5h-91q7 102 43.5 148t100.5 46q41 0 65 -12.5t40.5 -29.5t32.5 -30t41 -13t34.5 17t10.5 50zM140 1667h576v-109h-576v109z" />
    <glyph glyph-name="uni0230" unicode="&#x230;" horiz-adv-x="886" 
d="M443 -17q-187 0 -270 78.5t-86 261.5q-3 120 -4 239.5t-1 238.5t1 238t4 239q3 182 86 260.5t270 78.5t268.5 -78.5t86.5 -260.5q4 -121 5.5 -240.5t1.5 -238t-1.5 -237.5t-5.5 -239q-5 -183 -86.5 -261.5t-268.5 -78.5zM443 170q67 0 97.5 28t31.5 90q4 124 6 253.5
t2 260.5t-2 259.5t-6 250.5q-1 62 -32 90.5t-97 28.5q-65 0 -96.5 -28.5t-33.5 -90.5q-4 -121 -6 -249.5t-2 -259.5t2 -260.5t6 -254.5q2 -62 33.5 -90t96.5 -28zM364 1680v160h160v-160h-160zM156 2023h576v-109h-576v109z" />
    <glyph glyph-name="uni0231" unicode="&#x231;" horiz-adv-x="860" 
d="M431 -17q-125 0 -199.5 34t-109 108.5t-41.5 196.5q-1 54 -2.5 125.5t-1.5 149.5t1 151.5t3 130.5q7 121 41.5 195.5t109 108.5t199.5 34q126 0 199.5 -34.5t107.5 -109t40 -194.5q3 -55 4 -127t1 -149.5t-1 -150t-4 -130.5q-6 -121 -40 -195.5t-107.5 -109t-199.5 -34.5
zM431 155q64 0 91.5 27.5t28.5 85.5q3 86 4.5 169t1.5 164.5t-1.5 163.5t-4.5 168q-1 58 -28 85t-92 27q-64 0 -92.5 -27t-30.5 -85q-2 -83 -3.5 -165t-1.5 -165t1.5 -166.5t3.5 -168.5q2 -59 30.5 -86t92.5 -27zM350 1280v160h160v-160h-160zM142 1623h576v-109h-576v109z
" />
    <glyph glyph-name="uni0232" unicode="&#x232;" horiz-adv-x="811" 
d="M292 0v423l-8 2l-257 1175h231l81 -417l42 -464h49l41 464l81 417h232l-258 -1176l-7 -1v-423h-227zM111 1781h576v-109h-576v109z" />
    <glyph glyph-name="uni0233" unicode="&#x233;" horiz-adv-x="794" 
d="M202 -415q-31 0 -70.5 3.5t-71.5 8.5v170q26 -1 69 -3t72 -2q79 0 108.5 25t37.5 87l18 126h-134l-195 1200h231l61 -561l52 -469h63l37 469l53 561h231l-190 -1309q-15 -107 -54 -175t-114.5 -99.5t-203.5 -31.5zM115 1381h576v-109h-576v109z" />
    <glyph glyph-name="uni0237" unicode="&#x237;" horiz-adv-x="422" 
d="M-20 -419q-31 0 -68.5 4t-68.5 9v170q26 -2 66 -3.5t70 -1.5q60 0 89 27t29 83v1331h228v-1312q0 -164 -84 -235.5t-261 -71.5z" />
    <glyph glyph-name="uni0259" unicode="&#x259;" horiz-adv-x="825" 
d="M400 1217q178 0 257.5 -71t87.5 -235q2 -56 3.5 -137t1.5 -170.5t-1.5 -171.5t-3.5 -139q-10 -166 -89.5 -238t-252.5 -72q-171 0 -248.5 70.5t-85.5 230.5q-1 25 -1.5 83t0 130.5t3.5 142.5h450q0 73 -1 145.5t-3 148.5q-1 62 -28 86.5t-88 24.5q-57 0 -81.5 -24.5
t-27.5 -86.5q-1 -30 -1 -75t2 -102h-222q-2 26 -2.5 72.5t0.5 81.5q8 164 84 235t247 71zM521 479h-231q0 -47 0.5 -92t1 -79t0.5 -48q4 -57 29.5 -81t81.5 -24q61 0 87 24.5t27 80.5q2 57 2.5 111.5t1.5 107.5z" />
    <glyph glyph-name="uni02B9" unicode="&#x2b9;" horiz-adv-x="378" 
d="M134 1101l-42 255v244h195v-244l-42 -255h-111z" />
    <glyph glyph-name="uni02BA" unicode="&#x2ba;" horiz-adv-x="708" 
d="M133 1101l-41 255v244h192v-244l-41 -255h-110zM465 1101l-41 255v244h193v-244l-41 -255h-111z" />
    <glyph glyph-name="uni02BB" unicode="&#x2bb;" horiz-adv-x="416" 
d="M294 1621l-63 -141h93v-189h-232v167l85 163h117z" />
    <glyph glyph-name="uni02BC" unicode="&#x2bc;" horiz-adv-x="378" 
d="M134 1101l-42 255v244h195v-244l-42 -255h-111z" />
    <glyph glyph-name="uni02BE" unicode="&#x2be;" horiz-adv-x="426" 
d="M92 1140v124q49 -1 83.5 32.5t34.5 81.5t-35 81.5t-84 32.5v124q67 0 122.5 -32t88.5 -86t33 -120t-33.5 -120t-88.5 -86t-121 -32z" />
    <glyph glyph-name="uni02BF" unicode="&#x2bf;" horiz-adv-x="426" 
d="M333 1140q-65 0 -120 32t-88.5 86t-33.5 120t33 120t88.5 86t122.5 32v-124q-49 1 -84.5 -32.5t-35.5 -81.5t35 -81.5t83 -32.5v-124z" />
    <glyph glyph-name="circumflex" unicode="&#x2c6;" horiz-adv-x="624" 
d="M92 1282l152 255h136l152 -255h-152l-68 126l-68 -126h-152z" />
    <glyph glyph-name="caron" unicode="&#x2c7;" horiz-adv-x="611" 
d="M245 1281l-152 256h137l76 -141l76 141h137l-152 -256h-122z" />
    <glyph glyph-name="uni02C8" unicode="&#x2c8;" horiz-adv-x="377" 
d="M92 1600h193v-744h-193v744z" />
    <glyph glyph-name="uni02C9" unicode="&#x2c9;" horiz-adv-x="850" 
d="M120 1381h576v-109h-576v109z" />
    <glyph glyph-name="uni02CA" unicode="&#x2ca;" horiz-adv-x="578" 
d="M208 1101h-116l202 499h193z" />
    <glyph glyph-name="uni02CB" unicode="&#x2cb;" horiz-adv-x="578" 
d="M370 1101l-278 499h192l203 -499h-117z" />
    <glyph glyph-name="uni02CC" unicode="&#x2cc;" horiz-adv-x="377" 
d="M92 376h193v-776h-193v776z" />
    <glyph glyph-name="breve" unicode="&#x2d8;" horiz-adv-x="715" 
d="M358 1272q-135 0 -197 60t-69 199h139q1 -75 30 -108t97 -33t97.5 33t29.5 108h139q-7 -139 -69 -199t-197 -60z" />
    <glyph glyph-name="dotaccent" unicode="&#x2d9;" horiz-adv-x="376" 
d="M106 1280v160h160v-160h-160z" />
    <glyph glyph-name="ring" unicode="&#x2da;" horiz-adv-x="667" 
d="M259 1272q-74 0 -127.5 53t-53.5 128t53.5 128t127.5 53q75 0 128.5 -53t53.5 -128t-53.5 -128t-128.5 -53zM259 1393q26 0 43 17.5t17 42.5t-17 42t-43 17q-24 0 -41.5 -17t-17.5 -42t17.5 -42.5t41.5 -17.5z" />
    <glyph glyph-name="ogonek" unicode="&#x2db;" horiz-adv-x="443" 
d="M354 -306h-61q-124 0 -176.5 50t-36.5 161l16 95h122l-16 -95q-8 -53 14 -76t78 -23h60v-112z" />
    <glyph glyph-name="tilde" unicode="&#x2dc;" horiz-adv-x="748" 
d="M493 1463h93q-4 -96 -38.5 -141.5t-98.5 -45.5q-40 0 -63.5 13t-40 30t-33 30t-43.5 13t-38 -19.5t-15 -55.5h-91q7 102 43.5 148t100.5 46q41 0 65 -12.5t40.5 -29.5t32.5 -30t41 -13t34.5 17t10.5 50z" />
    <glyph glyph-name="hungarumlaut" unicode="&#x2dd;" horiz-adv-x="766" 
d="M77 1282l199 255h159l-199 -255h-159zM329 1282l200 255h158l-199 -255h-159z" />
    <glyph glyph-name="gravecomb" unicode="&#x300;" horiz-adv-x="0" 
d="M257 1280l-165 255h155l157 -255h-147z" />
    <glyph glyph-name="acutecomb" unicode="&#x301;" horiz-adv-x="0" 
d="M82 1280l172 255h155l-179 -255h-148z" />
    <glyph glyph-name="uni0302" unicode="&#x302;" horiz-adv-x="0" 
d="M92 1282l152 255h136l152 -255h-152l-68 126l-68 -126h-152z" />
    <glyph glyph-name="tildecomb" unicode="&#x303;" horiz-adv-x="0" 
d="M493 1463h93q-4 -96 -38.5 -141.5t-98.5 -45.5q-40 0 -63.5 13t-40 30t-33 30t-43.5 13t-38 -19.5t-15 -55.5h-91q7 102 43.5 148t100.5 46q41 0 65 -12.5t40.5 -29.5t32.5 -30t41 -13t34.5 17t10.5 50z" />
    <glyph glyph-name="uni0304" unicode="&#x304;" horiz-adv-x="0" 
d="M120 1381h576v-109h-576v109z" />
    <glyph glyph-name="uni0306" unicode="&#x306;" horiz-adv-x="0" 
d="M358 1272q-135 0 -197 60t-69 199h139q1 -75 30 -108t97 -33t97.5 33t29.5 108h139q-7 -139 -69 -199t-197 -60z" />
    <glyph glyph-name="uni0307" unicode="&#x307;" horiz-adv-x="0" 
d="M106 1280v160h160v-160h-160z" />
    <glyph glyph-name="uni0308" unicode="&#x308;" horiz-adv-x="0" 
d="M381 1310v160h161v-160h-161zM125 1310v160h160v-160h-160z" />
    <glyph glyph-name="hookabovecomb" unicode="&#x309;" horiz-adv-x="0" 
d="M209 1258l13 70q11 53 -7 71t-82 18h-81v109h81q121 0 175.5 -46.5t32.5 -151.5l-13 -70h-119z" />
    <glyph glyph-name="uni030A" unicode="&#x30a;" horiz-adv-x="0" 
d="M259 1272q-74 0 -127.5 53t-53.5 128t53.5 128t127.5 53q75 0 128.5 -53t53.5 -128t-53.5 -128t-128.5 -53zM259 1393q26 0 43 17.5t17 42.5t-17 42t-43 17q-24 0 -41.5 -17t-17.5 -42t17.5 -42.5t41.5 -17.5z" />
    <glyph glyph-name="uni030B" unicode="&#x30b;" horiz-adv-x="0" 
d="M77 1282l199 255h159l-199 -255h-159zM329 1282l200 255h158l-199 -255h-159z" />
    <glyph glyph-name="uni030C" unicode="&#x30c;" horiz-adv-x="0" 
d="M244 1281l-152 256h137l76 -141l76 141h137l-152 -256h-122z" />
    <glyph glyph-name="uni030F" unicode="&#x30f;" horiz-adv-x="0" 
d="M510 1280l-171 255h154l170 -255h-153zM260 1280l-171 255h153l171 -255h-153z" />
    <glyph glyph-name="uni0311" unicode="&#x311;" horiz-adv-x="0" 
d="M358 1534q135 0 197 -60.5t69 -199.5h-139q0 76 -29.5 109t-97.5 33t-97 -33t-30 -109h-139q7 139 69 199.5t197 60.5z" />
    <glyph glyph-name="uni0312" unicode="&#x312;" horiz-adv-x="0" 
d="M294 1621l-63 -141h93v-189h-232v167l85 163h117z" />
    <glyph glyph-name="uni031B" unicode="&#x31b;" horiz-adv-x="0" 
d="M185 1043q-8 0 -18.5 0.5t-25.5 3.5v115h27h17q60 1 84.5 33.5t28.5 111.5q1 19 1.5 53.5t0 69t-1.5 54.5h130q1 -20 1.5 -54.5t0 -69t-1.5 -53.5q-8 -138 -66 -201t-177 -63z" />
    <glyph glyph-name="dotbelowcomb" unicode="&#x323;" horiz-adv-x="0" 
d="M97 -240v160h160v-160h-160z" />
    <glyph glyph-name="uni0324" unicode="&#x324;" horiz-adv-x="0" 
d="M381 -210v160h161v-160h-161zM125 -210v160h160v-160h-160z" />
    <glyph glyph-name="uni0326" unicode="&#x326;" horiz-adv-x="0" 
d="M121 -410l63 141h-92v189h232v-167l-85 -163h-118z" />
    <glyph glyph-name="uni0327" unicode="&#x327;" horiz-adv-x="0" 
d="M76 -306v112h60q56 0 78.5 23t13.5 76l-16 95h122l16 -95q16 -111 -36 -161t-178 -50h-60z" />
    <glyph glyph-name="uni0328" unicode="&#x328;" horiz-adv-x="0" 
d="M354 -306h-61q-124 0 -176.5 50t-36.5 161l16 95h122l-16 -95q-8 -53 14 -76t78 -23h60v-112z" />
    <glyph glyph-name="uni032E" unicode="&#x32e;" horiz-adv-x="0" 
d="M358 -340q-135 0 -197 60t-69 199h139q1 -75 30 -108t97 -33t97.5 33t29.5 108h139q-7 -139 -69 -199t-197 -60z" />
    <glyph glyph-name="uni0331" unicode="&#x331;" horiz-adv-x="0" 
d="M120 -99h576v-109h-576v109z" />
    <glyph glyph-name="uni0335" unicode="&#x335;" horiz-adv-x="0" 
d="M92 797h474v-123h-474v123z" />
    <glyph glyph-name="pi" unicode="&#x3c0;" horiz-adv-x="1262" 
d="M1048 -9q-128 0 -204.5 31t-111 98.5t-37.5 177.5v698h-172v-996h-227v996h-176v201h995v-201h-193v-723q1 -62 25 -86.5t102 -24.5q25 0 46 1t47 3v-164q-21 -6 -44.5 -8.5t-49.5 -2.5z" />
    <glyph glyph-name="uni1E08" unicode="&#x1e08;" horiz-adv-x="871" 
d="M441 -18q-189 0 -270 79t-85 262q-2 113 -3 233.5t-1 243.5t1 244t3 235q2 163 86 250.5t268 87.5q183 0 265.5 -79.5t88.5 -259.5q1 -37 1 -83t-1 -92.5t-2 -82.5h-227q2 44 2.5 95t0.5 102.5t-1 94.5q-1 62 -32 90t-95 28t-95 -28t-33 -90q-3 -126 -4.5 -254.5
t-1.5 -257.5t1.5 -257.5t4.5 -254.5q2 -61 33.5 -90t95.5 -29q68 0 100.5 29t33.5 90q1 45 1.5 97t-0.5 105t-2 100h227q2 -66 2.5 -135t-1.5 -132q-6 -183 -89.5 -262t-271.5 -79zM238 -292v112h60q56 0 78.5 23t13.5 76l-16 95h122l16 -95q16 -111 -36 -161t-178 -50h-60z
M367 1680l172 255h155l-179 -255h-148z" />
    <glyph glyph-name="uni1E09" unicode="&#x1e09;" horiz-adv-x="824" 
d="M533 761q1 25 1.5 59.5t0 67.5t-1.5 53q-2 57 -27.5 80.5t-83.5 23.5q-60 0 -86 -23t-28 -81q-2 -89 -3 -173t-1 -166.5t1 -165.5t3 -170q2 -62 29 -86.5t87 -24.5q58 0 82.5 25t26.5 86q2 32 2 76t-2 100h221q3 -25 3.5 -71t-1.5 -82q-7 -163 -84 -234.5t-248 -71.5
q-176 0 -255.5 71.5t-87.5 234.5q-2 56 -3 137t-1 171t1 172t3 138q10 167 89 238.5t252 71.5t250.5 -70t83.5 -231q2 -36 1.5 -82.5t-3.5 -72.5h-221zM214 -292v112h60q56 0 78.5 23t13.5 76l-16 95h122l16 -95q16 -111 -36 -161t-178 -50h-60zM354 1280l172 255h155
l-179 -255h-148z" />
    <glyph glyph-name="uni1E0C" unicode="&#x1e0c;" horiz-adv-x="883" 
d="M95 0v1600h344q188 0 271.5 -80.5t86.5 -264.5q3 -162 4 -308.5t0 -292t-4 -308.5q-3 -185 -86.5 -265.5t-270.5 -80.5h-345zM322 201h118q66 0 98 30t33 90q3 122 4 241.5t1 238.5t-1 238.5t-4 241.5q-1 59 -33.5 88.5t-98.5 29.5h-117v-1198zM337 -240v160h160v-160
h-160z" />
    <glyph glyph-name="uni1E0D" unicode="&#x1e0d;" horiz-adv-x="888" 
d="M318 -17q-113 0 -171.5 68.5t-65.5 225.5q-2 64 -3 147.5t-1 173t1 174t3 151.5q7 159 67.5 226.5t173.5 67.5q84 0 127.5 -34.5t80.5 -102.5h34v520h228v-1600h-228v120h-35q-37 -66 -81.5 -101.5t-129.5 -35.5zM407 151q49 0 93.5 26t63.5 75v696q-19 50 -63.5 75.5
t-92.5 25.5q-51 0 -74 -25.5t-26 -80.5q-4 -110 -5.5 -231.5t0 -238.5t5.5 -214q3 -57 26 -82.5t73 -25.5zM377 -240v160h160v-160h-160z" />
    <glyph glyph-name="uni1E0E" unicode="&#x1e0e;" horiz-adv-x="883" 
d="M95 0v1600h344q188 0 271.5 -80.5t86.5 -264.5q3 -162 4 -308.5t0 -292t-4 -308.5q-3 -185 -86.5 -265.5t-270.5 -80.5h-345zM322 201h118q66 0 98 30t33 90q3 122 4 241.5t1 238.5t-1 238.5t-4 241.5q-1 59 -33.5 88.5t-98.5 29.5h-117v-1198zM121 -99h576v-109h-576
v109z" />
    <glyph glyph-name="uni1E0F" unicode="&#x1e0f;" horiz-adv-x="888" 
d="M318 -17q-113 0 -171.5 68.5t-65.5 225.5q-2 64 -3 147.5t-1 173t1 174t3 151.5q7 159 67.5 226.5t173.5 67.5q84 0 127.5 -34.5t80.5 -102.5h34v520h228v-1600h-228v120h-35q-37 -66 -81.5 -101.5t-129.5 -35.5zM407 151q49 0 93.5 26t63.5 75v696q-19 50 -63.5 75.5
t-92.5 25.5q-51 0 -74 -25.5t-26 -80.5q-4 -110 -5.5 -231.5t0 -238.5t5.5 -214q3 -57 26 -82.5t73 -25.5zM162 -99h576v-109h-576v109z" />
    <glyph glyph-name="uni1E14" unicode="&#x1e14;" horiz-adv-x="737" 
d="M95 0v1600h595v-201h-368v-488h348v-201h-348v-509h368v-201h-595zM92 1781h576v-109h-576v109zM284 1875l-165 255h155l157 -255h-147z" />
    <glyph glyph-name="uni1E15" unicode="&#x1e15;" horiz-adv-x="825" 
d="M426 -17q-178 0 -257 71.5t-88 234.5q-2 56 -3 137t-1 170.5t1 172t3 138.5q10 167 89.5 238.5t252.5 71.5q171 0 248.5 -70t84.5 -231q1 -25 2 -83t0.5 -130.5t-4.5 -142.5h-450q0 -72 1.5 -145t3.5 -149q2 -62 28.5 -86.5t87.5 -24.5q56 0 80.5 24.5t27.5 86.5
q2 30 2 75.5t-2 101.5h221q3 -26 3.5 -72t-1.5 -82q-7 -163 -83 -234.5t-247 -71.5zM305 721h230v92t-0.5 79t-1.5 48q-3 57 -28.5 81t-81.5 24q-61 0 -86.5 -24.5t-27.5 -80.5q-1 -57 -2 -111.5t-2 -107.5zM130 1381h576v-109h-576v109zM323 1475l-165 255h155l157 -255
h-147z" />
    <glyph glyph-name="uni1E16" unicode="&#x1e16;" horiz-adv-x="737" 
d="M95 0v1600h595v-201h-368v-488h348v-201h-348v-509h368v-201h-595zM92 1781h576v-109h-576v109zM313 1875l172 255h155l-179 -255h-148z" />
    <glyph glyph-name="uni1E17" unicode="&#x1e17;" horiz-adv-x="825" 
d="M426 -17q-178 0 -257 71.5t-88 234.5q-2 56 -3 137t-1 170.5t1 172t3 138.5q10 167 89.5 238.5t252.5 71.5q171 0 248.5 -70t84.5 -231q1 -25 2 -83t0.5 -130.5t-4.5 -142.5h-450q0 -72 1.5 -145t3.5 -149q2 -62 28.5 -86.5t87.5 -24.5q56 0 80.5 24.5t27.5 86.5
q2 30 2 75.5t-2 101.5h221q3 -26 3.5 -72t-1.5 -82q-7 -163 -83 -234.5t-247 -71.5zM305 721h230v92t-0.5 79t-1.5 48q-3 57 -28.5 81t-81.5 24q-61 0 -86.5 -24.5t-27.5 -80.5q-1 -57 -2 -111.5t-2 -107.5zM130 1381h576v-109h-576v109zM352 1475l172 255h155l-179 -255
h-148z" />
    <glyph glyph-name="uni1E1C" unicode="&#x1e1c;" horiz-adv-x="737" 
d="M95 0v1600h595v-201h-368v-488h348v-201h-348v-509h368v-201h-595zM190 -292v112h60q56 0 78.5 23t13.5 76l-16 95h122l16 -95q16 -111 -36 -161t-178 -50h-60zM380 1672q-135 0 -197 60t-69 199h139q1 -75 30 -108t97 -33t97.5 33t29.5 108h139q-7 -139 -69 -199
t-197 -60z" />
    <glyph glyph-name="uni1E1D" unicode="&#x1e1d;" horiz-adv-x="825" 
d="M426 -17q-178 0 -257 71.5t-88 234.5q-2 56 -3 137t-1 170.5t1 172t3 138.5q10 167 89.5 238.5t252.5 71.5q171 0 248.5 -70t84.5 -231q1 -25 2 -83t0.5 -130.5t-4.5 -142.5h-450q0 -72 1.5 -145t3.5 -149q2 -62 28.5 -86.5t87.5 -24.5q56 0 80.5 24.5t27.5 86.5
q2 30 2 75.5t-2 101.5h221q3 -26 3.5 -72t-1.5 -82q-7 -163 -83 -234.5t-247 -71.5zM305 721h230v92t-0.5 79t-1.5 48q-3 57 -28.5 81t-81.5 24q-61 0 -86.5 -24.5t-27.5 -80.5q-1 -57 -2 -111.5t-2 -107.5zM223 -292v112h60q56 0 78.5 23t13.5 76l-16 95h122l16 -95
q16 -111 -36 -161t-178 -50h-60zM419 1272q-135 0 -197 60t-69 199h139q1 -75 30 -108t97 -33t97.5 33t29.5 108h139q-7 -139 -69 -199t-197 -60z" />
    <glyph glyph-name="uni1E20" unicode="&#x1e20;" horiz-adv-x="874" 
d="M444 -17q-127 0 -204 34.5t-113 109.5t-39 196q-3 108 -4.5 228.5t-1.5 244.5t1.5 244t4.5 226q4 127 40.5 204.5t113.5 112t201 34.5q179 0 260.5 -78.5t91.5 -260.5q3 -60 3 -128t-3 -129h-227q3 68 3 147t-3 147q-3 59 -33 87.5t-92 28.5q-64 0 -95 -28.5t-34 -87.5
q-5 -123 -7 -253t-2 -261.5t2 -261t7 -253.5q3 -59 33.5 -87.5t96.5 -28.5t99.5 28.5t37.5 87.5q2 37 2.5 81t0 87.5t-2.5 80.5h-123v198h344q4 -88 3 -194t-5 -216q-7 -182 -90 -261t-266 -79zM148 1781h576v-109h-576v109z" />
    <glyph glyph-name="uni1E21" unicode="&#x1e21;" horiz-adv-x="892" 
d="M414 -369q-157 0 -241 44.5t-98 132.5q-2 11 -4 28t0 33q5 51 40 86t90 42v35q-51 11 -80 39t-35 72q-1 12 -1 24.5t1 26.5q5 43 40.5 70t89.5 34v36q-72 33 -107 99.5t-42 174.5q-2 44 -3 81t-1 71.5t1 70.5t3 76q6 109 41.5 177.5t109.5 100.5t196 32
q119 0 189.5 -30.5t107.5 -97.5h35q7 58 41.5 84.5t102.5 26.5v-173h-31q-46 0 -72.5 -27t-26.5 -91l-1 -76v-52.5t0.5 -53.5t0 -56.5t-2.5 -62.5q-7 -112 -42.5 -180.5t-108.5 -99t-193 -30.5q-87 0 -122 -15.5t-35 -49.5v-9q0 -22 11 -35.5t44 -19.5t101 -8
q183 -3 270.5 -57.5t103.5 -168.5q2 -17 2.5 -35.5t-2.5 -41.5q-8 -81 -52.5 -131t-124.5 -73t-195 -23zM420 -210q54 0 92 8.5t60 27t28 48.5q4 14 3.5 27t-4.5 26q-6 30 -28 47t-59.5 24t-90.5 8q-78 2 -118.5 -16t-49.5 -63q-3 -14 -3 -27.5t3 -26.5q5 -30 25.5 -48.5
t56 -26.5t85.5 -8zM412 470q67 0 93 27t29 81q2 34 3.5 80t1.5 96.5t-1.5 97.5t-3.5 84q-3 57 -30 83t-92 26q-64 0 -92.5 -26t-30.5 -86q-2 -48 -3 -96t-1 -93t1 -86t3 -75q3 -54 28.5 -83.5t94.5 -29.5zM126 1381h576v-109h-576v109z" />
    <glyph glyph-name="uni1E24" unicode="&#x1e24;" horiz-adv-x="882" 
d="M95 0v1600h227v-689h238v689h227v-1600h-227v710h-238v-710h-227zM361 -240v160h160v-160h-160z" />
    <glyph glyph-name="uni1E25" unicode="&#x1e25;" horiz-adv-x="901" 
d="M96 0v1600h227v-520h42q37 68 80.5 102.5t128.5 34.5q113 0 174 -68t61 -226l1 -923h-228v942q0 56 -25 81.5t-77 25.5q-49 0 -93 -26t-64 -75v-948h-227zM366 -240v160h160v-160h-160z" />
    <glyph glyph-name="uni1E2A" unicode="&#x1e2a;" horiz-adv-x="882" 
d="M95 0v1600h227v-689h238v689h227v-1600h-227v710h-238v-710h-227zM441 -340q-135 0 -197 60t-69 199h139q1 -75 30 -108t97 -33t97.5 33t29.5 108h139q-7 -139 -69 -199t-197 -60z" />
    <glyph glyph-name="uni1E2B" unicode="&#x1e2b;" horiz-adv-x="901" 
d="M96 0v1600h227v-520h42q37 68 80.5 102.5t128.5 34.5q113 0 174 -68t61 -226l1 -923h-228v942q0 56 -25 81.5t-77 25.5q-49 0 -93 -26t-64 -75v-948h-227zM447 -340q-135 0 -197 60t-69 199h139q1 -75 30 -108t97 -33t97.5 33t29.5 108h139q-7 -139 -69 -199t-197 -60z
" />
    <glyph glyph-name="uni1E2E" unicode="&#x1e2e;" horiz-adv-x="417" 
d="M95 0v1600h227v-1600h-227zM256 1710v160h161v-160h-161zM0 1710v160h160v-160h-160zM141 1921l172 255h155l-179 -255h-148z" />
    <glyph glyph-name="uni1E2F" unicode="&#x1e2f;" horiz-adv-x="418" 
d="M96 0v1200h226v-1200h-226zM257 1310v160h161v-160h-161zM1 1310v160h160v-160h-160zM142 1521l172 255h155l-179 -255h-148z" />
    <glyph glyph-name="uni1E36" unicode="&#x1e36;" horiz-adv-x="711" 
d="M95 0v1600h227v-1399h364v-201h-591zM311 -240v160h160v-160h-160z" />
    <glyph glyph-name="uni1E37" unicode="&#x1e37;" horiz-adv-x="418" 
d="M96 0v1600h226v-1600h-226zM129 -240v160h160v-160h-160z" />
    <glyph glyph-name="uni1E3A" unicode="&#x1e3a;" horiz-adv-x="711" 
d="M95 0v1600h227v-1399h364v-201h-591zM96 -99h576v-109h-576v109z" />
    <glyph glyph-name="uni1E3B" unicode="&#x1e3b;" horiz-adv-x="418" 
d="M96 0v1600h226v-1600h-226zM-87 -99h576v-109h-576v109z" />
    <glyph glyph-name="uni1E42" unicode="&#x1e42;" horiz-adv-x="1336" 
d="M95 0v1600h389l116 -628l43 -768h51l42 768l117 628h388v-1600h-228v483l42 916h-58l-94 -933l-102 -463h-268l-99 463l-95 933h-56l40 -916v-483h-228zM588 -240v160h160v-160h-160z" />
    <glyph glyph-name="uni1E43" unicode="&#x1e43;" horiz-adv-x="1370" 
d="M96 0v1200h227v-120h41q37 67 80 102t128 35q82 0 136 -35.5t77 -115.5h39q36 67 86.5 109t135.5 42q113 0 173 -67.5t60 -226.5v-923h-227v942q0 56 -24.5 81.5t-75.5 25.5q-45 0 -85.5 -29t-61.5 -76v-944h-227v942q0 56 -24.5 81.5t-75.5 25.5q-48 0 -92 -26t-63 -75
v-948h-227zM609 -240v160h160v-160h-160z" />
    <glyph glyph-name="uni1E44" unicode="&#x1e44;" horiz-adv-x="993" 
d="M95 0v1600h355l106 -508l122 -891h56l-41 767l-17 632h222v-1600h-371l-111 547l-96 853h-60l38 -793l18 -607h-221zM420 1680v160h160v-160h-160z" />
    <glyph glyph-name="uni1E45" unicode="&#x1e45;" horiz-adv-x="901" 
d="M96 0v1200h227v-120h42q37 66 81.5 101.5t127.5 35.5q113 0 174 -68t62 -226v-923h-227v942q-1 56 -26 81.5t-77 25.5q-46 0 -92 -27t-65 -74v-948h-227zM374 1280v160h160v-160h-160z" />
    <glyph glyph-name="uni1E46" unicode="&#x1e46;" horiz-adv-x="993" 
d="M95 0v1600h355l106 -508l122 -891h56l-41 767l-17 632h222v-1600h-371l-111 547l-96 853h-60l38 -793l18 -607h-221zM416 -240v160h160v-160h-160z" />
    <glyph glyph-name="uni1E47" unicode="&#x1e47;" horiz-adv-x="901" 
d="M96 0v1200h227v-120h42q37 66 81.5 101.5t127.5 35.5q113 0 174 -68t62 -226v-923h-227v942q-1 56 -26 81.5t-77 25.5q-46 0 -92 -27t-65 -74v-948h-227zM374 -240v160h160v-160h-160z" />
    <glyph glyph-name="uni1E48" unicode="&#x1e48;" horiz-adv-x="993" 
d="M95 0v1600h355l106 -508l122 -891h56l-41 767l-17 632h222v-1600h-371l-111 547l-96 853h-60l38 -793l18 -607h-221zM201 -99h576v-109h-576v109z" />
    <glyph glyph-name="uni1E49" unicode="&#x1e49;" horiz-adv-x="901" 
d="M96 0v1200h227v-120h42q37 66 81.5 101.5t127.5 35.5q113 0 174 -68t62 -226v-923h-227v942q-1 56 -26 81.5t-77 25.5q-46 0 -92 -27t-65 -74v-948h-227zM158 -99h576v-109h-576v109z" />
    <glyph glyph-name="uni1E4C" unicode="&#x1e4c;" horiz-adv-x="886" 
d="M443 -17q-187 0 -270 78.5t-86 261.5q-3 120 -4 239.5t-1 238.5t1 238t4 239q3 182 86 260.5t270 78.5t268.5 -78.5t86.5 -260.5q4 -121 5.5 -240.5t1.5 -238t-1.5 -237.5t-5.5 -239q-5 -183 -86.5 -261.5t-268.5 -78.5zM443 170q67 0 97.5 28t31.5 90q4 124 6 253.5
t2 260.5t-2 259.5t-6 250.5q-1 62 -32 90.5t-97 28.5q-65 0 -96.5 -28.5t-33.5 -90.5q-4 -121 -6 -249.5t-2 -259.5t2 -260.5t6 -254.5q2 -62 33.5 -90t96.5 -28zM583 1868h93q-4 -96 -38.5 -141.5t-98.5 -45.5q-40 0 -63.5 13t-40 30t-33 30t-43.5 13t-38 -19.5t-15 -55.5
h-91q7 102 43.5 148t100.5 46q41 0 65 -12.5t40.5 -29.5t32.5 -30t41 -13t34.5 17t10.5 50zM375 1966l172 255h155l-179 -255h-148z" />
    <glyph glyph-name="uni1E4D" unicode="&#x1e4d;" horiz-adv-x="860" 
d="M431 -17q-125 0 -199.5 34t-109 108.5t-41.5 196.5q-1 54 -2.5 125.5t-1.5 149.5t1 151.5t3 130.5q7 121 41.5 195.5t109 108.5t199.5 34q126 0 199.5 -34.5t107.5 -109t40 -194.5q3 -55 4 -127t1 -149.5t-1 -150t-4 -130.5q-6 -121 -40 -195.5t-107.5 -109t-199.5 -34.5
zM431 155q64 0 91.5 27.5t28.5 85.5q3 86 4.5 169t1.5 164.5t-1.5 163.5t-4.5 168q-1 58 -28 85t-92 27q-64 0 -92.5 -27t-30.5 -85q-2 -83 -3.5 -165t-1.5 -165t1.5 -166.5t3.5 -168.5q2 -59 30.5 -86t92.5 -27zM569 1468h93q-4 -96 -38.5 -141.5t-98.5 -45.5
q-40 0 -63.5 13t-40 30t-33 30t-43.5 13t-38 -19.5t-15 -55.5h-91q7 102 43.5 148t100.5 46q41 0 65 -12.5t40.5 -29.5t32.5 -30t41 -13t34.5 17t10.5 50zM361 1566l172 255h155l-179 -255h-148z" />
    <glyph glyph-name="uni1E4E" unicode="&#x1e4e;" horiz-adv-x="886" 
d="M443 -17q-187 0 -270 78.5t-86 261.5q-3 120 -4 239.5t-1 238.5t1 238t4 239q3 182 86 260.5t270 78.5t268.5 -78.5t86.5 -260.5q4 -121 5.5 -240.5t1.5 -238t-1.5 -237.5t-5.5 -239q-5 -183 -86.5 -261.5t-268.5 -78.5zM443 170q67 0 97.5 28t31.5 90q4 124 6 253.5
t2 260.5t-2 259.5t-6 250.5q-1 62 -32 90.5t-97 28.5q-65 0 -96.5 -28.5t-33.5 -90.5q-4 -121 -6 -249.5t-2 -259.5t2 -260.5t6 -254.5q2 -62 33.5 -90t96.5 -28zM583 1868h93q-4 -96 -38.5 -141.5t-98.5 -45.5q-40 0 -63.5 13t-40 30t-33 30t-43.5 13t-38 -19.5t-15 -55.5
h-91q7 102 43.5 148t100.5 46q41 0 65 -12.5t40.5 -29.5t32.5 -30t41 -13t34.5 17t10.5 50zM490 1996v160h161v-160h-161zM234 1996v160h160v-160h-160z" />
    <glyph glyph-name="uni1E4F" unicode="&#x1e4f;" horiz-adv-x="860" 
d="M431 -17q-125 0 -199.5 34t-109 108.5t-41.5 196.5q-1 54 -2.5 125.5t-1.5 149.5t1 151.5t3 130.5q7 121 41.5 195.5t109 108.5t199.5 34q126 0 199.5 -34.5t107.5 -109t40 -194.5q3 -55 4 -127t1 -149.5t-1 -150t-4 -130.5q-6 -121 -40 -195.5t-107.5 -109t-199.5 -34.5
zM431 155q64 0 91.5 27.5t28.5 85.5q3 86 4.5 169t1.5 164.5t-1.5 163.5t-4.5 168q-1 58 -28 85t-92 27q-64 0 -92.5 -27t-30.5 -85q-2 -83 -3.5 -165t-1.5 -165t1.5 -166.5t3.5 -168.5q2 -59 30.5 -86t92.5 -27zM569 1468h93q-4 -96 -38.5 -141.5t-98.5 -45.5
q-40 0 -63.5 13t-40 30t-33 30t-43.5 13t-38 -19.5t-15 -55.5h-91q7 102 43.5 148t100.5 46q41 0 65 -12.5t40.5 -29.5t32.5 -30t41 -13t34.5 17t10.5 50zM476 1596v160h161v-160h-161zM220 1596v160h160v-160h-160z" />
    <glyph glyph-name="uni1E50" unicode="&#x1e50;" horiz-adv-x="886" 
d="M443 -17q-187 0 -270 78.5t-86 261.5q-3 120 -4 239.5t-1 238.5t1 238t4 239q3 182 86 260.5t270 78.5t268.5 -78.5t86.5 -260.5q4 -121 5.5 -240.5t1.5 -238t-1.5 -237.5t-5.5 -239q-5 -183 -86.5 -261.5t-268.5 -78.5zM443 170q67 0 97.5 28t31.5 90q4 124 6 253.5
t2 260.5t-2 259.5t-6 250.5q-1 62 -32 90.5t-97 28.5q-65 0 -96.5 -28.5t-33.5 -90.5q-4 -121 -6 -249.5t-2 -259.5t2 -260.5t6 -254.5q2 -62 33.5 -90t96.5 -28zM156 1781h576v-109h-576v109zM348 1875l-165 255h155l157 -255h-147z" />
    <glyph glyph-name="uni1E51" unicode="&#x1e51;" horiz-adv-x="860" 
d="M431 -17q-125 0 -199.5 34t-109 108.5t-41.5 196.5q-1 54 -2.5 125.5t-1.5 149.5t1 151.5t3 130.5q7 121 41.5 195.5t109 108.5t199.5 34q126 0 199.5 -34.5t107.5 -109t40 -194.5q3 -55 4 -127t1 -149.5t-1 -150t-4 -130.5q-6 -121 -40 -195.5t-107.5 -109t-199.5 -34.5
zM431 155q64 0 91.5 27.5t28.5 85.5q3 86 4.5 169t1.5 164.5t-1.5 163.5t-4.5 168q-1 58 -28 85t-92 27q-64 0 -92.5 -27t-30.5 -85q-2 -83 -3.5 -165t-1.5 -165t1.5 -166.5t3.5 -168.5q2 -59 30.5 -86t92.5 -27zM142 1381h576v-109h-576v109zM334 1475l-165 255h155
l157 -255h-147z" />
    <glyph glyph-name="uni1E52" unicode="&#x1e52;" horiz-adv-x="886" 
d="M443 -17q-187 0 -270 78.5t-86 261.5q-3 120 -4 239.5t-1 238.5t1 238t4 239q3 182 86 260.5t270 78.5t268.5 -78.5t86.5 -260.5q4 -121 5.5 -240.5t1.5 -238t-1.5 -237.5t-5.5 -239q-5 -183 -86.5 -261.5t-268.5 -78.5zM443 170q67 0 97.5 28t31.5 90q4 124 6 253.5
t2 260.5t-2 259.5t-6 250.5q-1 62 -32 90.5t-97 28.5q-65 0 -96.5 -28.5t-33.5 -90.5q-4 -121 -6 -249.5t-2 -259.5t2 -260.5t6 -254.5q2 -62 33.5 -90t96.5 -28zM156 1781h576v-109h-576v109zM377 1875l172 255h155l-179 -255h-148z" />
    <glyph glyph-name="uni1E53" unicode="&#x1e53;" horiz-adv-x="860" 
d="M431 -17q-125 0 -199.5 34t-109 108.5t-41.5 196.5q-1 54 -2.5 125.5t-1.5 149.5t1 151.5t3 130.5q7 121 41.5 195.5t109 108.5t199.5 34q126 0 199.5 -34.5t107.5 -109t40 -194.5q3 -55 4 -127t1 -149.5t-1 -150t-4 -130.5q-6 -121 -40 -195.5t-107.5 -109t-199.5 -34.5
zM431 155q64 0 91.5 27.5t28.5 85.5q3 86 4.5 169t1.5 164.5t-1.5 163.5t-4.5 168q-1 58 -28 85t-92 27q-64 0 -92.5 -27t-30.5 -85q-2 -83 -3.5 -165t-1.5 -165t1.5 -166.5t3.5 -168.5q2 -59 30.5 -86t92.5 -27zM142 1381h576v-109h-576v109zM363 1475l172 255h155
l-179 -255h-148z" />
    <glyph glyph-name="uni1E5A" unicode="&#x1e5a;" horiz-adv-x="854" 
d="M95 0v1600h329q185 0 268 -76.5t89 -254.5q3 -71 3.5 -130t0 -115.5t-3.5 -120.5q-4 -115 -39.5 -186.5t-110.5 -106.5l176 -610h-241l-149 572h-95v-572h-227zM322 773h101q66 0 97 30t34 88q3 64 4 129.5t0 131t-4 129.5q-3 59 -34 88.5t-96 29.5h-102v-626zM366 -240
v160h160v-160h-160z" />
    <glyph glyph-name="uni1E5B" unicode="&#x1e5b;" horiz-adv-x="620" 
d="M96 0v1200h228v-134h41q13 79 54.5 109.5t108.5 30.5q22 0 43 -1.5t34 -2.5v-175h-75q-100 0 -146 -32.5t-60 -98.5v-896h-228zM129 -240v160h160v-160h-160z" />
    <glyph glyph-name="uni1E5E" unicode="&#x1e5e;" horiz-adv-x="854" 
d="M95 0v1600h329q185 0 268 -76.5t89 -254.5q3 -71 3.5 -130t0 -115.5t-3.5 -120.5q-4 -115 -39.5 -186.5t-110.5 -106.5l176 -610h-241l-149 572h-95v-572h-227zM322 773h101q66 0 97 30t34 88q3 64 4 129.5t0 131t-4 129.5q-3 59 -34 88.5t-96 29.5h-102v-626zM151 -99
h576v-109h-576v109z" />
    <glyph glyph-name="uni1E5F" unicode="&#x1e5f;" horiz-adv-x="620" 
d="M96 0v1200h228v-134h41q13 79 54.5 109.5t108.5 30.5q22 0 43 -1.5t34 -2.5v-175h-75q-100 0 -146 -32.5t-60 -98.5v-896h-228zM-86 -99h576v-109h-576v109z" />
    <glyph glyph-name="uni1E60" unicode="&#x1e60;" horiz-adv-x="846" 
d="M425 -17q-186 0 -266 79t-88 261q-1 46 -1 90t1.5 88t5.5 89h214q-4 -80 -4.5 -158t4.5 -148q4 -58 36 -86t97 -28q64 0 93.5 28t34.5 86q4 43 5 81.5t-0.5 78.5t-4.5 85q-3 57 -25.5 98t-75.5 54l-140 35q-92 23 -144.5 68.5t-75 115t-25.5 167.5q-1 53 -1 106t1 106
q5 121 41 195.5t113.5 108.5t203.5 34q180 0 261 -78.5t88 -260.5q2 -49 1 -119t-4 -138h-218q3 75 3.5 149t-2.5 148q-1 57 -34 85t-95 28q-65 0 -95.5 -28t-35.5 -85q-5 -63 -5 -125.5t5 -125.5q4 -62 25.5 -100.5t75.5 -51.5l125 -29q98 -23 154 -70t80 -118t27 -169
q2 -39 2 -72t-1 -65.5t-2 -68.5q-7 -182 -88 -261t-266 -79zM342 1680v160h160v-160h-160z" />
    <glyph glyph-name="uni1E61" unicode="&#x1e61;" horiz-adv-x="783" 
d="M385 -17q-167 0 -238 71.5t-78 234.5q-1 37 -0.5 81t2.5 70h200q-2 -56 -1.5 -100t1.5 -74q2 -62 30 -86.5t84 -24.5q66 0 95 24.5t30 86.5q0 27 0.5 39.5t0.5 24v36.5q-1 49 -17 78t-59 42l-123 36q-82 25 -137 62t-82.5 95t-28.5 146q-1 22 -0.5 41.5t0.5 39.5
q1 167 75 239t257 72q169 0 238.5 -70t76.5 -231q2 -33 1 -80t-3 -72h-207q1 25 1.5 59t0 66.5t-1.5 51.5q-2 58 -25 81t-81 23q-60 0 -84 -23t-26 -81q-1 -25 -1.5 -42.5t-0.5 -54.5q1 -54 15 -89t67 -50l110 -28q123 -32 184 -99.5t61 -200.5v-46.5t-1 -46.5
q-1 -161 -77.5 -231t-257.5 -70zM309 1280v160h160v-160h-160z" />
    <glyph glyph-name="uni1E62" unicode="&#x1e62;" horiz-adv-x="846" 
d="M425 -17q-186 0 -266 79t-88 261q-1 46 -1 90t1.5 88t5.5 89h214q-4 -80 -4.5 -158t4.5 -148q4 -58 36 -86t97 -28q64 0 93.5 28t34.5 86q4 43 5 81.5t-0.5 78.5t-4.5 85q-3 57 -25.5 98t-75.5 54l-140 35q-92 23 -144.5 68.5t-75 115t-25.5 167.5q-1 53 -1 106t1 106
q5 121 41 195.5t113.5 108.5t203.5 34q180 0 261 -78.5t88 -260.5q2 -49 1 -119t-4 -138h-218q3 75 3.5 149t-2.5 148q-1 57 -34 85t-95 28q-65 0 -95.5 -28t-35.5 -85q-5 -63 -5 -125.5t5 -125.5q4 -62 25.5 -100.5t75.5 -51.5l125 -29q98 -23 154 -70t80 -118t27 -169
q2 -39 2 -72t-1 -65.5t-2 -68.5q-7 -182 -88 -261t-266 -79zM342 -240v160h160v-160h-160z" />
    <glyph glyph-name="uni1E63" unicode="&#x1e63;" horiz-adv-x="783" 
d="M385 -17q-167 0 -238 71.5t-78 234.5q-1 37 -0.5 81t2.5 70h200q-2 -56 -1.5 -100t1.5 -74q2 -62 30 -86.5t84 -24.5q66 0 95 24.5t30 86.5q0 27 0.5 39.5t0.5 24v36.5q-1 49 -17 78t-59 42l-123 36q-82 25 -137 62t-82.5 95t-28.5 146q-1 22 -0.5 41.5t0.5 39.5
q1 167 75 239t257 72q169 0 238.5 -70t76.5 -231q2 -33 1 -80t-3 -72h-207q1 25 1.5 59t0 66.5t-1.5 51.5q-2 58 -25 81t-81 23q-60 0 -84 -23t-26 -81q-1 -25 -1.5 -42.5t-0.5 -54.5q1 -54 15 -89t67 -50l110 -28q123 -32 184 -99.5t61 -200.5v-46.5t-1 -46.5
q-1 -161 -77.5 -231t-257.5 -70zM309 -240v160h160v-160h-160z" />
    <glyph glyph-name="uni1E64" unicode="&#x1e64;" horiz-adv-x="846" 
d="M425 -17q-186 0 -266 79t-88 261q-1 46 -1 90t1.5 88t5.5 89h214q-4 -80 -4.5 -158t4.5 -148q4 -58 36 -86t97 -28q64 0 93.5 28t34.5 86q4 43 5 81.5t-0.5 78.5t-4.5 85q-3 57 -25.5 98t-75.5 54l-140 35q-92 23 -144.5 68.5t-75 115t-25.5 167.5q-1 53 -1 106t1 106
q5 121 41 195.5t113.5 108.5t203.5 34q180 0 261 -78.5t88 -260.5q2 -49 1 -119t-4 -138h-218q3 75 3.5 149t-2.5 148q-1 57 -34 85t-95 28q-65 0 -95.5 -28t-35.5 -85q-5 -63 -5 -125.5t5 -125.5q4 -62 25.5 -100.5t75.5 -51.5l125 -29q98 -23 154 -70t80 -118t27 -169
q2 -39 2 -72t-1 -65.5t-2 -68.5q-7 -182 -88 -261t-266 -79zM355 1680l172 255h155l-179 -255h-148zM342 2017v160h160v-160h-160z" />
    <glyph glyph-name="uni1E65" unicode="&#x1e65;" horiz-adv-x="783" 
d="M385 -17q-167 0 -238 71.5t-78 234.5q-1 37 -0.5 81t2.5 70h200q-2 -56 -1.5 -100t1.5 -74q2 -62 30 -86.5t84 -24.5q66 0 95 24.5t30 86.5q0 27 0.5 39.5t0.5 24v36.5q-1 49 -17 78t-59 42l-123 36q-82 25 -137 62t-82.5 95t-28.5 146q-1 22 -0.5 41.5t0.5 39.5
q1 167 75 239t257 72q169 0 238.5 -70t76.5 -231q2 -33 1 -80t-3 -72h-207q1 25 1.5 59t0 66.5t-1.5 51.5q-2 58 -25 81t-81 23q-60 0 -84 -23t-26 -81q-1 -25 -1.5 -42.5t-0.5 -54.5q1 -54 15 -89t67 -50l110 -28q123 -32 184 -99.5t61 -200.5v-46.5t-1 -46.5
q-1 -161 -77.5 -231t-257.5 -70zM322 1280l172 255h155l-179 -255h-148zM309 1617v160h160v-160h-160z" />
    <glyph glyph-name="uni1E66" unicode="&#x1e66;" horiz-adv-x="846" 
d="M425 -17q-186 0 -266 79t-88 261q-1 46 -1 90t1.5 88t5.5 89h214q-4 -80 -4.5 -158t4.5 -148q4 -58 36 -86t97 -28q64 0 93.5 28t34.5 86q4 43 5 81.5t-0.5 78.5t-4.5 85q-3 57 -25.5 98t-75.5 54l-140 35q-92 23 -144.5 68.5t-75 115t-25.5 167.5q-1 53 -1 106t1 106
q5 121 41 195.5t113.5 108.5t203.5 34q180 0 261 -78.5t88 -260.5q2 -49 1 -119t-4 -138h-218q3 75 3.5 149t-2.5 148q-1 57 -34 85t-95 28q-65 0 -95.5 -28t-35.5 -85q-5 -63 -5 -125.5t5 -125.5q4 -62 25.5 -100.5t75.5 -51.5l125 -29q98 -23 154 -70t80 -118t27 -169
q2 -39 2 -72t-1 -65.5t-2 -68.5q-7 -182 -88 -261t-266 -79zM361 1681l-152 256h137l76 -141l76 141h137l-152 -256h-122zM342 2017v160h160v-160h-160z" />
    <glyph glyph-name="uni1E67" unicode="&#x1e67;" horiz-adv-x="783" 
d="M385 -17q-167 0 -238 71.5t-78 234.5q-1 37 -0.5 81t2.5 70h200q-2 -56 -1.5 -100t1.5 -74q2 -62 30 -86.5t84 -24.5q66 0 95 24.5t30 86.5q0 27 0.5 39.5t0.5 24v36.5q-1 49 -17 78t-59 42l-123 36q-82 25 -137 62t-82.5 95t-28.5 146q-1 22 -0.5 41.5t0.5 39.5
q1 167 75 239t257 72q169 0 238.5 -70t76.5 -231q2 -33 1 -80t-3 -72h-207q1 25 1.5 59t0 66.5t-1.5 51.5q-2 58 -25 81t-81 23q-60 0 -84 -23t-26 -81q-1 -25 -1.5 -42.5t-0.5 -54.5q1 -54 15 -89t67 -50l110 -28q123 -32 184 -99.5t61 -200.5v-46.5t-1 -46.5
q-1 -161 -77.5 -231t-257.5 -70zM328 1281l-152 256h137l76 -141l76 141h137l-152 -256h-122zM309 1617v160h160v-160h-160z" />
    <glyph glyph-name="uni1E68" unicode="&#x1e68;" horiz-adv-x="846" 
d="M425 -17q-186 0 -266 79t-88 261q-1 46 -1 90t1.5 88t5.5 89h214q-4 -80 -4.5 -158t4.5 -148q4 -58 36 -86t97 -28q64 0 93.5 28t34.5 86q4 43 5 81.5t-0.5 78.5t-4.5 85q-3 57 -25.5 98t-75.5 54l-140 35q-92 23 -144.5 68.5t-75 115t-25.5 167.5q-1 53 -1 106t1 106
q5 121 41 195.5t113.5 108.5t203.5 34q180 0 261 -78.5t88 -260.5q2 -49 1 -119t-4 -138h-218q3 75 3.5 149t-2.5 148q-1 57 -34 85t-95 28q-65 0 -95.5 -28t-35.5 -85q-5 -63 -5 -125.5t5 -125.5q4 -62 25.5 -100.5t75.5 -51.5l125 -29q98 -23 154 -70t80 -118t27 -169
q2 -39 2 -72t-1 -65.5t-2 -68.5q-7 -182 -88 -261t-266 -79zM342 -240v160h160v-160h-160zM342 1680v160h160v-160h-160z" />
    <glyph glyph-name="uni1E69" unicode="&#x1e69;" horiz-adv-x="783" 
d="M385 -17q-167 0 -238 71.5t-78 234.5q-1 37 -0.5 81t2.5 70h200q-2 -56 -1.5 -100t1.5 -74q2 -62 30 -86.5t84 -24.5q66 0 95 24.5t30 86.5q0 27 0.5 39.5t0.5 24v36.5q-1 49 -17 78t-59 42l-123 36q-82 25 -137 62t-82.5 95t-28.5 146q-1 22 -0.5 41.5t0.5 39.5
q1 167 75 239t257 72q169 0 238.5 -70t76.5 -231q2 -33 1 -80t-3 -72h-207q1 25 1.5 59t0 66.5t-1.5 51.5q-2 58 -25 81t-81 23q-60 0 -84 -23t-26 -81q-1 -25 -1.5 -42.5t-0.5 -54.5q1 -54 15 -89t67 -50l110 -28q123 -32 184 -99.5t61 -200.5v-46.5t-1 -46.5
q-1 -161 -77.5 -231t-257.5 -70zM309 -240v160h160v-160h-160zM309 1280v160h160v-160h-160z" />
    <glyph glyph-name="uni1E6C" unicode="&#x1e6c;" horiz-adv-x="726" 
d="M250 0v1399h-239v201h704v-201h-239v-1399h-226zM283 -240v160h160v-160h-160z" />
    <glyph glyph-name="uni1E6D" unicode="&#x1e6d;" horiz-adv-x="609" 
d="M490 -17q-192 0 -272 71t-81 236v737h-101v173h104v340h228v-340h197v-173h-201l1 -762q0 -63 24.5 -87.5t101.5 -24.5q26 0 47 1.5t47 2.5v-164q-21 -5 -45 -7.5t-50 -2.5zM296 -240v160h160v-160h-160z" />
    <glyph glyph-name="uni1E6E" unicode="&#x1e6e;" horiz-adv-x="726" 
d="M250 0v1399h-239v201h704v-201h-239v-1399h-226zM67 -99h576v-109h-576v109z" />
    <glyph glyph-name="uni1E6F" unicode="&#x1e6f;" horiz-adv-x="609" 
d="M490 -17q-192 0 -272 71t-81 236v737h-101v173h104v340h228v-340h197v-173h-201l1 -762q0 -63 24.5 -87.5t101.5 -24.5q26 0 47 1.5t47 2.5v-164q-21 -5 -45 -7.5t-50 -2.5zM80 -99h576v-109h-576v109z" />
    <glyph glyph-name="uni1E78" unicode="&#x1e78;" horiz-adv-x="871" 
d="M436 -17q-189 0 -270.5 78.5t-84.5 259.5q-4 319 -4 640t4 639h227q-3 -212 -4 -435t0 -445.5t3 -435.5q0 -57 32.5 -85.5t96.5 -28.5q65 0 96.5 28.5t31.5 85.5q2 213 3 435.5t0.5 445.5t-3.5 435h226q5 -318 5 -639t-5 -640q-2 -181 -83.5 -259.5t-270.5 -78.5z
M575 1868h93q-4 -96 -38.5 -141.5t-98.5 -45.5q-40 0 -63.5 13t-40 30t-33 30t-43.5 13t-38 -19.5t-15 -55.5h-91q7 102 43.5 148t100.5 46q41 0 65 -12.5t40.5 -29.5t32.5 -30t41 -13t34.5 17t10.5 50zM367 1966l172 255h155l-179 -255h-148z" />
    <glyph glyph-name="uni1E79" unicode="&#x1e79;" horiz-adv-x="895" 
d="M329 -17q-112 0 -176.5 68.5t-64.5 225.5v923h227v-942q0 -56 24 -81.5t75 -25.5q47 0 92.5 27t64.5 74v948h228v-1200h-228v120h-33q-39 -72 -89.5 -104.5t-119.5 -32.5zM579 1468h93q-4 -96 -38.5 -141.5t-98.5 -45.5q-40 0 -63.5 13t-40 30t-33 30t-43.5 13t-38 -19.5
t-15 -55.5h-91q7 102 43.5 148t100.5 46q41 0 65 -12.5t40.5 -29.5t32.5 -30t41 -13t34.5 17t10.5 50zM372 1566l172 255h155l-179 -255h-148z" />
    <glyph glyph-name="uni1E7A" unicode="&#x1e7a;" horiz-adv-x="871" 
d="M436 -17q-189 0 -270.5 78.5t-84.5 259.5q-4 319 -4 640t4 639h227q-3 -212 -4 -435t0 -445.5t3 -435.5q0 -57 32.5 -85.5t96.5 -28.5q65 0 96.5 28.5t31.5 85.5q2 213 3 435.5t0.5 445.5t-3.5 435h226q5 -318 5 -639t-5 -640q-2 -181 -83.5 -259.5t-270.5 -78.5z
M148 1781h576v-109h-576v109zM484 1905v160h161v-160h-161zM228 1905v160h160v-160h-160z" />
    <glyph glyph-name="uni1E7B" unicode="&#x1e7b;" horiz-adv-x="895" 
d="M329 -17q-112 0 -176.5 68.5t-64.5 225.5v923h227v-942q0 -56 24 -81.5t75 -25.5q47 0 92.5 27t64.5 74v948h228v-1200h-228v120h-33q-39 -72 -89.5 -104.5t-119.5 -32.5zM152 1381h576v-109h-576v109zM488 1505v160h161v-160h-161zM232 1505v160h160v-160h-160z" />
    <glyph glyph-name="Wgrave" unicode="&#x1e80;" horiz-adv-x="1392" 
d="M182 0l-133 1600h228l44 -673l37 -726h56l17 726l103 663h324l103 -663l16 -726h56l37 726l45 673h227l-133 -1600h-389l-61 482l-34 914h-58l-35 -914l-61 -482h-389zM591 1680l-165 255h155l157 -255h-147z" />
    <glyph glyph-name="wgrave" unicode="&#x1e81;" horiz-adv-x="1327" 
d="M174 0l-144 1200h228l50 -604l25 -427h68l17 427l54 601h382l52 -601l17 -427h68l25 427l52 604h229l-147 -1200h-393l-35 465l-24 563h-71l-25 -563l-35 -465h-393zM567 1280l-165 255h155l157 -255h-147z" />
    <glyph glyph-name="Wacute" unicode="&#x1e82;" horiz-adv-x="1392" 
d="M182 0l-133 1600h228l44 -673l37 -726h56l17 726l103 663h324l103 -663l16 -726h56l37 726l45 673h227l-133 -1600h-389l-61 482l-34 914h-58l-35 -914l-61 -482h-389zM620 1680l172 255h155l-179 -255h-148z" />
    <glyph glyph-name="wacute" unicode="&#x1e83;" horiz-adv-x="1327" 
d="M174 0l-144 1200h228l50 -604l25 -427h68l17 427l54 601h382l52 -601l17 -427h68l25 427l52 604h229l-147 -1200h-393l-35 465l-24 563h-71l-25 -563l-35 -465h-393zM596 1280l172 255h155l-179 -255h-148z" />
    <glyph glyph-name="Wdieresis" unicode="&#x1e84;" horiz-adv-x="1392" 
d="M182 0l-133 1600h228l44 -673l37 -726h56l17 726l103 663h324l103 -663l16 -726h56l37 726l45 673h227l-133 -1600h-389l-61 482l-34 914h-58l-35 -914l-61 -482h-389zM735 1710v160h161v-160h-161zM479 1710v160h160v-160h-160z" />
    <glyph glyph-name="wdieresis" unicode="&#x1e85;" horiz-adv-x="1327" 
d="M174 0l-144 1200h228l50 -604l25 -427h68l17 427l54 601h382l52 -601l17 -427h68l25 427l52 604h229l-147 -1200h-393l-35 465l-24 563h-71l-25 -563l-35 -465h-393zM711 1310v160h161v-160h-161zM455 1310v160h160v-160h-160z" />
    <glyph glyph-name="uni1E8E" unicode="&#x1e8e;" horiz-adv-x="811" 
d="M292 0v423l-8 2l-257 1175h231l81 -417l42 -464h49l41 464l81 417h232l-258 -1176l-7 -1v-423h-227zM319 1680v160h160v-160h-160z" />
    <glyph glyph-name="uni1E8F" unicode="&#x1e8f;" horiz-adv-x="794" 
d="M202 -415q-31 0 -70.5 3.5t-71.5 8.5v170q26 -1 69 -3t72 -2q79 0 108.5 25t37.5 87l18 126h-134l-195 1200h231l61 -561l52 -469h63l37 469l53 561h231l-190 -1309q-15 -107 -54 -175t-114.5 -99.5t-203.5 -31.5zM323 1280v160h160v-160h-160z" />
    <glyph glyph-name="uni1E92" unicode="&#x1e92;" horiz-adv-x="735" 
d="M34 0v188l424 1211h-401v201h643v-192l-438 -1207h406v-201h-634zM279 -240v160h160v-160h-160z" />
    <glyph glyph-name="uni1E93" unicode="&#x1e93;" horiz-adv-x="704" 
d="M39 0v145l386 886l-378 -1v169l621 1v-149l-391 -882h384v-169h-622zM273 -240v160h160v-160h-160z" />
    <glyph glyph-name="uni1E97" unicode="&#x1e97;" horiz-adv-x="609" 
d="M490 -17q-192 0 -272 71t-81 236v737h-101v173h104v340h228v-340h197v-173h-201l1 -762q0 -63 24.5 -87.5t101.5 -24.5q26 0 47 1.5t47 2.5v-164q-21 -5 -45 -7.5t-50 -2.5zM329 1665v160h161v-160h-161zM73 1665v160h160v-160h-160z" />
    <glyph glyph-name="uni1E9E" unicode="&#x1e9e;" horiz-adv-x="941" 
d="M89 0v1264q0 180 84.5 258t268.5 78l384 1v-171l-199 -539q120 -33 168 -115t54 -218q1 -36 1 -70t-0.5 -68.5t-2.5 -73.5q-7 -185 -87.5 -265.5t-268.5 -80.5h-103v187h103q65 0 95 29.5t35 89.5q5 66 5 126.5t-5 125.5q-4 60 -27.5 101t-79.5 41h-106l-3 179l183 535
l-146 -1q-62 0 -94 -26.5t-32 -83.5v-1303h-227z" />
    <glyph glyph-name="uni1EA0" unicode="&#x1ea0;" horiz-adv-x="846" 
d="M33 0l199 1600h382l199 -1600h-232l-38 392h-240l-37 -392h-233zM324 593h198l-34 351l-33 455h-63l-33 -456zM343 -240v160h160v-160h-160z" />
    <glyph glyph-name="uni1EA1" unicode="&#x1ea1;" 
d="M310 -14q-119 0 -176 61t-69 200q-1 21 -1 47t1 46q6 77 32.5 134t82.5 102t151 86q50 22 99 39.5t103 34.5v197q0 57 -23.5 84.5t-86.5 27.5q-53 0 -77.5 -23t-27.5 -81q-1 -18 -1.5 -53t0 -70.5t1.5 -56.5h-221q-1 25 -2 71.5t0 83.5q5 105 38 171.5t104.5 98
t192.5 31.5q125 0 196.5 -34.5t101 -108t29.5 -192.5l-1 -882h-226v120h-32q-30 -67 -71.5 -100.5t-116.5 -33.5zM398 151q46 0 80 25.5t53 70.5v332q-36 -10 -72 -24.5t-73 -36.5q-56 -32 -75 -76.5t-22 -101.5v-38.5t1 -37.5q5 -55 32.5 -84t75.5 -29zM330 -240v160h160
v-160h-160z" />
    <glyph glyph-name="uni1EA2" unicode="&#x1ea2;" horiz-adv-x="846" 
d="M33 0l199 1600h382l199 -1600h-232l-38 392h-240l-37 -392h-233zM324 593h198l-34 351l-33 455h-63l-33 -456zM430 1679l13 70q11 53 -7 71t-82 18h-81v109h81q121 0 175.5 -46.5t32.5 -151.5l-13 -70h-119z" />
    <glyph glyph-name="uni1EA3" unicode="&#x1ea3;" 
d="M310 -14q-119 0 -176 61t-69 200q-1 21 -1 47t1 46q6 77 32.5 134t82.5 102t151 86q50 22 99 39.5t103 34.5v197q0 57 -23.5 84.5t-86.5 27.5q-53 0 -77.5 -23t-27.5 -81q-1 -18 -1.5 -53t0 -70.5t1.5 -56.5h-221q-1 25 -2 71.5t0 83.5q5 105 38 171.5t104.5 98
t192.5 31.5q125 0 196.5 -34.5t101 -108t29.5 -192.5l-1 -882h-226v120h-32q-30 -67 -71.5 -100.5t-116.5 -33.5zM398 151q46 0 80 25.5t53 70.5v332q-36 -10 -72 -24.5t-73 -36.5q-56 -32 -75 -76.5t-22 -101.5v-38.5t1 -37.5q5 -55 32.5 -84t75.5 -29zM409 1282l13 70
q11 53 -7 71t-82 18h-81v109h81q121 0 175.5 -46.5t32.5 -151.5l-13 -70h-119z" />
    <glyph glyph-name="uni1EA4" unicode="&#x1ea4;" horiz-adv-x="846" 
d="M33 0l199 1600h382l199 -1600h-232l-38 392h-240l-37 -392h-233zM324 593h198l-34 351l-33 455h-63l-33 -456zM202 1682l152 255h136l152 -255h-152l-68 126l-68 -126h-152zM615 1907l172 255h155l-179 -255h-148z" />
    <glyph glyph-name="uni1EA5" unicode="&#x1ea5;" 
d="M310 -14q-119 0 -176 61t-69 200q-1 21 -1 47t1 46q6 77 32.5 134t82.5 102t151 86q50 22 99 39.5t103 34.5v197q0 57 -23.5 84.5t-86.5 27.5q-53 0 -77.5 -23t-27.5 -81q-1 -18 -1.5 -53t0 -70.5t1.5 -56.5h-221q-1 25 -2 71.5t0 83.5q5 105 38 171.5t104.5 98
t192.5 31.5q125 0 196.5 -34.5t101 -108t29.5 -192.5l-1 -882h-226v120h-32q-30 -67 -71.5 -100.5t-116.5 -33.5zM398 151q46 0 80 25.5t53 70.5v332q-36 -10 -72 -24.5t-73 -36.5q-56 -32 -75 -76.5t-22 -101.5v-38.5t1 -37.5q5 -55 32.5 -84t75.5 -29zM206 1282l152 255
h136l152 -255h-152l-68 126l-68 -126h-152zM618 1507l172 255h155l-179 -255h-148z" />
    <glyph glyph-name="uni1EA6" unicode="&#x1ea6;" horiz-adv-x="846" 
d="M33 0l199 1600h382l199 -1600h-232l-38 392h-240l-37 -392h-233zM324 593h198l-34 351l-33 455h-63l-33 -456zM202 1682l152 255h136l152 -255h-152l-68 126l-68 -126h-152zM660 1907l-165 255h155l157 -255h-147z" />
    <glyph glyph-name="uni1EA7" unicode="&#x1ea7;" 
d="M310 -14q-119 0 -176 61t-69 200q-1 21 -1 47t1 46q6 77 32.5 134t82.5 102t151 86q50 22 99 39.5t103 34.5v197q0 57 -23.5 84.5t-86.5 27.5q-53 0 -77.5 -23t-27.5 -81q-1 -18 -1.5 -53t0 -70.5t1.5 -56.5h-221q-1 25 -2 71.5t0 83.5q5 105 38 171.5t104.5 98
t192.5 31.5q125 0 196.5 -34.5t101 -108t29.5 -192.5l-1 -882h-226v120h-32q-30 -67 -71.5 -100.5t-116.5 -33.5zM398 151q46 0 80 25.5t53 70.5v332q-36 -10 -72 -24.5t-73 -36.5q-56 -32 -75 -76.5t-22 -101.5v-38.5t1 -37.5q5 -55 32.5 -84t75.5 -29zM206 1282l152 255
h136l152 -255h-152l-68 126l-68 -126h-152zM663 1507l-165 255h155l157 -255h-147z" />
    <glyph glyph-name="uni1EA8" unicode="&#x1ea8;" horiz-adv-x="846" 
d="M33 0l199 1600h382l199 -1600h-232l-38 392h-240l-37 -392h-233zM324 593h198l-34 351l-33 455h-63l-33 -456zM202 1682l152 255h136l152 -255h-152l-68 126l-68 -126h-152zM610 1897l13 70q11 53 -7 71t-82 18h-81v109h81q121 0 175.5 -46.5t32.5 -151.5l-13 -70h-119z
" />
    <glyph glyph-name="uni1EA9" unicode="&#x1ea9;" 
d="M310 -14q-119 0 -176 61t-69 200q-1 21 -1 47t1 46q6 77 32.5 134t82.5 102t151 86q50 22 99 39.5t103 34.5v197q0 57 -23.5 84.5t-86.5 27.5q-53 0 -77.5 -23t-27.5 -81q-1 -18 -1.5 -53t0 -70.5t1.5 -56.5h-221q-1 25 -2 71.5t0 83.5q5 105 38 171.5t104.5 98
t192.5 31.5q125 0 196.5 -34.5t101 -108t29.5 -192.5l-1 -882h-226v120h-32q-30 -67 -71.5 -100.5t-116.5 -33.5zM398 151q46 0 80 25.5t53 70.5v332q-36 -10 -72 -24.5t-73 -36.5q-56 -32 -75 -76.5t-22 -101.5v-38.5t1 -37.5q5 -55 32.5 -84t75.5 -29zM206 1282l152 255
h136l152 -255h-152l-68 126l-68 -126h-152zM614 1497l13 70q11 53 -7 71t-82 18h-81v109h81q121 0 175.5 -46.5t32.5 -151.5l-13 -70h-119z" />
    <glyph glyph-name="uni1EAA" unicode="&#x1eaa;" horiz-adv-x="846" 
d="M33 0l199 1600h382l199 -1600h-232l-38 392h-240l-37 -392h-233zM324 593h198l-34 351l-33 455h-63l-33 -456zM202 1682l152 255h136l152 -255h-152l-68 126l-68 -126h-152zM576 2177h93q-4 -96 -38.5 -141.5t-98.5 -45.5q-40 0 -63.5 13t-40 30t-33 30t-43.5 13
t-38 -19.5t-15 -55.5h-91q7 102 43.5 148t100.5 46q41 0 65 -12.5t40.5 -29.5t32.5 -30t41 -13t34.5 17t10.5 50z" />
    <glyph glyph-name="uni1EAB" unicode="&#x1eab;" 
d="M310 -14q-119 0 -176 61t-69 200q-1 21 -1 47t1 46q6 77 32.5 134t82.5 102t151 86q50 22 99 39.5t103 34.5v197q0 57 -23.5 84.5t-86.5 27.5q-53 0 -77.5 -23t-27.5 -81q-1 -18 -1.5 -53t0 -70.5t1.5 -56.5h-221q-1 25 -2 71.5t0 83.5q5 105 38 171.5t104.5 98
t192.5 31.5q125 0 196.5 -34.5t101 -108t29.5 -192.5l-1 -882h-226v120h-32q-30 -67 -71.5 -100.5t-116.5 -33.5zM398 151q46 0 80 25.5t53 70.5v332q-36 -10 -72 -24.5t-73 -36.5q-56 -32 -75 -76.5t-22 -101.5v-38.5t1 -37.5q5 -55 32.5 -84t75.5 -29zM206 1282l152 255
h136l152 -255h-152l-68 126l-68 -126h-152zM580 1777h93q-4 -96 -38.5 -141.5t-98.5 -45.5q-40 0 -63.5 13t-40 30t-33 30t-43.5 13t-38 -19.5t-15 -55.5h-91q7 102 43.5 148t100.5 46q41 0 65 -12.5t40.5 -29.5t32.5 -30t41 -13t34.5 17t10.5 50z" />
    <glyph glyph-name="uni1EAC" unicode="&#x1eac;" horiz-adv-x="846" 
d="M33 0l199 1600h382l199 -1600h-232l-38 392h-240l-37 -392h-233zM324 593h198l-34 351l-33 455h-63l-33 -456zM343 -240v160h160v-160h-160zM202 1682l152 255h136l152 -255h-152l-68 126l-68 -126h-152z" />
    <glyph glyph-name="uni1EAD" unicode="&#x1ead;" 
d="M310 -14q-119 0 -176 61t-69 200q-1 21 -1 47t1 46q6 77 32.5 134t82.5 102t151 86q50 22 99 39.5t103 34.5v197q0 57 -23.5 84.5t-86.5 27.5q-53 0 -77.5 -23t-27.5 -81q-1 -18 -1.5 -53t0 -70.5t1.5 -56.5h-221q-1 25 -2 71.5t0 83.5q5 105 38 171.5t104.5 98
t192.5 31.5q125 0 196.5 -34.5t101 -108t29.5 -192.5l-1 -882h-226v120h-32q-30 -67 -71.5 -100.5t-116.5 -33.5zM398 151q46 0 80 25.5t53 70.5v332q-36 -10 -72 -24.5t-73 -36.5q-56 -32 -75 -76.5t-22 -101.5v-38.5t1 -37.5q5 -55 32.5 -84t75.5 -29zM330 -240v160h160
v-160h-160zM206 1282l152 255h136l152 -255h-152l-68 126l-68 -126h-152z" />
    <glyph glyph-name="uni1EAE" unicode="&#x1eae;" horiz-adv-x="846" 
d="M33 0l199 1600h382l199 -1600h-232l-38 392h-240l-37 -392h-233zM324 593h198l-34 351l-33 455h-63l-33 -456zM423 1672q-135 0 -197 60t-69 199h139q1 -75 30 -108t97 -33t97.5 33t29.5 108h139q-7 -139 -69 -199t-197 -60zM356 1994l172 255h155l-179 -255h-148z" />
    <glyph glyph-name="uni1EAF" unicode="&#x1eaf;" 
d="M310 -14q-119 0 -176 61t-69 200q-1 21 -1 47t1 46q6 77 32.5 134t82.5 102t151 86q50 22 99 39.5t103 34.5v197q0 57 -23.5 84.5t-86.5 27.5q-53 0 -77.5 -23t-27.5 -81q-1 -18 -1.5 -53t0 -70.5t1.5 -56.5h-221q-1 25 -2 71.5t0 83.5q5 105 38 171.5t104.5 98
t192.5 31.5q125 0 196.5 -34.5t101 -108t29.5 -192.5l-1 -882h-226v120h-32q-30 -67 -71.5 -100.5t-116.5 -33.5zM398 151q46 0 80 25.5t53 70.5v332q-36 -10 -72 -24.5t-73 -36.5q-56 -32 -75 -76.5t-22 -101.5v-38.5t1 -37.5q5 -55 32.5 -84t75.5 -29zM427 1272
q-135 0 -197 60t-69 199h139q1 -75 30 -108t97 -33t97.5 33t29.5 108h139q-7 -139 -69 -199t-197 -60zM360 1594l172 255h155l-179 -255h-148z" />
    <glyph glyph-name="uni1EB0" unicode="&#x1eb0;" horiz-adv-x="846" 
d="M33 0l199 1600h382l199 -1600h-232l-38 392h-240l-37 -392h-233zM324 593h198l-34 351l-33 455h-63l-33 -456zM423 1672q-135 0 -197 60t-69 199h139q1 -75 30 -108t97 -33t97.5 33t29.5 108h139q-7 -139 -69 -199t-197 -60zM327 1994l-165 255h155l157 -255h-147z" />
    <glyph glyph-name="uni1EB1" unicode="&#x1eb1;" 
d="M310 -14q-119 0 -176 61t-69 200q-1 21 -1 47t1 46q6 77 32.5 134t82.5 102t151 86q50 22 99 39.5t103 34.5v197q0 57 -23.5 84.5t-86.5 27.5q-53 0 -77.5 -23t-27.5 -81q-1 -18 -1.5 -53t0 -70.5t1.5 -56.5h-221q-1 25 -2 71.5t0 83.5q5 105 38 171.5t104.5 98
t192.5 31.5q125 0 196.5 -34.5t101 -108t29.5 -192.5l-1 -882h-226v120h-32q-30 -67 -71.5 -100.5t-116.5 -33.5zM398 151q46 0 80 25.5t53 70.5v332q-36 -10 -72 -24.5t-73 -36.5q-56 -32 -75 -76.5t-22 -101.5v-38.5t1 -37.5q5 -55 32.5 -84t75.5 -29zM427 1272
q-135 0 -197 60t-69 199h139q1 -75 30 -108t97 -33t97.5 33t29.5 108h139q-7 -139 -69 -199t-197 -60zM331 1594l-165 255h155l157 -255h-147z" />
    <glyph glyph-name="uni1EB2" unicode="&#x1eb2;" horiz-adv-x="846" 
d="M33 0l199 1600h382l199 -1600h-232l-38 392h-240l-37 -392h-233zM324 593h198l-34 351l-33 455h-63l-33 -456zM423 1672q-135 0 -197 60t-69 199h139q1 -75 30 -108t97 -33t97.5 33t29.5 108h139q-7 -139 -69 -199t-197 -60zM365 1966l13 70q11 53 -7 71t-82 18h-81v109
h81q121 0 175.5 -46.5t32.5 -151.5l-13 -70h-119z" />
    <glyph glyph-name="uni1EB3" unicode="&#x1eb3;" 
d="M310 -14q-119 0 -176 61t-69 200q-1 21 -1 47t1 46q6 77 32.5 134t82.5 102t151 86q50 22 99 39.5t103 34.5v197q0 57 -23.5 84.5t-86.5 27.5q-53 0 -77.5 -23t-27.5 -81q-1 -18 -1.5 -53t0 -70.5t1.5 -56.5h-221q-1 25 -2 71.5t0 83.5q5 105 38 171.5t104.5 98
t192.5 31.5q125 0 196.5 -34.5t101 -108t29.5 -192.5l-1 -882h-226v120h-32q-30 -67 -71.5 -100.5t-116.5 -33.5zM398 151q46 0 80 25.5t53 70.5v332q-36 -10 -72 -24.5t-73 -36.5q-56 -32 -75 -76.5t-22 -101.5v-38.5t1 -37.5q5 -55 32.5 -84t75.5 -29zM427 1272
q-135 0 -197 60t-69 199h139q1 -75 30 -108t97 -33t97.5 33t29.5 108h139q-7 -139 -69 -199t-197 -60zM369 1566l13 70q11 53 -7 71t-82 18h-81v109h81q121 0 175.5 -46.5t32.5 -151.5l-13 -70h-119z" />
    <glyph glyph-name="uni1EB4" unicode="&#x1eb4;" horiz-adv-x="846" 
d="M33 0l199 1600h382l199 -1600h-232l-38 392h-240l-37 -392h-233zM324 593h198l-34 351l-33 455h-63l-33 -456zM423 1672q-135 0 -197 60t-69 199h139q1 -75 30 -108t97 -33t97.5 33t29.5 108h139q-7 -139 -69 -199t-197 -60zM562 2197h93q-4 -96 -38.5 -141.5
t-98.5 -45.5q-40 0 -63.5 13t-40 30t-33 30t-43.5 13t-38 -19.5t-15 -55.5h-91q7 102 43.5 148t100.5 46q41 0 65 -12.5t40.5 -29.5t32.5 -30t41 -13t34.5 17t10.5 50z" />
    <glyph glyph-name="uni1EB5" unicode="&#x1eb5;" 
d="M310 -14q-119 0 -176 61t-69 200q-1 21 -1 47t1 46q6 77 32.5 134t82.5 102t151 86q50 22 99 39.5t103 34.5v197q0 57 -23.5 84.5t-86.5 27.5q-53 0 -77.5 -23t-27.5 -81q-1 -18 -1.5 -53t0 -70.5t1.5 -56.5h-221q-1 25 -2 71.5t0 83.5q5 105 38 171.5t104.5 98
t192.5 31.5q125 0 196.5 -34.5t101 -108t29.5 -192.5l-1 -882h-226v120h-32q-30 -67 -71.5 -100.5t-116.5 -33.5zM398 151q46 0 80 25.5t53 70.5v332q-36 -10 -72 -24.5t-73 -36.5q-56 -32 -75 -76.5t-22 -101.5v-38.5t1 -37.5q5 -55 32.5 -84t75.5 -29zM427 1272
q-135 0 -197 60t-69 199h139q1 -75 30 -108t97 -33t97.5 33t29.5 108h139q-7 -139 -69 -199t-197 -60zM566 1797h93q-4 -96 -38.5 -141.5t-98.5 -45.5q-40 0 -63.5 13t-40 30t-33 30t-43.5 13t-38 -19.5t-15 -55.5h-91q7 102 43.5 148t100.5 46q41 0 65 -12.5t40.5 -29.5
t32.5 -30t41 -13t34.5 17t10.5 50z" />
    <glyph glyph-name="uni1EB6" unicode="&#x1eb6;" horiz-adv-x="846" 
d="M33 0l199 1600h382l199 -1600h-232l-38 392h-240l-37 -392h-233zM324 593h198l-34 351l-33 455h-63l-33 -456zM343 -240v160h160v-160h-160zM423 1672q-135 0 -197 60t-69 199h139q1 -75 30 -108t97 -33t97.5 33t29.5 108h139q-7 -139 -69 -199t-197 -60z" />
    <glyph glyph-name="uni1EB7" unicode="&#x1eb7;" 
d="M310 -14q-119 0 -176 61t-69 200q-1 21 -1 47t1 46q6 77 32.5 134t82.5 102t151 86q50 22 99 39.5t103 34.5v197q0 57 -23.5 84.5t-86.5 27.5q-53 0 -77.5 -23t-27.5 -81q-1 -18 -1.5 -53t0 -70.5t1.5 -56.5h-221q-1 25 -2 71.5t0 83.5q5 105 38 171.5t104.5 98
t192.5 31.5q125 0 196.5 -34.5t101 -108t29.5 -192.5l-1 -882h-226v120h-32q-30 -67 -71.5 -100.5t-116.5 -33.5zM398 151q46 0 80 25.5t53 70.5v332q-36 -10 -72 -24.5t-73 -36.5q-56 -32 -75 -76.5t-22 -101.5v-38.5t1 -37.5q5 -55 32.5 -84t75.5 -29zM330 -240v160h160
v-160h-160zM427 1272q-135 0 -197 60t-69 199h139q1 -75 30 -108t97 -33t97.5 33t29.5 108h139q-7 -139 -69 -199t-197 -60z" />
    <glyph glyph-name="uni1EB8" unicode="&#x1eb8;" horiz-adv-x="737" 
d="M95 0v1600h595v-201h-368v-488h348v-201h-348v-509h368v-201h-595zM305 -240v160h160v-160h-160z" />
    <glyph glyph-name="uni1EB9" unicode="&#x1eb9;" horiz-adv-x="825" 
d="M426 -17q-178 0 -257 71.5t-88 234.5q-2 56 -3 137t-1 170.5t1 172t3 138.5q10 167 89.5 238.5t252.5 71.5q171 0 248.5 -70t84.5 -231q1 -25 2 -83t0.5 -130.5t-4.5 -142.5h-450q0 -72 1.5 -145t3.5 -149q2 -62 28.5 -86.5t87.5 -24.5q56 0 80.5 24.5t27.5 86.5
q2 30 2 75.5t-2 101.5h221q3 -26 3.5 -72t-1.5 -82q-7 -163 -83 -234.5t-247 -71.5zM305 721h230v92t-0.5 79t-1.5 48q-3 57 -28.5 81t-81.5 24q-61 0 -86.5 -24.5t-27.5 -80.5q-1 -57 -2 -111.5t-2 -107.5zM338 -240v160h160v-160h-160z" />
    <glyph glyph-name="uni1EBA" unicode="&#x1eba;" horiz-adv-x="737" 
d="M95 0v1600h595v-201h-368v-488h348v-201h-348v-509h368v-201h-595zM383 1678l13 70q11 53 -7 71t-82 18h-81v109h81q121 0 175.5 -46.5t32.5 -151.5l-13 -70h-119z" />
    <glyph glyph-name="uni1EBB" unicode="&#x1ebb;" horiz-adv-x="825" 
d="M426 -17q-178 0 -257 71.5t-88 234.5q-2 56 -3 137t-1 170.5t1 172t3 138.5q10 167 89.5 238.5t252.5 71.5q171 0 248.5 -70t84.5 -231q1 -25 2 -83t0.5 -130.5t-4.5 -142.5h-450q0 -72 1.5 -145t3.5 -149q2 -62 28.5 -86.5t87.5 -24.5q56 0 80.5 24.5t27.5 86.5
q2 30 2 75.5t-2 101.5h221q3 -26 3.5 -72t-1.5 -82q-7 -163 -83 -234.5t-247 -71.5zM305 721h230v92t-0.5 79t-1.5 48q-3 57 -28.5 81t-81.5 24q-61 0 -86.5 -24.5t-27.5 -80.5q-1 -57 -2 -111.5t-2 -107.5zM427 1281l13 70q11 53 -7 71t-82 18h-81v109h81
q121 0 175.5 -46.5t32.5 -151.5l-13 -70h-119z" />
    <glyph glyph-name="uni1EBC" unicode="&#x1ebc;" horiz-adv-x="737" 
d="M95 0v1600h595v-201h-368v-488h348v-201h-348v-509h368v-201h-595zM519 1868h93q-4 -96 -38.5 -141.5t-98.5 -45.5q-40 0 -63.5 13t-40 30t-33 30t-43.5 13t-38 -19.5t-15 -55.5h-91q7 102 43.5 148t100.5 46q41 0 65 -12.5t40.5 -29.5t32.5 -30t41 -13t34.5 17t10.5 50z
" />
    </font>
</defs>
</svg>
