<?xml version="1.0" standalone="no"?>
<!DOCTYPE svg PUBLIC "-//W3C//DTD SVG 1.1//EN" "http://www.w3.org/Graphics/SVG/1.1/DTD/svg11.dtd" >
<svg xmlns="http://www.w3.org/2000/svg" xmlns:xlink="http://www.w3.org/1999/xlink" version="1.1">
<metadata>
Created by FontForge 20201107 at Thu Feb  6 15:02:31 2025
 By 
Copyright 2019 The Big Shoulders Project Authors (https://github.com/xotypeco/big_shoulders)
</metadata>
<defs>
<font id="BigShoulders36pt-ExtraBold" horiz-adv-x="958" >
  <font-face 
    font-family="Big Shoulders 36pt ExtraBold"
    font-weight="800"
    font-stretch="normal"
    units-per-em="2000"
    panose-1="0 0 0 0 0 0 0 0 0 0"
    ascent="1600"
    descent="-400"
    x-height="1200"
    cap-height="1600"
    bbox="-597 -443 2142 2430"
    underline-thickness="40"
    underline-position="-100"
    unicode-range="U+0020-FB02"
  />
<missing-glyph horiz-adv-x="1524" 
d="M85 0v1600h1354v-1600h-1354zM537 244h452l-226 318zM362 478l226 319l-226 319v-638zM1162 479v636l-225 -318zM762 1032l230 324h-460z" />
    <glyph glyph-name="fi" unicode="fi" horiz-adv-x="1129" 
d="M152 0v991h-134v209h134v81q0 182 97 261t301 79q34 0 73.5 -4t75.5 -10v-202q-36 1 -73.5 1h-75.5q-58 0 -88 -26t-30 -77v-103h219v-209h-219v-991h-280zM756 1384v216h286v-216h-286zM761 0v1200h277v-1200h-277z" />
    <glyph glyph-name="fl" unicode="fl" horiz-adv-x="1143" 
d="M152 0v991h-134v209h134v81q0 182 97 261t301 79q34 0 73.5 -4t75.5 -10v-202q-36 1 -73.5 1h-75.5q-58 0 -88 -26t-30 -77v-103h219v-209h-219v-991h-280zM774 0v1600h277v-1600h-277z" />
    <glyph glyph-name="f_f" unicode="ff" horiz-adv-x="1300" 
d="M152 0l-1 991h-133v209h133v81q0 182 97.5 261t301.5 79q34 0 73.5 -4t75.5 -10v-202q-36 1 -73.5 1h-75.5q-58 0 -88.5 -26t-30.5 -77v-103h338v80q0 183 97.5 261.5t301.5 78.5q34 0 73.5 -3.5t75.5 -9.5v-202h-73.5h-75.5q-58 0 -88.5 -26t-30.5 -77v-102h210v-209
h-210l1 -992h-280l-1 992h-338l1 -991h-280z" />
    <glyph glyph-name="f_f_i" unicode="ffi" horiz-adv-x="1747" 
d="M152 0l-1 991h-133v209h133v81q0 182 97.5 261t301.5 79q34 0 73.5 -4t75.5 -10v-202q-36 1 -73.5 1h-75.5q-58 0 -88.5 -26t-30.5 -77v-103h338v80q0 183 97.5 261.5t301.5 78.5q34 0 73.5 -3.5t75.5 -9.5v-202h-73.5h-75.5q-58 0 -88.5 -26t-30.5 -77v-102h210v-209
h-210l1 -992h-280l-1 992h-338l1 -991h-280zM1374 1384v216h286v-216h-286zM1379 0v1200h277v-1200h-277z" />
    <glyph glyph-name="f_f_l" unicode="ffl" horiz-adv-x="1761" 
d="M152 0l-1 991h-133v209h133v81q0 182 97.5 261t301.5 79q34 0 73.5 -4t75.5 -10v-202q-36 1 -73.5 1h-75.5q-58 0 -88.5 -26t-30.5 -77v-103h338v80q0 183 97.5 261.5t301.5 78.5q34 0 73.5 -3.5t75.5 -9.5v-202h-73.5h-75.5q-58 0 -88.5 -26t-30.5 -77v-102h210v-209
h-210l1 -992h-280l-1 992h-338l1 -991h-280zM1392 0v1600h277v-1600h-277z" />
    <glyph glyph-name=".notdef" horiz-adv-x="1524" 
d="M85 0v1600h1354v-1600h-1354zM537 244h452l-226 318zM362 478l226 319l-226 319v-638zM1162 479v636l-225 -318zM762 1032l230 324h-460z" />
    <glyph glyph-name=".null" horiz-adv-x="0" 
 />
    <glyph glyph-name="nonmarkingreturn" horiz-adv-x="666" 
 />
    <glyph glyph-name="space" unicode=" " horiz-adv-x="436" 
 />
    <glyph glyph-name="exclam" unicode="!" horiz-adv-x="511" 
d="M142 421l-37 640v539h278v-539l-37 -640h-204zM70 0v264h347v-264h-347z" />
    <glyph glyph-name="quotedbl" unicode="&#x22;" horiz-adv-x="793" 
d="M132 1054l-50 274v272h234v-272l-49 -274h-135zM526 1054l-49 274v272h234v-272l-50 -274h-135z" />
    <glyph glyph-name="numbersign" unicode="#" horiz-adv-x="1447" 
d="M173 0l94 429h-207l54 226h201l70 306h-206l54 226h199l92 413h279l-92 -413h199l92 413h278l-92 -413h199l-51 -226h-196l-70 -306h197l-55 -226h-189l-95 -429h-277l94 429h-200l-94 -429h-278zM594 655h198l71 306h-200z" />
    <glyph glyph-name="dollar" unicode="$" horiz-adv-x="952" 
d="M355 -215v205q-146 22 -211.5 111.5t-73.5 261.5q-1 36 -1 76.5t2 81t7 76.5h260q-4 -76 -4.5 -149t4.5 -135q5 -52 39.5 -79t99.5 -27q63 0 95 27t38 79q4 36 5.5 71.5t0 71.5t-5.5 72q-4 48 -31 84t-78 48l-165 39q-101 25 -159.5 74t-84.5 122.5t-29 173.5
q-1 47 -1 87.5t1 82.5q8 172 74.5 261t217.5 111v223h241v-223q144 -22 211 -111.5t74 -260.5q2 -46 0.5 -110t-4.5 -122h-266q3 72 4 142t-2 140q-1 51 -36.5 77.5t-99.5 26.5t-97.5 -26.5t-39.5 -77.5q-5 -55 -5 -110t5 -110q5 -47 27.5 -82t74.5 -46l146 -33
q109 -24 173.5 -74.5t94 -127t33.5 -178.5q1 -27 1 -55t-1 -55.5t-2 -54.5q-7 -174 -74.5 -263t-216.5 -112v-203h-241z" />
    <glyph glyph-name="percent" unicode="%" horiz-adv-x="1330" 
d="M100 0l937 1600h192l-938 -1600h-191zM979 -11q-120 0 -187.5 60.5t-73.5 177.5q-2 46 -2 88.5t0.5 86t1.5 95.5q5 113 72 173.5t189 60.5q121 0 188.5 -61t74.5 -173q2 -33 2.5 -68t0.5 -70t-1 -68.5t-2 -63.5q-7 -114 -74.5 -176t-188.5 -62zM979 148q27 0 41.5 13
t16.5 31q4 26 5.5 69t1.5 93t-1.5 96.5t-5.5 79.5q-1 18 -15 30t-43 12q-27 0 -41.5 -12t-16.5 -30q-4 -45 -5.5 -112t0 -129.5t5.5 -95.5q3 -17 17.5 -31t40.5 -14zM330 867q-119 0 -187 60.5t-73 177.5q-2 46 -2.5 88.5t0 86t2.5 95.5q4 113 71 173.5t189 60.5t189 -61
t74 -173q2 -33 2.5 -68t0.5 -70t-0.5 -68.5t-2.5 -63.5q-7 -114 -74 -176t-189 -62zM330 1026q28 0 42 13t17 31q3 26 5 69t2 93t-2 96.5t-5 79.5q-1 18 -15.5 30t-43.5 12q-27 0 -41.5 -12t-16.5 -30q-4 -45 -5.5 -111.5t0 -129.5t5.5 -96q3 -17 17.5 -31t40.5 -14z" />
    <glyph glyph-name="ampersand" unicode="&#x26;" horiz-adv-x="1220" 
d="M511 -19q-219 0 -317.5 89t-107.5 292q-1 43 -1 73t1 59.5t3 71.5q6 122 56 195.5t119 127.5q-41 86 -68.5 170t-36.5 164q-23 177 65 286.5t291 109.5q195 0 280.5 -99.5t66.5 -282.5q-11 -100 -61.5 -192t-142.5 -176q-14 -12 -29.5 -25t-32.5 -26q30 -49 64 -97.5
t68 -95.5q-1 40 -5.5 86t-11.5 100h224q7 -60 12 -137.5t5.5 -158t-4.5 -148.5q56 -63 104.5 -114.5t83.5 -88.5l-179 -171l-56 60t-57 60q-33 -46 -80 -75t-110 -43t-143 -14zM518 200q42 0 72.5 11t50 34.5t29.5 59.5q-72 86 -141 174.5t-129 179.5q-17 -20 -28 -46
t-14 -58q-3 -37 -4.5 -63t-0.5 -56.5t3 -80.5q5 -75 43.5 -115t118.5 -40zM475 1023q49 37 79.5 73t46 71t20.5 69q16 91 -6 146t-100 55q-63 0 -88.5 -50.5t-21.5 -120.5q3 -54 22 -116t48 -127z" />
    <glyph glyph-name="quotesingle" unicode="'" horiz-adv-x="406" 
d="M134 1054l-52 274v272h242v-272l-52 -274h-138z" />
    <glyph glyph-name="parenleft" unicode="(" horiz-adv-x="591" 
d="M331 -400q-82 112 -143 270.5t-94.5 347t-33.5 391.5q0 180 29 365t89 348.5t153 277.5h200q-90 -226 -137.5 -484.5t-47.5 -515.5q0 -170 21 -344t62.5 -340t101.5 -316h-200z" />
    <glyph glyph-name="parenright" unicode=")" horiz-adv-x="570" 
d="M239 -400h-200q60 150 101.5 316t62.5 340t21 344q0 257 -47.5 515.5t-137.5 484.5h200q93 -114 153 -277.5t89 -348.5t29 -365q0 -203 -33.5 -391.5t-94.5 -347t-143 -270.5z" />
    <glyph glyph-name="asterisk" unicode="*" horiz-adv-x="532" 
d="M40 1333l135 59l-135 59l57 98l122 -80l-12 139h117l-13 -137l123 78l58 -98l-135 -59l135 -59l-58 -98l-123 80l13 -139h-117l12 137l-122 -78z" />
    <glyph glyph-name="plus" unicode="+" horiz-adv-x="1067" 
d="M428 283v335h-334v209h334v335h211v-335h334v-209h-334v-335h-211z" />
    <glyph glyph-name="comma" unicode="," horiz-adv-x="509" 
d="M116 -273l125 273h-161v270h349v-245l-163 -298h-150z" />
    <glyph glyph-name="hyphen" unicode="-" horiz-adv-x="880" 
d="M60 594v244h760v-244h-760z" />
    <glyph glyph-name="period" unicode="." horiz-adv-x="487" 
d="M70 0v264h347v-264h-347z" />
    <glyph glyph-name="slash" unicode="/" horiz-adv-x="820" 
d="M60 -400l421 2000h279l-421 -2000h-279z" />
    <glyph glyph-name="zero" unicode="0" horiz-adv-x="1000" 
d="M500 -19q-195 0 -301.5 99t-110.5 283q-4 150 -5 297.5t0.5 293t4.5 284.5q4 185 110.5 283t301.5 98q192 0 298 -98t112 -283q3 -113 5 -224.5t2 -221t-2 -216.5t-5 -213q-6 -188 -113.5 -285t-296.5 -97zM500 207q124 0 129 102q7 168 9.5 329t0 322.5t-9.5 330.5
q-3 102 -129 102q-129 0 -132 -103q-4 -129 -6.5 -250.5t-2.5 -240t2.5 -239t6.5 -248.5q3 -105 132 -105z" />
    <glyph glyph-name="one" unicode="1" horiz-adv-x="547" 
d="M169 0v1352h-108l-8 99l174 149h225v-1600h-283z" />
    <glyph glyph-name="two" unicode="2" horiz-adv-x="963" 
d="M81 0q-1 40 -1.5 72t-1 60l-1 56t0 61.5t1.5 75.5q3 108 37 194t99.5 155t163.5 122l132 73q67 38 86.5 91.5t21.5 98.5q3 54 3.5 114t-2.5 115q-3 50 -36 77.5t-100 27.5q-64 0 -93.5 -27t-31.5 -74q-3 -75 -3 -142.5t3 -143.5h-276q-2 41 -3 82.5t-1.5 79.5t0.5 70
q8 205 103 293t302 88q147 0 236.5 -38.5t131.5 -122.5t47 -220q1 -23 1.5 -45.5t0.5 -44.5v-44.5t-2 -44.5q-3 -104 -37.5 -183t-96 -138.5t-146.5 -106.5l-152 -84q-40 -23 -63 -62t-32.5 -82t-9.5 -78v-81h516v-244h-797z" />
    <glyph glyph-name="three" unicode="3" horiz-adv-x="978" 
d="M489 -19q-223 0 -323.5 88.5t-106.5 294.5q-1 36 -1.5 59.5t0 47.5t1.5 62h281v-206q0 -58 36.5 -89t104.5 -31q69 0 104.5 31t36.5 88q2 65 2.5 125.5t-2.5 111.5q-3 60 -33.5 101.5t-120.5 39.5l-187 -2l-8 233l297 421h-491v244h812l-4 -236l-308 -421
q160 -13 237 -102.5t86 -281.5q1 -26 1.5 -50t0.5 -47.5v-47.5t-2 -50q-9 -206 -105 -294.5t-308 -88.5z" />
    <glyph glyph-name="four" unicode="4" horiz-adv-x="1010" 
d="M534 0v414h-484v231l377 955h370v-944h173v-242h-173v-414h-263zM318 656h216l37 377l32 323h-55l-100 -323z" />
    <glyph glyph-name="five" unicode="5" horiz-adv-x="1005" 
d="M512 -19q-224 0 -323.5 88.5t-105.5 294.5q-2 58 -1 95l2 74h281q-3 -28 -4.5 -68.5t-1 -78.5t2.5 -58q6 -60 41 -90.5t101 -30.5q69 0 103.5 31t38.5 90q8 102 9 188t-6 164q-5 56 -37 83.5t-94 27.5q-44 0 -76.5 -13t-50.5 -37t-19 -57h-265v916h795v-244h-516v-447h43
q27 46 84.5 78.5t135.5 32.5q135 0 202.5 -88.5t76.5 -241.5q3 -58 4 -115t-0.5 -110.5t-5.5 -100.5q-13 -137 -56.5 -221.5t-129.5 -123t-228 -38.5z" />
    <glyph glyph-name="six" unicode="6" horiz-adv-x="985" 
d="M496 -19q-218 0 -313 88.5t-97 294.5q-1 153 -2 291.5t-1 254t1 199.5t2 129q8 195 114 288t294 93q195 0 299 -97.5t111 -275.5q0 -21 0.5 -42t0 -44.5t-1.5 -53.5h-279q3 32 3.5 56.5t-0.5 53t-3 73.5q-1 48 -31.5 76t-96.5 28q-63 0 -95.5 -26.5t-34.5 -77.5
q-3 -84 -5 -185t-2 -214h51q27 48 86 79.5t136 31.5q159 0 219.5 -76t63.5 -254q1 -63 1.5 -111.5t-0.5 -94.5t-3 -101q-11 -206 -105.5 -294.5t-311.5 -88.5zM498 207q65 0 99 27t35 79q2 53 3 99t1.5 88.5t0.5 83t-2 81.5q-1 53 -36 80t-94 27q-65 0 -104.5 -27t-41.5 -77
q1 -85 2 -173.5t4 -179.5q2 -53 36 -80.5t97 -27.5z" />
    <glyph glyph-name="seven" unicode="7" horiz-adv-x="930" 
d="M149 0l455 1356h-569v244h848v-251l-443 -1349h-291z" />
    <glyph glyph-name="eight" unicode="8" horiz-adv-x="986" 
d="M493 -19q-217 0 -311 91t-103 292q-1 29 -1 53t1 50t4 62q10 107 51 168.5t123 96.5v40q-57 21 -99.5 68t-56.5 119q-5 31 -8 70t-4.5 78t0.5 67q9 204 101 293.5t303 89.5q207 0 300.5 -88.5t103.5 -294.5q1 -28 0 -67.5t-4.5 -79t-8.5 -67.5q-14 -73 -56 -120t-100 -68
v-42q75 -35 118 -97t56 -165q6 -49 6 -88t-2 -78q-9 -205 -104 -294t-309 -89zM493 207q68 0 100.5 30.5t32.5 89.5v77.5v76.5v77q0 60 -32.5 91t-100.5 31t-100.5 -31t-32.5 -91q-1 -58 -1 -115.5t1 -114.5q0 -59 32.5 -90t100.5 -31zM493 944q67 0 100 31t33 90v105v103
q0 59 -32.5 89.5t-100.5 30.5q-67 0 -100 -30.5t-33 -89.5q-1 -27 -1 -53v-51.5t0.5 -51t0.5 -52.5q0 -59 33 -90t100 -31z" />
    <glyph glyph-name="nine" unicode="9" horiz-adv-x="985" 
d="M499 -19q-213 0 -307.5 88.5t-95.5 292.5v40.5t0.5 46t1.5 44.5h279q-1 -46 -2 -87.5t2 -94.5q2 -48 27.5 -76t91.5 -28q59 0 89 26t33 80q4 79 6 179.5t3 215.5h-43q-23 -47 -75 -79t-131 -32q-80 0 -151 35t-114.5 111.5t-44.5 199.5v91.5v78.5t0.5 67t1.5 56
q7 206 105 294.5t312 88.5q218 0 312 -89t98 -294q4 -174 4.5 -317.5t-0.5 -277.5t-4 -279q-4 -204 -99 -292.5t-299 -88.5zM489 826q62 0 96.5 23.5t40.5 66.5q-1 91 -3 185t-6 188q-1 51 -35 77.5t-97 26.5q-64 0 -99 -26.5t-36 -79.5q0 -24 -0.5 -69t-1 -98t-1 -103
t0.5 -86q2 -51 41.5 -78t99.5 -27z" />
    <glyph glyph-name="colon" unicode=":" horiz-adv-x="507" 
d="M80 600v264h347v-264h-347zM80 0v264h347v-264h-347z" />
    <glyph glyph-name="semicolon" unicode=";" horiz-adv-x="519" 
d="M126 -273l125 273h-161v270h349v-245l-162 -298h-151zM80 601v264h347v-264h-347z" />
    <glyph glyph-name="less" unicode="&#x3c;" horiz-adv-x="1142" 
d="M1037 426l-932 136v331l932 141v-226l-438 -46l-288 -7v-53l288 -7l438 -44v-225z" />
    <glyph glyph-name="equal" unicode="=" horiz-adv-x="1029" 
d="M84 802v209h862v-209h-862zM84 438v208h862v-208h-862z" />
    <glyph glyph-name="greater" unicode="&#x3e;" horiz-adv-x="1100" 
d="M84 426v225l438 44l288 7v53l-288 7l-438 46v226l932 -141v-331z" />
    <glyph glyph-name="question" unicode="?" horiz-adv-x="961" 
d="M355 439l-4 93q-6 82 4 142.5t48 110t116 98.5l36 23q24 14 35 40.5t14.5 59t3.5 65.5v209q0 50 -34 76t-97 26q-60 0 -92.5 -26.5t-35.5 -75.5q-4 -66 -4 -133t3 -123h-288q-2 39 -3 70t-1 62t2 70q11 213 106.5 304.5t310.5 91.5q230 0 330 -92t100 -304v-50.5v-51.5
v-53q0 -111 -20.5 -178t-51.5 -104t-65 -55.5t-61 -32.5l-50 -26q-44 -22 -53 -61.5t-15 -81.5l-8 -93h-226zM296 0v264h347v-264h-347z" />
    <glyph glyph-name="at" unicode="@" horiz-adv-x="1408" 
d="M702 -310q-216 0 -350 45t-197.5 142t-66.5 255q-2 111 -3.5 215.5t-1.5 212t1 226.5t4 259q3 165 66 267t197.5 149t350.5 47q213 0 346.5 -47t199 -149.5t70.5 -268.5q3 -90 4.5 -171.5t1.5 -159t-1.5 -153t-4.5 -151.5q-4 -104 -77.5 -156t-198.5 -52
q-126 0 -184.5 29t-78.5 69h-44q-26 -45 -55.5 -72.5t-90.5 -27.5q-81 0 -122 52.5t-52 174.5q-4 58 -5 125t1 131t4 112q8 124 51.5 177.5t125.5 53.5q56 0 85.5 -25t57.5 -77h28v88h215l1 -597q0 -35 17 -54t46 -19q25 0 40.5 19.5t18.5 55.5q3 56 5.5 130t3 158.5t-1 174
t-5.5 178.5q-7 143 -96.5 206.5t-304.5 63.5q-210 0 -300 -62t-95 -208q-4 -125 -5.5 -243.5t-1.5 -233.5t1.5 -228.5t5.5 -230.5q5 -134 95 -191t300 -57q207 0 298 53.5t92 188.5v13.5v14.5h213q1 -8 1 -14t-1 -14q0 -156 -61 -249t-193.5 -134t-348.5 -41zM680 351
q19 0 45.5 15.5t37.5 36.5v412q-10 25 -38.5 39.5t-44.5 14.5q-26 0 -36.5 -15t-12.5 -41q-5 -74 -6 -136t1 -125.5t6 -141.5q2 -33 14 -46t34 -13z" />
    <glyph glyph-name="A" unicode="A" 
d="M32 0l215 1600h465l214 -1600h-284l-36 353h-254l-35 -353h-285zM378 597h203l-36 352l-27 407h-78l-27 -407z" />
    <glyph glyph-name="B" unicode="B" horiz-adv-x="949" 
d="M95 0v1600h375q213 0 311 -86t98 -285v-72t-2 -65q-7 -106 -47 -168t-126 -90v-46q89 -29 130 -92t45 -171q2 -42 2 -76.5t-2 -77.5q-8 -198 -101.5 -284.5t-306.5 -86.5h-376zM372 245h99q65 0 98 33t33 96q1 36 1 69t-1 69q0 97 -30.5 137.5t-100.5 40.5h-99v-445z
M372 935h100q64 0 96.5 42.5t33.5 121.5v72.5v72.5q-1 55 -34 83.5t-98 28.5h-98v-421z" />
    <glyph glyph-name="C" unicode="C" horiz-adv-x="976" 
d="M495 -19q-218 0 -312.5 88.5t-99.5 293.5q-2 107 -3 216.5t-1 220.5t1 221.5t3 218.5q3 188 101.5 283.5t310.5 95.5q208 0 304.5 -91t102.5 -289q1 -35 1 -75.5t-1 -81t-2 -75.5h-277q1 39 2 84.5t1 91.5t-1 85q-1 65 -32.5 95t-97.5 30q-68 0 -100.5 -30t-34.5 -95
q-3 -115 -4.5 -232.5t-1.5 -235.5t1.5 -235t4.5 -232q2 -66 34.5 -96t100.5 -30q70 0 103 30t35 96q2 42 2.5 85.5t-0.5 88t-2 90.5h277q2 -55 2 -118.5t-2 -115.5q-6 -205 -102 -293.5t-313 -88.5z" />
    <glyph glyph-name="D" unicode="D" horiz-adv-x="984" 
d="M95 0v1600h397q214 0 309.5 -90.5t99.5 -297.5q3 -147 4 -279.5t0 -264t-4 -278.5q-4 -208 -99 -299t-309 -91h-398zM372 244h121q64 0 97 29t34 85q3 113 4.5 223.5t1.5 220t-1.5 220t-4.5 222.5q-1 55 -34 83.5t-98 28.5h-120v-1112z" />
    <glyph glyph-name="E" unicode="E" horiz-adv-x="829" 
d="M95 0v1600h683v-244h-406v-421h386v-244h-386v-447h406v-244h-683z" />
    <glyph glyph-name="F" unicode="F" horiz-adv-x="818" 
d="M95 0v1600h684v-244h-407v-421h387v-244h-387v-691h-277z" />
    <glyph glyph-name="G" unicode="G" horiz-adv-x="983" 
d="M498 -19q-145 0 -234 38.5t-131.5 122.5t-47.5 221q-3 92 -4.5 203.5t-1.5 229t1.5 227.5t4.5 199q6 143 49 230.5t131.5 127t231.5 39.5q207 0 301 -88t106 -292q3 -51 3 -115.5t-3 -116.5h-277q3 65 3 136t-3 136q-3 60 -34 87t-96 27q-68 0 -99.5 -27t-35.5 -87
q-5 -112 -8 -233t-3 -245t3 -245t8 -233q4 -61 35.5 -88.5t100.5 -27.5t103.5 27.5t39.5 88.5q1 27 1.5 64t0 74t-1.5 64h-116v241h385q5 -93 4 -200.5t-5 -202.5q-10 -205 -105 -293.5t-306 -88.5z" />
    <glyph glyph-name="H" unicode="H" horiz-adv-x="984" 
d="M95 0v1600h277v-665h240v665h277v-1600h-277v691h-240v-691h-277z" />
    <glyph glyph-name="I" unicode="I" horiz-adv-x="467" 
d="M95 0v1600h277v-1600h-277z" />
    <glyph glyph-name="J" unicode="J" horiz-adv-x="908" 
d="M431 -19q-139 0 -223 38.5t-123.5 122.5t-43.5 221q-1 54 -1 117t1 117h261q-1 -39 -1.5 -88t0 -98t1.5 -88q2 -60 32.5 -88t96.5 -28t94.5 28t28.5 88v1277h277v-1237q0 -205 -91.5 -293.5t-308.5 -88.5z" />
    <glyph glyph-name="K" unicode="K" horiz-adv-x="984" 
d="M95 0v1600h295l-3 -386l-39 -371h63l102 376l139 381h303l-262 -667l275 -933h-281l-182 639l-127 -266v-373h-283z" />
    <glyph glyph-name="L" unicode="L" horiz-adv-x="785" 
d="M95 0v1600h277v-1356h387v-244h-664z" />
    <glyph glyph-name="M" unicode="M" horiz-adv-x="1544" 
d="M95 0v1600h484l127 -613l32 -742h71l29 742l129 613h482v-1600h-282v491l53 865h-76l-87 -886l-122 -469h-331l-114 469l-89 886h-74l51 -865v-491h-283z" />
    <glyph glyph-name="N" unicode="N" horiz-adv-x="1136" 
d="M95 0v1600h441l115 -509l114 -847h74l-51 688l-21 668h274v-1600h-462l-116 531l-87 827h-78l47 -746l23 -612h-273z" />
    <glyph glyph-name="O" unicode="O" horiz-adv-x="993" 
d="M495 -19q-215 0 -311 88.5t-100 294.5q-3 113 -4 221.5t-1 216t1 216t4 220.5q4 205 100 293t311 88t309.5 -88t101.5 -293q4 -113 6 -222t2 -216.5t-2 -215.5t-6 -220q-7 -206 -101.5 -294.5t-309.5 -88.5zM495 207q70 0 101.5 30.5t32.5 96.5q5 114 7 231t2 236
t-2.5 236.5t-6.5 230.5q-1 65 -33 95t-101 30q-67 0 -99.5 -30t-34.5 -95q-5 -113 -7.5 -230.5t-2.5 -236t2.5 -236t7.5 -231.5q2 -66 34.5 -96.5t99.5 -30.5z" />
    <glyph glyph-name="P" unicode="P" horiz-adv-x="945" 
d="M95 0v1600h389q212 0 306.5 -86t100.5 -284q3 -92 3 -169t-3 -165q-7 -198 -101 -284t-306 -86h-112v-526h-277zM372 770h112q64 0 95.5 29t34.5 82q3 54 4 117.5t0 127t-4 118.5t-34.5 83.5t-95.5 28.5h-112v-586z" />
    <glyph glyph-name="Q" unicode="Q" horiz-adv-x="993" 
d="M857 -282q-175 -13 -266.5 49t-116.5 214q-204 4 -295 93t-95 290q-3 113 -4 221.5t-1 216t1 216t4 220.5q4 205 100 293t311 88t309.5 -88t101.5 -293q4 -113 6 -222t2 -216.5t-2 -215.5t-6 -220q-4 -133 -45 -215.5t-126 -123.5q3 -49 34 -70.5t88 -14.5v-222zM495 207
q70 0 101.5 30.5t32.5 96.5q5 114 7 231t2 236t-2.5 236.5t-6.5 230.5q-1 65 -32.5 95t-101.5 30q-67 0 -99.5 -30t-34.5 -95q-5 -113 -7.5 -230.5t-2.5 -236t2.5 -236t7.5 -231.5q2 -66 34.5 -96.5t99.5 -30.5z" />
    <glyph glyph-name="R" unicode="R" horiz-adv-x="955" 
d="M95 0v1600h380q211 0 305.5 -86t101.5 -284q2 -62 2.5 -109.5t0 -94t-2.5 -105.5q-4 -125 -42.5 -204t-118.5 -120l184 -597h-294l-151 551h-88v-551h-277zM372 795h102q64 0 96 29t35 83t4 111t0 114.5t-4 111.5q-3 55 -35 83.5t-95 28.5h-103v-561z" />
    <glyph glyph-name="S" unicode="S" horiz-adv-x="952" 
d="M477 -19q-212 0 -305 88.5t-102 293.5q-1 36 -1 76.5t2 81t7 76.5h260q-4 -76 -4.5 -149t4.5 -135q5 -52 39.5 -79t99.5 -27q63 0 95 27t38 79q4 36 5.5 71.5t0 71.5t-5.5 72q-4 48 -31 84t-78 48l-165 39q-101 25 -159.5 74t-84.5 122.5t-29 173.5q-1 47 -1 87.5t1 82.5
q6 136 48.5 219.5t131.5 122t234 38.5q209 0 302.5 -88t101.5 -292q2 -46 0.5 -110t-4.5 -122h-266q3 72 4 142t-2 140q-1 51 -36.5 77.5t-99.5 26.5t-97.5 -26.5t-39.5 -77.5q-5 -55 -5 -110t5 -110q5 -47 27.5 -82t74.5 -46l146 -33q109 -24 173.5 -74.5t94 -127
t33.5 -178.5q1 -27 1 -55t-1 -55.5t-2 -54.5q-8 -205 -102 -293.5t-308 -88.5z" />
    <glyph glyph-name="T" unicode="T" horiz-adv-x="824" 
d="M273 0v1356h-262v244h802v-244h-263v-1356h-277z" />
    <glyph glyph-name="U" unicode="U" horiz-adv-x="984" 
d="M493 -19q-219 0 -314 88.5t-98 293.5q-4 307 -4 618.5t4 618.5h277q-4 -205 -4.5 -422t1 -434t3.5 -422q0 -55 34.5 -84.5t100.5 -29.5t99 29.5t33 84.5q2 205 3.5 422t1 434t-4.5 422h278q4 -307 4 -618.5t-4 -618.5q-3 -205 -98 -293.5t-312 -88.5z" />
    <glyph glyph-name="V" unicode="V" horiz-adv-x="981" 
d="M253 0l-223 1600h286l115 -815l21 -541h77l22 541l114 815h286l-223 -1600h-475z" />
    <glyph glyph-name="W" unicode="W" horiz-adv-x="1605" 
d="M188 0l-146 1600h279l49 -712l32 -644h76l3 644l128 702h386l129 -702l3 -644h75l32 644l50 712h279l-146 -1600h-480l-70 458l-28 897h-74l-28 -897l-70 -458h-479z" />
    <glyph glyph-name="X" unicode="X" horiz-adv-x="917" 
d="M22 0l240 830l-234 770h271l100 -375l31 -284h61l30 284l97 375h271l-223 -780l230 -820h-272l-102 394l-31 302h-61l-31 -302l-106 -394h-271z" />
    <glyph glyph-name="Y" unicode="Y" horiz-adv-x="894" 
d="M308 0v462l-20 1l-270 1137h283l84 -398l34 -468h56l33 468l85 398h282l-270 -1137l-20 -1v-462h-277z" />
    <glyph glyph-name="Z" unicode="Z" horiz-adv-x="819" 
d="M32 0v231l457 1125h-433v244h730v-236l-474 -1120h443v-244h-723z" />
    <glyph glyph-name="bracketleft" unicode="[" horiz-adv-x="706" 
d="M84 -400v2000h562v-131h-281v-1738h281v-131h-562z" />
    <glyph glyph-name="backslash" unicode="\" horiz-adv-x="795" 
d="M735 -400h-279l-421 2000h279z" />
    <glyph glyph-name="bracketright" unicode="]" horiz-adv-x="706" 
d="M630 -400h-562v131h280v1738h-280v131h562v-2000z" />
    <glyph glyph-name="asciicircum" unicode="^" horiz-adv-x="867" 
d="M84 870l258 508h182l259 -508h-182l-168 331l-167 -331h-182z" />
    <glyph glyph-name="underscore" unicode="_" horiz-adv-x="1335" 
d="M60 -120v40h1215v-40h-1215z" />
    <glyph glyph-name="grave" unicode="`" horiz-adv-x="547" 
d="M261 1280l-179 271h190l170 -271h-181z" />
    <glyph glyph-name="a" unicode="a" horiz-adv-x="945" 
d="M332 -15q-133 0 -197 63.5t-77 216.5q-1 19 -1 45t1 44q7 80 37.5 137.5t95.5 101t173 83.5q55 20 107 35t113 30v165q0 53 -25.5 79t-87.5 26q-53 0 -77.5 -21.5t-27.5 -72.5q-2 -14 -2.5 -50.5t0.5 -72.5t2 -49h-269q-1 16 -2 59.5t0 81.5q5 116 42 189.5t119.5 108.5
t223.5 35q144 0 226.5 -38.5t117 -122t34.5 -216.5l-2 -842h-276v127h-40q-35 -73 -80 -107.5t-128 -34.5zM445 183q45 0 80.5 23.5t55.5 62.5l2 291q-39 -9 -77 -20.5t-73 -27.5q-58 -27 -76.5 -68t-21.5 -90q-1 -23 -1 -36t1 -32q5 -50 32.5 -76.5t77.5 -26.5z" />
    <glyph glyph-name="b" unicode="b" horiz-adv-x="989" 
d="M634 -19q-95 0 -142 37.5t-89 108.5h-30v-127h-281v1600h281v-527h48q42 71 90 108.5t142 37.5q125 0 189 -74.5t72 -249.5q2 -55 3.5 -133.5t1.5 -163.5t-1.5 -162.5t-3.5 -130.5q-8 -173 -81 -248.5t-199 -75.5zM533 183q53 0 75.5 24t25.5 74q4 64 5.5 144.5t2 167
t-1 170t-5.5 154.5q-3 50 -25.5 75t-76.5 25q-46 0 -93.5 -24.5t-66.5 -66.5v-652q19 -42 67 -66.5t93 -24.5z" />
    <glyph glyph-name="c" unicode="c" horiz-adv-x="916" 
d="M577 745q1 22 1.5 55t0 65.5t-1.5 51.5q-2 49 -25.5 71.5t-83.5 22.5q-61 0 -85.5 -21.5t-26.5 -72.5q-3 -85 -4 -163.5t-1 -154t1 -151.5t4 -157q2 -55 28 -78.5t87 -23.5q59 0 81.5 24.5t24.5 78.5q2 30 2 70.5t-2 96.5h273q2 -16 3 -60t-1 -78q-8 -181 -97 -260.5
t-284 -79.5q-205 0 -295 80t-100 260q-3 47 -4 122.5t-1 159.5t1.5 157t3.5 115q13 185 104 264.5t288 79.5q198 0 287 -77.5t97 -255.5q2 -34 1 -80.5t-3 -60.5h-273z" />
    <glyph glyph-name="d" unicode="d" horiz-adv-x="990" 
d="M342 -19q-125 0 -191.5 75.5t-74.5 248.5q-3 55 -4 133.5t-1 163.5t1.5 162.5t3.5 130.5q8 175 77 249.5t193 74.5q95 0 142.5 -37.5t89.5 -108.5h39v527h281v-1600h-281v127h-41q-41 -70 -90.5 -108t-143.5 -38zM457 183q45 0 93 24.5t67 66.5v652q-19 42 -67 66.5
t-93 24.5q-50 0 -74 -23.5t-27 -70.5q-5 -100 -7 -214t0 -225t7 -202q3 -51 26 -75t75 -24z" />
    <glyph glyph-name="e" unicode="e" horiz-adv-x="915" 
d="M472 -19q-205 0 -295 80t-101 260q-3 47 -4 122.5t-1 159.5t1.5 157t3.5 115q13 185 104 264.5t288 79.5q198 0 287 -77.5t97 -255.5q1 -24 1.5 -80t0 -124.5t-3.5 -128.5h-499q0 -64 1.5 -129t3.5 -133q2 -55 28.5 -78.5t86.5 -23.5q57 0 80 23.5t26 79.5q2 28 2.5 69.5
t-2.5 97.5h273q2 -16 3 -60t-1 -78q-9 -181 -97 -260.5t-283 -79.5zM352 745h227v74.5t-0.5 61.5t-1.5 36q-3 51 -27.5 72.5t-81.5 21.5q-61 0 -85.5 -22t-26.5 -72q-1 -44 -2 -87t-2 -85z" />
    <glyph glyph-name="f" unicode="f" horiz-adv-x="682" 
d="M152 0v991h-134v209h134v81q0 182 97 261t301 79q34 0 73.5 -4t75.5 -10v-202q-36 1 -73.5 1h-75.5q-58 0 -88 -26t-30 -77v-103h219v-209h-219v-991h-280z" />
    <glyph glyph-name="g" unicode="g" horiz-adv-x="997" 
d="M451 -393q-166 0 -258 47t-112 135q-3 13 -4.5 33t0.5 37q7 50 40.5 85.5t92.5 42.5v39q-54 10 -86 39t-39 76q-2 18 -2 31.5t2 29.5q5 44 45.5 70.5t102.5 35.5v40q-83 36 -123.5 111t-48.5 194q-1 34 -2 63t-1 55.5t1 52t2 51.5q8 121 50 197t127 111.5t223 35.5
q131 0 212.5 -32t124.5 -103h40q8 61 45 88.5t112 27.5v-210h-32q-50 0 -78 -22.5t-28 -83.5v-59v-38.5t0.5 -40.5t0 -44t-2.5 -49q-8 -124 -49.5 -200t-125.5 -110.5t-220 -34.5q-94 0 -133 -13.5t-39 -44.5v-7q0 -20 10.5 -32.5t45.5 -17.5t109 -6q206 -4 304 -65
t119 -179q3 -18 3.5 -41t-3.5 -50q-12 -86 -61 -140.5t-139 -79.5t-225 -25zM464 -203q55 0 94.5 8.5t63.5 25.5t32 42q6 16 5 30t-6 29q-9 24 -32.5 40t-62.5 23.5t-93 7.5q-77 1 -119.5 -16.5t-53.5 -54.5q-4 -16 -4 -31t4 -29q7 -25 28.5 -42t57.5 -25t86 -8zM459 515
q62 0 91.5 26.5t32.5 72.5q2 29 3.5 66.5t1.5 78.5t-1.5 80.5t-3.5 71.5q-3 49 -32 74.5t-92 25.5t-93.5 -25.5t-33.5 -78.5q-1 -40 -2.5 -79t-1.5 -75.5t1 -69.5t3 -62q4 -48 32.5 -77t94.5 -29z" />
    <glyph glyph-name="h" unicode="h" horiz-adv-x="1006" 
d="M92 0v1600h281v-527h48q42 71 90 108.5t142 37.5q126 0 194 -75t69 -249l2 -895h-281l-2 919q0 50 -24.5 74t-76.5 24q-47 0 -94.5 -24.5t-66.5 -66.5v-926h-281z" />
    <glyph glyph-name="i" unicode="i" horiz-adv-x="461" 
d="M88 1384v216h286v-216h-286zM93 0v1200h277v-1200h-277z" />
    <glyph glyph-name="j" unicode="j" horiz-adv-x="463" 
d="M89 1384v216h286v-216h-286zM-28 -424q-34 0 -74.5 4t-76.5 10v206q28 -2 74 -3.5t77 -1.5q59 0 90 26t31 75v1308h277v-1283q0 -182 -97 -261.5t-301 -79.5z" />
    <glyph glyph-name="k" unicode="k" horiz-adv-x="903" 
d="M92 0v1600h261v-312l-33 -556h45l95 256l112 212h289l-250 -455l294 -745h-286l-184 471l-75 -117v-354h-268z" />
    <glyph glyph-name="l" unicode="l" horiz-adv-x="461" 
d="M92 0v1600h277v-1600h-277z" />
    <glyph glyph-name="m" unicode="m" horiz-adv-x="1519" 
d="M92 0v1200h278v-127h50q41 71 86.5 108.5t139.5 37.5q89 0 149.5 -38.5t88.5 -125.5h44q41 70 95.5 117t148.5 47q123 0 191 -75t68 -249v-895h-278v919q0 51 -26.5 74.5t-74.5 23.5q-40 0 -81.5 -27.5t-64.5 -66.5v-923h-279v919q0 50 -25 74t-75 24q-44 0 -90.5 -24.5
t-66.5 -66.5v-926h-278z" />
    <glyph glyph-name="n" unicode="n" horiz-adv-x="1006" 
d="M92 0v1200h277v-127h52q42 70 90.5 108t141.5 38q126 0 195 -75t70 -249v-895h-277v919q-1 50 -28 74t-79 24q-45 0 -95 -24.5t-70 -66.5v-926h-277z" />
    <glyph glyph-name="o" unicode="o" horiz-adv-x="954" 
d="M478 -19q-143 0 -228.5 38t-126 122t-48.5 222q-1 42 -2.5 104t-1.5 132t1 133.5t3 105.5q8 139 48.5 222.5t126 121t228.5 37.5q146 0 230.5 -39t124 -122.5t46.5 -219.5q2 -42 3.5 -104.5t1.5 -132t-1.5 -132.5t-3.5 -106q-8 -137 -47 -221t-124 -122.5t-230 -38.5z
M478 189q66 0 94 26.5t29 78.5q3 83 4.5 159.5t1.5 151t-1.5 149.5t-4.5 154q-1 51 -29 77t-94 26q-64 0 -94 -27t-32 -77q-2 -68 -3 -143t-1 -153.5t1.5 -158.5t3.5 -158q3 -52 32 -78.5t93 -26.5z" />
    <glyph glyph-name="p" unicode="p" horiz-adv-x="989" 
d="M92 -400v1600h281v-127h39q42 71 89 108.5t143 37.5q125 0 193.5 -75t76.5 -249q2 -51 3.5 -130t1.5 -165.5t-1.5 -165t-3.5 -129.5q-8 -173 -84 -248.5t-201 -75.5q-69 0 -119.5 33.5t-97.5 112.5h-39v-527h-281zM516 183q52 0 83.5 24t34.5 74q4 73 6 155t2 167.5
t-2 167t-6 152.5q-3 47 -26.5 70.5t-74.5 23.5q-46 0 -93.5 -24.5t-66.5 -66.5v-652q22 -49 56 -70t87 -21z" />
    <glyph glyph-name="q" unicode="q" horiz-adv-x="990" 
d="M617 -400v527h-36q-46 -79 -96 -112.5t-121 -33.5q-125 0 -202.5 75.5t-85.5 248.5q-3 53 -4 132t-1 165t1.5 164t3.5 129q8 174 76.5 249t193.5 75q95 0 142 -37.5t88 -108.5h41v127h280v-1600h-280zM474 183q53 0 87 21t56 70v652q-19 42 -67 66.5t-94 24.5
q-48 0 -73 -23t-28 -77q-5 -94 -6 -210.5t0.5 -230t6.5 -196.5q3 -49 35 -73t83 -24z" />
    <glyph glyph-name="r" unicode="r" horiz-adv-x="700" 
d="M92 0v1200h282v-145h49q12 86 57 119t117 33q25 0 49.5 -1.5t38.5 -3.5v-211h-84q-106 0 -159.5 -31.5t-67.5 -99.5v-860h-282z" />
    <glyph glyph-name="s" unicode="s" horiz-adv-x="872" 
d="M430 -19q-191 0 -273 79.5t-90 260.5q-1 37 -0.5 74.5t2.5 52.5h245q-2 -56 -1.5 -93.5t1.5 -63.5q3 -56 32 -79t84 -23q67 0 97.5 23.5t30.5 79.5v32.5v12.5v30q0 37 -16 61t-57 34l-140 38q-91 25 -155 63.5t-97 98t-33 147.5q-1 18 -0.5 33.5t0.5 30.5q0 186 86 266
t297 80q192 0 273 -77.5t89 -255.5q2 -26 1 -70.5t-3 -60.5h-255q2 22 2 53.5v62t-1 46.5q-3 51 -25.5 72.5t-80.5 21.5q-60 0 -84 -21.5t-26 -72.5q-1 -13 -1.5 -28.5t-0.5 -55.5q0 -45 16 -72.5t65 -39.5l124 -30q140 -32 210.5 -102.5t70.5 -206.5q0 -17 -0.5 -34
t-0.5 -34q0 -178 -89 -255.5t-297 -77.5z" />
    <glyph glyph-name="t" unicode="t" horiz-adv-x="692" 
d="M561 -19q-223 0 -319 79t-97 264l-1 667h-113v209h118v340h280v-340h213v-209h-218l2 -700q0 -60 28.5 -82t107.5 -22q26 0 49.5 1t52.5 1v-198q-23 -5 -48 -7.5t-55 -2.5z" />
    <glyph glyph-name="u" unicode="u" horiz-adv-x="998" 
d="M356 -19q-124 0 -198 75.5t-74 248.5v895h278l3 -919q0 -50 24 -74t75 -24q47 0 95 25t67 66v926h280v-1200h-280v127h-38q-46 -78 -101 -112t-131 -34z" />
    <glyph glyph-name="v" unicode="v" horiz-adv-x="878" 
d="M207 0l-184 1200h285l72 -603l22 -393h72l22 393l74 603h285l-186 -1200h-462z" />
    <glyph glyph-name="w" unicode="w" horiz-adv-x="1495" 
d="M182 0l-156 1200h281l51 -603l19 -393h76l10 393l56 602h457l54 -602l12 -393h73l19 393l54 603h282l-161 -1200h-470l-37 467l-15 528h-80l-16 -528l-35 -467h-474z" />
    <glyph glyph-name="x" unicode="x" horiz-adv-x="830" 
d="M16 0l208 633l-204 567h271l75 -250l22 -206h54l23 206l74 250h271l-203 -572l207 -628h-271l-79 301l-22 243h-53l-21 -243l-81 -301h-271z" />
    <glyph glyph-name="y" unicode="y" horiz-adv-x="890" 
d="M222 -420q-34 0 -75 4t-77 10v205q28 -1 75 -2.5t76 -1.5q83 0 115.5 23.5t40.5 80.5l15 101h-146l-216 1200h284l61 -548l48 -448h70l32 448l53 548h284l-205 -1280q-18 -114 -61.5 -189.5t-131.5 -113t-242 -37.5z" />
    <glyph glyph-name="z" unicode="z" horiz-adv-x="793" 
d="M41 0v176l417 820l-409 -1v205h707v-181l-423 -815h418v-204h-710z" />
    <glyph glyph-name="braceleft" unicode="{" horiz-adv-x="775" 
d="M715 -404q-127 0 -233 34.5t-169 114t-63 215.5q0 23 1 65t3 92.5t4 100t3 88t1 57.5q0 81 -29 99t-84 18h-89v233h89q55 0 84 18t29 99q0 18 -1 57.5t-2.5 89.5t-3 101t-3 93t-1.5 65q0 136 63 216t168.5 114t232.5 34v-135q-48 0 -91.5 -32t-71 -84t-27.5 -113
q0 -18 1 -47.5t2.5 -66t3 -74t2.5 -72t1 -60.5q0 -117 -47.5 -198.5t-147.5 -99.5v-39q100 -18 147.5 -100t47.5 -198q0 -26 -1 -60.5t-2.5 -72.5t-3 -74.5t-2.5 -66t-1 -47.5q0 -60 27.5 -112t71 -84.5t91.5 -32.5v-135z" />
    <glyph glyph-name="bar" unicode="|" horiz-adv-x="445" 
d="M84 1830h277v-2070h-277v2070z" />
    <glyph glyph-name="braceright" unicode="}" horiz-adv-x="773" 
d="M58 -404v135q49 0 92 32.5t70.5 84.5t27.5 112q0 18 -1 47.5t-2.5 66t-3 74.5t-2 72.5t-0.5 60.5q0 116 47.5 198t146.5 100v39q-99 18 -146.5 99.5t-47.5 198.5q0 26 0.5 60.5t2 72t3 74t2.5 66t1 47.5q0 61 -27.5 113t-70.5 84t-92 32v135q128 0 233 -34t168 -114
t63 -216q0 -23 -1 -65t-2.5 -93t-3 -101t-3 -89t-1.5 -58q0 -81 29.5 -99t83.5 -18h89v-233h-89q-54 0 -83.5 -18t-29.5 -99q0 -19 1.5 -57.5t3.5 -88t3.5 -100t3 -92.5t1.5 -65q0 -136 -63.5 -215.5t-169 -114t-233.5 -34.5z" />
    <glyph glyph-name="asciitilde" unicode="~" horiz-adv-x="1070" 
d="M705 568q-64 1 -111.5 21.5t-85.5 47t-74.5 47t-78.5 21.5q-52 1 -83 -30t-36 -88h-152q11 174 88 246.5t192 70.5q70 -1 117.5 -20.5t83 -46t69.5 -46t77 -20.5q56 -1 88 25t36 74h151q-8 -162 -83.5 -232.5t-197.5 -69.5z" />
    <glyph glyph-name="uni00A0" unicode="&#xa0;" horiz-adv-x="436" 
 />
    <glyph glyph-name="exclamdown" unicode="&#xa1;" horiz-adv-x="511" 
d="M142 779h204l37 -640v-539h-278v539zM70 1200h347v-264h-347v264z" />
    <glyph glyph-name="cent" unicode="&#xa2;" horiz-adv-x="916" 
d="M341 0v191q-132 22 -194 101.5t-71 228.5q-3 44 -4 119t-1 160t1.5 159.5t3.5 115.5q9 153 71.5 232.5t193.5 101.5v191h242v-189q136 -19 199.5 -97t69.5 -228q2 -34 1 -80.5t-3 -60.5h-273q1 22 1.5 55t0 65.5t-1.5 51.5q-2 49 -25.5 71.5t-84.5 22.5
q-60 0 -84.5 -21.5t-26.5 -72.5q-3 -85 -4 -163.5t-1 -154t1 -151.5t4 -157q2 -55 28 -78.5t87 -23.5q59 0 81.5 24.5t24.5 78.5q2 29 2 69.5t-2 97.5h273q2 -16 3 -60t-1 -78q-7 -153 -70 -232.5t-199 -100.5v-188h-242z" />
    <glyph glyph-name="sterling" unicode="&#xa3;" horiz-adv-x="1039" 
d="M136 0v238q29 15 50.5 63.5t33.5 128t12 187.5q0 39 -3 74t-9 66h-136v136h101q-15 51 -29.5 103t-24 111t-9.5 133q3 175 99.5 277t310.5 102q212 0 306 -88t100 -293q1 -37 1 -70.5t-1 -71.5t-2 -90h-279q1 28 1.5 67t1 81t0.5 78t-1 57q-1 51 -34 77.5t-93 26.5
q-62 0 -96 -26.5t-34 -77.5q0 -64 12.5 -126t30 -128.5t32.5 -141.5h187v-136h-169q3 -24 4.5 -49.5t1.5 -53.5q0 -120 -29 -216t-79 -155v-39h562v-244h-819z" />
    <glyph glyph-name="currency" unicode="&#xa4;" horiz-adv-x="1212" 
d="M204 47l-113 97l156 179q-21 42 -32 97.5t-16 124.5q-2 42 -3 104t-1 132t1 133.5t3 105.5q5 70 16.5 125.5t33.5 98.5l-165 183l108 97l157 -173q88 50 253 50q168 0 255 -53l163 172l108 -100l-172 -181q21 -42 32.5 -96t14.5 -123q2 -42 3.5 -104.5t1.5 -132
t-1.5 -132.5t-3.5 -106q-3 -70 -15.5 -125.5t-33.5 -99.5l154 -174l-111 -98l-146 163q-85 -48 -249 -48q-165 0 -253 50zM602 371q66 0 94 26.5t29 78.5q2 83 4 159.5t2 151t-2 149.5t-4 154q-1 51 -29 77t-94 26q-65 0 -94.5 -27.5t-31.5 -76.5q-2 -68 -3 -143t-1 -154
t1.5 -158.5t3.5 -157.5q2 -52 31.5 -78.5t93.5 -26.5z" />
    <glyph glyph-name="yen" unicode="&#xa5;" horiz-adv-x="894" 
d="M308 0v125h-197v121h197v61h-197v120h197v35l-20 1l-270 1137h283l85 -398l33 -468h56l33 468l85 398h282l-270 -1137l-20 -1v-35h200v-120h-200v-61h200v-121h-200v-125h-277z" />
    <glyph glyph-name="brokenbar" unicode="&#xa6;" horiz-adv-x="445" 
d="M84 1830h277v-814h-277v814zM84 536h277v-776h-277v776z" />
    <glyph glyph-name="section" unicode="&#xa7;" horiz-adv-x="929" 
d="M457 -419q-128 0 -205.5 27t-115 95t-43.5 189q-1 22 -1 58t1 67t2 42h246q-2 -41 -2 -70t0.5 -52.5t1.5 -45.5q3 -56 32 -79t84 -23q67 0 97 23.5t30 79.5q1 35 1 68.5v68.5q-1 36 -13.5 58.5t-59.5 35.5l-135 37q-133 36 -209.5 103.5t-81.5 196.5q-1 52 -1 96.5
t1 102.5q3 97 44.5 157t103.5 86v37q-58 19 -100 61t-48 126q-3 40 -3 89.5t3 82.5q12 123 47.5 188.5t114.5 90t222 24.5q191 0 272.5 -77.5t89.5 -256.5q1 -28 1.5 -73t-3.5 -85h-255q1 30 1.5 68t0 71t-1.5 50q-3 52 -26 64.5t-79 12.5q-60 0 -82.5 -12.5t-28.5 -62.5
q-3 -26 -3.5 -79.5t1.5 -95.5t15.5 -69t66.5 -39l124 -29q136 -31 204.5 -118t75.5 -220q3 -64 3 -101t-3 -87q-6 -81 -46 -134.5t-96 -76.5v-31q62 -22 101.5 -74t42.5 -127q2 -29 1 -65t-3 -61q-8 -118 -46 -186t-120 -97t-220 -29zM472 364q66 0 90 27.5t30 76.5
q3 28 4.5 61.5t0 67.5t-4.5 63q-6 47 -30 74.5t-90 27.5q-62 0 -89.5 -27.5t-32.5 -74.5q-5 -46 -4.5 -99.5t4.5 -92.5q8 -49 34 -76.5t88 -27.5z" />
    <glyph glyph-name="dieresis" unicode="&#xa8;" horiz-adv-x="701" 
d="M411 1310v187h187v-187h-187zM119 1310v187h186v-187h-186z" />
    <glyph glyph-name="copyright" unicode="&#xa9;" horiz-adv-x="1338" 
d="M670 -10q-190 0 -320.5 70t-198 206t-67.5 334t67.5 334t198 206t320.5 70q285 0 434.5 -156.5t149.5 -453.5q0 -198 -66.5 -334t-197 -206t-320.5 -70zM670 121q211 0 322.5 123t111.5 356q0 234 -111.5 356.5t-322.5 122.5q-212 0 -324 -122.5t-112 -356.5
q0 -233 112 -356t324 -123zM672 229q-122 0 -179 50t-65 168q-1 23 -1.5 63.5t-0.5 87t0.5 87t1.5 62.5q7 119 63.5 169t179.5 50q124 0 177 -49t61 -162q2 -19 1 -36.5t-2 -25.5h-167q2 16 1 41.5t-1 38.5q0 35 -16.5 49.5t-53.5 14.5t-53 -14.5t-18 -50.5
q-3 -56 -2.5 -113.5t1.5 -116t1 -116.5q1 -38 19 -52.5t53 -14.5q36 0 51 14.5t18 52.5q2 17 2 33.5t-2 48.5h166q3 -10 3.5 -26t-1.5 -36q-8 -116 -60.5 -166.5t-176.5 -50.5z" />
    <glyph glyph-name="ordfeminine" unicode="&#xaa;" horiz-adv-x="806" 
d="M303 754q-107 0 -154 46t-63 158q-1 11 -1 29t1 32q10 88 62.5 137t181.5 89q44 14 85 22.5t91 18.5q-1 26 -1.5 52t-2.5 53q-1 30 -16.5 49t-72.5 19q-40 0 -59.5 -13.5t-25.5 -49.5q-1 -6 -1 -33t1 -52.5t2 -29.5h-213q-1 4 -2 21t-1.5 38.5t1.5 39.5q8 122 73.5 180.5
t231.5 58.5q116 0 180 -28.5t90.5 -90.5t29.5 -161q1 -39 1.5 -92t0.5 -113.5t-0.5 -124.5t-1 -126.5t-0.5 -116.5h-220q0 24 0.5 46.5t1.5 44.5h-32q-26 -50 -62 -76.5t-105 -26.5zM392 909q38 0 68.5 16.5t45.5 40.5q1 47 1 92v91q-34 -6 -68 -14t-56 -16
q-47 -14 -61.5 -40.5t-19.5 -58.5q-1 -12 -0.5 -25t0.5 -19q1 -35 27 -51t63 -16z" />
    <glyph glyph-name="guillemotleft" unicode="&#xab;" horiz-adv-x="779" 
d="M354 839l-332 -337v254l332 337v-254zM354 164l-332 338v254l332 -338v-254zM694 839l-332 -337v254l332 337v-254zM694 164l-332 338v254l332 -338v-254z" />
    <glyph glyph-name="logicalnot" unicode="&#xac;" horiz-adv-x="1029" 
d="M735 427v375h-651v208h862v-583h-211z" />
    <glyph glyph-name="uni00AD" unicode="&#xad;" horiz-adv-x="880" 
d="M60 594v244h760v-244h-760z" />
    <glyph glyph-name="registered" unicode="&#xae;" horiz-adv-x="947" 
d="M475 973q-189 0 -290 103.5t-101 296.5q0 195 101 297.5t290 102.5t288.5 -102.5t99.5 -297.5q0 -193 -99.5 -296.5t-288.5 -103.5zM475 1057q153 0 228 78.5t75 237.5q0 161 -75 238.5t-228 77.5t-229.5 -77.5t-76.5 -238.5q0 -159 76.5 -237.5t229.5 -78.5zM358 1176
v424h124q69 0 100 -26t34 -89v-10v-15q-1 -34 -17 -54.5t-51 -28.5v-14q35 -8 50 -27t16 -56q1 -15 2 -31t1 -33.5t-1 -39.5h-95q0 27 -1.5 58.5t-2.5 58.5q0 40 -35 40h-28v-157h-96zM454 1416h30q18 0 27.5 9t9.5 25v20v21q-1 26 -39 26h-28v-101z" />
    <glyph glyph-name="macron" unicode="&#xaf;" horiz-adv-x="928" 
d="M117 1405h662v-126h-662v126z" />
    <glyph glyph-name="degree" unicode="&#xb0;" horiz-adv-x="629" 
d="M315 1182q-63 0 -115.5 30t-84 79.5t-31.5 108.5q0 60 31.5 110t84.5 80t116 30q62 0 114 -30t83.5 -80t31.5 -110q0 -59 -31.5 -108.5t-83.5 -79.5t-115 -30zM315 1293q49 0 83 31t34 76q0 47 -34 78t-83 31t-83.5 -31t-34.5 -78q0 -45 34.5 -76t83.5 -31z" />
    <glyph glyph-name="plusminus" unicode="&#xb1;" horiz-adv-x="1069" 
d="M430 458v161h-346v207h346v216h210v-216h346v-207h-346v-161h-210zM84 205v167h902v-167h-902z" />
    <glyph glyph-name="uni00B2" unicode="&#xb2;" horiz-adv-x="642" 
d="M68 878q-1 67 -1 97t1 64q3 67 51.5 119t131.5 88l82 35q29 13 37.5 28t11.5 39q2 20 2 33.5t-2 31.5q-1 15 -14.5 26t-42.5 11q-51 0 -54 -37q-3 -27 -1.5 -58.5t2.5 -44.5h-200q-1 17 -2 36.5t0 41.5q5 110 71.5 165.5t181.5 55.5q129 0 196 -57t67 -164v-13v-12v-14
q0 -75 -45 -126t-127 -84l-100 -40q-12 -5 -24 -15t-12 -21v-11h287v-174h-497z" />
    <glyph glyph-name="uni00B3" unicode="&#xb3;" horiz-adv-x="654" 
d="M330 869q-131 0 -202 53t-72 154v9.5t0.5 11t1.5 13.5h203q-2 -7 -2 -16v-16q0 -22 16.5 -36t48.5 -14q33 0 49.5 12t16.5 32v24v22q-1 26 -17.5 39t-48.5 13h-124l-6 145l132 111h-250v174h502l-2 -170l-154 -110q82 -13 127 -62.5t45 -135.5v-16v-17v-15
q0 -98 -67.5 -151.5t-196.5 -53.5z" />
    <glyph glyph-name="acute" unicode="&#xb4;" horiz-adv-x="539" 
d="M80 1280l188 271h191l-198 -271h-181z" />
    <glyph glyph-name="uni00B5" unicode="&#xb5;" horiz-adv-x="1022" 
d="M87 -400l-3 1600h279l2 -919q0 -50 26 -74t76 -24q45 0 93 25t67 66v926h280v-960q0 -76 8 -139.5t23 -100.5h-279q-9 23 -16 55.5t-11 71.5h-44q-30 -51 -62.5 -83t-73.5 -47q-39 -14 -85 -13v-384h-280z" />
    <glyph glyph-name="paragraph" unicode="&#xb6;" horiz-adv-x="1133" 
d="M552 -200v880h-67q-135 0 -220 35t-127.5 119t-51.5 229q-2 22 -2 54.5t0.5 61.5t1.5 42q7 137 47 220t125 121t227 38h565v-149h-87v-1651h-171v1651h-69v-1651h-171z" />
    <glyph glyph-name="periodcentered" unicode="&#xb7;" horiz-adv-x="369" 
d="M82 734v204h205v-204h-205z" />
    <glyph glyph-name="cedilla" unicode="&#xb8;" horiz-adv-x="475" 
d="M75 -327v132h62q61 0 86 24.5t16 80.5l-13 90h143l14 -90q17 -125 -42.5 -181t-203.5 -56h-62z" />
    <glyph glyph-name="uni00B9" unicode="&#xb9;" horiz-adv-x="433" 
d="M144 882v557h-108l-3 67l156 96h163v-720h-208z" />
    <glyph glyph-name="ordmasculine" unicode="&#xba;" horiz-adv-x="812" 
d="M406 752q-166 0 -238 63.5t-80 222.5q-1 18 -2 47t-1.5 63t-0.5 69t1 66t3 53q9 102 40.5 164.5t96.5 90.5t177 28q177 0 246.5 -67.5t77.5 -215.5q1 -22 2 -53.5t1.5 -66.5t0.5 -69.5t-1 -63t-3 -45.5q-9 -99 -38.5 -162.5t-95.5 -93.5t-186 -30zM408 912
q54 0 75.5 18.5t22.5 52.5q3 59 4.5 110.5t1.5 99.5t-1.5 96.5t-4.5 101.5q-1 32 -23 50t-75 18q-52 0 -75 -18t-25 -51q-4 -76 -5.5 -136t0 -123t5.5 -148q2 -34 25 -52.5t75 -18.5z" />
    <glyph glyph-name="guillemotright" unicode="&#xbb;" horiz-adv-x="747" 
d="M393 839v254l332 -337v-254zM393 164v254l332 338v-254zM53 839v254l333 -337v-254zM53 164v254l333 338v-254z" />
    <glyph glyph-name="onequarter" unicode="&#xbc;" horiz-adv-x="1124" 
d="M144 882v557h-108l-3 67l156 96h163v-720h-208zM-164 0l1035 1600h209l-1037 -1600h-207zM989 720v-399h93v-173h-93v-148h-191v148h-288v167l222 405h257zM798 321l28 140l22 85h-33l-44 -85l-61 -140h88z" />
    <glyph glyph-name="onehalf" unicode="&#xbd;" horiz-adv-x="1148" 
d="M144 882v557h-108l-3 67l156 96h163v-720h-208zM-164 0l1035 1600h209l-1037 -1600h-207zM574 0q-1 67 -1 97t1 64q3 67 51.5 119t131.5 88l82 35q29 13 37.5 28t11.5 39q2 20 2 33.5t-2 31.5q-1 15 -14.5 26t-42.5 11q-51 0 -54 -37q-3 -27 -1.5 -58.5t2.5 -44.5h-200
q-1 17 -2 36.5t0 41.5q5 110 71.5 165.5t181.5 55.5q129 0 196 -57t67 -164v-13v-12v-14q0 -75 -45 -126t-127 -84l-100 -40q-12 -5 -24 -15t-12 -21v-11h287v-174h-497z" />
    <glyph glyph-name="threequarters" unicode="&#xbe;" horiz-adv-x="1417" 
d="M330 869q-131 0 -202 53t-72 154v9.5t0.5 11t1.5 13.5h203q-2 -7 -2 -16v-16q0 -22 16.5 -36t48.5 -14q33 0 49.5 12t16.5 32v24v22q-1 26 -17.5 39t-48.5 13h-124l-6 145l132 111h-250v174h502l-2 -170l-154 -110q82 -13 127 -62.5t45 -135.5v-16v-17v-15
q0 -98 -67.5 -151.5t-196.5 -53.5zM130 0l1035 1600h209l-1037 -1600h-207zM1283 720v-399h93v-173h-93v-148h-191v148h-288v167l222 405h257zM1092 321l28 140l22 85h-33l-44 -85l-61 -140h88z" />
    <glyph glyph-name="questiondown" unicode="&#xbf;" horiz-adv-x="961" 
d="M486 -422q-230 0 -330 92t-100 304v50.5v51.5v53q0 111 20.5 178t51.5 104t65 56t61 32l50 26q45 23 54 62t14 81l8 93h226l5 -93q5 -82 -5 -142.5t-48 -110t-116 -98.5l-36 -23q-23 -14 -34.5 -40.5t-15 -59t-3.5 -65.5v-209q0 -50 34 -76t97 -26q61 0 93 26.5t35 75.5
q5 67 5 133.5t-3 122.5h288q1 -39 2 -70t1 -62t-2 -70q-10 -212 -105.5 -304t-311.5 -92zM318 936v264h348v-264h-348z" />
    <glyph glyph-name="Agrave" unicode="&#xc0;" 
d="M32 0l215 1600h465l214 -1600h-284l-36 353h-254l-35 -353h-285zM378 597h203l-36 352l-27 407h-78l-27 -407zM360 1680l-179 271h190l170 -271h-181z" />
    <glyph glyph-name="Aacute" unicode="&#xc1;" 
d="M32 0l215 1600h465l214 -1600h-284l-36 353h-254l-35 -353h-285zM378 597h203l-36 352l-27 407h-78l-27 -407zM397 1680l188 271h191l-198 -271h-181z" />
    <glyph glyph-name="Acircumflex" unicode="&#xc2;" 
d="M32 0l215 1600h465l214 -1600h-284l-36 353h-254l-35 -353h-285zM378 597h203l-36 352l-27 407h-78l-27 -407zM225 1682l169 271h164l169 -271h-182l-69 122l-69 -122h-182z" />
    <glyph glyph-name="Atilde" unicode="&#xc3;" 
d="M32 0l215 1600h465l214 -1600h-284l-36 353h-254l-35 -353h-285zM378 597h203l-36 352l-27 407h-78l-27 -407zM632 1890h108q-6 -110 -45.5 -160t-112.5 -50q-45 0 -71.5 14t-44.5 32.5t-36 33t-47 14.5q-30 0 -40.5 -21t-15.5 -60h-108q9 117 48.5 169t115.5 52
q45 0 71.5 -13.5t44 -32t36 -32.5t46.5 -14t39 17.5t12 50.5z" />
    <glyph glyph-name="Adieresis" unicode="&#xc4;" 
d="M32 0l215 1600h465l214 -1600h-284l-36 353h-254l-35 -353h-285zM378 597h203l-36 352l-27 407h-78l-27 -407zM532 1710v187h187v-187h-187zM240 1710v187h186v-187h-186z" />
    <glyph glyph-name="Aring" unicode="&#xc5;" 
d="M32 0l215 1600h465l214 -1600h-284l-36 353h-254l-35 -353h-285zM378 597h203l-36 352l-27 407h-78l-27 -407zM479 1670q-84 0 -144.5 60.5t-60.5 144.5q0 85 60.5 145t144.5 60q85 0 145 -60t60 -145q0 -84 -60 -144.5t-145 -60.5zM479 1815q26 0 43.5 17.5t17.5 42.5
q0 26 -17.5 43.5t-43.5 17.5q-25 0 -43 -17.5t-18 -43.5q0 -25 18 -42.5t43 -17.5z" />
    <glyph glyph-name="AE" unicode="&#xc6;" horiz-adv-x="1375" 
d="M32 0l324 1600h967v-244h-405v-421h385v-244h-385v-447h405v-244h-682v352h-233l-73 -352h-303zM459 596h182v760h-74l-48 -480z" />
    <glyph glyph-name="Ccedilla" unicode="&#xc7;" horiz-adv-x="976" 
d="M495 -19q-218 0 -312.5 88.5t-99.5 293.5q-2 107 -3 216.5t-1 220.5t1 221.5t3 218.5q3 188 101.5 283.5t310.5 95.5q208 0 304.5 -91t102.5 -289q1 -35 1 -75.5t-1 -81t-2 -75.5h-277q1 39 2 84.5t1 91.5t-1 85q-1 65 -32.5 95t-97.5 30q-68 0 -100.5 -30t-34.5 -95
q-3 -115 -4.5 -232.5t-1.5 -235.5t1.5 -235t4.5 -232q2 -66 34.5 -96t100.5 -30q70 0 103 30t35 96q2 42 2.5 85.5t-0.5 88t-2 90.5h277q2 -55 2 -118.5t-2 -115.5q-6 -205 -102 -293.5t-313 -88.5zM265 -309v132h62q61 0 86 24.5t16 80.5l-13 90h143l14 -90
q17 -125 -42.5 -181t-203.5 -56h-62z" />
    <glyph glyph-name="Egrave" unicode="&#xc8;" horiz-adv-x="829" 
d="M95 0v1600h683v-244h-406v-421h386v-244h-386v-447h406v-244h-683zM310 1680l-179 271h190l170 -271h-181z" />
    <glyph glyph-name="Eacute" unicode="&#xc9;" horiz-adv-x="829" 
d="M95 0v1600h683v-244h-406v-421h386v-244h-386v-447h406v-244h-683zM347 1680l188 271h191l-198 -271h-181z" />
    <glyph glyph-name="Ecircumflex" unicode="&#xca;" horiz-adv-x="829" 
d="M95 0v1600h683v-244h-406v-421h386v-244h-386v-447h406v-244h-683zM176 1682l169 271h164l169 -271h-182l-69 122l-69 -122h-182z" />
    <glyph glyph-name="Edieresis" unicode="&#xcb;" horiz-adv-x="829" 
d="M95 0v1600h683v-244h-406v-421h386v-244h-386v-447h406v-244h-683zM482 1710v187h187v-187h-187zM190 1710v187h186v-187h-186z" />
    <glyph glyph-name="Igrave" unicode="&#xcc;" horiz-adv-x="467" 
d="M95 0v1600h277v-1600h-277zM115 1680l-179 271h190l170 -271h-181z" />
    <glyph glyph-name="Iacute" unicode="&#xcd;" horiz-adv-x="467" 
d="M95 0v1600h277v-1600h-277zM152 1680l188 271h191l-198 -271h-181z" />
    <glyph glyph-name="Icircumflex" unicode="&#xce;" horiz-adv-x="467" 
d="M95 0v1600h277v-1600h-277zM-20 1682l169 271h164l169 -271h-182l-69 122l-69 -122h-182z" />
    <glyph glyph-name="Idieresis" unicode="&#xcf;" horiz-adv-x="467" 
d="M95 0v1600h277v-1600h-277zM286 1710v187h187v-187h-187zM-6 1710v187h186v-187h-186z" />
    <glyph glyph-name="Eth" unicode="&#xd0;" horiz-adv-x="1076" 
d="M73 946h516v-135h-516v135zM187 0v1600h397q214 0 309.5 -90.5t99.5 -297.5q3 -147 4 -279.5t0 -264t-4 -278.5q-4 -208 -99.5 -299t-308.5 -91h-398zM464 244h121q64 0 96.5 29t34.5 85q3 113 4.5 223.5t1.5 220t-1.5 220t-5.5 222.5q-1 55 -33.5 83.5t-97.5 28.5h-120
v-1112z" />
    <glyph glyph-name="Ntilde" unicode="&#xd1;" horiz-adv-x="1136" 
d="M95 0v1600h441l115 -509l114 -847h74l-51 688l-21 668h274v-1600h-462l-116 531l-87 827h-78l47 -746l23 -612h-273zM720 1890h108q-6 -110 -45.5 -160t-112.5 -50q-45 0 -71.5 14t-44.5 32.5t-36 33t-47 14.5q-30 0 -40.5 -21t-15.5 -60h-108q9 117 48.5 169t115.5 52
q45 0 71.5 -13.5t44 -32t36 -32.5t46.5 -14t39 17.5t12 50.5z" />
    <glyph glyph-name="Ograve" unicode="&#xd2;" horiz-adv-x="993" 
d="M495 -19q-215 0 -311 88.5t-100 294.5q-3 113 -4 221.5t-1 216t1 216t4 220.5q4 205 100 293t311 88t309.5 -88t101.5 -293q4 -113 6 -222t2 -216.5t-2 -215.5t-6 -220q-7 -206 -101.5 -294.5t-309.5 -88.5zM495 207q70 0 101.5 30.5t32.5 96.5q5 114 7 231t2 236
t-2.5 236.5t-6.5 230.5q-1 65 -33 95t-101 30q-67 0 -99.5 -30t-34.5 -95q-5 -113 -7.5 -230.5t-2.5 -236t2.5 -236t7.5 -231.5q2 -66 34.5 -96.5t99.5 -30.5zM378 1680l-179 271h190l170 -271h-181z" />
    <glyph glyph-name="Oacute" unicode="&#xd3;" horiz-adv-x="993" 
d="M495 -19q-215 0 -311 88.5t-100 294.5q-3 113 -4 221.5t-1 216t1 216t4 220.5q4 205 100 293t311 88t309.5 -88t101.5 -293q4 -113 6 -222t2 -216.5t-2 -215.5t-6 -220q-7 -206 -101.5 -294.5t-309.5 -88.5zM495 207q70 0 101.5 30.5t32.5 96.5q5 114 7 231t2 236
t-2.5 236.5t-6.5 230.5q-1 65 -33 95t-101 30q-67 0 -99.5 -30t-34.5 -95q-5 -113 -7.5 -230.5t-2.5 -236t2.5 -236t7.5 -231.5q2 -66 34.5 -96.5t99.5 -30.5zM415 1680l188 271h191l-198 -271h-181z" />
    <glyph glyph-name="Ocircumflex" unicode="&#xd4;" horiz-adv-x="993" 
d="M495 -19q-215 0 -311 88.5t-100 294.5q-3 113 -4 221.5t-1 216t1 216t4 220.5q4 205 100 293t311 88t309.5 -88t101.5 -293q4 -113 6 -222t2 -216.5t-2 -215.5t-6 -220q-7 -206 -101.5 -294.5t-309.5 -88.5zM495 207q70 0 101.5 30.5t32.5 96.5q5 114 7 231t2 236
t-2.5 236.5t-6.5 230.5q-1 65 -33 95t-101 30q-67 0 -99.5 -30t-34.5 -95q-5 -113 -7.5 -230.5t-2.5 -236t2.5 -236t7.5 -231.5q2 -66 34.5 -96.5t99.5 -30.5zM243 1682l169 271h164l169 -271h-182l-69 122l-69 -122h-182z" />
    <glyph glyph-name="Otilde" unicode="&#xd5;" horiz-adv-x="993" 
d="M495 -19q-215 0 -311 88.5t-100 294.5q-3 113 -4 221.5t-1 216t1 216t4 220.5q4 205 100 293t311 88t309.5 -88t101.5 -293q4 -113 6 -222t2 -216.5t-2 -215.5t-6 -220q-7 -206 -101.5 -294.5t-309.5 -88.5zM495 207q70 0 101.5 30.5t32.5 96.5q5 114 7 231t2 236
t-2.5 236.5t-6.5 230.5q-1 65 -33 95t-101 30q-67 0 -99.5 -30t-34.5 -95q-5 -113 -7.5 -230.5t-2.5 -236t2.5 -236t7.5 -231.5q2 -66 34.5 -96.5t99.5 -30.5zM650 1890h108q-6 -110 -45.5 -160t-112.5 -50q-45 0 -71.5 14t-44.5 32.5t-36 33t-47 14.5q-30 0 -40.5 -21
t-15.5 -60h-108q9 117 48.5 169t115.5 52q45 0 71.5 -13.5t44 -32t36 -32.5t46.5 -14t39 17.5t12 50.5z" />
    <glyph glyph-name="Odieresis" unicode="&#xd6;" horiz-adv-x="993" 
d="M495 -19q-215 0 -311 88.5t-100 294.5q-3 113 -4 221.5t-1 216t1 216t4 220.5q4 205 100 293t311 88t309.5 -88t101.5 -293q4 -113 6 -222t2 -216.5t-2 -215.5t-6 -220q-7 -206 -101.5 -294.5t-309.5 -88.5zM495 207q70 0 101.5 30.5t32.5 96.5q5 114 7 231t2 236
t-2.5 236.5t-6.5 230.5q-1 65 -33 95t-101 30q-67 0 -99.5 -30t-34.5 -95q-5 -113 -7.5 -230.5t-2.5 -236t2.5 -236t7.5 -231.5q2 -66 34.5 -96.5t99.5 -30.5zM550 1710v187h187v-187h-187zM258 1710v187h186v-187h-186z" />
    <glyph glyph-name="multiply" unicode="&#xd7;" horiz-adv-x="960" 
d="M233 338l-149 147l246 238l-246 237l149 147l247 -239l247 239l149 -147l-246 -237l246 -238l-149 -147l-247 239z" />
    <glyph glyph-name="Oslash" unicode="&#xd8;" horiz-adv-x="993" 
d="M495 -19q-215 0 -311 88.5t-100 294.5q-3 113 -4 221.5t-1 216t1 216t4 220.5q4 205 100 293t311 88t309.5 -88t101.5 -293q4 -113 6 -222t2 -216.5t-2 -215.5t-6 -220q-7 -206 -101.5 -294.5t-309.5 -88.5zM495 207q70 0 101.5 30.5t32.5 96.5q3 78 5 156.5t3 157.5
t0 160l-280 -368q1 -27 2 -53.5t2 -52.5q2 -66 34.5 -96.5t99.5 -30.5zM352 747l281 371q0 37 -1 74.5t-3 75.5q-1 65 -33 95t-101 30q-67 0 -99.5 -30t-34.5 -95q-4 -85 -6 -171t-3 -173.5t0 -176.5z" />
    <glyph glyph-name="Ugrave" unicode="&#xd9;" horiz-adv-x="984" 
d="M493 -19q-219 0 -314 88.5t-98 293.5q-4 307 -4 618.5t4 618.5h277q-4 -205 -4.5 -422t1 -434t3.5 -422q0 -55 34.5 -84.5t100.5 -29.5t99 29.5t33 84.5q2 205 3.5 422t1 434t-4.5 422h278q4 -307 4 -618.5t-4 -618.5q-3 -205 -98 -293.5t-312 -88.5zM374 1680l-179 271
h190l170 -271h-181z" />
    <glyph glyph-name="Uacute" unicode="&#xda;" horiz-adv-x="984" 
d="M493 -19q-219 0 -314 88.5t-98 293.5q-4 307 -4 618.5t4 618.5h277q-4 -205 -4.5 -422t1 -434t3.5 -422q0 -55 34.5 -84.5t100.5 -29.5t99 29.5t33 84.5q2 205 3.5 422t1 434t-4.5 422h278q4 -307 4 -618.5t-4 -618.5q-3 -205 -98 -293.5t-312 -88.5zM411 1680l188 271
h191l-198 -271h-181z" />
    <glyph glyph-name="Ucircumflex" unicode="&#xdb;" horiz-adv-x="984" 
d="M493 -19q-219 0 -314 88.5t-98 293.5q-4 307 -4 618.5t4 618.5h277q-4 -205 -4.5 -422t1 -434t3.5 -422q0 -55 34.5 -84.5t100.5 -29.5t99 29.5t33 84.5q2 205 3.5 422t1 434t-4.5 422h278q4 -307 4 -618.5t-4 -618.5q-3 -205 -98 -293.5t-312 -88.5zM239 1682l169 271
h164l169 -271h-182l-69 122l-69 -122h-182z" />
    <glyph glyph-name="Udieresis" unicode="&#xdc;" horiz-adv-x="984" 
d="M493 -19q-219 0 -314 88.5t-98 293.5q-4 307 -4 618.5t4 618.5h277q-4 -205 -4.5 -422t1 -434t3.5 -422q0 -55 34.5 -84.5t100.5 -29.5t99 29.5t33 84.5q2 205 3.5 422t1 434t-4.5 422h278q4 -307 4 -618.5t-4 -618.5q-3 -205 -98 -293.5t-312 -88.5zM545 1710v187h187
v-187h-187zM253 1710v187h186v-187h-186z" />
    <glyph glyph-name="Yacute" unicode="&#xdd;" horiz-adv-x="894" 
d="M308 0v462l-20 1l-270 1137h283l84 -398l34 -468h56l33 468l85 398h282l-270 -1137l-20 -1v-462h-277zM362 1680l188 271h191l-198 -271h-181z" />
    <glyph glyph-name="Thorn" unicode="&#xde;" horiz-adv-x="924" 
d="M84 0v1600h277v-248h111q212 0 306 -86t101 -284q3 -91 3 -168.5t-3 -165.5q-7 -197 -101.5 -283.5t-306.5 -86.5h-110v-278h-277zM361 522h110q65 0 96.5 29t34.5 83t4 117.5t0 127t-4 117.5q-3 55 -34.5 83.5t-95.5 28.5h-111v-586z" />
    <glyph glyph-name="germandbls" unicode="&#xdf;" horiz-adv-x="975" 
d="M84 0v1219q0 126 38.5 210.5t129 127.5t245.5 43q217 0 310.5 -86t94.5 -286v-67t-2 -68q-7 -107 -49 -168.5t-129 -89.5v-44q95 -27 141 -90.5t50 -176.5q1 -30 1.5 -51t0 -44t-1.5 -57q-7 -140 -54 -221t-137.5 -116t-227.5 -35h-39v244h39q66 0 102 33.5t36 98.5
q1 35 1 67.5t-1 67.5q0 104 -36 142t-104 38h-26v244h16q68 0 104 43t36 122q1 36 0.5 58l-1 44t-1.5 59q0 55 -31.5 84t-98.5 29q-65 0 -94 -31t-30 -82l-1 -1261h-281z" />
    <glyph glyph-name="agrave" unicode="&#xe0;" horiz-adv-x="945" 
d="M332 -15q-133 0 -197 63.5t-77 216.5q-1 19 -1 45t1 44q7 80 37.5 137.5t95.5 101t173 83.5q55 20 107 35t113 30v165q0 53 -25.5 79t-87.5 26q-53 0 -77.5 -21.5t-27.5 -72.5q-2 -14 -2.5 -50.5t0.5 -72.5t2 -49h-269q-1 16 -2 59.5t0 81.5q5 116 42 189.5t119.5 108.5
t223.5 35q144 0 226.5 -38.5t117 -122t34.5 -216.5l-2 -842h-276v127h-40q-35 -73 -80 -107.5t-128 -34.5zM445 183q45 0 80.5 23.5t55.5 62.5l2 291q-39 -9 -77 -20.5t-73 -27.5q-58 -27 -76.5 -68t-21.5 -90q-1 -23 -1 -36t1 -32q5 -50 32.5 -76.5t77.5 -26.5zM359 1280
l-179 271h190l170 -271h-181z" />
    <glyph glyph-name="aacute" unicode="&#xe1;" horiz-adv-x="945" 
d="M332 -15q-133 0 -197 63.5t-77 216.5q-1 19 -1 45t1 44q7 80 37.5 137.5t95.5 101t173 83.5q55 20 107 35t113 30v165q0 53 -25.5 79t-87.5 26q-53 0 -77.5 -21.5t-27.5 -72.5q-2 -14 -2.5 -50.5t0.5 -72.5t2 -49h-269q-1 16 -2 59.5t0 81.5q5 116 42 189.5t119.5 108.5
t223.5 35q144 0 226.5 -38.5t117 -122t34.5 -216.5l-2 -842h-276v127h-40q-35 -73 -80 -107.5t-128 -34.5zM445 183q45 0 80.5 23.5t55.5 62.5l2 291q-39 -9 -77 -20.5t-73 -27.5q-58 -27 -76.5 -68t-21.5 -90q-1 -23 -1 -36t1 -32q5 -50 32.5 -76.5t77.5 -26.5zM396 1280
l188 271h191l-198 -271h-181z" />
    <glyph glyph-name="acircumflex" unicode="&#xe2;" horiz-adv-x="945" 
d="M332 -15q-133 0 -197 63.5t-77 216.5q-1 19 -1 45t1 44q7 80 37.5 137.5t95.5 101t173 83.5q55 20 107 35t113 30v165q0 53 -25.5 79t-87.5 26q-53 0 -77.5 -21.5t-27.5 -72.5q-2 -14 -2.5 -50.5t0.5 -72.5t2 -49h-269q-1 16 -2 59.5t0 81.5q5 116 42 189.5t119.5 108.5
t223.5 35q144 0 226.5 -38.5t117 -122t34.5 -216.5l-2 -842h-276v127h-40q-35 -73 -80 -107.5t-128 -34.5zM445 183q45 0 80.5 23.5t55.5 62.5l2 291q-39 -9 -77 -20.5t-73 -27.5q-58 -27 -76.5 -68t-21.5 -90q-1 -23 -1 -36t1 -32q5 -50 32.5 -76.5t77.5 -26.5zM224 1282
l169 271h164l169 -271h-182l-69 122l-69 -122h-182z" />
    <glyph glyph-name="atilde" unicode="&#xe3;" horiz-adv-x="945" 
d="M332 -15q-133 0 -197 63.5t-77 216.5q-1 19 -1 45t1 44q7 80 37.5 137.5t95.5 101t173 83.5q55 20 107 35t113 30v165q0 53 -25.5 79t-87.5 26q-53 0 -77.5 -21.5t-27.5 -72.5q-2 -14 -2.5 -50.5t0.5 -72.5t2 -49h-269q-1 16 -2 59.5t0 81.5q5 116 42 189.5t119.5 108.5
t223.5 35q144 0 226.5 -38.5t117 -122t34.5 -216.5l-2 -842h-276v127h-40q-35 -73 -80 -107.5t-128 -34.5zM445 183q45 0 80.5 23.5t55.5 62.5l2 291q-39 -9 -77 -20.5t-73 -27.5q-58 -27 -76.5 -68t-21.5 -90q-1 -23 -1 -36t1 -32q5 -50 32.5 -76.5t77.5 -26.5zM630 1490
h108q-6 -110 -45.5 -160t-112.5 -50q-45 0 -71.5 14t-44.5 32.5t-36 33t-47 14.5q-30 0 -40.5 -21t-15.5 -60h-108q9 117 48.5 169t115.5 52q45 0 71.5 -13.5t44 -32t36 -32.5t46.5 -14t39 17.5t12 50.5z" />
    <glyph glyph-name="adieresis" unicode="&#xe4;" horiz-adv-x="945" 
d="M332 -15q-133 0 -197 63.5t-77 216.5q-1 19 -1 45t1 44q7 80 37.5 137.5t95.5 101t173 83.5q55 20 107 35t113 30v165q0 53 -25.5 79t-87.5 26q-53 0 -77.5 -21.5t-27.5 -72.5q-2 -14 -2.5 -50.5t0.5 -72.5t2 -49h-269q-1 16 -2 59.5t0 81.5q5 116 42 189.5t119.5 108.5
t223.5 35q144 0 226.5 -38.5t117 -122t34.5 -216.5l-2 -842h-276v127h-40q-35 -73 -80 -107.5t-128 -34.5zM445 183q45 0 80.5 23.5t55.5 62.5l2 291q-39 -9 -77 -20.5t-73 -27.5q-58 -27 -76.5 -68t-21.5 -90q-1 -23 -1 -36t1 -32q5 -50 32.5 -76.5t77.5 -26.5zM530 1310
v187h187v-187h-187zM238 1310v187h186v-187h-186z" />
    <glyph glyph-name="aring" unicode="&#xe5;" horiz-adv-x="945" 
d="M332 -15q-133 0 -197 63.5t-77 216.5q-1 19 -1 45t1 44q7 80 37.5 137.5t95.5 101t173 83.5q55 20 107 35t113 30v165q0 53 -25.5 79t-87.5 26q-53 0 -77.5 -21.5t-27.5 -72.5q-2 -14 -2.5 -50.5t0.5 -72.5t2 -49h-269q-1 16 -2 59.5t0 81.5q5 116 42 189.5t119.5 108.5
t223.5 35q144 0 226.5 -38.5t117 -122t34.5 -216.5l-2 -842h-276v127h-40q-35 -73 -80 -107.5t-128 -34.5zM445 183q45 0 80.5 23.5t55.5 62.5l2 291q-39 -9 -77 -20.5t-73 -27.5q-58 -27 -76.5 -68t-21.5 -90q-1 -23 -1 -36t1 -32q5 -50 32.5 -76.5t77.5 -26.5zM478 1270
q-84 0 -144.5 60.5t-60.5 144.5q0 85 60.5 145t144.5 60q85 0 145 -60t60 -145q0 -84 -60 -144.5t-145 -60.5zM478 1415q26 0 43.5 17.5t17.5 42.5q0 26 -17.5 43.5t-43.5 17.5q-25 0 -43 -17.5t-18 -43.5q0 -25 18 -42.5t43 -17.5z" />
    <glyph glyph-name="ae" unicode="&#xe6;" horiz-adv-x="1399" 
d="M325 -15q-117 0 -186.5 63t-80.5 216q-1 22 -1 46t1 44q10 120 81 191t219 125q54 21 105 35.5t105 28.5v58.5v57.5v58q0 28 -7 52t-28.5 37.5t-67.5 13.5q-53 0 -73.5 -21.5t-24.5 -72.5q-1 -19 -1.5 -52.5t0 -66.5t1.5 -53h-271q-1 9 -2 35.5t-1 56t1 49.5
q4 116 41.5 189.5t119 108.5t218.5 35q81 0 140 -12t100 -37q47 26 107.5 37.5t136.5 11.5q194 0 282.5 -77.5t96.5 -255.5q1 -18 1.5 -55.5t0.5 -85t-1 -97.5t-3 -93h-490v-131v-132q0 -56 29.5 -79.5t87.5 -23.5t79 25.5t22 76.5q3 43 3.5 80.5t-2.5 87.5h271q2 -14 3 -59
t-1 -79q-8 -181 -95.5 -260.5t-279.5 -79.5q-132 0 -218 35t-129 111h-22q-35 -75 -107.5 -108.5t-159.5 -33.5zM441 183q27 0 56.5 13t50.5 56.5t22 133.5q0 35 -1 78.5t-1 88.5q-33 -8 -70.5 -19.5t-68.5 -26.5q-53 -26 -72.5 -64t-23.5 -89q-1 -19 -1 -35.5t2 -33.5
q7 -49 32 -75.5t75 -26.5zM844 747h220q0 43 -0.5 91.5t-1.5 79.5q0 50 -25 71.5t-80 21.5q-56 0 -84.5 -22t-28.5 -72v-85v-85z" />
    <glyph glyph-name="ccedilla" unicode="&#xe7;" horiz-adv-x="916" 
d="M577 745q1 22 1.5 55t0 65.5t-1.5 51.5q-2 49 -25.5 71.5t-83.5 22.5q-61 0 -85.5 -21.5t-26.5 -72.5q-3 -85 -4 -163.5t-1 -154t1 -151.5t4 -157q2 -55 28 -78.5t87 -23.5q59 0 81.5 24.5t24.5 78.5q2 30 2 70.5t-2 96.5h273q2 -16 3 -60t-1 -78q-8 -181 -97 -260.5
t-284 -79.5q-205 0 -295 80t-100 260q-3 47 -4 122.5t-1 159.5t1.5 157t3.5 115q13 185 104 264.5t288 79.5q198 0 287 -77.5t97 -255.5q2 -34 1 -80.5t-3 -60.5h-273zM231 -309v132h62q61 0 86 24.5t16 80.5l-13 90h143l14 -90q17 -125 -42.5 -181t-203.5 -56h-62z" />
    <glyph glyph-name="egrave" unicode="&#xe8;" horiz-adv-x="915" 
d="M472 -19q-205 0 -295 80t-101 260q-3 47 -4 122.5t-1 159.5t1.5 157t3.5 115q13 185 104 264.5t288 79.5q198 0 287 -77.5t97 -255.5q1 -24 1.5 -80t0 -124.5t-3.5 -128.5h-499q0 -64 1.5 -129t3.5 -133q2 -55 28.5 -78.5t86.5 -23.5q57 0 80 23.5t26 79.5q2 28 2.5 69.5
t-2.5 97.5h273q2 -16 3 -60t-1 -78q-9 -181 -97 -260.5t-283 -79.5zM352 745h227v74.5t-0.5 61.5t-1.5 36q-3 51 -27.5 72.5t-81.5 21.5q-61 0 -85.5 -22t-26.5 -72q-1 -44 -2 -87t-2 -85zM345 1280l-179 271h190l170 -271h-181z" />
    <glyph glyph-name="eacute" unicode="&#xe9;" horiz-adv-x="915" 
d="M472 -19q-205 0 -295 80t-101 260q-3 47 -4 122.5t-1 159.5t1.5 157t3.5 115q13 185 104 264.5t288 79.5q198 0 287 -77.5t97 -255.5q1 -24 1.5 -80t0 -124.5t-3.5 -128.5h-499q0 -64 1.5 -129t3.5 -133q2 -55 28.5 -78.5t86.5 -23.5q57 0 80 23.5t26 79.5q2 28 2.5 69.5
t-2.5 97.5h273q2 -16 3 -60t-1 -78q-9 -181 -97 -260.5t-283 -79.5zM352 745h227v74.5t-0.5 61.5t-1.5 36q-3 51 -27.5 72.5t-81.5 21.5q-61 0 -85.5 -22t-26.5 -72q-1 -44 -2 -87t-2 -85zM382 1280l188 271h191l-198 -271h-181z" />
    <glyph glyph-name="ecircumflex" unicode="&#xea;" horiz-adv-x="915" 
d="M472 -19q-205 0 -295 80t-101 260q-3 47 -4 122.5t-1 159.5t1.5 157t3.5 115q13 185 104 264.5t288 79.5q198 0 287 -77.5t97 -255.5q1 -24 1.5 -80t0 -124.5t-3.5 -128.5h-499q0 -64 1.5 -129t3.5 -133q2 -55 28.5 -78.5t86.5 -23.5q57 0 80 23.5t26 79.5q2 28 2.5 69.5
t-2.5 97.5h273q2 -16 3 -60t-1 -78q-9 -181 -97 -260.5t-283 -79.5zM352 745h227v74.5t-0.5 61.5t-1.5 36q-3 51 -27.5 72.5t-81.5 21.5q-61 0 -85.5 -22t-26.5 -72q-1 -44 -2 -87t-2 -85zM210 1282l169 271h164l169 -271h-182l-69 122l-69 -122h-182z" />
    <glyph glyph-name="edieresis" unicode="&#xeb;" horiz-adv-x="915" 
d="M472 -19q-205 0 -295 80t-101 260q-3 47 -4 122.5t-1 159.5t1.5 157t3.5 115q13 185 104 264.5t288 79.5q198 0 287 -77.5t97 -255.5q1 -24 1.5 -80t0 -124.5t-3.5 -128.5h-499q0 -64 1.5 -129t3.5 -133q2 -55 28.5 -78.5t86.5 -23.5q57 0 80 23.5t26 79.5q2 28 2.5 69.5
t-2.5 97.5h273q2 -16 3 -60t-1 -78q-9 -181 -97 -260.5t-283 -79.5zM352 745h227v74.5t-0.5 61.5t-1.5 36q-3 51 -27.5 72.5t-81.5 21.5q-61 0 -85.5 -22t-26.5 -72q-1 -44 -2 -87t-2 -85zM517 1310v187h187v-187h-187zM225 1310v187h186v-187h-186z" />
    <glyph glyph-name="igrave" unicode="&#xec;" horiz-adv-x="461" 
d="M92 0v1200h277v-1200h-277zM112 1280l-179 271h190l170 -271h-181z" />
    <glyph glyph-name="iacute" unicode="&#xed;" horiz-adv-x="461" 
d="M92 0v1200h277v-1200h-277zM149 1280l188 271h191l-198 -271h-181z" />
    <glyph glyph-name="icircumflex" unicode="&#xee;" horiz-adv-x="461" 
d="M92 0v1200h277v-1200h-277zM-23 1282l169 271h164l169 -271h-182l-69 122l-69 -122h-182z" />
    <glyph glyph-name="idieresis" unicode="&#xef;" horiz-adv-x="461" 
d="M92 0v1200h277v-1200h-277zM284 1310v187h187v-187h-187zM-8 1310v187h186v-187h-186z" />
    <glyph glyph-name="eth" unicode="&#xf0;" horiz-adv-x="979" 
d="M502 -19q-214 0 -310 88.5t-106 294.5q-3 52 -3.5 115.5t0 131t1.5 131.5q3 148 83 236t199 88q78 0 132.5 -29t78.5 -77h25q-17 59 -44 114t-63 103l-126 -59l-54 107l95 46q-34 32 -73 60.5t-83 52.5l150 235q78 -46 142 -97t116 -109l144 67l54 -107l-122 -57
q85 -125 125.5 -276.5t48.5 -331.5q2 -44 2 -107.5v-127.5t-2 -108q-7 -138 -48.5 -222.5t-129 -123t-232.5 -38.5zM500 207q63 0 96 27t36 77q3 72 4.5 147t0 149t-5.5 142q-2 46 -38.5 69.5t-99.5 23.5q-62 0 -95 -28t-35 -80q-1 -53 -1 -127t1 -152t3 -142q2 -52 36 -79
t98 -27z" />
    <glyph glyph-name="ntilde" unicode="&#xf1;" horiz-adv-x="1006" 
d="M92 0v1200h277v-127h52q42 70 90.5 108t141.5 38q126 0 195 -75t70 -249v-895h-277v919q-1 50 -28 74t-79 24q-45 0 -95 -24.5t-70 -66.5v-926h-277zM659 1490h108q-6 -110 -45.5 -160t-112.5 -50q-45 0 -71.5 14t-44.5 32.5t-36 33t-47 14.5q-30 0 -40.5 -21t-15.5 -60
h-108q9 117 48.5 169t115.5 52q45 0 71.5 -13.5t44 -32t36 -32.5t46.5 -14t39 17.5t12 50.5z" />
    <glyph glyph-name="ograve" unicode="&#xf2;" horiz-adv-x="954" 
d="M478 -19q-143 0 -228.5 38t-126 122t-48.5 222q-1 42 -2.5 104t-1.5 132t1 133.5t3 105.5q8 139 48.5 222.5t126 121t228.5 37.5q146 0 230.5 -39t124 -122.5t46.5 -219.5q2 -42 3.5 -104.5t1.5 -132t-1.5 -132.5t-3.5 -106q-8 -137 -47 -221t-124 -122.5t-230 -38.5z
M478 189q66 0 94 26.5t29 78.5q3 83 4.5 159.5t1.5 151t-1.5 149.5t-4.5 154q-1 51 -29 77t-94 26q-64 0 -94 -27t-32 -77q-2 -68 -3 -143t-1 -153.5t1.5 -158.5t3.5 -158q3 -52 32 -78.5t93 -26.5zM359 1280l-179 271h190l170 -271h-181z" />
    <glyph glyph-name="oacute" unicode="&#xf3;" horiz-adv-x="954" 
d="M478 -19q-143 0 -228.5 38t-126 122t-48.5 222q-1 42 -2.5 104t-1.5 132t1 133.5t3 105.5q8 139 48.5 222.5t126 121t228.5 37.5q146 0 230.5 -39t124 -122.5t46.5 -219.5q2 -42 3.5 -104.5t1.5 -132t-1.5 -132.5t-3.5 -106q-8 -137 -47 -221t-124 -122.5t-230 -38.5z
M478 189q66 0 94 26.5t29 78.5q3 83 4.5 159.5t1.5 151t-1.5 149.5t-4.5 154q-1 51 -29 77t-94 26q-64 0 -94 -27t-32 -77q-2 -68 -3 -143t-1 -153.5t1.5 -158.5t3.5 -158q3 -52 32 -78.5t93 -26.5zM396 1280l188 271h191l-198 -271h-181z" />
    <glyph glyph-name="ocircumflex" unicode="&#xf4;" horiz-adv-x="954" 
d="M478 -19q-143 0 -228.5 38t-126 122t-48.5 222q-1 42 -2.5 104t-1.5 132t1 133.5t3 105.5q8 139 48.5 222.5t126 121t228.5 37.5q146 0 230.5 -39t124 -122.5t46.5 -219.5q2 -42 3.5 -104.5t1.5 -132t-1.5 -132.5t-3.5 -106q-8 -137 -47 -221t-124 -122.5t-230 -38.5z
M478 189q66 0 94 26.5t29 78.5q3 83 4.5 159.5t1.5 151t-1.5 149.5t-4.5 154q-1 51 -29 77t-94 26q-64 0 -94 -27t-32 -77q-2 -68 -3 -143t-1 -153.5t1.5 -158.5t3.5 -158q3 -52 32 -78.5t93 -26.5zM224 1282l169 271h164l169 -271h-182l-69 122l-69 -122h-182z" />
    <glyph glyph-name="otilde" unicode="&#xf5;" horiz-adv-x="954" 
d="M478 -19q-143 0 -228.5 38t-126 122t-48.5 222q-1 42 -2.5 104t-1.5 132t1 133.5t3 105.5q8 139 48.5 222.5t126 121t228.5 37.5q146 0 230.5 -39t124 -122.5t46.5 -219.5q2 -42 3.5 -104.5t1.5 -132t-1.5 -132.5t-3.5 -106q-8 -137 -47 -221t-124 -122.5t-230 -38.5z
M478 189q66 0 94 26.5t29 78.5q3 83 4.5 159.5t1.5 151t-1.5 149.5t-4.5 154q-1 51 -29 77t-94 26q-64 0 -94 -27t-32 -77q-2 -68 -3 -143t-1 -153.5t1.5 -158.5t3.5 -158q3 -52 32 -78.5t93 -26.5zM631 1490h108q-6 -110 -45.5 -160t-112.5 -50q-45 0 -71.5 14t-44.5 32.5
t-36 33t-47 14.5q-30 0 -40.5 -21t-15.5 -60h-108q9 117 48.5 169t115.5 52q45 0 71.5 -13.5t44 -32t36 -32.5t46.5 -14t39 17.5t12 50.5z" />
    <glyph glyph-name="odieresis" unicode="&#xf6;" horiz-adv-x="954" 
d="M478 -19q-143 0 -228.5 38t-126 122t-48.5 222q-1 42 -2.5 104t-1.5 132t1 133.5t3 105.5q8 139 48.5 222.5t126 121t228.5 37.5q146 0 230.5 -39t124 -122.5t46.5 -219.5q2 -42 3.5 -104.5t1.5 -132t-1.5 -132.5t-3.5 -106q-8 -137 -47 -221t-124 -122.5t-230 -38.5z
M478 189q66 0 94 26.5t29 78.5q3 83 4.5 159.5t1.5 151t-1.5 149.5t-4.5 154q-1 51 -29 77t-94 26q-64 0 -94 -27t-32 -77q-2 -68 -3 -143t-1 -153.5t1.5 -158.5t3.5 -158q3 -52 32 -78.5t93 -26.5zM531 1310v187h187v-187h-187zM239 1310v187h186v-187h-186z" />
    <glyph glyph-name="divide" unicode="&#xf7;" horiz-adv-x="1073" 
d="M84 618v209h905v-209h-905zM431 945v207h212v-207h-212zM431 293v207h212v-207h-212z" />
    <glyph glyph-name="oslash" unicode="&#xf8;" horiz-adv-x="954" 
d="M147 348l607 626l94 -102l-659 -677zM478 -19q-143 0 -228.5 38t-126 122t-48.5 222q-1 42 -2.5 104t-1.5 132t1 133.5t3 105.5q8 139 48.5 222.5t126 121t228.5 37.5q146 0 230.5 -39t124 -122.5t46.5 -219.5q2 -42 3.5 -104.5t1.5 -132t-1.5 -132.5t-3.5 -106
q-8 -137 -47 -221t-124 -122.5t-230 -38.5zM478 189q66 0 94 26.5t29 78.5q3 83 4.5 159.5t1.5 151t-1.5 149.5t-4.5 154q-1 51 -29 77t-94 26q-64 0 -94 -27t-32 -77q-2 -68 -3 -143t-1 -153.5t1.5 -158.5t3.5 -158q3 -52 32 -78.5t93 -26.5z" />
    <glyph glyph-name="ugrave" unicode="&#xf9;" horiz-adv-x="998" 
d="M356 -19q-124 0 -198 75.5t-74 248.5v895h278l3 -919q0 -50 24 -74t75 -24q47 0 95 25t67 66v926h280v-1200h-280v127h-38q-46 -78 -101 -112t-131 -34zM373 1280l-179 271h190l170 -271h-181z" />
    <glyph glyph-name="uacute" unicode="&#xfa;" horiz-adv-x="998" 
d="M356 -19q-124 0 -198 75.5t-74 248.5v895h278l3 -919q0 -50 24 -74t75 -24q47 0 95 25t67 66v926h280v-1200h-280v127h-38q-46 -78 -101 -112t-131 -34zM410 1280l188 271h191l-198 -271h-181z" />
    <glyph glyph-name="ucircumflex" unicode="&#xfb;" horiz-adv-x="998" 
d="M356 -19q-124 0 -198 75.5t-74 248.5v895h278l3 -919q0 -50 24 -74t75 -24q47 0 95 25t67 66v926h280v-1200h-280v127h-38q-46 -78 -101 -112t-131 -34zM238 1282l169 271h164l169 -271h-182l-69 122l-69 -122h-182z" />
    <glyph glyph-name="udieresis" unicode="&#xfc;" horiz-adv-x="998" 
d="M356 -19q-124 0 -198 75.5t-74 248.5v895h278l3 -919q0 -50 24 -74t75 -24q47 0 95 25t67 66v926h280v-1200h-280v127h-38q-46 -78 -101 -112t-131 -34zM545 1310v187h187v-187h-187zM253 1310v187h186v-187h-186z" />
    <glyph glyph-name="yacute" unicode="&#xfd;" horiz-adv-x="890" 
d="M222 -420q-34 0 -75 4t-77 10v205q28 -1 75 -2.5t76 -1.5q83 0 115.5 23.5t40.5 80.5l15 101h-146l-216 1200h284l61 -548l48 -448h70l32 448l53 548h284l-205 -1280q-18 -114 -61.5 -189.5t-131.5 -113t-242 -37.5zM363 1280l188 271h191l-198 -271h-181z" />
    <glyph glyph-name="thorn" unicode="&#xfe;" horiz-adv-x="993" 
d="M84 -400v2000h280v-527h40q42 71 89 108.5t142 37.5q125 0 193.5 -75t77.5 -249q2 -51 3.5 -130t1.5 -165.5t-1.5 -165t-3.5 -129.5q-9 -173 -84.5 -248.5t-200.5 -75.5q-70 0 -120 33.5t-97 112.5h-40v-527h-280zM508 183q52 0 83 24t34 74q5 69 7 151t2 169t-2 170
t-7 152q-3 47 -26.5 70.5t-73.5 23.5q-46 0 -93.5 -24.5t-67.5 -66.5v-652q22 -49 56.5 -70t87.5 -21z" />
    <glyph glyph-name="ydieresis" unicode="&#xff;" horiz-adv-x="890" 
d="M222 -420q-34 0 -75 4t-77 10v205q28 -1 75 -2.5t76 -1.5q83 0 115.5 23.5t40.5 80.5l15 101h-146l-216 1200h284l61 -548l48 -448h70l32 448l53 548h284l-205 -1280q-18 -114 -61.5 -189.5t-131.5 -113t-242 -37.5zM498 1310v187h187v-187h-187zM206 1310v187h186v-187
h-186z" />
    <glyph glyph-name="Amacron" unicode="&#x100;" 
d="M32 0l215 1600h465l214 -1600h-284l-36 353h-254l-35 -353h-285zM378 597h203l-36 352l-27 407h-78l-27 -407zM147 1805h662v-126h-662v126z" />
    <glyph glyph-name="amacron" unicode="&#x101;" horiz-adv-x="945" 
d="M332 -15q-133 0 -197 63.5t-77 216.5q-1 19 -1 45t1 44q7 80 37.5 137.5t95.5 101t173 83.5q55 20 107 35t113 30v165q0 53 -25.5 79t-87.5 26q-53 0 -77.5 -21.5t-27.5 -72.5q-2 -14 -2.5 -50.5t0.5 -72.5t2 -49h-269q-1 16 -2 59.5t0 81.5q5 116 42 189.5t119.5 108.5
t223.5 35q144 0 226.5 -38.5t117 -122t34.5 -216.5l-2 -842h-276v127h-40q-35 -73 -80 -107.5t-128 -34.5zM445 183q45 0 80.5 23.5t55.5 62.5l2 291q-39 -9 -77 -20.5t-73 -27.5q-58 -27 -76.5 -68t-21.5 -90q-1 -23 -1 -36t1 -32q5 -50 32.5 -76.5t77.5 -26.5zM145 1405
h662v-126h-662v126z" />
    <glyph glyph-name="Abreve" unicode="&#x102;" 
d="M32 0l215 1600h465l214 -1600h-284l-36 353h-254l-35 -353h-285zM378 597h203l-36 352l-27 407h-78l-27 -407zM480 1670q-153 0 -223.5 66.5t-78.5 219.5h169q0 -77 31 -111t102 -34q70 0 101 34t31 111h169q-9 -153 -79.5 -219.5t-221.5 -66.5z" />
    <glyph glyph-name="abreve" unicode="&#x103;" horiz-adv-x="945" 
d="M332 -15q-133 0 -197 63.5t-77 216.5q-1 19 -1 45t1 44q7 80 37.5 137.5t95.5 101t173 83.5q55 20 107 35t113 30v165q0 53 -25.5 79t-87.5 26q-53 0 -77.5 -21.5t-27.5 -72.5q-2 -14 -2.5 -50.5t0.5 -72.5t2 -49h-269q-1 16 -2 59.5t0 81.5q5 116 42 189.5t119.5 108.5
t223.5 35q144 0 226.5 -38.5t117 -122t34.5 -216.5l-2 -842h-276v127h-40q-35 -73 -80 -107.5t-128 -34.5zM445 183q45 0 80.5 23.5t55.5 62.5l2 291q-39 -9 -77 -20.5t-73 -27.5q-58 -27 -76.5 -68t-21.5 -90q-1 -23 -1 -36t1 -32q5 -50 32.5 -76.5t77.5 -26.5zM479 1289
q-153 0 -223.5 66.5t-78.5 219.5h169q0 -77 31 -111t102 -34q70 0 101 34t31 111h169q-9 -153 -79.5 -219.5t-221.5 -66.5z" />
    <glyph glyph-name="Aogonek" unicode="&#x104;" 
d="M32 0l215 1600h465l214 -1600h-284l-36 353h-254l-35 -353h-285zM378 597h203l-36 352l-27 407h-78l-27 -407zM937 -327h-62q-144 0 -204 56t-42 181l14 90h143l-14 -90q-7 -56 17.5 -80.5t85.5 -24.5h62v-132z" />
    <glyph glyph-name="aogonek" unicode="&#x105;" horiz-adv-x="945" 
d="M332 -15q-133 0 -197 63.5t-77 216.5q-1 19 -1 45t1 44q7 80 37.5 137.5t95.5 101t173 83.5q55 20 107 35t113 30v165q0 53 -25.5 79t-87.5 26q-53 0 -77.5 -21.5t-27.5 -72.5q-2 -14 -2.5 -50.5t0.5 -72.5t2 -49h-269q-1 16 -2 59.5t0 81.5q5 116 42 189.5t119.5 108.5
t223.5 35q144 0 226.5 -38.5t117 -122t34.5 -216.5l-2 -842h-276v127h-40q-35 -73 -80 -107.5t-128 -34.5zM445 183q45 0 80.5 23.5t55.5 62.5l2 291q-39 -9 -77 -20.5t-73 -27.5q-58 -27 -76.5 -68t-21.5 -90q-1 -23 -1 -36t1 -32q5 -50 32.5 -76.5t77.5 -26.5zM874 -323
h-62q-144 0 -204 56t-42 181l14 90h143l-14 -90q-7 -56 17.5 -80.5t85.5 -24.5h62v-132z" />
    <glyph glyph-name="Cacute" unicode="&#x106;" horiz-adv-x="976" 
d="M495 -19q-218 0 -312.5 88.5t-99.5 293.5q-2 107 -3 216.5t-1 220.5t1 221.5t3 218.5q3 188 101.5 283.5t310.5 95.5q208 0 304.5 -91t102.5 -289q1 -35 1 -75.5t-1 -81t-2 -75.5h-277q1 39 2 84.5t1 91.5t-1 85q-1 65 -32.5 95t-97.5 30q-68 0 -100.5 -30t-34.5 -95
q-3 -115 -4.5 -232.5t-1.5 -235.5t1.5 -235t4.5 -232q2 -66 34.5 -96t100.5 -30q70 0 103 30t35 96q2 42 2.5 85.5t-0.5 88t-2 90.5h277q2 -55 2 -118.5t-2 -115.5q-6 -205 -102 -293.5t-313 -88.5zM405 1680l188 271h191l-198 -271h-181z" />
    <glyph glyph-name="cacute" unicode="&#x107;" horiz-adv-x="916" 
d="M577 745q1 22 1.5 55t0 65.5t-1.5 51.5q-2 49 -25.5 71.5t-83.5 22.5q-61 0 -85.5 -21.5t-26.5 -72.5q-3 -85 -4 -163.5t-1 -154t1 -151.5t4 -157q2 -55 28 -78.5t87 -23.5q59 0 81.5 24.5t24.5 78.5q2 30 2 70.5t-2 96.5h273q2 -16 3 -60t-1 -78q-8 -181 -97 -260.5
t-284 -79.5q-205 0 -295 80t-100 260q-3 47 -4 122.5t-1 159.5t1.5 157t3.5 115q13 185 104 264.5t288 79.5q198 0 287 -77.5t97 -255.5q2 -34 1 -80.5t-3 -60.5h-273zM385 1280l188 271h191l-198 -271h-181z" />
    <glyph glyph-name="Ccircumflex" unicode="&#x108;" horiz-adv-x="976" 
d="M495 -19q-218 0 -312.5 88.5t-99.5 293.5q-2 107 -3 216.5t-1 220.5t1 221.5t3 218.5q3 188 101.5 283.5t310.5 95.5q208 0 304.5 -91t102.5 -289q1 -35 1 -75.5t-1 -81t-2 -75.5h-277q1 39 2 84.5t1 91.5t-1 85q-1 65 -32.5 95t-97.5 30q-68 0 -100.5 -30t-34.5 -95
q-3 -115 -4.5 -232.5t-1.5 -235.5t1.5 -235t4.5 -232q2 -66 34.5 -96t100.5 -30q70 0 103 30t35 96q2 42 2.5 85.5t-0.5 88t-2 90.5h277q2 -55 2 -118.5t-2 -115.5q-6 -205 -102 -293.5t-313 -88.5zM234 1682l169 271h164l169 -271h-182l-69 122l-69 -122h-182z" />
    <glyph glyph-name="ccircumflex" unicode="&#x109;" horiz-adv-x="916" 
d="M577 745q1 22 1.5 55t0 65.5t-1.5 51.5q-2 49 -25.5 71.5t-83.5 22.5q-61 0 -85.5 -21.5t-26.5 -72.5q-3 -85 -4 -163.5t-1 -154t1 -151.5t4 -157q2 -55 28 -78.5t87 -23.5q59 0 81.5 24.5t24.5 78.5q2 30 2 70.5t-2 96.5h273q2 -16 3 -60t-1 -78q-8 -181 -97 -260.5
t-284 -79.5q-205 0 -295 80t-100 260q-3 47 -4 122.5t-1 159.5t1.5 157t3.5 115q13 185 104 264.5t288 79.5q198 0 287 -77.5t97 -255.5q2 -34 1 -80.5t-3 -60.5h-273zM214 1282l169 271h164l169 -271h-182l-69 122l-69 -122h-182z" />
    <glyph glyph-name="Cdotaccent" unicode="&#x10a;" horiz-adv-x="976" 
d="M495 -19q-218 0 -312.5 88.5t-99.5 293.5q-2 107 -3 216.5t-1 220.5t1 221.5t3 218.5q3 188 101.5 283.5t310.5 95.5q208 0 304.5 -91t102.5 -289q1 -35 1 -75.5t-1 -81t-2 -75.5h-277q1 39 2 84.5t1 91.5t-1 85q-1 65 -32.5 95t-97.5 30q-68 0 -100.5 -30t-34.5 -95
q-3 -115 -4.5 -232.5t-1.5 -235.5t1.5 -235t4.5 -232q2 -66 34.5 -96t100.5 -30q70 0 103 30t35 96q2 42 2.5 85.5t-0.5 88t-2 90.5h277q2 -55 2 -118.5t-2 -115.5q-6 -205 -102 -293.5t-313 -88.5zM394 1680v187h186v-187h-186z" />
    <glyph glyph-name="cdotaccent" unicode="&#x10b;" horiz-adv-x="916" 
d="M577 745q1 22 1.5 55t0 65.5t-1.5 51.5q-2 49 -25.5 71.5t-83.5 22.5q-61 0 -85.5 -21.5t-26.5 -72.5q-3 -85 -4 -163.5t-1 -154t1 -151.5t4 -157q2 -55 28 -78.5t87 -23.5q59 0 81.5 24.5t24.5 78.5q2 30 2 70.5t-2 96.5h273q2 -16 3 -60t-1 -78q-8 -181 -97 -260.5
t-284 -79.5q-205 0 -295 80t-100 260q-3 47 -4 122.5t-1 159.5t1.5 157t3.5 115q13 185 104 264.5t288 79.5q198 0 287 -77.5t97 -255.5q2 -34 1 -80.5t-3 -60.5h-273zM374 1280v187h186v-187h-186z" />
    <glyph glyph-name="Ccaron" unicode="&#x10c;" horiz-adv-x="976" 
d="M495 -19q-218 0 -312.5 88.5t-99.5 293.5q-2 107 -3 216.5t-1 220.5t1 221.5t3 218.5q3 188 101.5 283.5t310.5 95.5q208 0 304.5 -91t102.5 -289q1 -35 1 -75.5t-1 -81t-2 -75.5h-277q1 39 2 84.5t1 91.5t-1 85q-1 65 -32.5 95t-97.5 30q-68 0 -100.5 -30t-34.5 -95
q-3 -115 -4.5 -232.5t-1.5 -235.5t1.5 -235t4.5 -232q2 -66 34.5 -96t100.5 -30q70 0 103 30t35 96q2 42 2.5 85.5t-0.5 88t-2 90.5h277q2 -55 2 -118.5t-2 -115.5q-6 -205 -102 -293.5t-313 -88.5zM413 1681l-169 271h164l78 -139l78 139h164l-169 -271h-146z" />
    <glyph glyph-name="ccaron" unicode="&#x10d;" horiz-adv-x="916" 
d="M577 745q1 22 1.5 55t0 65.5t-1.5 51.5q-2 49 -25.5 71.5t-83.5 22.5q-61 0 -85.5 -21.5t-26.5 -72.5q-3 -85 -4 -163.5t-1 -154t1 -151.5t4 -157q2 -55 28 -78.5t87 -23.5q59 0 81.5 24.5t24.5 78.5q2 30 2 70.5t-2 96.5h273q2 -16 3 -60t-1 -78q-8 -181 -97 -260.5
t-284 -79.5q-205 0 -295 80t-100 260q-3 47 -4 122.5t-1 159.5t1.5 157t3.5 115q13 185 104 264.5t288 79.5q198 0 287 -77.5t97 -255.5q2 -34 1 -80.5t-3 -60.5h-273zM393 1281l-169 271h164l78 -139l78 139h164l-169 -271h-146z" />
    <glyph glyph-name="Dcaron" unicode="&#x10e;" horiz-adv-x="984" 
d="M95 0v1600h397q214 0 309.5 -90.5t99.5 -297.5q3 -147 4 -279.5t0 -264t-4 -278.5q-4 -208 -99 -299t-309 -91h-398zM372 244h121q64 0 97 29t34 85q3 113 4.5 223.5t1.5 220t-1.5 220t-4.5 222.5q-1 55 -34 83.5t-98 28.5h-120v-1112zM418 1681l-169 271h164l78 -139
l78 139h164l-169 -271h-146z" />
    <glyph glyph-name="dcaron" unicode="&#x10f;" horiz-adv-x="1202" 
d="M342 -19q-125 0 -191.5 75.5t-74.5 248.5q-3 55 -4 133.5t-1 163.5t1.5 162.5t3.5 130.5q8 175 77 249.5t193 74.5q95 0 142.5 -37.5t89.5 -108.5h39v527h281v-1600h-281v127h-41q-41 -70 -90.5 -108t-143.5 -38zM457 183q45 0 93 24.5t67 66.5v652q-19 42 -67 66.5
t-93 24.5q-50 0 -74 -23.5t-27 -70.5q-5 -100 -7 -214t0 -225t7 -202q3 -51 26 -75t75 -24zM953 1288l60 313h189l-80 -313h-169z" />
    <glyph glyph-name="Dcroat" unicode="&#x110;" horiz-adv-x="1076" 
d="M73 946h516v-135h-516v135zM187 0v1600h397q214 0 309.5 -90.5t99.5 -297.5q3 -147 4 -279.5t0 -264t-4 -278.5q-4 -208 -99.5 -299t-308.5 -91h-398zM464 244h121q64 0 96.5 29t34.5 85q3 113 4.5 223.5t1.5 220t-1.5 220t-5.5 222.5q-1 55 -33.5 83.5t-97.5 28.5h-120
v-1112z" />
    <glyph glyph-name="dcroat" unicode="&#x111;" horiz-adv-x="991" 
d="M411 1473h565v-138h-565v138zM342 -19q-125 0 -191.5 75.5t-74.5 248.5q-3 55 -4 133.5t-1 163.5t1.5 162.5t3.5 130.5q8 175 77 249.5t193 74.5q95 0 142.5 -37.5t89.5 -108.5h39v527h281v-1600h-281v127h-41q-41 -70 -90.5 -108t-143.5 -38zM457 183q45 0 93 24.5
t67 66.5v652q-19 42 -67 66.5t-93 24.5q-50 0 -74 -23.5t-27 -70.5q-5 -100 -7 -214t0 -225t7 -202q3 -51 26 -75t75 -24z" />
    <glyph glyph-name="Emacron" unicode="&#x112;" horiz-adv-x="829" 
d="M95 0v1600h683v-244h-406v-421h386v-244h-386v-447h406v-244h-683zM97 1805h662v-126h-662v126z" />
    <glyph glyph-name="emacron" unicode="&#x113;" horiz-adv-x="915" 
d="M472 -19q-205 0 -295 80t-101 260q-3 47 -4 122.5t-1 159.5t1.5 157t3.5 115q13 185 104 264.5t288 79.5q198 0 287 -77.5t97 -255.5q1 -24 1.5 -80t0 -124.5t-3.5 -128.5h-499q0 -64 1.5 -129t3.5 -133q2 -55 28.5 -78.5t86.5 -23.5q57 0 80 23.5t26 79.5q2 28 2.5 69.5
t-2.5 97.5h273q2 -16 3 -60t-1 -78q-9 -181 -97 -260.5t-283 -79.5zM352 745h227v74.5t-0.5 61.5t-1.5 36q-3 51 -27.5 72.5t-81.5 21.5q-61 0 -85.5 -22t-26.5 -72q-1 -44 -2 -87t-2 -85zM132 1405h662v-126h-662v126z" />
    <glyph glyph-name="Ebreve" unicode="&#x114;" horiz-adv-x="829" 
d="M95 0v1600h683v-244h-406v-421h386v-244h-386v-447h406v-244h-683zM430 1670q-153 0 -223.5 66.5t-78.5 219.5h169q0 -77 31 -111t102 -34q70 0 101 34t31 111h169q-9 -153 -79.5 -219.5t-221.5 -66.5z" />
    <glyph glyph-name="ebreve" unicode="&#x115;" horiz-adv-x="915" 
d="M472 -19q-205 0 -295 80t-101 260q-3 47 -4 122.5t-1 159.5t1.5 157t3.5 115q13 185 104 264.5t288 79.5q198 0 287 -77.5t97 -255.5q1 -24 1.5 -80t0 -124.5t-3.5 -128.5h-499q0 -64 1.5 -129t3.5 -133q2 -55 28.5 -78.5t86.5 -23.5q57 0 80 23.5t26 79.5q2 28 2.5 69.5
t-2.5 97.5h273q2 -16 3 -60t-1 -78q-9 -181 -97 -260.5t-283 -79.5zM352 745h227v74.5t-0.5 61.5t-1.5 36q-3 51 -27.5 72.5t-81.5 21.5q-61 0 -85.5 -22t-26.5 -72q-1 -44 -2 -87t-2 -85zM464 1270q-153 0 -223.5 66.5t-78.5 219.5h169q0 -77 31 -111t102 -34q70 0 101 34
t31 111h169q-9 -153 -79.5 -219.5t-221.5 -66.5z" />
    <glyph glyph-name="Edotaccent" unicode="&#x116;" horiz-adv-x="829" 
d="M95 0v1600h683v-244h-406v-421h386v-244h-386v-447h406v-244h-683zM335 1680v187h186v-187h-186z" />
    <glyph glyph-name="edotaccent" unicode="&#x117;" horiz-adv-x="915" 
d="M472 -19q-205 0 -295 80t-101 260q-3 47 -4 122.5t-1 159.5t1.5 157t3.5 115q13 185 104 264.5t288 79.5q198 0 287 -77.5t97 -255.5q1 -24 1.5 -80t0 -124.5t-3.5 -128.5h-499q0 -64 1.5 -129t3.5 -133q2 -55 28.5 -78.5t86.5 -23.5q57 0 80 23.5t26 79.5q2 28 2.5 69.5
t-2.5 97.5h273q2 -16 3 -60t-1 -78q-9 -181 -97 -260.5t-283 -79.5zM352 745h227v74.5t-0.5 61.5t-1.5 36q-3 51 -27.5 72.5t-81.5 21.5q-61 0 -85.5 -22t-26.5 -72q-1 -44 -2 -87t-2 -85zM370 1280v187h186v-187h-186z" />
    <glyph glyph-name="Eogonek" unicode="&#x118;" horiz-adv-x="829" 
d="M95 0v1600h683v-244h-406v-421h386v-244h-386v-447h406v-244h-683zM779 -323h-62q-144 0 -204 56t-42 181l14 90h143l-14 -90q-7 -56 17.5 -80.5t85.5 -24.5h62v-132z" />
    <glyph glyph-name="eogonek" unicode="&#x119;" horiz-adv-x="915" 
d="M472 -19q-205 0 -295 80t-101 260q-3 47 -4 122.5t-1 159.5t1.5 157t3.5 115q13 185 104 264.5t288 79.5q198 0 287 -77.5t97 -255.5q1 -24 1.5 -80t0 -124.5t-3.5 -128.5h-499q0 -64 1.5 -129t3.5 -133q2 -55 28.5 -78.5t86.5 -23.5q57 0 80 23.5t26 79.5q2 28 2.5 69.5
t-2.5 97.5h273q2 -16 3 -60t-1 -78q-9 -181 -97 -260.5t-283 -79.5zM352 745h227v74.5t-0.5 61.5t-1.5 36q-3 51 -27.5 72.5t-81.5 21.5q-61 0 -85.5 -22t-26.5 -72q-1 -44 -2 -87t-2 -85zM865 -284h-62q-144 0 -204 56t-42 181l14 90h143l-14 -90q-7 -56 17.5 -80.5
t85.5 -24.5h62v-132z" />
    <glyph glyph-name="Ecaron" unicode="&#x11a;" horiz-adv-x="829" 
d="M95 0v1600h683v-244h-406v-421h386v-244h-386v-447h406v-244h-683zM355 1681l-169 271h164l78 -139l78 139h164l-169 -271h-146z" />
    <glyph glyph-name="ecaron" unicode="&#x11b;" horiz-adv-x="915" 
d="M472 -19q-205 0 -295 80t-101 260q-3 47 -4 122.5t-1 159.5t1.5 157t3.5 115q13 185 104 264.5t288 79.5q198 0 287 -77.5t97 -255.5q1 -24 1.5 -80t0 -124.5t-3.5 -128.5h-499q0 -64 1.5 -129t3.5 -133q2 -55 28.5 -78.5t86.5 -23.5q57 0 80 23.5t26 79.5q2 28 2.5 69.5
t-2.5 97.5h273q2 -16 3 -60t-1 -78q-9 -181 -97 -260.5t-283 -79.5zM352 745h227v74.5t-0.5 61.5t-1.5 36q-3 51 -27.5 72.5t-81.5 21.5q-61 0 -85.5 -22t-26.5 -72q-1 -44 -2 -87t-2 -85zM389 1281l-169 271h164l78 -139l78 139h164l-169 -271h-146z" />
    <glyph glyph-name="Gcircumflex" unicode="&#x11c;" horiz-adv-x="983" 
d="M498 -19q-145 0 -234 38.5t-131.5 122.5t-47.5 221q-3 92 -4.5 203.5t-1.5 229t1.5 227.5t4.5 199q6 143 49 230.5t131.5 127t231.5 39.5q207 0 301 -88t106 -292q3 -51 3 -115.5t-3 -116.5h-277q3 65 3 136t-3 136q-3 60 -34 87t-96 27q-68 0 -99.5 -27t-35.5 -87
q-5 -112 -8 -233t-3 -245t3 -245t8 -233q4 -61 35.5 -88.5t100.5 -27.5t103.5 27.5t39.5 88.5q1 27 1.5 64t0 74t-1.5 64h-116v241h385q5 -93 4 -200.5t-5 -202.5q-10 -205 -105 -293.5t-306 -88.5zM236 1682l169 271h164l169 -271h-182l-69 122l-69 -122h-182z" />
    <glyph glyph-name="gcircumflex" unicode="&#x11d;" horiz-adv-x="997" 
d="M451 -393q-166 0 -258 47t-112 135q-3 13 -4.5 33t0.5 37q7 50 40.5 85.5t92.5 42.5v39q-54 10 -86 39t-39 76q-2 18 -2 31.5t2 29.5q5 44 45.5 70.5t102.5 35.5v40q-83 36 -123.5 111t-48.5 194q-1 34 -2 63t-1 55.5t1 52t2 51.5q8 121 50 197t127 111.5t223 35.5
q131 0 212.5 -32t124.5 -103h40q8 61 45 88.5t112 27.5v-210h-32q-50 0 -78 -22.5t-28 -83.5v-59v-38.5t0.5 -40.5t0 -44t-2.5 -49q-8 -124 -49.5 -200t-125.5 -110.5t-220 -34.5q-94 0 -133 -13.5t-39 -44.5v-7q0 -20 10.5 -32.5t45.5 -17.5t109 -6q206 -4 304 -65
t119 -179q3 -18 3.5 -41t-3.5 -50q-12 -86 -61 -140.5t-139 -79.5t-225 -25zM464 -203q55 0 94.5 8.5t63.5 25.5t32 42q6 16 5 30t-6 29q-9 24 -32.5 40t-62.5 23.5t-93 7.5q-77 1 -119.5 -16.5t-53.5 -54.5q-4 -16 -4 -31t4 -29q7 -25 28.5 -42t57.5 -25t86 -8zM459 515
q62 0 91.5 26.5t32.5 72.5q2 29 3.5 66.5t1.5 78.5t-1.5 80.5t-3.5 71.5q-3 49 -32 74.5t-92 25.5t-93.5 -25.5t-33.5 -78.5q-1 -40 -2.5 -79t-1.5 -75.5t1 -69.5t3 -62q4 -48 32.5 -77t94.5 -29zM207 1282l169 271h164l169 -271h-182l-69 122l-69 -122h-182z" />
    <glyph glyph-name="Gbreve" unicode="&#x11e;" horiz-adv-x="983" 
d="M498 -19q-145 0 -234 38.5t-131.5 122.5t-47.5 221q-3 92 -4.5 203.5t-1.5 229t1.5 227.5t4.5 199q6 143 49 230.5t131.5 127t231.5 39.5q207 0 301 -88t106 -292q3 -51 3 -115.5t-3 -116.5h-277q3 65 3 136t-3 136q-3 60 -34 87t-96 27q-68 0 -99.5 -27t-35.5 -87
q-5 -112 -8 -233t-3 -245t3 -245t8 -233q4 -61 35.5 -88.5t100.5 -27.5t103.5 27.5t39.5 88.5q1 27 1.5 64t0 74t-1.5 64h-116v241h385q5 -93 4 -200.5t-5 -202.5q-10 -205 -105 -293.5t-306 -88.5zM490 1670q-153 0 -223.5 66.5t-78.5 219.5h169q0 -77 31 -111t102 -34
q70 0 101 34t31 111h169q-9 -153 -79.5 -219.5t-221.5 -66.5z" />
    <glyph glyph-name="gbreve" unicode="&#x11f;" horiz-adv-x="997" 
d="M451 -393q-166 0 -258 47t-112 135q-3 13 -4.5 33t0.5 37q7 50 40.5 85.5t92.5 42.5v39q-54 10 -86 39t-39 76q-2 18 -2 31.5t2 29.5q5 44 45.5 70.5t102.5 35.5v40q-83 36 -123.5 111t-48.5 194q-1 34 -2 63t-1 55.5t1 52t2 51.5q8 121 50 197t127 111.5t223 35.5
q131 0 212.5 -32t124.5 -103h40q8 61 45 88.5t112 27.5v-210h-32q-50 0 -78 -22.5t-28 -83.5v-59v-38.5t0.5 -40.5t0 -44t-2.5 -49q-8 -124 -49.5 -200t-125.5 -110.5t-220 -34.5q-94 0 -133 -13.5t-39 -44.5v-7q0 -20 10.5 -32.5t45.5 -17.5t109 -6q206 -4 304 -65
t119 -179q3 -18 3.5 -41t-3.5 -50q-12 -86 -61 -140.5t-139 -79.5t-225 -25zM464 -203q55 0 94.5 8.5t63.5 25.5t32 42q6 16 5 30t-6 29q-9 24 -32.5 40t-62.5 23.5t-93 7.5q-77 1 -119.5 -16.5t-53.5 -54.5q-4 -16 -4 -31t4 -29q7 -25 28.5 -42t57.5 -25t86 -8zM459 515
q62 0 91.5 26.5t32.5 72.5q2 29 3.5 66.5t1.5 78.5t-1.5 80.5t-3.5 71.5q-3 49 -32 74.5t-92 25.5t-93.5 -25.5t-33.5 -78.5q-1 -40 -2.5 -79t-1.5 -75.5t1 -69.5t3 -62q4 -48 32.5 -77t94.5 -29zM461 1270q-153 0 -223.5 66.5t-78.5 219.5h169q0 -77 31 -111t102 -34
q70 0 101 34t31 111h169q-9 -153 -79.5 -219.5t-221.5 -66.5z" />
    <glyph glyph-name="Gdotaccent" unicode="&#x120;" horiz-adv-x="983" 
d="M498 -19q-145 0 -234 38.5t-131.5 122.5t-47.5 221q-3 92 -4.5 203.5t-1.5 229t1.5 227.5t4.5 199q6 143 49 230.5t131.5 127t231.5 39.5q207 0 301 -88t106 -292q3 -51 3 -115.5t-3 -116.5h-277q3 65 3 136t-3 136q-3 60 -34 87t-96 27q-68 0 -99.5 -27t-35.5 -87
q-5 -112 -8 -233t-3 -245t3 -245t8 -233q4 -61 35.5 -88.5t100.5 -27.5t103.5 27.5t39.5 88.5q1 27 1.5 64t0 74t-1.5 64h-116v241h385q5 -93 4 -200.5t-5 -202.5q-10 -205 -105 -293.5t-306 -88.5zM396 1680v187h186v-187h-186z" />
    <glyph glyph-name="gdotaccent" unicode="&#x121;" horiz-adv-x="997" 
d="M451 -393q-166 0 -258 47t-112 135q-3 13 -4.5 33t0.5 37q7 50 40.5 85.5t92.5 42.5v39q-54 10 -86 39t-39 76q-2 18 -2 31.5t2 29.5q5 44 45.5 70.5t102.5 35.5v40q-83 36 -123.5 111t-48.5 194q-1 34 -2 63t-1 55.5t1 52t2 51.5q8 121 50 197t127 111.5t223 35.5
q131 0 212.5 -32t124.5 -103h40q8 61 45 88.5t112 27.5v-210h-32q-50 0 -78 -22.5t-28 -83.5v-59v-38.5t0.5 -40.5t0 -44t-2.5 -49q-8 -124 -49.5 -200t-125.5 -110.5t-220 -34.5q-94 0 -133 -13.5t-39 -44.5v-7q0 -20 10.5 -32.5t45.5 -17.5t109 -6q206 -4 304 -65
t119 -179q3 -18 3.5 -41t-3.5 -50q-12 -86 -61 -140.5t-139 -79.5t-225 -25zM464 -203q55 0 94.5 8.5t63.5 25.5t32 42q6 16 5 30t-6 29q-9 24 -32.5 40t-62.5 23.5t-93 7.5q-77 1 -119.5 -16.5t-53.5 -54.5q-4 -16 -4 -31t4 -29q7 -25 28.5 -42t57.5 -25t86 -8zM459 515
q62 0 91.5 26.5t32.5 72.5q2 29 3.5 66.5t1.5 78.5t-1.5 80.5t-3.5 71.5q-3 49 -32 74.5t-92 25.5t-93.5 -25.5t-33.5 -78.5q-1 -40 -2.5 -79t-1.5 -75.5t1 -69.5t3 -62q4 -48 32.5 -77t94.5 -29zM367 1280v187h186v-187h-186z" />
    <glyph glyph-name="uni0122" unicode="&#x122;" horiz-adv-x="983" 
d="M498 -19q-145 0 -234 38.5t-131.5 122.5t-47.5 221q-3 92 -4.5 203.5t-1.5 229t1.5 227.5t4.5 199q6 143 49 230.5t131.5 127t231.5 39.5q207 0 301 -88t106 -292q3 -51 3 -115.5t-3 -116.5h-277q3 65 3 136t-3 136q-3 60 -34 87t-96 27q-68 0 -99.5 -27t-35.5 -87
q-5 -112 -8 -233t-3 -245t3 -245t8 -233q4 -61 35.5 -88.5t100.5 -27.5t103.5 27.5t39.5 88.5q1 27 1.5 64t0 74t-1.5 64h-116v241h385q5 -93 4 -200.5t-5 -202.5q-10 -205 -105 -293.5t-306 -88.5zM395 -443l74 150h-110v213h281v-188l-102 -175h-143z" />
    <glyph glyph-name="uni0123" unicode="&#x123;" horiz-adv-x="997" 
d="M451 -393q-166 0 -258 47t-112 135q-3 13 -4.5 33t0.5 37q7 50 40.5 85.5t92.5 42.5v39q-54 10 -86 39t-39 76q-2 18 -2 31.5t2 29.5q5 44 45.5 70.5t102.5 35.5v40q-83 36 -123.5 111t-48.5 194q-1 34 -2 63t-1 55.5t1 52t2 51.5q8 121 50 197t127 111.5t223 35.5
q131 0 212.5 -32t124.5 -103h40q8 61 45 88.5t112 27.5v-210h-32q-50 0 -78 -22.5t-28 -83.5v-59v-38.5t0.5 -40.5t0 -44t-2.5 -49q-8 -124 -49.5 -200t-125.5 -110.5t-220 -34.5q-94 0 -133 -13.5t-39 -44.5v-7q0 -20 10.5 -32.5t45.5 -17.5t109 -6q206 -4 304 -65
t119 -179q3 -18 3.5 -41t-3.5 -50q-12 -86 -61 -140.5t-139 -79.5t-225 -25zM464 -203q55 0 94.5 8.5t63.5 25.5t32 42q6 16 5 30t-6 29q-9 24 -32.5 40t-62.5 23.5t-93 7.5q-77 1 -119.5 -16.5t-53.5 -54.5q-4 -16 -4 -31t4 -29q7 -25 28.5 -42t57.5 -25t86 -8zM459 515
q62 0 91.5 26.5t32.5 72.5q2 29 3.5 66.5t1.5 78.5t-1.5 80.5t-3.5 71.5q-3 49 -32 74.5t-92 25.5t-93.5 -25.5t-33.5 -78.5q-1 -40 -2.5 -79t-1.5 -75.5t1 -69.5t3 -62q4 -48 32.5 -77t94.5 -29zM575 1645l-75 -150h110v-213h-281v188l102 175h144z" />
    <glyph glyph-name="Hcircumflex" unicode="&#x124;" horiz-adv-x="984" 
d="M95 0v1600h277v-665h240v665h277v-1600h-277v691h-240v-691h-277zM239 1682l169 271h164l169 -271h-182l-69 122l-69 -122h-182z" />
    <glyph glyph-name="hcircumflex" unicode="&#x125;" horiz-adv-x="1006" 
d="M92 0v1600h281v-527h48q42 71 90 108.5t142 37.5q126 0 194 -75t69 -249l2 -895h-281l-2 919q0 50 -24.5 74t-76.5 24q-47 0 -94.5 -24.5t-66.5 -66.5v-926h-281zM265 1682l169 271h164l169 -271h-182l-69 122l-69 -122h-182z" />
    <glyph glyph-name="Hbar" unicode="&#x126;" horiz-adv-x="1080" 
d="M41 1273h997v-135h-997v135zM143 0v1600h277v-665h240v665h277v-1600h-277v691h-240v-691h-277z" />
    <glyph glyph-name="hbar" unicode="&#x127;" horiz-adv-x="1006" 
d="M92 0v1600h281v-527h48q42 71 90 108.5t142 37.5q126 0 194 -75t69 -249l2 -895h-281l-2 919q0 50 -24.5 74t-76.5 24q-47 0 -94.5 -24.5t-66.5 -66.5v-926h-281zM22 1441h551v-138h-551v138z" />
    <glyph glyph-name="Itilde" unicode="&#x128;" horiz-adv-x="467" 
d="M95 0v1600h277v-1600h-277zM386 1890h108q-6 -110 -45.5 -160t-112.5 -50q-45 0 -71.5 14t-44.5 32.5t-36 33t-47 14.5q-30 0 -40.5 -21t-15.5 -60h-108q9 117 48.5 169t115.5 52q45 0 71.5 -13.5t44 -32t36 -32.5t46.5 -14t39 17.5t12 50.5z" />
    <glyph glyph-name="itilde" unicode="&#x129;" horiz-adv-x="461" 
d="M92 0v1200h277v-1200h-277zM383 1490h108q-6 -110 -45.5 -160t-112.5 -50q-45 0 -71.5 14t-44.5 32.5t-36 33t-47 14.5q-30 0 -40.5 -21t-15.5 -60h-108q9 117 48.5 169t115.5 52q45 0 71.5 -13.5t44 -32t36 -32.5t46.5 -14t39 17.5t12 50.5z" />
    <glyph glyph-name="Imacron" unicode="&#x12a;" horiz-adv-x="467" 
d="M95 0v1600h277v-1600h-277zM-99 1805h662v-126h-662v126z" />
    <glyph glyph-name="imacron" unicode="&#x12b;" horiz-adv-x="461" 
d="M92 0v1200h277v-1200h-277zM-102 1405h662v-126h-662v126z" />
    <glyph glyph-name="Ibreve" unicode="&#x12c;" horiz-adv-x="467" 
d="M95 0v1600h277v-1600h-277zM234 1670q-153 0 -223.5 66.5t-78.5 219.5h169q0 -77 31 -111t102 -34q70 0 101 34t31 111h169q-9 -153 -79.5 -219.5t-221.5 -66.5z" />
    <glyph glyph-name="ibreve" unicode="&#x12d;" horiz-adv-x="461" 
d="M92 0v1200h277v-1200h-277zM231 1270q-153 0 -223.5 66.5t-78.5 219.5h169q0 -77 31 -111t102 -34q70 0 101 34t31 111h169q-9 -153 -79.5 -219.5t-221.5 -66.5z" />
    <glyph glyph-name="Iogonek" unicode="&#x12e;" horiz-adv-x="467" 
d="M95 0v1600h277v-1600h-277zM390 -327h-62q-144 0 -204 56t-42 181l14 90h143l-14 -90q-7 -56 17.5 -80.5t85.5 -24.5h62v-132z" />
    <glyph glyph-name="iogonek" unicode="&#x12f;" horiz-adv-x="445" 
d="M79 1384v216h287v-216h-287zM92 0v1200h277v-1200h-277zM378 -327h-62q-143 0 -203.5 56t-42.5 181l14 90h143l-14 -90q-7 -56 17.5 -80.5t85.5 -24.5h62v-132z" />
    <glyph glyph-name="Idotaccent" unicode="&#x130;" horiz-adv-x="467" 
d="M95 0v1600h277v-1600h-277zM140 1680v187h186v-187h-186z" />
    <glyph glyph-name="dotlessi" unicode="&#x131;" horiz-adv-x="461" 
d="M92 0v1200h277v-1200h-277z" />
    <glyph glyph-name="Jcircumflex" unicode="&#x134;" horiz-adv-x="908" 
d="M431 -19q-139 0 -223 38.5t-123.5 122.5t-43.5 221q-1 54 -1 117t1 117h261q-1 -39 -1.5 -88t0 -98t1.5 -88q2 -60 32.5 -88t96.5 -28t94.5 28t28.5 88v1277h277v-1237q0 -205 -91.5 -293.5t-308.5 -88.5zM232 1682l169 271h164l169 -271h-182l-69 122l-69 -122h-182z
" />
    <glyph glyph-name="jcircumflex" unicode="&#x135;" horiz-adv-x="467" 
d="M-28 -424q-34 0 -74.5 4t-76.5 10v206q28 -2 74 -3.5t77 -1.5q59 0 90 26t31 76v1307h281v-1283q0 -182 -99 -261.5t-303 -79.5zM-18 1282l169 271h164l169 -271h-182l-69 122l-69 -122h-182z" />
    <glyph glyph-name="uni0136" unicode="&#x136;" horiz-adv-x="984" 
d="M95 0v1600h295l-3 -386l-39 -371h63l102 376l139 381h303l-262 -667l275 -933h-281l-182 639l-127 -266v-373h-283zM427 -443l74 150h-110v213h281v-188l-102 -175h-143z" />
    <glyph glyph-name="uni0137" unicode="&#x137;" horiz-adv-x="903" 
d="M92 0v1600h261v-312l-33 -556h45l95 256l112 212h289l-250 -455l294 -745h-286l-184 471l-75 -117v-354h-268zM384 -443l74 150h-110v213h281v-188l-102 -175h-143z" />
    <glyph glyph-name="kgreenlandic" unicode="&#x138;" horiz-adv-x="965" 
d="M92 0v1200h261v-124l-33 -380h45l96 250l141 254h290l-280 -492l293 -708h-286l-180 432l-79 -129v-303h-268z" />
    <glyph glyph-name="Lacute" unicode="&#x139;" horiz-adv-x="785" 
d="M95 0v1600h277v-1356h387v-244h-664zM352 1680l188 271h191l-198 -271h-181z" />
    <glyph glyph-name="lacute" unicode="&#x13a;" horiz-adv-x="461" 
d="M92 0v1600h277v-1600h-277zM149 1680l188 271h191l-198 -271h-181z" />
    <glyph glyph-name="uni013B" unicode="&#x13b;" horiz-adv-x="785" 
d="M95 0v1600h277v-1356h387v-244h-664zM333 -443l74 150h-110v213h281v-188l-102 -175h-143z" />
    <glyph glyph-name="uni013C" unicode="&#x13c;" horiz-adv-x="461" 
d="M92 0v1600h277v-1600h-277zM136 -443l74 150h-110v213h281v-188l-102 -175h-143z" />
    <glyph glyph-name="Lcaron" unicode="&#x13d;" horiz-adv-x="785" 
d="M95 0v1600h277v-1356h387v-244h-664zM505 1287l60 313h189l-80 -313h-169z" />
    <glyph glyph-name="lcaron" unicode="&#x13e;" horiz-adv-x="668" 
d="M92 0v1600h277v-1600h-277zM419 1287l60 313h189l-80 -313h-169z" />
    <glyph glyph-name="Ldot" unicode="&#x13f;" horiz-adv-x="785" 
d="M95 0v1600h277v-1356h387v-244h-664zM551 737v204h205v-204h-205z" />
    <glyph glyph-name="ldot" unicode="&#x140;" horiz-adv-x="692" 
d="M92 0v1600h277v-1600h-277zM454 732v204h205v-204h-205z" />
    <glyph glyph-name="Lslash" unicode="&#x141;" horiz-adv-x="918" 
d="M228 0v441l-33 -77h-192l225 382v854h277v-481l36 81h211l-247 -416v-540h387v-244h-664z" />
    <glyph glyph-name="lslash" unicode="&#x142;" horiz-adv-x="752" 
d="M226 0v439l-32 -75h-192l224 381v855h277v-483l37 83h211l-248 -418v-782h-277z" />
    <glyph glyph-name="Nacute" unicode="&#x143;" horiz-adv-x="1136" 
d="M95 0v1600h441l115 -509l114 -847h74l-51 688l-21 668h274v-1600h-462l-116 531l-87 827h-78l47 -746l23 -612h-273zM486 1680l188 271h191l-198 -271h-181z" />
    <glyph glyph-name="nacute" unicode="&#x144;" horiz-adv-x="1006" 
d="M92 0v1200h277v-127h52q42 70 90.5 108t141.5 38q126 0 195 -75t70 -249v-895h-277v919q-1 50 -28 74t-79 24q-45 0 -95 -24.5t-70 -66.5v-926h-277zM424 1280l188 271h191l-198 -271h-181z" />
    <glyph glyph-name="uni0145" unicode="&#x145;" horiz-adv-x="1136" 
d="M95 0v1600h441l115 -509l114 -847h74l-51 688l-21 668h274v-1600h-462l-116 531l-87 827h-78l47 -746l23 -612h-273zM472 -443l74 150h-110v213h281v-188l-102 -175h-143z" />
    <glyph glyph-name="uni0146" unicode="&#x146;" horiz-adv-x="1006" 
d="M92 0v1200h277v-127h52q42 70 90.5 108t141.5 38q126 0 195 -75t70 -249v-895h-277v919q-1 50 -28 74t-79 24q-45 0 -95 -24.5t-70 -66.5v-926h-277zM411 -443l74 150h-110v213h281v-188l-102 -175h-143z" />
    <glyph glyph-name="Ncaron" unicode="&#x147;" horiz-adv-x="1136" 
d="M95 0v1600h441l115 -509l114 -847h74l-51 688l-21 668h274v-1600h-462l-116 531l-87 827h-78l47 -746l23 -612h-273zM493 1681l-169 271h164l78 -139l78 139h164l-169 -271h-146z" />
    <glyph glyph-name="ncaron" unicode="&#x148;" horiz-adv-x="1006" 
d="M92 0v1200h277v-127h52q42 70 90.5 108t141.5 38q126 0 195 -75t70 -249v-895h-277v919q-1 50 -28 74t-79 24q-45 0 -95 -24.5t-70 -66.5v-926h-277zM432 1281l-169 271h164l78 -139l78 139h164l-169 -271h-146z" />
    <glyph glyph-name="Eng" unicode="&#x14a;" horiz-adv-x="1136" 
d="M624 -419q-33 0 -70.5 3.5t-72.5 9.5v201q27 -1 70 -2.5t72 -1.5q78 0 128 23t50 77v274h240v-249q0 -178 -101 -256.5t-316 -78.5zM95 0v1600h441l115 -509l114 -847h74l-51 688l-21 668h274v-1600h-462l-116 531l-87 827h-78l47 -746l23 -612h-273z" />
    <glyph glyph-name="eng" unicode="&#x14b;" horiz-adv-x="1004" 
d="M481 -420q-34 0 -74 4t-76 10v202q28 -2 73 -3.5t75 -1.5q85 0 120.5 23.5t35.5 80.5v1024q0 50 -24.5 74t-76.5 24q-45 0 -93.5 -24.5t-67.5 -66.5v-926h-281v1200h281v-127h49q42 70 90 108t141 38q126 0 194.5 -74t68.5 -250v-975q0 -181 -106.5 -260.5t-328.5 -79.5z
" />
    <glyph glyph-name="Omacron" unicode="&#x14c;" horiz-adv-x="993" 
d="M495 -19q-215 0 -311 88.5t-100 294.5q-3 113 -4 221.5t-1 216t1 216t4 220.5q4 205 100 293t311 88t309.5 -88t101.5 -293q4 -113 6 -222t2 -216.5t-2 -215.5t-6 -220q-7 -206 -101.5 -294.5t-309.5 -88.5zM495 207q70 0 101.5 30.5t32.5 96.5q5 114 7 231t2 236
t-2.5 236.5t-6.5 230.5q-1 65 -33 95t-101 30q-67 0 -99.5 -30t-34.5 -95q-5 -113 -7.5 -230.5t-2.5 -236t2.5 -236t7.5 -231.5q2 -66 34.5 -96.5t99.5 -30.5zM165 1805h662v-126h-662v126z" />
    <glyph glyph-name="omacron" unicode="&#x14d;" horiz-adv-x="954" 
d="M478 -19q-143 0 -228.5 38t-126 122t-48.5 222q-1 42 -2.5 104t-1.5 132t1 133.5t3 105.5q8 139 48.5 222.5t126 121t228.5 37.5q146 0 230.5 -39t124 -122.5t46.5 -219.5q2 -42 3.5 -104.5t1.5 -132t-1.5 -132.5t-3.5 -106q-8 -137 -47 -221t-124 -122.5t-230 -38.5z
M478 189q66 0 94 26.5t29 78.5q3 83 4.5 159.5t1.5 151t-1.5 149.5t-4.5 154q-1 51 -29 77t-94 26q-64 0 -94 -27t-32 -77q-2 -68 -3 -143t-1 -153.5t1.5 -158.5t3.5 -158q3 -52 32 -78.5t93 -26.5zM146 1405h662v-126h-662v126z" />
    <glyph glyph-name="Obreve" unicode="&#x14e;" horiz-adv-x="993" 
d="M495 -19q-215 0 -311 88.5t-100 294.5q-3 113 -4 221.5t-1 216t1 216t4 220.5q4 205 100 293t311 88t309.5 -88t101.5 -293q4 -113 6 -222t2 -216.5t-2 -215.5t-6 -220q-7 -206 -101.5 -294.5t-309.5 -88.5zM495 207q70 0 101.5 30.5t32.5 96.5q5 114 7 231t2 236
t-2.5 236.5t-6.5 230.5q-1 65 -33 95t-101 30q-67 0 -99.5 -30t-34.5 -95q-5 -113 -7.5 -230.5t-2.5 -236t2.5 -236t7.5 -231.5q2 -66 34.5 -96.5t99.5 -30.5zM498 1670q-153 0 -223.5 66.5t-78.5 219.5h169q0 -77 31 -111t102 -34q70 0 101 34t31 111h169
q-9 -153 -79.5 -219.5t-221.5 -66.5z" />
    <glyph glyph-name="obreve" unicode="&#x14f;" horiz-adv-x="954" 
d="M478 -19q-143 0 -228.5 38t-126 122t-48.5 222q-1 42 -2.5 104t-1.5 132t1 133.5t3 105.5q8 139 48.5 222.5t126 121t228.5 37.5q146 0 230.5 -39t124 -122.5t46.5 -219.5q2 -42 3.5 -104.5t1.5 -132t-1.5 -132.5t-3.5 -106q-8 -137 -47 -221t-124 -122.5t-230 -38.5z
M478 189q66 0 94 26.5t29 78.5q3 83 4.5 159.5t1.5 151t-1.5 149.5t-4.5 154q-1 51 -29 77t-94 26q-64 0 -94 -27t-32 -77q-2 -68 -3 -143t-1 -153.5t1.5 -158.5t3.5 -158q3 -52 32 -78.5t93 -26.5zM478 1270q-153 0 -223.5 66.5t-78.5 219.5h169q0 -77 31 -111t102 -34
q70 0 101 34t31 111h169q-9 -153 -79.5 -219.5t-221.5 -66.5z" />
    <glyph glyph-name="Ohungarumlaut" unicode="&#x150;" horiz-adv-x="993" 
d="M495 -19q-215 0 -311 88.5t-100 294.5q-3 113 -4 221.5t-1 216t1 216t4 220.5q4 205 100 293t311 88t309.5 -88t101.5 -293q4 -113 6 -222t2 -216.5t-2 -215.5t-6 -220q-7 -206 -101.5 -294.5t-309.5 -88.5zM495 207q70 0 101.5 30.5t32.5 96.5q5 114 7 231t2 236
t-2.5 236.5t-6.5 230.5q-1 65 -33 95t-101 30q-67 0 -99.5 -30t-34.5 -95q-5 -113 -7.5 -230.5t-2.5 -236t2.5 -236t7.5 -231.5q2 -66 34.5 -96.5t99.5 -30.5zM260 1682l223 271h190l-222 -271h-191zM548 1682l223 271h190l-223 -271h-190z" />
    <glyph glyph-name="ohungarumlaut" unicode="&#x151;" horiz-adv-x="954" 
d="M478 -19q-143 0 -228.5 38t-126 122t-48.5 222q-1 42 -2.5 104t-1.5 132t1 133.5t3 105.5q8 139 48.5 222.5t126 121t228.5 37.5q146 0 230.5 -39t124 -122.5t46.5 -219.5q2 -42 3.5 -104.5t1.5 -132t-1.5 -132.5t-3.5 -106q-8 -137 -47 -221t-124 -122.5t-230 -38.5z
M478 189q66 0 94 26.5t29 78.5q3 83 4.5 159.5t1.5 151t-1.5 149.5t-4.5 154q-1 51 -29 77t-94 26q-64 0 -94 -27t-32 -77q-2 -68 -3 -143t-1 -153.5t1.5 -158.5t3.5 -158q3 -52 32 -78.5t93 -26.5zM241 1282l223 271h190l-222 -271h-191zM529 1282l223 271h190l-223 -271
h-190z" />
    <glyph glyph-name="OE" unicode="&#x152;" horiz-adv-x="1372" 
d="M495 -19q-215 0 -311 88.5t-100 294.5q-3 113 -4 221.5t-1 216t1 216t4 220.5q4 205 100 293t311 88q110 0 182 -22l2 3h642v-244h-406v-421h386v-244h-386v-447h406v-244h-643l-2 3q-71 -22 -181 -22zM495 207q70 0 101.5 30.5t32.5 96.5q1 39 2.5 99t2 133.5t1 153.5
t0 160.5t-1 154t-2 134t-2.5 99.5q-1 65 -33 95t-101 30q-67 0 -99.5 -30t-34.5 -95q-5 -113 -7.5 -230.5t-2.5 -236t2.5 -236t7.5 -231.5q2 -66 34.5 -96.5t99.5 -30.5z" />
    <glyph glyph-name="oe" unicode="&#x153;" horiz-adv-x="1452" 
d="M478 -19q-143 0 -228.5 38t-126 122t-48.5 222q-1 42 -2.5 104t-1.5 132t1 133.5t3 105.5q8 139 48.5 222.5t126 121t228.5 37.5q146 0 230.5 -39t124 -122.5t46.5 -219.5q2 -42 3.5 -104.5t1.5 -132t-1.5 -132.5t-3.5 -106q-8 -137 -47 -221t-124 -122.5t-230 -38.5z
M478 189q66 0 94 26.5t29 78.5q3 83 4.5 159.5t1.5 151t-1.5 149.5t-4.5 154q-1 51 -29 77t-94 26q-64 0 -94 -27t-32 -77q-2 -68 -3 -143t-1 -153.5t1.5 -158.5t3.5 -158q3 -52 32 -78.5t93 -26.5zM1009 -19q-205 0 -295 80t-101 260q-3 47 -4 122.5t-1 159.5t1.5 157
t3.5 115q13 185 104 264.5t288 79.5q198 0 287 -77.5t97 -255.5q1 -24 1.5 -80t0 -124.5t-3.5 -128.5h-499q0 -64 1.5 -129t3.5 -133q2 -55 28.5 -78.5t86.5 -23.5q57 0 80 23.5t26 79.5q2 28 2.5 69.5t-2.5 97.5h273q2 -16 3 -60t-1 -78q-9 -181 -97 -260.5t-283 -79.5z
M889 745h227v74.5t-0.5 61.5t-1.5 36q-3 51 -27.5 72.5t-81.5 21.5q-61 0 -85.5 -22t-26.5 -72q-1 -44 -2 -87t-2 -85z" />
    <glyph glyph-name="Racute" unicode="&#x154;" horiz-adv-x="955" 
d="M95 0v1600h380q211 0 305.5 -86t101.5 -284q2 -62 2.5 -109.5t0 -94t-2.5 -105.5q-4 -125 -42.5 -204t-118.5 -120l184 -597h-294l-151 551h-88v-551h-277zM372 795h102q64 0 96 29t35 83t4 111t0 114.5t-4 111.5q-3 55 -35 83.5t-95 28.5h-103v-561zM385 1680l188 271
h191l-198 -271h-181z" />
    <glyph glyph-name="racute" unicode="&#x155;" horiz-adv-x="700" 
d="M92 0v1200h282v-145h49q12 86 57 119t117 33q25 0 49.5 -1.5t38.5 -3.5v-211h-84q-106 0 -159.5 -31.5t-67.5 -99.5v-860h-282zM302 1280l188 271h191l-198 -271h-181z" />
    <glyph glyph-name="uni0156" unicode="&#x156;" horiz-adv-x="955" 
d="M95 0v1600h380q211 0 305.5 -86t101.5 -284q2 -62 2.5 -109.5t0 -94t-2.5 -105.5q-4 -125 -42.5 -204t-118.5 -120l184 -597h-294l-151 551h-88v-551h-277zM372 795h102q64 0 96 29t35 83t4 111t0 114.5t-4 111.5q-3 55 -35 83.5t-95 28.5h-103v-561zM400 -443l74 150
h-110v213h281v-188l-102 -175h-143z" />
    <glyph glyph-name="uni0157" unicode="&#x157;" horiz-adv-x="700" 
d="M92 0v1200h282v-145h49q12 86 57 119t117 33q25 0 49.5 -1.5t38.5 -3.5v-211h-84q-106 0 -159.5 -31.5t-67.5 -99.5v-860h-282zM138 -443l74 150h-110v213h281v-188l-102 -175h-143z" />
    <glyph glyph-name="Rcaron" unicode="&#x158;" horiz-adv-x="955" 
d="M95 0v1600h380q211 0 305.5 -86t101.5 -284q2 -62 2.5 -109.5t0 -94t-2.5 -105.5q-4 -125 -42.5 -204t-118.5 -120l184 -597h-294l-151 551h-88v-551h-277zM372 795h102q64 0 96 29t35 83t4 111t0 114.5t-4 111.5q-3 55 -35 83.5t-95 28.5h-103v-561zM393 1681l-169 271
h164l78 -139l78 139h164l-169 -271h-146z" />
    <glyph glyph-name="rcaron" unicode="&#x159;" horiz-adv-x="700" 
d="M92 0v1200h282v-145h49q12 86 57 119t117 33q25 0 49.5 -1.5t38.5 -3.5v-211h-84q-106 0 -159.5 -31.5t-67.5 -99.5v-860h-282zM309 1281l-169 271h164l78 -139l78 139h164l-169 -271h-146z" />
    <glyph glyph-name="Sacute" unicode="&#x15a;" horiz-adv-x="952" 
d="M477 -19q-212 0 -305 88.5t-102 293.5q-1 36 -1 76.5t2 81t7 76.5h260q-4 -76 -4.5 -149t4.5 -135q5 -52 39.5 -79t99.5 -27q63 0 95 27t38 79q4 36 5.5 71.5t0 71.5t-5.5 72q-4 48 -31 84t-78 48l-165 39q-101 25 -159.5 74t-84.5 122.5t-29 173.5q-1 47 -1 87.5t1 82.5
q6 136 48.5 219.5t131.5 122t234 38.5q209 0 302.5 -88t101.5 -292q2 -46 0.5 -110t-4.5 -122h-266q3 72 4 142t-2 140q-1 51 -36.5 77.5t-99.5 26.5t-97.5 -26.5t-39.5 -77.5q-5 -55 -5 -110t5 -110q5 -47 27.5 -82t74.5 -46l146 -33q109 -24 173.5 -74.5t94 -127
t33.5 -178.5q1 -27 1 -55t-1 -55.5t-2 -54.5q-8 -205 -102 -293.5t-308 -88.5zM393 1680l188 271h191l-198 -271h-181z" />
    <glyph glyph-name="sacute" unicode="&#x15b;" horiz-adv-x="872" 
d="M430 -19q-191 0 -273 79.5t-90 260.5q-1 37 -0.5 74.5t2.5 52.5h245q-2 -56 -1.5 -93.5t1.5 -63.5q3 -56 32 -79t84 -23q67 0 97.5 23.5t30.5 79.5v32.5v12.5v30q0 37 -16 61t-57 34l-140 38q-91 25 -155 63.5t-97 98t-33 147.5q-1 18 -0.5 33.5t0.5 30.5q0 186 86 266
t297 80q192 0 273 -77.5t89 -255.5q2 -26 1 -70.5t-3 -60.5h-255q2 22 2 53.5v62t-1 46.5q-3 51 -25.5 72.5t-80.5 21.5q-60 0 -84 -21.5t-26 -72.5q-1 -13 -1.5 -28.5t-0.5 -55.5q0 -45 16 -72.5t65 -39.5l124 -30q140 -32 210.5 -102.5t70.5 -206.5q0 -17 -0.5 -34
t-0.5 -34q0 -178 -89 -255.5t-297 -77.5zM352 1280l188 271h191l-198 -271h-181z" />
    <glyph glyph-name="Scircumflex" unicode="&#x15c;" horiz-adv-x="952" 
d="M477 -19q-212 0 -305 88.5t-102 293.5q-1 36 -1 76.5t2 81t7 76.5h260q-4 -76 -4.5 -149t4.5 -135q5 -52 39.5 -79t99.5 -27q63 0 95 27t38 79q4 36 5.5 71.5t0 71.5t-5.5 72q-4 48 -31 84t-78 48l-165 39q-101 25 -159.5 74t-84.5 122.5t-29 173.5q-1 47 -1 87.5t1 82.5
q6 136 48.5 219.5t131.5 122t234 38.5q209 0 302.5 -88t101.5 -292q2 -46 0.5 -110t-4.5 -122h-266q3 72 4 142t-2 140q-1 51 -36.5 77.5t-99.5 26.5t-97.5 -26.5t-39.5 -77.5q-5 -55 -5 -110t5 -110q5 -47 27.5 -82t74.5 -46l146 -33q109 -24 173.5 -74.5t94 -127
t33.5 -178.5q1 -27 1 -55t-1 -55.5t-2 -54.5q-8 -205 -102 -293.5t-308 -88.5zM221 1682l169 271h164l169 -271h-182l-69 122l-69 -122h-182z" />
    <glyph glyph-name="scircumflex" unicode="&#x15d;" horiz-adv-x="872" 
d="M430 -19q-191 0 -273 79.5t-90 260.5q-1 37 -0.5 74.5t2.5 52.5h245q-2 -56 -1.5 -93.5t1.5 -63.5q3 -56 32 -79t84 -23q67 0 97.5 23.5t30.5 79.5v32.5v12.5v30q0 37 -16 61t-57 34l-140 38q-91 25 -155 63.5t-97 98t-33 147.5q-1 18 -0.5 33.5t0.5 30.5q0 186 86 266
t297 80q192 0 273 -77.5t89 -255.5q2 -26 1 -70.5t-3 -60.5h-255q2 22 2 53.5v62t-1 46.5q-3 51 -25.5 72.5t-80.5 21.5q-60 0 -84 -21.5t-26 -72.5q-1 -13 -1.5 -28.5t-0.5 -55.5q0 -45 16 -72.5t65 -39.5l124 -30q140 -32 210.5 -102.5t70.5 -206.5q0 -17 -0.5 -34
t-0.5 -34q0 -178 -89 -255.5t-297 -77.5zM180 1282l169 271h164l169 -271h-182l-69 122l-69 -122h-182z" />
    <glyph glyph-name="Scedilla" unicode="&#x15e;" horiz-adv-x="952" 
d="M477 -19q-212 0 -305 88.5t-102 293.5q-1 36 -1 76.5t2 81t7 76.5h260q-4 -76 -4.5 -149t4.5 -135q5 -52 39.5 -79t99.5 -27q63 0 95 27t38 79q4 36 5.5 71.5t0 71.5t-5.5 72q-4 48 -31 84t-78 48l-165 39q-101 25 -159.5 74t-84.5 122.5t-29 173.5q-1 47 -1 87.5t1 82.5
q6 136 48.5 219.5t131.5 122t234 38.5q209 0 302.5 -88t101.5 -292q2 -46 0.5 -110t-4.5 -122h-266q3 72 4 142t-2 140q-1 51 -36.5 77.5t-99.5 26.5t-97.5 -26.5t-39.5 -77.5q-5 -55 -5 -110t5 -110q5 -47 27.5 -82t74.5 -46l146 -33q109 -24 173.5 -74.5t94 -127
t33.5 -178.5q1 -27 1 -55t-1 -55.5t-2 -54.5q-8 -205 -102 -293.5t-308 -88.5zM253 -309v132h62q61 0 86 24.5t16 80.5l-13 90h143l14 -90q17 -125 -42.5 -181t-203.5 -56h-62z" />
    <glyph glyph-name="scedilla" unicode="&#x15f;" horiz-adv-x="872" 
d="M430 -19q-191 0 -273 79.5t-90 260.5q-1 37 -0.5 74.5t2.5 52.5h245q-2 -56 -1.5 -93.5t1.5 -63.5q3 -56 32 -79t84 -23q67 0 97.5 23.5t30.5 79.5v32.5v12.5v30q0 37 -16 61t-57 34l-140 38q-91 25 -155 63.5t-97 98t-33 147.5q-1 18 -0.5 33.5t0.5 30.5q0 186 86 266
t297 80q192 0 273 -77.5t89 -255.5q2 -26 1 -70.5t-3 -60.5h-255q2 22 2 53.5v62t-1 46.5q-3 51 -25.5 72.5t-80.5 21.5q-60 0 -84 -21.5t-26 -72.5q-1 -13 -1.5 -28.5t-0.5 -55.5q0 -45 16 -72.5t65 -39.5l124 -30q140 -32 210.5 -102.5t70.5 -206.5q0 -17 -0.5 -34
t-0.5 -34q0 -178 -89 -255.5t-297 -77.5zM212 -309v132h62q61 0 86 24.5t16 80.5l-13 90h143l14 -90q17 -125 -42.5 -181t-203.5 -56h-62z" />
    <glyph glyph-name="Scaron" unicode="&#x160;" horiz-adv-x="952" 
d="M477 -19q-212 0 -305 88.5t-102 293.5q-1 36 -1 76.5t2 81t7 76.5h260q-4 -76 -4.5 -149t4.5 -135q5 -52 39.5 -79t99.5 -27q63 0 95 27t38 79q4 36 5.5 71.5t0 71.5t-5.5 72q-4 48 -31 84t-78 48l-165 39q-101 25 -159.5 74t-84.5 122.5t-29 173.5q-1 47 -1 87.5t1 82.5
q6 136 48.5 219.5t131.5 122t234 38.5q209 0 302.5 -88t101.5 -292q2 -46 0.5 -110t-4.5 -122h-266q3 72 4 142t-2 140q-1 51 -36.5 77.5t-99.5 26.5t-97.5 -26.5t-39.5 -77.5q-5 -55 -5 -110t5 -110q5 -47 27.5 -82t74.5 -46l146 -33q109 -24 173.5 -74.5t94 -127
t33.5 -178.5q1 -27 1 -55t-1 -55.5t-2 -54.5q-8 -205 -102 -293.5t-308 -88.5zM401 1681l-169 271h164l78 -139l78 139h164l-169 -271h-146z" />
    <glyph glyph-name="scaron" unicode="&#x161;" horiz-adv-x="872" 
d="M430 -19q-191 0 -273 79.5t-90 260.5q-1 37 -0.5 74.5t2.5 52.5h245q-2 -56 -1.5 -93.5t1.5 -63.5q3 -56 32 -79t84 -23q67 0 97.5 23.5t30.5 79.5v32.5v12.5v30q0 37 -16 61t-57 34l-140 38q-91 25 -155 63.5t-97 98t-33 147.5q-1 18 -0.5 33.5t0.5 30.5q0 186 86 266
t297 80q192 0 273 -77.5t89 -255.5q2 -26 1 -70.5t-3 -60.5h-255q2 22 2 53.5v62t-1 46.5q-3 51 -25.5 72.5t-80.5 21.5q-60 0 -84 -21.5t-26 -72.5q-1 -13 -1.5 -28.5t-0.5 -55.5q0 -45 16 -72.5t65 -39.5l124 -30q140 -32 210.5 -102.5t70.5 -206.5q0 -17 -0.5 -34
t-0.5 -34q0 -178 -89 -255.5t-297 -77.5zM360 1281l-169 271h164l78 -139l78 139h164l-169 -271h-146z" />
    <glyph glyph-name="uni0162" unicode="&#x162;" horiz-adv-x="824" 
d="M273 0v1356h-262v244h802v-244h-263v-1356h-277zM191 -309v132h62q61 0 86 24.5t16 80.5l-13 90h143l14 -90q17 -125 -42.5 -181t-203.5 -56h-62z" />
    <glyph glyph-name="uni0163" unicode="&#x163;" horiz-adv-x="692" 
d="M561 -19q-223 0 -319 79t-97 264l-1 667h-113v209h118v340h280v-340h213v-209h-218l2 -700q0 -60 28.5 -82t107.5 -22q26 0 49.5 1t52.5 1v-198q-23 -5 -48 -7.5t-55 -2.5zM197 -309v132h62q61 0 86 24.5t16 80.5l-13 90h143l14 -90q17 -125 -42.5 -181t-203.5 -56h-62z
" />
    <glyph glyph-name="Tcaron" unicode="&#x164;" horiz-adv-x="824" 
d="M273 0v1356h-262v244h802v-244h-263v-1356h-277zM338 1681l-169 271h164l78 -139l78 139h164l-169 -271h-146z" />
    <glyph glyph-name="tcaron" unicode="&#x165;" horiz-adv-x="758" 
d="M561 -19q-223 0 -319 79t-97 264l-1 667h-113v209h118v340h280v-340h213v-209h-218l2 -700q0 -60 28.5 -82t107.5 -22q26 0 49.5 1t52.5 1v-198q-23 -5 -48 -7.5t-55 -2.5zM481 1287l60 313h189l-80 -313h-169z" />
    <glyph glyph-name="Tbar" unicode="&#x166;" horiz-adv-x="824" 
d="M273 0v1356h-262v244h802v-244h-263v-1356h-277zM137 797h551v-138h-551v138z" />
    <glyph glyph-name="tbar" unicode="&#x167;" horiz-adv-x="692" 
d="M561 -19q-223 0 -319 79t-97 264l-1 667h-113v209h118v340h280v-340h213v-209h-218l2 -700q0 -60 28.5 -82t107.5 -22q26 0 49.5 1t52.5 1v-198q-23 -5 -48 -7.5t-55 -2.5zM57 751h551v-138h-551v138z" />
    <glyph glyph-name="Utilde" unicode="&#x168;" horiz-adv-x="984" 
d="M493 -19q-219 0 -314 88.5t-98 293.5q-4 307 -4 618.5t4 618.5h277q-4 -205 -4.5 -422t1 -434t3.5 -422q0 -55 34.5 -84.5t100.5 -29.5t99 29.5t33 84.5q2 205 3.5 422t1 434t-4.5 422h278q4 -307 4 -618.5t-4 -618.5q-3 -205 -98 -293.5t-312 -88.5zM645 1890h108
q-6 -110 -45.5 -160t-112.5 -50q-45 0 -71.5 14t-44.5 32.5t-36 33t-47 14.5q-30 0 -40.5 -21t-15.5 -60h-108q9 117 48.5 169t115.5 52q45 0 71.5 -13.5t44 -32t36 -32.5t46.5 -14t39 17.5t12 50.5z" />
    <glyph glyph-name="utilde" unicode="&#x169;" horiz-adv-x="998" 
d="M356 -19q-124 0 -198 75.5t-74 248.5v895h278l3 -919q0 -50 24 -74t75 -24q47 0 95 25t67 66v926h280v-1200h-280v127h-38q-46 -78 -101 -112t-131 -34zM645 1490h108q-6 -110 -45.5 -160t-112.5 -50q-45 0 -71.5 14t-44.5 32.5t-36 33t-47 14.5q-30 0 -40.5 -21
t-15.5 -60h-108q9 117 48.5 169t115.5 52q45 0 71.5 -13.5t44 -32t36 -32.5t46.5 -14t39 17.5t12 50.5z" />
    <glyph glyph-name="Umacron" unicode="&#x16a;" horiz-adv-x="984" 
d="M493 -19q-219 0 -314 88.5t-98 293.5q-4 307 -4 618.5t4 618.5h277q-4 -205 -4.5 -422t1 -434t3.5 -422q0 -55 34.5 -84.5t100.5 -29.5t99 29.5t33 84.5q2 205 3.5 422t1 434t-4.5 422h278q4 -307 4 -618.5t-4 -618.5q-3 -205 -98 -293.5t-312 -88.5zM160 1805h662v-126
h-662v126z" />
    <glyph glyph-name="umacron" unicode="&#x16b;" horiz-adv-x="998" 
d="M356 -19q-124 0 -198 75.5t-74 248.5v895h278l3 -919q0 -50 24 -74t75 -24q47 0 95 25t67 66v926h280v-1200h-280v127h-38q-46 -78 -101 -112t-131 -34zM160 1405h662v-126h-662v126z" />
    <glyph glyph-name="Ubreve" unicode="&#x16c;" horiz-adv-x="984" 
d="M493 -19q-219 0 -314 88.5t-98 293.5q-4 307 -4 618.5t4 618.5h277q-4 -205 -4.5 -422t1 -434t3.5 -422q0 -55 34.5 -84.5t100.5 -29.5t99 29.5t33 84.5q2 205 3.5 422t1 434t-4.5 422h278q4 -307 4 -618.5t-4 -618.5q-3 -205 -98 -293.5t-312 -88.5zM493 1670
q-153 0 -223.5 66.5t-78.5 219.5h169q0 -77 31 -111t102 -34q70 0 101 34t31 111h169q-9 -153 -79.5 -219.5t-221.5 -66.5z" />
    <glyph glyph-name="ubreve" unicode="&#x16d;" horiz-adv-x="998" 
d="M356 -19q-124 0 -198 75.5t-74 248.5v895h278l3 -919q0 -50 24 -74t75 -24q47 0 95 25t67 66v926h280v-1200h-280v127h-38q-46 -78 -101 -112t-131 -34zM493 1270q-153 0 -223.5 66.5t-78.5 219.5h169q0 -77 31 -111t102 -34q70 0 101 34t31 111h169
q-9 -153 -79.5 -219.5t-221.5 -66.5z" />
    <glyph glyph-name="Uring" unicode="&#x16e;" horiz-adv-x="984" 
d="M493 -19q-219 0 -314 88.5t-98 293.5q-4 307 -4 618.5t4 618.5h277q-4 -205 -4.5 -422t1 -434t3.5 -422q0 -55 34.5 -84.5t100.5 -29.5t99 29.5t33 84.5q2 205 3.5 422t1 434t-4.5 422h278q4 -307 4 -618.5t-4 -618.5q-3 -205 -98 -293.5t-312 -88.5zM493 1670
q-84 0 -144.5 60.5t-60.5 144.5q0 85 60.5 145t144.5 60q85 0 145 -60t60 -145q0 -84 -60 -144.5t-145 -60.5zM493 1815q26 0 43.5 17.5t17.5 42.5q0 26 -17.5 43.5t-43.5 17.5q-25 0 -43 -17.5t-18 -43.5q0 -25 18 -42.5t43 -17.5z" />
    <glyph glyph-name="uring" unicode="&#x16f;" horiz-adv-x="998" 
d="M356 -19q-124 0 -198 75.5t-74 248.5v895h278l3 -919q0 -50 24 -74t75 -24q47 0 95 25t67 66v926h280v-1200h-280v127h-38q-46 -78 -101 -112t-131 -34zM492 1270q-84 0 -144.5 60.5t-60.5 144.5q0 85 60.5 145t144.5 60q85 0 145 -60t60 -145q0 -84 -60 -144.5
t-145 -60.5zM492 1415q26 0 43.5 17.5t17.5 42.5q0 26 -17.5 43.5t-43.5 17.5q-25 0 -43 -17.5t-18 -43.5q0 -25 18 -42.5t43 -17.5z" />
    <glyph glyph-name="Uhungarumlaut" unicode="&#x170;" horiz-adv-x="984" 
d="M493 -19q-219 0 -314 88.5t-98 293.5q-4 307 -4 618.5t4 618.5h277q-4 -205 -4.5 -422t1 -434t3.5 -422q0 -55 34.5 -84.5t100.5 -29.5t99 29.5t33 84.5q2 205 3.5 422t1 434t-4.5 422h278q4 -307 4 -618.5t-4 -618.5q-3 -205 -98 -293.5t-312 -88.5zM255 1682l223 271
h190l-222 -271h-191zM543 1682l223 271h190l-223 -271h-190z" />
    <glyph glyph-name="uhungarumlaut" unicode="&#x171;" horiz-adv-x="998" 
d="M356 -19q-124 0 -198 75.5t-74 248.5v895h278l3 -919q0 -50 24 -74t75 -24q47 0 95 25t67 66v926h280v-1200h-280v127h-38q-46 -78 -101 -112t-131 -34zM255 1282l223 271h190l-222 -271h-191zM543 1282l223 271h190l-223 -271h-190z" />
    <glyph glyph-name="Uogonek" unicode="&#x172;" horiz-adv-x="984" 
d="M493 -19q-219 0 -314 88.5t-98 293.5q-4 307 -4 618.5t4 618.5h277q-4 -205 -4.5 -422t1 -434t3.5 -422q0 -55 34.5 -84.5t100.5 -29.5t99 29.5t33 84.5q2 205 3.5 422t1 434t-4.5 422h278q4 -307 4 -618.5t-4 -618.5q-3 -205 -98 -293.5t-312 -88.5zM874 -301h-62
q-144 0 -204 56t-42 181l14 90h143l-14 -90q-7 -56 17.5 -80.5t85.5 -24.5h62v-132z" />
    <glyph glyph-name="uogonek" unicode="&#x173;" horiz-adv-x="998" 
d="M356 -19q-124 0 -198 75.5t-74 248.5v895h278l3 -919q0 -50 24 -74t75 -24q47 0 95 25t67 66v926h280v-1200h-280v127h-38q-46 -78 -101 -112t-131 -34zM921 -316h-62q-144 0 -204 56t-42 181l14 90h143l-14 -90q-7 -56 17.5 -80.5t85.5 -24.5h62v-132z" />
    <glyph glyph-name="Wcircumflex" unicode="&#x174;" horiz-adv-x="1605" 
d="M188 0l-146 1600h279l49 -712l32 -644h76l3 644l128 702h386l129 -702l3 -644h75l32 644l50 712h279l-146 -1600h-480l-70 458l-28 897h-74l-28 -897l-70 -458h-479zM517 1682l169 271h164l169 -271h-182l-69 122l-69 -122h-182z" />
    <glyph glyph-name="wcircumflex" unicode="&#x175;" horiz-adv-x="1495" 
d="M182 0l-156 1200h281l51 -603l19 -393h76l10 393l56 602h457l54 -602l12 -393h73l19 393l54 603h282l-161 -1200h-470l-37 467l-15 528h-80l-16 -528l-35 -467h-474zM495 1282l169 271h164l169 -271h-182l-69 122l-69 -122h-182z" />
    <glyph glyph-name="Ycircumflex" unicode="&#x176;" horiz-adv-x="894" 
d="M308 0v462l-20 1l-270 1137h283l84 -398l34 -468h56l33 468l85 398h282l-270 -1137l-20 -1v-462h-277zM190 1682l169 271h164l169 -271h-182l-69 122l-69 -122h-182z" />
    <glyph glyph-name="ycircumflex" unicode="&#x177;" horiz-adv-x="890" 
d="M222 -420q-34 0 -75 4t-77 10v205q28 -1 75 -2.5t76 -1.5q83 0 115.5 23.5t40.5 80.5l15 101h-146l-216 1200h284l61 -548l48 -448h70l32 448l53 548h284l-205 -1280q-18 -114 -61.5 -189.5t-131.5 -113t-242 -37.5zM191 1282l169 271h164l169 -271h-182l-69 122
l-69 -122h-182z" />
    <glyph glyph-name="Ydieresis" unicode="&#x178;" horiz-adv-x="894" 
d="M308 0v462l-20 1l-270 1137h283l84 -398l34 -468h56l33 468l85 398h282l-270 -1137l-20 -1v-462h-277zM497 1710v187h187v-187h-187zM205 1710v187h186v-187h-186z" />
    <glyph glyph-name="Zacute" unicode="&#x179;" horiz-adv-x="819" 
d="M32 0v231l457 1125h-433v244h730v-236l-474 -1120h443v-244h-723zM329 1680l188 271h191l-198 -271h-181z" />
    <glyph glyph-name="zacute" unicode="&#x17a;" horiz-adv-x="793" 
d="M41 0v176l417 820l-409 -1v205h707v-181l-423 -815h418v-204h-710zM316 1280l188 271h191l-198 -271h-181z" />
    <glyph glyph-name="Zdotaccent" unicode="&#x17b;" horiz-adv-x="819" 
d="M32 0v231l457 1125h-433v244h730v-236l-474 -1120h443v-244h-723zM318 1680v187h186v-187h-186z" />
    <glyph glyph-name="zdotaccent" unicode="&#x17c;" horiz-adv-x="793" 
d="M41 0v176l417 820l-409 -1v205h707v-181l-423 -815h418v-204h-710zM305 1280v187h186v-187h-186z" />
    <glyph glyph-name="Zcaron" unicode="&#x17d;" horiz-adv-x="819" 
d="M32 0v231l457 1125h-433v244h730v-236l-474 -1120h443v-244h-723zM337 1681l-169 271h164l78 -139l78 139h164l-169 -271h-146z" />
    <glyph glyph-name="zcaron" unicode="&#x17e;" horiz-adv-x="793" 
d="M41 0v176l417 820l-409 -1v205h707v-181l-423 -815h418v-204h-710zM324 1281l-169 271h164l78 -139l78 139h164l-169 -271h-146z" />
    <glyph glyph-name="uni018E" unicode="&#x18e;" horiz-adv-x="829" 
d="M733 0h-682v244h405v447h-385v244h385v421h-405v244h682v-1600z" />
    <glyph glyph-name="uni018F" unicode="&#x18f;" horiz-adv-x="989" 
d="M495 -19q-214 0 -309 88.5t-97 291.5q-2 130 -1.5 248t1.5 272h548q-1 105 -3 207t-5 199q-1 53 -35 79t-99 26t-100 -26t-37 -79q-1 -38 -1.5 -89t0 -103t1.5 -92h-277q-1 60 -1.5 118t1.5 116q5 205 101.5 293.5t312.5 88.5q218 0 312.5 -88.5t98.5 -293.5
q2 -107 3 -216.5t1 -221t-1 -222t-3 -218.5q-3 -191 -98.5 -284.5t-312.5 -93.5zM495 207q65 0 99 26.5t35 77.5q3 92 5 186.5t3 191.5h-277q0 -67 0.5 -130t2 -124.5t3.5 -123.5q2 -51 34.5 -77.5t94.5 -26.5z" />
    <glyph glyph-name="florin" unicode="&#x192;" horiz-adv-x="1385" 
d="M234 -19q-41 0 -79 4.5t-71 10.5l35 204q26 -1 68.5 -2.5t64.5 -1.5q62 0 107.5 33.5t59.5 84.5l122 443h-240v136h277l111 403q50 180 159.5 252.5t302.5 72.5q41 0 79 -5t71 -10l-33 -201q-33 1 -66.5 1h-67.5q-63 0 -108.5 -34t-60.5 -84l-109 -395h286v-136h-324
l-124 -451q-32 -113 -86.5 -185t-145 -106t-228.5 -34z" />
    <glyph glyph-name="Ohorn" unicode="&#x1a0;" horiz-adv-x="993" 
d="M495 -19q-215 0 -311 88.5t-100 294.5q-3 113 -4 221.5t-1 216t1 216t4 220.5q4 205 100 293t311 88t309.5 -88t101.5 -293q4 -113 6 -222t2 -216.5t-2 -215.5t-6 -220q-7 -206 -101.5 -294.5t-309.5 -88.5zM495 207q70 0 101.5 30.5t32.5 96.5q5 114 7 231t2 236
t-2.5 236.5t-6.5 230.5q-1 65 -33 95t-101 30q-67 0 -99.5 -30t-34.5 -95q-5 -113 -7.5 -230.5t-2.5 -236t2.5 -236t7.5 -231.5q2 -66 34.5 -96.5t99.5 -30.5zM711 1461q-7 0 -18.5 1t-27.5 3v134h30h16q57 0 82.5 36t30.5 119q1 19 1.5 57.5t0 77t-1.5 57.5h150
q1 -19 1.5 -57.5t0 -77t-1.5 -57.5q-8 -151 -72 -222t-191 -71z" />
    <glyph glyph-name="ohorn" unicode="&#x1a1;" horiz-adv-x="954" 
d="M478 -19q-143 0 -228.5 38t-126 122t-48.5 222q-1 42 -2.5 104t-1.5 132t1 133.5t3 105.5q8 139 48.5 222.5t126 121t228.5 37.5q146 0 230.5 -39t124 -122.5t46.5 -219.5q2 -42 3.5 -104.5t1.5 -132t-1.5 -132.5t-3.5 -106q-8 -137 -47 -221t-124 -122.5t-230 -38.5z
M478 189q66 0 94 26.5t29 78.5q3 83 4.5 159.5t1.5 151t-1.5 149.5t-4.5 154q-1 51 -29 77t-94 26q-64 0 -94 -27t-32 -77q-2 -68 -3 -143t-1 -153.5t1.5 -158.5t3.5 -158q3 -52 32 -78.5t93 -26.5zM673 1065q-7 0 -18.5 1t-27.5 3v134h30h16q57 0 82.5 36t30.5 119
q1 19 1.5 57.5t0 77t-1.5 57.5h150q1 -19 1.5 -57.5t0 -77t-1.5 -57.5q-8 -151 -72 -222t-191 -71z" />
    <glyph glyph-name="Uhorn" unicode="&#x1af;" horiz-adv-x="984" 
d="M493 -19q-219 0 -314 88.5t-98 293.5q-4 307 -4 618.5t4 618.5h277q-4 -205 -4.5 -422t1 -434t3.5 -422q0 -55 34.5 -84.5t100.5 -29.5t99 29.5t33 84.5q2 205 3.5 422t1 434t-4.5 422h278q4 -307 4 -618.5t-4 -618.5q-3 -205 -98 -293.5t-312 -88.5zM749 1462
q-7 0 -18.5 1t-27.5 3v134h30h16q57 0 82.5 36t30.5 119q1 19 1.5 57.5t0 77t-1.5 57.5h150q1 -19 1.5 -57.5t0 -77t-1.5 -57.5q-8 -151 -72 -222t-191 -71z" />
    <glyph glyph-name="uhorn" unicode="&#x1b0;" horiz-adv-x="998" 
d="M356 -19q-124 0 -198 75.5t-74 248.5v895h278l3 -919q0 -50 24 -74t75 -24q47 0 95 25t67 66v926h280v-1200h-280v127h-38q-46 -78 -101 -112t-131 -34zM772 1061q-7 0 -18.5 1t-27.5 3v134h30h16q57 0 82.5 36t30.5 119q1 19 1.5 57.5t0 77t-1.5 57.5h150
q1 -19 1.5 -57.5t0 -77t-1.5 -57.5q-8 -151 -72 -222t-191 -71z" />
    <glyph glyph-name="uni01C4" unicode="&#x1c4;" horiz-adv-x="1789" 
d="M95 0v1600h397q214 0 309.5 -90.5t99.5 -297.5q3 -147 4 -279.5t0 -264t-4 -278.5q-4 -208 -99 -299t-309 -91h-398zM372 244h121q64 0 97 29t34 85q3 113 4.5 223.5t1.5 220t-1.5 220t-4.5 222.5q-1 55 -34 83.5t-98 28.5h-120v-1112zM1002 0v231l457 1125h-433v244h730
v-236l-474 -1120h443v-244h-723zM1307 1681l-169 271h164l78 -139l78 139h164l-169 -271h-146z" />
    <glyph glyph-name="uni01C5" unicode="&#x1c5;" horiz-adv-x="1777" 
d="M95 0v1600h397q214 0 309.5 -90.5t99.5 -297.5q3 -147 4 -279.5t0 -264t-4 -278.5q-4 -208 -99 -299t-309 -91h-398zM372 244h121q64 0 97 29t34 85q3 113 4.5 223.5t1.5 220t-1.5 220t-4.5 222.5q-1 55 -34 83.5t-98 28.5h-120v-1112zM1025 0v176l417 820l-409 -1v205
h707v-181l-423 -815h418v-204h-710zM1308 1281l-169 271h164l78 -139l78 139h164l-169 -271h-146z" />
    <glyph glyph-name="uni01C6" unicode="&#x1c6;" horiz-adv-x="1783" 
d="M342 -19q-125 0 -191.5 75.5t-74.5 248.5q-3 55 -4 133.5t-1 163.5t1.5 162.5t3.5 130.5q8 175 77 249.5t193 74.5q95 0 142.5 -37.5t89.5 -108.5h39v527h281v-1600h-281v127h-41q-41 -70 -90.5 -108t-143.5 -38zM457 183q45 0 93 24.5t67 66.5v652q-19 42 -67 66.5
t-93 24.5q-50 0 -74 -23.5t-27 -70.5q-5 -100 -7 -214t0 -225t7 -202q3 -51 26 -75t75 -24zM1031 0v176l417 820l-409 -1v205h707v-181l-423 -815h418v-204h-710zM1314 1281l-169 271h164l78 -139l78 139h164l-169 -271h-146z" />
    <glyph glyph-name="uni01C7" unicode="&#x1c7;" horiz-adv-x="1694" 
d="M95 0v1600h277v-1356h387v-244h-664zM1216 -19q-139 0 -223 38.5t-123.5 122.5t-43.5 221q-1 54 -1 117t1 117h261q-1 -39 -1.5 -88t0 -98t1.5 -88q2 -60 32.5 -88t96.5 -28t94.5 28t28.5 88v1277h277v-1237q0 -205 -91.5 -293.5t-308.5 -88.5z" />
    <glyph glyph-name="uni01C8" unicode="&#x1c8;" horiz-adv-x="1248" 
d="M95 0v1600h277v-1356h387v-244h-664zM874 1384v216h286v-216h-286zM757 -424q-34 0 -74.5 4t-76.5 10v206q28 -2 74 -3.5t77 -1.5q59 0 90 26t31 75v1308h277v-1283q0 -182 -97 -261.5t-301 -79.5z" />
    <glyph glyph-name="uni01C9" unicode="&#x1c9;" horiz-adv-x="924" 
d="M92 0v1600h277v-1600h-277zM550 1384v216h286v-216h-286zM433 -424q-34 0 -74.5 4t-76.5 10v206q28 -2 74 -3.5t77 -1.5q59 0 90 26t31 75v1308h277v-1283q0 -182 -97 -261.5t-301 -79.5z" />
    <glyph glyph-name="uni01CA" unicode="&#x1ca;" horiz-adv-x="2045" 
d="M95 0v1600h441l115 -509l114 -847h74l-51 688l-21 668h274v-1600h-462l-116 531l-87 827h-78l47 -746l23 -612h-273zM1567 -19q-139 0 -223 38.5t-123.5 122.5t-43.5 221q-1 54 -1 117t1 117h261q-1 -39 -1.5 -88t0 -98t1.5 -88q2 -60 32.5 -88t96.5 -28t94.5 28t28.5 88
v1277h277v-1237q0 -205 -91.5 -293.5t-308.5 -88.5z" />
    <glyph glyph-name="uni01CB" unicode="&#x1cb;" horiz-adv-x="1599" 
d="M95 0v1600h441l115 -509l114 -847h74l-51 688l-21 668h274v-1600h-462l-116 531l-87 827h-78l47 -746l23 -612h-273zM1225 1384v216h286v-216h-286zM1108 -424q-34 0 -74.5 4t-76.5 10v206q28 -2 74 -3.5t77 -1.5q59 0 90 26t31 75v1308h277v-1283q0 -182 -97 -261.5
t-301 -79.5z" />
    <glyph glyph-name="uni01CC" unicode="&#x1cc;" horiz-adv-x="1468" 
d="M92 0v1200h277v-127h52q42 70 90.5 108t141.5 38q126 0 195 -75t70 -249v-895h-277v919q-1 50 -28 74t-79 24q-45 0 -95 -24.5t-70 -66.5v-926h-277zM1095 1384v216h286v-216h-286zM978 -424q-34 0 -74.5 4t-76.5 10v206q28 -2 74 -3.5t77 -1.5q59 0 90 26t31 75v1308
h277v-1283q0 -182 -97 -261.5t-301 -79.5z" />
    <glyph glyph-name="uni01CD" unicode="&#x1cd;" 
d="M32 0l215 1600h465l214 -1600h-284l-36 353h-254l-35 -353h-285zM378 597h203l-36 352l-27 407h-78l-27 -407zM405 1681l-169 271h164l78 -139l78 139h164l-169 -271h-146z" />
    <glyph glyph-name="uni01CE" unicode="&#x1ce;" horiz-adv-x="945" 
d="M332 -15q-133 0 -197 63.5t-77 216.5q-1 19 -1 45t1 44q7 80 37.5 137.5t95.5 101t173 83.5q55 20 107 35t113 30v165q0 53 -25.5 79t-87.5 26q-53 0 -77.5 -21.5t-27.5 -72.5q-2 -14 -2.5 -50.5t0.5 -72.5t2 -49h-269q-1 16 -2 59.5t0 81.5q5 116 42 189.5t119.5 108.5
t223.5 35q144 0 226.5 -38.5t117 -122t34.5 -216.5l-2 -842h-276v127h-40q-35 -73 -80 -107.5t-128 -34.5zM445 183q45 0 80.5 23.5t55.5 62.5l2 291q-39 -9 -77 -20.5t-73 -27.5q-58 -27 -76.5 -68t-21.5 -90q-1 -23 -1 -36t1 -32q5 -50 32.5 -76.5t77.5 -26.5zM403 1281
l-169 271h164l78 -139l78 139h164l-169 -271h-146z" />
    <glyph glyph-name="uni01CF" unicode="&#x1cf;" horiz-adv-x="467" 
d="M95 0v1600h277v-1600h-277zM159 1681l-169 271h164l78 -139l78 139h164l-169 -271h-146z" />
    <glyph glyph-name="uni01D0" unicode="&#x1d0;" horiz-adv-x="461" 
d="M92 0v1200h277v-1200h-277zM156 1281l-169 271h164l78 -139l78 139h164l-169 -271h-146z" />
    <glyph glyph-name="uni01D1" unicode="&#x1d1;" horiz-adv-x="993" 
d="M495 -19q-215 0 -311 88.5t-100 294.5q-3 113 -4 221.5t-1 216t1 216t4 220.5q4 205 100 293t311 88t309.5 -88t101.5 -293q4 -113 6 -222t2 -216.5t-2 -215.5t-6 -220q-7 -206 -101.5 -294.5t-309.5 -88.5zM495 207q70 0 101.5 30.5t32.5 96.5q5 114 7 231t2 236
t-2.5 236.5t-6.5 230.5q-1 65 -33 95t-101 30q-67 0 -99.5 -30t-34.5 -95q-5 -113 -7.5 -230.5t-2.5 -236t2.5 -236t7.5 -231.5q2 -66 34.5 -96.5t99.5 -30.5zM423 1681l-169 271h164l78 -139l78 139h164l-169 -271h-146z" />
    <glyph glyph-name="uni01D2" unicode="&#x1d2;" horiz-adv-x="954" 
d="M478 -19q-143 0 -228.5 38t-126 122t-48.5 222q-1 42 -2.5 104t-1.5 132t1 133.5t3 105.5q8 139 48.5 222.5t126 121t228.5 37.5q146 0 230.5 -39t124 -122.5t46.5 -219.5q2 -42 3.5 -104.5t1.5 -132t-1.5 -132.5t-3.5 -106q-8 -137 -47 -221t-124 -122.5t-230 -38.5z
M478 189q66 0 94 26.5t29 78.5q3 83 4.5 159.5t1.5 151t-1.5 149.5t-4.5 154q-1 51 -29 77t-94 26q-64 0 -94 -27t-32 -77q-2 -68 -3 -143t-1 -153.5t1.5 -158.5t3.5 -158q3 -52 32 -78.5t93 -26.5zM404 1281l-169 271h164l78 -139l78 139h164l-169 -271h-146z" />
    <glyph glyph-name="uni01D3" unicode="&#x1d3;" horiz-adv-x="984" 
d="M493 -19q-219 0 -314 88.5t-98 293.5q-4 307 -4 618.5t4 618.5h277q-4 -205 -4.5 -422t1 -434t3.5 -422q0 -55 34.5 -84.5t100.5 -29.5t99 29.5t33 84.5q2 205 3.5 422t1 434t-4.5 422h278q4 -307 4 -618.5t-4 -618.5q-3 -205 -98 -293.5t-312 -88.5zM418 1681l-169 271
h164l78 -139l78 139h164l-169 -271h-146z" />
    <glyph glyph-name="uni01D4" unicode="&#x1d4;" horiz-adv-x="998" 
d="M356 -19q-124 0 -198 75.5t-74 248.5v895h278l3 -919q0 -50 24 -74t75 -24q47 0 95 25t67 66v926h280v-1200h-280v127h-38q-46 -78 -101 -112t-131 -34zM418 1281l-169 271h164l78 -139l78 139h164l-169 -271h-146z" />
    <glyph glyph-name="uni01D5" unicode="&#x1d5;" horiz-adv-x="984" 
d="M493 -19q-219 0 -314 88.5t-98 293.5q-4 307 -4 618.5t4 618.5h277q-4 -205 -4.5 -422t1 -434t3.5 -422q0 -55 34.5 -84.5t100.5 -29.5t99 29.5t33 84.5q2 205 3.5 422t1 434t-4.5 422h278q4 -307 4 -618.5t-4 -618.5q-3 -205 -98 -293.5t-312 -88.5zM545 1710v187h187
v-187h-187zM253 1710v187h186v-187h-186zM160 2074h662v-126h-662v126z" />
    <glyph glyph-name="uni01D6" unicode="&#x1d6;" horiz-adv-x="998" 
d="M356 -19q-124 0 -198 75.5t-74 248.5v895h278l3 -919q0 -50 24 -74t75 -24q47 0 95 25t67 66v926h280v-1200h-280v127h-38q-46 -78 -101 -112t-131 -34zM545 1310v187h187v-187h-187zM253 1310v187h186v-187h-186zM160 1674h662v-126h-662v126z" />
    <glyph glyph-name="uni01D7" unicode="&#x1d7;" horiz-adv-x="984" 
d="M493 -19q-219 0 -314 88.5t-98 293.5q-4 307 -4 618.5t4 618.5h277q-4 -205 -4.5 -422t1 -434t3.5 -422q0 -55 34.5 -84.5t100.5 -29.5t99 29.5t33 84.5q2 205 3.5 422t1 434t-4.5 422h278q4 -307 4 -618.5t-4 -618.5q-3 -205 -98 -293.5t-312 -88.5zM545 1710v187h187
v-187h-187zM253 1710v187h186v-187h-186zM411 1949l188 271h191l-198 -271h-181z" />
    <glyph glyph-name="uni01D8" unicode="&#x1d8;" horiz-adv-x="998" 
d="M356 -19q-124 0 -198 75.5t-74 248.5v895h278l3 -919q0 -50 24 -74t75 -24q47 0 95 25t67 66v926h280v-1200h-280v127h-38q-46 -78 -101 -112t-131 -34zM545 1310v187h187v-187h-187zM253 1310v187h186v-187h-186zM410 1549l188 271h191l-198 -271h-181z" />
    <glyph glyph-name="uni01D9" unicode="&#x1d9;" horiz-adv-x="984" 
d="M493 -19q-219 0 -314 88.5t-98 293.5q-4 307 -4 618.5t4 618.5h277q-4 -205 -4.5 -422t1 -434t3.5 -422q0 -55 34.5 -84.5t100.5 -29.5t99 29.5t33 84.5q2 205 3.5 422t1 434t-4.5 422h278q4 -307 4 -618.5t-4 -618.5q-3 -205 -98 -293.5t-312 -88.5zM545 1710v187h187
v-187h-187zM253 1710v187h186v-187h-186zM418 1950l-169 271h164l78 -139l78 139h164l-169 -271h-146z" />
    <glyph glyph-name="uni01DA" unicode="&#x1da;" horiz-adv-x="998" 
d="M356 -19q-124 0 -198 75.5t-74 248.5v895h278l3 -919q0 -50 24 -74t75 -24q47 0 95 25t67 66v926h280v-1200h-280v127h-38q-46 -78 -101 -112t-131 -34zM545 1310v187h187v-187h-187zM253 1310v187h186v-187h-186zM418 1550l-169 271h164l78 -139l78 139h164l-169 -271
h-146z" />
    <glyph glyph-name="uni01DB" unicode="&#x1db;" horiz-adv-x="984" 
d="M493 -19q-219 0 -314 88.5t-98 293.5q-4 307 -4 618.5t4 618.5h277q-4 -205 -4.5 -422t1 -434t3.5 -422q0 -55 34.5 -84.5t100.5 -29.5t99 29.5t33 84.5q2 205 3.5 422t1 434t-4.5 422h278q4 -307 4 -618.5t-4 -618.5q-3 -205 -98 -293.5t-312 -88.5zM545 1710v187h187
v-187h-187zM253 1710v187h186v-187h-186zM374 1949l-179 271h190l170 -271h-181z" />
    <glyph glyph-name="uni01DC" unicode="&#x1dc;" horiz-adv-x="998" 
d="M356 -19q-124 0 -198 75.5t-74 248.5v895h278l3 -919q0 -50 24 -74t75 -24q47 0 95 25t67 66v926h280v-1200h-280v127h-38q-46 -78 -101 -112t-131 -34zM545 1310v187h187v-187h-187zM253 1310v187h186v-187h-186zM373 1549l-179 271h190l170 -271h-181z" />
    <glyph glyph-name="uni01DD" unicode="&#x1dd;" horiz-adv-x="915" 
d="M444 1219q205 0 295 -79.5t101 -260.5q2 -47 3.5 -122.5t1.5 -159.5t-1.5 -157t-3.5 -115q-12 -184 -104 -264t-289 -80t-286 77.5t-98 255.5q-1 24 -1.5 80t0 124.5t3.5 128.5h499q0 65 -1 129.5t-4 132.5q-1 56 -27.5 79t-87.5 23q-56 0 -79.5 -23.5t-26.5 -79.5
q-1 -28 -1.5 -69t1.5 -98h-273q-1 16 -2 60t0 78q9 182 97.5 261t283.5 79zM563 455h-227v-74.5t0.5 -61.5t1.5 -36q3 -50 28.5 -72t80.5 -22q61 0 86 22t26 72q2 45 3 87.5t1 84.5z" />
    <glyph glyph-name="Gcaron" unicode="&#x1e6;" horiz-adv-x="983" 
d="M498 -19q-145 0 -234 38.5t-131.5 122.5t-47.5 221q-3 92 -4.5 203.5t-1.5 229t1.5 227.5t4.5 199q6 143 49 230.5t131.5 127t231.5 39.5q207 0 301 -88t106 -292q3 -51 3 -115.5t-3 -116.5h-277q3 65 3 136t-3 136q-3 60 -34 87t-96 27q-68 0 -99.5 -27t-35.5 -87
q-5 -112 -8 -233t-3 -245t3 -245t8 -233q4 -61 35.5 -88.5t100.5 -27.5t103.5 27.5t39.5 88.5q1 27 1.5 64t0 74t-1.5 64h-116v241h385q5 -93 4 -200.5t-5 -202.5q-10 -205 -105 -293.5t-306 -88.5zM415 1681l-169 271h164l78 -139l78 139h164l-169 -271h-146z" />
    <glyph glyph-name="gcaron" unicode="&#x1e7;" horiz-adv-x="997" 
d="M451 -393q-166 0 -258 47t-112 135q-3 13 -4.5 33t0.5 37q7 50 40.5 85.5t92.5 42.5v39q-54 10 -86 39t-39 76q-2 18 -2 31.5t2 29.5q5 44 45.5 70.5t102.5 35.5v40q-83 36 -123.5 111t-48.5 194q-1 34 -2 63t-1 55.5t1 52t2 51.5q8 121 50 197t127 111.5t223 35.5
q131 0 212.5 -32t124.5 -103h40q8 61 45 88.5t112 27.5v-210h-32q-50 0 -78 -22.5t-28 -83.5v-59v-38.5t0.5 -40.5t0 -44t-2.5 -49q-8 -124 -49.5 -200t-125.5 -110.5t-220 -34.5q-94 0 -133 -13.5t-39 -44.5v-7q0 -20 10.5 -32.5t45.5 -17.5t109 -6q206 -4 304 -65
t119 -179q3 -18 3.5 -41t-3.5 -50q-12 -86 -61 -140.5t-139 -79.5t-225 -25zM464 -203q55 0 94.5 8.5t63.5 25.5t32 42q6 16 5 30t-6 29q-9 24 -32.5 40t-62.5 23.5t-93 7.5q-77 1 -119.5 -16.5t-53.5 -54.5q-4 -16 -4 -31t4 -29q7 -25 28.5 -42t57.5 -25t86 -8zM459 515
q62 0 91.5 26.5t32.5 72.5q2 29 3.5 66.5t1.5 78.5t-1.5 80.5t-3.5 71.5q-3 49 -32 74.5t-92 25.5t-93.5 -25.5t-33.5 -78.5q-1 -40 -2.5 -79t-1.5 -75.5t1 -69.5t3 -62q4 -48 32.5 -77t94.5 -29zM387 1281l-169 271h164l78 -139l78 139h164l-169 -271h-146z" />
    <glyph glyph-name="uni01EA" unicode="&#x1ea;" horiz-adv-x="993" 
d="M495 -19q-215 0 -311 88.5t-100 294.5q-3 113 -4 221.5t-1 216t1 216t4 220.5q4 205 100 293t311 88t309.5 -88t101.5 -293q4 -113 6 -222t2 -216.5t-2 -215.5t-6 -220q-7 -206 -101.5 -294.5t-309.5 -88.5zM495 207q70 0 101.5 30.5t32.5 96.5q5 114 7 231t2 236
t-2.5 236.5t-6.5 230.5q-1 65 -33 95t-101 30q-67 0 -99.5 -30t-34.5 -95q-5 -113 -7.5 -230.5t-2.5 -236t2.5 -236t7.5 -231.5q2 -66 34.5 -96.5t99.5 -30.5zM877 -301h-62q-144 0 -204 56t-42 181l14 90h143l-14 -90q-7 -56 17.5 -80.5t85.5 -24.5h62v-132z" />
    <glyph glyph-name="uni01EB" unicode="&#x1eb;" horiz-adv-x="954" 
d="M478 -19q-143 0 -228.5 38t-126 122t-48.5 222q-1 42 -2.5 104t-1.5 132t1 133.5t3 105.5q8 139 48.5 222.5t126 121t228.5 37.5q146 0 230.5 -39t124 -122.5t46.5 -219.5q2 -42 3.5 -104.5t1.5 -132t-1.5 -132.5t-3.5 -106q-8 -137 -47 -221t-124 -122.5t-230 -38.5z
M478 189q66 0 94 26.5t29 78.5q3 83 4.5 159.5t1.5 151t-1.5 149.5t-4.5 154q-1 51 -29 77t-94 26q-64 0 -94 -27t-32 -77q-2 -68 -3 -143t-1 -153.5t1.5 -158.5t3.5 -158q3 -52 32 -78.5t93 -26.5zM870 -298h-62q-144 0 -204 56t-42 181l14 90h143l-14 -90
q-7 -56 17.5 -80.5t85.5 -24.5h62v-132z" />
    <glyph glyph-name="Aringacute" unicode="&#x1fa;" 
d="M32 0l215 1600h465l214 -1600h-284l-36 353h-254l-35 -353h-285zM378 597h203l-36 352l-27 407h-78l-27 -407zM479 1670q-84 0 -144.5 60.5t-60.5 144.5q0 85 60.5 145t144.5 60q85 0 145 -60t60 -145q0 -84 -60 -144.5t-145 -60.5zM479 1815q26 0 43.5 17.5t17.5 42.5
q0 26 -17.5 43.5t-43.5 17.5q-25 0 -43 -17.5t-18 -43.5q0 -25 18 -42.5t43 -17.5zM397 2159l188 271h191l-198 -271h-181z" />
    <glyph glyph-name="aringacute" unicode="&#x1fb;" horiz-adv-x="945" 
d="M332 -15q-133 0 -197 63.5t-77 216.5q-1 19 -1 45t1 44q7 80 37.5 137.5t95.5 101t173 83.5q55 20 107 35t113 30v165q0 53 -25.5 79t-87.5 26q-53 0 -77.5 -21.5t-27.5 -72.5q-2 -14 -2.5 -50.5t0.5 -72.5t2 -49h-269q-1 16 -2 59.5t0 81.5q5 116 42 189.5t119.5 108.5
t223.5 35q144 0 226.5 -38.5t117 -122t34.5 -216.5l-2 -842h-276v127h-40q-35 -73 -80 -107.5t-128 -34.5zM445 183q45 0 80.5 23.5t55.5 62.5l2 291q-39 -9 -77 -20.5t-73 -27.5q-58 -27 -76.5 -68t-21.5 -90q-1 -23 -1 -36t1 -32q5 -50 32.5 -76.5t77.5 -26.5zM478 1270
q-84 0 -144.5 60.5t-60.5 144.5q0 85 60.5 145t144.5 60q85 0 145 -60t60 -145q0 -84 -60 -144.5t-145 -60.5zM478 1415q26 0 43.5 17.5t17.5 42.5q0 26 -17.5 43.5t-43.5 17.5q-25 0 -43 -17.5t-18 -43.5q0 -25 18 -42.5t43 -17.5zM396 1759l188 271h191l-198 -271h-181z
" />
    <glyph glyph-name="AEacute" unicode="&#x1fc;" horiz-adv-x="1375" 
d="M32 0l324 1600h967v-244h-405v-421h385v-244h-385v-447h405v-244h-682v352h-233l-73 -352h-303zM459 596h182v760h-74l-48 -480zM718 1680l188 271h191l-198 -271h-181z" />
    <glyph glyph-name="aeacute" unicode="&#x1fd;" horiz-adv-x="1399" 
d="M325 -15q-117 0 -186.5 63t-80.5 216q-1 22 -1 46t1 44q10 120 81 191t219 125q54 21 105 35.5t105 28.5v58.5v57.5v58q0 28 -7 52t-28.5 37.5t-67.5 13.5q-53 0 -73.5 -21.5t-24.5 -72.5q-1 -19 -1.5 -52.5t0 -66.5t1.5 -53h-271q-1 9 -2 35.5t-1 56t1 49.5
q4 116 41.5 189.5t119 108.5t218.5 35q81 0 140 -12t100 -37q47 26 107.5 37.5t136.5 11.5q194 0 282.5 -77.5t96.5 -255.5q1 -18 1.5 -55.5t0.5 -85t-1 -97.5t-3 -93h-490v-131v-132q0 -56 29.5 -79.5t87.5 -23.5t79 25.5t22 76.5q3 43 3.5 80.5t-2.5 87.5h271q2 -14 3 -59
t-1 -79q-8 -181 -95.5 -260.5t-279.5 -79.5q-132 0 -218 35t-129 111h-22q-35 -75 -107.5 -108.5t-159.5 -33.5zM441 183q27 0 56.5 13t50.5 56.5t22 133.5q0 35 -1 78.5t-1 88.5q-33 -8 -70.5 -19.5t-68.5 -26.5q-53 -26 -72.5 -64t-23.5 -89q-1 -19 -1 -35.5t2 -33.5
q7 -49 32 -75.5t75 -26.5zM844 747h220q0 43 -0.5 91.5t-1.5 79.5q0 50 -25 71.5t-80 21.5q-56 0 -84.5 -22t-28.5 -72v-85v-85zM634 1280l188 271h191l-198 -271h-181z" />
    <glyph glyph-name="Oslashacute" unicode="&#x1fe;" horiz-adv-x="993" 
d="M495 -19q-215 0 -311 88.5t-100 294.5q-3 113 -4 221.5t-1 216t1 216t4 220.5q4 205 100 293t311 88t309.5 -88t101.5 -293q4 -113 6 -222t2 -216.5t-2 -215.5t-6 -220q-7 -206 -101.5 -294.5t-309.5 -88.5zM495 207q70 0 101.5 30.5t32.5 96.5q3 78 5 156.5t3 157.5
t0 160l-280 -368q1 -27 2 -53.5t2 -52.5q2 -66 34.5 -96.5t99.5 -30.5zM352 747l281 371q0 37 -1 74.5t-3 75.5q-1 65 -33 95t-101 30q-67 0 -99.5 -30t-34.5 -95q-4 -85 -6 -171t-3 -173.5t0 -176.5zM415 1680l188 271h191l-198 -271h-181z" />
    <glyph glyph-name="oslashacute" unicode="&#x1ff;" horiz-adv-x="954" 
d="M147 348l607 626l94 -102l-659 -677zM478 -19q-143 0 -228.5 38t-126 122t-48.5 222q-1 42 -2.5 104t-1.5 132t1 133.5t3 105.5q8 139 48.5 222.5t126 121t228.5 37.5q146 0 230.5 -39t124 -122.5t46.5 -219.5q2 -42 3.5 -104.5t1.5 -132t-1.5 -132.5t-3.5 -106
q-8 -137 -47 -221t-124 -122.5t-230 -38.5zM478 189q66 0 94 26.5t29 78.5q3 83 4.5 159.5t1.5 151t-1.5 149.5t-4.5 154q-1 51 -29 77t-94 26q-64 0 -94 -27t-32 -77q-2 -68 -3 -143t-1 -153.5t1.5 -158.5t3.5 -158q3 -52 32 -78.5t93 -26.5zM396 1280l188 271h191
l-198 -271h-181z" />
    <glyph glyph-name="uni0200" unicode="&#x200;" 
d="M32 0l215 1600h465l214 -1600h-284l-36 353h-254l-35 -353h-285zM378 597h203l-36 352l-27 407h-78l-27 -407zM521 1680l-194 271h186l194 -271h-186zM240 1680l-194 271h185l195 -271h-186z" />
    <glyph glyph-name="uni0201" unicode="&#x201;" horiz-adv-x="945" 
d="M332 -15q-133 0 -197 63.5t-77 216.5q-1 19 -1 45t1 44q7 80 37.5 137.5t95.5 101t173 83.5q55 20 107 35t113 30v165q0 53 -25.5 79t-87.5 26q-53 0 -77.5 -21.5t-27.5 -72.5q-2 -14 -2.5 -50.5t0.5 -72.5t2 -49h-269q-1 16 -2 59.5t0 81.5q5 116 42 189.5t119.5 108.5
t223.5 35q144 0 226.5 -38.5t117 -122t34.5 -216.5l-2 -842h-276v127h-40q-35 -73 -80 -107.5t-128 -34.5zM445 183q45 0 80.5 23.5t55.5 62.5l2 291q-39 -9 -77 -20.5t-73 -27.5q-58 -27 -76.5 -68t-21.5 -90q-1 -23 -1 -36t1 -32q5 -50 32.5 -76.5t77.5 -26.5zM519 1280
l-194 271h186l194 -271h-186zM238 1280l-194 271h185l195 -271h-186z" />
    <glyph glyph-name="uni0202" unicode="&#x202;" 
d="M32 0l215 1600h465l214 -1600h-284l-36 353h-254l-35 -353h-285zM378 597h203l-36 352l-27 407h-78l-27 -407zM480 1965q151 0 221.5 -66.5t79.5 -219.5h-169q0 77 -31 111.5t-101 34.5q-71 0 -102 -34.5t-31 -111.5h-169q8 153 78.5 219.5t223.5 66.5z" />
    <glyph glyph-name="uni0203" unicode="&#x203;" horiz-adv-x="945" 
d="M332 -15q-133 0 -197 63.5t-77 216.5q-1 19 -1 45t1 44q7 80 37.5 137.5t95.5 101t173 83.5q55 20 107 35t113 30v165q0 53 -25.5 79t-87.5 26q-53 0 -77.5 -21.5t-27.5 -72.5q-2 -14 -2.5 -50.5t0.5 -72.5t2 -49h-269q-1 16 -2 59.5t0 81.5q5 116 42 189.5t119.5 108.5
t223.5 35q144 0 226.5 -38.5t117 -122t34.5 -216.5l-2 -842h-276v127h-40q-35 -73 -80 -107.5t-128 -34.5zM445 183q45 0 80.5 23.5t55.5 62.5l2 291q-39 -9 -77 -20.5t-73 -27.5q-58 -27 -76.5 -68t-21.5 -90q-1 -23 -1 -36t1 -32q5 -50 32.5 -76.5t77.5 -26.5zM478 1565
q151 0 221.5 -66.5t79.5 -219.5h-169q0 77 -31 111.5t-101 34.5q-71 0 -102 -34.5t-31 -111.5h-169q8 153 78.5 219.5t223.5 66.5z" />
    <glyph glyph-name="uni0204" unicode="&#x204;" horiz-adv-x="829" 
d="M95 0v1600h683v-244h-406v-421h386v-244h-386v-447h406v-244h-683zM471 1680l-194 271h186l194 -271h-186zM190 1680l-194 271h185l195 -271h-186z" />
    <glyph glyph-name="uni0205" unicode="&#x205;" horiz-adv-x="915" 
d="M472 -19q-205 0 -295 80t-101 260q-3 47 -4 122.5t-1 159.5t1.5 157t3.5 115q13 185 104 264.5t288 79.5q198 0 287 -77.5t97 -255.5q1 -24 1.5 -80t0 -124.5t-3.5 -128.5h-499q0 -64 1.5 -129t3.5 -133q2 -55 28.5 -78.5t86.5 -23.5q57 0 80 23.5t26 79.5q2 28 2.5 69.5
t-2.5 97.5h273q2 -16 3 -60t-1 -78q-9 -181 -97 -260.5t-283 -79.5zM352 745h227v74.5t-0.5 61.5t-1.5 36q-3 51 -27.5 72.5t-81.5 21.5q-61 0 -85.5 -22t-26.5 -72q-1 -44 -2 -87t-2 -85zM505 1280l-194 271h186l194 -271h-186zM224 1280l-194 271h185l195 -271h-186z" />
    <glyph glyph-name="uni0206" unicode="&#x206;" horiz-adv-x="829" 
d="M95 0v1600h683v-244h-406v-421h386v-244h-386v-447h406v-244h-683zM430 1965q151 0 221.5 -66.5t79.5 -219.5h-169q0 77 -31 111.5t-101 34.5q-71 0 -102 -34.5t-31 -111.5h-169q8 153 78.5 219.5t223.5 66.5z" />
    <glyph glyph-name="uni0207" unicode="&#x207;" horiz-adv-x="915" 
d="M472 -19q-205 0 -295 80t-101 260q-3 47 -4 122.5t-1 159.5t1.5 157t3.5 115q13 185 104 264.5t288 79.5q198 0 287 -77.5t97 -255.5q1 -24 1.5 -80t0 -124.5t-3.5 -128.5h-499q0 -64 1.5 -129t3.5 -133q2 -55 28.5 -78.5t86.5 -23.5q57 0 80 23.5t26 79.5q2 28 2.5 69.5
t-2.5 97.5h273q2 -16 3 -60t-1 -78q-9 -181 -97 -260.5t-283 -79.5zM352 745h227v74.5t-0.5 61.5t-1.5 36q-3 51 -27.5 72.5t-81.5 21.5q-61 0 -85.5 -22t-26.5 -72q-1 -44 -2 -87t-2 -85zM464 1565q151 0 221.5 -66.5t79.5 -219.5h-169q0 77 -31 111.5t-101 34.5
q-71 0 -102 -34.5t-31 -111.5h-169q8 153 78.5 219.5t223.5 66.5z" />
    <glyph glyph-name="uni0208" unicode="&#x208;" horiz-adv-x="467" 
d="M95 0v1600h277v-1600h-277zM275 1680l-194 271h186l194 -271h-186zM-6 1680l-194 271h185l195 -271h-186z" />
    <glyph glyph-name="uni0209" unicode="&#x209;" horiz-adv-x="461" 
d="M92 0v1200h277v-1200h-277zM272 1280l-194 271h186l194 -271h-186zM-9 1280l-194 271h185l195 -271h-186z" />
    <glyph glyph-name="uni020A" unicode="&#x20a;" horiz-adv-x="467" 
d="M95 0v1600h277v-1600h-277zM234 1965q151 0 221.5 -66.5t79.5 -219.5h-169q0 77 -31 111.5t-101 34.5q-71 0 -102 -34.5t-31 -111.5h-169q8 153 78.5 219.5t223.5 66.5z" />
    <glyph glyph-name="uni020B" unicode="&#x20b;" horiz-adv-x="461" 
d="M92 0v1200h277v-1200h-277zM231 1565q151 0 221.5 -66.5t79.5 -219.5h-169q0 77 -31 111.5t-101 34.5q-71 0 -102 -34.5t-31 -111.5h-169q8 153 78.5 219.5t223.5 66.5z" />
    <glyph glyph-name="uni020C" unicode="&#x20c;" horiz-adv-x="993" 
d="M495 -19q-215 0 -311 88.5t-100 294.5q-3 113 -4 221.5t-1 216t1 216t4 220.5q4 205 100 293t311 88t309.5 -88t101.5 -293q4 -113 6 -222t2 -216.5t-2 -215.5t-6 -220q-7 -206 -101.5 -294.5t-309.5 -88.5zM495 207q70 0 101.5 30.5t32.5 96.5q5 114 7 231t2 236
t-2.5 236.5t-6.5 230.5q-1 65 -33 95t-101 30q-67 0 -99.5 -30t-34.5 -95q-5 -113 -7.5 -230.5t-2.5 -236t2.5 -236t7.5 -231.5q2 -66 34.5 -96.5t99.5 -30.5zM539 1680l-194 271h186l194 -271h-186zM258 1680l-194 271h185l195 -271h-186z" />
    <glyph glyph-name="uni020D" unicode="&#x20d;" horiz-adv-x="954" 
d="M478 -19q-143 0 -228.5 38t-126 122t-48.5 222q-1 42 -2.5 104t-1.5 132t1 133.5t3 105.5q8 139 48.5 222.5t126 121t228.5 37.5q146 0 230.5 -39t124 -122.5t46.5 -219.5q2 -42 3.5 -104.5t1.5 -132t-1.5 -132.5t-3.5 -106q-8 -137 -47 -221t-124 -122.5t-230 -38.5z
M478 189q66 0 94 26.5t29 78.5q3 83 4.5 159.5t1.5 151t-1.5 149.5t-4.5 154q-1 51 -29 77t-94 26q-64 0 -94 -27t-32 -77q-2 -68 -3 -143t-1 -153.5t1.5 -158.5t3.5 -158q3 -52 32 -78.5t93 -26.5zM519 1280l-194 271h186l194 -271h-186zM238 1280l-194 271h185l195 -271
h-186z" />
    <glyph glyph-name="uni020E" unicode="&#x20e;" horiz-adv-x="993" 
d="M495 -19q-215 0 -311 88.5t-100 294.5q-3 113 -4 221.5t-1 216t1 216t4 220.5q4 205 100 293t311 88t309.5 -88t101.5 -293q4 -113 6 -222t2 -216.5t-2 -215.5t-6 -220q-7 -206 -101.5 -294.5t-309.5 -88.5zM495 207q70 0 101.5 30.5t32.5 96.5q5 114 7 231t2 236
t-2.5 236.5t-6.5 230.5q-1 65 -33 95t-101 30q-67 0 -99.5 -30t-34.5 -95q-5 -113 -7.5 -230.5t-2.5 -236t2.5 -236t7.5 -231.5q2 -66 34.5 -96.5t99.5 -30.5zM498 1965q151 0 221.5 -66.5t79.5 -219.5h-169q0 77 -31 111.5t-101 34.5q-71 0 -102 -34.5t-31 -111.5h-169
q8 153 78.5 219.5t223.5 66.5z" />
    <glyph glyph-name="uni020F" unicode="&#x20f;" horiz-adv-x="954" 
d="M478 -19q-143 0 -228.5 38t-126 122t-48.5 222q-1 42 -2.5 104t-1.5 132t1 133.5t3 105.5q8 139 48.5 222.5t126 121t228.5 37.5q146 0 230.5 -39t124 -122.5t46.5 -219.5q2 -42 3.5 -104.5t1.5 -132t-1.5 -132.5t-3.5 -106q-8 -137 -47 -221t-124 -122.5t-230 -38.5z
M478 189q66 0 94 26.5t29 78.5q3 83 4.5 159.5t1.5 151t-1.5 149.5t-4.5 154q-1 51 -29 77t-94 26q-64 0 -94 -27t-32 -77q-2 -68 -3 -143t-1 -153.5t1.5 -158.5t3.5 -158q3 -52 32 -78.5t93 -26.5zM478 1565q151 0 221.5 -66.5t79.5 -219.5h-169q0 77 -31 111.5t-101 34.5
q-71 0 -102 -34.5t-31 -111.5h-169q8 153 78.5 219.5t223.5 66.5z" />
    <glyph glyph-name="uni0210" unicode="&#x210;" horiz-adv-x="955" 
d="M95 0v1600h380q211 0 305.5 -86t101.5 -284q2 -62 2.5 -109.5t0 -94t-2.5 -105.5q-4 -125 -42.5 -204t-118.5 -120l184 -597h-294l-151 551h-88v-551h-277zM372 795h102q64 0 96 29t35 83t4 111t0 114.5t-4 111.5q-3 55 -35 83.5t-95 28.5h-103v-561zM509 1680l-194 271
h186l194 -271h-186zM228 1680l-194 271h185l195 -271h-186z" />
    <glyph glyph-name="uni0211" unicode="&#x211;" horiz-adv-x="700" 
d="M92 0v1200h282v-145h49q12 86 57 119t117 33q25 0 49.5 -1.5t38.5 -3.5v-211h-84q-106 0 -159.5 -31.5t-67.5 -99.5v-860h-282zM425 1280l-194 271h186l194 -271h-186zM144 1280l-194 271h185l195 -271h-186z" />
    <glyph glyph-name="uni0212" unicode="&#x212;" horiz-adv-x="955" 
d="M95 0v1600h380q211 0 305.5 -86t101.5 -284q2 -62 2.5 -109.5t0 -94t-2.5 -105.5q-4 -125 -42.5 -204t-118.5 -120l184 -597h-294l-151 551h-88v-551h-277zM372 795h102q64 0 96 29t35 83t4 111t0 114.5t-4 111.5q-3 55 -35 83.5t-95 28.5h-103v-561zM468 1965
q151 0 221.5 -66.5t79.5 -219.5h-169q0 77 -31 111.5t-101 34.5q-71 0 -102 -34.5t-31 -111.5h-169q8 153 78.5 219.5t223.5 66.5z" />
    <glyph glyph-name="uni0213" unicode="&#x213;" horiz-adv-x="700" 
d="M92 0v1200h282v-145h49q12 86 57 119t117 33q25 0 49.5 -1.5t38.5 -3.5v-211h-84q-106 0 -159.5 -31.5t-67.5 -99.5v-860h-282zM384 1565q151 0 221.5 -66.5t79.5 -219.5h-169q0 77 -31 111.5t-101 34.5q-71 0 -102 -34.5t-31 -111.5h-169q8 153 78.5 219.5t223.5 66.5z
" />
    <glyph glyph-name="uni0214" unicode="&#x214;" horiz-adv-x="984" 
d="M493 -19q-219 0 -314 88.5t-98 293.5q-4 307 -4 618.5t4 618.5h277q-4 -205 -4.5 -422t1 -434t3.5 -422q0 -55 34.5 -84.5t100.5 -29.5t99 29.5t33 84.5q2 205 3.5 422t1 434t-4.5 422h278q4 -307 4 -618.5t-4 -618.5q-3 -205 -98 -293.5t-312 -88.5zM534 1680l-194 271
h186l194 -271h-186zM253 1680l-194 271h185l195 -271h-186z" />
    <glyph glyph-name="uni0215" unicode="&#x215;" horiz-adv-x="998" 
d="M356 -19q-124 0 -198 75.5t-74 248.5v895h278l3 -919q0 -50 24 -74t75 -24q47 0 95 25t67 66v926h280v-1200h-280v127h-38q-46 -78 -101 -112t-131 -34zM534 1280l-194 271h186l194 -271h-186zM253 1280l-194 271h185l195 -271h-186z" />
    <glyph glyph-name="uni0216" unicode="&#x216;" horiz-adv-x="984" 
d="M493 -19q-219 0 -314 88.5t-98 293.5q-4 307 -4 618.5t4 618.5h277q-4 -205 -4.5 -422t1 -434t3.5 -422q0 -55 34.5 -84.5t100.5 -29.5t99 29.5t33 84.5q2 205 3.5 422t1 434t-4.5 422h278q4 -307 4 -618.5t-4 -618.5q-3 -205 -98 -293.5t-312 -88.5zM493 1965
q151 0 221.5 -66.5t79.5 -219.5h-169q0 77 -31 111.5t-101 34.5q-71 0 -102 -34.5t-31 -111.5h-169q8 153 78.5 219.5t223.5 66.5z" />
    <glyph glyph-name="uni0217" unicode="&#x217;" horiz-adv-x="998" 
d="M356 -19q-124 0 -198 75.5t-74 248.5v895h278l3 -919q0 -50 24 -74t75 -24q47 0 95 25t67 66v926h280v-1200h-280v127h-38q-46 -78 -101 -112t-131 -34zM493 1565q151 0 221.5 -66.5t79.5 -219.5h-169q0 77 -31 111.5t-101 34.5q-71 0 -102 -34.5t-31 -111.5h-169
q8 153 78.5 219.5t223.5 66.5z" />
    <glyph glyph-name="uni0218" unicode="&#x218;" horiz-adv-x="952" 
d="M477 -19q-212 0 -305 88.5t-102 293.5q-1 36 -1 76.5t2 81t7 76.5h260q-4 -76 -4.5 -149t4.5 -135q5 -52 39.5 -79t99.5 -27q63 0 95 27t38 79q4 36 5.5 71.5t0 71.5t-5.5 72q-4 48 -31 84t-78 48l-165 39q-101 25 -159.5 74t-84.5 122.5t-29 173.5q-1 47 -1 87.5t1 82.5
q6 136 48.5 219.5t131.5 122t234 38.5q209 0 302.5 -88t101.5 -292q2 -46 0.5 -110t-4.5 -122h-266q3 72 4 142t-2 140q-1 51 -36.5 77.5t-99.5 26.5t-97.5 -26.5t-39.5 -77.5q-5 -55 -5 -110t5 -110q5 -47 27.5 -82t74.5 -46l146 -33q109 -24 173.5 -74.5t94 -127
t33.5 -178.5q1 -27 1 -55t-1 -55.5t-2 -54.5q-8 -205 -102 -293.5t-308 -88.5zM380 -443l74 150h-110v213h281v-188l-102 -175h-143z" />
    <glyph glyph-name="uni0219" unicode="&#x219;" horiz-adv-x="872" 
d="M430 -19q-191 0 -273 79.5t-90 260.5q-1 37 -0.5 74.5t2.5 52.5h245q-2 -56 -1.5 -93.5t1.5 -63.5q3 -56 32 -79t84 -23q67 0 97.5 23.5t30.5 79.5v32.5v12.5v30q0 37 -16 61t-57 34l-140 38q-91 25 -155 63.5t-97 98t-33 147.5q-1 18 -0.5 33.5t0.5 30.5q0 186 86 266
t297 80q192 0 273 -77.5t89 -255.5q2 -26 1 -70.5t-3 -60.5h-255q2 22 2 53.5v62t-1 46.5q-3 51 -25.5 72.5t-80.5 21.5q-60 0 -84 -21.5t-26 -72.5q-1 -13 -1.5 -28.5t-0.5 -55.5q0 -45 16 -72.5t65 -39.5l124 -30q140 -32 210.5 -102.5t70.5 -206.5q0 -17 -0.5 -34
t-0.5 -34q0 -178 -89 -255.5t-297 -77.5zM339 -443l74 150h-110v213h281v-188l-102 -175h-143z" />
    <glyph glyph-name="uni021A" unicode="&#x21a;" horiz-adv-x="824" 
d="M273 0v1356h-262v244h802v-244h-263v-1356h-277zM318 -443l74 150h-110v213h281v-188l-102 -175h-143z" />
    <glyph glyph-name="uni021B" unicode="&#x21b;" horiz-adv-x="692" 
d="M561 -19q-223 0 -319 79t-97 264l-1 667h-113v209h118v340h280v-340h213v-209h-218l2 -700q0 -60 28.5 -82t107.5 -22q26 0 49.5 1t52.5 1v-198q-23 -5 -48 -7.5t-55 -2.5zM324 -443l74 150h-110v213h281v-188l-102 -175h-143z" />
    <glyph glyph-name="uni022A" unicode="&#x22a;" horiz-adv-x="993" 
d="M495 -19q-215 0 -311 88.5t-100 294.5q-3 113 -4 221.5t-1 216t1 216t4 220.5q4 205 100 293t311 88t309.5 -88t101.5 -293q4 -113 6 -222t2 -216.5t-2 -215.5t-6 -220q-7 -206 -101.5 -294.5t-309.5 -88.5zM495 207q70 0 101.5 30.5t32.5 96.5q5 114 7 231t2 236
t-2.5 236.5t-6.5 230.5q-1 65 -33 95t-101 30q-67 0 -99.5 -30t-34.5 -95q-5 -113 -7.5 -230.5t-2.5 -236t2.5 -236t7.5 -231.5q2 -66 34.5 -96.5t99.5 -30.5zM550 1710v187h187v-187h-187zM258 1710v187h186v-187h-186zM165 2074h662v-126h-662v126z" />
    <glyph glyph-name="uni022B" unicode="&#x22b;" horiz-adv-x="954" 
d="M478 -19q-143 0 -228.5 38t-126 122t-48.5 222q-1 42 -2.5 104t-1.5 132t1 133.5t3 105.5q8 139 48.5 222.5t126 121t228.5 37.5q146 0 230.5 -39t124 -122.5t46.5 -219.5q2 -42 3.5 -104.5t1.5 -132t-1.5 -132.5t-3.5 -106q-8 -137 -47 -221t-124 -122.5t-230 -38.5z
M478 189q66 0 94 26.5t29 78.5q3 83 4.5 159.5t1.5 151t-1.5 149.5t-4.5 154q-1 51 -29 77t-94 26q-64 0 -94 -27t-32 -77q-2 -68 -3 -143t-1 -153.5t1.5 -158.5t3.5 -158q3 -52 32 -78.5t93 -26.5zM531 1310v187h187v-187h-187zM239 1310v187h186v-187h-186zM146 1674h662
v-126h-662v126z" />
    <glyph glyph-name="uni022C" unicode="&#x22c;" horiz-adv-x="993" 
d="M495 -19q-215 0 -311 88.5t-100 294.5q-3 113 -4 221.5t-1 216t1 216t4 220.5q4 205 100 293t311 88t309.5 -88t101.5 -293q4 -113 6 -222t2 -216.5t-2 -215.5t-6 -220q-7 -206 -101.5 -294.5t-309.5 -88.5zM495 207q70 0 101.5 30.5t32.5 96.5q5 114 7 231t2 236
t-2.5 236.5t-6.5 230.5q-1 65 -33 95t-101 30q-67 0 -99.5 -30t-34.5 -95q-5 -113 -7.5 -230.5t-2.5 -236t2.5 -236t7.5 -231.5q2 -66 34.5 -96.5t99.5 -30.5zM650 1890h108q-6 -110 -45.5 -160t-112.5 -50q-45 0 -71.5 14t-44.5 32.5t-36 33t-47 14.5q-30 0 -40.5 -21
t-15.5 -60h-108q9 117 48.5 169t115.5 52q45 0 71.5 -13.5t44 -32t36 -32.5t46.5 -14t39 17.5t12 50.5zM165 2122h662v-126h-662v126z" />
    <glyph glyph-name="uni022D" unicode="&#x22d;" horiz-adv-x="954" 
d="M478 -19q-143 0 -228.5 38t-126 122t-48.5 222q-1 42 -2.5 104t-1.5 132t1 133.5t3 105.5q8 139 48.5 222.5t126 121t228.5 37.5q146 0 230.5 -39t124 -122.5t46.5 -219.5q2 -42 3.5 -104.5t1.5 -132t-1.5 -132.5t-3.5 -106q-8 -137 -47 -221t-124 -122.5t-230 -38.5z
M478 189q66 0 94 26.5t29 78.5q3 83 4.5 159.5t1.5 151t-1.5 149.5t-4.5 154q-1 51 -29 77t-94 26q-64 0 -94 -27t-32 -77q-2 -68 -3 -143t-1 -153.5t1.5 -158.5t3.5 -158q3 -52 32 -78.5t93 -26.5zM631 1490h108q-6 -110 -45.5 -160t-112.5 -50q-45 0 -71.5 14t-44.5 32.5
t-36 33t-47 14.5q-30 0 -40.5 -21t-15.5 -60h-108q9 117 48.5 169t115.5 52q45 0 71.5 -13.5t44 -32t36 -32.5t46.5 -14t39 17.5t12 50.5zM145 1722h662v-126h-662v126z" />
    <glyph glyph-name="uni0230" unicode="&#x230;" horiz-adv-x="993" 
d="M495 -19q-215 0 -311 88.5t-100 294.5q-3 113 -4 221.5t-1 216t1 216t4 220.5q4 205 100 293t311 88t309.5 -88t101.5 -293q4 -113 6 -222t2 -216.5t-2 -215.5t-6 -220q-7 -206 -101.5 -294.5t-309.5 -88.5zM495 207q70 0 101.5 30.5t32.5 96.5q5 114 7 231t2 236
t-2.5 236.5t-6.5 230.5q-1 65 -33 95t-101 30q-67 0 -99.5 -30t-34.5 -95q-5 -113 -7.5 -230.5t-2.5 -236t2.5 -236t7.5 -231.5q2 -66 34.5 -96.5t99.5 -30.5zM403 1680v187h186v-187h-186zM165 2074h662v-126h-662v126z" />
    <glyph glyph-name="uni0231" unicode="&#x231;" horiz-adv-x="954" 
d="M478 -19q-143 0 -228.5 38t-126 122t-48.5 222q-1 42 -2.5 104t-1.5 132t1 133.5t3 105.5q8 139 48.5 222.5t126 121t228.5 37.5q146 0 230.5 -39t124 -122.5t46.5 -219.5q2 -42 3.5 -104.5t1.5 -132t-1.5 -132.5t-3.5 -106q-8 -137 -47 -221t-124 -122.5t-230 -38.5z
M478 189q66 0 94 26.5t29 78.5q3 83 4.5 159.5t1.5 151t-1.5 149.5t-4.5 154q-1 51 -29 77t-94 26q-64 0 -94 -27t-32 -77q-2 -68 -3 -143t-1 -153.5t1.5 -158.5t3.5 -158q3 -52 32 -78.5t93 -26.5zM384 1280v187h186v-187h-186zM146 1674h662v-126h-662v126z" />
    <glyph glyph-name="uni0232" unicode="&#x232;" horiz-adv-x="894" 
d="M308 0v462l-20 1l-270 1137h283l84 -398l34 -468h56l33 468l85 398h282l-270 -1137l-20 -1v-462h-277zM112 1805h662v-126h-662v126z" />
    <glyph glyph-name="uni0233" unicode="&#x233;" horiz-adv-x="890" 
d="M222 -420q-34 0 -75 4t-77 10v205q28 -1 75 -2.5t76 -1.5q83 0 115.5 23.5t40.5 80.5l15 101h-146l-216 1200h284l61 -548l48 -448h70l32 448l53 548h284l-205 -1280q-18 -114 -61.5 -189.5t-131.5 -113t-242 -37.5zM113 1405h662v-126h-662v126z" />
    <glyph glyph-name="uni0237" unicode="&#x237;" horiz-adv-x="467" 
d="M-28 -424q-34 0 -74.5 4t-76.5 10v206q28 -2 74 -3.5t77 -1.5q59 0 90 26t31 76v1307h281v-1283q0 -182 -99 -261.5t-303 -79.5z" />
    <glyph glyph-name="uni0259" unicode="&#x259;" horiz-adv-x="915" 
d="M444 1219q205 0 295 -79.5t101 -260.5q2 -47 3.5 -122.5t1.5 -159.5t-1.5 -157t-3.5 -115q-12 -184 -104 -264t-289 -80t-286 77.5t-98 255.5q-1 24 -1.5 80t0 124.5t3.5 128.5h499q0 65 -1 129.5t-4 132.5q-1 56 -27.5 79t-87.5 23q-56 0 -79.5 -23.5t-26.5 -79.5
q-1 -28 -1.5 -69t1.5 -98h-273q-1 16 -2 60t0 78q9 182 97.5 261t283.5 79zM563 455h-227v-74.5t0.5 -61.5t1.5 -36q3 -50 28.5 -72t80.5 -22q61 0 86 22t26 72q2 45 3 87.5t1 84.5z" />
    <glyph glyph-name="uni02B9" unicode="&#x2b9;" horiz-adv-x="410" 
d="M136 1054l-52 274v272h242v-272l-52 -274h-138z" />
    <glyph glyph-name="uni02BA" unicode="&#x2ba;" horiz-adv-x="797" 
d="M134 1054l-50 274v272h234v-272l-49 -274h-135zM528 1054l-49 274v272h234v-272l-50 -274h-135z" />
    <glyph glyph-name="uni02BB" unicode="&#x2bb;" horiz-adv-x="449" 
d="M330 1645l-75 -150h110v-213h-281v188l102 175h144z" />
    <glyph glyph-name="uni02BC" unicode="&#x2bc;" horiz-adv-x="410" 
d="M136 1054l-52 274v272h242v-272l-52 -274h-138z" />
    <glyph glyph-name="uni02BE" unicode="&#x2be;" horiz-adv-x="453" 
d="M89 1089v147q52 -1 90.5 34t38.5 85q0 49 -39.5 84t-95.5 34v147q79 0 144 -35.5t104 -96t39 -134.5q0 -73 -40 -133t-104 -96t-137 -36z" />
    <glyph glyph-name="uni02BF" unicode="&#x2bf;" horiz-adv-x="453" 
d="M364 1089q-73 0 -137 36t-104 96t-40 133q0 74 39 134.5t104 96t144 35.5v-147q-56 1 -95.5 -34t-39.5 -84q0 -50 39 -85t90 -34v-147z" />
    <glyph glyph-name="circumflex" unicode="&#x2c6;" horiz-adv-x="670" 
d="M84 1282l169 271h164l169 -271h-182l-69 122l-69 -122h-182z" />
    <glyph glyph-name="caron" unicode="&#x2c7;" horiz-adv-x="653" 
d="M254 1281l-169 271h164l78 -139l78 139h164l-169 -271h-146z" />
    <glyph glyph-name="uni02C8" unicode="&#x2c8;" horiz-adv-x="409" 
d="M84 1600h241v-744h-241v744z" />
    <glyph glyph-name="uni02C9" unicode="&#x2c9;" horiz-adv-x="928" 
d="M117 1405h662v-126h-662v126z" />
    <glyph glyph-name="uni02CA" unicode="&#x2ca;" horiz-adv-x="624" 
d="M222 1054h-138l222 546h234z" />
    <glyph glyph-name="uni02CB" unicode="&#x2cb;" horiz-adv-x="624" 
d="M402 1054l-318 546h234l222 -546h-138z" />
    <glyph glyph-name="uni02CC" unicode="&#x2cc;" horiz-adv-x="409" 
d="M84 376h241v-776h-241v776z" />
    <glyph glyph-name="breve" unicode="&#x2d8;" horiz-adv-x="770" 
d="M386 1270q-153 0 -223.5 66.5t-78.5 219.5h169q0 -77 31 -111t102 -34q70 0 101 34t31 111h169q-9 -153 -79.5 -219.5t-221.5 -66.5z" />
    <glyph glyph-name="dotaccent" unicode="&#x2d9;" horiz-adv-x="398" 
d="M112 1280v187h186v-187h-186z" />
    <glyph glyph-name="ring" unicode="&#x2da;" horiz-adv-x="722" 
d="M272 1270q-84 0 -144.5 60.5t-60.5 144.5q0 85 60.5 145t144.5 60q85 0 145 -60t60 -145q0 -84 -60 -144.5t-145 -60.5zM272 1415q26 0 43.5 17.5t17.5 42.5q0 26 -17.5 43.5t-43.5 17.5q-25 0 -43 -17.5t-18 -43.5q0 -25 18 -42.5t43 -17.5z" />
    <glyph glyph-name="ogonek" unicode="&#x2db;" horiz-adv-x="469" 
d="M387 -327h-62q-144 0 -204 56t-42 181l14 90h143l-14 -90q-7 -56 17.5 -80.5t85.5 -24.5h62v-132z" />
    <glyph glyph-name="tilde" unicode="&#x2dc;" horiz-adv-x="802" 
d="M541 1486h108q-6 -110 -45.5 -160t-112.5 -50q-45 0 -71.5 14t-44.5 32.5t-36 33t-47 14.5q-30 0 -40.5 -21t-15.5 -60h-108q9 117 48.5 169t115.5 52q45 0 71.5 -13.5t44 -32t36 -32.5t46.5 -14t39 17.5t12 50.5z" />
    <glyph glyph-name="hungarumlaut" unicode="&#x2dd;" horiz-adv-x="833" 
d="M65 1282l223 271h190l-222 -271h-191zM353 1282l223 271h190l-223 -271h-190z" />
    <glyph glyph-name="gravecomb" unicode="&#x300;" horiz-adv-x="0" 
d="M261 1280l-179 271h190l170 -271h-181z" />
    <glyph glyph-name="acutecomb" unicode="&#x301;" horiz-adv-x="0" 
d="M69 1280l188 271h191l-198 -271h-181z" />
    <glyph glyph-name="uni0302" unicode="&#x302;" horiz-adv-x="0" 
d="M84 1282l169 271h164l169 -271h-182l-69 122l-69 -122h-182z" />
    <glyph glyph-name="tildecomb" unicode="&#x303;" horiz-adv-x="0" 
d="M541 1486h108q-6 -110 -45.5 -160t-112.5 -50q-45 0 -71.5 14t-44.5 32.5t-36 33t-47 14.5q-30 0 -40.5 -21t-15.5 -60h-108q9 117 48.5 169t115.5 52q45 0 71.5 -13.5t44 -32t36 -32.5t46.5 -14t39 17.5t12 50.5z" />
    <glyph glyph-name="uni0304" unicode="&#x304;" horiz-adv-x="0" 
d="M117 1405h662v-126h-662v126z" />
    <glyph glyph-name="uni0306" unicode="&#x306;" horiz-adv-x="0" 
d="M386 1270q-153 0 -223.5 66.5t-78.5 219.5h169q0 -77 31 -111t102 -34q70 0 101 34t31 111h169q-9 -153 -79.5 -219.5t-221.5 -66.5z" />
    <glyph glyph-name="uni0307" unicode="&#x307;" horiz-adv-x="0" 
d="M112 1280v187h186v-187h-186z" />
    <glyph glyph-name="uni0308" unicode="&#x308;" horiz-adv-x="0" 
d="M411 1310v187h187v-187h-187zM119 1310v187h186v-187h-186z" />
    <glyph glyph-name="hookabovecomb" unicode="&#x309;" horiz-adv-x="0" 
d="M233 1254l11 58q12 61 -9 81.5t-93 20.5h-73v131h73q141 0 204.5 -54.5t39.5 -178.5l-11 -58h-142z" />
    <glyph glyph-name="uni030A" unicode="&#x30a;" horiz-adv-x="0" 
d="M272 1270q-84 0 -144.5 60.5t-60.5 144.5q0 85 60.5 145t144.5 60q85 0 145 -60t60 -145q0 -84 -60 -144.5t-145 -60.5zM272 1415q26 0 43.5 17.5t17.5 42.5q0 26 -17.5 43.5t-43.5 17.5q-25 0 -43 -17.5t-18 -43.5q0 -25 18 -42.5t43 -17.5z" />
    <glyph glyph-name="uni030B" unicode="&#x30b;" horiz-adv-x="0" 
d="M65 1282l223 271h190l-222 -271h-191zM353 1282l223 271h190l-223 -271h-190z" />
    <glyph glyph-name="uni030C" unicode="&#x30c;" horiz-adv-x="0" 
d="M253 1281l-169 271h164l78 -139l78 139h164l-169 -271h-146z" />
    <glyph glyph-name="uni030F" unicode="&#x30f;" horiz-adv-x="0" 
d="M549 1280l-194 271h186l194 -271h-186zM268 1280l-194 271h185l195 -271h-186z" />
    <glyph glyph-name="uni0311" unicode="&#x311;" horiz-adv-x="0" 
d="M386 1565q151 0 221.5 -66.5t79.5 -219.5h-169q0 77 -31 111.5t-101 34.5q-71 0 -102 -34.5t-31 -111.5h-169q8 153 78.5 219.5t223.5 66.5z" />
    <glyph glyph-name="uni0312" unicode="&#x312;" horiz-adv-x="0" 
d="M330 1645l-75 -150h110v-213h-281v188l102 175h144z" />
    <glyph glyph-name="uni031B" unicode="&#x31b;" horiz-adv-x="0" 
d="M200 1076q-7 0 -18.5 1t-27.5 3v134h30h16q57 0 82.5 36t30.5 119q1 19 1.5 57.5t0 77t-1.5 57.5h150q1 -19 1.5 -57.5t0 -77t-1.5 -57.5q-8 -151 -72 -222t-191 -71z" />
    <glyph glyph-name="dotbelowcomb" unicode="&#x323;" horiz-adv-x="0" 
d="M93 -267v187h187v-187h-187z" />
    <glyph glyph-name="uni0324" unicode="&#x324;" horiz-adv-x="0" 
d="M411 -238v187h187v-187h-187zM119 -238v187h186v-187h-186z" />
    <glyph glyph-name="uni0326" unicode="&#x326;" horiz-adv-x="0" 
d="M120 -443l74 150h-110v213h281v-188l-102 -175h-143z" />
    <glyph glyph-name="uni0327" unicode="&#x327;" horiz-adv-x="0" 
d="M75 -327v132h62q61 0 86 24.5t16 80.5l-13 90h143l14 -90q17 -125 -42.5 -181t-203.5 -56h-62z" />
    <glyph glyph-name="uni0328" unicode="&#x328;" horiz-adv-x="0" 
d="M387 -327h-62q-144 0 -204 56t-42 181l14 90h143l-14 -90q-7 -56 17.5 -80.5t85.5 -24.5h62v-132z" />
    <glyph glyph-name="uni032E" unicode="&#x32e;" horiz-adv-x="0" 
d="M386 -366q-153 0 -223.5 66.5t-78.5 219.5h169q0 -77 31 -111t102 -34q70 0 101 34t31 111h169q-9 -153 -79.5 -219.5t-221.5 -66.5z" />
    <glyph glyph-name="uni0331" unicode="&#x331;" horiz-adv-x="0" 
d="M117 -92h662v-126h-662v126z" />
    <glyph glyph-name="uni0335" unicode="&#x335;" horiz-adv-x="0" 
d="M84 787h551v-138h-551v138z" />
    <glyph glyph-name="pi" unicode="&#x3c0;" horiz-adv-x="1384" 
d="M1166 -8q-148 0 -237 34.5t-130 109t-45 195.5v621h-162v-952h-279v952h-193v244h1123v-244h-210v-651q1 -56 27 -79.5t106 -23.5q25 0 47.5 1t50.5 1v-198q-21 -6 -45.5 -8t-52.5 -2z" />
    <glyph glyph-name="uni1E08" unicode="&#x1e08;" horiz-adv-x="976" 
d="M495 -19q-218 0 -312.5 88.5t-99.5 293.5q-2 107 -3 216.5t-1 220.5t1 221.5t3 218.5q3 188 101.5 283.5t310.5 95.5q208 0 304.5 -91t102.5 -289q1 -35 1 -75.5t-1 -81t-2 -75.5h-277q1 39 2 84.5t1 91.5t-1 85q-1 65 -32.5 95t-97.5 30q-68 0 -100.5 -30t-34.5 -95
q-3 -115 -4.5 -232.5t-1.5 -235.5t1.5 -235t4.5 -232q2 -66 34.5 -96t100.5 -30q70 0 103 30t35 96q2 42 2.5 85.5t-0.5 88t-2 90.5h277q2 -55 2 -118.5t-2 -115.5q-6 -205 -102 -293.5t-313 -88.5zM265 -309v132h62q61 0 86 24.5t16 80.5l-13 90h143l14 -90
q17 -125 -42.5 -181t-203.5 -56h-62zM405 1680l188 271h191l-198 -271h-181z" />
    <glyph glyph-name="uni1E09" unicode="&#x1e09;" horiz-adv-x="916" 
d="M577 745q1 22 1.5 55t0 65.5t-1.5 51.5q-2 49 -25.5 71.5t-83.5 22.5q-61 0 -85.5 -21.5t-26.5 -72.5q-3 -85 -4 -163.5t-1 -154t1 -151.5t4 -157q2 -55 28 -78.5t87 -23.5q59 0 81.5 24.5t24.5 78.5q2 30 2 70.5t-2 96.5h273q2 -16 3 -60t-1 -78q-8 -181 -97 -260.5
t-284 -79.5q-205 0 -295 80t-100 260q-3 47 -4 122.5t-1 159.5t1.5 157t3.5 115q13 185 104 264.5t288 79.5q198 0 287 -77.5t97 -255.5q2 -34 1 -80.5t-3 -60.5h-273zM231 -309v132h62q61 0 86 24.5t16 80.5l-13 90h143l14 -90q17 -125 -42.5 -181t-203.5 -56h-62z
M385 1280l188 271h191l-198 -271h-181z" />
    <glyph glyph-name="uni1E0C" unicode="&#x1e0c;" horiz-adv-x="984" 
d="M95 0v1600h397q214 0 309.5 -90.5t99.5 -297.5q3 -147 4 -279.5t0 -264t-4 -278.5q-4 -208 -99 -299t-309 -91h-398zM372 244h121q64 0 97 29t34 85q3 113 4.5 223.5t1.5 220t-1.5 220t-4.5 222.5q-1 55 -34 83.5t-98 28.5h-120v-1112zM364 -267v187h187v-187h-187z" />
    <glyph glyph-name="uni1E0D" unicode="&#x1e0d;" horiz-adv-x="990" 
d="M342 -19q-125 0 -191.5 75.5t-74.5 248.5q-3 55 -4 133.5t-1 163.5t1.5 162.5t3.5 130.5q8 175 77 249.5t193 74.5q95 0 142.5 -37.5t89.5 -108.5h39v527h281v-1600h-281v127h-41q-41 -70 -90.5 -108t-143.5 -38zM457 183q45 0 93 24.5t67 66.5v652q-19 42 -67 66.5
t-93 24.5q-50 0 -74 -23.5t-27 -70.5q-5 -100 -7 -214t0 -225t7 -202q3 -51 26 -75t75 -24zM406 -267v187h187v-187h-187z" />
    <glyph glyph-name="uni1E0E" unicode="&#x1e0e;" horiz-adv-x="984" 
d="M95 0v1600h397q214 0 309.5 -90.5t99.5 -297.5q3 -147 4 -279.5t0 -264t-4 -278.5q-4 -208 -99 -299t-309 -91h-398zM372 244h121q64 0 97 29t34 85q3 113 4.5 223.5t1.5 220t-1.5 220t-4.5 222.5q-1 55 -34 83.5t-98 28.5h-120v-1112zM120 -92h662v-126h-662v126z" />
    <glyph glyph-name="uni1E0F" unicode="&#x1e0f;" horiz-adv-x="990" 
d="M342 -19q-125 0 -191.5 75.5t-74.5 248.5q-3 55 -4 133.5t-1 163.5t1.5 162.5t3.5 130.5q8 175 77 249.5t193 74.5q95 0 142.5 -37.5t89.5 -108.5h39v527h281v-1600h-281v127h-41q-41 -70 -90.5 -108t-143.5 -38zM457 183q45 0 93 24.5t67 66.5v652q-19 42 -67 66.5
t-93 24.5q-50 0 -74 -23.5t-27 -70.5q-5 -100 -7 -214t0 -225t7 -202q3 -51 26 -75t75 -24zM163 -92h662v-126h-662v126z" />
    <glyph glyph-name="uni1E14" unicode="&#x1e14;" horiz-adv-x="829" 
d="M95 0v1600h683v-244h-406v-421h386v-244h-386v-447h406v-244h-683zM97 1805h662v-126h-662v126zM310 1895l-179 271h190l170 -271h-181z" />
    <glyph glyph-name="uni1E15" unicode="&#x1e15;" horiz-adv-x="915" 
d="M472 -19q-205 0 -295 80t-101 260q-3 47 -4 122.5t-1 159.5t1.5 157t3.5 115q13 185 104 264.5t288 79.5q198 0 287 -77.5t97 -255.5q1 -24 1.5 -80t0 -124.5t-3.5 -128.5h-499q0 -64 1.5 -129t3.5 -133q2 -55 28.5 -78.5t86.5 -23.5q57 0 80 23.5t26 79.5q2 28 2.5 69.5
t-2.5 97.5h273q2 -16 3 -60t-1 -78q-9 -181 -97 -260.5t-283 -79.5zM352 745h227v74.5t-0.5 61.5t-1.5 36q-3 51 -27.5 72.5t-81.5 21.5q-61 0 -85.5 -22t-26.5 -72q-1 -44 -2 -87t-2 -85zM132 1405h662v-126h-662v126zM345 1496l-179 271h190l170 -271h-181z" />
    <glyph glyph-name="uni1E16" unicode="&#x1e16;" horiz-adv-x="829" 
d="M95 0v1600h683v-244h-406v-421h386v-244h-386v-447h406v-244h-683zM97 1805h662v-126h-662v126zM347 1895l188 271h191l-198 -271h-181z" />
    <glyph glyph-name="uni1E17" unicode="&#x1e17;" horiz-adv-x="915" 
d="M472 -19q-205 0 -295 80t-101 260q-3 47 -4 122.5t-1 159.5t1.5 157t3.5 115q13 185 104 264.5t288 79.5q198 0 287 -77.5t97 -255.5q1 -24 1.5 -80t0 -124.5t-3.5 -128.5h-499q0 -64 1.5 -129t3.5 -133q2 -55 28.5 -78.5t86.5 -23.5q57 0 80 23.5t26 79.5q2 28 2.5 69.5
t-2.5 97.5h273q2 -16 3 -60t-1 -78q-9 -181 -97 -260.5t-283 -79.5zM352 745h227v74.5t-0.5 61.5t-1.5 36q-3 51 -27.5 72.5t-81.5 21.5q-61 0 -85.5 -22t-26.5 -72q-1 -44 -2 -87t-2 -85zM132 1405h662v-126h-662v126zM382 1496l188 271h191l-198 -271h-181z" />
    <glyph glyph-name="uni1E1C" unicode="&#x1e1c;" horiz-adv-x="829" 
d="M95 0v1600h683v-244h-406v-421h386v-244h-386v-447h406v-244h-683zM223 -309v132h62q61 0 86 24.5t16 80.5l-13 90h143l14 -90q17 -125 -42.5 -181t-203.5 -56h-62zM430 1670q-153 0 -223.5 66.5t-78.5 219.5h169q0 -77 31 -111t102 -34q70 0 101 34t31 111h169
q-9 -153 -79.5 -219.5t-221.5 -66.5z" />
    <glyph glyph-name="uni1E1D" unicode="&#x1e1d;" horiz-adv-x="915" 
d="M472 -19q-205 0 -295 80t-101 260q-3 47 -4 122.5t-1 159.5t1.5 157t3.5 115q13 185 104 264.5t288 79.5q198 0 287 -77.5t97 -255.5q1 -24 1.5 -80t0 -124.5t-3.5 -128.5h-499q0 -64 1.5 -129t3.5 -133q2 -55 28.5 -78.5t86.5 -23.5q57 0 80 23.5t26 79.5q2 28 2.5 69.5
t-2.5 97.5h273q2 -16 3 -60t-1 -78q-9 -181 -97 -260.5t-283 -79.5zM352 745h227v74.5t-0.5 61.5t-1.5 36q-3 51 -27.5 72.5t-81.5 21.5q-61 0 -85.5 -22t-26.5 -72q-1 -44 -2 -87t-2 -85zM242 -309v132h62q61 0 86 24.5t16 80.5l-13 90h143l14 -90q17 -125 -42.5 -181
t-203.5 -56h-62zM464 1270q-153 0 -223.5 66.5t-78.5 219.5h169q0 -77 31 -111t102 -34q70 0 101 34t31 111h169q-9 -153 -79.5 -219.5t-221.5 -66.5z" />
    <glyph glyph-name="uni1E20" unicode="&#x1e20;" horiz-adv-x="983" 
d="M498 -19q-145 0 -234 38.5t-131.5 122.5t-47.5 221q-3 92 -4.5 203.5t-1.5 229t1.5 227.5t4.5 199q6 143 49 230.5t131.5 127t231.5 39.5q207 0 301 -88t106 -292q3 -51 3 -115.5t-3 -116.5h-277q3 65 3 136t-3 136q-3 60 -34 87t-96 27q-68 0 -99.5 -27t-35.5 -87
q-5 -112 -8 -233t-3 -245t3 -245t8 -233q4 -61 35.5 -88.5t100.5 -27.5t103.5 27.5t39.5 88.5q1 27 1.5 64t0 74t-1.5 64h-116v241h385q5 -93 4 -200.5t-5 -202.5q-10 -205 -105 -293.5t-306 -88.5zM158 1805h662v-126h-662v126z" />
    <glyph glyph-name="uni1E21" unicode="&#x1e21;" horiz-adv-x="997" 
d="M451 -393q-166 0 -258 47t-112 135q-3 13 -4.5 33t0.5 37q7 50 40.5 85.5t92.5 42.5v39q-54 10 -86 39t-39 76q-2 18 -2 31.5t2 29.5q5 44 45.5 70.5t102.5 35.5v40q-83 36 -123.5 111t-48.5 194q-1 34 -2 63t-1 55.5t1 52t2 51.5q8 121 50 197t127 111.5t223 35.5
q131 0 212.5 -32t124.5 -103h40q8 61 45 88.5t112 27.5v-210h-32q-50 0 -78 -22.5t-28 -83.5v-59v-38.5t0.5 -40.5t0 -44t-2.5 -49q-8 -124 -49.5 -200t-125.5 -110.5t-220 -34.5q-94 0 -133 -13.5t-39 -44.5v-7q0 -20 10.5 -32.5t45.5 -17.5t109 -6q206 -4 304 -65
t119 -179q3 -18 3.5 -41t-3.5 -50q-12 -86 -61 -140.5t-139 -79.5t-225 -25zM464 -203q55 0 94.5 8.5t63.5 25.5t32 42q6 16 5 30t-6 29q-9 24 -32.5 40t-62.5 23.5t-93 7.5q-77 1 -119.5 -16.5t-53.5 -54.5q-4 -16 -4 -31t4 -29q7 -25 28.5 -42t57.5 -25t86 -8zM459 515
q62 0 91.5 26.5t32.5 72.5q2 29 3.5 66.5t1.5 78.5t-1.5 80.5t-3.5 71.5q-3 49 -32 74.5t-92 25.5t-93.5 -25.5t-33.5 -78.5q-1 -40 -2.5 -79t-1.5 -75.5t1 -69.5t3 -62q4 -48 32.5 -77t94.5 -29zM129 1405h662v-126h-662v126z" />
    <glyph glyph-name="uni1E24" unicode="&#x1e24;" horiz-adv-x="984" 
d="M95 0v1600h277v-665h240v665h277v-1600h-277v691h-240v-691h-277zM399 -267v187h187v-187h-187z" />
    <glyph glyph-name="uni1E25" unicode="&#x1e25;" horiz-adv-x="1006" 
d="M92 0v1600h281v-527h48q42 71 90 108.5t142 37.5q126 0 194 -75t69 -249l2 -895h-281l-2 919q0 50 -24.5 74t-76.5 24q-47 0 -94.5 -24.5t-66.5 -66.5v-926h-281zM403 -267v187h187v-187h-187z" />
    <glyph glyph-name="uni1E2A" unicode="&#x1e2a;" horiz-adv-x="984" 
d="M95 0v1600h277v-665h240v665h277v-1600h-277v691h-240v-691h-277zM493 -366q-153 0 -223.5 66.5t-78.5 219.5h169q0 -77 31 -111t102 -34q70 0 101 34t31 111h169q-9 -153 -79.5 -219.5t-221.5 -66.5z" />
    <glyph glyph-name="uni1E2B" unicode="&#x1e2b;" horiz-adv-x="1006" 
d="M92 0v1600h281v-527h48q42 71 90 108.5t142 37.5q126 0 194 -75t69 -249l2 -895h-281l-2 919q0 50 -24.5 74t-76.5 24q-47 0 -94.5 -24.5t-66.5 -66.5v-926h-281zM497 -366q-153 0 -223.5 66.5t-78.5 219.5h169q0 -77 31 -111t102 -34q70 0 101 34t31 111h169
q-9 -153 -79.5 -219.5t-221.5 -66.5z" />
    <glyph glyph-name="uni1E2E" unicode="&#x1e2e;" horiz-adv-x="467" 
d="M95 0v1600h277v-1600h-277zM286 1710v187h187v-187h-187zM-6 1710v187h186v-187h-186zM152 1949l188 271h191l-198 -271h-181z" />
    <glyph glyph-name="uni1E2F" unicode="&#x1e2f;" horiz-adv-x="461" 
d="M92 0v1200h277v-1200h-277zM284 1310v187h187v-187h-187zM-8 1310v187h186v-187h-186zM149 1549l188 271h191l-198 -271h-181z" />
    <glyph glyph-name="uni1E36" unicode="&#x1e36;" horiz-adv-x="785" 
d="M95 0v1600h277v-1356h387v-244h-664zM333 -267v187h187v-187h-187z" />
    <glyph glyph-name="uni1E37" unicode="&#x1e37;" horiz-adv-x="461" 
d="M92 0v1600h277v-1600h-277zM136 -267v187h187v-187h-187z" />
    <glyph glyph-name="uni1E3A" unicode="&#x1e3a;" horiz-adv-x="785" 
d="M95 0v1600h277v-1356h387v-244h-664zM90 -92h662v-126h-662v126z" />
    <glyph glyph-name="uni1E3B" unicode="&#x1e3b;" horiz-adv-x="461" 
d="M92 0v1600h277v-1600h-277zM-107 -92h662v-126h-662v126z" />
    <glyph glyph-name="uni1E42" unicode="&#x1e42;" horiz-adv-x="1544" 
d="M95 0v1600h484l127 -613l32 -742h71l29 742l129 613h482v-1600h-282v491l53 865h-76l-87 -886l-122 -469h-331l-114 469l-89 886h-74l51 -865v-491h-283zM679 -267v187h187v-187h-187z" />
    <glyph glyph-name="uni1E43" unicode="&#x1e43;" horiz-adv-x="1519" 
d="M92 0v1200h278v-127h50q41 71 86.5 108.5t139.5 37.5q89 0 149.5 -38.5t88.5 -125.5h44q41 70 95.5 117t148.5 47q123 0 191 -75t68 -249v-895h-278v919q0 51 -26.5 74.5t-74.5 23.5q-40 0 -81.5 -27.5t-64.5 -66.5v-923h-279v919q0 50 -25 74t-75 24q-44 0 -90.5 -24.5
t-66.5 -66.5v-926h-278zM670 -267v187h187v-187h-187z" />
    <glyph glyph-name="uni1E44" unicode="&#x1e44;" horiz-adv-x="1136" 
d="M95 0v1600h441l115 -509l114 -847h74l-51 688l-21 668h274v-1600h-462l-116 531l-87 827h-78l47 -746l23 -612h-273zM474 1680v187h186v-187h-186z" />
    <glyph glyph-name="uni1E45" unicode="&#x1e45;" horiz-adv-x="1006" 
d="M92 0v1200h277v-127h52q42 70 90.5 108t141.5 38q126 0 195 -75t70 -249v-895h-277v919q-1 50 -28 74t-79 24q-45 0 -95 -24.5t-70 -66.5v-926h-277zM412 1280v187h186v-187h-186z" />
    <glyph glyph-name="uni1E46" unicode="&#x1e46;" horiz-adv-x="1136" 
d="M95 0v1600h441l115 -509l114 -847h74l-51 688l-21 668h274v-1600h-462l-116 531l-87 827h-78l47 -746l23 -612h-273zM472 -267v187h187v-187h-187z" />
    <glyph glyph-name="uni1E47" unicode="&#x1e47;" horiz-adv-x="1006" 
d="M92 0v1200h277v-127h52q42 70 90.5 108t141.5 38q126 0 195 -75t70 -249v-895h-277v919q-1 50 -28 74t-79 24q-45 0 -95 -24.5t-70 -66.5v-926h-277zM412 -267v187h187v-187h-187z" />
    <glyph glyph-name="uni1E48" unicode="&#x1e48;" horiz-adv-x="1136" 
d="M95 0v1600h441l115 -509l114 -847h74l-51 688l-21 668h274v-1600h-462l-116 531l-87 827h-78l47 -746l23 -612h-273zM229 -92h662v-126h-662v126z" />
    <glyph glyph-name="uni1E49" unicode="&#x1e49;" horiz-adv-x="1006" 
d="M92 0v1200h277v-127h52q42 70 90.5 108t141.5 38q126 0 195 -75t70 -249v-895h-277v919q-1 50 -28 74t-79 24q-45 0 -95 -24.5t-70 -66.5v-926h-277zM168 -92h662v-126h-662v126z" />
    <glyph glyph-name="uni1E4C" unicode="&#x1e4c;" horiz-adv-x="993" 
d="M495 -19q-215 0 -311 88.5t-100 294.5q-3 113 -4 221.5t-1 216t1 216t4 220.5q4 205 100 293t311 88t309.5 -88t101.5 -293q4 -113 6 -222t2 -216.5t-2 -215.5t-6 -220q-7 -206 -101.5 -294.5t-309.5 -88.5zM495 207q70 0 101.5 30.5t32.5 96.5q5 114 7 231t2 236
t-2.5 236.5t-6.5 230.5q-1 65 -33 95t-101 30q-67 0 -99.5 -30t-34.5 -95q-5 -113 -7.5 -230.5t-2.5 -236t2.5 -236t7.5 -231.5q2 -66 34.5 -96.5t99.5 -30.5zM650 1890h108q-6 -110 -45.5 -160t-112.5 -50q-45 0 -71.5 14t-44.5 32.5t-36 33t-47 14.5q-30 0 -40.5 -21
t-15.5 -60h-108q9 117 48.5 169t115.5 52q45 0 71.5 -13.5t44 -32t36 -32.5t46.5 -14t39 17.5t12 50.5zM415 1997l188 271h191l-198 -271h-181z" />
    <glyph glyph-name="uni1E4D" unicode="&#x1e4d;" horiz-adv-x="954" 
d="M478 -19q-143 0 -228.5 38t-126 122t-48.5 222q-1 42 -2.5 104t-1.5 132t1 133.5t3 105.5q8 139 48.5 222.5t126 121t228.5 37.5q146 0 230.5 -39t124 -122.5t46.5 -219.5q2 -42 3.5 -104.5t1.5 -132t-1.5 -132.5t-3.5 -106q-8 -137 -47 -221t-124 -122.5t-230 -38.5z
M478 189q66 0 94 26.5t29 78.5q3 83 4.5 159.5t1.5 151t-1.5 149.5t-4.5 154q-1 51 -29 77t-94 26q-64 0 -94 -27t-32 -77q-2 -68 -3 -143t-1 -153.5t1.5 -158.5t3.5 -158q3 -52 32 -78.5t93 -26.5zM631 1490h108q-6 -110 -45.5 -160t-112.5 -50q-45 0 -71.5 14t-44.5 32.5
t-36 33t-47 14.5q-30 0 -40.5 -21t-15.5 -60h-108q9 117 48.5 169t115.5 52q45 0 71.5 -13.5t44 -32t36 -32.5t46.5 -14t39 17.5t12 50.5zM396 1597l188 271h191l-198 -271h-181z" />
    <glyph glyph-name="uni1E4E" unicode="&#x1e4e;" horiz-adv-x="993" 
d="M495 -19q-215 0 -311 88.5t-100 294.5q-3 113 -4 221.5t-1 216t1 216t4 220.5q4 205 100 293t311 88t309.5 -88t101.5 -293q4 -113 6 -222t2 -216.5t-2 -215.5t-6 -220q-7 -206 -101.5 -294.5t-309.5 -88.5zM495 207q70 0 101.5 30.5t32.5 96.5q5 114 7 231t2 236
t-2.5 236.5t-6.5 230.5q-1 65 -33 95t-101 30q-67 0 -99.5 -30t-34.5 -95q-5 -113 -7.5 -230.5t-2.5 -236t2.5 -236t7.5 -231.5q2 -66 34.5 -96.5t99.5 -30.5zM650 1890h108q-6 -110 -45.5 -160t-112.5 -50q-45 0 -71.5 14t-44.5 32.5t-36 33t-47 14.5q-30 0 -40.5 -21
t-15.5 -60h-108q9 117 48.5 169t115.5 52q45 0 71.5 -13.5t44 -32t36 -32.5t46.5 -14t39 17.5t12 50.5zM550 2027v187h187v-187h-187zM258 2027v187h186v-187h-186z" />
    <glyph glyph-name="uni1E4F" unicode="&#x1e4f;" horiz-adv-x="954" 
d="M478 -19q-143 0 -228.5 38t-126 122t-48.5 222q-1 42 -2.5 104t-1.5 132t1 133.5t3 105.5q8 139 48.5 222.5t126 121t228.5 37.5q146 0 230.5 -39t124 -122.5t46.5 -219.5q2 -42 3.5 -104.5t1.5 -132t-1.5 -132.5t-3.5 -106q-8 -137 -47 -221t-124 -122.5t-230 -38.5z
M478 189q66 0 94 26.5t29 78.5q3 83 4.5 159.5t1.5 151t-1.5 149.5t-4.5 154q-1 51 -29 77t-94 26q-64 0 -94 -27t-32 -77q-2 -68 -3 -143t-1 -153.5t1.5 -158.5t3.5 -158q3 -52 32 -78.5t93 -26.5zM631 1490h108q-6 -110 -45.5 -160t-112.5 -50q-45 0 -71.5 14t-44.5 32.5
t-36 33t-47 14.5q-30 0 -40.5 -21t-15.5 -60h-108q9 117 48.5 169t115.5 52q45 0 71.5 -13.5t44 -32t36 -32.5t46.5 -14t39 17.5t12 50.5zM531 1627v187h187v-187h-187zM239 1627v187h186v-187h-186z" />
    <glyph glyph-name="uni1E50" unicode="&#x1e50;" horiz-adv-x="993" 
d="M495 -19q-215 0 -311 88.5t-100 294.5q-3 113 -4 221.5t-1 216t1 216t4 220.5q4 205 100 293t311 88t309.5 -88t101.5 -293q4 -113 6 -222t2 -216.5t-2 -215.5t-6 -220q-7 -206 -101.5 -294.5t-309.5 -88.5zM495 207q70 0 101.5 30.5t32.5 96.5q5 114 7 231t2 236
t-2.5 236.5t-6.5 230.5q-1 65 -33 95t-101 30q-67 0 -99.5 -30t-34.5 -95q-5 -113 -7.5 -230.5t-2.5 -236t2.5 -236t7.5 -231.5q2 -66 34.5 -96.5t99.5 -30.5zM165 1805h662v-126h-662v126zM378 1896l-179 271h190l170 -271h-181z" />
    <glyph glyph-name="uni1E51" unicode="&#x1e51;" horiz-adv-x="954" 
d="M478 -19q-143 0 -228.5 38t-126 122t-48.5 222q-1 42 -2.5 104t-1.5 132t1 133.5t3 105.5q8 139 48.5 222.5t126 121t228.5 37.5q146 0 230.5 -39t124 -122.5t46.5 -219.5q2 -42 3.5 -104.5t1.5 -132t-1.5 -132.5t-3.5 -106q-8 -137 -47 -221t-124 -122.5t-230 -38.5z
M478 189q66 0 94 26.5t29 78.5q3 83 4.5 159.5t1.5 151t-1.5 149.5t-4.5 154q-1 51 -29 77t-94 26q-64 0 -94 -27t-32 -77q-2 -68 -3 -143t-1 -153.5t1.5 -158.5t3.5 -158q3 -52 32 -78.5t93 -26.5zM146 1405h662v-126h-662v126zM359 1496l-179 271h190l170 -271h-181z" />
    <glyph glyph-name="uni1E52" unicode="&#x1e52;" horiz-adv-x="993" 
d="M495 -19q-215 0 -311 88.5t-100 294.5q-3 113 -4 221.5t-1 216t1 216t4 220.5q4 205 100 293t311 88t309.5 -88t101.5 -293q4 -113 6 -222t2 -216.5t-2 -215.5t-6 -220q-7 -206 -101.5 -294.5t-309.5 -88.5zM495 207q70 0 101.5 30.5t32.5 96.5q5 114 7 231t2 236
t-2.5 236.5t-6.5 230.5q-1 65 -33 95t-101 30q-67 0 -99.5 -30t-34.5 -95q-5 -113 -7.5 -230.5t-2.5 -236t2.5 -236t7.5 -231.5q2 -66 34.5 -96.5t99.5 -30.5zM165 1805h662v-126h-662v126zM415 1896l188 271h191l-198 -271h-181z" />
    <glyph glyph-name="uni1E53" unicode="&#x1e53;" horiz-adv-x="954" 
d="M478 -19q-143 0 -228.5 38t-126 122t-48.5 222q-1 42 -2.5 104t-1.5 132t1 133.5t3 105.5q8 139 48.5 222.5t126 121t228.5 37.5q146 0 230.5 -39t124 -122.5t46.5 -219.5q2 -42 3.5 -104.5t1.5 -132t-1.5 -132.5t-3.5 -106q-8 -137 -47 -221t-124 -122.5t-230 -38.5z
M478 189q66 0 94 26.5t29 78.5q3 83 4.5 159.5t1.5 151t-1.5 149.5t-4.5 154q-1 51 -29 77t-94 26q-64 0 -94 -27t-32 -77q-2 -68 -3 -143t-1 -153.5t1.5 -158.5t3.5 -158q3 -52 32 -78.5t93 -26.5zM146 1405h662v-126h-662v126zM396 1496l188 271h191l-198 -271h-181z" />
    <glyph glyph-name="uni1E5A" unicode="&#x1e5a;" horiz-adv-x="955" 
d="M95 0v1600h380q211 0 305.5 -86t101.5 -284q2 -62 2.5 -109.5t0 -94t-2.5 -105.5q-4 -125 -42.5 -204t-118.5 -120l184 -597h-294l-151 551h-88v-551h-277zM372 795h102q64 0 96 29t35 83t4 111t0 114.5t-4 111.5q-3 55 -35 83.5t-95 28.5h-103v-561zM400 -267v187h187
v-187h-187z" />
    <glyph glyph-name="uni1E5B" unicode="&#x1e5b;" horiz-adv-x="700" 
d="M92 0v1200h282v-145h49q12 86 57 119t117 33q25 0 49.5 -1.5t38.5 -3.5v-211h-84q-106 0 -159.5 -31.5t-67.5 -99.5v-860h-282zM139 -267v187h187v-187h-187z" />
    <glyph glyph-name="uni1E5E" unicode="&#x1e5e;" horiz-adv-x="955" 
d="M95 0v1600h380q211 0 305.5 -86t101.5 -284q2 -62 2.5 -109.5t0 -94t-2.5 -105.5q-4 -125 -42.5 -204t-118.5 -120l184 -597h-294l-151 551h-88v-551h-277zM372 795h102q64 0 96 29t35 83t4 111t0 114.5t-4 111.5q-3 55 -35 83.5t-95 28.5h-103v-561zM157 -92h662v-126
h-662v126z" />
    <glyph glyph-name="uni1E5F" unicode="&#x1e5f;" horiz-adv-x="700" 
d="M92 0v1200h282v-145h49q12 86 57 119t117 33q25 0 49.5 -1.5t38.5 -3.5v-211h-84q-106 0 -159.5 -31.5t-67.5 -99.5v-860h-282zM-105 -92h662v-126h-662v126z" />
    <glyph glyph-name="uni1E60" unicode="&#x1e60;" horiz-adv-x="952" 
d="M477 -19q-212 0 -305 88.5t-102 293.5q-1 36 -1 76.5t2 81t7 76.5h260q-4 -76 -4.5 -149t4.5 -135q5 -52 39.5 -79t99.5 -27q63 0 95 27t38 79q4 36 5.5 71.5t0 71.5t-5.5 72q-4 48 -31 84t-78 48l-165 39q-101 25 -159.5 74t-84.5 122.5t-29 173.5q-1 47 -1 87.5t1 82.5
q6 136 48.5 219.5t131.5 122t234 38.5q209 0 302.5 -88t101.5 -292q2 -46 0.5 -110t-4.5 -122h-266q3 72 4 142t-2 140q-1 51 -36.5 77.5t-99.5 26.5t-97.5 -26.5t-39.5 -77.5q-5 -55 -5 -110t5 -110q5 -47 27.5 -82t74.5 -46l146 -33q109 -24 173.5 -74.5t94 -127
t33.5 -178.5q1 -27 1 -55t-1 -55.5t-2 -54.5q-8 -205 -102 -293.5t-308 -88.5zM381 1680v187h186v-187h-186z" />
    <glyph glyph-name="uni1E61" unicode="&#x1e61;" horiz-adv-x="872" 
d="M430 -19q-191 0 -273 79.5t-90 260.5q-1 37 -0.5 74.5t2.5 52.5h245q-2 -56 -1.5 -93.5t1.5 -63.5q3 -56 32 -79t84 -23q67 0 97.5 23.5t30.5 79.5v32.5v12.5v30q0 37 -16 61t-57 34l-140 38q-91 25 -155 63.5t-97 98t-33 147.5q-1 18 -0.5 33.5t0.5 30.5q0 186 86 266
t297 80q192 0 273 -77.5t89 -255.5q2 -26 1 -70.5t-3 -60.5h-255q2 22 2 53.5v62t-1 46.5q-3 51 -25.5 72.5t-80.5 21.5q-60 0 -84 -21.5t-26 -72.5q-1 -13 -1.5 -28.5t-0.5 -55.5q0 -45 16 -72.5t65 -39.5l124 -30q140 -32 210.5 -102.5t70.5 -206.5q0 -17 -0.5 -34
t-0.5 -34q0 -178 -89 -255.5t-297 -77.5zM340 1280v187h186v-187h-186z" />
    <glyph glyph-name="uni1E62" unicode="&#x1e62;" horiz-adv-x="952" 
d="M477 -19q-212 0 -305 88.5t-102 293.5q-1 36 -1 76.5t2 81t7 76.5h260q-4 -76 -4.5 -149t4.5 -135q5 -52 39.5 -79t99.5 -27q63 0 95 27t38 79q4 36 5.5 71.5t0 71.5t-5.5 72q-4 48 -31 84t-78 48l-165 39q-101 25 -159.5 74t-84.5 122.5t-29 173.5q-1 47 -1 87.5t1 82.5
q6 136 48.5 219.5t131.5 122t234 38.5q209 0 302.5 -88t101.5 -292q2 -46 0.5 -110t-4.5 -122h-266q3 72 4 142t-2 140q-1 51 -36.5 77.5t-99.5 26.5t-97.5 -26.5t-39.5 -77.5q-5 -55 -5 -110t5 -110q5 -47 27.5 -82t74.5 -46l146 -33q109 -24 173.5 -74.5t94 -127
t33.5 -178.5q1 -27 1 -55t-1 -55.5t-2 -54.5q-8 -205 -102 -293.5t-308 -88.5zM381 -267v187h187v-187h-187z" />
    <glyph glyph-name="uni1E63" unicode="&#x1e63;" horiz-adv-x="872" 
d="M430 -19q-191 0 -273 79.5t-90 260.5q-1 37 -0.5 74.5t2.5 52.5h245q-2 -56 -1.5 -93.5t1.5 -63.5q3 -56 32 -79t84 -23q67 0 97.5 23.5t30.5 79.5v32.5v12.5v30q0 37 -16 61t-57 34l-140 38q-91 25 -155 63.5t-97 98t-33 147.5q-1 18 -0.5 33.5t0.5 30.5q0 186 86 266
t297 80q192 0 273 -77.5t89 -255.5q2 -26 1 -70.5t-3 -60.5h-255q2 22 2 53.5v62t-1 46.5q-3 51 -25.5 72.5t-80.5 21.5q-60 0 -84 -21.5t-26 -72.5q-1 -13 -1.5 -28.5t-0.5 -55.5q0 -45 16 -72.5t65 -39.5l124 -30q140 -32 210.5 -102.5t70.5 -206.5q0 -17 -0.5 -34
t-0.5 -34q0 -178 -89 -255.5t-297 -77.5zM340 -267v187h187v-187h-187z" />
    <glyph glyph-name="uni1E64" unicode="&#x1e64;" horiz-adv-x="952" 
d="M477 -19q-212 0 -305 88.5t-102 293.5q-1 36 -1 76.5t2 81t7 76.5h260q-4 -76 -4.5 -149t4.5 -135q5 -52 39.5 -79t99.5 -27q63 0 95 27t38 79q4 36 5.5 71.5t0 71.5t-5.5 72q-4 48 -31 84t-78 48l-165 39q-101 25 -159.5 74t-84.5 122.5t-29 173.5q-1 47 -1 87.5t1 82.5
q6 136 48.5 219.5t131.5 122t234 38.5q209 0 302.5 -88t101.5 -292q2 -46 0.5 -110t-4.5 -122h-266q3 72 4 142t-2 140q-1 51 -36.5 77.5t-99.5 26.5t-97.5 -26.5t-39.5 -77.5q-5 -55 -5 -110t5 -110q5 -47 27.5 -82t74.5 -46l146 -33q109 -24 173.5 -74.5t94 -127
t33.5 -178.5q1 -27 1 -55t-1 -55.5t-2 -54.5q-8 -205 -102 -293.5t-308 -88.5zM393 1680l188 271h191l-198 -271h-181zM381 2033v187h186v-187h-186z" />
    <glyph glyph-name="uni1E65" unicode="&#x1e65;" horiz-adv-x="872" 
d="M430 -19q-191 0 -273 79.5t-90 260.5q-1 37 -0.5 74.5t2.5 52.5h245q-2 -56 -1.5 -93.5t1.5 -63.5q3 -56 32 -79t84 -23q67 0 97.5 23.5t30.5 79.5v32.5v12.5v30q0 37 -16 61t-57 34l-140 38q-91 25 -155 63.5t-97 98t-33 147.5q-1 18 -0.5 33.5t0.5 30.5q0 186 86 266
t297 80q192 0 273 -77.5t89 -255.5q2 -26 1 -70.5t-3 -60.5h-255q2 22 2 53.5v62t-1 46.5q-3 51 -25.5 72.5t-80.5 21.5q-60 0 -84 -21.5t-26 -72.5q-1 -13 -1.5 -28.5t-0.5 -55.5q0 -45 16 -72.5t65 -39.5l124 -30q140 -32 210.5 -102.5t70.5 -206.5q0 -17 -0.5 -34
t-0.5 -34q0 -178 -89 -255.5t-297 -77.5zM352 1280l188 271h191l-198 -271h-181zM340 1633v187h186v-187h-186z" />
    <glyph glyph-name="uni1E66" unicode="&#x1e66;" horiz-adv-x="952" 
d="M477 -19q-212 0 -305 88.5t-102 293.5q-1 36 -1 76.5t2 81t7 76.5h260q-4 -76 -4.5 -149t4.5 -135q5 -52 39.5 -79t99.5 -27q63 0 95 27t38 79q4 36 5.5 71.5t0 71.5t-5.5 72q-4 48 -31 84t-78 48l-165 39q-101 25 -159.5 74t-84.5 122.5t-29 173.5q-1 47 -1 87.5t1 82.5
q6 136 48.5 219.5t131.5 122t234 38.5q209 0 302.5 -88t101.5 -292q2 -46 0.5 -110t-4.5 -122h-266q3 72 4 142t-2 140q-1 51 -36.5 77.5t-99.5 26.5t-97.5 -26.5t-39.5 -77.5q-5 -55 -5 -110t5 -110q5 -47 27.5 -82t74.5 -46l146 -33q109 -24 173.5 -74.5t94 -127
t33.5 -178.5q1 -27 1 -55t-1 -55.5t-2 -54.5q-8 -205 -102 -293.5t-308 -88.5zM401 1681l-169 271h164l78 -139l78 139h164l-169 -271h-146zM381 2033v187h186v-187h-186z" />
    <glyph glyph-name="uni1E67" unicode="&#x1e67;" horiz-adv-x="872" 
d="M430 -19q-191 0 -273 79.5t-90 260.5q-1 37 -0.5 74.5t2.5 52.5h245q-2 -56 -1.5 -93.5t1.5 -63.5q3 -56 32 -79t84 -23q67 0 97.5 23.5t30.5 79.5v32.5v12.5v30q0 37 -16 61t-57 34l-140 38q-91 25 -155 63.5t-97 98t-33 147.5q-1 18 -0.5 33.5t0.5 30.5q0 186 86 266
t297 80q192 0 273 -77.5t89 -255.5q2 -26 1 -70.5t-3 -60.5h-255q2 22 2 53.5v62t-1 46.5q-3 51 -25.5 72.5t-80.5 21.5q-60 0 -84 -21.5t-26 -72.5q-1 -13 -1.5 -28.5t-0.5 -55.5q0 -45 16 -72.5t65 -39.5l124 -30q140 -32 210.5 -102.5t70.5 -206.5q0 -17 -0.5 -34
t-0.5 -34q0 -178 -89 -255.5t-297 -77.5zM360 1281l-169 271h164l78 -139l78 139h164l-169 -271h-146zM340 1633v187h186v-187h-186z" />
    <glyph glyph-name="uni1E68" unicode="&#x1e68;" horiz-adv-x="952" 
d="M477 -19q-212 0 -305 88.5t-102 293.5q-1 36 -1 76.5t2 81t7 76.5h260q-4 -76 -4.5 -149t4.5 -135q5 -52 39.5 -79t99.5 -27q63 0 95 27t38 79q4 36 5.5 71.5t0 71.5t-5.5 72q-4 48 -31 84t-78 48l-165 39q-101 25 -159.5 74t-84.5 122.5t-29 173.5q-1 47 -1 87.5t1 82.5
q6 136 48.5 219.5t131.5 122t234 38.5q209 0 302.5 -88t101.5 -292q2 -46 0.5 -110t-4.5 -122h-266q3 72 4 142t-2 140q-1 51 -36.5 77.5t-99.5 26.5t-97.5 -26.5t-39.5 -77.5q-5 -55 -5 -110t5 -110q5 -47 27.5 -82t74.5 -46l146 -33q109 -24 173.5 -74.5t94 -127
t33.5 -178.5q1 -27 1 -55t-1 -55.5t-2 -54.5q-8 -205 -102 -293.5t-308 -88.5zM381 -267v187h187v-187h-187zM381 1680v187h186v-187h-186z" />
    <glyph glyph-name="uni1E69" unicode="&#x1e69;" horiz-adv-x="872" 
d="M430 -19q-191 0 -273 79.5t-90 260.5q-1 37 -0.5 74.5t2.5 52.5h245q-2 -56 -1.5 -93.5t1.5 -63.5q3 -56 32 -79t84 -23q67 0 97.5 23.5t30.5 79.5v32.5v12.5v30q0 37 -16 61t-57 34l-140 38q-91 25 -155 63.5t-97 98t-33 147.5q-1 18 -0.5 33.5t0.5 30.5q0 186 86 266
t297 80q192 0 273 -77.5t89 -255.5q2 -26 1 -70.5t-3 -60.5h-255q2 22 2 53.5v62t-1 46.5q-3 51 -25.5 72.5t-80.5 21.5q-60 0 -84 -21.5t-26 -72.5q-1 -13 -1.5 -28.5t-0.5 -55.5q0 -45 16 -72.5t65 -39.5l124 -30q140 -32 210.5 -102.5t70.5 -206.5q0 -17 -0.5 -34
t-0.5 -34q0 -178 -89 -255.5t-297 -77.5zM340 -267v187h187v-187h-187zM340 1280v187h186v-187h-186z" />
    <glyph glyph-name="uni1E6C" unicode="&#x1e6c;" horiz-adv-x="824" 
d="M273 0v1356h-262v244h802v-244h-263v-1356h-277zM318 -267v187h187v-187h-187z" />
    <glyph glyph-name="uni1E6D" unicode="&#x1e6d;" horiz-adv-x="692" 
d="M561 -19q-223 0 -319 79t-97 264l-1 667h-113v209h118v340h280v-340h213v-209h-218l2 -700q0 -60 28.5 -82t107.5 -22q26 0 49.5 1t52.5 1v-198q-23 -5 -48 -7.5t-55 -2.5zM325 -267v187h187v-187h-187z" />
    <glyph glyph-name="uni1E6E" unicode="&#x1e6e;" horiz-adv-x="824" 
d="M273 0v1356h-262v244h802v-244h-263v-1356h-277zM75 -92h662v-126h-662v126z" />
    <glyph glyph-name="uni1E6F" unicode="&#x1e6f;" horiz-adv-x="692" 
d="M561 -19q-223 0 -319 79t-97 264l-1 667h-113v209h118v340h280v-340h213v-209h-218l2 -700q0 -60 28.5 -82t107.5 -22q26 0 49.5 1t52.5 1v-198q-23 -5 -48 -7.5t-55 -2.5zM81 -92h662v-126h-662v126z" />
    <glyph glyph-name="uni1E78" unicode="&#x1e78;" horiz-adv-x="984" 
d="M493 -19q-219 0 -314 88.5t-98 293.5q-4 307 -4 618.5t4 618.5h277q-4 -205 -4.5 -422t1 -434t3.5 -422q0 -55 34.5 -84.5t100.5 -29.5t99 29.5t33 84.5q2 205 3.5 422t1 434t-4.5 422h278q4 -307 4 -618.5t-4 -618.5q-3 -205 -98 -293.5t-312 -88.5zM645 1890h108
q-6 -110 -45.5 -160t-112.5 -50q-45 0 -71.5 14t-44.5 32.5t-36 33t-47 14.5q-30 0 -40.5 -21t-15.5 -60h-108q9 117 48.5 169t115.5 52q45 0 71.5 -13.5t44 -32t36 -32.5t46.5 -14t39 17.5t12 50.5zM410 1997l188 271h191l-198 -271h-181z" />
    <glyph glyph-name="uni1E79" unicode="&#x1e79;" horiz-adv-x="998" 
d="M356 -19q-124 0 -198 75.5t-74 248.5v895h278l3 -919q0 -50 24 -74t75 -24q47 0 95 25t67 66v926h280v-1200h-280v127h-38q-46 -78 -101 -112t-131 -34zM645 1490h108q-6 -110 -45.5 -160t-112.5 -50q-45 0 -71.5 14t-44.5 32.5t-36 33t-47 14.5q-30 0 -40.5 -21
t-15.5 -60h-108q9 117 48.5 169t115.5 52q45 0 71.5 -13.5t44 -32t36 -32.5t46.5 -14t39 17.5t12 50.5zM410 1597l188 271h191l-198 -271h-181z" />
    <glyph glyph-name="uni1E7A" unicode="&#x1e7a;" horiz-adv-x="984" 
d="M493 -19q-219 0 -314 88.5t-98 293.5q-4 307 -4 618.5t4 618.5h277q-4 -205 -4.5 -422t1 -434t3.5 -422q0 -55 34.5 -84.5t100.5 -29.5t99 29.5t33 84.5q2 205 3.5 422t1 434t-4.5 422h278q4 -307 4 -618.5t-4 -618.5q-3 -205 -98 -293.5t-312 -88.5zM160 1805h662v-126
h-662v126zM545 1926v187h187v-187h-187zM253 1926v187h186v-187h-186z" />
    <glyph glyph-name="uni1E7B" unicode="&#x1e7b;" horiz-adv-x="998" 
d="M356 -19q-124 0 -198 75.5t-74 248.5v895h278l3 -919q0 -50 24 -74t75 -24q47 0 95 25t67 66v926h280v-1200h-280v127h-38q-46 -78 -101 -112t-131 -34zM160 1405h662v-126h-662v126zM545 1526v187h187v-187h-187zM253 1526v187h186v-187h-186z" />
    <glyph glyph-name="Wgrave" unicode="&#x1e80;" horiz-adv-x="1605" 
d="M188 0l-146 1600h279l49 -712l32 -644h76l3 644l128 702h386l129 -702l3 -644h75l32 644l50 712h279l-146 -1600h-480l-70 458l-28 897h-74l-28 -897l-70 -458h-479zM652 1680l-179 271h190l170 -271h-181z" />
    <glyph glyph-name="wgrave" unicode="&#x1e81;" horiz-adv-x="1495" 
d="M182 0l-156 1200h281l51 -603l19 -393h76l10 393l56 602h457l54 -602l12 -393h73l19 393l54 603h282l-161 -1200h-470l-37 467l-15 528h-80l-16 -528l-35 -467h-474zM630 1280l-179 271h190l170 -271h-181z" />
    <glyph glyph-name="Wacute" unicode="&#x1e82;" horiz-adv-x="1605" 
d="M188 0l-146 1600h279l49 -712l32 -644h76l3 644l128 702h386l129 -702l3 -644h75l32 644l50 712h279l-146 -1600h-480l-70 458l-28 897h-74l-28 -897l-70 -458h-479zM689 1680l188 271h191l-198 -271h-181z" />
    <glyph glyph-name="wacute" unicode="&#x1e83;" horiz-adv-x="1495" 
d="M182 0l-156 1200h281l51 -603l19 -393h76l10 393l56 602h457l54 -602l12 -393h73l19 393l54 603h282l-161 -1200h-470l-37 467l-15 528h-80l-16 -528l-35 -467h-474zM667 1280l188 271h191l-198 -271h-181z" />
    <glyph glyph-name="Wdieresis" unicode="&#x1e84;" horiz-adv-x="1605" 
d="M188 0l-146 1600h279l49 -712l32 -644h76l3 644l128 702h386l129 -702l3 -644h75l32 644l50 712h279l-146 -1600h-480l-70 458l-28 897h-74l-28 -897l-70 -458h-479zM824 1710v187h187v-187h-187zM532 1710v187h186v-187h-186z" />
    <glyph glyph-name="wdieresis" unicode="&#x1e85;" horiz-adv-x="1495" 
d="M182 0l-156 1200h281l51 -603l19 -393h76l10 393l56 602h457l54 -602l12 -393h73l19 393l54 603h282l-161 -1200h-470l-37 467l-15 528h-80l-16 -528l-35 -467h-474zM802 1310v187h187v-187h-187zM510 1310v187h186v-187h-186z" />
    <glyph glyph-name="uni1E8E" unicode="&#x1e8e;" horiz-adv-x="894" 
d="M308 0v462l-20 1l-270 1137h283l84 -398l34 -468h56l33 468l85 398h282l-270 -1137l-20 -1v-462h-277zM350 1680v187h186v-187h-186z" />
    <glyph glyph-name="uni1E8F" unicode="&#x1e8f;" horiz-adv-x="890" 
d="M222 -420q-34 0 -75 4t-77 10v205q28 -1 75 -2.5t76 -1.5q83 0 115.5 23.5t40.5 80.5l15 101h-146l-216 1200h284l61 -548l48 -448h70l32 448l53 548h284l-205 -1280q-18 -114 -61.5 -189.5t-131.5 -113t-242 -37.5zM351 1280v187h186v-187h-186z" />
    <glyph glyph-name="uni1E92" unicode="&#x1e92;" horiz-adv-x="819" 
d="M32 0v231l457 1125h-433v244h730v-236l-474 -1120h443v-244h-723zM299 -267v187h187v-187h-187z" />
    <glyph glyph-name="uni1E93" unicode="&#x1e93;" horiz-adv-x="793" 
d="M41 0v176l417 820l-409 -1v205h707v-181l-423 -815h418v-204h-710zM304 -267v187h187v-187h-187z" />
    <glyph glyph-name="uni1E97" unicode="&#x1e97;" horiz-adv-x="692" 
d="M561 -19q-223 0 -319 79t-97 264l-1 667h-113v209h118v340h280v-340h213v-209h-218l2 -700q0 -60 28.5 -82t107.5 -22q26 0 49.5 1t52.5 1v-198q-23 -5 -48 -7.5t-55 -2.5zM365 1652v187h187v-187h-187zM73 1652v187h186v-187h-186z" />
    <glyph glyph-name="uni1E9E" unicode="&#x1e9e;" horiz-adv-x="1036" 
d="M82 0v1221q0 204 95.5 291.5t304.5 87.5h445v-209l-206 -481q126 -42 176.5 -131t55.5 -228q2 -27 2 -55t-1 -55.5t-2 -56.5q-9 -206 -99 -295t-301 -89h-105v226h105q61 0 89 27.5t34 80.5q5 55 5 108.5t-5 108.5q-4 48 -26 88t-74 40h-121l-4 217l188 478h-156
q-59 0 -91 -26t-32 -76v-1272h-277z" />
    <glyph glyph-name="uni1EA0" unicode="&#x1ea0;" 
d="M32 0l215 1600h465l214 -1600h-284l-36 353h-254l-35 -353h-285zM378 597h203l-36 352l-27 407h-78l-27 -407zM385 -267v187h187v-187h-187z" />
    <glyph glyph-name="uni1EA1" unicode="&#x1ea1;" horiz-adv-x="945" 
d="M332 -15q-133 0 -197 63.5t-77 216.5q-1 19 -1 45t1 44q7 80 37.5 137.5t95.5 101t173 83.5q55 20 107 35t113 30v165q0 53 -25.5 79t-87.5 26q-53 0 -77.5 -21.5t-27.5 -72.5q-2 -14 -2.5 -50.5t0.5 -72.5t2 -49h-269q-1 16 -2 59.5t0 81.5q5 116 42 189.5t119.5 108.5
t223.5 35q144 0 226.5 -38.5t117 -122t34.5 -216.5l-2 -842h-276v127h-40q-35 -73 -80 -107.5t-128 -34.5zM445 183q45 0 80.5 23.5t55.5 62.5l2 291q-39 -9 -77 -20.5t-73 -27.5q-58 -27 -76.5 -68t-21.5 -90q-1 -23 -1 -36t1 -32q5 -50 32.5 -76.5t77.5 -26.5zM363 -267
v187h187v-187h-187z" />
    <glyph glyph-name="uni1EA2" unicode="&#x1ea2;" 
d="M32 0l215 1600h465l214 -1600h-284l-36 353h-254l-35 -353h-285zM378 597h203l-36 352l-27 407h-78l-27 -407zM487 1664l11 58q12 61 -9 81.5t-93 20.5h-73v131h73q141 0 204.5 -54.5t39.5 -178.5l-11 -58h-142z" />
    <glyph glyph-name="uni1EA3" unicode="&#x1ea3;" horiz-adv-x="945" 
d="M332 -15q-133 0 -197 63.5t-77 216.5q-1 19 -1 45t1 44q7 80 37.5 137.5t95.5 101t173 83.5q55 20 107 35t113 30v165q0 53 -25.5 79t-87.5 26q-53 0 -77.5 -21.5t-27.5 -72.5q-2 -14 -2.5 -50.5t0.5 -72.5t2 -49h-269q-1 16 -2 59.5t0 81.5q5 116 42 189.5t119.5 108.5
t223.5 35q144 0 226.5 -38.5t117 -122t34.5 -216.5l-2 -842h-276v127h-40q-35 -73 -80 -107.5t-128 -34.5zM445 183q45 0 80.5 23.5t55.5 62.5l2 291q-39 -9 -77 -20.5t-73 -27.5q-58 -27 -76.5 -68t-21.5 -90q-1 -23 -1 -36t1 -32q5 -50 32.5 -76.5t77.5 -26.5zM463 1279
l11 58q12 61 -9 81.5t-93 20.5h-73v131h73q141 0 204.5 -54.5t39.5 -178.5l-11 -58h-142z" />
    <glyph glyph-name="uni1EA4" unicode="&#x1ea4;" 
d="M32 0l215 1600h465l214 -1600h-284l-36 353h-254l-35 -353h-285zM378 597h203l-36 352l-27 407h-78l-27 -407zM225 1682l169 271h164l169 -271h-182l-69 122l-69 -122h-182zM693 1910l188 271h191l-198 -271h-181z" />
    <glyph glyph-name="uni1EA5" unicode="&#x1ea5;" horiz-adv-x="945" 
d="M332 -15q-133 0 -197 63.5t-77 216.5q-1 19 -1 45t1 44q7 80 37.5 137.5t95.5 101t173 83.5q55 20 107 35t113 30v165q0 53 -25.5 79t-87.5 26q-53 0 -77.5 -21.5t-27.5 -72.5q-2 -14 -2.5 -50.5t0.5 -72.5t2 -49h-269q-1 16 -2 59.5t0 81.5q5 116 42 189.5t119.5 108.5
t223.5 35q144 0 226.5 -38.5t117 -122t34.5 -216.5l-2 -842h-276v127h-40q-35 -73 -80 -107.5t-128 -34.5zM445 183q45 0 80.5 23.5t55.5 62.5l2 291q-39 -9 -77 -20.5t-73 -27.5q-58 -27 -76.5 -68t-21.5 -90q-1 -23 -1 -36t1 -32q5 -50 32.5 -76.5t77.5 -26.5zM224 1282
l169 271h164l169 -271h-182l-69 122l-69 -122h-182zM692 1510l188 271h191l-198 -271h-181z" />
    <glyph glyph-name="uni1EA6" unicode="&#x1ea6;" 
d="M32 0l215 1600h465l214 -1600h-284l-36 353h-254l-35 -353h-285zM378 597h203l-36 352l-27 407h-78l-27 -407zM225 1682l169 271h164l169 -271h-182l-69 122l-69 -122h-182zM742 1910l-179 271h190l170 -271h-181z" />
    <glyph glyph-name="uni1EA7" unicode="&#x1ea7;" horiz-adv-x="945" 
d="M332 -15q-133 0 -197 63.5t-77 216.5q-1 19 -1 45t1 44q7 80 37.5 137.5t95.5 101t173 83.5q55 20 107 35t113 30v165q0 53 -25.5 79t-87.5 26q-53 0 -77.5 -21.5t-27.5 -72.5q-2 -14 -2.5 -50.5t0.5 -72.5t2 -49h-269q-1 16 -2 59.5t0 81.5q5 116 42 189.5t119.5 108.5
t223.5 35q144 0 226.5 -38.5t117 -122t34.5 -216.5l-2 -842h-276v127h-40q-35 -73 -80 -107.5t-128 -34.5zM445 183q45 0 80.5 23.5t55.5 62.5l2 291q-39 -9 -77 -20.5t-73 -27.5q-58 -27 -76.5 -68t-21.5 -90q-1 -23 -1 -36t1 -32q5 -50 32.5 -76.5t77.5 -26.5zM224 1282
l169 271h164l169 -271h-182l-69 122l-69 -122h-182zM740 1510l-179 271h190l170 -271h-181z" />
    <glyph glyph-name="uni1EA8" unicode="&#x1ea8;" 
d="M32 0l215 1600h465l214 -1600h-284l-36 353h-254l-35 -353h-285zM378 597h203l-36 352l-27 407h-78l-27 -407zM225 1682l169 271h164l169 -271h-182l-69 122l-69 -122h-182zM687 1895l11 58q12 61 -9 81.5t-93 20.5h-73v131h73q141 0 204.5 -54.5t39.5 -178.5l-11 -58
h-142z" />
    <glyph glyph-name="uni1EA9" unicode="&#x1ea9;" horiz-adv-x="945" 
d="M332 -15q-133 0 -197 63.5t-77 216.5q-1 19 -1 45t1 44q7 80 37.5 137.5t95.5 101t173 83.5q55 20 107 35t113 30v165q0 53 -25.5 79t-87.5 26q-53 0 -77.5 -21.5t-27.5 -72.5q-2 -14 -2.5 -50.5t0.5 -72.5t2 -49h-269q-1 16 -2 59.5t0 81.5q5 116 42 189.5t119.5 108.5
t223.5 35q144 0 226.5 -38.5t117 -122t34.5 -216.5l-2 -842h-276v127h-40q-35 -73 -80 -107.5t-128 -34.5zM445 183q45 0 80.5 23.5t55.5 62.5l2 291q-39 -9 -77 -20.5t-73 -27.5q-58 -27 -76.5 -68t-21.5 -90q-1 -23 -1 -36t1 -32q5 -50 32.5 -76.5t77.5 -26.5zM224 1282
l169 271h164l169 -271h-182l-69 122l-69 -122h-182zM685 1495l11 58q12 61 -9 81.5t-93 20.5h-73v131h73q141 0 204.5 -54.5t39.5 -178.5l-11 -58h-142z" />
    <glyph glyph-name="uni1EAA" unicode="&#x1eaa;" 
d="M32 0l215 1600h465l214 -1600h-284l-36 353h-254l-35 -353h-285zM378 597h203l-36 352l-27 407h-78l-27 -407zM225 1682l169 271h164l169 -271h-182l-69 122l-69 -122h-182zM639 2211h108q-6 -110 -45.5 -160t-112.5 -50q-45 0 -71.5 14t-44.5 32.5t-36 33t-47 14.5
q-30 0 -40.5 -21t-15.5 -60h-108q9 117 48.5 169t115.5 52q45 0 71.5 -13.5t44 -32t36 -32.5t46.5 -14t39 17.5t12 50.5z" />
    <glyph glyph-name="uni1EAB" unicode="&#x1eab;" horiz-adv-x="945" 
d="M332 -15q-133 0 -197 63.5t-77 216.5q-1 19 -1 45t1 44q7 80 37.5 137.5t95.5 101t173 83.5q55 20 107 35t113 30v165q0 53 -25.5 79t-87.5 26q-53 0 -77.5 -21.5t-27.5 -72.5q-2 -14 -2.5 -50.5t0.5 -72.5t2 -49h-269q-1 16 -2 59.5t0 81.5q5 116 42 189.5t119.5 108.5
t223.5 35q144 0 226.5 -38.5t117 -122t34.5 -216.5l-2 -842h-276v127h-40q-35 -73 -80 -107.5t-128 -34.5zM445 183q45 0 80.5 23.5t55.5 62.5l2 291q-39 -9 -77 -20.5t-73 -27.5q-58 -27 -76.5 -68t-21.5 -90q-1 -23 -1 -36t1 -32q5 -50 32.5 -76.5t77.5 -26.5zM224 1282
l169 271h164l169 -271h-182l-69 122l-69 -122h-182zM637 1811h108q-6 -110 -45.5 -160t-112.5 -50q-45 0 -71.5 14t-44.5 32.5t-36 33t-47 14.5q-30 0 -40.5 -21t-15.5 -60h-108q9 117 48.5 169t115.5 52q45 0 71.5 -13.5t44 -32t36 -32.5t46.5 -14t39 17.5t12 50.5z" />
    <glyph glyph-name="uni1EAC" unicode="&#x1eac;" 
d="M32 0l215 1600h465l214 -1600h-284l-36 353h-254l-35 -353h-285zM378 597h203l-36 352l-27 407h-78l-27 -407zM385 -267v187h187v-187h-187zM225 1682l169 271h164l169 -271h-182l-69 122l-69 -122h-182z" />
    <glyph glyph-name="uni1EAD" unicode="&#x1ead;" horiz-adv-x="945" 
d="M332 -15q-133 0 -197 63.5t-77 216.5q-1 19 -1 45t1 44q7 80 37.5 137.5t95.5 101t173 83.5q55 20 107 35t113 30v165q0 53 -25.5 79t-87.5 26q-53 0 -77.5 -21.5t-27.5 -72.5q-2 -14 -2.5 -50.5t0.5 -72.5t2 -49h-269q-1 16 -2 59.5t0 81.5q5 116 42 189.5t119.5 108.5
t223.5 35q144 0 226.5 -38.5t117 -122t34.5 -216.5l-2 -842h-276v127h-40q-35 -73 -80 -107.5t-128 -34.5zM445 183q45 0 80.5 23.5t55.5 62.5l2 291q-39 -9 -77 -20.5t-73 -27.5q-58 -27 -76.5 -68t-21.5 -90q-1 -23 -1 -36t1 -32q5 -50 32.5 -76.5t77.5 -26.5zM363 -267
v187h187v-187h-187zM224 1282l169 271h164l169 -271h-182l-69 122l-69 -122h-182z" />
    <glyph glyph-name="uni1EAE" unicode="&#x1eae;" 
d="M32 0l215 1600h465l214 -1600h-284l-36 353h-254l-35 -353h-285zM378 597h203l-36 352l-27 407h-78l-27 -407zM480 1670q-153 0 -223.5 66.5t-78.5 219.5h169q0 -77 31 -111t102 -34q70 0 101 34t31 111h169q-9 -153 -79.5 -219.5t-221.5 -66.5zM397 2026l188 271h191
l-198 -271h-181z" />
    <glyph glyph-name="uni1EAF" unicode="&#x1eaf;" horiz-adv-x="945" 
d="M332 -15q-133 0 -197 63.5t-77 216.5q-1 19 -1 45t1 44q7 80 37.5 137.5t95.5 101t173 83.5q55 20 107 35t113 30v165q0 53 -25.5 79t-87.5 26q-53 0 -77.5 -21.5t-27.5 -72.5q-2 -14 -2.5 -50.5t0.5 -72.5t2 -49h-269q-1 16 -2 59.5t0 81.5q5 116 42 189.5t119.5 108.5
t223.5 35q144 0 226.5 -38.5t117 -122t34.5 -216.5l-2 -842h-276v127h-40q-35 -73 -80 -107.5t-128 -34.5zM445 183q45 0 80.5 23.5t55.5 62.5l2 291q-39 -9 -77 -20.5t-73 -27.5q-58 -27 -76.5 -68t-21.5 -90q-1 -23 -1 -36t1 -32q5 -50 32.5 -76.5t77.5 -26.5zM478 1270
q-153 0 -223.5 66.5t-78.5 219.5h169q0 -77 31 -111t102 -34q70 0 101 34t31 111h169q-9 -153 -79.5 -219.5t-221.5 -66.5zM396 1626l188 271h191l-198 -271h-181z" />
    <glyph glyph-name="uni1EB0" unicode="&#x1eb0;" 
d="M32 0l215 1600h465l214 -1600h-284l-36 353h-254l-35 -353h-285zM378 597h203l-36 352l-27 407h-78l-27 -407zM480 1670q-153 0 -223.5 66.5t-78.5 219.5h169q0 -77 31 -111t102 -34q70 0 101 34t31 111h169q-9 -153 -79.5 -219.5t-221.5 -66.5zM360 2026l-179 271h190
l170 -271h-181z" />
    <glyph glyph-name="uni1EB1" unicode="&#x1eb1;" horiz-adv-x="945" 
d="M332 -15q-133 0 -197 63.5t-77 216.5q-1 19 -1 45t1 44q7 80 37.5 137.5t95.5 101t173 83.5q55 20 107 35t113 30v165q0 53 -25.5 79t-87.5 26q-53 0 -77.5 -21.5t-27.5 -72.5q-2 -14 -2.5 -50.5t0.5 -72.5t2 -49h-269q-1 16 -2 59.5t0 81.5q5 116 42 189.5t119.5 108.5
t223.5 35q144 0 226.5 -38.5t117 -122t34.5 -216.5l-2 -842h-276v127h-40q-35 -73 -80 -107.5t-128 -34.5zM445 183q45 0 80.5 23.5t55.5 62.5l2 291q-39 -9 -77 -20.5t-73 -27.5q-58 -27 -76.5 -68t-21.5 -90q-1 -23 -1 -36t1 -32q5 -50 32.5 -76.5t77.5 -26.5zM478 1270
q-153 0 -223.5 66.5t-78.5 219.5h169q0 -77 31 -111t102 -34q70 0 101 34t31 111h169q-9 -153 -79.5 -219.5t-221.5 -66.5zM359 1626l-179 271h190l170 -271h-181z" />
    <glyph glyph-name="uni1EB2" unicode="&#x1eb2;" 
d="M32 0l215 1600h465l214 -1600h-284l-36 353h-254l-35 -353h-285zM378 597h203l-36 352l-27 407h-78l-27 -407zM480 1670q-153 0 -223.5 66.5t-78.5 219.5h169q0 -77 31 -111t102 -34q70 0 101 34t31 111h169q-9 -153 -79.5 -219.5t-221.5 -66.5zM408 1982l11 58
q12 61 -9 81.5t-93 20.5h-73v131h73q141 0 204.5 -54.5t39.5 -178.5l-11 -58h-142z" />
    <glyph glyph-name="uni1EB3" unicode="&#x1eb3;" horiz-adv-x="945" 
d="M332 -15q-133 0 -197 63.5t-77 216.5q-1 19 -1 45t1 44q7 80 37.5 137.5t95.5 101t173 83.5q55 20 107 35t113 30v165q0 53 -25.5 79t-87.5 26q-53 0 -77.5 -21.5t-27.5 -72.5q-2 -14 -2.5 -50.5t0.5 -72.5t2 -49h-269q-1 16 -2 59.5t0 81.5q5 116 42 189.5t119.5 108.5
t223.5 35q144 0 226.5 -38.5t117 -122t34.5 -216.5l-2 -842h-276v127h-40q-35 -73 -80 -107.5t-128 -34.5zM445 183q45 0 80.5 23.5t55.5 62.5l2 291q-39 -9 -77 -20.5t-73 -27.5q-58 -27 -76.5 -68t-21.5 -90q-1 -23 -1 -36t1 -32q5 -50 32.5 -76.5t77.5 -26.5zM478 1270
q-153 0 -223.5 66.5t-78.5 219.5h169q0 -77 31 -111t102 -34q70 0 101 34t31 111h169q-9 -153 -79.5 -219.5t-221.5 -66.5zM407 1582l11 58q12 61 -9 81.5t-93 20.5h-73v131h73q141 0 204.5 -54.5t39.5 -178.5l-11 -58h-142z" />
    <glyph glyph-name="uni1EB4" unicode="&#x1eb4;" 
d="M32 0l215 1600h465l214 -1600h-284l-36 353h-254l-35 -353h-285zM378 597h203l-36 352l-27 407h-78l-27 -407zM480 1670q-153 0 -223.5 66.5t-78.5 219.5h169q0 -77 31 -111t102 -34q70 0 101 34t31 111h169q-9 -153 -79.5 -219.5t-221.5 -66.5zM632 2239h108
q-6 -110 -45.5 -160t-112.5 -50q-45 0 -71.5 14t-44.5 32.5t-36 33t-47 14.5q-30 0 -40.5 -21t-15.5 -60h-108q9 117 48.5 169t115.5 52q45 0 71.5 -13.5t44 -32t36 -32.5t46.5 -14t39 17.5t12 50.5z" />
    <glyph glyph-name="uni1EB5" unicode="&#x1eb5;" horiz-adv-x="945" 
d="M332 -15q-133 0 -197 63.5t-77 216.5q-1 19 -1 45t1 44q7 80 37.5 137.5t95.5 101t173 83.5q55 20 107 35t113 30v165q0 53 -25.5 79t-87.5 26q-53 0 -77.5 -21.5t-27.5 -72.5q-2 -14 -2.5 -50.5t0.5 -72.5t2 -49h-269q-1 16 -2 59.5t0 81.5q5 116 42 189.5t119.5 108.5
t223.5 35q144 0 226.5 -38.5t117 -122t34.5 -216.5l-2 -842h-276v127h-40q-35 -73 -80 -107.5t-128 -34.5zM445 183q45 0 80.5 23.5t55.5 62.5l2 291q-39 -9 -77 -20.5t-73 -27.5q-58 -27 -76.5 -68t-21.5 -90q-1 -23 -1 -36t1 -32q5 -50 32.5 -76.5t77.5 -26.5zM478 1270
q-153 0 -223.5 66.5t-78.5 219.5h169q0 -77 31 -111t102 -34q70 0 101 34t31 111h169q-9 -153 -79.5 -219.5t-221.5 -66.5zM630 1839h108q-6 -110 -45.5 -160t-112.5 -50q-45 0 -71.5 14t-44.5 32.5t-36 33t-47 14.5q-30 0 -40.5 -21t-15.5 -60h-108q9 117 48.5 169
t115.5 52q45 0 71.5 -13.5t44 -32t36 -32.5t46.5 -14t39 17.5t12 50.5z" />
    <glyph glyph-name="uni1EB6" unicode="&#x1eb6;" 
d="M32 0l215 1600h465l214 -1600h-284l-36 353h-254l-35 -353h-285zM378 597h203l-36 352l-27 407h-78l-27 -407zM385 -267v187h187v-187h-187zM480 1670q-153 0 -223.5 66.5t-78.5 219.5h169q0 -77 31 -111t102 -34q70 0 101 34t31 111h169q-9 -153 -79.5 -219.5
t-221.5 -66.5z" />
    <glyph glyph-name="uni1EB7" unicode="&#x1eb7;" horiz-adv-x="945" 
d="M332 -15q-133 0 -197 63.5t-77 216.5q-1 19 -1 45t1 44q7 80 37.5 137.5t95.5 101t173 83.5q55 20 107 35t113 30v165q0 53 -25.5 79t-87.5 26q-53 0 -77.5 -21.5t-27.5 -72.5q-2 -14 -2.5 -50.5t0.5 -72.5t2 -49h-269q-1 16 -2 59.5t0 81.5q5 116 42 189.5t119.5 108.5
t223.5 35q144 0 226.5 -38.5t117 -122t34.5 -216.5l-2 -842h-276v127h-40q-35 -73 -80 -107.5t-128 -34.5zM445 183q45 0 80.5 23.5t55.5 62.5l2 291q-39 -9 -77 -20.5t-73 -27.5q-58 -27 -76.5 -68t-21.5 -90q-1 -23 -1 -36t1 -32q5 -50 32.5 -76.5t77.5 -26.5zM363 -267
v187h187v-187h-187zM478 1270q-153 0 -223.5 66.5t-78.5 219.5h169q0 -77 31 -111t102 -34q70 0 101 34t31 111h169q-9 -153 -79.5 -219.5t-221.5 -66.5z" />
    <glyph glyph-name="uni1EB8" unicode="&#x1eb8;" horiz-adv-x="829" 
d="M95 0v1600h683v-244h-406v-421h386v-244h-386v-447h406v-244h-683zM351 -267v187h187v-187h-187z" />
    <glyph glyph-name="uni1EB9" unicode="&#x1eb9;" horiz-adv-x="915" 
d="M472 -19q-205 0 -295 80t-101 260q-3 47 -4 122.5t-1 159.5t1.5 157t3.5 115q13 185 104 264.5t288 79.5q198 0 287 -77.5t97 -255.5q1 -24 1.5 -80t0 -124.5t-3.5 -128.5h-499q0 -64 1.5 -129t3.5 -133q2 -55 28.5 -78.5t86.5 -23.5q57 0 80 23.5t26 79.5q2 28 2.5 69.5
t-2.5 97.5h273q2 -16 3 -60t-1 -78q-9 -181 -97 -260.5t-283 -79.5zM352 745h227v74.5t-0.5 61.5t-1.5 36q-3 51 -27.5 72.5t-81.5 21.5q-61 0 -85.5 -22t-26.5 -72q-1 -44 -2 -87t-2 -85zM370 -267v187h187v-187h-187z" />
    <glyph glyph-name="uni1EBA" unicode="&#x1eba;" horiz-adv-x="829" 
d="M95 0v1600h683v-244h-406v-421h386v-244h-386v-447h406v-244h-683zM425 1663l11 58q12 61 -9 81.5t-93 20.5h-73v131h73q141 0 204.5 -54.5t39.5 -178.5l-11 -58h-142z" />
    <glyph glyph-name="uni1EBB" unicode="&#x1ebb;" horiz-adv-x="915" 
d="M472 -19q-205 0 -295 80t-101 260q-3 47 -4 122.5t-1 159.5t1.5 157t3.5 115q13 185 104 264.5t288 79.5q198 0 287 -77.5t97 -255.5q1 -24 1.5 -80t0 -124.5t-3.5 -128.5h-499q0 -64 1.5 -129t3.5 -133q2 -55 28.5 -78.5t86.5 -23.5q57 0 80 23.5t26 79.5q2 28 2.5 69.5
t-2.5 97.5h273q2 -16 3 -60t-1 -78q-9 -181 -97 -260.5t-283 -79.5zM352 745h227v74.5t-0.5 61.5t-1.5 36q-3 51 -27.5 72.5t-81.5 21.5q-61 0 -85.5 -22t-26.5 -72q-1 -44 -2 -87t-2 -85zM475 1274l11 58q12 61 -9 81.5t-93 20.5h-73v131h73q141 0 204.5 -54.5t39.5 -178.5
l-11 -58h-142z" />
    </font>
</defs>
</svg>
