<?xml version="1.0" standalone="no"?>
<!DOCTYPE svg PUBLIC "-//W3C//DTD SVG 1.1//EN" "http://www.w3.org/Graphics/SVG/1.1/DTD/svg11.dtd" >
<svg xmlns="http://www.w3.org/2000/svg" xmlns:xlink="http://www.w3.org/1999/xlink" version="1.1">
<metadata>
Created by FontForge 20201107 at Thu Feb  6 15:02:31 2025
 By 
Copyright 2019 The Big Shoulders Project Authors (https://github.com/xotypeco/big_shoulders)
</metadata>
<defs>
<font id="BigShoulders-Medium" horiz-adv-x="863" >
  <font-face 
    font-family="Big Shoulders Medium"
    font-weight="500"
    font-stretch="normal"
    units-per-em="2000"
    panose-1="0 0 0 0 0 0 0 0 0 0"
    ascent="1600"
    descent="-400"
    x-height="1200"
    cap-height="1600"
    bbox="-481 -419 2160 2355"
    underline-thickness="40"
    underline-position="-100"
    unicode-range="U+0020-FB02"
  />
<missing-glyph horiz-adv-x="1413" 
d="M104 0v1600h1205v-1600h-1205zM441 187h533l-267 419zM314 379l261 412l-261 412v-824zM1099 381v820l-260 -410zM707 975l277 438h-555z" />
    <glyph glyph-name="fi" unicode="fi" horiz-adv-x="1021" 
d="M150 0v1039h-120v161h120v123q-1 158 81 227t258 69q33 0 72.5 -4t73.5 -9v-156q-33 1 -69 2t-75 1q-64 0 -96 -26t-31 -88v-139h229v-161h-229v-1039h-214zM690 1415v185h243v-185h-243zM706 0v1200h211v-1200h-211z" />
    <glyph glyph-name="fl" unicode="fl" horiz-adv-x="1033" 
d="M150 0v1039h-120v161h120v123q-1 158 81 227t258 69q33 0 72.5 -4t73.5 -9v-156q-33 1 -69 2t-75 1q-64 0 -96 -26t-31 -88v-139h229v-161h-229v-1039h-214zM718 0v1600h211v-1600h-211z" />
    <glyph glyph-name="f_f" unicode="ff" horiz-adv-x="1176" 
d="M150 0l-2 1039h-118v161h118v123q0 158 82.5 227t258.5 69q33 0 72.5 -4t73.5 -9v-156q-33 1 -69 2t-75 1q-64 0 -96.5 -26t-32.5 -88v-139h348v123q0 158 82.5 227t258.5 69q32 0 72 -4t73 -9v-156q-32 1 -68 2t-75 1q-65 0 -97.5 -26t-32.5 -88v-139h216v-161h-216
l2 -1039h-213l-2 1039h-348l2 -1039h-214z" />
    <glyph glyph-name="f_f_i" unicode="ffi" horiz-adv-x="1583" 
d="M150 0l-2 1039h-118v161h118v123q0 158 82.5 227t258.5 69q33 0 72.5 -4t73.5 -9v-156q-33 1 -69 2t-75 1q-64 0 -96.5 -26t-32.5 -88v-139h348v123q0 158 82.5 227t258.5 69q32 0 72 -4t73 -9v-156q-32 1 -68 2t-75 1q-65 0 -97.5 -26t-32.5 -88v-139h216v-161h-216
l2 -1039h-213l-2 1039h-348l2 -1039h-214zM1252 1415v185h243v-185h-243zM1268 0v1200h211v-1200h-211z" />
    <glyph glyph-name="f_f_l" unicode="ffl" horiz-adv-x="1595" 
d="M150 0l-2 1039h-118v161h118v123q0 158 82.5 227t258.5 69q33 0 72.5 -4t73.5 -9v-156q-33 1 -69 2t-75 1q-64 0 -96.5 -26t-32.5 -88v-139h348v123q0 158 82.5 227t258.5 69q32 0 72 -4t73 -9v-156q-32 1 -68 2t-75 1q-65 0 -97.5 -26t-32.5 -88v-139h216v-161h-216
l2 -1039h-213l-2 1039h-348l2 -1039h-214zM1280 0v1600h211v-1600h-211z" />
    <glyph glyph-name=".notdef" horiz-adv-x="1413" 
d="M104 0v1600h1205v-1600h-1205zM441 187h533l-267 419zM314 379l261 412l-261 412v-824zM1099 381v820l-260 -410zM707 975l277 438h-555z" />
    <glyph glyph-name=".null" horiz-adv-x="0" 
 />
    <glyph glyph-name="nonmarkingreturn" horiz-adv-x="666" 
 />
    <glyph glyph-name="space" unicode=" " horiz-adv-x="424" 
 />
    <glyph glyph-name="exclam" unicode="!" horiz-adv-x="492" 
d="M146 363l-29 587v650h215v-651l-28 -586h-158zM67 0v225h315v-225h-315z" />
    <glyph glyph-name="quotedbl" unicode="&#x22;" horiz-adv-x="703" 
d="M128 1116l-40 248v236h187v-236l-40 -248h-107zM467 1116l-39 248v236h187v-236l-41 -248h-107z" />
    <glyph glyph-name="numbersign" unicode="#" horiz-adv-x="1319" 
d="M141 0l111 432h-192l43 174h189l100 371h-191l43 174h189l118 449h212l-118 -449h211l118 449h210l-118 -449h193l-40 -174h-193l-101 -371h190l-43 -174h-187l-111 -432h-209l111 432h-213l-111 -432h-211zM504 606h211l101 371h-213z" />
    <glyph glyph-name="dollar" unicode="$" horiz-adv-x="876" 
d="M344 -197v188q-132 17 -192.5 92t-66.5 224q-1 48 -1.5 93.5t1 91.5t5.5 95h200q-4 -83 -5 -161t5 -153q4 -60 39 -86.5t110 -26.5q71 0 105 26.5t39 86.5q4 41 5 84.5t-0.5 87.5t-4.5 85q-3 66 -32.5 104t-89.5 53l-139 32q-90 22 -142 65t-74.5 112t-25.5 169
q-1 57 -0.5 114.5t1.5 116.5q6 147 66.5 222.5t196.5 91.5v204h186v-204q131 -16 191.5 -91.5t66.5 -223.5q2 -55 1 -125.5t-4 -141.5h-203q3 83 4 156t-2 144q-2 60 -37 86.5t-109 26.5q-72 0 -106.5 -26.5t-39.5 -86.5q-5 -67 -5 -131t5 -132q3 -69 25 -107t76 -51
l125 -27q101 -22 160 -66.5t86.5 -114.5t30.5 -169q2 -36 2 -74.5t-1 -76t-2 -72.5q-6 -150 -67.5 -225t-196.5 -92v-187h-186z" />
    <glyph glyph-name="percent" unicode="%" horiz-adv-x="1205" 
d="M129 0l793 1600h149l-794 -1600h-148zM886 -10q-102 0 -161 50t-63 148q-2 68 -2.5 120.5t0 105.5t2.5 120q3 95 61.5 145.5t162.5 50.5q105 0 163 -51.5t63 -144.5q2 -36 2.5 -83t0.5 -96t-1 -92.5t-2 -73.5q-5 -95 -63 -147t-163 -52zM886 114q33 0 49.5 14.5
t17.5 35.5q3 33 5 83t2 107t-1.5 110.5t-5.5 92.5q-1 22 -17.5 36t-49.5 14q-31 0 -48 -14t-19 -35q-3 -55 -4.5 -131.5t0 -149t4.5 -114.5q3 -19 20 -34t47 -15zM305 868q-102 0 -161 50t-64 148q-1 68 -1.5 120.5t0 105.5t1.5 120q4 95 62.5 145.5t162.5 50.5
q105 0 163 -51.5t63 -144.5q2 -36 2.5 -83t0.5 -96t-1 -92.5t-2 -73.5q-5 -95 -63.5 -147t-162.5 -52zM305 992q32 0 48.5 14.5t18.5 35.5q3 33 4.5 83t1.5 107t-1 110.5t-5 92.5q-1 22 -17.5 36t-49.5 14q-32 0 -48.5 -14t-18.5 -35q-4 -55 -5 -131.5t0 -149t5 -114.5
q3 -19 19.5 -34t47.5 -15z" />
    <glyph glyph-name="ampersand" unicode="&#x26;" horiz-adv-x="1115" 
d="M459 -17q-188 0 -271 77.5t-90 248.5q-2 64 -1.5 107t3 81.5t8.5 86.5q7 104 51 170t101 117q-47 107 -78 211t-37 198q-14 157 62 247t247 90q172 0 246.5 -84.5t60.5 -243.5q-8 -117 -61 -220.5t-141 -192.5q-10 -10 -23.5 -23t-27.5 -27q36 -66 76 -132.5t81 -129.5
q-1 57 -6 118t-14 127l173 1q7 -61 12.5 -142t7.5 -166t-2 -157q53 -66 100 -122.5t83 -97.5l-139 -129q-27 31 -55.5 64t-57.5 67q-26 -49 -67 -81t-100.5 -47.5t-140.5 -15.5zM464 152q57 0 89 14.5t48 46t26 83.5q-70 92 -137.5 190.5t-126.5 199.5q-18 -22 -31.5 -49.5
t-18.5 -62.5q-5 -36 -7.5 -71t-3.5 -81.5t2 -116.5q4 -73 41 -113t119 -40zM418 992q35 33 69.5 74t59 95t28.5 126q12 89 -14 138.5t-107 49.5q-66 0 -93.5 -46t-25.5 -120q1 -69 23.5 -150.5t59.5 -166.5z" />
    <glyph glyph-name="quotesingle" unicode="'" horiz-adv-x="373" 
d="M131 1116l-43 248v236h197v-236l-43 -248h-111z" />
    <glyph glyph-name="parenleft" unicode="(" horiz-adv-x="558" 
d="M340 -400q-87 122 -150 282.5t-96.5 345.5t-33.5 379q0 176 30.5 357t92.5 345.5t157 290.5h158q-108 -228 -164 -486t-56 -514q0 -170 25 -344.5t74.5 -341t120.5 -314.5h-158z" />
    <glyph glyph-name="parenright" unicode=")" horiz-adv-x="536" 
d="M195 -400h-157q71 148 120 314.5t74 341t25 344.5q0 256 -56 514t-163 486h157q95 -126 157.5 -290.5t93 -345.5t30.5 -357q0 -194 -34 -379t-96.5 -345.5t-150.5 -282.5z" />
    <glyph glyph-name="asterisk" unicode="*" horiz-adv-x="537" 
d="M45 1325l149 67l-149 67l48 82l137 -87l-10 154h96l-10 -152l138 85l47 -82l-148 -67l148 -67l-47 -82l-138 88l10 -155h-96l10 153l-137 -86z" />
    <glyph glyph-name="plus" unicode="+" horiz-adv-x="996" 
d="M415 357v309h-308v163h308v308h167v-308h306v-163h-306v-309h-167z" />
    <glyph glyph-name="comma" unicode="," horiz-adv-x="468" 
d="M123 -242l112 242h-159v229h317v-208l-141 -263h-129z" />
    <glyph glyph-name="hyphen" unicode="-" horiz-adv-x="792" 
d="M60 646v187h672v-187h-672z" />
    <glyph glyph-name="period" unicode="." horiz-adv-x="449" 
d="M67 0v225h315v-225h-315z" />
    <glyph glyph-name="slash" unicode="/" horiz-adv-x="768" 
d="M60 -400l435 2000h213l-435 -2000h-213z" />
    <glyph glyph-name="zero" unicode="0" horiz-adv-x="903" 
d="M452 -17q-168 0 -260.5 84t-95.5 242q-3 184 -4 351.5t0.5 324t3.5 307.5q3 158 95 241.5t261 83.5q166 0 258.5 -83.5t96.5 -241.5q3 -120 4.5 -244t1.5 -249t-1.5 -248.5t-4.5 -241.5q-5 -161 -98.5 -243.5t-256.5 -82.5zM452 157q136 0 140 112q6 190 8 368t0 349.5
t-8 343.5q-3 113 -140 113q-138 0 -141 -114q-5 -157 -7 -289t-2 -253.5t2 -246.5t7 -268q3 -115 141 -115z" />
    <glyph glyph-name="one" unicode="1" horiz-adv-x="505" 
d="M175 0v1399h-102l-8 78l152 123h175v-1600h-217z" />
    <glyph glyph-name="two" unicode="2" horiz-adv-x="874" 
d="M87 0q-1 38 -1.5 63.5t-1 46.5t-0.5 46.5v62.5t1 93q3 122 35.5 210.5t91.5 152.5t143 111l122 70q71 42 89.5 98t22.5 110q3 61 4 130t-3 132q-4 59 -41 88t-111 29q-73 0 -105.5 -30.5t-34.5 -81.5q-3 -75 -3 -150.5t3 -156.5h-211q-1 54 -2.5 99t-1.5 85.5t1 81.5
q7 175 91 251t264 76q127 0 205.5 -33t116 -105t42.5 -189q1 -25 1.5 -55.5t0.5 -62.5t-0.5 -61t-1.5 -50q-4 -100 -35 -172.5t-85.5 -125.5t-128.5 -96l-134 -76q-43 -26 -69 -71.5t-37.5 -100t-11.5 -107.5v-125h490v-187h-705z" />
    <glyph glyph-name="three" unicode="3" horiz-adv-x="876" 
d="M444 -17q-191 0 -280.5 76.5t-95.5 251.5q-1 41 -1.5 75t0 70.5t1.5 85.5h215v-257q0 -61 39.5 -94.5t115.5 -33.5q74 0 110 32t37 95q3 91 3 167.5t-3 150.5q-3 66 -38.5 105.5t-128.5 37.5l-161 -1l-7 178l303 492h-476v186h722l-3 -178l-311 -493q158 -8 232 -84
t82 -247q2 -38 2.5 -77.5t0.5 -77.5t-0.5 -71.5t-2.5 -59.5q-8 -176 -90.5 -252.5t-264.5 -76.5z" />
    <glyph glyph-name="four" unicode="4" horiz-adv-x="898" 
d="M482 0v449h-437v174l343 977h295v-965h166v-186h-166v-449h-201zM251 635h231l27 402l25 377h-50l-107 -377z" />
    <glyph glyph-name="five" unicode="5" horiz-adv-x="897" 
d="M460 -17q-194 0 -280.5 77t-91.5 251q-2 74 -1.5 126.5t2.5 104.5h214q-3 -35 -4.5 -84t-1 -95.5t2.5 -74.5q5 -68 44.5 -99.5t109.5 -31.5q74 0 111 32t41 98q8 112 9 215.5t-6 197.5q-5 62 -39 92t-101 30q-46 0 -80.5 -17t-54.5 -44t-22 -59h-202v898h693v-186h-480
v-515h38q24 41 78 70t124 29q127 0 189.5 -77t69.5 -213q4 -62 4.5 -130.5t-1 -136t-5.5 -128.5q-9 -117 -48 -190t-114.5 -106.5t-197.5 -33.5z" />
    <glyph glyph-name="six" unicode="6" horiz-adv-x="897" 
d="M450 -18q-188 0 -270 77t-85 251q-1 152 -2.5 291t-1.5 263.5t1 231.5t3 193q7 168 97.5 247.5t255.5 79.5q172 0 262.5 -82.5t95.5 -234.5q2 -32 2 -64t-0.5 -66.5t-1.5 -73.5h-212q2 40 2.5 75.5t0 73.5t-2.5 82q-2 58 -37.5 87t-106.5 29q-69 0 -103.5 -28t-36.5 -87
q-3 -95 -5 -207.5t-3 -236.5h44q25 43 82.5 71t127.5 28q141 0 199.5 -66t61.5 -223q2 -79 3 -137t0.5 -114t-4.5 -132q-9 -175 -93 -251.5t-273 -76.5zM452 157q72 0 110.5 28.5t39.5 88.5q2 63 3 114t1.5 97.5t0 95t-2.5 106.5q-1 62 -39 90.5t-100 28.5q-68 0 -114.5 -30
t-48.5 -86q0 -97 1.5 -200.5t4.5 -210.5q2 -64 39 -93t105 -29z" />
    <glyph glyph-name="seven" unicode="7" horiz-adv-x="790" 
d="M122 0l419 1414h-515v186h729v-189l-411 -1411h-222z" />
    <glyph glyph-name="eight" unicode="8" horiz-adv-x="889" 
d="M444 -17q-187 0 -267.5 79t-88.5 249q-1 36 -1.5 73t0.5 80.5t4 100.5q7 96 44 152.5t112 86.5v35q-57 20 -94.5 65t-48.5 115q-5 51 -7.5 98t-3 90t1.5 82q9 175 88 251.5t261 76.5q178 0 259.5 -76.5t90.5 -252.5q2 -36 1 -83.5t-3.5 -96t-6.5 -87.5
q-11 -72 -49 -117.5t-95 -64.5v-36q68 -30 106.5 -85.5t49.5 -149.5q6 -82 5.5 -144t-3.5 -113q-8 -175 -89 -251.5t-266 -76.5zM444 157q73 0 107 31t35 97q1 55 1 103.5v97t-1 102.5q-1 66 -35 98.5t-107 32.5t-106.5 -32t-34.5 -99q-2 -78 -2.5 -151.5t1.5 -150.5
q1 -63 34.5 -96t107.5 -33zM444 921q71 0 106 32t36 99q0 66 0.5 132.5t-0.5 130.5q-1 65 -34.5 96.5t-107.5 31.5q-71 0 -105.5 -31t-35.5 -96q-1 -40 -1.5 -72.5t-0.5 -62.5t0.5 -61.5t1.5 -69.5q1 -67 36.5 -98t104.5 -31z" />
    <glyph glyph-name="nine" unicode="9" horiz-adv-x="896" 
d="M453 -18q-184 0 -268 76.5t-86 250.5v58t0.5 72t1.5 64h213q-1 -56 -2 -113.5t2 -114.5q2 -59 34.5 -88.5t102.5 -29.5q64 0 98.5 28t36.5 90q4 90 6 200.5t3 233.5h-38q-23 -42 -75.5 -70.5t-124.5 -28.5q-76 0 -139.5 30.5t-101.5 97t-39 173.5q0 55 -0.5 110
t-0.5 105.5t0.5 92.5t1.5 69q7 176 93.5 252t272.5 76q189 0 270 -76.5t85 -251.5q4 -190 5 -347.5t0 -308.5t-5 -323q-3 -174 -86.5 -250.5t-259.5 -76.5zM437 786q72 0 112 27.5t44 76.5q0 112 -2 223t-6 215q-1 58 -38.5 86t-104.5 28q-72 0 -110 -28.5t-39 -87.5
q0 -22 -1 -78t-1.5 -124.5t-0.5 -129t1 -90.5q2 -60 42 -89t104 -29z" />
    <glyph glyph-name="colon" unicode=":" horiz-adv-x="467" 
d="M76 600v225h315v-225h-315zM76 0v225h315v-225h-315z" />
    <glyph glyph-name="semicolon" unicode=";" horiz-adv-x="477" 
d="M132 -242l111 242h-159v229h317v-208l-141 -263h-128zM76 603v225h315v-225h-315z" />
    <glyph glyph-name="less" unicode="&#x3c;" horiz-adv-x="1077" 
d="M958 494l-840 126v265l840 131v-174l-419 -51l-260 -14v-48l260 -14l419 -48v-173z" />
    <glyph glyph-name="equal" unicode="=" horiz-adv-x="971" 
d="M96 820v164h779v-164h-779zM96 513v164h779v-164h-779z" />
    <glyph glyph-name="greater" unicode="&#x3e;" horiz-adv-x="1032" 
d="M96 494v173l419 48l260 14v48l-260 14l-419 51v174l840 -131v-265z" />
    <glyph glyph-name="question" unicode="?" horiz-adv-x="851" 
d="M311 390l-5 170q-4 68 5 118.5t42.5 92t101.5 80.5l41 22q29 15 42.5 40.5t17.5 61.5t4 81v261q0 56 -34 85t-104 29q-65 0 -97.5 -28.5t-36.5 -85.5q-3 -65 -3.5 -137t2.5 -138h-226q-1 55 -2 92t-0.5 70t1.5 74q9 183 92 262t268 79q198 0 285 -79.5t87 -261.5v-98.5
t0.5 -68.5t0.5 -56q-2 -99 -18 -160.5t-41.5 -96.5t-58 -54t-67.5 -35l-47 -22q-44 -20 -53.5 -55.5t-13.5 -71.5l-8 -170h-175zM242 0v225h315v-225h-315z" />
    <glyph glyph-name="at" unicode="@" horiz-adv-x="1239" 
d="M619 -276q-179 0 -293 37t-168 118.5t-57 212.5q-2 128 -4 244t-2 231.5t1.5 243t4.5 278.5q3 136 56.5 220.5t167 124t294.5 39.5q178 0 291.5 -39t169 -123.5t59.5 -222.5q2 -110 2.5 -205t0.5 -181t-1 -168.5t-3 -167.5q-2 -87 -61.5 -130t-164.5 -43
q-109 0 -156.5 28t-61.5 66h-33q-23 -44 -51.5 -69.5t-82.5 -25.5q-72 0 -110 46t-45 154q-4 62 -5 138t0.5 152.5t4.5 137.5q6 109 44.5 156t113.5 47q51 0 78.5 -23t51.5 -71h23v83h167l1 -643q0 -33 15.5 -49.5t45.5 -16.5q27 0 41 17t16 51q3 71 4.5 152t2 172
t-0.5 191.5t-4 210.5q-4 123 -85 178.5t-267 55.5q-179 0 -261.5 -53.5t-86.5 -180.5q-4 -146 -5.5 -273.5t-1.5 -247.5t1.5 -240.5t5.5 -252.5q4 -117 85.5 -167t262.5 -50q179 0 261 46t83 164q1 19 1 30t-1 29h166q1 -13 1.5 -25t-0.5 -32q-2 -130 -55 -208t-164.5 -112
t-291.5 -34zM595 312q25 0 51 18t37 45v462q-10 31 -37.5 48t-50.5 17q-29 0 -41 -16.5t-14 -50.5q-4 -85 -5.5 -158.5t-0.5 -144.5t6 -150q2 -39 15.5 -54.5t39.5 -15.5z" />
    <glyph glyph-name="A" unicode="A" horiz-adv-x="865" 
d="M46 0l191 1600h392l190 -1600h-216l-38 409h-265l-38 -409h-216zM319 596h227l-33 345l-37 472h-87l-37 -473z" />
    <glyph glyph-name="B" unicode="B" horiz-adv-x="886" 
d="M112 0v1600h338q182 0 265 -72t84 -239q0 -73 0.5 -128t-2.5 -108q-5 -94 -40.5 -149t-114.5 -78v-37q81 -24 118.5 -79.5t41.5 -150.5q3 -68 2.5 -123.5t-2.5 -123.5q-7 -167 -87 -239.5t-262 -72.5h-341zM323 189h130q73 0 105 30t33 95q2 64 2 118.5t-2 117.5
q-1 91 -31.5 127.5t-104.5 36.5h-132v-525zM323 903h136q67 0 97.5 37.5t31.5 116.5q2 65 1.5 121t-1.5 120q0 60 -32.5 87.5t-105.5 27.5h-127v-510z" />
    <glyph glyph-name="C" unicode="C" horiz-adv-x="902" 
d="M457 -17q-186 0 -270 75t-88 248q-2 133 -3 254.5t-1 239.5t1 239.5t3 255.5q3 167 89 243.5t268 76.5q181 0 266.5 -77t91.5 -244q2 -44 2 -88.5t-1 -89t-3 -89.5h-210q1 48 2 93.5t1 91.5t-2 93q-2 75 -35.5 105t-111.5 30q-77 0 -110.5 -30t-35.5 -105
q-3 -139 -5 -263t-2 -242.5t2 -242t5 -262.5q2 -75 36 -105.5t111 -30.5q82 0 117 30.5t37 105.5q2 45 2.5 87t-0.5 91t-3 113h211q3 -78 3.5 -147t-2.5 -133q-6 -173 -91 -248t-274 -75z" />
    <glyph glyph-name="D" unicode="D" horiz-adv-x="906" 
d="M112 0v1600h346q184 0 265 -74.5t84 -245.5t4 -325.5t0 -308t-4 -325.5q-3 -171 -83 -246t-259 -75h-353zM323 187h142q68 0 99 27.5t32 85.5q4 136 5.5 259t1.5 242t-1.5 242t-5.5 259q-1 57 -33 84t-105 27h-135v-1226z" />
    <glyph glyph-name="E" unicode="E" horiz-adv-x="769" 
d="M112 0v1600h602v-187h-391v-511h371v-187h-371v-528h391v-187h-602z" />
    <glyph glyph-name="F" unicode="F" horiz-adv-x="759" 
d="M112 0v1600h610v-187h-399v-511h379v-187h-379v-715h-211z" />
    <glyph glyph-name="G" unicode="G" horiz-adv-x="905" 
d="M460 -16q-126 0 -204 32.5t-115 104t-40 186.5q-3 116 -4.5 240t-1.5 250.5t1.5 249.5t4.5 237q4 119 40.5 192t114.5 106.5t204 33.5q183 0 264.5 -74.5t90.5 -246.5q3 -66 3 -133t-3 -134h-211q3 77 3 144.5t-3 144.5q-3 69 -34 96.5t-110 27.5q-82 0 -113.5 -27.5
t-35.5 -96.5q-5 -134 -7 -262t-2 -254.5t2 -254.5t7 -261q3 -70 35 -97.5t114 -27.5q85 0 118.5 27.5t37.5 97.5q2 39 2.5 80.5t0 82.5t-2.5 80h-139v186h345q3 -110 2.5 -211.5t-4.5 -195.5q-6 -173 -89 -248t-271 -75z" />
    <glyph glyph-name="H" unicode="H" horiz-adv-x="921" 
d="M112 0v1600h211v-698h276v698h210v-1600h-210v715h-276v-715h-211z" />
    <glyph glyph-name="I" unicode="I" horiz-adv-x="435" 
d="M112 0v1600h211v-1600h-211z" />
    <glyph glyph-name="J" unicode="J" horiz-adv-x="828" 
d="M386 -16q-117 0 -189.5 32.5t-107.5 104t-38 186.5q-2 71 -2 140t2 140h200q-2 -48 -3 -100t0 -103.5t3 -98.5q2 -69 32 -97t103 -28q76 0 106.5 28t30.5 97v1315h211v-1293q0 -173 -80.5 -248t-267.5 -75z" />
    <glyph glyph-name="K" unicode="K" horiz-adv-x="879" 
d="M112 0v1600h223l-3 -381l-21 -425h58l125 446l124 360h229l-249 -694l269 -906h-215l-194 672l-131 -305v-367h-215z" />
    <glyph glyph-name="L" unicode="L" horiz-adv-x="718" 
d="M112 0v1600h211v-1413h377v-187h-588z" />
    <glyph glyph-name="M" unicode="M" horiz-adv-x="1430" 
d="M112 0v1600h412l109 -637l49 -771h67l48 771l110 637h411v-1600h-216v495l35 918h-86l-96 -949l-98 -460h-289l-91 460l-97 949h-85l34 -918v-495h-217z" />
    <glyph glyph-name="N" unicode="N" horiz-adv-x="1081" 
d="M112 0v1600h383l100 -508l125 -904h86l-34 801l-14 611h211v-1600h-398l-106 555l-101 859h-88l31 -810l16 -604h-211z" />
    <glyph glyph-name="O" unicode="O" horiz-adv-x="914" 
d="M456 -16q-187 0 -270 76t-87 252q-2 136 -3 256t-1 235t1 234t3 252q4 175 87 251t270 76q185 0 268 -76t87 -251q4 -134 6 -253t2 -234t-2 -234.5t-6 -255.5q-4 -176 -87 -252t-268 -76zM456 160q79 0 111.5 31t33.5 110q4 137 6.5 259.5t2.5 240t-2.5 240t-6.5 259.5
q-1 78 -33.5 109.5t-111.5 31.5t-111.5 -31.5t-34.5 -109.5q-5 -135 -7 -256.5t-2 -239t2 -241t7 -262.5q2 -79 34.5 -110t111.5 -31z" />
    <glyph glyph-name="P" unicode="P" horiz-adv-x="859" 
d="M112 0v1600h342q177 0 256.5 -71.5t84.5 -236.5q4 -115 4 -208t-4 -195q-6 -164 -85.5 -236t-256.5 -72h-130v-581h-211zM323 769h130q69 0 99 27t33 84q3 67 4.5 135t0 139.5t-4.5 147.5q-2 58 -32.5 84.5t-98.5 26.5h-131v-644z" />
    <glyph glyph-name="Q" unicode="Q" horiz-adv-x="914" 
d="M734 -263q-146 -10 -219 48t-88 199q-172 6 -248 82t-80 246q-2 136 -3 256t-1 235t1 234t3 252q4 175 87 251t270 76q185 0 268 -76t87 -251q4 -134 6 -253t2 -234t-2 -234.5t-6 -255.5q-2 -127 -45.5 -199.5t-136.5 -101.5q-1 -60 24.5 -84t80.5 -18v-172zM456 160
q79 0 111.5 31t33.5 110q4 137 6.5 259.5t2.5 240t-2.5 240t-6.5 259.5q-1 78 -33.5 109.5t-111.5 31.5t-111.5 -31.5t-34.5 -109.5q-5 -135 -7 -256.5t-2 -239t2 -241t7 -262.5q2 -79 34.5 -110t111.5 -31z" />
    <glyph glyph-name="R" unicode="R" horiz-adv-x="879" 
d="M112 0v1600h338q177 0 256.5 -71.5t84.5 -236.5q3 -80 4 -144.5t0 -125t-4 -130.5q-4 -107 -38.5 -173t-105.5 -99l171 -620h-222l-149 585h-124v-585h-211zM323 772h126q68 0 98.5 27t33.5 84q3 75 4 142.5t0.5 134.5t-4.5 142q-3 58 -33.5 84.5t-97.5 26.5h-127v-641z
" />
    <glyph glyph-name="S" unicode="S" horiz-adv-x="876" 
d="M440 -16q-184 0 -266 75t-89 248q-1 48 -1.5 93.5t1 91.5t5.5 95h200q-4 -83 -5 -161t5 -153q4 -60 39 -86.5t110 -26.5q71 0 105 26.5t39 86.5q4 41 5 84.5t-0.5 87.5t-4.5 85q-3 66 -32.5 104t-89.5 53l-139 32q-90 22 -142 65t-74.5 112t-25.5 169q-1 57 -0.5 114.5
t1.5 116.5q4 115 41.5 185t115 102.5t201.5 32.5q181 0 261.5 -74.5t87.5 -246.5q2 -55 1 -125.5t-4 -141.5h-203q3 83 4 156t-2 144q-2 60 -37 86.5t-109 26.5q-72 0 -106.5 -26.5t-39.5 -86.5q-5 -67 -5 -131t5 -132q3 -69 25 -107t76 -51l125 -27q101 -22 160 -66.5
t86.5 -114.5t30.5 -169q2 -36 2 -74.5t-1 -76t-2 -72.5q-7 -173 -89 -248t-265 -75z" />
    <glyph glyph-name="T" unicode="T" horiz-adv-x="743" 
d="M267 0v1413h-254v187h717v-187h-253v-1413h-210z" />
    <glyph glyph-name="U" unicode="U" horiz-adv-x="905" 
d="M453 -16q-188 0 -270 74.5t-85 245.5q-4 325 -4 648.5t4 647.5h211q-3 -216 -4 -437.5t0.5 -442.5t2.5 -438q0 -63 34.5 -92t110.5 -29t110 29t34 92q1 217 2.5 438t1 442.5t-3.5 437.5h210q5 -324 5 -647.5t-5 -648.5q-2 -171 -84 -245.5t-270 -74.5z" />
    <glyph glyph-name="V" unicode="V" horiz-adv-x="881" 
d="M243 0l-197 1600h217l104 -858l31 -554h84l31 554l104 858h219l-199 -1600h-394z" />
    <glyph glyph-name="W" unicode="W" horiz-adv-x="1447" 
d="M184 0l-126 1600h212l42 -650l37 -762h82l26 762l98 640h336l98 -640l26 -762h82l38 762l43 650h210l-126 -1600h-397l-61 495l-40 914h-81l-42 -914l-60 -495h-397z" />
    <glyph glyph-name="X" unicode="X" horiz-adv-x="820" 
d="M31 0l211 822l-203 778h206l89 -376l43 -316h68l43 316l87 376h206l-196 -784l204 -816h-206l-93 395l-45 325h-68l-45 -325l-95 -395h-206z" />
    <glyph glyph-name="Y" unicode="Y" horiz-adv-x="800" 
d="M294 0v529h-41l-222 1071h214l77 -428l49 -462h58l48 462l77 428h216l-225 -1071h-40v-529h-211z" />
    <glyph glyph-name="Z" unicode="Z" horiz-adv-x="723" 
d="M34 0v175l430 1238h-407v187h632v-180l-441 -1233h407v-187h-621z" />
    <glyph glyph-name="bracketleft" unicode="[" horiz-adv-x="637" 
d="M96 -400v2000h481v-106h-265v-1788h265v-106h-481z" />
    <glyph glyph-name="backslash" unicode="\" horiz-adv-x="715" 
d="M655 -400h-212l-435 2000h212z" />
    <glyph glyph-name="bracketright" unicode="]" horiz-adv-x="637" 
d="M542 -400h-481v106h265v1788h-265v106h481v-2000z" />
    <glyph glyph-name="asciicircum" unicode="^" horiz-adv-x="827" 
d="M96 900l241 479h152l241 -479h-147l-170 339l-169 -339h-148z" />
    <glyph glyph-name="underscore" unicode="_" horiz-adv-x="1349" 
d="M60 -120v40h1229v-40h-1229z" />
    <glyph glyph-name="grave" unicode="`" horiz-adv-x="529" 
d="M262 1280l-171 250h157l163 -250h-149z" />
    <glyph glyph-name="a" unicode="a" horiz-adv-x="858" 
d="M325 -14q-121 0 -184 60.5t-73 194.5q-1 23 -2 48.5t0 46.5q6 76 32 133t83 102.5t155 86.5q51 22 104.5 41t111.5 36v205q0 61 -28 89t-95 28q-58 0 -90 -24t-35 -82q-2 -22 -2.5 -60.5t0.5 -74t2 -50.5h-205q-1 31 -2 75t0 85q4 101 37.5 165t106 95t195.5 31
q125 0 195 -33t99 -104t29 -185l-1 -895h-210v118h-31q-30 -65 -70 -98.5t-122 -33.5zM399 140q52 0 90.5 27t59.5 75l2 339q-40 -12 -81.5 -27.5t-85.5 -40.5q-64 -33 -83.5 -77.5t-22.5 -99.5v-42.5t1 -37.5q5 -55 36 -85.5t84 -30.5z" />
    <glyph glyph-name="b" unicode="b" horiz-adv-x="900" 
d="M563 -17q-88 0 -133.5 34t-83.5 101h-27v-118h-215v1600h215v-518h40q38 67 84 101t133 34q115 0 174 -65.5t64 -219.5q2 -66 3.5 -152t1.5 -178.5t-1.5 -179t-3.5 -154.5q-6 -152 -70.5 -218.5t-180.5 -66.5zM490 140q59 0 83.5 26.5t26.5 84.5q3 81 5 166t2.5 173
t-1 177.5t-5.5 180.5q-2 56 -26.5 84t-84.5 28q-57 0 -103.5 -27t-67.5 -78v-709q21 -54 69.5 -80t101.5 -26z" />
    <glyph glyph-name="c" unicode="c" horiz-adv-x="840" 
d="M554 767q1 27 1.5 60t0 65t-1.5 56q-1 59 -29 83.5t-97 24.5t-97 -24.5t-30 -83.5q-3 -92 -4.5 -177.5t-1.5 -169t1.5 -168.5t4.5 -176q2 -62 32 -87.5t98 -25.5t95 26.5t28 87.5q2 37 2 78.5t-2 100.5h209q2 -28 3 -76t-1 -82q-7 -157 -84.5 -226.5t-249.5 -69.5
q-181 0 -258.5 70t-85.5 226q-3 63 -4 146.5t-1 174t1 174t4 144.5q9 161 88.5 230t252.5 69q175 0 253 -68t84 -223q1 -38 0.5 -85t-2.5 -74h-209z" />
    <glyph glyph-name="d" unicode="d" horiz-adv-x="901" 
d="M329 -17q-118 0 -177 66.5t-65 218.5q-3 70 -4 157.5t-1 179t1.5 176.5t3.5 151q5 155 68.5 220t177.5 65q86 0 132.5 -34t83.5 -101h33v518h215v-1600h-215v118h-35q-37 -66 -85 -100.5t-133 -34.5zM411 140q54 0 102 26.5t69 79.5v709q-21 53 -69 79t-102 26
q-56 0 -81.5 -25.5t-28.5 -80.5q-5 -115 -6.5 -239t0 -243t5.5 -218q3 -62 29 -88t82 -26z" />
    <glyph glyph-name="e" unicode="e" horiz-adv-x="839" 
d="M432 -17q-181 0 -259 70t-86 227q-3 62 -4 146t-1 174t1 173t4 145q9 161 89.5 230t252.5 69q175 0 252 -69t84 -222q1 -23 1.5 -84t0 -136.5t-3.5 -143.5h-468q0 -74 1.5 -149.5t3.5 -155.5q2 -62 32.5 -87.5t97.5 -25.5t94 25.5t30 87.5q2 31 2 77t-3 103h210
q2 -26 3 -75.5t-1 -81.5q-8 -159 -84 -228t-249 -69zM296 715h260q1 48 1 96t-0.5 84.5t-2.5 51.5q-3 61 -32 85.5t-93 24.5q-70 0 -98.5 -26.5t-30.5 -83.5q-1 -58 -2.5 -116.5t-1.5 -115.5z" />
    <glyph glyph-name="f" unicode="f" horiz-adv-x="614" 
d="M150 0v1039h-120v161h120v123q-1 158 81 227t258 69q33 0 72.5 -4t73.5 -9v-156q-33 1 -69 2t-75 1q-64 0 -96 -26t-31 -88v-139h229v-161h-229v-1039h-214z" />
    <glyph glyph-name="g" unicode="g" horiz-adv-x="901" 
d="M421 -362q-152 0 -240 44.5t-102 131.5q-1 13 -2.5 29t-0.5 29q5 53 42.5 87t91.5 41v33q-57 13 -83 41t-32 68q-1 12 -1 24t1 25q4 41 39 69t88 36v33q-71 32 -105 96.5t-40 168.5q-1 35 -2 78t-1 88t1 85.5t2 71.5q8 108 44.5 174t109.5 96t191 30t190.5 -30t108.5 -96
h32q7 55 43.5 82t101.5 27v-162h-26q-49 0 -78 -29t-29 -97v-54q0 -11 0.5 -43t0.5 -72.5t-0.5 -80.5t-2.5 -68q-6 -109 -42 -174.5t-109 -95t-191 -29.5q-86 1 -125.5 -15t-39.5 -52v-10q0 -23 15 -36.5t52 -20t103 -8.5q183 -4 271.5 -56t102.5 -164q2 -15 2.5 -34
t-2.5 -38q-9 -83 -55.5 -132t-128 -70t-195.5 -21zM429 -214q59 0 101 8.5t67 28t31 51.5q4 14 3.5 26.5t-4.5 25.5q-6 30 -28.5 47t-64 25t-105.5 8q-79 2 -126.5 -14.5t-55.5 -67.5q-3 -16 -3 -27.5t3 -23.5q6 -33 29 -52t61.5 -27t91.5 -8zM422 455q68 0 99.5 27.5
t35.5 85.5q2 32 3.5 82t1.5 105.5t-1.5 106t-3.5 82.5q-3 58 -34.5 85.5t-100.5 27.5q-70 0 -103 -27.5t-36 -89.5q-1 -32 -2 -81t-1.5 -103.5t0.5 -103.5t3 -80q4 -60 36 -88.5t103 -28.5z" />
    <glyph glyph-name="h" unicode="h" horiz-adv-x="916" 
d="M104 0v1600h215v-518h40q38 67 84 101t133 34q119 0 178.5 -66.5t60.5 -218.5l2 -932h-214l-2 950q0 58 -25.5 84t-83.5 26q-59 0 -105.5 -27t-67.5 -78v-955h-215z" />
    <glyph glyph-name="i" unicode="i" horiz-adv-x="419" 
d="M88 1415v185h243v-185h-243zM104 0v1200h211v-1200h-211z" />
    <glyph glyph-name="j" unicode="j" horiz-adv-x="421" 
d="M92 1415v185h244v-185h-244zM-26 -417q-32 0 -73 3.5t-75 8.5v159q28 -2 69.5 -3.5t77.5 -1.5q69 0 100.5 26.5t31.5 83.5v1341h212v-1322q0 -157 -82 -226t-261 -69z" />
    <glyph glyph-name="k" unicode="k" horiz-adv-x="810" 
d="M104 0v1600h201v-313l-23 -589h39l108 280l110 222h222l-243 -475l292 -725h-220l-204 512l-76 -128v-384h-206z" />
    <glyph glyph-name="l" unicode="l" horiz-adv-x="419" 
d="M104 0v1600h211v-1600h-211z" />
    <glyph glyph-name="m" unicode="m" horiz-adv-x="1373" 
d="M104 0v1200h212v-118h40q36 66 79.5 100.5t129.5 34.5q83 0 137.5 -35t78.5 -112h36q36 65 87 106t137 41q113 0 172.5 -66t60.5 -219v-932h-212v950q0 58 -28 84t-79 26q-53 0 -93 -29.5t-63 -77.5v-953h-212v950q0 58 -26.5 84t-80.5 26t-99 -27.5t-65 -77.5v-955h-212
z" />
    <glyph glyph-name="n" unicode="n" horiz-adv-x="916" 
d="M104 0v1200h212v-118h43q38 66 86 100.5t131 34.5q119 0 179.5 -66.5t61.5 -218.5v-932h-211v950q-1 58 -28.5 84t-85.5 26q-54 0 -105 -28t-71 -78v-954h-212z" />
    <glyph glyph-name="o" unicode="o" horiz-adv-x="871" 
d="M436 -17q-124 0 -198.5 33t-109.5 104.5t-41 188.5q-3 53 -4 127.5t-1 156.5t1 160t4 139q7 118 42 189.5t109.5 103.5t197.5 32q126 0 200 -33.5t108 -104.5t40 -187q2 -58 3.5 -132.5t1.5 -155t-1.5 -157.5t-3.5 -138q-6 -117 -40.5 -188.5t-108.5 -104.5t-199 -33z
M436 144q75 0 105 28.5t32 87.5q3 90 4.5 174.5t2 167t-1.5 166.5t-5 174q-2 60 -33 87t-104 27t-105 -29t-34 -87q-2 -74 -3.5 -156.5t-2 -169.5t1.5 -176t5 -177q3 -61 34 -89t104 -28z" />
    <glyph glyph-name="p" unicode="p" horiz-adv-x="900" 
d="M104 -400v1600h215v-118h33q38 67 83 101t134 34q117 0 178 -66t67 -219q2 -57 3.5 -145.5t1.5 -186.5t-1.5 -186.5t-3.5 -145.5q-6 -152 -72.5 -218.5t-182.5 -66.5q-70 0 -117.5 31.5t-89.5 103.5h-33v-518h-215zM479 140q57 0 88 26.5t33 84.5q5 102 6.5 193t1.5 176
t-2 167.5t-6 166.5q-2 55 -27.5 80.5t-82.5 25.5t-103.5 -27t-67.5 -78v-709q23 -58 61.5 -82t98.5 -24z" />
    <glyph glyph-name="q" unicode="q" horiz-adv-x="901" 
d="M582 -400v518h-31q-41 -73 -89 -104t-118 -31q-117 0 -184 66.5t-74 218.5q-2 64 -3 152t-1 183t1 181.5t3 147.5q7 153 67.5 219t178.5 66q87 0 133 -34t82 -101h35v118h214v-1600h-214zM422 140q61 0 99 24t61 82v709q-21 53 -69 79t-103 26q-53 0 -81 -25.5t-30 -86.5
q-4 -107 -5 -230t0.5 -244t5.5 -224q3 -57 34.5 -83.5t87.5 -26.5z" />
    <glyph glyph-name="r" unicode="r" horiz-adv-x="632" 
d="M104 0v1200h216v-130h41q16 76 61 106t118 30q22 0 43 -2t38 -3v-162h-78q-97 0 -151 -29.5t-72 -102.5v-907h-216z" />
    <glyph glyph-name="s" unicode="s" horiz-adv-x="795" 
d="M392 -17q-170 0 -240.5 69.5t-77.5 226.5q-1 42 -0.5 80t2.5 69h190q-3 -59 -2.5 -100t1.5 -71q2 -63 32 -88t95 -25q73 0 105 25.5t33 88.5q1 28 1 42.5v28t-1 37.5q-1 56 -18.5 85.5t-67.5 43.5l-124 34q-85 24 -140 60.5t-81.5 93.5t-28.5 145q-1 28 -0.5 48t0.5 42
q2 160 76.5 229.5t256.5 69.5q168 0 239.5 -67.5t77.5 -225.5q1 -22 0.5 -72t-3.5 -77h-195q2 28 2 61v63t-1 49q-2 60 -28 84t-92 24q-68 0 -95 -24t-29 -84q0 -14 -1 -38t-1 -62q1 -61 17.5 -96.5t74.5 -51.5l113 -28q125 -30 186.5 -97.5t61.5 -199.5q0 -27 -0.5 -50
t-1.5 -51q-2 -155 -78 -223t-258 -68z" />
    <glyph glyph-name="t" unicode="t" horiz-adv-x="611" 
d="M485 -17q-190 0 -269 68.5t-80 230.5l-1 757h-103v161h108v340h214v-340h213v-161h-219l2 -781q0 -68 28.5 -91.5t107.5 -23.5q29 0 52 1t52 3v-154q-24 -4 -49.5 -7t-55.5 -3z" />
    <glyph glyph-name="u" unicode="u" horiz-adv-x="911" 
d="M343 -17q-117 0 -182 67t-65 219v931h213l2 -949q0 -58 25.5 -84.5t82.5 -26.5q55 0 104 28.5t69 77.5v954h214v-1200h-214v118h-32q-40 -71 -93 -103t-124 -32z" />
    <glyph glyph-name="v" unicode="v" horiz-adv-x="785" 
d="M206 0l-175 1200h218l71 -604l36 -438h70l38 438l72 604h219l-178 -1200h-371z" />
    <glyph glyph-name="w" unicode="w" horiz-adv-x="1313" 
d="M175 0l-144 1200h214l50 -604l31 -438h70l20 438l57 601h368l53 -601l23 -438h68l30 438l54 604h213l-147 -1200h-373l-38 464l-30 575h-75l-32 -575l-35 -464h-377z" />
    <glyph glyph-name="x" unicode="x" horiz-adv-x="741" 
d="M23 0l198 625l-194 575h208l72 -255l41 -235h44l44 235l71 255h207l-193 -579l197 -621h-207l-80 309l-40 246h-41l-39 -246l-80 -309h-208z" />
    <glyph glyph-name="y" unicode="y" horiz-adv-x="803" 
d="M205 -414q-31 0 -73 4t-75 9v159q27 -3 70.5 -5t75.5 -2q83 0 114 25.5t41 89.5l22 134h-140l-195 1200h218l61 -565l55 -477h65l51 477l57 565h219l-199 -1319q-16 -98 -52 -163.5t-110.5 -98.5t-204.5 -33z" />
    <glyph glyph-name="z" unicode="z" horiz-adv-x="713" 
d="M43 0v135l406 907l-397 -2v158l626 2v-139l-412 -903h402v-158h-625z" />
    <glyph glyph-name="braceleft" unicode="{" horiz-adv-x="707" 
d="M647 -402q-119 0 -215 34.5t-152 109.5t-56 197q0 23 1.5 69t4 101.5t4.5 109t3.5 94.5t1.5 58q0 81 -30.5 104t-84.5 23h-64v199h64q54 0 84.5 23t30.5 105q0 16 -1.5 57.5t-3.5 95.5t-4 109t-3.5 101.5t-1.5 70.5q0 123 55.5 197.5t151.5 109t215 34.5v-108
q-59 0 -107.5 -31t-77 -84t-28.5 -118q0 -20 1.5 -57t3.5 -82l4 -90t3.5 -83.5t1.5 -60.5q0 -107 -43.5 -180.5t-130.5 -89.5v-35q87 -15 130.5 -89t43.5 -180q0 -22 -1.5 -60.5t-3.5 -83.5t-4 -90.5t-3.5 -82t-1.5 -56.5q0 -65 28.5 -118t77 -84t107.5 -31v-108z" />
    <glyph glyph-name="bar" unicode="|" horiz-adv-x="404" 
d="M96 1831h212v-2071h-212v2071z" />
    <glyph glyph-name="braceright" unicode="}" horiz-adv-x="706" 
d="M59 -402v108q59 0 107.5 31t77 84t28.5 118q0 20 -1.5 56.5t-3.5 82t-4 90.5t-3.5 83.5t-1.5 60.5q0 106 43.5 180t130.5 89v35q-87 16 -130.5 89.5t-43.5 180.5q0 22 1.5 60.5t3.5 83.5l4 90t3.5 82t1.5 57q0 65 -28.5 118t-77 84t-107.5 31v108q119 0 215 -34.5
t151.5 -109t55.5 -197.5q0 -24 -1.5 -70.5t-3.5 -101.5t-4.5 -109t-4 -95.5t-1.5 -57.5q0 -82 31 -105t85 -23h64v-199h-64q-54 0 -85 -23t-31 -104q0 -17 1.5 -58t4 -94.5t5 -109t4 -101.5t1.5 -69q0 -122 -56 -197t-152 -109.5t-215 -34.5z" />
    <glyph glyph-name="asciitilde" unicode="~" horiz-adv-x="1011" 
d="M659 616q-56 3 -97 22t-73.5 43.5t-65 44.5t-71.5 24q-55 5 -89.5 -27t-38.5 -91h-128q10 149 83.5 216t182.5 60q62 -3 103 -22.5t72 -44.5t60.5 -43.5t68.5 -20.5q55 -3 88 25.5t34 81.5h127q-5 -140 -75 -206t-181 -62z" />
    <glyph glyph-name="uni00A0" unicode="&#xa0;" horiz-adv-x="424" 
 />
    <glyph glyph-name="exclamdown" unicode="&#xa1;" horiz-adv-x="492" 
d="M146 837h158l28 -587v-650h-215v651zM67 1200h315v-225h-315v225z" />
    <glyph glyph-name="cent" unicode="&#xa2;" horiz-adv-x="840" 
d="M331 0v190q-123 17 -180 86t-64 203q-3 61 -4 150.5t-1 185t1.5 177t3.5 126.5q7 136 64.5 205.5t179.5 86.5v190h187v-189q126 -15 184 -83t63 -202q1 -35 0.5 -83.5t-2.5 -75.5h-210q2 27 2.5 61t0 66.5t-1.5 53.5q-2 59 -29.5 83.5t-96.5 24.5t-97.5 -24.5
t-30.5 -83.5q-2 -92 -3.5 -177.5t-1.5 -169t1.5 -168.5t3.5 -176q2 -62 32 -87.5t98 -25.5t95 26.5t29 87.5q1 34 1.5 76.5t-2.5 102.5h210q2 -28 3 -76t-1 -82q-6 -136 -63.5 -205.5t-183.5 -84.5v-189h-187z" />
    <glyph glyph-name="sterling" unicode="&#xa3;" horiz-adv-x="942" 
d="M131 0v181q38 24 62 79.5t35.5 138t11.5 185.5q0 50 -4 93t-11 81h-129v114h101q-16 60 -32.5 121.5t-27.5 133.5t-10 164q1 155 84 240t266 85q184 0 265 -76t86 -250q1 -43 1.5 -81t-0.5 -81.5t-2 -103.5h-213q1 30 1.5 71.5t0.5 85.5v82.5t-1 62.5q-1 60 -35 88
t-103 28q-68 0 -102.5 -28t-35.5 -88q0 -83 14 -156.5t33 -146t35 -151.5h195v-114h-178q4 -33 6.5 -68.5t2.5 -74.5q0 -142 -31 -240.5t-82 -154.5v-33h511v-187h-714z" />
    <glyph glyph-name="currency" unicode="&#xa4;" horiz-adv-x="1085" 
d="M196 50l-95 77l138 173q-21 36 -32 85t-14 112q-3 53 -4 127.5t-1 156.5t1 160t4 139q3 63 15 112t33 87l-145 174l91 77l138 -167q77 42 217 42q138 0 214 -40l139 163l91 -80l-144 -168q22 -37 33.5 -87t14.5 -113q3 -58 4.5 -132.5t1.5 -155t-1.5 -157.5t-4.5 -138
q-3 -65 -15 -115.5t-33 -88.5l131 -164l-93 -78l-129 158q-73 -38 -209 -38q-140 0 -217 42zM542 332q75 0 105 28.5t31 87.5q4 90 5.5 174.5t1.5 167t-1.5 166.5t-5.5 174q-1 60 -32 87t-104 27t-104.5 -29t-34.5 -87q-2 -74 -4 -156.5t-2 -169.5t2 -176t5 -177
q2 -61 33.5 -89t104.5 -28z" />
    <glyph glyph-name="yen" unicode="&#xa5;" horiz-adv-x="800" 
d="M295 0v180h-167v112h167v71h-167v112h167v54h-41l-223 1071h216l80 -428l44 -462h58l45 462l80 428h216l-225 -1071h-40v-54h169v-112h-169v-71h169v-112h-169v-180h-210z" />
    <glyph glyph-name="brokenbar" unicode="&#xa6;" horiz-adv-x="404" 
d="M96 1831h212v-815h-212v815zM96 536h212v-776h-212v776z" />
    <glyph glyph-name="section" unicode="&#xa7;" horiz-adv-x="858" 
d="M422 -417q-114 0 -182 25t-99.5 84.5t-36.5 164.5q-1 26 -1.5 60t0.5 66.5t3 53.5h189q-1 -42 -2 -70t-0.5 -54t1.5 -60q3 -60 33.5 -84.5t94.5 -24.5q73 0 104.5 25t32.5 88q1 41 1.5 78.5t-0.5 77.5q-1 55 -16 86t-70 43l-110 28q-115 29 -188 87.5t-77 177.5
q-2 66 -2 132.5t2 139.5q3 86 40 139t92 77v38q-58 20 -92.5 62.5t-40.5 132.5q-2 41 -1.5 89t3.5 89q9 107 40 165.5t99.5 81t192.5 22.5q170 0 241 -67.5t76 -223.5q1 -31 1.5 -78.5t-3.5 -93.5h-196q2 32 2.5 69.5t0 71.5t-1.5 52q-3 63 -29.5 80t-90.5 17
q-69 0 -93.5 -17.5t-29.5 -76.5q-3 -34 -4 -87.5t1 -94.5q3 -57 17 -89.5t74 -45.5l114 -25q116 -26 178.5 -99.5t69.5 -193.5q4 -79 3.5 -135t-4.5 -128q-5 -73 -39 -122.5t-90 -72.5v-29q62 -24 96 -77.5t36 -130.5q1 -33 0 -75t-3 -72q-8 -104 -40.5 -164t-103.5 -86
t-192 -26zM436 327q72 0 98 33t31 80q4 38 5.5 86.5t0 97t-5.5 85.5q-5 46 -30.5 78.5t-98.5 32.5q-70 0 -100 -32t-35 -79q-5 -65 -4 -136.5t5 -132.5q6 -49 35 -81t99 -32z" />
    <glyph glyph-name="dieresis" unicode="&#xa8;" horiz-adv-x="664" 
d="M385 1310v157h157v-157h-157zM126 1310v157h157v-157h-157z" />
    <glyph glyph-name="copyright" unicode="&#xa9;" horiz-adv-x="1311" 
d="M656 -10q-186 0 -310.5 67.5t-187 203.5t-62.5 339q0 204 62.5 339.5t187.5 203t310 67.5q279 0 419 -152.5t140 -457.5q0 -203 -62 -339t-186.5 -203.5t-310.5 -67.5zM657 96q218 0 327.5 125t109.5 379q0 253 -109.5 378.5t-328.5 125.5q-220 0 -329.5 -125
t-109.5 -379q0 -253 109.5 -378.5t330.5 -125.5zM660 204q-115 0 -168.5 46.5t-60.5 160.5q-2 35 -2.5 83.5t-0.5 101.5t1 101.5t2 83.5q5 114 58 162t169 48q118 0 169 -47.5t56 -156.5q2 -19 1 -37t-3 -32h-131q2 20 1 43t-1 40q0 49 -21.5 67t-70.5 18q-47 0 -68.5 -18.5
t-23.5 -67.5q-2 -63 -2 -134.5t1 -141.5t1 -129q1 -50 23.5 -68.5t70.5 -18.5q47 0 67.5 19t22.5 68q2 21 2 38.5t-2 49.5h131q3 -20 3.5 -36.5t-1.5 -37.5q-6 -110 -56 -157.5t-167 -47.5z" />
    <glyph glyph-name="ordfeminine" unicode="&#xaa;" horiz-adv-x="753" 
d="M300 754q-100 0 -144.5 44t-57.5 142q-1 13 -1 30.5v33.5q7 82 54 133.5t165 92.5q37 14 81 26.5t92 24.5q0 33 -1 66.5t-3 68.5q-1 36 -19 55.5t-80 19.5q-46 0 -70 -15.5t-29 -56.5q-1 -8 -1 -34.5t1 -53t2 -35.5h-166q-1 8 -2 29t-1 45t1 39q5 104 65 156t207 52
q100 0 156.5 -24.5t79.5 -77.5t26 -138q1 -39 1.5 -98.5t0.5 -128t-0.5 -139.5t-1 -135t-0.5 -111h-170q0 23 0.5 43.5t1.5 40.5h-28q-23 -45 -58 -70t-101 -25zM364 875q40 0 74 17.5t51 51.5q1 59 1.5 113.5t0.5 107.5q-36 -8 -71 -18.5t-67 -25.5q-51 -20 -67.5 -49.5
t-20.5 -66.5q0 -9 0.5 -26.5t0.5 -25.5q2 -39 30 -58.5t68 -19.5z" />
    <glyph glyph-name="guillemotleft" unicode="&#xab;" horiz-adv-x="765" 
d="M356 843l-321 -319v202l321 319v-202zM356 206l-321 318v202l321 -319v-201zM668 843l-321 -319v202l321 319v-202zM668 206l-321 318v202l321 -319v-201z" />
    <glyph glyph-name="logicalnot" unicode="&#xac;" horiz-adv-x="971" 
d="M709 481v338h-613v163h779v-501h-166z" />
    <glyph glyph-name="uni00AD" unicode="&#xad;" horiz-adv-x="792" 
d="M60 646v187h672v-187h-672z" />
    <glyph glyph-name="registered" unicode="&#xae;" horiz-adv-x="900" 
d="M452 1004q-176 0 -266 94t-90 277q0 186 90 280t266 94q175 0 263.5 -94t88.5 -280q0 -183 -88.5 -277t-263.5 -94zM452 1071q146 0 214.5 74t68.5 230q0 158 -68.5 232t-214.5 74q-147 0 -217 -73t-70 -233q0 -156 70 -230t217 -74zM347 1176v424h110q57 0 86.5 -22
t31.5 -79q1 -7 1 -21t-1 -26q0 -28 -14.5 -47t-45.5 -26v-13q31 -7 44.5 -24.5t14.5 -49.5q1 -14 2 -35t1 -43t-2 -38h-77q1 31 0 66t-2 60q-1 40 -39 40h-32v-166h-78zM425 1409h33q18 0 28.5 8.5t10.5 26.5q1 16 1 29t-1 32q-1 28 -40 28h-32v-124z" />
    <glyph glyph-name="macron" unicode="&#xaf;" horiz-adv-x="864" 
d="M85 1393h573v-102h-573v102z" />
    <glyph glyph-name="degree" unicode="&#xb0;" horiz-adv-x="668" 
d="M335 1182q-65 0 -119 30t-87 79.5t-33 108.5q0 60 32.5 110t87 80t119.5 30q64 0 117.5 -30t86.5 -80t33 -110q0 -59 -33 -108.5t-86.5 -79.5t-117.5 -30zM335 1273q59 0 100.5 37.5t41.5 89.5q0 54 -41.5 91.5t-100.5 37.5q-60 0 -102.5 -37t-42.5 -92q0 -52 42.5 -89.5
t102.5 -37.5z" />
    <glyph glyph-name="plusminus" unicode="&#xb1;" horiz-adv-x="1011" 
d="M424 516v151h-328v161h328v189h163v-189h328v-161h-328v-151h-163zM96 293v132h819v-132h-819z" />
    <glyph glyph-name="uni00B2" unicode="&#xb2;" horiz-adv-x="581" 
d="M76 879q-1 62 -1 93t1 59q2 76 47 126t115 83l72 35q30 15 40.5 32.5t12.5 45.5q3 24 2.5 44.5t-2.5 44.5q0 18 -15 31t-51 13q-63 0 -64 -44q-2 -30 -1 -64.5t2 -54.5h-156q-1 28 -2 48t0 51q5 95 61.5 141t159.5 46q112 0 168 -47.5t57 -139.5q0 -13 0.5 -21.5
t0.5 -18.5v-28q-1 -73 -41.5 -117.5t-111.5 -75.5l-83 -36q-20 -11 -33.5 -31.5t-13.5 -45.5v-35h269v-134h-433z" />
    <glyph glyph-name="uni00B3" unicode="&#xb3;" horiz-adv-x="587" 
d="M295 870q-112 0 -172.5 44.5t-61.5 132.5q0 13 -0.5 22t0 19.5t1.5 27.5h158q-2 -17 -2 -36t1 -33q1 -23 18 -38t53 -15q37 0 54 13t17 36q1 29 1 49.5t-1 44.5q-1 30 -19.5 43t-55.5 13h-103l-6 113l141 160h-244v134h439l-2 -130l-156 -159q77 -9 121.5 -50t44.5 -121
q1 -13 1 -31.5v-35t-1 -26.5q-1 -84 -57.5 -130.5t-168.5 -46.5z" />
    <glyph glyph-name="acute" unicode="&#xb4;" horiz-adv-x="526" 
d="M99 1280l176 250h157l-184 -250h-149z" />
    <glyph glyph-name="uni00B5" unicode="&#xb5;" horiz-adv-x="931" 
d="M98 -400l-2 1600h213l2 -949q1 -58 27.5 -84.5t83.5 -26.5q52 0 99.5 28.5t67.5 77.5v954h214v-981q0 -72 8.5 -129t23.5 -90h-213q-10 21 -17 51t-11 67h-38q-30 -53 -66.5 -85t-87.5 -41q-47 -7 -90 1v-393h-214z" />
    <glyph glyph-name="paragraph" unicode="&#xb6;" horiz-adv-x="1059" 
d="M515 -200v957h-73q-113 0 -186.5 28.5t-111.5 99t-46 197.5q-2 32 -2 72t0.5 74t1.5 48q7 120 42.5 191t109 102t192.5 31h521v-118h-94v-1682h-141v1682h-72v-1682h-141z" />
    <glyph glyph-name="periodcentered" unicode="&#xb7;" horiz-adv-x="345" 
d="M88 748v169h169v-169h-169z" />
    <glyph glyph-name="cedilla" unicode="&#xb8;" horiz-adv-x="482" 
d="M80 -316v112h54q54 0 74.5 23t10.5 77l-21 104h122l20 -104q19 -110 -31.5 -161t-173.5 -51h-55z" />
    <glyph glyph-name="uni00B9" unicode="&#xb9;" horiz-adv-x="385" 
d="M134 881v589h-101l-3 53l139 78h130v-720h-165z" />
    <glyph glyph-name="ordmasculine" unicode="&#xba;" horiz-adv-x="762" 
d="M380 753q-146 0 -208.5 53.5t-70.5 189.5q-1 22 -2.5 59.5t-2 82.5t0 90.5t1.5 84t3 62.5q8 87 34.5 140t84 77.5t158.5 24.5q156 0 217 -58t68 -184q2 -25 3 -64.5t1.5 -85.5t0 -91t-1.5 -81.5t-3 -56.5q-7 -83 -33 -137t-84.5 -80t-165.5 -26zM383 878q59 0 83.5 19
t25.5 59q3 72 4.5 129t1.5 108.5t-1.5 105t-4.5 117.5q-1 39 -26.5 57t-82.5 18t-83.5 -18t-28.5 -58q-3 -88 -4.5 -156.5t0 -138.5t4.5 -164q2 -41 28.5 -59.5t83.5 -18.5z" />
    <glyph glyph-name="guillemotright" unicode="&#xbb;" horiz-adv-x="731" 
d="M375 843v202l321 -319v-202zM375 206v201l321 319v-202zM63 843v202l321 -319v-202zM63 206v201l321 319v-202z" />
    <glyph glyph-name="onequarter" unicode="&#xbc;" horiz-adv-x="1060" 
d="M134 881v589h-101l-3 53l139 78h130v-720h-165zM-96 0l909 1600h159l-911 -1600h-157zM932 720v-414h89v-133h-89v-173h-149v173h-258v127l201 420h206zM783 306l20 157l18 123h-29l-50 -123l-61 -157h102z" />
    <glyph glyph-name="onehalf" unicode="&#xbd;" horiz-adv-x="1087" 
d="M134 881v589h-101l-3 53l139 78h130v-720h-165zM-96 0l909 1600h159l-911 -1600h-157zM583 0q-1 62 -1 93t1 59q2 76 47 126t115 83l72 35q30 15 40.5 32.5t12.5 45.5q3 24 2.5 44.5t-2.5 44.5q0 18 -15 31t-51 13q-63 0 -64 -44q-2 -30 -1 -64.5t2 -54.5h-156
q-1 28 -2 48t0 51q5 95 61.5 141t159.5 46q112 0 168 -47.5t57 -139.5q0 -13 0.5 -21.5t0.5 -18.5v-28q-1 -73 -41.5 -117.5t-111.5 -75.5l-83 -36q-20 -11 -33.5 -31.5t-13.5 -45.5v-35h269v-134h-433z" />
    <glyph glyph-name="threequarters" unicode="&#xbe;" horiz-adv-x="1309" 
d="M295 870q-112 0 -172.5 44.5t-61.5 132.5q0 13 -0.5 22t0 19.5t1.5 27.5h158q-2 -17 -2 -36t1 -33q1 -23 18 -38t53 -15q37 0 54 13t17 36q1 29 1 49.5t-1 44.5q-1 30 -19.5 43t-55.5 13h-103l-6 113l141 160h-244v134h439l-2 -130l-156 -159q77 -9 121.5 -50t44.5 -121
q1 -13 1 -31.5v-35t-1 -26.5q-1 -84 -57.5 -130.5t-168.5 -46.5zM153 0l909 1600h159l-911 -1600h-157zM1181 720v-414h89v-133h-89v-173h-149v173h-258v127l201 420h206zM1032 306l20 157l18 123h-29l-50 -123l-61 -157h102z" />
    <glyph glyph-name="questiondown" unicode="&#xbf;" horiz-adv-x="851" 
d="M431 -419q-198 0 -284.5 79.5t-86.5 261.5q0 59 -0.5 98.5t-0.5 68.5v56q1 100 17 161t41.5 96t58.5 54.5t67 34.5l47 22q45 20 54 55.5t13 71.5l8 170h175l5 -170q4 -67 -5 -118t-42.5 -92.5t-101.5 -80.5l-41 -22q-29 -15 -42.5 -40.5t-17.5 -61.5t-4 -81v-261
q0 -55 34 -84.5t104 -29.5q65 0 98 28.5t36 85.5q4 65 4 137t-3 138h226q2 -54 2.5 -91.5t0.5 -70.5t-2 -74q-9 -182 -91.5 -261.5t-268.5 -79.5zM294 975v225h315v-225h-315z" />
    <glyph glyph-name="Agrave" unicode="&#xc0;" horiz-adv-x="865" 
d="M46 0l191 1600h392l190 -1600h-216l-38 409h-265l-38 -409h-216zM319 596h227l-33 345l-37 472h-87l-37 -473zM339 1680l-171 250h157l163 -250h-149z" />
    <glyph glyph-name="Aacute" unicode="&#xc1;" horiz-adv-x="865" 
d="M46 0l191 1600h392l190 -1600h-216l-38 409h-265l-38 -409h-216zM319 596h227l-33 345l-37 472h-87l-37 -473zM367 1680l176 250h157l-184 -250h-149z" />
    <glyph glyph-name="Acircumflex" unicode="&#xc2;" horiz-adv-x="865" 
d="M46 0l191 1600h392l190 -1600h-216l-38 409h-265l-38 -409h-216zM319 596h227l-33 345l-37 472h-87l-37 -473zM202 1681l161 251h134l161 -251h-147l-81 136l-81 -136h-147z" />
    <glyph glyph-name="Atilde" unicode="&#xc3;" horiz-adv-x="865" 
d="M46 0l191 1600h392l190 -1600h-216l-38 409h-265l-38 -409h-216zM319 596h227l-33 345l-37 472h-87l-37 -473zM584 1869h91q-3 -95 -40.5 -139t-105.5 -44q-42 0 -67.5 13t-43 30.5t-34.5 30.5t-44 13q-25 0 -38.5 -17t-19.5 -59h-91q8 103 47 146.5t106 43.5
q44 0 68.5 -13t41 -30.5t33 -30.5t43.5 -13q30 0 41.5 18.5t12.5 50.5z" />
    <glyph glyph-name="Adieresis" unicode="&#xc4;" horiz-adv-x="865" 
d="M46 0l191 1600h392l190 -1600h-216l-38 409h-265l-38 -409h-216zM319 596h227l-33 345l-37 472h-87l-37 -473zM484 1710v157h157v-157h-157zM225 1710v157h157v-157h-157z" />
    <glyph glyph-name="Aring" unicode="&#xc5;" horiz-adv-x="865" 
d="M46 0l191 1600h392l190 -1600h-216l-38 409h-265l-38 -409h-216zM319 596h227l-33 345l-37 472h-87l-37 -473zM433 1670q-75 0 -129 54t-54 129t54 129t129 54t129 -54t54 -129t-54 -129t-129 -54zM433 1788q28 0 47.5 19.5t19.5 45.5q0 28 -20 47.5t-47 19.5
q-26 0 -46 -19.5t-20 -47.5q0 -26 19.5 -45.5t46.5 -19.5z" />
    <glyph glyph-name="AE" unicode="&#xc6;" horiz-adv-x="1253" 
d="M46 0l305 1600h847v-187h-391v-511h371v-187h-371v-528h391v-187h-602v403h-245l-76 -403h-229zM390 591h206v823h-83l-64 -525z" />
    <glyph glyph-name="Ccedilla" unicode="&#xc7;" horiz-adv-x="902" 
d="M457 -17q-186 0 -270 75t-88 248q-2 133 -3 254.5t-1 239.5t1 239.5t3 255.5q3 167 89 243.5t268 76.5q181 0 266.5 -77t91.5 -244q2 -44 2 -88.5t-1 -89t-3 -89.5h-210q1 48 2 93.5t1 91.5t-2 93q-2 75 -35.5 105t-111.5 30q-77 0 -110.5 -30t-35.5 -105
q-3 -139 -5 -263t-2 -242.5t2 -242t5 -262.5q2 -75 36 -105.5t111 -30.5q82 0 117 30.5t37 105.5q2 45 2.5 87t-0.5 91t-3 113h211q3 -78 3.5 -147t-2.5 -133q-6 -173 -91 -248t-274 -75zM273 -304v112h54q54 0 74.5 23t10.5 77l-21 104h122l20 -104q19 -110 -31.5 -161
t-173.5 -51h-55z" />
    <glyph glyph-name="Egrave" unicode="&#xc8;" horiz-adv-x="769" 
d="M112 0v1600h602v-187h-391v-511h371v-187h-371v-528h391v-187h-602zM317 1678l-171 250h157l163 -250h-149z" />
    <glyph glyph-name="Eacute" unicode="&#xc9;" horiz-adv-x="769" 
d="M112 0v1600h602v-187h-391v-511h371v-187h-371v-528h391v-187h-602zM345 1678l176 250h157l-184 -250h-149z" />
    <glyph glyph-name="Ecircumflex" unicode="&#xca;" horiz-adv-x="769" 
d="M112 0v1600h602v-187h-391v-511h371v-187h-371v-528h391v-187h-602zM181 1679l161 251h134l161 -251h-147l-81 136l-81 -136h-147z" />
    <glyph glyph-name="Edieresis" unicode="&#xcb;" horiz-adv-x="769" 
d="M112 0v1600h602v-187h-391v-511h371v-187h-371v-528h391v-187h-602zM462 1708v157h157v-157h-157zM203 1708v157h157v-157h-157z" />
    <glyph glyph-name="Igrave" unicode="&#xcc;" horiz-adv-x="435" 
d="M112 0v1600h211v-1600h-211zM123 1680l-171 250h157l163 -250h-149z" />
    <glyph glyph-name="Iacute" unicode="&#xcd;" horiz-adv-x="435" 
d="M112 0v1600h211v-1600h-211zM152 1680l176 250h157l-184 -250h-149z" />
    <glyph glyph-name="Icircumflex" unicode="&#xce;" horiz-adv-x="435" 
d="M112 0v1600h211v-1600h-211zM-13 1681l161 251h134l161 -251h-147l-81 136l-81 -136h-147z" />
    <glyph glyph-name="Idieresis" unicode="&#xcf;" horiz-adv-x="435" 
d="M112 0v1600h211v-1600h-211zM269 1710v157h157v-157h-157zM10 1710v157h157v-157h-157z" />
    <glyph glyph-name="Eth" unicode="&#xd0;" horiz-adv-x="973" 
d="M78 946h427v-110h-427v110zM179 0v1600h346q183 0 264.5 -74.5t84.5 -245.5t4 -325.5t0 -308t-4 -325.5q-3 -171 -83 -246t-260 -75h-352zM390 187h141q69 0 100 27.5t32 85.5q4 136 5.5 259t1.5 242t-1.5 242t-5.5 259q-1 57 -33 84t-105 27h-135v-1226z" />
    <glyph glyph-name="Ntilde" unicode="&#xd1;" horiz-adv-x="1081" 
d="M112 0v1600h383l100 -508l125 -904h86l-34 801l-14 611h211v-1600h-398l-106 555l-101 859h-88l31 -810l16 -604h-211zM700 1869h91q-3 -95 -40.5 -139t-105.5 -44q-42 0 -67.5 13t-43 30.5t-34.5 30.5t-44 13q-25 0 -38.5 -17t-19.5 -59h-91q8 103 47 146.5t106 43.5
q44 0 68.5 -13t41 -30.5t33 -30.5t43.5 -13q30 0 41.5 18.5t12.5 50.5z" />
    <glyph glyph-name="Ograve" unicode="&#xd2;" horiz-adv-x="914" 
d="M456 -16q-187 0 -270 76t-87 252q-2 136 -3 256t-1 235t1 234t3 252q4 175 87 251t270 76q185 0 268 -76t87 -251q4 -134 6 -253t2 -234t-2 -234.5t-6 -255.5q-4 -176 -87 -252t-268 -76zM456 160q79 0 111.5 31t33.5 110q4 137 6.5 259.5t2.5 240t-2.5 240t-6.5 259.5
q-1 78 -33.5 109.5t-111.5 31.5t-111.5 -31.5t-34.5 -109.5q-5 -135 -7 -256.5t-2 -239t2 -241t7 -262.5q2 -79 34.5 -110t111.5 -31zM363 1680l-171 250h157l163 -250h-149z" />
    <glyph glyph-name="Oacute" unicode="&#xd3;" horiz-adv-x="914" 
d="M456 -16q-187 0 -270 76t-87 252q-2 136 -3 256t-1 235t1 234t3 252q4 175 87 251t270 76q185 0 268 -76t87 -251q4 -134 6 -253t2 -234t-2 -234.5t-6 -255.5q-4 -176 -87 -252t-268 -76zM456 160q79 0 111.5 31t33.5 110q4 137 6.5 259.5t2.5 240t-2.5 240t-6.5 259.5
q-1 78 -33.5 109.5t-111.5 31.5t-111.5 -31.5t-34.5 -109.5q-5 -135 -7 -256.5t-2 -239t2 -241t7 -262.5q2 -79 34.5 -110t111.5 -31zM392 1680l176 250h157l-184 -250h-149z" />
    <glyph glyph-name="Ocircumflex" unicode="&#xd4;" horiz-adv-x="914" 
d="M456 -16q-187 0 -270 76t-87 252q-2 136 -3 256t-1 235t1 234t3 252q4 175 87 251t270 76q185 0 268 -76t87 -251q4 -134 6 -253t2 -234t-2 -234.5t-6 -255.5q-4 -176 -87 -252t-268 -76zM456 160q79 0 111.5 31t33.5 110q4 137 6.5 259.5t2.5 240t-2.5 240t-6.5 259.5
q-1 78 -33.5 109.5t-111.5 31.5t-111.5 -31.5t-34.5 -109.5q-5 -135 -7 -256.5t-2 -239t2 -241t7 -262.5q2 -79 34.5 -110t111.5 -31zM227 1681l161 251h134l161 -251h-147l-81 136l-81 -136h-147z" />
    <glyph glyph-name="Otilde" unicode="&#xd5;" horiz-adv-x="914" 
d="M456 -16q-187 0 -270 76t-87 252q-2 136 -3 256t-1 235t1 234t3 252q4 175 87 251t270 76q185 0 268 -76t87 -251q4 -134 6 -253t2 -234t-2 -234.5t-6 -255.5q-4 -176 -87 -252t-268 -76zM456 160q79 0 111.5 31t33.5 110q4 137 6.5 259.5t2.5 240t-2.5 240t-6.5 259.5
q-1 78 -33.5 109.5t-111.5 31.5t-111.5 -31.5t-34.5 -109.5q-5 -135 -7 -256.5t-2 -239t2 -241t7 -262.5q2 -79 34.5 -110t111.5 -31zM608 1869h91q-3 -95 -40.5 -139t-105.5 -44q-42 0 -67.5 13t-43 30.5t-34.5 30.5t-44 13q-25 0 -38.5 -17t-19.5 -59h-91q8 103 47 146.5
t106 43.5q44 0 68.5 -13t41 -30.5t33 -30.5t43.5 -13q30 0 41.5 18.5t12.5 50.5z" />
    <glyph glyph-name="Odieresis" unicode="&#xd6;" horiz-adv-x="914" 
d="M456 -16q-187 0 -270 76t-87 252q-2 136 -3 256t-1 235t1 234t3 252q4 175 87 251t270 76q185 0 268 -76t87 -251q4 -134 6 -253t2 -234t-2 -234.5t-6 -255.5q-4 -176 -87 -252t-268 -76zM456 160q79 0 111.5 31t33.5 110q4 137 6.5 259.5t2.5 240t-2.5 240t-6.5 259.5
q-1 78 -33.5 109.5t-111.5 31.5t-111.5 -31.5t-34.5 -109.5q-5 -135 -7 -256.5t-2 -239t2 -241t7 -262.5q2 -79 34.5 -110t111.5 -31zM508 1710v157h157v-157h-157zM249 1710v157h157v-157h-157z" />
    <glyph glyph-name="multiply" unicode="&#xd7;" horiz-adv-x="896" 
d="M212 414l-116 113l234 221l-234 219l116 113l236 -221l236 221l116 -113l-234 -219l234 -221l-116 -113l-236 222z" />
    <glyph glyph-name="Oslash" unicode="&#xd8;" horiz-adv-x="914" 
d="M456 -16q-187 0 -270 76t-87 252q-2 136 -3 256t-1 235t1 234t3 252q4 175 87 251t270 76q185 0 268 -76t87 -251q4 -134 6 -253t2 -234t-2 -234.5t-6 -255.5q-4 -176 -87 -252t-268 -76zM456 160q79 0 111.5 31t33.5 110q3 115 5 214t3 194t0 197l-303 -499
q2 -26 2.5 -52.5t1.5 -53.5q2 -79 34.5 -110t111.5 -31zM302 674l303 497q0 32 -1 64t-3 65q-1 78 -33.5 109.5t-111.5 31.5t-111.5 -31.5t-34.5 -109.5q-4 -117 -6 -219.5t-2.5 -201.5t0.5 -205z" />
    <glyph glyph-name="Ugrave" unicode="&#xd9;" horiz-adv-x="905" 
d="M453 -16q-188 0 -270 74.5t-85 245.5q-4 325 -4 648.5t4 647.5h211q-3 -216 -4 -437.5t0.5 -442.5t2.5 -438q0 -63 34.5 -92t110.5 -29t110 29t34 92q1 217 2.5 438t1 442.5t-3.5 437.5h210q5 -324 5 -647.5t-5 -648.5q-2 -171 -84 -245.5t-270 -74.5zM359 1680l-171 250
h157l163 -250h-149z" />
    <glyph glyph-name="Uacute" unicode="&#xda;" horiz-adv-x="905" 
d="M453 -16q-188 0 -270 74.5t-85 245.5q-4 325 -4 648.5t4 647.5h211q-3 -216 -4 -437.5t0.5 -442.5t2.5 -438q0 -63 34.5 -92t110.5 -29t110 29t34 92q1 217 2.5 438t1 442.5t-3.5 437.5h210q5 -324 5 -647.5t-5 -648.5q-2 -171 -84 -245.5t-270 -74.5zM387 1680l176 250
h157l-184 -250h-149z" />
    <glyph glyph-name="Ucircumflex" unicode="&#xdb;" horiz-adv-x="905" 
d="M453 -16q-188 0 -270 74.5t-85 245.5q-4 325 -4 648.5t4 647.5h211q-3 -216 -4 -437.5t0.5 -442.5t2.5 -438q0 -63 34.5 -92t110.5 -29t110 29t34 92q1 217 2.5 438t1 442.5t-3.5 437.5h210q5 -324 5 -647.5t-5 -648.5q-2 -171 -84 -245.5t-270 -74.5zM223 1681l161 251
h134l161 -251h-147l-81 136l-81 -136h-147z" />
    <glyph glyph-name="Udieresis" unicode="&#xdc;" horiz-adv-x="905" 
d="M453 -16q-188 0 -270 74.5t-85 245.5q-4 325 -4 648.5t4 647.5h211q-3 -216 -4 -437.5t0.5 -442.5t2.5 -438q0 -63 34.5 -92t110.5 -29t110 29t34 92q1 217 2.5 438t1 442.5t-3.5 437.5h210q5 -324 5 -647.5t-5 -648.5q-2 -171 -84 -245.5t-270 -74.5zM504 1710v157h157
v-157h-157zM245 1710v157h157v-157h-157z" />
    <glyph glyph-name="Yacute" unicode="&#xdd;" horiz-adv-x="800" 
d="M294 0v529h-41l-222 1071h214l77 -428l49 -462h58l48 462l77 428h216l-225 -1071h-40v-529h-211zM334 1680l176 250h157l-184 -250h-149z" />
    <glyph glyph-name="Thorn" unicode="&#xde;" horiz-adv-x="824" 
d="M96 0v1600h211v-272h123q178 0 257 -71.5t84 -236.5q5 -115 5 -208.5t-5 -194.5q-5 -164 -84.5 -236t-257.5 -72h-122v-309h-211zM307 497h122q69 0 99.5 26.5t32.5 84.5q3 71 4.5 141t0.5 139.5t-5 140.5q-3 58 -33 84.5t-98 26.5h-123v-643z" />
    <glyph glyph-name="germandbls" unicode="&#xdf;" horiz-adv-x="872" 
d="M96 0v1275q0 102 30 174.5t107.5 111.5t217.5 39q185 0 265.5 -73.5t81.5 -245.5q2 -62 2 -110.5t-3 -110.5q-5 -99 -43.5 -153.5t-113.5 -78.5v-37q84 -23 125 -79.5t45 -159.5q2 -39 2.5 -75t0 -74t-2.5 -83q-5 -122 -46.5 -192t-120 -99t-193.5 -29h-45v187h45
q69 0 106.5 32t39.5 103q2 61 2 113t-2 108q-2 104 -41.5 138.5t-110.5 34.5h-31v187h25q70 0 108 39.5t39 120.5q1 52 1 86t-0.5 68t-1.5 87q-1 64 -34.5 93t-103.5 29q-75 0 -104.5 -32t-29.5 -88v-1306h-216z" />
    <glyph glyph-name="agrave" unicode="&#xe0;" horiz-adv-x="858" 
d="M325 -14q-121 0 -184 60.5t-73 194.5q-1 23 -2 48.5t0 46.5q6 76 32 133t83 102.5t155 86.5q51 22 104.5 41t111.5 36v205q0 61 -28 89t-95 28q-58 0 -90 -24t-35 -82q-2 -22 -2.5 -60.5t0.5 -74t2 -50.5h-205q-1 31 -2 75t0 85q4 101 37.5 165t106 95t195.5 31
q125 0 195 -33t99 -104t29 -185l-1 -895h-210v118h-31q-30 -65 -70 -98.5t-122 -33.5zM399 140q52 0 90.5 27t59.5 75l2 339q-40 -12 -81.5 -27.5t-85.5 -40.5q-64 -33 -83.5 -77.5t-22.5 -99.5v-42.5t1 -37.5q5 -55 36 -85.5t84 -30.5zM328 1280l-171 250h157l163 -250
h-149z" />
    <glyph glyph-name="aacute" unicode="&#xe1;" horiz-adv-x="858" 
d="M325 -14q-121 0 -184 60.5t-73 194.5q-1 23 -2 48.5t0 46.5q6 76 32 133t83 102.5t155 86.5q51 22 104.5 41t111.5 36v205q0 61 -28 89t-95 28q-58 0 -90 -24t-35 -82q-2 -22 -2.5 -60.5t0.5 -74t2 -50.5h-205q-1 31 -2 75t0 85q4 101 37.5 165t106 95t195.5 31
q125 0 195 -33t99 -104t29 -185l-1 -895h-210v118h-31q-30 -65 -70 -98.5t-122 -33.5zM399 140q52 0 90.5 27t59.5 75l2 339q-40 -12 -81.5 -27.5t-85.5 -40.5q-64 -33 -83.5 -77.5t-22.5 -99.5v-42.5t1 -37.5q5 -55 36 -85.5t84 -30.5zM356 1280l176 250h157l-184 -250
h-149z" />
    <glyph glyph-name="acircumflex" unicode="&#xe2;" horiz-adv-x="858" 
d="M325 -14q-121 0 -184 60.5t-73 194.5q-1 23 -2 48.5t0 46.5q6 76 32 133t83 102.5t155 86.5q51 22 104.5 41t111.5 36v205q0 61 -28 89t-95 28q-58 0 -90 -24t-35 -82q-2 -22 -2.5 -60.5t0.5 -74t2 -50.5h-205q-1 31 -2 75t0 85q4 101 37.5 165t106 95t195.5 31
q125 0 195 -33t99 -104t29 -185l-1 -895h-210v118h-31q-30 -65 -70 -98.5t-122 -33.5zM399 140q52 0 90.5 27t59.5 75l2 339q-40 -12 -81.5 -27.5t-85.5 -40.5q-64 -33 -83.5 -77.5t-22.5 -99.5v-42.5t1 -37.5q5 -55 36 -85.5t84 -30.5zM192 1281l161 251h134l161 -251h-147
l-81 136l-81 -136h-147z" />
    <glyph glyph-name="atilde" unicode="&#xe3;" horiz-adv-x="858" 
d="M325 -14q-121 0 -184 60.5t-73 194.5q-1 23 -2 48.5t0 46.5q6 76 32 133t83 102.5t155 86.5q51 22 104.5 41t111.5 36v205q0 61 -28 89t-95 28q-58 0 -90 -24t-35 -82q-2 -22 -2.5 -60.5t0.5 -74t2 -50.5h-205q-1 31 -2 75t0 85q4 101 37.5 165t106 95t195.5 31
q125 0 195 -33t99 -104t29 -185l-1 -895h-210v118h-31q-30 -65 -70 -98.5t-122 -33.5zM399 140q52 0 90.5 27t59.5 75l2 339q-40 -12 -81.5 -27.5t-85.5 -40.5q-64 -33 -83.5 -77.5t-22.5 -99.5v-42.5t1 -37.5q5 -55 36 -85.5t84 -30.5zM573 1469h91q-3 -95 -40.5 -139
t-105.5 -44q-42 0 -67.5 13t-43 30.5t-34.5 30.5t-44 13q-25 0 -38.5 -17t-19.5 -59h-91q8 103 47 146.5t106 43.5q44 0 68.5 -13t41 -30.5t33 -30.5t43.5 -13q30 0 41.5 18.5t12.5 50.5z" />
    <glyph glyph-name="adieresis" unicode="&#xe4;" horiz-adv-x="858" 
d="M325 -14q-121 0 -184 60.5t-73 194.5q-1 23 -2 48.5t0 46.5q6 76 32 133t83 102.5t155 86.5q51 22 104.5 41t111.5 36v205q0 61 -28 89t-95 28q-58 0 -90 -24t-35 -82q-2 -22 -2.5 -60.5t0.5 -74t2 -50.5h-205q-1 31 -2 75t0 85q4 101 37.5 165t106 95t195.5 31
q125 0 195 -33t99 -104t29 -185l-1 -895h-210v118h-31q-30 -65 -70 -98.5t-122 -33.5zM399 140q52 0 90.5 27t59.5 75l2 339q-40 -12 -81.5 -27.5t-85.5 -40.5q-64 -33 -83.5 -77.5t-22.5 -99.5v-42.5t1 -37.5q5 -55 36 -85.5t84 -30.5zM473 1310v157h157v-157h-157z
M214 1310v157h157v-157h-157z" />
    <glyph glyph-name="aring" unicode="&#xe5;" horiz-adv-x="858" 
d="M325 -14q-121 0 -184 60.5t-73 194.5q-1 23 -2 48.5t0 46.5q6 76 32 133t83 102.5t155 86.5q51 22 104.5 41t111.5 36v205q0 61 -28 89t-95 28q-58 0 -90 -24t-35 -82q-2 -22 -2.5 -60.5t0.5 -74t2 -50.5h-205q-1 31 -2 75t0 85q4 101 37.5 165t106 95t195.5 31
q125 0 195 -33t99 -104t29 -185l-1 -895h-210v118h-31q-30 -65 -70 -98.5t-122 -33.5zM399 140q52 0 90.5 27t59.5 75l2 339q-40 -12 -81.5 -27.5t-85.5 -40.5q-64 -33 -83.5 -77.5t-22.5 -99.5v-42.5t1 -37.5q5 -55 36 -85.5t84 -30.5zM422 1270q-75 0 -129 54t-54 129
t54 129t129 54t129 -54t54 -129t-54 -129t-129 -54zM422 1388q28 0 47.5 19.5t19.5 45.5q0 28 -20 47.5t-47 19.5q-26 0 -46 -19.5t-20 -47.5q0 -26 19.5 -45.5t46.5 -19.5z" />
    <glyph glyph-name="ae" unicode="&#xe6;" horiz-adv-x="1267" 
d="M310 -14q-107 0 -169.5 59t-72.5 195q-2 29 -2.5 49.5t0.5 46.5q9 114 76.5 182.5t183.5 117.5q51 22 101.5 40.5t102.5 35.5v76.5v76.5v77q0 25 -6 51.5t-30 45t-79 18.5q-59 0 -82.5 -25.5t-27.5 -83.5q-1 -20 -2 -54t-0.5 -69.5t2.5 -58.5h-208q-1 18 -2 49t-0.5 62.5
t1.5 51.5q4 100 37 163.5t103 94t184 30.5q78 0 132 -13.5t89 -38.5q41 26 96.5 39t127.5 13q167 0 244.5 -67.5t83.5 -223.5q1 -16 1.5 -59.5t0.5 -98.5t-0.5 -108t-3.5 -89h-450v-157v-157q0 -63 32 -88t96 -25q66 0 89.5 27.5t25.5 85.5q2 41 3 76.5t-3 103.5h207
q3 -24 3.5 -74.5t-1.5 -82.5q-7 -159 -81.5 -228t-241.5 -69q-120 0 -194.5 32.5t-110.5 102.5h-18q-30 -67 -93.5 -99.5t-143.5 -32.5zM391 140q32 0 63.5 15t53.5 58t24 128q0 42 -1 100.5t-1 122.5q-35 -10 -76 -27t-77 -38q-53 -31 -75 -69.5t-26 -93.5q-1 -24 -1 -41
t3 -40q8 -51 32.5 -83t80.5 -32zM741 723h244q1 63 1 127t-2 99q-1 57 -29 82.5t-90 25.5t-93 -25.5t-31 -83.5v-112v-113z" />
    <glyph glyph-name="ccedilla" unicode="&#xe7;" horiz-adv-x="840" 
d="M554 767q1 27 1.5 60t0 65t-1.5 56q-1 59 -29 83.5t-97 24.5t-97 -24.5t-30 -83.5q-3 -92 -4.5 -177.5t-1.5 -169t1.5 -168.5t4.5 -176q2 -62 32 -87.5t98 -25.5t95 26.5t28 87.5q2 37 2 78.5t-2 100.5h209q2 -28 3 -76t-1 -82q-7 -157 -84.5 -226.5t-249.5 -69.5
q-181 0 -258.5 70t-85.5 226q-3 63 -4 146.5t-1 174t1 174t4 144.5q9 161 88.5 230t252.5 69q175 0 253 -68t84 -223q1 -38 0.5 -85t-2.5 -74h-209zM239 -304v112h54q54 0 74.5 23t10.5 77l-21 104h122l20 -104q19 -110 -31.5 -161t-173.5 -51h-55z" />
    <glyph glyph-name="egrave" unicode="&#xe8;" horiz-adv-x="839" 
d="M432 -17q-181 0 -259 70t-86 227q-3 62 -4 146t-1 174t1 173t4 145q9 161 89.5 230t252.5 69q175 0 252 -69t84 -222q1 -23 1.5 -84t0 -136.5t-3.5 -143.5h-468q0 -74 1.5 -149.5t3.5 -155.5q2 -62 32.5 -87.5t97.5 -25.5t94 25.5t30 87.5q2 31 2 77t-3 103h210
q2 -26 3 -75.5t-1 -81.5q-8 -159 -84 -228t-249 -69zM296 715h260q1 48 1 96t-0.5 84.5t-2.5 51.5q-3 61 -32 85.5t-93 24.5q-70 0 -98.5 -26.5t-30.5 -83.5q-1 -58 -2.5 -116.5t-1.5 -115.5zM331 1280l-171 250h157l163 -250h-149z" />
    <glyph glyph-name="eacute" unicode="&#xe9;" horiz-adv-x="839" 
d="M432 -17q-181 0 -259 70t-86 227q-3 62 -4 146t-1 174t1 173t4 145q9 161 89.5 230t252.5 69q175 0 252 -69t84 -222q1 -23 1.5 -84t0 -136.5t-3.5 -143.5h-468q0 -74 1.5 -149.5t3.5 -155.5q2 -62 32.5 -87.5t97.5 -25.5t94 25.5t30 87.5q2 31 2 77t-3 103h210
q2 -26 3 -75.5t-1 -81.5q-8 -159 -84 -228t-249 -69zM296 715h260q1 48 1 96t-0.5 84.5t-2.5 51.5q-3 61 -32 85.5t-93 24.5q-70 0 -98.5 -26.5t-30.5 -83.5q-1 -58 -2.5 -116.5t-1.5 -115.5zM360 1280l176 250h157l-184 -250h-149z" />
    <glyph glyph-name="ecircumflex" unicode="&#xea;" horiz-adv-x="839" 
d="M432 -17q-181 0 -259 70t-86 227q-3 62 -4 146t-1 174t1 173t4 145q9 161 89.5 230t252.5 69q175 0 252 -69t84 -222q1 -23 1.5 -84t0 -136.5t-3.5 -143.5h-468q0 -74 1.5 -149.5t3.5 -155.5q2 -62 32.5 -87.5t97.5 -25.5t94 25.5t30 87.5q2 31 2 77t-3 103h210
q2 -26 3 -75.5t-1 -81.5q-8 -159 -84 -228t-249 -69zM296 715h260q1 48 1 96t-0.5 84.5t-2.5 51.5q-3 61 -32 85.5t-93 24.5q-70 0 -98.5 -26.5t-30.5 -83.5q-1 -58 -2.5 -116.5t-1.5 -115.5zM195 1281l161 251h134l161 -251h-147l-81 136l-81 -136h-147z" />
    <glyph glyph-name="edieresis" unicode="&#xeb;" horiz-adv-x="839" 
d="M432 -17q-181 0 -259 70t-86 227q-3 62 -4 146t-1 174t1 173t4 145q9 161 89.5 230t252.5 69q175 0 252 -69t84 -222q1 -23 1.5 -84t0 -136.5t-3.5 -143.5h-468q0 -74 1.5 -149.5t3.5 -155.5q2 -62 32.5 -87.5t97.5 -25.5t94 25.5t30 87.5q2 31 2 77t-3 103h210
q2 -26 3 -75.5t-1 -81.5q-8 -159 -84 -228t-249 -69zM296 715h260q1 48 1 96t-0.5 84.5t-2.5 51.5q-3 61 -32 85.5t-93 24.5q-70 0 -98.5 -26.5t-30.5 -83.5q-1 -58 -2.5 -116.5t-1.5 -115.5zM476 1310v157h157v-157h-157zM217 1310v157h157v-157h-157z" />
    <glyph glyph-name="igrave" unicode="&#xec;" horiz-adv-x="419" 
d="M104 0v1200h211v-1200h-211zM116 1280l-171 250h157l163 -250h-149z" />
    <glyph glyph-name="iacute" unicode="&#xed;" horiz-adv-x="419" 
d="M104 0v1200h211v-1200h-211zM144 1280l176 250h157l-184 -250h-149z" />
    <glyph glyph-name="icircumflex" unicode="&#xee;" horiz-adv-x="419" 
d="M104 0v1200h211v-1200h-211zM-21 1281l161 251h134l161 -251h-147l-81 136l-81 -136h-147z" />
    <glyph glyph-name="idieresis" unicode="&#xef;" horiz-adv-x="419" 
d="M104 0v1200h211v-1200h-211zM261 1310v157h157v-157h-157zM2 1310v157h157v-157h-157z" />
    <glyph glyph-name="eth" unicode="&#xf0;" horiz-adv-x="887" 
d="M452 -18q-185 0 -268.5 76.5t-91.5 251.5q-3 66 -3.5 143t0.5 163t2 178q3 135 73.5 210t183.5 75q70 0 122 -26t75 -68h22q-15 60 -37.5 115t-53.5 101l-140 -63l-50 98l117 54q-37 43 -82 79t-97 68l114 179q79 -49 143.5 -102.5t114.5 -118.5l154 69l50 -98l-137 -62
q69 -111 102.5 -250t39.5 -311q1 -62 1.5 -138.5t0 -153.5t-1.5 -141q-4 -117 -40 -189t-112.5 -105.5t-200.5 -33.5zM451 157q69 0 103.5 28.5t36.5 86.5q3 86 3.5 170.5t-0.5 174t-4 187.5q-2 50 -44 76.5t-108 26.5q-68 0 -100 -31t-34 -90q-2 -79 -1.5 -171t1.5 -181
t3 -160q2 -62 38 -89.5t106 -27.5z" />
    <glyph glyph-name="ntilde" unicode="&#xf1;" horiz-adv-x="916" 
d="M104 0v1200h212v-118h43q38 66 86 100.5t131 34.5q119 0 179.5 -66.5t61.5 -218.5v-932h-211v950q-1 58 -28.5 84t-85.5 26q-54 0 -105 -28t-71 -78v-954h-212zM613 1469h91q-3 -95 -40.5 -139t-105.5 -44q-42 0 -67.5 13t-43 30.5t-34.5 30.5t-44 13q-25 0 -38.5 -17
t-19.5 -59h-91q8 103 47 146.5t106 43.5q44 0 68.5 -13t41 -30.5t33 -30.5t43.5 -13q30 0 41.5 18.5t12.5 50.5z" />
    <glyph glyph-name="ograve" unicode="&#xf2;" horiz-adv-x="871" 
d="M436 -17q-124 0 -198.5 33t-109.5 104.5t-41 188.5q-3 53 -4 127.5t-1 156.5t1 160t4 139q7 118 42 189.5t109.5 103.5t197.5 32q126 0 200 -33.5t108 -104.5t40 -187q2 -58 3.5 -132.5t1.5 -155t-1.5 -157.5t-3.5 -138q-6 -117 -40.5 -188.5t-108.5 -104.5t-199 -33z
M436 144q75 0 105 28.5t32 87.5q3 90 4.5 174.5t2 167t-1.5 166.5t-5 174q-2 60 -33 87t-104 27t-105 -29t-34 -87q-2 -74 -3.5 -156.5t-2 -169.5t1.5 -176t5 -177q3 -61 34 -89t104 -28zM342 1280l-171 250h157l163 -250h-149z" />
    <glyph glyph-name="oacute" unicode="&#xf3;" horiz-adv-x="871" 
d="M436 -17q-124 0 -198.5 33t-109.5 104.5t-41 188.5q-3 53 -4 127.5t-1 156.5t1 160t4 139q7 118 42 189.5t109.5 103.5t197.5 32q126 0 200 -33.5t108 -104.5t40 -187q2 -58 3.5 -132.5t1.5 -155t-1.5 -157.5t-3.5 -138q-6 -117 -40.5 -188.5t-108.5 -104.5t-199 -33z
M436 144q75 0 105 28.5t32 87.5q3 90 4.5 174.5t2 167t-1.5 166.5t-5 174q-2 60 -33 87t-104 27t-105 -29t-34 -87q-2 -74 -3.5 -156.5t-2 -169.5t1.5 -176t5 -177q3 -61 34 -89t104 -28zM370 1280l176 250h157l-184 -250h-149z" />
    <glyph glyph-name="ocircumflex" unicode="&#xf4;" horiz-adv-x="871" 
d="M436 -17q-124 0 -198.5 33t-109.5 104.5t-41 188.5q-3 53 -4 127.5t-1 156.5t1 160t4 139q7 118 42 189.5t109.5 103.5t197.5 32q126 0 200 -33.5t108 -104.5t40 -187q2 -58 3.5 -132.5t1.5 -155t-1.5 -157.5t-3.5 -138q-6 -117 -40.5 -188.5t-108.5 -104.5t-199 -33z
M436 144q75 0 105 28.5t32 87.5q3 90 4.5 174.5t2 167t-1.5 166.5t-5 174q-2 60 -33 87t-104 27t-105 -29t-34 -87q-2 -74 -3.5 -156.5t-2 -169.5t1.5 -176t5 -177q3 -61 34 -89t104 -28zM206 1281l161 251h134l161 -251h-147l-81 136l-81 -136h-147z" />
    <glyph glyph-name="otilde" unicode="&#xf5;" horiz-adv-x="871" 
d="M436 -17q-124 0 -198.5 33t-109.5 104.5t-41 188.5q-3 53 -4 127.5t-1 156.5t1 160t4 139q7 118 42 189.5t109.5 103.5t197.5 32q126 0 200 -33.5t108 -104.5t40 -187q2 -58 3.5 -132.5t1.5 -155t-1.5 -157.5t-3.5 -138q-6 -117 -40.5 -188.5t-108.5 -104.5t-199 -33z
M436 144q75 0 105 28.5t32 87.5q3 90 4.5 174.5t2 167t-1.5 166.5t-5 174q-2 60 -33 87t-104 27t-105 -29t-34 -87q-2 -74 -3.5 -156.5t-2 -169.5t1.5 -176t5 -177q3 -61 34 -89t104 -28zM587 1469h91q-3 -95 -40.5 -139t-105.5 -44q-42 0 -67.5 13t-43 30.5t-34.5 30.5
t-44 13q-25 0 -38.5 -17t-19.5 -59h-91q8 103 47 146.5t106 43.5q44 0 68.5 -13t41 -30.5t33 -30.5t43.5 -13q30 0 41.5 18.5t12.5 50.5z" />
    <glyph glyph-name="odieresis" unicode="&#xf6;" horiz-adv-x="871" 
d="M436 -17q-124 0 -198.5 33t-109.5 104.5t-41 188.5q-3 53 -4 127.5t-1 156.5t1 160t4 139q7 118 42 189.5t109.5 103.5t197.5 32q126 0 200 -33.5t108 -104.5t40 -187q2 -58 3.5 -132.5t1.5 -155t-1.5 -157.5t-3.5 -138q-6 -117 -40.5 -188.5t-108.5 -104.5t-199 -33z
M436 144q75 0 105 28.5t32 87.5q3 90 4.5 174.5t2 167t-1.5 166.5t-5 174q-2 60 -33 87t-104 27t-105 -29t-34 -87q-2 -74 -3.5 -156.5t-2 -169.5t1.5 -176t5 -177q3 -61 34 -89t104 -28zM487 1310v157h157v-157h-157zM228 1310v157h157v-157h-157z" />
    <glyph glyph-name="divide" unicode="&#xf7;" horiz-adv-x="1024" 
d="M96 666v163h832v-163h-832zM421 941v177h184v-177h-184zM421 376v178h184v-178h-184z" />
    <glyph glyph-name="oslash" unicode="&#xf8;" horiz-adv-x="871" 
d="M147 316l549 659l77 -92l-603 -712zM436 -17q-124 0 -198.5 33t-109.5 104.5t-41 188.5q-3 53 -4 127.5t-1 156.5t1 160t4 139q7 118 42 189.5t109.5 103.5t197.5 32q126 0 200 -33.5t108 -104.5t40 -187q2 -58 3.5 -132.5t1.5 -155t-1.5 -157.5t-3.5 -138
q-6 -117 -40.5 -188.5t-108.5 -104.5t-199 -33zM436 144q75 0 105 28.5t32 87.5q3 90 4.5 174.5t2 167t-1.5 166.5t-5 174q-2 60 -33 87t-104 27t-105 -29t-34 -87q-2 -74 -3.5 -156.5t-2 -169.5t1.5 -176t5 -177q3 -61 34 -89t104 -28z" />
    <glyph glyph-name="ugrave" unicode="&#xf9;" horiz-adv-x="911" 
d="M343 -17q-117 0 -182 67t-65 219v931h213l2 -949q0 -58 25.5 -84.5t82.5 -26.5q55 0 104 28.5t69 77.5v954h214v-1200h-214v118h-32q-40 -71 -93 -103t-124 -32zM355 1280l-171 250h157l163 -250h-149z" />
    <glyph glyph-name="uacute" unicode="&#xfa;" horiz-adv-x="911" 
d="M343 -17q-117 0 -182 67t-65 219v931h213l2 -949q0 -58 25.5 -84.5t82.5 -26.5q55 0 104 28.5t69 77.5v954h214v-1200h-214v118h-32q-40 -71 -93 -103t-124 -32zM383 1280l176 250h157l-184 -250h-149z" />
    <glyph glyph-name="ucircumflex" unicode="&#xfb;" horiz-adv-x="911" 
d="M343 -17q-117 0 -182 67t-65 219v931h213l2 -949q0 -58 25.5 -84.5t82.5 -26.5q55 0 104 28.5t69 77.5v954h214v-1200h-214v118h-32q-40 -71 -93 -103t-124 -32zM219 1281l161 251h134l161 -251h-147l-81 136l-81 -136h-147z" />
    <glyph glyph-name="udieresis" unicode="&#xfc;" horiz-adv-x="911" 
d="M343 -17q-117 0 -182 67t-65 219v931h213l2 -949q0 -58 25.5 -84.5t82.5 -26.5q55 0 104 28.5t69 77.5v954h214v-1200h-214v118h-32q-40 -71 -93 -103t-124 -32zM500 1310v157h157v-157h-157zM241 1310v157h157v-157h-157z" />
    <glyph glyph-name="yacute" unicode="&#xfd;" horiz-adv-x="803" 
d="M205 -414q-31 0 -73 4t-75 9v159q27 -3 70.5 -5t75.5 -2q83 0 114 25.5t41 89.5l22 134h-140l-195 1200h218l61 -565l55 -477h65l51 477l57 565h219l-199 -1319q-16 -98 -52 -163.5t-110.5 -98.5t-204.5 -33zM340 1280l176 250h157l-184 -250h-149z" />
    <glyph glyph-name="thorn" unicode="&#xfe;" horiz-adv-x="906" 
d="M96 -400v2000h215v-518h33q38 67 83 101t134 34q116 0 177.5 -66t67.5 -219q2 -57 3.5 -145.5t1.5 -186.5t-1.5 -186.5t-3.5 -145.5q-6 -152 -72.5 -218.5t-183.5 -66.5q-69 0 -116.5 31.5t-89.5 103.5h-33v-518h-215zM470 140q58 0 88.5 26.5t33.5 84.5q4 76 6 167.5
t2 187t-2 185.5t-6 163q-3 55 -28.5 80.5t-81.5 25.5q-57 0 -103.5 -27t-67.5 -78v-709q23 -58 61 -82t98 -24z" />
    <glyph glyph-name="ydieresis" unicode="&#xff;" horiz-adv-x="803" 
d="M205 -414q-31 0 -73 4t-75 9v159q27 -3 70.5 -5t75.5 -2q83 0 114 25.5t41 89.5l22 134h-140l-195 1200h218l61 -565l55 -477h65l51 477l57 565h219l-199 -1319q-16 -98 -52 -163.5t-110.5 -98.5t-204.5 -33zM457 1310v157h157v-157h-157zM198 1310v157h157v-157h-157z
" />
    <glyph glyph-name="Amacron" unicode="&#x100;" horiz-adv-x="865" 
d="M46 0l191 1600h392l190 -1600h-216l-38 409h-265l-38 -409h-216zM319 596h227l-33 345l-37 472h-87l-37 -473zM147 1793h573v-102h-573v102z" />
    <glyph glyph-name="amacron" unicode="&#x101;" horiz-adv-x="858" 
d="M325 -14q-121 0 -184 60.5t-73 194.5q-1 23 -2 48.5t0 46.5q6 76 32 133t83 102.5t155 86.5q51 22 104.5 41t111.5 36v205q0 61 -28 89t-95 28q-58 0 -90 -24t-35 -82q-2 -22 -2.5 -60.5t0.5 -74t2 -50.5h-205q-1 31 -2 75t0 85q4 101 37.5 165t106 95t195.5 31
q125 0 195 -33t99 -104t29 -185l-1 -895h-210v118h-31q-30 -65 -70 -98.5t-122 -33.5zM399 140q52 0 90.5 27t59.5 75l2 339q-40 -12 -81.5 -27.5t-85.5 -40.5q-64 -33 -83.5 -77.5t-22.5 -99.5v-42.5t1 -37.5q5 -55 36 -85.5t84 -30.5zM136 1393h573v-102h-573v102z" />
    <glyph glyph-name="Abreve" unicode="&#x102;" horiz-adv-x="865" 
d="M46 0l191 1600h392l190 -1600h-216l-38 409h-265l-38 -409h-216zM319 596h227l-33 345l-37 472h-87l-37 -473zM432 1670q-139 0 -204 63t-72 199h136q1 -74 33 -111t107 -37q74 0 107 36.5t34 111.5h135q-7 -136 -71.5 -199t-204.5 -63z" />
    <glyph glyph-name="abreve" unicode="&#x103;" horiz-adv-x="858" 
d="M325 -14q-121 0 -184 60.5t-73 194.5q-1 23 -2 48.5t0 46.5q6 76 32 133t83 102.5t155 86.5q51 22 104.5 41t111.5 36v205q0 61 -28 89t-95 28q-58 0 -90 -24t-35 -82q-2 -22 -2.5 -60.5t0.5 -74t2 -50.5h-205q-1 31 -2 75t0 85q4 101 37.5 165t106 95t195.5 31
q125 0 195 -33t99 -104t29 -185l-1 -895h-210v118h-31q-30 -65 -70 -98.5t-122 -33.5zM399 140q52 0 90.5 27t59.5 75l2 339q-40 -12 -81.5 -27.5t-85.5 -40.5q-64 -33 -83.5 -77.5t-22.5 -99.5v-42.5t1 -37.5q5 -55 36 -85.5t84 -30.5zM427 1290q-139 0 -204 63t-72 199
h136q1 -74 33 -111t107 -37q74 0 107 36.5t34 111.5h135q-7 -136 -71.5 -199t-204.5 -63z" />
    <glyph glyph-name="Aogonek" unicode="&#x104;" horiz-adv-x="865" 
d="M46 0l191 1600h392l190 -1600h-216l-38 409h-265l-38 -409h-216zM319 596h227l-33 345l-37 472h-87l-37 -473zM846 -316h-56q-122 0 -172.5 51t-32.5 161l21 104h122l-22 -104q-9 -54 11 -77t74 -23h55v-112z" />
    <glyph glyph-name="aogonek" unicode="&#x105;" horiz-adv-x="858" 
d="M325 -14q-121 0 -184 60.5t-73 194.5q-1 23 -2 48.5t0 46.5q6 76 32 133t83 102.5t155 86.5q51 22 104.5 41t111.5 36v205q0 61 -28 89t-95 28q-58 0 -90 -24t-35 -82q-2 -22 -2.5 -60.5t0.5 -74t2 -50.5h-205q-1 31 -2 75t0 85q4 101 37.5 165t106 95t195.5 31
q125 0 195 -33t99 -104t29 -185l-1 -895h-210v118h-31q-30 -65 -70 -98.5t-122 -33.5zM399 140q52 0 90.5 27t59.5 75l2 339q-40 -12 -81.5 -27.5t-85.5 -40.5q-64 -33 -83.5 -77.5t-22.5 -99.5v-42.5t1 -37.5q5 -55 36 -85.5t84 -30.5zM786 -311h-56q-122 0 -172.5 51
t-32.5 161l21 104h122l-22 -104q-9 -54 11 -77t74 -23h55v-112z" />
    <glyph glyph-name="Cacute" unicode="&#x106;" horiz-adv-x="902" 
d="M457 -17q-186 0 -270 75t-88 248q-2 133 -3 254.5t-1 239.5t1 239.5t3 255.5q3 167 89 243.5t268 76.5q181 0 266.5 -77t91.5 -244q2 -44 2 -88.5t-1 -89t-3 -89.5h-210q1 48 2 93.5t1 91.5t-2 93q-2 75 -35.5 105t-111.5 30q-77 0 -110.5 -30t-35.5 -105
q-3 -139 -5 -263t-2 -242.5t2 -242t5 -262.5q2 -75 36 -105.5t111 -30.5q82 0 117 30.5t37 105.5q2 45 2.5 87t-0.5 91t-3 113h211q3 -78 3.5 -147t-2.5 -133q-6 -173 -91 -248t-274 -75zM386 1680l176 250h157l-184 -250h-149z" />
    <glyph glyph-name="cacute" unicode="&#x107;" horiz-adv-x="840" 
d="M554 767q1 27 1.5 60t0 65t-1.5 56q-1 59 -29 83.5t-97 24.5t-97 -24.5t-30 -83.5q-3 -92 -4.5 -177.5t-1.5 -169t1.5 -168.5t4.5 -176q2 -62 32 -87.5t98 -25.5t95 26.5t28 87.5q2 37 2 78.5t-2 100.5h209q2 -28 3 -76t-1 -82q-7 -157 -84.5 -226.5t-249.5 -69.5
q-181 0 -258.5 70t-85.5 226q-3 63 -4 146.5t-1 174t1 174t4 144.5q9 161 88.5 230t252.5 69q175 0 253 -68t84 -223q1 -38 0.5 -85t-2.5 -74h-209zM363 1280l176 250h157l-184 -250h-149z" />
    <glyph glyph-name="Ccircumflex" unicode="&#x108;" horiz-adv-x="902" 
d="M457 -17q-186 0 -270 75t-88 248q-2 133 -3 254.5t-1 239.5t1 239.5t3 255.5q3 167 89 243.5t268 76.5q181 0 266.5 -77t91.5 -244q2 -44 2 -88.5t-1 -89t-3 -89.5h-210q1 48 2 93.5t1 91.5t-2 93q-2 75 -35.5 105t-111.5 30q-77 0 -110.5 -30t-35.5 -105
q-3 -139 -5 -263t-2 -242.5t2 -242t5 -262.5q2 -75 36 -105.5t111 -30.5q82 0 117 30.5t37 105.5q2 45 2.5 87t-0.5 91t-3 113h211q3 -78 3.5 -147t-2.5 -133q-6 -173 -91 -248t-274 -75zM221 1681l161 251h134l161 -251h-147l-81 136l-81 -136h-147z" />
    <glyph glyph-name="ccircumflex" unicode="&#x109;" horiz-adv-x="840" 
d="M554 767q1 27 1.5 60t0 65t-1.5 56q-1 59 -29 83.5t-97 24.5t-97 -24.5t-30 -83.5q-3 -92 -4.5 -177.5t-1.5 -169t1.5 -168.5t4.5 -176q2 -62 32 -87.5t98 -25.5t95 26.5t28 87.5q2 37 2 78.5t-2 100.5h209q2 -28 3 -76t-1 -82q-7 -157 -84.5 -226.5t-249.5 -69.5
q-181 0 -258.5 70t-85.5 226q-3 63 -4 146.5t-1 174t1 174t4 144.5q9 161 88.5 230t252.5 69q175 0 253 -68t84 -223q1 -38 0.5 -85t-2.5 -74h-209zM198 1281l161 251h134l161 -251h-147l-81 136l-81 -136h-147z" />
    <glyph glyph-name="Cdotaccent" unicode="&#x10a;" horiz-adv-x="902" 
d="M457 -17q-186 0 -270 75t-88 248q-2 133 -3 254.5t-1 239.5t1 239.5t3 255.5q3 167 89 243.5t268 76.5q181 0 266.5 -77t91.5 -244q2 -44 2 -88.5t-1 -89t-3 -89.5h-210q1 48 2 93.5t1 91.5t-2 93q-2 75 -35.5 105t-111.5 30q-77 0 -110.5 -30t-35.5 -105
q-3 -139 -5 -263t-2 -242.5t2 -242t5 -262.5q2 -75 36 -105.5t111 -30.5q82 0 117 30.5t37 105.5q2 45 2.5 87t-0.5 91t-3 113h211q3 -78 3.5 -147t-2.5 -133q-6 -173 -91 -248t-274 -75zM372 1680v157h157v-157h-157z" />
    <glyph glyph-name="cdotaccent" unicode="&#x10b;" horiz-adv-x="840" 
d="M554 767q1 27 1.5 60t0 65t-1.5 56q-1 59 -29 83.5t-97 24.5t-97 -24.5t-30 -83.5q-3 -92 -4.5 -177.5t-1.5 -169t1.5 -168.5t4.5 -176q2 -62 32 -87.5t98 -25.5t95 26.5t28 87.5q2 37 2 78.5t-2 100.5h209q2 -28 3 -76t-1 -82q-7 -157 -84.5 -226.5t-249.5 -69.5
q-181 0 -258.5 70t-85.5 226q-3 63 -4 146.5t-1 174t1 174t4 144.5q9 161 88.5 230t252.5 69q175 0 253 -68t84 -223q1 -38 0.5 -85t-2.5 -74h-209zM349 1280v157h157v-157h-157z" />
    <glyph glyph-name="Ccaron" unicode="&#x10c;" horiz-adv-x="902" 
d="M457 -17q-186 0 -270 75t-88 248q-2 133 -3 254.5t-1 239.5t1 239.5t3 255.5q3 167 89 243.5t268 76.5q181 0 266.5 -77t91.5 -244q2 -44 2 -88.5t-1 -89t-3 -89.5h-210q1 48 2 93.5t1 91.5t-2 93q-2 75 -35.5 105t-111.5 30q-77 0 -110.5 -30t-35.5 -105
q-3 -139 -5 -263t-2 -242.5t2 -242t5 -262.5q2 -75 36 -105.5t111 -30.5q82 0 117 30.5t37 105.5q2 45 2.5 87t-0.5 91t-3 113h211q3 -78 3.5 -147t-2.5 -133q-6 -173 -91 -248t-274 -75zM391 1680l-161 250h137l85 -143l86 143h136l-161 -250h-122z" />
    <glyph glyph-name="ccaron" unicode="&#x10d;" horiz-adv-x="840" 
d="M554 767q1 27 1.5 60t0 65t-1.5 56q-1 59 -29 83.5t-97 24.5t-97 -24.5t-30 -83.5q-3 -92 -4.5 -177.5t-1.5 -169t1.5 -168.5t4.5 -176q2 -62 32 -87.5t98 -25.5t95 26.5t28 87.5q2 37 2 78.5t-2 100.5h209q2 -28 3 -76t-1 -82q-7 -157 -84.5 -226.5t-249.5 -69.5
q-181 0 -258.5 70t-85.5 226q-3 63 -4 146.5t-1 174t1 174t4 144.5q9 161 88.5 230t252.5 69q175 0 253 -68t84 -223q1 -38 0.5 -85t-2.5 -74h-209zM368 1280l-161 250h137l85 -143l86 143h136l-161 -250h-122z" />
    <glyph glyph-name="Dcaron" unicode="&#x10e;" horiz-adv-x="906" 
d="M112 0v1600h346q184 0 265 -74.5t84 -245.5t4 -325.5t0 -308t-4 -325.5q-3 -171 -83 -246t-259 -75h-353zM323 187h142q68 0 99 27.5t32 85.5q4 136 5.5 259t1.5 242t-1.5 242t-5.5 259q-1 57 -33 84t-105 27h-135v-1226zM386 1680l-161 250h137l85 -143l86 143h136
l-161 -250h-122z" />
    <glyph glyph-name="dcaron" unicode="&#x10f;" horiz-adv-x="1071" 
d="M329 -17q-118 0 -177 66.5t-65 218.5q-3 70 -4 157.5t-1 179t1.5 176.5t3.5 151q5 155 68.5 220t177.5 65q86 0 132.5 -34t83.5 -101h33v518h215v-1600h-215v118h-35q-37 -66 -85 -100.5t-133 -34.5zM411 140q54 0 102 26.5t69 79.5v709q-21 53 -69 79t-102 26
q-56 0 -81.5 -25.5t-28.5 -80.5q-5 -115 -6.5 -239t0 -243t5.5 -218q3 -62 29 -88t82 -26zM854 1291l61 311h156l-75 -311h-142z" />
    <glyph glyph-name="Dcroat" unicode="&#x110;" horiz-adv-x="973" 
d="M78 946h427v-110h-427v110zM179 0v1600h346q183 0 264.5 -74.5t84.5 -245.5t4 -325.5t0 -308t-4 -325.5q-3 -171 -83 -246t-260 -75h-352zM390 187h141q69 0 100 27.5t32 85.5q4 136 5.5 259t1.5 242t-1.5 242t-5.5 259q-1 57 -33 84t-105 27h-135v-1226z" />
    <glyph glyph-name="dcroat" unicode="&#x111;" horiz-adv-x="898" 
d="M405 1457h469v-124h-469v124zM329 -17q-118 0 -177 66.5t-65 218.5q-3 70 -4 157.5t-1 179t1.5 176.5t3.5 151q5 155 68.5 220t177.5 65q86 0 132.5 -34t83.5 -101h33v518h215v-1600h-215v118h-35q-37 -66 -85 -100.5t-133 -34.5zM411 140q54 0 102 26.5t69 79.5v709
q-21 53 -69 79t-102 26q-56 0 -81.5 -25.5t-28.5 -80.5q-5 -115 -6.5 -239t0 -243t5.5 -218q3 -62 29 -88t82 -26z" />
    <glyph glyph-name="Emacron" unicode="&#x112;" horiz-adv-x="769" 
d="M112 0v1600h602v-187h-391v-511h371v-187h-371v-528h391v-187h-602zM125 1791h573v-102h-573v102z" />
    <glyph glyph-name="emacron" unicode="&#x113;" horiz-adv-x="839" 
d="M432 -17q-181 0 -259 70t-86 227q-3 62 -4 146t-1 174t1 173t4 145q9 161 89.5 230t252.5 69q175 0 252 -69t84 -222q1 -23 1.5 -84t0 -136.5t-3.5 -143.5h-468q0 -74 1.5 -149.5t3.5 -155.5q2 -62 32.5 -87.5t97.5 -25.5t94 25.5t30 87.5q2 31 2 77t-3 103h210
q2 -26 3 -75.5t-1 -81.5q-8 -159 -84 -228t-249 -69zM296 715h260q1 48 1 96t-0.5 84.5t-2.5 51.5q-3 61 -32 85.5t-93 24.5q-70 0 -98.5 -26.5t-30.5 -83.5q-1 -58 -2.5 -116.5t-1.5 -115.5zM139 1393h573v-102h-573v102z" />
    <glyph glyph-name="Ebreve" unicode="&#x114;" horiz-adv-x="769" 
d="M112 0v1600h602v-187h-391v-511h371v-187h-371v-528h391v-187h-602zM411 1668q-139 0 -204 63t-72 199h136q1 -74 33 -111t107 -37q74 0 107 36.5t34 111.5h135q-7 -136 -71.5 -199t-204.5 -63z" />
    <glyph glyph-name="ebreve" unicode="&#x115;" horiz-adv-x="839" 
d="M432 -17q-181 0 -259 70t-86 227q-3 62 -4 146t-1 174t1 173t4 145q9 161 89.5 230t252.5 69q175 0 252 -69t84 -222q1 -23 1.5 -84t0 -136.5t-3.5 -143.5h-468q0 -74 1.5 -149.5t3.5 -155.5q2 -62 32.5 -87.5t97.5 -25.5t94 25.5t30 87.5q2 31 2 77t-3 103h210
q2 -26 3 -75.5t-1 -81.5q-8 -159 -84 -228t-249 -69zM296 715h260q1 48 1 96t-0.5 84.5t-2.5 51.5q-3 61 -32 85.5t-93 24.5q-70 0 -98.5 -26.5t-30.5 -83.5q-1 -58 -2.5 -116.5t-1.5 -115.5zM425 1270q-139 0 -204 63t-72 199h136q1 -74 33 -111t107 -37q74 0 107 36.5
t34 111.5h135q-7 -136 -71.5 -199t-204.5 -63z" />
    <glyph glyph-name="Edotaccent" unicode="&#x116;" horiz-adv-x="769" 
d="M112 0v1600h602v-187h-391v-511h371v-187h-371v-528h391v-187h-602zM332 1678v157h157v-157h-157z" />
    <glyph glyph-name="edotaccent" unicode="&#x117;" horiz-adv-x="839" 
d="M432 -17q-181 0 -259 70t-86 227q-3 62 -4 146t-1 174t1 173t4 145q9 161 89.5 230t252.5 69q175 0 252 -69t84 -222q1 -23 1.5 -84t0 -136.5t-3.5 -143.5h-468q0 -74 1.5 -149.5t3.5 -155.5q2 -62 32.5 -87.5t97.5 -25.5t94 25.5t30 87.5q2 31 2 77t-3 103h210
q2 -26 3 -75.5t-1 -81.5q-8 -159 -84 -228t-249 -69zM296 715h260q1 48 1 96t-0.5 84.5t-2.5 51.5q-3 61 -32 85.5t-93 24.5q-70 0 -98.5 -26.5t-30.5 -83.5q-1 -58 -2.5 -116.5t-1.5 -115.5zM346 1280v157h157v-157h-157z" />
    <glyph glyph-name="Eogonek" unicode="&#x118;" horiz-adv-x="769" 
d="M112 0v1600h602v-187h-391v-511h371v-187h-371v-528h391v-187h-602zM718 -316h-56q-122 0 -172.5 51t-32.5 161l21 104h122l-22 -104q-9 -54 11 -77t74 -23h55v-112z" />
    <glyph glyph-name="eogonek" unicode="&#x119;" horiz-adv-x="839" 
d="M432 -17q-181 0 -259 70t-86 227q-3 62 -4 146t-1 174t1 173t4 145q9 161 89.5 230t252.5 69q175 0 252 -69t84 -222q1 -23 1.5 -84t0 -136.5t-3.5 -143.5h-468q0 -74 1.5 -149.5t3.5 -155.5q2 -62 32.5 -87.5t97.5 -25.5t94 25.5t30 87.5q2 31 2 77t-3 103h210
q2 -26 3 -75.5t-1 -81.5q-8 -159 -84 -228t-249 -69zM296 715h260q1 48 1 96t-0.5 84.5t-2.5 51.5q-3 61 -32 85.5t-93 24.5q-70 0 -98.5 -26.5t-30.5 -83.5q-1 -58 -2.5 -116.5t-1.5 -115.5zM755 -273h-56q-122 0 -172.5 51t-32.5 161l21 104h122l-22 -104q-9 -54 11 -77
t74 -23h55v-112z" />
    <glyph glyph-name="Ecaron" unicode="&#x11a;" horiz-adv-x="769" 
d="M112 0v1600h602v-187h-391v-511h371v-187h-371v-528h391v-187h-602zM350 1678l-161 250h137l85 -143l86 143h136l-161 -250h-122z" />
    <glyph glyph-name="ecaron" unicode="&#x11b;" horiz-adv-x="839" 
d="M432 -17q-181 0 -259 70t-86 227q-3 62 -4 146t-1 174t1 173t4 145q9 161 89.5 230t252.5 69q175 0 252 -69t84 -222q1 -23 1.5 -84t0 -136.5t-3.5 -143.5h-468q0 -74 1.5 -149.5t3.5 -155.5q2 -62 32.5 -87.5t97.5 -25.5t94 25.5t30 87.5q2 31 2 77t-3 103h210
q2 -26 3 -75.5t-1 -81.5q-8 -159 -84 -228t-249 -69zM296 715h260q1 48 1 96t-0.5 84.5t-2.5 51.5q-3 61 -32 85.5t-93 24.5q-70 0 -98.5 -26.5t-30.5 -83.5q-1 -58 -2.5 -116.5t-1.5 -115.5zM365 1280l-161 250h137l85 -143l86 143h136l-161 -250h-122z" />
    <glyph glyph-name="Gcircumflex" unicode="&#x11c;" horiz-adv-x="905" 
d="M460 -16q-126 0 -204 32.5t-115 104t-40 186.5q-3 116 -4.5 240t-1.5 250.5t1.5 249.5t4.5 237q4 119 40.5 192t114.5 106.5t204 33.5q183 0 264.5 -74.5t90.5 -246.5q3 -66 3 -133t-3 -134h-211q3 77 3 144.5t-3 144.5q-3 69 -34 96.5t-110 27.5q-82 0 -113.5 -27.5
t-35.5 -96.5q-5 -134 -7 -262t-2 -254.5t2 -254.5t7 -261q3 -70 35 -97.5t114 -27.5q85 0 118.5 27.5t37.5 97.5q2 39 2.5 80.5t0 82.5t-2.5 80h-139v186h345q3 -110 2.5 -211.5t-4.5 -195.5q-6 -173 -89 -248t-271 -75zM224 1681l161 251h134l161 -251h-147l-81 136
l-81 -136h-147z" />
    <glyph glyph-name="gcircumflex" unicode="&#x11d;" horiz-adv-x="901" 
d="M421 -362q-152 0 -240 44.5t-102 131.5q-1 13 -2.5 29t-0.5 29q5 53 42.5 87t91.5 41v33q-57 13 -83 41t-32 68q-1 12 -1 24t1 25q4 41 39 69t88 36v33q-71 32 -105 96.5t-40 168.5q-1 35 -2 78t-1 88t1 85.5t2 71.5q8 108 44.5 174t109.5 96t191 30t190.5 -30t108.5 -96
h32q7 55 43.5 82t101.5 27v-162h-26q-49 0 -78 -29t-29 -97v-54q0 -11 0.5 -43t0.5 -72.5t-0.5 -80.5t-2.5 -68q-6 -109 -42 -174.5t-109 -95t-191 -29.5q-86 1 -125.5 -15t-39.5 -52v-10q0 -23 15 -36.5t52 -20t103 -8.5q183 -4 271.5 -56t102.5 -164q2 -15 2.5 -34
t-2.5 -38q-9 -83 -55.5 -132t-128 -70t-195.5 -21zM429 -214q59 0 101 8.5t67 28t31 51.5q4 14 3.5 26.5t-4.5 25.5q-6 30 -28.5 47t-64 25t-105.5 8q-79 2 -126.5 -14.5t-55.5 -67.5q-3 -16 -3 -27.5t3 -23.5q6 -33 29 -52t61.5 -27t91.5 -8zM422 455q68 0 99.5 27.5
t35.5 85.5q2 32 3.5 82t1.5 105.5t-1.5 106t-3.5 82.5q-3 58 -34.5 85.5t-100.5 27.5q-70 0 -103 -27.5t-36 -89.5q-1 -32 -2 -81t-1.5 -103.5t0.5 -103.5t3 -80q4 -60 36 -88.5t103 -28.5zM191 1281l161 251h134l161 -251h-147l-81 136l-81 -136h-147z" />
    <glyph glyph-name="Gbreve" unicode="&#x11e;" horiz-adv-x="905" 
d="M460 -16q-126 0 -204 32.5t-115 104t-40 186.5q-3 116 -4.5 240t-1.5 250.5t1.5 249.5t4.5 237q4 119 40.5 192t114.5 106.5t204 33.5q183 0 264.5 -74.5t90.5 -246.5q3 -66 3 -133t-3 -134h-211q3 77 3 144.5t-3 144.5q-3 69 -34 96.5t-110 27.5q-82 0 -113.5 -27.5
t-35.5 -96.5q-5 -134 -7 -262t-2 -254.5t2 -254.5t7 -261q3 -70 35 -97.5t114 -27.5q85 0 118.5 27.5t37.5 97.5q2 39 2.5 80.5t0 82.5t-2.5 80h-139v186h345q3 -110 2.5 -211.5t-4.5 -195.5q-6 -173 -89 -248t-271 -75zM454 1670q-139 0 -204 63t-72 199h136q1 -74 33 -111
t107 -37q74 0 107 36.5t34 111.5h135q-7 -136 -71.5 -199t-204.5 -63z" />
    <glyph glyph-name="gbreve" unicode="&#x11f;" horiz-adv-x="901" 
d="M421 -362q-152 0 -240 44.5t-102 131.5q-1 13 -2.5 29t-0.5 29q5 53 42.5 87t91.5 41v33q-57 13 -83 41t-32 68q-1 12 -1 24t1 25q4 41 39 69t88 36v33q-71 32 -105 96.5t-40 168.5q-1 35 -2 78t-1 88t1 85.5t2 71.5q8 108 44.5 174t109.5 96t191 30t190.5 -30t108.5 -96
h32q7 55 43.5 82t101.5 27v-162h-26q-49 0 -78 -29t-29 -97v-54q0 -11 0.5 -43t0.5 -72.5t-0.5 -80.5t-2.5 -68q-6 -109 -42 -174.5t-109 -95t-191 -29.5q-86 1 -125.5 -15t-39.5 -52v-10q0 -23 15 -36.5t52 -20t103 -8.5q183 -4 271.5 -56t102.5 -164q2 -15 2.5 -34
t-2.5 -38q-9 -83 -55.5 -132t-128 -70t-195.5 -21zM429 -214q59 0 101 8.5t67 28t31 51.5q4 14 3.5 26.5t-4.5 25.5q-6 30 -28.5 47t-64 25t-105.5 8q-79 2 -126.5 -14.5t-55.5 -67.5q-3 -16 -3 -27.5t3 -23.5q6 -33 29 -52t61.5 -27t91.5 -8zM422 455q68 0 99.5 27.5
t35.5 85.5q2 32 3.5 82t1.5 105.5t-1.5 106t-3.5 82.5q-3 58 -34.5 85.5t-100.5 27.5q-70 0 -103 -27.5t-36 -89.5q-1 -32 -2 -81t-1.5 -103.5t0.5 -103.5t3 -80q4 -60 36 -88.5t103 -28.5zM421 1270q-139 0 -204 63t-72 199h136q1 -74 33 -111t107 -37q74 0 107 36.5
t34 111.5h135q-7 -136 -71.5 -199t-204.5 -63z" />
    <glyph glyph-name="Gdotaccent" unicode="&#x120;" horiz-adv-x="905" 
d="M460 -16q-126 0 -204 32.5t-115 104t-40 186.5q-3 116 -4.5 240t-1.5 250.5t1.5 249.5t4.5 237q4 119 40.5 192t114.5 106.5t204 33.5q183 0 264.5 -74.5t90.5 -246.5q3 -66 3 -133t-3 -134h-211q3 77 3 144.5t-3 144.5q-3 69 -34 96.5t-110 27.5q-82 0 -113.5 -27.5
t-35.5 -96.5q-5 -134 -7 -262t-2 -254.5t2 -254.5t7 -261q3 -70 35 -97.5t114 -27.5q85 0 118.5 27.5t37.5 97.5q2 39 2.5 80.5t0 82.5t-2.5 80h-139v186h345q3 -110 2.5 -211.5t-4.5 -195.5q-6 -173 -89 -248t-271 -75zM375 1680v157h157v-157h-157z" />
    <glyph glyph-name="gdotaccent" unicode="&#x121;" horiz-adv-x="901" 
d="M421 -362q-152 0 -240 44.5t-102 131.5q-1 13 -2.5 29t-0.5 29q5 53 42.5 87t91.5 41v33q-57 13 -83 41t-32 68q-1 12 -1 24t1 25q4 41 39 69t88 36v33q-71 32 -105 96.5t-40 168.5q-1 35 -2 78t-1 88t1 85.5t2 71.5q8 108 44.5 174t109.5 96t191 30t190.5 -30t108.5 -96
h32q7 55 43.5 82t101.5 27v-162h-26q-49 0 -78 -29t-29 -97v-54q0 -11 0.5 -43t0.5 -72.5t-0.5 -80.5t-2.5 -68q-6 -109 -42 -174.5t-109 -95t-191 -29.5q-86 1 -125.5 -15t-39.5 -52v-10q0 -23 15 -36.5t52 -20t103 -8.5q183 -4 271.5 -56t102.5 -164q2 -15 2.5 -34
t-2.5 -38q-9 -83 -55.5 -132t-128 -70t-195.5 -21zM429 -214q59 0 101 8.5t67 28t31 51.5q4 14 3.5 26.5t-4.5 25.5q-6 30 -28.5 47t-64 25t-105.5 8q-79 2 -126.5 -14.5t-55.5 -67.5q-3 -16 -3 -27.5t3 -23.5q6 -33 29 -52t61.5 -27t91.5 -8zM422 455q68 0 99.5 27.5
t35.5 85.5q2 32 3.5 82t1.5 105.5t-1.5 106t-3.5 82.5q-3 58 -34.5 85.5t-100.5 27.5q-70 0 -103 -27.5t-36 -89.5q-1 -32 -2 -81t-1.5 -103.5t0.5 -103.5t3 -80q4 -60 36 -88.5t103 -28.5zM342 1280v157h157v-157h-157z" />
    <glyph glyph-name="uni0122" unicode="&#x122;" horiz-adv-x="905" 
d="M460 -16q-126 0 -204 32.5t-115 104t-40 186.5q-3 116 -4.5 240t-1.5 250.5t1.5 249.5t4.5 237q4 119 40.5 192t114.5 106.5t204 33.5q183 0 264.5 -74.5t90.5 -246.5q3 -66 3 -133t-3 -134h-211q3 77 3 144.5t-3 144.5q-3 69 -34 96.5t-110 27.5q-82 0 -113.5 -27.5
t-35.5 -96.5q-5 -134 -7 -262t-2 -254.5t2 -254.5t7 -261q3 -70 35 -97.5t114 -27.5q85 0 118.5 27.5t37.5 97.5q2 39 2.5 80.5t0 82.5t-2.5 80h-139v186h345q3 -110 2.5 -211.5t-4.5 -195.5q-6 -173 -89 -248t-271 -75zM373 -399l72 138h-105v181h248v-160l-92 -159h-123z
" />
    <glyph glyph-name="uni0123" unicode="&#x123;" horiz-adv-x="901" 
d="M421 -362q-152 0 -240 44.5t-102 131.5q-1 13 -2.5 29t-0.5 29q5 53 42.5 87t91.5 41v33q-57 13 -83 41t-32 68q-1 12 -1 24t1 25q4 41 39 69t88 36v33q-71 32 -105 96.5t-40 168.5q-1 35 -2 78t-1 88t1 85.5t2 71.5q8 108 44.5 174t109.5 96t191 30t190.5 -30t108.5 -96
h32q7 55 43.5 82t101.5 27v-162h-26q-49 0 -78 -29t-29 -97v-54q0 -11 0.5 -43t0.5 -72.5t-0.5 -80.5t-2.5 -68q-6 -109 -42 -174.5t-109 -95t-191 -29.5q-86 1 -125.5 -15t-39.5 -52v-10q0 -23 15 -36.5t52 -20t103 -8.5q183 -4 271.5 -56t102.5 -164q2 -15 2.5 -34
t-2.5 -38q-9 -83 -55.5 -132t-128 -70t-195.5 -21zM429 -214q59 0 101 8.5t67 28t31 51.5q4 14 3.5 26.5t-4.5 25.5q-6 30 -28.5 47t-64 25t-105.5 8q-79 2 -126.5 -14.5t-55.5 -67.5q-3 -16 -3 -27.5t3 -23.5q6 -33 29 -52t61.5 -27t91.5 -8zM422 455q68 0 99.5 27.5
t35.5 85.5q2 32 3.5 82t1.5 105.5t-1.5 106t-3.5 82.5q-3 58 -34.5 85.5t-100.5 27.5q-70 0 -103 -27.5t-36 -89.5q-1 -32 -2 -81t-1.5 -103.5t0.5 -103.5t3 -80q4 -60 36 -88.5t103 -28.5zM519 1601l-72 -138h104v-182h-248v161l93 159h123z" />
    <glyph glyph-name="Hcircumflex" unicode="&#x124;" horiz-adv-x="921" 
d="M112 0v1600h211v-698h276v698h210v-1600h-210v715h-276v-715h-211zM231 1681l161 251h134l161 -251h-147l-81 136l-81 -136h-147z" />
    <glyph glyph-name="hcircumflex" unicode="&#x125;" horiz-adv-x="916" 
d="M104 0v1600h215v-518h40q38 67 84 101t133 34q119 0 178.5 -66.5t60.5 -218.5l2 -932h-214l-2 950q0 58 -25.5 84t-83.5 26q-59 0 -105.5 -27t-67.5 -78v-955h-215zM234 1681l161 251h134l161 -251h-147l-81 136l-81 -136h-147z" />
    <glyph glyph-name="Hbar" unicode="&#x126;" horiz-adv-x="1028" 
d="M80 1252h867v-110h-867v110zM168 0v1600h210v-698h276v698h211v-1600h-211v715h-276v-715h-210z" />
    <glyph glyph-name="hbar" unicode="&#x127;" horiz-adv-x="916" 
d="M104 0v1600h215v-518h40q38 67 84 101t133 34q119 0 178.5 -66.5t60.5 -218.5l2 -932h-214l-2 950q0 58 -25.5 84t-83.5 26q-59 0 -105.5 -27t-67.5 -78v-955h-215zM23 1426h484v-124h-484v124z" />
    <glyph glyph-name="Itilde" unicode="&#x128;" horiz-adv-x="435" 
d="M112 0v1600h211v-1600h-211zM369 1869h91q-3 -95 -40.5 -139t-105.5 -44q-42 0 -67.5 13t-43 30.5t-34.5 30.5t-44 13q-25 0 -38.5 -17t-19.5 -59h-91q8 103 47 146.5t106 43.5q44 0 68.5 -13t41 -30.5t33 -30.5t43.5 -13q30 0 41.5 18.5t12.5 50.5z" />
    <glyph glyph-name="itilde" unicode="&#x129;" horiz-adv-x="419" 
d="M104 0v1200h211v-1200h-211zM361 1469h91q-3 -95 -40.5 -139t-105.5 -44q-42 0 -67.5 13t-43 30.5t-34.5 30.5t-44 13q-25 0 -38.5 -17t-19.5 -59h-91q8 103 47 146.5t106 43.5q44 0 68.5 -13t41 -30.5t33 -30.5t43.5 -13q30 0 41.5 18.5t12.5 50.5z" />
    <glyph glyph-name="Imacron" unicode="&#x12a;" horiz-adv-x="435" 
d="M112 0v1600h211v-1600h-211zM-68 1793h573v-102h-573v102z" />
    <glyph glyph-name="imacron" unicode="&#x12b;" horiz-adv-x="419" 
d="M104 0v1200h211v-1200h-211zM-76 1393h573v-102h-573v102z" />
    <glyph glyph-name="Ibreve" unicode="&#x12c;" horiz-adv-x="435" 
d="M112 0v1600h211v-1600h-211zM217 1670q-139 0 -204 63t-72 199h136q1 -74 33 -111t107 -37q74 0 107 36.5t34 111.5h135q-7 -136 -71.5 -199t-204.5 -63z" />
    <glyph glyph-name="ibreve" unicode="&#x12d;" horiz-adv-x="419" 
d="M104 0v1200h211v-1200h-211zM209 1270q-139 0 -204 63t-72 199h136q1 -74 33 -111t107 -37q74 0 107 36.5t34 111.5h135q-7 -136 -71.5 -199t-204.5 -63z" />
    <glyph glyph-name="Iogonek" unicode="&#x12e;" horiz-adv-x="435" 
d="M112 0v1600h211v-1600h-211zM353 -316h-56q-122 0 -172.5 51t-32.5 161l21 104h122l-22 -104q-9 -54 11 -77t74 -23h55v-112z" />
    <glyph glyph-name="iogonek" unicode="&#x12f;" horiz-adv-x="403" 
d="M80 1415v185h243v-185h-243zM104 0v1200h211v-1200h-211zM336 -315h-55q-122 0 -173 51t-32 161l20 104h122l-21 -104q-10 -54 10.5 -77t74.5 -23h54v-112z" />
    <glyph glyph-name="Idotaccent" unicode="&#x130;" horiz-adv-x="435" 
d="M112 0v1600h211v-1600h-211zM138 1680v157h157v-157h-157z" />
    <glyph glyph-name="dotlessi" unicode="&#x131;" horiz-adv-x="419" 
d="M104 0v1200h211v-1200h-211z" />
    <glyph glyph-name="Jcircumflex" unicode="&#x134;" horiz-adv-x="828" 
d="M386 -16q-117 0 -189.5 32.5t-107.5 104t-38 186.5q-2 71 -2 140t2 140h200q-2 -48 -3 -100t0 -103.5t3 -98.5q2 -69 32 -97t103 -28q76 0 106.5 28t30.5 97v1315h211v-1293q0 -173 -80.5 -248t-267.5 -75zM208 1681l161 251h134l161 -251h-147l-81 136l-81 -136h-147z
" />
    <glyph glyph-name="jcircumflex" unicode="&#x135;" horiz-adv-x="425" 
d="M-26 -417q-32 0 -73 3.5t-75 8.5v159q28 -2 69.5 -3.5t77.5 -1.5q69 0 100.5 26.5t31.5 83.5v1341h215v-1322q-1 -157 -84 -226t-262 -69zM-17 1281l161 251h134l161 -251h-147l-81 136l-81 -136h-147z" />
    <glyph glyph-name="uni0136" unicode="&#x136;" horiz-adv-x="879" 
d="M112 0v1600h223l-3 -381l-21 -425h58l125 446l124 360h229l-249 -694l269 -906h-215l-194 672l-131 -305v-367h-215zM390 -399l72 138h-105v181h248v-160l-92 -159h-123z" />
    <glyph glyph-name="uni0137" unicode="&#x137;" horiz-adv-x="810" 
d="M104 0v1600h201v-313l-23 -589h39l108 280l110 222h222l-243 -475l292 -725h-220l-204 512l-76 -128v-384h-206zM350 -399l72 138h-105v181h248v-160l-92 -159h-123z" />
    <glyph glyph-name="kgreenlandic" unicode="&#x138;" horiz-adv-x="870" 
d="M104 0v1200h201v-178l-23 -349h39l96 238l159 289h223l-280 -502l291 -698h-220l-202 485l-78 -137v-348h-206z" />
    <glyph glyph-name="Lacute" unicode="&#x139;" horiz-adv-x="718" 
d="M112 0v1600h211v-1413h377v-187h-588zM335 1680l176 250h157l-184 -250h-149z" />
    <glyph glyph-name="lacute" unicode="&#x13a;" horiz-adv-x="419" 
d="M104 0v1600h211v-1600h-211zM144 1680l176 250h157l-184 -250h-149z" />
    <glyph glyph-name="uni013B" unicode="&#x13b;" horiz-adv-x="718" 
d="M112 0v1600h211v-1413h377v-187h-588zM325 -399l72 138h-105v181h248v-160l-92 -159h-123z" />
    <glyph glyph-name="uni013C" unicode="&#x13c;" horiz-adv-x="419" 
d="M104 0v1600h211v-1600h-211zM128 -399l72 138h-105v181h248v-160l-92 -159h-123z" />
    <glyph glyph-name="Lcaron" unicode="&#x13d;" horiz-adv-x="718" 
d="M112 0v1600h211v-1413h377v-187h-588zM474 1289l61 311h156l-75 -311h-142z" />
    <glyph glyph-name="lcaron" unicode="&#x13e;" horiz-adv-x="591" 
d="M104 0v1600h211v-1600h-211zM373 1290l61 311h156l-75 -311h-142z" />
    <glyph glyph-name="Ldot" unicode="&#x13f;" horiz-adv-x="718" 
d="M112 0v1600h211v-1413h377v-187h-588zM530 750v169h169v-169h-169z" />
    <glyph glyph-name="ldot" unicode="&#x140;" horiz-adv-x="590" 
d="M104 0v1600h211v-1600h-211zM397 743v169h169v-169h-169z" />
    <glyph glyph-name="Lslash" unicode="&#x141;" horiz-adv-x="805" 
d="M199 0v471l-36 -97h-154l190 386v840h211v-503l38 103h167l-205 -414v-599h377v-187h-588z" />
    <glyph glyph-name="lslash" unicode="&#x142;" horiz-adv-x="608" 
d="M188 0v462l-32 -88h-155l187 380v846h210v-512l43 112h166l-209 -422v-778h-210z" />
    <glyph glyph-name="Nacute" unicode="&#x143;" horiz-adv-x="1081" 
d="M112 0v1600h383l100 -508l125 -904h86l-34 801l-14 611h211v-1600h-398l-106 555l-101 859h-88l31 -810l16 -604h-211zM484 1680l176 250h157l-184 -250h-149z" />
    <glyph glyph-name="nacute" unicode="&#x144;" horiz-adv-x="916" 
d="M104 0v1200h212v-118h43q38 66 86 100.5t131 34.5q119 0 179.5 -66.5t61.5 -218.5v-932h-211v950q-1 58 -28.5 84t-85.5 26q-54 0 -105 -28t-71 -78v-954h-212zM397 1280l176 250h157l-184 -250h-149z" />
    <glyph glyph-name="uni0145" unicode="&#x145;" horiz-adv-x="1081" 
d="M112 0v1600h383l100 -508l125 -904h86l-34 801l-14 611h211v-1600h-398l-106 555l-101 859h-88l31 -810l16 -604h-211zM462 -399l72 138h-105v181h248v-160l-92 -159h-123z" />
    <glyph glyph-name="uni0146" unicode="&#x146;" horiz-adv-x="916" 
d="M104 0v1200h212v-118h43q38 66 86 100.5t131 34.5q119 0 179.5 -66.5t61.5 -218.5v-932h-211v950q-1 58 -28.5 84t-85.5 26q-54 0 -105 -28t-71 -78v-954h-212zM380 -399l72 138h-105v181h248v-160l-92 -159h-123z" />
    <glyph glyph-name="Ncaron" unicode="&#x147;" horiz-adv-x="1081" 
d="M112 0v1600h383l100 -508l125 -904h86l-34 801l-14 611h211v-1600h-398l-106 555l-101 859h-88l31 -810l16 -604h-211zM489 1680l-161 250h137l85 -143l86 143h136l-161 -250h-122z" />
    <glyph glyph-name="ncaron" unicode="&#x148;" horiz-adv-x="916" 
d="M104 0v1200h212v-118h43q38 66 86 100.5t131 34.5q119 0 179.5 -66.5t61.5 -218.5v-932h-211v950q-1 58 -28.5 84t-85.5 26q-54 0 -105 -28t-71 -78v-954h-212zM402 1280l-161 250h137l85 -143l86 143h136l-161 -250h-122z" />
    <glyph glyph-name="Eng" unicode="&#x14a;" horiz-adv-x="1081" 
d="M643 -412q-29 0 -67 3.5t-69 9.5v150q25 -2 62 -3.5t71 -1.5q71 0 110.5 24t39.5 78v261h179v-246q0 -141 -75.5 -208t-250.5 -67zM112 0v1600h383l100 -508l125 -904h86l-34 801l-14 611h211v-1600h-398l-106 555l-101 859h-88l31 -810l16 -604h-211z" />
    <glyph glyph-name="eng" unicode="&#x14b;" horiz-adv-x="914" 
d="M447 -415q-30 0 -70 4t-74 9v156q26 -2 67 -3.5t75 -1.5q87 0 121 25t34 88v1088q0 58 -25 84t-84 26q-53 0 -102.5 -28t-69.5 -78v-954h-215v1200h215v-118h41q37 66 85 100.5t131 34.5q119 0 179 -66t60 -219v-1051q0 -158 -89 -227t-279 -69z" />
    <glyph glyph-name="Omacron" unicode="&#x14c;" horiz-adv-x="914" 
d="M456 -16q-187 0 -270 76t-87 252q-2 136 -3 256t-1 235t1 234t3 252q4 175 87 251t270 76q185 0 268 -76t87 -251q4 -134 6 -253t2 -234t-2 -234.5t-6 -255.5q-4 -176 -87 -252t-268 -76zM456 160q79 0 111.5 31t33.5 110q4 137 6.5 259.5t2.5 240t-2.5 240t-6.5 259.5
q-1 78 -33.5 109.5t-111.5 31.5t-111.5 -31.5t-34.5 -109.5q-5 -135 -7 -256.5t-2 -239t2 -241t7 -262.5q2 -79 34.5 -110t111.5 -31zM171 1793h573v-102h-573v102z" />
    <glyph glyph-name="omacron" unicode="&#x14d;" horiz-adv-x="871" 
d="M436 -17q-124 0 -198.5 33t-109.5 104.5t-41 188.5q-3 53 -4 127.5t-1 156.5t1 160t4 139q7 118 42 189.5t109.5 103.5t197.5 32q126 0 200 -33.5t108 -104.5t40 -187q2 -58 3.5 -132.5t1.5 -155t-1.5 -157.5t-3.5 -138q-6 -117 -40.5 -188.5t-108.5 -104.5t-199 -33z
M436 144q75 0 105 28.5t32 87.5q3 90 4.5 174.5t2 167t-1.5 166.5t-5 174q-2 60 -33 87t-104 27t-105 -29t-34 -87q-2 -74 -3.5 -156.5t-2 -169.5t1.5 -176t5 -177q3 -61 34 -89t104 -28zM150 1393h573v-102h-573v102z" />
    <glyph glyph-name="Obreve" unicode="&#x14e;" horiz-adv-x="914" 
d="M456 -16q-187 0 -270 76t-87 252q-2 136 -3 256t-1 235t1 234t3 252q4 175 87 251t270 76q185 0 268 -76t87 -251q4 -134 6 -253t2 -234t-2 -234.5t-6 -255.5q-4 -176 -87 -252t-268 -76zM456 160q79 0 111.5 31t33.5 110q4 137 6.5 259.5t2.5 240t-2.5 240t-6.5 259.5
q-1 78 -33.5 109.5t-111.5 31.5t-111.5 -31.5t-34.5 -109.5q-5 -135 -7 -256.5t-2 -239t2 -241t7 -262.5q2 -79 34.5 -110t111.5 -31zM457 1670q-139 0 -204 63t-72 199h136q1 -74 33 -111t107 -37q74 0 107 36.5t34 111.5h135q-7 -136 -71.5 -199t-204.5 -63z" />
    <glyph glyph-name="obreve" unicode="&#x14f;" horiz-adv-x="871" 
d="M436 -17q-124 0 -198.5 33t-109.5 104.5t-41 188.5q-3 53 -4 127.5t-1 156.5t1 160t4 139q7 118 42 189.5t109.5 103.5t197.5 32q126 0 200 -33.5t108 -104.5t40 -187q2 -58 3.5 -132.5t1.5 -155t-1.5 -157.5t-3.5 -138q-6 -117 -40.5 -188.5t-108.5 -104.5t-199 -33z
M436 144q75 0 105 28.5t32 87.5q3 90 4.5 174.5t2 167t-1.5 166.5t-5 174q-2 60 -33 87t-104 27t-105 -29t-34 -87q-2 -74 -3.5 -156.5t-2 -169.5t1.5 -176t5 -177q3 -61 34 -89t104 -28zM436 1270q-139 0 -204 63t-72 199h136q1 -74 33 -111t107 -37q74 0 107 36.5
t34 111.5h135q-7 -136 -71.5 -199t-204.5 -63z" />
    <glyph glyph-name="Ohungarumlaut" unicode="&#x150;" horiz-adv-x="914" 
d="M456 -16q-187 0 -270 76t-87 252q-2 136 -3 256t-1 235t1 234t3 252q4 175 87 251t270 76q185 0 268 -76t87 -251q4 -134 6 -253t2 -234t-2 -234.5t-6 -255.5q-4 -176 -87 -252t-268 -76zM456 160q79 0 111.5 31t33.5 110q4 137 6.5 259.5t2.5 240t-2.5 240t-6.5 259.5
q-1 78 -33.5 109.5t-111.5 31.5t-111.5 -31.5t-34.5 -109.5q-5 -135 -7 -256.5t-2 -239t2 -241t7 -262.5q2 -79 34.5 -110t111.5 -31zM255 1681l200 252h151l-200 -252h-151zM514 1681l202 252h152l-201 -252h-153z" />
    <glyph glyph-name="ohungarumlaut" unicode="&#x151;" horiz-adv-x="871" 
d="M436 -17q-124 0 -198.5 33t-109.5 104.5t-41 188.5q-3 53 -4 127.5t-1 156.5t1 160t4 139q7 118 42 189.5t109.5 103.5t197.5 32q126 0 200 -33.5t108 -104.5t40 -187q2 -58 3.5 -132.5t1.5 -155t-1.5 -157.5t-3.5 -138q-6 -117 -40.5 -188.5t-108.5 -104.5t-199 -33z
M436 144q75 0 105 28.5t32 87.5q3 90 4.5 174.5t2 167t-1.5 166.5t-5 174q-2 60 -33 87t-104 27t-105 -29t-34 -87q-2 -74 -3.5 -156.5t-2 -169.5t1.5 -176t5 -177q3 -61 34 -89t104 -28zM234 1281l200 252h151l-200 -252h-151zM493 1281l202 252h152l-201 -252h-153z" />
    <glyph glyph-name="OE" unicode="&#x152;" horiz-adv-x="1265" 
d="M456 -16q-187 0 -270 76t-87 252q-2 136 -3 256t-1 235t1 234t3 252q4 175 87 251t270 76q106 0 176 -27l1 11h577v-187h-391v-511h371v-187h-371v-528h391v-187h-578l-1 11q-68 -27 -175 -27zM456 160q79 0 111.5 31t33.5 110q1 25 2 85.5t1 143.5t0.5 176.5t0 187
t-0.5 176.5t-1 143.5t-2 86.5q-1 78 -33.5 109.5t-111.5 31.5t-111.5 -31.5t-34.5 -109.5q-5 -135 -7 -256.5t-2 -239t2 -241t7 -262.5q2 -79 34.5 -110t111.5 -31z" />
    <glyph glyph-name="oe" unicode="&#x153;" horiz-adv-x="1338" 
d="M436 -17q-124 0 -198.5 33t-109.5 104.5t-41 188.5q-3 53 -4 127.5t-1 156.5t1 160t4 139q7 118 42 189.5t109.5 103.5t197.5 32q126 0 200 -33.5t108 -104.5t40 -187q2 -58 3.5 -132.5t1.5 -155t-1.5 -157.5t-3.5 -138q-6 -117 -40.5 -188.5t-108.5 -104.5t-199 -33z
M436 144q75 0 105 28.5t32 87.5q3 90 4.5 174.5t2 167t-1.5 166.5t-5 174q-2 60 -33 87t-104 27t-105 -29t-34 -87q-2 -74 -3.5 -156.5t-2 -169.5t1.5 -176t5 -177q3 -61 34 -89t104 -28zM931 -17q-181 0 -259 70t-86 227q-3 62 -4 146t-1 174t1 173t4 145q9 161 89.5 230
t252.5 69q175 0 252 -69t84 -222q1 -23 1.5 -84t0 -136.5t-3.5 -143.5h-468q0 -74 1.5 -149.5t3.5 -155.5q2 -62 32.5 -87.5t97.5 -25.5t94 25.5t30 87.5q2 31 2 77t-3 103h210q2 -26 3 -75.5t-1 -81.5q-8 -159 -84 -228t-249 -69zM795 715h260q1 48 1 96t-0.5 84.5
t-2.5 51.5q-3 61 -32 85.5t-93 24.5q-70 0 -98.5 -26.5t-30.5 -83.5q-1 -58 -2.5 -116.5t-1.5 -115.5z" />
    <glyph glyph-name="Racute" unicode="&#x154;" horiz-adv-x="879" 
d="M112 0v1600h338q177 0 256.5 -71.5t84.5 -236.5q3 -80 4 -144.5t0 -125t-4 -130.5q-4 -107 -38.5 -173t-105.5 -99l171 -620h-222l-149 585h-124v-585h-211zM323 772h126q68 0 98.5 27t33.5 84q3 75 4 142.5t0.5 134.5t-4.5 142q-3 58 -33.5 84.5t-97.5 26.5h-127v-641z
M369 1680l176 250h157l-184 -250h-149z" />
    <glyph glyph-name="racute" unicode="&#x155;" horiz-adv-x="632" 
d="M104 0v1200h216v-130h41q16 76 61 106t118 30q22 0 43 -2t38 -3v-162h-78q-97 0 -151 -29.5t-72 -102.5v-907h-216zM285 1280l176 250h157l-184 -250h-149z" />
    <glyph glyph-name="uni0156" unicode="&#x156;" horiz-adv-x="879" 
d="M112 0v1600h338q177 0 256.5 -71.5t84.5 -236.5q3 -80 4 -144.5t0 -125t-4 -130.5q-4 -107 -38.5 -173t-105.5 -99l171 -620h-222l-149 585h-124v-585h-211zM323 772h126q68 0 98.5 27t33.5 84q3 75 4 142.5t0.5 134.5t-4.5 142q-3 58 -33.5 84.5t-97.5 26.5h-127v-641z
M374 -399l72 138h-105v181h248v-160l-92 -159h-123z" />
    <glyph glyph-name="uni0157" unicode="&#x157;" horiz-adv-x="632" 
d="M104 0v1200h216v-130h41q16 76 61 106t118 30q22 0 43 -2t38 -3v-162h-78q-97 0 -151 -29.5t-72 -102.5v-907h-216zM130 -399l72 138h-105v181h248v-160l-92 -159h-123z" />
    <glyph glyph-name="Rcaron" unicode="&#x158;" horiz-adv-x="879" 
d="M112 0v1600h338q177 0 256.5 -71.5t84.5 -236.5q3 -80 4 -144.5t0 -125t-4 -130.5q-4 -107 -38.5 -173t-105.5 -99l171 -620h-222l-149 585h-124v-585h-211zM323 772h126q68 0 98.5 27t33.5 84q3 75 4 142.5t0.5 134.5t-4.5 142q-3 58 -33.5 84.5t-97.5 26.5h-127v-641z
M374 1680l-161 250h137l85 -143l86 143h136l-161 -250h-122z" />
    <glyph glyph-name="rcaron" unicode="&#x159;" horiz-adv-x="632" 
d="M104 0v1200h216v-130h41q16 76 61 106t118 30q22 0 43 -2t38 -3v-162h-78q-97 0 -151 -29.5t-72 -102.5v-907h-216zM290 1280l-161 250h137l85 -143l86 143h136l-161 -250h-122z" />
    <glyph glyph-name="Sacute" unicode="&#x15a;" horiz-adv-x="876" 
d="M440 -16q-184 0 -266 75t-89 248q-1 48 -1.5 93.5t1 91.5t5.5 95h200q-4 -83 -5 -161t5 -153q4 -60 39 -86.5t110 -26.5q71 0 105 26.5t39 86.5q4 41 5 84.5t-0.5 87.5t-4.5 85q-3 66 -32.5 104t-89.5 53l-139 32q-90 22 -142 65t-74.5 112t-25.5 169q-1 57 -0.5 114.5
t1.5 116.5q4 115 41.5 185t115 102.5t201.5 32.5q181 0 261.5 -74.5t87.5 -246.5q2 -55 1 -125.5t-4 -141.5h-203q3 83 4 156t-2 144q-2 60 -37 86.5t-109 26.5q-72 0 -106.5 -26.5t-39.5 -86.5q-5 -67 -5 -131t5 -132q3 -69 25 -107t76 -51l125 -27q101 -22 160 -66.5
t86.5 -114.5t30.5 -169q2 -36 2 -74.5t-1 -76t-2 -72.5q-7 -173 -89 -248t-265 -75zM372 1680l176 250h157l-184 -250h-149z" />
    <glyph glyph-name="sacute" unicode="&#x15b;" horiz-adv-x="795" 
d="M392 -17q-170 0 -240.5 69.5t-77.5 226.5q-1 42 -0.5 80t2.5 69h190q-3 -59 -2.5 -100t1.5 -71q2 -63 32 -88t95 -25q73 0 105 25.5t33 88.5q1 28 1 42.5v28t-1 37.5q-1 56 -18.5 85.5t-67.5 43.5l-124 34q-85 24 -140 60.5t-81.5 93.5t-28.5 145q-1 28 -0.5 48t0.5 42
q2 160 76.5 229.5t256.5 69.5q168 0 239.5 -67.5t77.5 -225.5q1 -22 0.5 -72t-3.5 -77h-195q2 28 2 61v63t-1 49q-2 60 -28 84t-92 24q-68 0 -95 -24t-29 -84q0 -14 -1 -38t-1 -62q1 -61 17.5 -96.5t74.5 -51.5l113 -28q125 -30 186.5 -97.5t61.5 -199.5q0 -27 -0.5 -50
t-1.5 -51q-2 -155 -78 -223t-258 -68zM331 1280l176 250h157l-184 -250h-149z" />
    <glyph glyph-name="Scircumflex" unicode="&#x15c;" horiz-adv-x="876" 
d="M440 -16q-184 0 -266 75t-89 248q-1 48 -1.5 93.5t1 91.5t5.5 95h200q-4 -83 -5 -161t5 -153q4 -60 39 -86.5t110 -26.5q71 0 105 26.5t39 86.5q4 41 5 84.5t-0.5 87.5t-4.5 85q-3 66 -32.5 104t-89.5 53l-139 32q-90 22 -142 65t-74.5 112t-25.5 169q-1 57 -0.5 114.5
t1.5 116.5q4 115 41.5 185t115 102.5t201.5 32.5q181 0 261.5 -74.5t87.5 -246.5q2 -55 1 -125.5t-4 -141.5h-203q3 83 4 156t-2 144q-2 60 -37 86.5t-109 26.5q-72 0 -106.5 -26.5t-39.5 -86.5q-5 -67 -5 -131t5 -132q3 -69 25 -107t76 -51l125 -27q101 -22 160 -66.5
t86.5 -114.5t30.5 -169q2 -36 2 -74.5t-1 -76t-2 -72.5q-7 -173 -89 -248t-265 -75zM207 1681l161 251h134l161 -251h-147l-81 136l-81 -136h-147z" />
    <glyph glyph-name="scircumflex" unicode="&#x15d;" horiz-adv-x="795" 
d="M392 -17q-170 0 -240.5 69.5t-77.5 226.5q-1 42 -0.5 80t2.5 69h190q-3 -59 -2.5 -100t1.5 -71q2 -63 32 -88t95 -25q73 0 105 25.5t33 88.5q1 28 1 42.5v28t-1 37.5q-1 56 -18.5 85.5t-67.5 43.5l-124 34q-85 24 -140 60.5t-81.5 93.5t-28.5 145q-1 28 -0.5 48t0.5 42
q2 160 76.5 229.5t256.5 69.5q168 0 239.5 -67.5t77.5 -225.5q1 -22 0.5 -72t-3.5 -77h-195q2 28 2 61v63t-1 49q-2 60 -28 84t-92 24q-68 0 -95 -24t-29 -84q0 -14 -1 -38t-1 -62q1 -61 17.5 -96.5t74.5 -51.5l113 -28q125 -30 186.5 -97.5t61.5 -199.5q0 -27 -0.5 -50
t-1.5 -51q-2 -155 -78 -223t-258 -68zM167 1281l161 251h134l161 -251h-147l-81 136l-81 -136h-147z" />
    <glyph glyph-name="Scedilla" unicode="&#x15e;" horiz-adv-x="876" 
d="M440 -16q-184 0 -266 75t-89 248q-1 48 -1.5 93.5t1 91.5t5.5 95h200q-4 -83 -5 -161t5 -153q4 -60 39 -86.5t110 -26.5q71 0 105 26.5t39 86.5q4 41 5 84.5t-0.5 87.5t-4.5 85q-3 66 -32.5 104t-89.5 53l-139 32q-90 22 -142 65t-74.5 112t-25.5 169q-1 57 -0.5 114.5
t1.5 116.5q4 115 41.5 185t115 102.5t201.5 32.5q181 0 261.5 -74.5t87.5 -246.5q2 -55 1 -125.5t-4 -141.5h-203q3 83 4 156t-2 144q-2 60 -37 86.5t-109 26.5q-72 0 -106.5 -26.5t-39.5 -86.5q-5 -67 -5 -131t5 -132q3 -69 25 -107t76 -51l125 -27q101 -22 160 -66.5
t86.5 -114.5t30.5 -169q2 -36 2 -74.5t-1 -76t-2 -72.5q-7 -173 -89 -248t-265 -75zM259 -304v112h54q54 0 74.5 23t10.5 77l-21 104h122l20 -104q19 -110 -31.5 -161t-173.5 -51h-55z" />
    <glyph glyph-name="scedilla" unicode="&#x15f;" horiz-adv-x="795" 
d="M392 -17q-170 0 -240.5 69.5t-77.5 226.5q-1 42 -0.5 80t2.5 69h190q-3 -59 -2.5 -100t1.5 -71q2 -63 32 -88t95 -25q73 0 105 25.5t33 88.5q1 28 1 42.5v28t-1 37.5q-1 56 -18.5 85.5t-67.5 43.5l-124 34q-85 24 -140 60.5t-81.5 93.5t-28.5 145q-1 28 -0.5 48t0.5 42
q2 160 76.5 229.5t256.5 69.5q168 0 239.5 -67.5t77.5 -225.5q1 -22 0.5 -72t-3.5 -77h-195q2 28 2 61v63t-1 49q-2 60 -28 84t-92 24q-68 0 -95 -24t-29 -84q0 -14 -1 -38t-1 -62q1 -61 17.5 -96.5t74.5 -51.5l113 -28q125 -30 186.5 -97.5t61.5 -199.5q0 -27 -0.5 -50
t-1.5 -51q-2 -155 -78 -223t-258 -68zM218 -304v112h54q54 0 74.5 23t10.5 77l-21 104h122l20 -104q19 -110 -31.5 -161t-173.5 -51h-55z" />
    <glyph glyph-name="Scaron" unicode="&#x160;" horiz-adv-x="876" 
d="M440 -16q-184 0 -266 75t-89 248q-1 48 -1.5 93.5t1 91.5t5.5 95h200q-4 -83 -5 -161t5 -153q4 -60 39 -86.5t110 -26.5q71 0 105 26.5t39 86.5q4 41 5 84.5t-0.5 87.5t-4.5 85q-3 66 -32.5 104t-89.5 53l-139 32q-90 22 -142 65t-74.5 112t-25.5 169q-1 57 -0.5 114.5
t1.5 116.5q4 115 41.5 185t115 102.5t201.5 32.5q181 0 261.5 -74.5t87.5 -246.5q2 -55 1 -125.5t-4 -141.5h-203q3 83 4 156t-2 144q-2 60 -37 86.5t-109 26.5q-72 0 -106.5 -26.5t-39.5 -86.5q-5 -67 -5 -131t5 -132q3 -69 25 -107t76 -51l125 -27q101 -22 160 -66.5
t86.5 -114.5t30.5 -169q2 -36 2 -74.5t-1 -76t-2 -72.5q-7 -173 -89 -248t-265 -75zM377 1680l-161 250h137l85 -143l86 143h136l-161 -250h-122z" />
    <glyph glyph-name="scaron" unicode="&#x161;" horiz-adv-x="795" 
d="M392 -17q-170 0 -240.5 69.5t-77.5 226.5q-1 42 -0.5 80t2.5 69h190q-3 -59 -2.5 -100t1.5 -71q2 -63 32 -88t95 -25q73 0 105 25.5t33 88.5q1 28 1 42.5v28t-1 37.5q-1 56 -18.5 85.5t-67.5 43.5l-124 34q-85 24 -140 60.5t-81.5 93.5t-28.5 145q-1 28 -0.5 48t0.5 42
q2 160 76.5 229.5t256.5 69.5q168 0 239.5 -67.5t77.5 -225.5q1 -22 0.5 -72t-3.5 -77h-195q2 28 2 61v63t-1 49q-2 60 -28 84t-92 24q-68 0 -95 -24t-29 -84q0 -14 -1 -38t-1 -62q1 -61 17.5 -96.5t74.5 -51.5l113 -28q125 -30 186.5 -97.5t61.5 -199.5q0 -27 -0.5 -50
t-1.5 -51q-2 -155 -78 -223t-258 -68zM336 1280l-161 250h137l85 -143l86 143h136l-161 -250h-122z" />
    <glyph glyph-name="uni0162" unicode="&#x162;" horiz-adv-x="743" 
d="M267 0v1413h-254v187h717v-187h-253v-1413h-210zM193 -304v112h54q54 0 74.5 23t10.5 77l-21 104h122l20 -104q19 -110 -31.5 -161t-173.5 -51h-55z" />
    <glyph glyph-name="uni0163" unicode="&#x163;" horiz-adv-x="611" 
d="M485 -17q-190 0 -269 68.5t-80 230.5l-1 757h-103v161h108v340h214v-340h213v-161h-219l2 -781q0 -68 28.5 -91.5t107.5 -23.5q29 0 52 1t52 3v-154q-24 -4 -49.5 -7t-55.5 -3zM202 -304v112h54q54 0 74.5 23t10.5 77l-21 104h122l20 -104q19 -110 -31.5 -161t-173.5 -51
h-55z" />
    <glyph glyph-name="Tcaron" unicode="&#x164;" horiz-adv-x="743" 
d="M267 0v1413h-254v187h717v-187h-253v-1413h-210zM311 1680l-161 250h137l85 -143l86 143h136l-161 -250h-122z" />
    <glyph glyph-name="tcaron" unicode="&#x165;" horiz-adv-x="652" 
d="M485 -17q-190 0 -269 68.5t-80 230.5l-1 757h-103v161h108v340h214v-340h213v-161h-219l2 -781q0 -68 28.5 -91.5t107.5 -23.5q29 0 52 1t52 3v-154q-24 -4 -49.5 -7t-55.5 -3zM411 1290l61 311h156l-75 -311h-142z" />
    <glyph glyph-name="Tbar" unicode="&#x166;" horiz-adv-x="743" 
d="M267 0v1413h-254v187h717v-187h-253v-1413h-210zM129 813h484v-124h-484v124z" />
    <glyph glyph-name="tbar" unicode="&#x167;" horiz-adv-x="611" 
d="M485 -17q-190 0 -269 68.5t-80 230.5l-1 757h-103v161h108v340h214v-340h213v-161h-219l2 -781q0 -68 28.5 -91.5t107.5 -23.5q29 0 52 1t52 3v-154q-24 -4 -49.5 -7t-55.5 -3zM53 748h484v-124h-484v124z" />
    <glyph glyph-name="Utilde" unicode="&#x168;" horiz-adv-x="905" 
d="M453 -16q-188 0 -270 74.5t-85 245.5q-4 325 -4 648.5t4 647.5h211q-3 -216 -4 -437.5t0.5 -442.5t2.5 -438q0 -63 34.5 -92t110.5 -29t110 29t34 92q1 217 2.5 438t1 442.5t-3.5 437.5h210q5 -324 5 -647.5t-5 -648.5q-2 -171 -84 -245.5t-270 -74.5zM604 1869h91
q-3 -95 -40.5 -139t-105.5 -44q-42 0 -67.5 13t-43 30.5t-34.5 30.5t-44 13q-25 0 -38.5 -17t-19.5 -59h-91q8 103 47 146.5t106 43.5q44 0 68.5 -13t41 -30.5t33 -30.5t43.5 -13q30 0 41.5 18.5t12.5 50.5z" />
    <glyph glyph-name="utilde" unicode="&#x169;" horiz-adv-x="911" 
d="M343 -17q-117 0 -182 67t-65 219v931h213l2 -949q0 -58 25.5 -84.5t82.5 -26.5q55 0 104 28.5t69 77.5v954h214v-1200h-214v118h-32q-40 -71 -93 -103t-124 -32zM600 1469h91q-3 -95 -40.5 -139t-105.5 -44q-42 0 -67.5 13t-43 30.5t-34.5 30.5t-44 13q-25 0 -38.5 -17
t-19.5 -59h-91q8 103 47 146.5t106 43.5q44 0 68.5 -13t41 -30.5t33 -30.5t43.5 -13q30 0 41.5 18.5t12.5 50.5z" />
    <glyph glyph-name="Umacron" unicode="&#x16a;" horiz-adv-x="905" 
d="M453 -16q-188 0 -270 74.5t-85 245.5q-4 325 -4 648.5t4 647.5h211q-3 -216 -4 -437.5t0.5 -442.5t2.5 -438q0 -63 34.5 -92t110.5 -29t110 29t34 92q1 217 2.5 438t1 442.5t-3.5 437.5h210q5 -324 5 -647.5t-5 -648.5q-2 -171 -84 -245.5t-270 -74.5zM167 1793h573v-102
h-573v102z" />
    <glyph glyph-name="umacron" unicode="&#x16b;" horiz-adv-x="911" 
d="M343 -17q-117 0 -182 67t-65 219v931h213l2 -949q0 -58 25.5 -84.5t82.5 -26.5q55 0 104 28.5t69 77.5v954h214v-1200h-214v118h-32q-40 -71 -93 -103t-124 -32zM163 1393h573v-102h-573v102z" />
    <glyph glyph-name="Ubreve" unicode="&#x16c;" horiz-adv-x="905" 
d="M453 -16q-188 0 -270 74.5t-85 245.5q-4 325 -4 648.5t4 647.5h211q-3 -216 -4 -437.5t0.5 -442.5t2.5 -438q0 -63 34.5 -92t110.5 -29t110 29t34 92q1 217 2.5 438t1 442.5t-3.5 437.5h210q5 -324 5 -647.5t-5 -648.5q-2 -171 -84 -245.5t-270 -74.5zM453 1670
q-139 0 -204 63t-72 199h136q1 -74 33 -111t107 -37q74 0 107 36.5t34 111.5h135q-7 -136 -71.5 -199t-204.5 -63z" />
    <glyph glyph-name="ubreve" unicode="&#x16d;" horiz-adv-x="911" 
d="M343 -17q-117 0 -182 67t-65 219v931h213l2 -949q0 -58 25.5 -84.5t82.5 -26.5q55 0 104 28.5t69 77.5v954h214v-1200h-214v118h-32q-40 -71 -93 -103t-124 -32zM448 1270q-139 0 -204 63t-72 199h136q1 -74 33 -111t107 -37q74 0 107 36.5t34 111.5h135
q-7 -136 -71.5 -199t-204.5 -63z" />
    <glyph glyph-name="Uring" unicode="&#x16e;" horiz-adv-x="905" 
d="M453 -16q-188 0 -270 74.5t-85 245.5q-4 325 -4 648.5t4 647.5h211q-3 -216 -4 -437.5t0.5 -442.5t2.5 -438q0 -63 34.5 -92t110.5 -29t110 29t34 92q1 217 2.5 438t1 442.5t-3.5 437.5h210q5 -324 5 -647.5t-5 -648.5q-2 -171 -84 -245.5t-270 -74.5zM453 1670
q-75 0 -129 54t-54 129t54 129t129 54t129 -54t54 -129t-54 -129t-129 -54zM453 1788q28 0 47.5 19.5t19.5 45.5q0 28 -20 47.5t-47 19.5q-26 0 -46 -19.5t-20 -47.5q0 -26 19.5 -45.5t46.5 -19.5z" />
    <glyph glyph-name="uring" unicode="&#x16f;" horiz-adv-x="911" 
d="M343 -17q-117 0 -182 67t-65 219v931h213l2 -949q0 -58 25.5 -84.5t82.5 -26.5q55 0 104 28.5t69 77.5v954h214v-1200h-214v118h-32q-40 -71 -93 -103t-124 -32zM449 1270q-75 0 -129 54t-54 129t54 129t129 54t129 -54t54 -129t-54 -129t-129 -54zM449 1388
q28 0 47.5 19.5t19.5 45.5q0 28 -20 47.5t-47 19.5q-26 0 -46 -19.5t-20 -47.5q0 -26 19.5 -45.5t46.5 -19.5z" />
    <glyph glyph-name="Uhungarumlaut" unicode="&#x170;" horiz-adv-x="905" 
d="M453 -16q-188 0 -270 74.5t-85 245.5q-4 325 -4 648.5t4 647.5h211q-3 -216 -4 -437.5t0.5 -442.5t2.5 -438q0 -63 34.5 -92t110.5 -29t110 29t34 92q1 217 2.5 438t1 442.5t-3.5 437.5h210q5 -324 5 -647.5t-5 -648.5q-2 -171 -84 -245.5t-270 -74.5zM251 1681l200 252
h151l-200 -252h-151zM510 1681l202 252h152l-201 -252h-153z" />
    <glyph glyph-name="uhungarumlaut" unicode="&#x171;" horiz-adv-x="911" 
d="M343 -17q-117 0 -182 67t-65 219v931h213l2 -949q0 -58 25.5 -84.5t82.5 -26.5q55 0 104 28.5t69 77.5v954h214v-1200h-214v118h-32q-40 -71 -93 -103t-124 -32zM247 1281l200 252h151l-200 -252h-151zM506 1281l202 252h152l-201 -252h-153z" />
    <glyph glyph-name="Uogonek" unicode="&#x172;" horiz-adv-x="905" 
d="M453 -16q-188 0 -270 74.5t-85 245.5q-4 325 -4 648.5t4 647.5h211q-3 -216 -4 -437.5t0.5 -442.5t2.5 -438q0 -63 34.5 -92t110.5 -29t110 29t34 92q1 217 2.5 438t1 442.5t-3.5 437.5h210q5 -324 5 -647.5t-5 -648.5q-2 -171 -84 -245.5t-270 -74.5zM796 -282h-56
q-122 0 -172.5 51t-32.5 161l21 104h122l-22 -104q-9 -54 11 -77t74 -23h55v-112z" />
    <glyph glyph-name="uogonek" unicode="&#x173;" horiz-adv-x="911" 
d="M343 -17q-117 0 -182 67t-65 219v931h213l2 -949q0 -58 25.5 -84.5t82.5 -26.5q55 0 104 28.5t69 77.5v954h214v-1200h-214v118h-32q-40 -71 -93 -103t-124 -32zM834 -305h-56q-122 0 -172.5 51t-32.5 161l21 104h122l-22 -104q-9 -54 11 -77t74 -23h55v-112z" />
    <glyph glyph-name="Wcircumflex" unicode="&#x174;" horiz-adv-x="1447" 
d="M184 0l-126 1600h212l42 -650l37 -762h82l26 762l98 640h336l98 -640l26 -762h82l38 762l43 650h210l-126 -1600h-397l-61 495l-40 914h-81l-42 -914l-60 -495h-397zM459 1681l161 251h134l161 -251h-147l-81 136l-81 -136h-147z" />
    <glyph glyph-name="wcircumflex" unicode="&#x175;" horiz-adv-x="1313" 
d="M175 0l-144 1200h214l50 -604l31 -438h70l20 438l57 601h368l53 -601l23 -438h68l30 438l54 604h213l-147 -1200h-373l-38 464l-30 575h-75l-32 -575l-35 -464h-377zM429 1281l161 251h134l161 -251h-147l-81 136l-81 -136h-147z" />
    <glyph glyph-name="Ycircumflex" unicode="&#x176;" horiz-adv-x="800" 
d="M294 0v529h-41l-222 1071h214l77 -428l49 -462h58l48 462l77 428h216l-225 -1071h-40v-529h-211zM170 1681l161 251h134l161 -251h-147l-81 136l-81 -136h-147z" />
    <glyph glyph-name="ycircumflex" unicode="&#x177;" horiz-adv-x="803" 
d="M205 -414q-31 0 -73 4t-75 9v159q27 -3 70.5 -5t75.5 -2q83 0 114 25.5t41 89.5l22 134h-140l-195 1200h218l61 -565l55 -477h65l51 477l57 565h219l-199 -1319q-16 -98 -52 -163.5t-110.5 -98.5t-204.5 -33zM175 1281l161 251h134l161 -251h-147l-81 136l-81 -136h-147z
" />
    <glyph glyph-name="Ydieresis" unicode="&#x178;" horiz-adv-x="800" 
d="M294 0v529h-41l-222 1071h214l77 -428l49 -462h58l48 462l77 428h216l-225 -1071h-40v-529h-211zM451 1710v157h157v-157h-157zM192 1710v157h157v-157h-157z" />
    <glyph glyph-name="Zacute" unicode="&#x179;" horiz-adv-x="723" 
d="M34 0v175l430 1238h-407v187h632v-180l-441 -1233h407v-187h-621zM302 1680l176 250h157l-184 -250h-149z" />
    <glyph glyph-name="zacute" unicode="&#x17a;" horiz-adv-x="713" 
d="M43 0v135l406 907l-397 -2v158l626 2v-139l-412 -903h402v-158h-625zM295 1280l176 250h157l-184 -250h-149z" />
    <glyph glyph-name="Zdotaccent" unicode="&#x17b;" horiz-adv-x="723" 
d="M34 0v175l430 1238h-407v187h632v-180l-441 -1233h407v-187h-621zM288 1680v157h157v-157h-157z" />
    <glyph glyph-name="zdotaccent" unicode="&#x17c;" horiz-adv-x="713" 
d="M43 0v135l406 907l-397 -2v158l626 2v-139l-412 -903h402v-158h-625zM282 1280v157h157v-157h-157z" />
    <glyph glyph-name="Zcaron" unicode="&#x17d;" horiz-adv-x="723" 
d="M34 0v175l430 1238h-407v187h632v-180l-441 -1233h407v-187h-621zM307 1680l-161 250h137l85 -143l86 143h136l-161 -250h-122z" />
    <glyph glyph-name="zcaron" unicode="&#x17e;" horiz-adv-x="713" 
d="M43 0v135l406 907l-397 -2v158l626 2v-139l-412 -903h402v-158h-625zM300 1280l-161 250h137l85 -143l86 143h136l-161 -250h-122z" />
    <glyph glyph-name="uni018E" unicode="&#x18e;" horiz-adv-x="769" 
d="M657 0h-602v187h392v528h-372v187h372v511h-392v187h602v-1600z" />
    <glyph glyph-name="uni018F" unicode="&#x18f;" horiz-adv-x="904" 
d="M455 -16q-185 0 -266.5 74.5t-83.5 246.5q-2 142 -1.5 271.5t1.5 282.5h497q-1 112 -3 226t-5 241q-1 60 -34.5 86t-105.5 26q-75 0 -110 -26t-37 -86q-1 -47 -1 -101.5t0.5 -109t1.5 -102.5h-211q-1 78 -1.5 141t1.5 139q5 173 88 247.5t269 74.5q185 0 266 -74.5
t84 -247.5q2 -133 3.5 -255t1.5 -239.5t-1.5 -239.5t-3.5 -256q-2 -169 -83 -244t-266 -75zM455 160q71 0 104.5 26.5t34.5 84.5q3 118 5 225t3 211h-291v-146t1 -139t3 -151q2 -58 35 -84.5t105 -26.5z" />
    <glyph glyph-name="florin" unicode="&#x192;" horiz-adv-x="1346" 
d="M236 -18q-37 0 -74 5t-66 10l27 157q25 -2 63 -3.5t61 -1.5q70 0 113.5 33.5t59.5 91.5l135 484h-229v114h261l130 463q42 153 133.5 218.5t260.5 65.5q37 0 74.5 -4.5t64.5 -10.5l-24 -154q-29 1 -60.5 2t-65.5 1q-70 0 -113.5 -34t-59.5 -91l-128 -456h278v-114h-310
l-138 -491q-27 -94 -72 -157.5t-122 -95.5t-199 -32z" />
    <glyph glyph-name="Ohorn" unicode="&#x1a0;" horiz-adv-x="914" 
d="M456 -16q-187 0 -270 76t-87 252q-2 136 -3 256t-1 235t1 234t3 252q4 175 87 251t270 76q185 0 268 -76t87 -251q4 -134 6 -253t2 -234t-2 -234.5t-6 -255.5q-4 -176 -87 -252t-268 -76zM456 160q79 0 111.5 31t33.5 110q4 137 6.5 259.5t2.5 240t-2.5 240t-6.5 259.5
q-1 78 -33.5 109.5t-111.5 31.5t-111.5 -31.5t-34.5 -109.5q-5 -135 -7 -256.5t-2 -239t2 -241t7 -262.5q2 -79 34.5 -110t111.5 -31zM650 1480q-8 0 -19 1t-24 3v110h26h17q62 1 86 31t28 107q1 20 1.5 52t0 64.5t-1.5 51.5h122q1 -19 1.5 -51.5t0 -64.5t-1.5 -52
q-7 -129 -64 -190.5t-172 -61.5z" />
    <glyph glyph-name="ohorn" unicode="&#x1a1;" horiz-adv-x="871" 
d="M436 -17q-124 0 -198.5 33t-109.5 104.5t-41 188.5q-3 53 -4 127.5t-1 156.5t1 160t4 139q7 118 42 189.5t109.5 103.5t197.5 32q126 0 200 -33.5t108 -104.5t40 -187q2 -58 3.5 -132.5t1.5 -155t-1.5 -157.5t-3.5 -138q-6 -117 -40.5 -188.5t-108.5 -104.5t-199 -33z
M436 144q75 0 105 28.5t32 87.5q3 90 4.5 174.5t2 167t-1.5 166.5t-5 174q-2 60 -33 87t-104 27t-105 -29t-34 -87q-2 -74 -3.5 -156.5t-2 -169.5t1.5 -176t5 -177q3 -61 34 -89t104 -28zM632 1081q-8 0 -19 1t-24 3v110h26h17q62 1 86 31t28 107q1 20 1.5 52t0 64.5
t-1.5 51.5h122q1 -19 1.5 -51.5t0 -64.5t-1.5 -52q-7 -129 -64 -190.5t-172 -61.5z" />
    <glyph glyph-name="Uhorn" unicode="&#x1af;" horiz-adv-x="905" 
d="M453 -16q-188 0 -270 74.5t-85 245.5q-4 325 -4 648.5t4 647.5h211q-3 -216 -4 -437.5t0.5 -442.5t2.5 -438q0 -63 34.5 -92t110.5 -29t110 29t34 92q1 217 2.5 438t1 442.5t-3.5 437.5h210q5 -324 5 -647.5t-5 -648.5q-2 -171 -84 -245.5t-270 -74.5zM680 1486
q-8 0 -19 1t-24 3v110h26h17q62 1 86 31t28 107q1 20 1.5 52t0 64.5t-1.5 51.5h122q1 -19 1.5 -51.5t0 -64.5t-1.5 -52q-7 -129 -64 -190.5t-172 -61.5z" />
    <glyph glyph-name="uhorn" unicode="&#x1b0;" horiz-adv-x="911" 
d="M343 -17q-117 0 -182 67t-65 219v931h213l2 -949q0 -58 25.5 -84.5t82.5 -26.5q55 0 104 28.5t69 77.5v954h214v-1200h-214v118h-32q-40 -71 -93 -103t-124 -32zM711 1084q-8 0 -19 1t-24 3v110h26h17q62 1 86 31t28 107q1 20 1.5 52t0 64.5t-1.5 51.5h122
q1 -19 1.5 -51.5t0 -64.5t-1.5 -52q-7 -129 -64 -190.5t-172 -61.5z" />
    <glyph glyph-name="uni01C4" unicode="&#x1c4;" horiz-adv-x="1621" 
d="M112 0v1600h346q184 0 265 -74.5t84 -245.5t4 -325.5t0 -308t-4 -325.5q-3 -171 -83 -246t-259 -75h-353zM323 187h142q68 0 99 27.5t32 85.5q4 136 5.5 259t1.5 242t-1.5 242t-5.5 259q-1 57 -33 84t-105 27h-135v-1226zM932 0v175l430 1238h-407v187h632v-180
l-441 -1233h407v-187h-621zM1205 1680l-161 250h137l85 -143l86 143h136l-161 -250h-122z" />
    <glyph glyph-name="uni01C5" unicode="&#x1c5;" horiz-adv-x="1619" 
d="M112 0v1600h346q184 0 265 -74.5t84 -245.5t4 -325.5t0 -308t-4 -325.5q-3 -171 -83 -246t-259 -75h-353zM323 187h142q68 0 99 27.5t32 85.5q4 136 5.5 259t1.5 242t-1.5 242t-5.5 259q-1 57 -33 84t-105 27h-135v-1226zM949 0v135l406 907l-397 -2v158l626 2v-139
l-412 -903h402v-158h-625zM1206 1280l-161 250h137l85 -143l86 143h136l-161 -250h-122z" />
    <glyph glyph-name="uni01C6" unicode="&#x1c6;" horiz-adv-x="1614" 
d="M329 -17q-118 0 -177 66.5t-65 218.5q-3 70 -4 157.5t-1 179t1.5 176.5t3.5 151q5 155 68.5 220t177.5 65q86 0 132.5 -34t83.5 -101h33v518h215v-1600h-215v118h-35q-37 -66 -85 -100.5t-133 -34.5zM411 140q54 0 102 26.5t69 79.5v709q-21 53 -69 79t-102 26
q-56 0 -81.5 -25.5t-28.5 -80.5q-5 -115 -6.5 -239t0 -243t5.5 -218q3 -62 29 -88t82 -26zM944 0v135l406 907l-397 -2v158l626 2v-139l-412 -903h402v-158h-625zM1201 1280l-161 250h137l85 -143l86 143h136l-161 -250h-122z" />
    <glyph glyph-name="uni01C7" unicode="&#x1c7;" horiz-adv-x="1546" 
d="M112 0v1600h211v-1413h377v-187h-588zM1104 -16q-117 0 -189.5 32.5t-107.5 104t-38 186.5q-2 71 -2 140t2 140h200q-2 -48 -3 -100t0 -103.5t3 -98.5q2 -69 32 -97t103 -28q76 0 106.5 28t30.5 97v1315h211v-1293q0 -173 -80.5 -248t-267.5 -75z" />
    <glyph glyph-name="uni01C8" unicode="&#x1c8;" horiz-adv-x="1139" 
d="M112 0v1600h211v-1413h377v-187h-588zM810 1415v185h244v-185h-244zM692 -417q-32 0 -73 3.5t-75 8.5v159q28 -2 69.5 -3.5t77.5 -1.5q69 0 100.5 26.5t31.5 83.5v1341h212v-1322q0 -157 -82 -226t-261 -69z" />
    <glyph glyph-name="uni01C9" unicode="&#x1c9;" horiz-adv-x="840" 
d="M104 0v1600h211v-1600h-211zM511 1415v185h244v-185h-244zM393 -417q-32 0 -73 3.5t-75 8.5v159q28 -2 69.5 -3.5t77.5 -1.5q69 0 100.5 26.5t31.5 83.5v1341h212v-1322q0 -157 -82 -226t-261 -69z" />
    <glyph glyph-name="uni01CA" unicode="&#x1ca;" horiz-adv-x="1909" 
d="M112 0v1600h383l100 -508l125 -904h86l-34 801l-14 611h211v-1600h-398l-106 555l-101 859h-88l31 -810l16 -604h-211zM1467 -16q-117 0 -189.5 32.5t-107.5 104t-38 186.5q-2 71 -2 140t2 140h200q-2 -48 -3 -100t0 -103.5t3 -98.5q2 -69 32 -97t103 -28q76 0 106.5 28
t30.5 97v1315h211v-1293q0 -173 -80.5 -248t-267.5 -75z" />
    <glyph glyph-name="uni01CB" unicode="&#x1cb;" horiz-adv-x="1502" 
d="M112 0v1600h383l100 -508l125 -904h86l-34 801l-14 611h211v-1600h-398l-106 555l-101 859h-88l31 -810l16 -604h-211zM1173 1415v185h244v-185h-244zM1055 -417q-32 0 -73 3.5t-75 8.5v159q28 -2 69.5 -3.5t77.5 -1.5q69 0 100.5 26.5t31.5 83.5v1341h212v-1322
q0 -157 -82 -226t-261 -69z" />
    <glyph glyph-name="uni01CC" unicode="&#x1cc;" horiz-adv-x="1337" 
d="M104 0v1200h212v-118h43q38 66 86 100.5t131 34.5q119 0 179.5 -66.5t61.5 -218.5v-932h-211v950q-1 58 -28.5 84t-85.5 26q-54 0 -105 -28t-71 -78v-954h-212zM1008 1415v185h244v-185h-244zM890 -417q-32 0 -73 3.5t-75 8.5v159q28 -2 69.5 -3.5t77.5 -1.5
q69 0 100.5 26.5t31.5 83.5v1341h212v-1322q0 -157 -82 -226t-261 -69z" />
    <glyph glyph-name="uni01CD" unicode="&#x1cd;" horiz-adv-x="865" 
d="M46 0l191 1600h392l190 -1600h-216l-38 409h-265l-38 -409h-216zM319 596h227l-33 345l-37 472h-87l-37 -473zM372 1680l-161 250h137l85 -143l86 143h136l-161 -250h-122z" />
    <glyph glyph-name="uni01CE" unicode="&#x1ce;" horiz-adv-x="858" 
d="M325 -14q-121 0 -184 60.5t-73 194.5q-1 23 -2 48.5t0 46.5q6 76 32 133t83 102.5t155 86.5q51 22 104.5 41t111.5 36v205q0 61 -28 89t-95 28q-58 0 -90 -24t-35 -82q-2 -22 -2.5 -60.5t0.5 -74t2 -50.5h-205q-1 31 -2 75t0 85q4 101 37.5 165t106 95t195.5 31
q125 0 195 -33t99 -104t29 -185l-1 -895h-210v118h-31q-30 -65 -70 -98.5t-122 -33.5zM399 140q52 0 90.5 27t59.5 75l2 339q-40 -12 -81.5 -27.5t-85.5 -40.5q-64 -33 -83.5 -77.5t-22.5 -99.5v-42.5t1 -37.5q5 -55 36 -85.5t84 -30.5zM361 1280l-161 250h137l85 -143
l86 143h136l-161 -250h-122z" />
    <glyph glyph-name="uni01CF" unicode="&#x1cf;" horiz-adv-x="435" 
d="M112 0v1600h211v-1600h-211zM157 1680l-161 250h137l85 -143l86 143h136l-161 -250h-122z" />
    <glyph glyph-name="uni01D0" unicode="&#x1d0;" horiz-adv-x="419" 
d="M104 0v1200h211v-1200h-211zM149 1280l-161 250h137l85 -143l86 143h136l-161 -250h-122z" />
    <glyph glyph-name="uni01D1" unicode="&#x1d1;" horiz-adv-x="914" 
d="M456 -16q-187 0 -270 76t-87 252q-2 136 -3 256t-1 235t1 234t3 252q4 175 87 251t270 76q185 0 268 -76t87 -251q4 -134 6 -253t2 -234t-2 -234.5t-6 -255.5q-4 -176 -87 -252t-268 -76zM456 160q79 0 111.5 31t33.5 110q4 137 6.5 259.5t2.5 240t-2.5 240t-6.5 259.5
q-1 78 -33.5 109.5t-111.5 31.5t-111.5 -31.5t-34.5 -109.5q-5 -135 -7 -256.5t-2 -239t2 -241t7 -262.5q2 -79 34.5 -110t111.5 -31zM397 1680l-161 250h137l85 -143l86 143h136l-161 -250h-122z" />
    <glyph glyph-name="uni01D2" unicode="&#x1d2;" horiz-adv-x="871" 
d="M436 -17q-124 0 -198.5 33t-109.5 104.5t-41 188.5q-3 53 -4 127.5t-1 156.5t1 160t4 139q7 118 42 189.5t109.5 103.5t197.5 32q126 0 200 -33.5t108 -104.5t40 -187q2 -58 3.5 -132.5t1.5 -155t-1.5 -157.5t-3.5 -138q-6 -117 -40.5 -188.5t-108.5 -104.5t-199 -33z
M436 144q75 0 105 28.5t32 87.5q3 90 4.5 174.5t2 167t-1.5 166.5t-5 174q-2 60 -33 87t-104 27t-105 -29t-34 -87q-2 -74 -3.5 -156.5t-2 -169.5t1.5 -176t5 -177q3 -61 34 -89t104 -28zM375 1280l-161 250h137l85 -143l86 143h136l-161 -250h-122z" />
    <glyph glyph-name="uni01D3" unicode="&#x1d3;" horiz-adv-x="905" 
d="M453 -16q-188 0 -270 74.5t-85 245.5q-4 325 -4 648.5t4 647.5h211q-3 -216 -4 -437.5t0.5 -442.5t2.5 -438q0 -63 34.5 -92t110.5 -29t110 29t34 92q1 217 2.5 438t1 442.5t-3.5 437.5h210q5 -324 5 -647.5t-5 -648.5q-2 -171 -84 -245.5t-270 -74.5zM392 1680l-161 250
h137l85 -143l86 143h136l-161 -250h-122z" />
    <glyph glyph-name="uni01D4" unicode="&#x1d4;" horiz-adv-x="911" 
d="M343 -17q-117 0 -182 67t-65 219v931h213l2 -949q0 -58 25.5 -84.5t82.5 -26.5q55 0 104 28.5t69 77.5v954h214v-1200h-214v118h-32q-40 -71 -93 -103t-124 -32zM388 1280l-161 250h137l85 -143l86 143h136l-161 -250h-122z" />
    <glyph glyph-name="uni01D5" unicode="&#x1d5;" horiz-adv-x="905" 
d="M453 -16q-188 0 -270 74.5t-85 245.5q-4 325 -4 648.5t4 647.5h211q-3 -216 -4 -437.5t0.5 -442.5t2.5 -438q0 -63 34.5 -92t110.5 -29t110 29t34 92q1 217 2.5 438t1 442.5t-3.5 437.5h210q5 -324 5 -647.5t-5 -648.5q-2 -171 -84 -245.5t-270 -74.5zM504 1710v157h157
v-157h-157zM245 1710v157h157v-157h-157zM167 2031h573v-102h-573v102z" />
    <glyph glyph-name="uni01D6" unicode="&#x1d6;" horiz-adv-x="911" 
d="M343 -17q-117 0 -182 67t-65 219v931h213l2 -949q0 -58 25.5 -84.5t82.5 -26.5q55 0 104 28.5t69 77.5v954h214v-1200h-214v118h-32q-40 -71 -93 -103t-124 -32zM500 1310v157h157v-157h-157zM241 1310v157h157v-157h-157zM163 1631h573v-102h-573v102z" />
    <glyph glyph-name="uni01D7" unicode="&#x1d7;" horiz-adv-x="905" 
d="M453 -16q-188 0 -270 74.5t-85 245.5q-4 325 -4 648.5t4 647.5h211q-3 -216 -4 -437.5t0.5 -442.5t2.5 -438q0 -63 34.5 -92t110.5 -29t110 29t34 92q1 217 2.5 438t1 442.5t-3.5 437.5h210q5 -324 5 -647.5t-5 -648.5q-2 -171 -84 -245.5t-270 -74.5zM504 1710v157h157
v-157h-157zM245 1710v157h157v-157h-157zM387 1918l176 250h157l-184 -250h-149z" />
    <glyph glyph-name="uni01D8" unicode="&#x1d8;" horiz-adv-x="911" 
d="M343 -17q-117 0 -182 67t-65 219v931h213l2 -949q0 -58 25.5 -84.5t82.5 -26.5q55 0 104 28.5t69 77.5v954h214v-1200h-214v118h-32q-40 -71 -93 -103t-124 -32zM500 1310v157h157v-157h-157zM241 1310v157h157v-157h-157zM383 1518l176 250h157l-184 -250h-149z" />
    <glyph glyph-name="uni01D9" unicode="&#x1d9;" horiz-adv-x="905" 
d="M453 -16q-188 0 -270 74.5t-85 245.5q-4 325 -4 648.5t4 647.5h211q-3 -216 -4 -437.5t0.5 -442.5t2.5 -438q0 -63 34.5 -92t110.5 -29t110 29t34 92q1 217 2.5 438t1 442.5t-3.5 437.5h210q5 -324 5 -647.5t-5 -648.5q-2 -171 -84 -245.5t-270 -74.5zM504 1710v157h157
v-157h-157zM245 1710v157h157v-157h-157zM392 1918l-161 250h137l85 -143l86 143h136l-161 -250h-122z" />
    <glyph glyph-name="uni01DA" unicode="&#x1da;" horiz-adv-x="911" 
d="M343 -17q-117 0 -182 67t-65 219v931h213l2 -949q0 -58 25.5 -84.5t82.5 -26.5q55 0 104 28.5t69 77.5v954h214v-1200h-214v118h-32q-40 -71 -93 -103t-124 -32zM500 1310v157h157v-157h-157zM241 1310v157h157v-157h-157zM388 1518l-161 250h137l85 -143l86 143h136
l-161 -250h-122z" />
    <glyph glyph-name="uni01DB" unicode="&#x1db;" horiz-adv-x="905" 
d="M453 -16q-188 0 -270 74.5t-85 245.5q-4 325 -4 648.5t4 647.5h211q-3 -216 -4 -437.5t0.5 -442.5t2.5 -438q0 -63 34.5 -92t110.5 -29t110 29t34 92q1 217 2.5 438t1 442.5t-3.5 437.5h210q5 -324 5 -647.5t-5 -648.5q-2 -171 -84 -245.5t-270 -74.5zM504 1710v157h157
v-157h-157zM245 1710v157h157v-157h-157zM359 1918l-171 250h157l163 -250h-149z" />
    <glyph glyph-name="uni01DC" unicode="&#x1dc;" horiz-adv-x="911" 
d="M343 -17q-117 0 -182 67t-65 219v931h213l2 -949q0 -58 25.5 -84.5t82.5 -26.5q55 0 104 28.5t69 77.5v954h214v-1200h-214v118h-32q-40 -71 -93 -103t-124 -32zM500 1310v157h157v-157h-157zM241 1310v157h157v-157h-157zM355 1518l-171 250h157l163 -250h-149z" />
    <glyph glyph-name="uni01DD" unicode="&#x1dd;" horiz-adv-x="839" 
d="M407 1217q181 0 259 -69.5t86 -227.5q3 -62 4 -146t1 -174t-1 -173t-4 -145q-9 -160 -89 -229.5t-254 -69.5q-173 0 -250.5 69t-84.5 222q-1 23 -1.5 84t0 136.5t3.5 143.5h468q0 74 -1.5 149.5t-3.5 155.5q-1 63 -32 88t-98 25q-66 0 -94 -25t-31 -88q-1 -31 -1 -76.5
t2 -103.5h-209q-1 27 -2 76t0 81q8 159 84 228t249 69zM543 485h-261v-96t0.5 -84.5t1.5 -51.5q4 -60 33.5 -85t91.5 -25q71 0 100 26.5t30 83.5q2 59 3 117.5t1 114.5z" />
    <glyph glyph-name="Gcaron" unicode="&#x1e6;" horiz-adv-x="905" 
d="M460 -16q-126 0 -204 32.5t-115 104t-40 186.5q-3 116 -4.5 240t-1.5 250.5t1.5 249.5t4.5 237q4 119 40.5 192t114.5 106.5t204 33.5q183 0 264.5 -74.5t90.5 -246.5q3 -66 3 -133t-3 -134h-211q3 77 3 144.5t-3 144.5q-3 69 -34 96.5t-110 27.5q-82 0 -113.5 -27.5
t-35.5 -96.5q-5 -134 -7 -262t-2 -254.5t2 -254.5t7 -261q3 -70 35 -97.5t114 -27.5q85 0 118.5 27.5t37.5 97.5q2 39 2.5 80.5t0 82.5t-2.5 80h-139v186h345q3 -110 2.5 -211.5t-4.5 -195.5q-6 -173 -89 -248t-271 -75zM394 1680l-161 250h137l85 -143l86 143h136
l-161 -250h-122z" />
    <glyph glyph-name="gcaron" unicode="&#x1e7;" horiz-adv-x="901" 
d="M421 -362q-152 0 -240 44.5t-102 131.5q-1 13 -2.5 29t-0.5 29q5 53 42.5 87t91.5 41v33q-57 13 -83 41t-32 68q-1 12 -1 24t1 25q4 41 39 69t88 36v33q-71 32 -105 96.5t-40 168.5q-1 35 -2 78t-1 88t1 85.5t2 71.5q8 108 44.5 174t109.5 96t191 30t190.5 -30t108.5 -96
h32q7 55 43.5 82t101.5 27v-162h-26q-49 0 -78 -29t-29 -97v-54q0 -11 0.5 -43t0.5 -72.5t-0.5 -80.5t-2.5 -68q-6 -109 -42 -174.5t-109 -95t-191 -29.5q-86 1 -125.5 -15t-39.5 -52v-10q0 -23 15 -36.5t52 -20t103 -8.5q183 -4 271.5 -56t102.5 -164q2 -15 2.5 -34
t-2.5 -38q-9 -83 -55.5 -132t-128 -70t-195.5 -21zM429 -214q59 0 101 8.5t67 28t31 51.5q4 14 3.5 26.5t-4.5 25.5q-6 30 -28.5 47t-64 25t-105.5 8q-79 2 -126.5 -14.5t-55.5 -67.5q-3 -16 -3 -27.5t3 -23.5q6 -33 29 -52t61.5 -27t91.5 -8zM422 455q68 0 99.5 27.5
t35.5 85.5q2 32 3.5 82t1.5 105.5t-1.5 106t-3.5 82.5q-3 58 -34.5 85.5t-100.5 27.5q-70 0 -103 -27.5t-36 -89.5q-1 -32 -2 -81t-1.5 -103.5t0.5 -103.5t3 -80q4 -60 36 -88.5t103 -28.5zM361 1280l-161 250h137l85 -143l86 143h136l-161 -250h-122z" />
    <glyph glyph-name="uni01EA" unicode="&#x1ea;" horiz-adv-x="914" 
d="M456 -16q-187 0 -270 76t-87 252q-2 136 -3 256t-1 235t1 234t3 252q4 175 87 251t270 76q185 0 268 -76t87 -251q4 -134 6 -253t2 -234t-2 -234.5t-6 -255.5q-4 -176 -87 -252t-268 -76zM456 160q79 0 111.5 31t33.5 110q4 137 6.5 259.5t2.5 240t-2.5 240t-6.5 259.5
q-1 78 -33.5 109.5t-111.5 31.5t-111.5 -31.5t-34.5 -109.5q-5 -135 -7 -256.5t-2 -239t2 -241t7 -262.5q2 -79 34.5 -110t111.5 -31zM800 -281h-56q-122 0 -172.5 51t-32.5 161l21 104h122l-22 -104q-9 -54 11 -77t74 -23h55v-112z" />
    <glyph glyph-name="uni01EB" unicode="&#x1eb;" horiz-adv-x="871" 
d="M436 -17q-124 0 -198.5 33t-109.5 104.5t-41 188.5q-3 53 -4 127.5t-1 156.5t1 160t4 139q7 118 42 189.5t109.5 103.5t197.5 32q126 0 200 -33.5t108 -104.5t40 -187q2 -58 3.5 -132.5t1.5 -155t-1.5 -157.5t-3.5 -138q-6 -117 -40.5 -188.5t-108.5 -104.5t-199 -33z
M436 144q75 0 105 28.5t32 87.5q3 90 4.5 174.5t2 167t-1.5 166.5t-5 174q-2 60 -33 87t-104 27t-105 -29t-34 -87q-2 -74 -3.5 -156.5t-2 -169.5t1.5 -176t5 -177q3 -61 34 -89t104 -28zM801 -263h-56q-122 0 -172.5 51t-32.5 161l21 104h122l-22 -104q-9 -54 11 -77
t74 -23h55v-112z" />
    <glyph glyph-name="Aringacute" unicode="&#x1fa;" horiz-adv-x="865" 
d="M46 0l191 1600h392l190 -1600h-216l-38 409h-265l-38 -409h-216zM319 596h227l-33 345l-37 472h-87l-37 -473zM433 1670q-75 0 -129 54t-54 129t54 129t129 54t129 -54t54 -129t-54 -129t-129 -54zM433 1788q28 0 47.5 19.5t19.5 45.5q0 28 -20 47.5t-47 19.5
q-26 0 -46 -19.5t-20 -47.5q0 -26 19.5 -45.5t46.5 -19.5zM367 2105l176 250h157l-184 -250h-149z" />
    <glyph glyph-name="aringacute" unicode="&#x1fb;" horiz-adv-x="858" 
d="M325 -14q-121 0 -184 60.5t-73 194.5q-1 23 -2 48.5t0 46.5q6 76 32 133t83 102.5t155 86.5q51 22 104.5 41t111.5 36v205q0 61 -28 89t-95 28q-58 0 -90 -24t-35 -82q-2 -22 -2.5 -60.5t0.5 -74t2 -50.5h-205q-1 31 -2 75t0 85q4 101 37.5 165t106 95t195.5 31
q125 0 195 -33t99 -104t29 -185l-1 -895h-210v118h-31q-30 -65 -70 -98.5t-122 -33.5zM399 140q52 0 90.5 27t59.5 75l2 339q-40 -12 -81.5 -27.5t-85.5 -40.5q-64 -33 -83.5 -77.5t-22.5 -99.5v-42.5t1 -37.5q5 -55 36 -85.5t84 -30.5zM422 1270q-75 0 -129 54t-54 129
t54 129t129 54t129 -54t54 -129t-54 -129t-129 -54zM422 1388q28 0 47.5 19.5t19.5 45.5q0 28 -20 47.5t-47 19.5q-26 0 -46 -19.5t-20 -47.5q0 -26 19.5 -45.5t46.5 -19.5zM356 1705l176 250h157l-184 -250h-149z" />
    <glyph glyph-name="AEacute" unicode="&#x1fc;" horiz-adv-x="1253" 
d="M46 0l305 1600h847v-187h-391v-511h371v-187h-371v-528h391v-187h-602v403h-245l-76 -403h-229zM390 591h206v823h-83l-64 -525zM659 1680l176 250h157l-184 -250h-149z" />
    <glyph glyph-name="aeacute" unicode="&#x1fd;" horiz-adv-x="1267" 
d="M310 -14q-107 0 -169.5 59t-72.5 195q-2 29 -2.5 49.5t0.5 46.5q9 114 76.5 182.5t183.5 117.5q51 22 101.5 40.5t102.5 35.5v76.5v76.5v77q0 25 -6 51.5t-30 45t-79 18.5q-59 0 -82.5 -25.5t-27.5 -83.5q-1 -20 -2 -54t-0.5 -69.5t2.5 -58.5h-208q-1 18 -2 49t-0.5 62.5
t1.5 51.5q4 100 37 163.5t103 94t184 30.5q78 0 132 -13.5t89 -38.5q41 26 96.5 39t127.5 13q167 0 244.5 -67.5t83.5 -223.5q1 -16 1.5 -59.5t0.5 -98.5t-0.5 -108t-3.5 -89h-450v-157v-157q0 -63 32 -88t96 -25q66 0 89.5 27.5t25.5 85.5q2 41 3 76.5t-3 103.5h207
q3 -24 3.5 -74.5t-1.5 -82.5q-7 -159 -81.5 -228t-241.5 -69q-120 0 -194.5 32.5t-110.5 102.5h-18q-30 -67 -93.5 -99.5t-143.5 -32.5zM391 140q32 0 63.5 15t53.5 58t24 128q0 42 -1 100.5t-1 122.5q-35 -10 -76 -27t-77 -38q-53 -31 -75 -69.5t-26 -93.5q-1 -24 -1 -41
t3 -40q8 -51 32.5 -83t80.5 -32zM741 723h244q1 63 1 127t-2 99q-1 57 -29 82.5t-90 25.5t-93 -25.5t-31 -83.5v-112v-113zM581 1280l176 250h157l-184 -250h-149z" />
    <glyph glyph-name="Oslashacute" unicode="&#x1fe;" horiz-adv-x="914" 
d="M456 -16q-187 0 -270 76t-87 252q-2 136 -3 256t-1 235t1 234t3 252q4 175 87 251t270 76q185 0 268 -76t87 -251q4 -134 6 -253t2 -234t-2 -234.5t-6 -255.5q-4 -176 -87 -252t-268 -76zM456 160q79 0 111.5 31t33.5 110q3 115 5 214t3 194t0 197l-303 -499
q2 -26 2.5 -52.5t1.5 -53.5q2 -79 34.5 -110t111.5 -31zM302 674l303 497q0 32 -1 64t-3 65q-1 78 -33.5 109.5t-111.5 31.5t-111.5 -31.5t-34.5 -109.5q-4 -117 -6 -219.5t-2.5 -201.5t0.5 -205zM392 1680l176 250h157l-184 -250h-149z" />
    <glyph glyph-name="oslashacute" unicode="&#x1ff;" horiz-adv-x="871" 
d="M147 316l549 659l77 -92l-603 -712zM436 -17q-124 0 -198.5 33t-109.5 104.5t-41 188.5q-3 53 -4 127.5t-1 156.5t1 160t4 139q7 118 42 189.5t109.5 103.5t197.5 32q126 0 200 -33.5t108 -104.5t40 -187q2 -58 3.5 -132.5t1.5 -155t-1.5 -157.5t-3.5 -138
q-6 -117 -40.5 -188.5t-108.5 -104.5t-199 -33zM436 144q75 0 105 28.5t32 87.5q3 90 4.5 174.5t2 167t-1.5 166.5t-5 174q-2 60 -33 87t-104 27t-105 -29t-34 -87q-2 -74 -3.5 -156.5t-2 -169.5t1.5 -176t5 -177q3 -61 34 -89t104 -28zM370 1280l176 250h157l-184 -250
h-149z" />
    <glyph glyph-name="uni0200" unicode="&#x200;" horiz-adv-x="865" 
d="M46 0l191 1600h392l190 -1600h-216l-38 409h-265l-38 -409h-216zM319 596h227l-33 345l-37 472h-87l-37 -473zM477 1680l-187 250h151l186 -250h-150zM216 1680l-186 250h150l187 -250h-151z" />
    <glyph glyph-name="uni0201" unicode="&#x201;" horiz-adv-x="858" 
d="M325 -14q-121 0 -184 60.5t-73 194.5q-1 23 -2 48.5t0 46.5q6 76 32 133t83 102.5t155 86.5q51 22 104.5 41t111.5 36v205q0 61 -28 89t-95 28q-58 0 -90 -24t-35 -82q-2 -22 -2.5 -60.5t0.5 -74t2 -50.5h-205q-1 31 -2 75t0 85q4 101 37.5 165t106 95t195.5 31
q125 0 195 -33t99 -104t29 -185l-1 -895h-210v118h-31q-30 -65 -70 -98.5t-122 -33.5zM399 140q52 0 90.5 27t59.5 75l2 339q-40 -12 -81.5 -27.5t-85.5 -40.5q-64 -33 -83.5 -77.5t-22.5 -99.5v-42.5t1 -37.5q5 -55 36 -85.5t84 -30.5zM466 1280l-187 250h151l186 -250
h-150zM205 1280l-186 250h150l187 -250h-151z" />
    <glyph glyph-name="uni0202" unicode="&#x202;" horiz-adv-x="865" 
d="M46 0l191 1600h392l190 -1600h-216l-38 409h-265l-38 -409h-216zM319 596h227l-33 345l-37 472h-87l-37 -473zM432 1941q140 0 204.5 -62.5t71.5 -199.5h-135q-1 76 -34 112.5t-107 36.5q-75 0 -107 -37t-33 -112h-136q7 137 72 199.5t204 62.5z" />
    <glyph glyph-name="uni0203" unicode="&#x203;" horiz-adv-x="858" 
d="M325 -14q-121 0 -184 60.5t-73 194.5q-1 23 -2 48.5t0 46.5q6 76 32 133t83 102.5t155 86.5q51 22 104.5 41t111.5 36v205q0 61 -28 89t-95 28q-58 0 -90 -24t-35 -82q-2 -22 -2.5 -60.5t0.5 -74t2 -50.5h-205q-1 31 -2 75t0 85q4 101 37.5 165t106 95t195.5 31
q125 0 195 -33t99 -104t29 -185l-1 -895h-210v118h-31q-30 -65 -70 -98.5t-122 -33.5zM399 140q52 0 90.5 27t59.5 75l2 339q-40 -12 -81.5 -27.5t-85.5 -40.5q-64 -33 -83.5 -77.5t-22.5 -99.5v-42.5t1 -37.5q5 -55 36 -85.5t84 -30.5zM422 1541q140 0 204.5 -62.5
t71.5 -199.5h-135q-1 76 -34 112.5t-107 36.5q-75 0 -107 -37t-33 -112h-136q7 137 72 199.5t204 62.5z" />
    <glyph glyph-name="uni0204" unicode="&#x204;" horiz-adv-x="769" 
d="M112 0v1600h602v-187h-391v-511h371v-187h-371v-528h391v-187h-602zM455 1678l-187 250h151l186 -250h-150zM194 1678l-186 250h150l187 -250h-151z" />
    <glyph glyph-name="uni0205" unicode="&#x205;" horiz-adv-x="839" 
d="M432 -17q-181 0 -259 70t-86 227q-3 62 -4 146t-1 174t1 173t4 145q9 161 89.5 230t252.5 69q175 0 252 -69t84 -222q1 -23 1.5 -84t0 -136.5t-3.5 -143.5h-468q0 -74 1.5 -149.5t3.5 -155.5q2 -62 32.5 -87.5t97.5 -25.5t94 25.5t30 87.5q2 31 2 77t-3 103h210
q2 -26 3 -75.5t-1 -81.5q-8 -159 -84 -228t-249 -69zM296 715h260q1 48 1 96t-0.5 84.5t-2.5 51.5q-3 61 -32 85.5t-93 24.5q-70 0 -98.5 -26.5t-30.5 -83.5q-1 -58 -2.5 -116.5t-1.5 -115.5zM469 1280l-187 250h151l186 -250h-150zM208 1280l-186 250h150l187 -250h-151z
" />
    <glyph glyph-name="uni0206" unicode="&#x206;" horiz-adv-x="769" 
d="M112 0v1600h602v-187h-391v-511h371v-187h-371v-528h391v-187h-602zM411 1939q140 0 204.5 -62.5t71.5 -199.5h-135q-1 76 -34 112.5t-107 36.5q-75 0 -107 -37t-33 -112h-136q7 137 72 199.5t204 62.5z" />
    <glyph glyph-name="uni0207" unicode="&#x207;" horiz-adv-x="839" 
d="M432 -17q-181 0 -259 70t-86 227q-3 62 -4 146t-1 174t1 173t4 145q9 161 89.5 230t252.5 69q175 0 252 -69t84 -222q1 -23 1.5 -84t0 -136.5t-3.5 -143.5h-468q0 -74 1.5 -149.5t3.5 -155.5q2 -62 32.5 -87.5t97.5 -25.5t94 25.5t30 87.5q2 31 2 77t-3 103h210
q2 -26 3 -75.5t-1 -81.5q-8 -159 -84 -228t-249 -69zM296 715h260q1 48 1 96t-0.5 84.5t-2.5 51.5q-3 61 -32 85.5t-93 24.5q-70 0 -98.5 -26.5t-30.5 -83.5q-1 -58 -2.5 -116.5t-1.5 -115.5zM425 1541q140 0 204.5 -62.5t71.5 -199.5h-135q-1 76 -34 112.5t-107 36.5
q-75 0 -107 -37t-33 -112h-136q7 137 72 199.5t204 62.5z" />
    <glyph glyph-name="uni0208" unicode="&#x208;" horiz-adv-x="435" 
d="M112 0v1600h211v-1600h-211zM262 1680l-187 250h151l186 -250h-150zM1 1680l-186 250h150l187 -250h-151z" />
    <glyph glyph-name="uni0209" unicode="&#x209;" horiz-adv-x="419" 
d="M104 0v1200h211v-1200h-211zM254 1280l-187 250h151l186 -250h-150zM-7 1280l-186 250h150l187 -250h-151z" />
    <glyph glyph-name="uni020A" unicode="&#x20a;" horiz-adv-x="435" 
d="M112 0v1600h211v-1600h-211zM217 1941q140 0 204.5 -62.5t71.5 -199.5h-135q-1 76 -34 112.5t-107 36.5q-75 0 -107 -37t-33 -112h-136q7 137 72 199.5t204 62.5z" />
    <glyph glyph-name="uni020B" unicode="&#x20b;" horiz-adv-x="419" 
d="M104 0v1200h211v-1200h-211zM209 1541q140 0 204.5 -62.5t71.5 -199.5h-135q-1 76 -34 112.5t-107 36.5q-75 0 -107 -37t-33 -112h-136q7 137 72 199.5t204 62.5z" />
    <glyph glyph-name="uni020C" unicode="&#x20c;" horiz-adv-x="914" 
d="M456 -16q-187 0 -270 76t-87 252q-2 136 -3 256t-1 235t1 234t3 252q4 175 87 251t270 76q185 0 268 -76t87 -251q4 -134 6 -253t2 -234t-2 -234.5t-6 -255.5q-4 -176 -87 -252t-268 -76zM456 160q79 0 111.5 31t33.5 110q4 137 6.5 259.5t2.5 240t-2.5 240t-6.5 259.5
q-1 78 -33.5 109.5t-111.5 31.5t-111.5 -31.5t-34.5 -109.5q-5 -135 -7 -256.5t-2 -239t2 -241t7 -262.5q2 -79 34.5 -110t111.5 -31zM501 1680l-187 250h151l186 -250h-150zM240 1680l-186 250h150l187 -250h-151z" />
    <glyph glyph-name="uni020D" unicode="&#x20d;" horiz-adv-x="871" 
d="M436 -17q-124 0 -198.5 33t-109.5 104.5t-41 188.5q-3 53 -4 127.5t-1 156.5t1 160t4 139q7 118 42 189.5t109.5 103.5t197.5 32q126 0 200 -33.5t108 -104.5t40 -187q2 -58 3.5 -132.5t1.5 -155t-1.5 -157.5t-3.5 -138q-6 -117 -40.5 -188.5t-108.5 -104.5t-199 -33z
M436 144q75 0 105 28.5t32 87.5q3 90 4.5 174.5t2 167t-1.5 166.5t-5 174q-2 60 -33 87t-104 27t-105 -29t-34 -87q-2 -74 -3.5 -156.5t-2 -169.5t1.5 -176t5 -177q3 -61 34 -89t104 -28zM480 1280l-187 250h151l186 -250h-150zM219 1280l-186 250h150l187 -250h-151z" />
    <glyph glyph-name="uni020E" unicode="&#x20e;" horiz-adv-x="914" 
d="M456 -16q-187 0 -270 76t-87 252q-2 136 -3 256t-1 235t1 234t3 252q4 175 87 251t270 76q185 0 268 -76t87 -251q4 -134 6 -253t2 -234t-2 -234.5t-6 -255.5q-4 -176 -87 -252t-268 -76zM456 160q79 0 111.5 31t33.5 110q4 137 6.5 259.5t2.5 240t-2.5 240t-6.5 259.5
q-1 78 -33.5 109.5t-111.5 31.5t-111.5 -31.5t-34.5 -109.5q-5 -135 -7 -256.5t-2 -239t2 -241t7 -262.5q2 -79 34.5 -110t111.5 -31zM457 1941q140 0 204.5 -62.5t71.5 -199.5h-135q-1 76 -34 112.5t-107 36.5q-75 0 -107 -37t-33 -112h-136q7 137 72 199.5t204 62.5z" />
    <glyph glyph-name="uni020F" unicode="&#x20f;" horiz-adv-x="871" 
d="M436 -17q-124 0 -198.5 33t-109.5 104.5t-41 188.5q-3 53 -4 127.5t-1 156.5t1 160t4 139q7 118 42 189.5t109.5 103.5t197.5 32q126 0 200 -33.5t108 -104.5t40 -187q2 -58 3.5 -132.5t1.5 -155t-1.5 -157.5t-3.5 -138q-6 -117 -40.5 -188.5t-108.5 -104.5t-199 -33z
M436 144q75 0 105 28.5t32 87.5q3 90 4.5 174.5t2 167t-1.5 166.5t-5 174q-2 60 -33 87t-104 27t-105 -29t-34 -87q-2 -74 -3.5 -156.5t-2 -169.5t1.5 -176t5 -177q3 -61 34 -89t104 -28zM436 1541q140 0 204.5 -62.5t71.5 -199.5h-135q-1 76 -34 112.5t-107 36.5
q-75 0 -107 -37t-33 -112h-136q7 137 72 199.5t204 62.5z" />
    <glyph glyph-name="uni0210" unicode="&#x210;" horiz-adv-x="879" 
d="M112 0v1600h338q177 0 256.5 -71.5t84.5 -236.5q3 -80 4 -144.5t0 -125t-4 -130.5q-4 -107 -38.5 -173t-105.5 -99l171 -620h-222l-149 585h-124v-585h-211zM323 772h126q68 0 98.5 27t33.5 84q3 75 4 142.5t0.5 134.5t-4.5 142q-3 58 -33.5 84.5t-97.5 26.5h-127v-641z
M479 1680l-187 250h151l186 -250h-150zM218 1680l-186 250h150l187 -250h-151z" />
    <glyph glyph-name="uni0211" unicode="&#x211;" horiz-adv-x="632" 
d="M104 0v1200h216v-130h41q16 76 61 106t118 30q22 0 43 -2t38 -3v-162h-78q-97 0 -151 -29.5t-72 -102.5v-907h-216zM394 1280l-187 250h151l186 -250h-150zM133 1280l-186 250h150l187 -250h-151z" />
    <glyph glyph-name="uni0212" unicode="&#x212;" horiz-adv-x="879" 
d="M112 0v1600h338q177 0 256.5 -71.5t84.5 -236.5q3 -80 4 -144.5t0 -125t-4 -130.5q-4 -107 -38.5 -173t-105.5 -99l171 -620h-222l-149 585h-124v-585h-211zM323 772h126q68 0 98.5 27t33.5 84q3 75 4 142.5t0.5 134.5t-4.5 142q-3 58 -33.5 84.5t-97.5 26.5h-127v-641z
M434 1941q140 0 204.5 -62.5t71.5 -199.5h-135q-1 76 -34 112.5t-107 36.5q-75 0 -107 -37t-33 -112h-136q7 137 72 199.5t204 62.5z" />
    <glyph glyph-name="uni0213" unicode="&#x213;" horiz-adv-x="632" 
d="M104 0v1200h216v-130h41q16 76 61 106t118 30q22 0 43 -2t38 -3v-162h-78q-97 0 -151 -29.5t-72 -102.5v-907h-216zM350 1541q140 0 204.5 -62.5t71.5 -199.5h-135q-1 76 -34 112.5t-107 36.5q-75 0 -107 -37t-33 -112h-136q7 137 72 199.5t204 62.5z" />
    <glyph glyph-name="uni0214" unicode="&#x214;" horiz-adv-x="905" 
d="M453 -16q-188 0 -270 74.5t-85 245.5q-4 325 -4 648.5t4 647.5h211q-3 -216 -4 -437.5t0.5 -442.5t2.5 -438q0 -63 34.5 -92t110.5 -29t110 29t34 92q1 217 2.5 438t1 442.5t-3.5 437.5h210q5 -324 5 -647.5t-5 -648.5q-2 -171 -84 -245.5t-270 -74.5zM497 1680l-187 250
h151l186 -250h-150zM236 1680l-186 250h150l187 -250h-151z" />
    <glyph glyph-name="uni0215" unicode="&#x215;" horiz-adv-x="911" 
d="M343 -17q-117 0 -182 67t-65 219v931h213l2 -949q0 -58 25.5 -84.5t82.5 -26.5q55 0 104 28.5t69 77.5v954h214v-1200h-214v118h-32q-40 -71 -93 -103t-124 -32zM493 1280l-187 250h151l186 -250h-150zM232 1280l-186 250h150l187 -250h-151z" />
    <glyph glyph-name="uni0216" unicode="&#x216;" horiz-adv-x="905" 
d="M453 -16q-188 0 -270 74.5t-85 245.5q-4 325 -4 648.5t4 647.5h211q-3 -216 -4 -437.5t0.5 -442.5t2.5 -438q0 -63 34.5 -92t110.5 -29t110 29t34 92q1 217 2.5 438t1 442.5t-3.5 437.5h210q5 -324 5 -647.5t-5 -648.5q-2 -171 -84 -245.5t-270 -74.5zM453 1941
q140 0 204.5 -62.5t71.5 -199.5h-135q-1 76 -34 112.5t-107 36.5q-75 0 -107 -37t-33 -112h-136q7 137 72 199.5t204 62.5z" />
    <glyph glyph-name="uni0217" unicode="&#x217;" horiz-adv-x="911" 
d="M343 -17q-117 0 -182 67t-65 219v931h213l2 -949q0 -58 25.5 -84.5t82.5 -26.5q55 0 104 28.5t69 77.5v954h214v-1200h-214v118h-32q-40 -71 -93 -103t-124 -32zM448 1541q140 0 204.5 -62.5t71.5 -199.5h-135q-1 76 -34 112.5t-107 36.5q-75 0 -107 -37t-33 -112h-136
q7 137 72 199.5t204 62.5z" />
    <glyph glyph-name="uni0218" unicode="&#x218;" horiz-adv-x="876" 
d="M440 -16q-184 0 -266 75t-89 248q-1 48 -1.5 93.5t1 91.5t5.5 95h200q-4 -83 -5 -161t5 -153q4 -60 39 -86.5t110 -26.5q71 0 105 26.5t39 86.5q4 41 5 84.5t-0.5 87.5t-4.5 85q-3 66 -32.5 104t-89.5 53l-139 32q-90 22 -142 65t-74.5 112t-25.5 169q-1 57 -0.5 114.5
t1.5 116.5q4 115 41.5 185t115 102.5t201.5 32.5q181 0 261.5 -74.5t87.5 -246.5q2 -55 1 -125.5t-4 -141.5h-203q3 83 4 156t-2 144q-2 60 -37 86.5t-109 26.5q-72 0 -106.5 -26.5t-39.5 -86.5q-5 -67 -5 -131t5 -132q3 -69 25 -107t76 -51l125 -27q101 -22 160 -66.5
t86.5 -114.5t30.5 -169q2 -36 2 -74.5t-1 -76t-2 -72.5q-7 -173 -89 -248t-265 -75zM355 -399l72 138h-105v181h248v-160l-92 -159h-123z" />
    <glyph glyph-name="uni0219" unicode="&#x219;" horiz-adv-x="795" 
d="M392 -17q-170 0 -240.5 69.5t-77.5 226.5q-1 42 -0.5 80t2.5 69h190q-3 -59 -2.5 -100t1.5 -71q2 -63 32 -88t95 -25q73 0 105 25.5t33 88.5q1 28 1 42.5v28t-1 37.5q-1 56 -18.5 85.5t-67.5 43.5l-124 34q-85 24 -140 60.5t-81.5 93.5t-28.5 145q-1 28 -0.5 48t0.5 42
q2 160 76.5 229.5t256.5 69.5q168 0 239.5 -67.5t77.5 -225.5q1 -22 0.5 -72t-3.5 -77h-195q2 28 2 61v63t-1 49q-2 60 -28 84t-92 24q-68 0 -95 -24t-29 -84q0 -14 -1 -38t-1 -62q1 -61 17.5 -96.5t74.5 -51.5l113 -28q125 -30 186.5 -97.5t61.5 -199.5q0 -27 -0.5 -50
t-1.5 -51q-2 -155 -78 -223t-258 -68zM315 -399l72 138h-105v181h248v-160l-92 -159h-123z" />
    <glyph glyph-name="uni021A" unicode="&#x21a;" horiz-adv-x="743" 
d="M267 0v1413h-254v187h717v-187h-253v-1413h-210zM290 -399l72 138h-105v181h248v-160l-92 -159h-123z" />
    <glyph glyph-name="uni021B" unicode="&#x21b;" horiz-adv-x="611" 
d="M485 -17q-190 0 -269 68.5t-80 230.5l-1 757h-103v161h108v340h214v-340h213v-161h-219l2 -781q0 -68 28.5 -91.5t107.5 -23.5q29 0 52 1t52 3v-154q-24 -4 -49.5 -7t-55.5 -3zM298 -399l72 138h-105v181h248v-160l-92 -159h-123z" />
    <glyph glyph-name="uni022A" unicode="&#x22a;" horiz-adv-x="914" 
d="M456 -16q-187 0 -270 76t-87 252q-2 136 -3 256t-1 235t1 234t3 252q4 175 87 251t270 76q185 0 268 -76t87 -251q4 -134 6 -253t2 -234t-2 -234.5t-6 -255.5q-4 -176 -87 -252t-268 -76zM456 160q79 0 111.5 31t33.5 110q4 137 6.5 259.5t2.5 240t-2.5 240t-6.5 259.5
q-1 78 -33.5 109.5t-111.5 31.5t-111.5 -31.5t-34.5 -109.5q-5 -135 -7 -256.5t-2 -239t2 -241t7 -262.5q2 -79 34.5 -110t111.5 -31zM508 1710v157h157v-157h-157zM249 1710v157h157v-157h-157zM171 2031h573v-102h-573v102z" />
    <glyph glyph-name="uni022B" unicode="&#x22b;" horiz-adv-x="871" 
d="M436 -17q-124 0 -198.5 33t-109.5 104.5t-41 188.5q-3 53 -4 127.5t-1 156.5t1 160t4 139q7 118 42 189.5t109.5 103.5t197.5 32q126 0 200 -33.5t108 -104.5t40 -187q2 -58 3.5 -132.5t1.5 -155t-1.5 -157.5t-3.5 -138q-6 -117 -40.5 -188.5t-108.5 -104.5t-199 -33z
M436 144q75 0 105 28.5t32 87.5q3 90 4.5 174.5t2 167t-1.5 166.5t-5 174q-2 60 -33 87t-104 27t-105 -29t-34 -87q-2 -74 -3.5 -156.5t-2 -169.5t1.5 -176t5 -177q3 -61 34 -89t104 -28zM487 1310v157h157v-157h-157zM228 1310v157h157v-157h-157zM150 1631h573v-102h-573
v102z" />
    <glyph glyph-name="uni022C" unicode="&#x22c;" horiz-adv-x="914" 
d="M456 -16q-187 0 -270 76t-87 252q-2 136 -3 256t-1 235t1 234t3 252q4 175 87 251t270 76q185 0 268 -76t87 -251q4 -134 6 -253t2 -234t-2 -234.5t-6 -255.5q-4 -176 -87 -252t-268 -76zM456 160q79 0 111.5 31t33.5 110q4 137 6.5 259.5t2.5 240t-2.5 240t-6.5 259.5
q-1 78 -33.5 109.5t-111.5 31.5t-111.5 -31.5t-34.5 -109.5q-5 -135 -7 -256.5t-2 -239t2 -241t7 -262.5q2 -79 34.5 -110t111.5 -31zM608 1869h91q-3 -95 -40.5 -139t-105.5 -44q-42 0 -67.5 13t-43 30.5t-34.5 30.5t-44 13q-25 0 -38.5 -17t-19.5 -59h-91q8 103 47 146.5
t106 43.5q44 0 68.5 -13t41 -30.5t33 -30.5t43.5 -13q30 0 41.5 18.5t12.5 50.5zM171 2078h573v-102h-573v102z" />
    <glyph glyph-name="uni022D" unicode="&#x22d;" horiz-adv-x="871" 
d="M436 -17q-124 0 -198.5 33t-109.5 104.5t-41 188.5q-3 53 -4 127.5t-1 156.5t1 160t4 139q7 118 42 189.5t109.5 103.5t197.5 32q126 0 200 -33.5t108 -104.5t40 -187q2 -58 3.5 -132.5t1.5 -155t-1.5 -157.5t-3.5 -138q-6 -117 -40.5 -188.5t-108.5 -104.5t-199 -33z
M436 144q75 0 105 28.5t32 87.5q3 90 4.5 174.5t2 167t-1.5 166.5t-5 174q-2 60 -33 87t-104 27t-105 -29t-34 -87q-2 -74 -3.5 -156.5t-2 -169.5t1.5 -176t5 -177q3 -61 34 -89t104 -28zM587 1469h91q-3 -95 -40.5 -139t-105.5 -44q-42 0 -67.5 13t-43 30.5t-34.5 30.5
t-44 13q-25 0 -38.5 -17t-19.5 -59h-91q8 103 47 146.5t106 43.5q44 0 68.5 -13t41 -30.5t33 -30.5t43.5 -13q30 0 41.5 18.5t12.5 50.5zM150 1678h573v-102h-573v102z" />
    <glyph glyph-name="uni0230" unicode="&#x230;" horiz-adv-x="914" 
d="M456 -16q-187 0 -270 76t-87 252q-2 136 -3 256t-1 235t1 234t3 252q4 175 87 251t270 76q185 0 268 -76t87 -251q4 -134 6 -253t2 -234t-2 -234.5t-6 -255.5q-4 -176 -87 -252t-268 -76zM456 160q79 0 111.5 31t33.5 110q4 137 6.5 259.5t2.5 240t-2.5 240t-6.5 259.5
q-1 78 -33.5 109.5t-111.5 31.5t-111.5 -31.5t-34.5 -109.5q-5 -135 -7 -256.5t-2 -239t2 -241t7 -262.5q2 -79 34.5 -110t111.5 -31zM378 1680v157h157v-157h-157zM171 2032h573v-102h-573v102z" />
    <glyph glyph-name="uni0231" unicode="&#x231;" horiz-adv-x="871" 
d="M436 -17q-124 0 -198.5 33t-109.5 104.5t-41 188.5q-3 53 -4 127.5t-1 156.5t1 160t4 139q7 118 42 189.5t109.5 103.5t197.5 32q126 0 200 -33.5t108 -104.5t40 -187q2 -58 3.5 -132.5t1.5 -155t-1.5 -157.5t-3.5 -138q-6 -117 -40.5 -188.5t-108.5 -104.5t-199 -33z
M436 144q75 0 105 28.5t32 87.5q3 90 4.5 174.5t2 167t-1.5 166.5t-5 174q-2 60 -33 87t-104 27t-105 -29t-34 -87q-2 -74 -3.5 -156.5t-2 -169.5t1.5 -176t5 -177q3 -61 34 -89t104 -28zM357 1280v157h157v-157h-157zM150 1632h573v-102h-573v102z" />
    <glyph glyph-name="uni0232" unicode="&#x232;" horiz-adv-x="800" 
d="M294 0v529h-41l-222 1071h214l77 -428l49 -462h58l48 462l77 428h216l-225 -1071h-40v-529h-211zM114 1793h573v-102h-573v102z" />
    <glyph glyph-name="uni0233" unicode="&#x233;" horiz-adv-x="803" 
d="M205 -414q-31 0 -73 4t-75 9v159q27 -3 70.5 -5t75.5 -2q83 0 114 25.5t41 89.5l22 134h-140l-195 1200h218l61 -565l55 -477h65l51 477l57 565h219l-199 -1319q-16 -98 -52 -163.5t-110.5 -98.5t-204.5 -33zM120 1393h573v-102h-573v102z" />
    <glyph glyph-name="uni0237" unicode="&#x237;" horiz-adv-x="425" 
d="M-26 -417q-32 0 -73 3.5t-75 8.5v159q28 -2 69.5 -3.5t77.5 -1.5q69 0 100.5 26.5t31.5 83.5v1341h215v-1322q-1 -157 -84 -226t-262 -69z" />
    <glyph glyph-name="uni0259" unicode="&#x259;" horiz-adv-x="839" 
d="M407 1217q181 0 259 -69.5t86 -227.5q3 -62 4 -146t1 -174t-1 -173t-4 -145q-9 -160 -89 -229.5t-254 -69.5q-173 0 -250.5 69t-84.5 222q-1 23 -1.5 84t0 136.5t3.5 143.5h468q0 74 -1.5 149.5t-3.5 155.5q-1 63 -32 88t-98 25q-66 0 -94 -25t-31 -88q-1 -31 -1 -76.5
t2 -103.5h-209q-1 27 -2 76t0 81q8 159 84 228t249 69zM543 485h-261v-96t0.5 -84.5t1.5 -51.5q4 -60 33.5 -85t91.5 -25q71 0 100 26.5t30 83.5q2 59 3 117.5t1 114.5z" />
    <glyph glyph-name="uni02B9" unicode="&#x2b9;" horiz-adv-x="389" 
d="M139 1116l-43 248v236h197v-236l-43 -248h-111z" />
    <glyph glyph-name="uni02BA" unicode="&#x2ba;" horiz-adv-x="719" 
d="M136 1116l-40 248v236h187v-236l-40 -248h-107zM475 1116l-39 248v236h187v-236l-41 -248h-107z" />
    <glyph glyph-name="uni02BB" unicode="&#x2bb;" horiz-adv-x="440" 
d="M312 1601l-72 -138h104v-182h-248v161l93 159h123z" />
    <glyph glyph-name="uni02BC" unicode="&#x2bc;" horiz-adv-x="389" 
d="M139 1116l-43 248v236h197v-236l-43 -248h-111z" />
    <glyph glyph-name="uni02BE" unicode="&#x2be;" horiz-adv-x="436" 
d="M95 1157v123q48 -4 86 28t38 77t-39 77t-91 28v122q71 3 129.5 -27.5t93.5 -83t35 -116.5t-36 -116.5t-94 -83t-122 -28.5z" />
    <glyph glyph-name="uni02BF" unicode="&#x2bf;" horiz-adv-x="436" 
d="M340 1157q-63 -2 -120.5 28.5t-94 83t-36.5 116.5t35 116.5t94 83t129 27.5v-122q-52 4 -91 -28t-39 -77t38 -77t85 -28v-123z" />
    <glyph glyph-name="circumflex" unicode="&#x2c6;" horiz-adv-x="648" 
d="M96 1281l161 251h134l161 -251h-147l-81 136l-81 -136h-147z" />
    <glyph glyph-name="caron" unicode="&#x2c7;" horiz-adv-x="642" 
d="M261 1280l-161 250h137l85 -143l86 143h136l-161 -250h-122z" />
    <glyph glyph-name="uni02C8" unicode="&#x2c8;" horiz-adv-x="383" 
d="M96 1600h191v-744h-191v744z" />
    <glyph glyph-name="uni02C9" unicode="&#x2c9;" horiz-adv-x="864" 
d="M85 1393h573v-102h-573v102z" />
    <glyph glyph-name="uni02CA" unicode="&#x2ca;" horiz-adv-x="602" 
d="M212 1116h-116l224 484h186z" />
    <glyph glyph-name="uni02CB" unicode="&#x2cb;" horiz-adv-x="602" 
d="M390 1116l-294 484h187l223 -484h-116z" />
    <glyph glyph-name="uni02CC" unicode="&#x2cc;" horiz-adv-x="383" 
d="M96 376h191v-776h-191v776z" />
    <glyph glyph-name="breve" unicode="&#x2d8;" horiz-adv-x="736" 
d="M372 1270q-139 0 -204 63t-72 199h136q1 -74 33 -111t107 -37q74 0 107 36.5t34 111.5h135q-7 -136 -71.5 -199t-204.5 -63z" />
    <glyph glyph-name="dotaccent" unicode="&#x2d9;" horiz-adv-x="405" 
d="M128 1280v157h157v-157h-157z" />
    <glyph glyph-name="ring" unicode="&#x2da;" horiz-adv-x="688" 
d="M264 1270q-75 0 -129 54t-54 129t54 129t129 54t129 -54t54 -129t-54 -129t-129 -54zM264 1388q28 0 47.5 19.5t19.5 45.5q0 28 -20 47.5t-47 19.5q-26 0 -46 -19.5t-20 -47.5q0 -26 19.5 -45.5t46.5 -19.5z" />
    <glyph glyph-name="ogonek" unicode="&#x2db;" horiz-adv-x="472" 
d="M342 -316h-56q-122 0 -172.5 51t-32.5 161l21 104h122l-22 -104q-9 -54 11 -77t74 -23h55v-112z" />
    <glyph glyph-name="tilde" unicode="&#x2dc;" horiz-adv-x="770" 
d="M537 1469h91q-3 -95 -40.5 -139t-105.5 -44q-42 0 -67.5 13t-43 30.5t-34.5 30.5t-44 13q-25 0 -38.5 -17t-19.5 -59h-91q8 103 47 146.5t106 43.5q44 0 68.5 -13t41 -30.5t33 -30.5t43.5 -13q30 0 41.5 18.5t12.5 50.5z" />
    <glyph glyph-name="hungarumlaut" unicode="&#x2dd;" horiz-adv-x="783" 
d="M81 1281l200 252h151l-200 -252h-151zM340 1281l202 252h152l-201 -252h-153z" />
    <glyph glyph-name="gravecomb" unicode="&#x300;" horiz-adv-x="0" 
d="M262 1280l-171 250h157l163 -250h-149z" />
    <glyph glyph-name="acutecomb" unicode="&#x301;" horiz-adv-x="0" 
d="M83 1280l176 250h157l-184 -250h-149z" />
    <glyph glyph-name="uni0302" unicode="&#x302;" horiz-adv-x="0" 
d="M96 1281l161 251h134l161 -251h-147l-81 136l-81 -136h-147z" />
    <glyph glyph-name="tildecomb" unicode="&#x303;" horiz-adv-x="0" 
d="M537 1469h91q-3 -95 -40.5 -139t-105.5 -44q-42 0 -67.5 13t-43 30.5t-34.5 30.5t-44 13q-25 0 -38.5 -17t-19.5 -59h-91q8 103 47 146.5t106 43.5q44 0 68.5 -13t41 -30.5t33 -30.5t43.5 -13q30 0 41.5 18.5t12.5 50.5z" />
    <glyph glyph-name="uni0304" unicode="&#x304;" horiz-adv-x="0" 
d="M85 1393h573v-102h-573v102z" />
    <glyph glyph-name="uni0306" unicode="&#x306;" horiz-adv-x="0" 
d="M372 1270q-139 0 -204 63t-72 199h136q1 -74 33 -111t107 -37q74 0 107 36.5t34 111.5h135q-7 -136 -71.5 -199t-204.5 -63z" />
    <glyph glyph-name="uni0307" unicode="&#x307;" horiz-adv-x="0" 
d="M128 1280v157h157v-157h-157z" />
    <glyph glyph-name="uni0308" unicode="&#x308;" horiz-adv-x="0" 
d="M385 1310v157h157v-157h-157zM126 1310v157h157v-157h-157z" />
    <glyph glyph-name="hookabovecomb" unicode="&#x309;" horiz-adv-x="0" 
d="M215 1258l11 71q8 50 -9.5 67t-75.5 17h-71v103h71q115 0 165 -43t33 -144l-11 -71h-113z" />
    <glyph glyph-name="uni030A" unicode="&#x30a;" horiz-adv-x="0" 
d="M264 1270q-75 0 -129 54t-54 129t54 129t129 54t129 -54t54 -129t-54 -129t-129 -54zM264 1388q28 0 47.5 19.5t19.5 45.5q0 28 -20 47.5t-47 19.5q-26 0 -46 -19.5t-20 -47.5q0 -26 19.5 -45.5t46.5 -19.5z" />
    <glyph glyph-name="uni030B" unicode="&#x30b;" horiz-adv-x="0" 
d="M81 1281l200 252h151l-200 -252h-151zM340 1281l202 252h152l-201 -252h-153z" />
    <glyph glyph-name="uni030C" unicode="&#x30c;" horiz-adv-x="0" 
d="M257 1280l-161 250h137l85 -143l86 143h136l-161 -250h-122z" />
    <glyph glyph-name="uni030F" unicode="&#x30f;" horiz-adv-x="0" 
d="M533 1280l-187 250h151l186 -250h-150zM272 1280l-186 250h150l187 -250h-151z" />
    <glyph glyph-name="uni0311" unicode="&#x311;" horiz-adv-x="0" 
d="M372 1541q140 0 204.5 -62.5t71.5 -199.5h-135q-1 76 -34 112.5t-107 36.5q-75 0 -107 -37t-33 -112h-136q7 137 72 199.5t204 62.5z" />
    <glyph glyph-name="uni0312" unicode="&#x312;" horiz-adv-x="0" 
d="M312 1601l-72 -138h104v-182h-248v161l93 159h123z" />
    <glyph glyph-name="uni031B" unicode="&#x31b;" horiz-adv-x="0" 
d="M176 1019q-8 0 -19 1t-24 3v110h26h17q62 1 86 31t28 107q1 20 1.5 52t0 64.5t-1.5 51.5h122q1 -19 1.5 -51.5t0 -64.5t-1.5 -52q-7 -129 -64 -190.5t-172 -61.5z" />
    <glyph glyph-name="dotbelowcomb" unicode="&#x323;" horiz-adv-x="0" 
d="M93 -237v157h157v-157h-157z" />
    <glyph glyph-name="uni0324" unicode="&#x324;" horiz-adv-x="0" 
d="M385 -208v157h157v-157h-157zM126 -208v157h157v-157h-157z" />
    <glyph glyph-name="uni0326" unicode="&#x326;" horiz-adv-x="0" 
d="M129 -399l72 138h-105v181h248v-160l-92 -159h-123z" />
    <glyph glyph-name="uni0327" unicode="&#x327;" horiz-adv-x="0" 
d="M77 -316v112h54q54 0 74.5 23t10.5 77l-21 104h122l20 -104q19 -110 -31.5 -161t-173.5 -51h-55z" />
    <glyph glyph-name="uni0328" unicode="&#x328;" horiz-adv-x="0" 
d="M343 -316h-56q-122 0 -172.5 51t-32.5 161l21 104h122l-22 -104q-9 -54 11 -77t74 -23h55v-112z" />
    <glyph glyph-name="uni032E" unicode="&#x32e;" horiz-adv-x="0" 
d="M372 -342q-139 0 -204 63t-72 199h136q1 -74 33 -111t107 -37q74 0 107 36.5t34 111.5h135q-7 -136 -71.5 -199t-204.5 -63z" />
    <glyph glyph-name="uni0331" unicode="&#x331;" horiz-adv-x="0" 
d="M85 -82h573v-102h-573v102z" />
    <glyph glyph-name="uni0335" unicode="&#x335;" horiz-adv-x="0" 
d="M96 803h484v-124h-484v124z" />
    <glyph glyph-name="pi" unicode="&#x3c0;" horiz-adv-x="1257" 
d="M1040 -9q-126 0 -199 30t-105 95t-37 169l-1 725h-187v-1010h-213v1010h-178v188h987v-188h-196v-745q0 -64 24.5 -89t104.5 -25q27 0 48.5 1t48.5 3v-154q-21 -5 -45.5 -7.5t-51.5 -2.5z" />
    <glyph glyph-name="uni1E08" unicode="&#x1e08;" horiz-adv-x="902" 
d="M457 -17q-186 0 -270 75t-88 248q-2 133 -3 254.5t-1 239.5t1 239.5t3 255.5q3 167 89 243.5t268 76.5q181 0 266.5 -77t91.5 -244q2 -44 2 -88.5t-1 -89t-3 -89.5h-210q1 48 2 93.5t1 91.5t-2 93q-2 75 -35.5 105t-111.5 30q-77 0 -110.5 -30t-35.5 -105
q-3 -139 -5 -263t-2 -242.5t2 -242t5 -262.5q2 -75 36 -105.5t111 -30.5q82 0 117 30.5t37 105.5q2 45 2.5 87t-0.5 91t-3 113h211q3 -78 3.5 -147t-2.5 -133q-6 -173 -91 -248t-274 -75zM273 -304v112h54q54 0 74.5 23t10.5 77l-21 104h122l20 -104q19 -110 -31.5 -161
t-173.5 -51h-55zM386 1680l176 250h157l-184 -250h-149z" />
    <glyph glyph-name="uni1E09" unicode="&#x1e09;" horiz-adv-x="840" 
d="M554 767q1 27 1.5 60t0 65t-1.5 56q-1 59 -29 83.5t-97 24.5t-97 -24.5t-30 -83.5q-3 -92 -4.5 -177.5t-1.5 -169t1.5 -168.5t4.5 -176q2 -62 32 -87.5t98 -25.5t95 26.5t28 87.5q2 37 2 78.5t-2 100.5h209q2 -28 3 -76t-1 -82q-7 -157 -84.5 -226.5t-249.5 -69.5
q-181 0 -258.5 70t-85.5 226q-3 63 -4 146.5t-1 174t1 174t4 144.5q9 161 88.5 230t252.5 69q175 0 253 -68t84 -223q1 -38 0.5 -85t-2.5 -74h-209zM239 -304v112h54q54 0 74.5 23t10.5 77l-21 104h122l20 -104q19 -110 -31.5 -161t-173.5 -51h-55zM363 1280l176 250h157
l-184 -250h-149z" />
    <glyph glyph-name="uni1E0C" unicode="&#x1e0c;" horiz-adv-x="906" 
d="M112 0v1600h346q184 0 265 -74.5t84 -245.5t4 -325.5t0 -308t-4 -325.5q-3 -171 -83 -246t-259 -75h-353zM323 187h142q68 0 99 27.5t32 85.5q4 136 5.5 259t1.5 242t-1.5 242t-5.5 259q-1 57 -33 84t-105 27h-135v-1226zM351 -237v157h157v-157h-157z" />
    <glyph glyph-name="uni1E0D" unicode="&#x1e0d;" horiz-adv-x="901" 
d="M329 -17q-118 0 -177 66.5t-65 218.5q-3 70 -4 157.5t-1 179t1.5 176.5t3.5 151q5 155 68.5 220t177.5 65q86 0 132.5 -34t83.5 -101h33v518h215v-1600h-215v118h-35q-37 -66 -85 -100.5t-133 -34.5zM411 140q54 0 102 26.5t69 79.5v709q-21 53 -69 79t-102 26
q-56 0 -81.5 -25.5t-28.5 -80.5q-5 -115 -6.5 -239t0 -243t5.5 -218q3 -62 29 -88t82 -26zM363 -237v157h157v-157h-157z" />
    <glyph glyph-name="uni1E0E" unicode="&#x1e0e;" horiz-adv-x="906" 
d="M112 0v1600h346q184 0 265 -74.5t84 -245.5t4 -325.5t0 -308t-4 -325.5q-3 -171 -83 -246t-259 -75h-353zM323 187h142q68 0 99 27.5t32 85.5q4 136 5.5 259t1.5 242t-1.5 242t-5.5 259q-1 57 -33 84t-105 27h-135v-1226zM143 -82h573v-102h-573v102z" />
    <glyph glyph-name="uni1E0F" unicode="&#x1e0f;" horiz-adv-x="901" 
d="M329 -17q-118 0 -177 66.5t-65 218.5q-3 70 -4 157.5t-1 179t1.5 176.5t3.5 151q5 155 68.5 220t177.5 65q86 0 132.5 -34t83.5 -101h33v518h215v-1600h-215v118h-35q-37 -66 -85 -100.5t-133 -34.5zM411 140q54 0 102 26.5t69 79.5v709q-21 53 -69 79t-102 26
q-56 0 -81.5 -25.5t-28.5 -80.5q-5 -115 -6.5 -239t0 -243t5.5 -218q3 -62 29 -88t82 -26zM155 -82h573v-102h-573v102z" />
    <glyph glyph-name="uni1E14" unicode="&#x1e14;" horiz-adv-x="769" 
d="M112 0v1600h602v-187h-391v-511h371v-187h-371v-528h391v-187h-602zM125 1791h573v-102h-573v102zM317 1872l-171 250h157l163 -250h-149z" />
    <glyph glyph-name="uni1E15" unicode="&#x1e15;" horiz-adv-x="839" 
d="M432 -17q-181 0 -259 70t-86 227q-3 62 -4 146t-1 174t1 173t4 145q9 161 89.5 230t252.5 69q175 0 252 -69t84 -222q1 -23 1.5 -84t0 -136.5t-3.5 -143.5h-468q0 -74 1.5 -149.5t3.5 -155.5q2 -62 32.5 -87.5t97.5 -25.5t94 25.5t30 87.5q2 31 2 77t-3 103h210
q2 -26 3 -75.5t-1 -81.5q-8 -159 -84 -228t-249 -69zM296 715h260q1 48 1 96t-0.5 84.5t-2.5 51.5q-3 61 -32 85.5t-93 24.5q-70 0 -98.5 -26.5t-30.5 -83.5q-1 -58 -2.5 -116.5t-1.5 -115.5zM139 1393h573v-102h-573v102zM331 1474l-171 250h157l163 -250h-149z" />
    <glyph glyph-name="uni1E16" unicode="&#x1e16;" horiz-adv-x="769" 
d="M112 0v1600h602v-187h-391v-511h371v-187h-371v-528h391v-187h-602zM125 1791h573v-102h-573v102zM345 1872l176 250h157l-184 -250h-149z" />
    <glyph glyph-name="uni1E17" unicode="&#x1e17;" horiz-adv-x="839" 
d="M432 -17q-181 0 -259 70t-86 227q-3 62 -4 146t-1 174t1 173t4 145q9 161 89.5 230t252.5 69q175 0 252 -69t84 -222q1 -23 1.5 -84t0 -136.5t-3.5 -143.5h-468q0 -74 1.5 -149.5t3.5 -155.5q2 -62 32.5 -87.5t97.5 -25.5t94 25.5t30 87.5q2 31 2 77t-3 103h210
q2 -26 3 -75.5t-1 -81.5q-8 -159 -84 -228t-249 -69zM296 715h260q1 48 1 96t-0.5 84.5t-2.5 51.5q-3 61 -32 85.5t-93 24.5q-70 0 -98.5 -26.5t-30.5 -83.5q-1 -58 -2.5 -116.5t-1.5 -115.5zM139 1393h573v-102h-573v102zM360 1474l176 250h157l-184 -250h-149z" />
    <glyph glyph-name="uni1E1C" unicode="&#x1e1c;" horiz-adv-x="769" 
d="M112 0v1600h602v-187h-391v-511h371v-187h-371v-528h391v-187h-602zM256 -304v112h54q54 0 74.5 23t10.5 77l-21 104h122l20 -104q19 -110 -31.5 -161t-173.5 -51h-55zM411 1668q-139 0 -204 63t-72 199h136q1 -74 33 -111t107 -37q74 0 107 36.5t34 111.5h135
q-7 -136 -71.5 -199t-204.5 -63z" />
    <glyph glyph-name="uni1E1D" unicode="&#x1e1d;" horiz-adv-x="839" 
d="M432 -17q-181 0 -259 70t-86 227q-3 62 -4 146t-1 174t1 173t4 145q9 161 89.5 230t252.5 69q175 0 252 -69t84 -222q1 -23 1.5 -84t0 -136.5t-3.5 -143.5h-468q0 -74 1.5 -149.5t3.5 -155.5q2 -62 32.5 -87.5t97.5 -25.5t94 25.5t30 87.5q2 31 2 77t-3 103h210
q2 -26 3 -75.5t-1 -81.5q-8 -159 -84 -228t-249 -69zM296 715h260q1 48 1 96t-0.5 84.5t-2.5 51.5q-3 61 -32 85.5t-93 24.5q-70 0 -98.5 -26.5t-30.5 -83.5q-1 -58 -2.5 -116.5t-1.5 -115.5zM247 -304v112h54q54 0 74.5 23t10.5 77l-21 104h122l20 -104q19 -110 -31.5 -161
t-173.5 -51h-55zM425 1270q-139 0 -204 63t-72 199h136q1 -74 33 -111t107 -37q74 0 107 36.5t34 111.5h135q-7 -136 -71.5 -199t-204.5 -63z" />
    <glyph glyph-name="uni1E20" unicode="&#x1e20;" horiz-adv-x="905" 
d="M460 -16q-126 0 -204 32.5t-115 104t-40 186.5q-3 116 -4.5 240t-1.5 250.5t1.5 249.5t4.5 237q4 119 40.5 192t114.5 106.5t204 33.5q183 0 264.5 -74.5t90.5 -246.5q3 -66 3 -133t-3 -134h-211q3 77 3 144.5t-3 144.5q-3 69 -34 96.5t-110 27.5q-82 0 -113.5 -27.5
t-35.5 -96.5q-5 -134 -7 -262t-2 -254.5t2 -254.5t7 -261q3 -70 35 -97.5t114 -27.5q85 0 118.5 27.5t37.5 97.5q2 39 2.5 80.5t0 82.5t-2.5 80h-139v186h345q3 -110 2.5 -211.5t-4.5 -195.5q-6 -173 -89 -248t-271 -75zM169 1793h573v-102h-573v102z" />
    <glyph glyph-name="uni1E21" unicode="&#x1e21;" horiz-adv-x="901" 
d="M421 -362q-152 0 -240 44.5t-102 131.5q-1 13 -2.5 29t-0.5 29q5 53 42.5 87t91.5 41v33q-57 13 -83 41t-32 68q-1 12 -1 24t1 25q4 41 39 69t88 36v33q-71 32 -105 96.5t-40 168.5q-1 35 -2 78t-1 88t1 85.5t2 71.5q8 108 44.5 174t109.5 96t191 30t190.5 -30t108.5 -96
h32q7 55 43.5 82t101.5 27v-162h-26q-49 0 -78 -29t-29 -97v-54q0 -11 0.5 -43t0.5 -72.5t-0.5 -80.5t-2.5 -68q-6 -109 -42 -174.5t-109 -95t-191 -29.5q-86 1 -125.5 -15t-39.5 -52v-10q0 -23 15 -36.5t52 -20t103 -8.5q183 -4 271.5 -56t102.5 -164q2 -15 2.5 -34
t-2.5 -38q-9 -83 -55.5 -132t-128 -70t-195.5 -21zM429 -214q59 0 101 8.5t67 28t31 51.5q4 14 3.5 26.5t-4.5 25.5q-6 30 -28.5 47t-64 25t-105.5 8q-79 2 -126.5 -14.5t-55.5 -67.5q-3 -16 -3 -27.5t3 -23.5q6 -33 29 -52t61.5 -27t91.5 -8zM422 455q68 0 99.5 27.5
t35.5 85.5q2 32 3.5 82t1.5 105.5t-1.5 106t-3.5 82.5q-3 58 -34.5 85.5t-100.5 27.5q-70 0 -103 -27.5t-36 -89.5q-1 -32 -2 -81t-1.5 -103.5t0.5 -103.5t3 -80q4 -60 36 -88.5t103 -28.5zM135 1393h573v-102h-573v102z" />
    <glyph glyph-name="uni1E24" unicode="&#x1e24;" horiz-adv-x="921" 
d="M112 0v1600h211v-698h276v698h210v-1600h-210v715h-276v-715h-211zM382 -237v157h157v-157h-157z" />
    <glyph glyph-name="uni1E25" unicode="&#x1e25;" horiz-adv-x="916" 
d="M104 0v1600h215v-518h40q38 67 84 101t133 34q119 0 178.5 -66.5t60.5 -218.5l2 -932h-214l-2 950q0 58 -25.5 84t-83.5 26q-59 0 -105.5 -27t-67.5 -78v-955h-215zM376 -237v157h157v-157h-157z" />
    <glyph glyph-name="uni1E2A" unicode="&#x1e2a;" horiz-adv-x="921" 
d="M112 0v1600h211v-698h276v698h210v-1600h-210v715h-276v-715h-211zM461 -342q-139 0 -204 63t-72 199h136q1 -74 33 -111t107 -37q74 0 107 36.5t34 111.5h135q-7 -136 -71.5 -199t-204.5 -63z" />
    <glyph glyph-name="uni1E2B" unicode="&#x1e2b;" horiz-adv-x="916" 
d="M104 0v1600h215v-518h40q38 67 84 101t133 34q119 0 178.5 -66.5t60.5 -218.5l2 -932h-214l-2 950q0 58 -25.5 84t-83.5 26q-59 0 -105.5 -27t-67.5 -78v-955h-215zM455 -342q-139 0 -204 63t-72 199h136q1 -74 33 -111t107 -37q74 0 107 36.5t34 111.5h135
q-7 -136 -71.5 -199t-204.5 -63z" />
    <glyph glyph-name="uni1E2E" unicode="&#x1e2e;" horiz-adv-x="435" 
d="M112 0v1600h211v-1600h-211zM269 1710v157h157v-157h-157zM10 1710v157h157v-157h-157zM152 1918l176 250h157l-184 -250h-149z" />
    <glyph glyph-name="uni1E2F" unicode="&#x1e2f;" horiz-adv-x="419" 
d="M104 0v1200h211v-1200h-211zM261 1310v157h157v-157h-157zM2 1310v157h157v-157h-157zM144 1518l176 250h157l-184 -250h-149z" />
    <glyph glyph-name="uni1E36" unicode="&#x1e36;" horiz-adv-x="718" 
d="M112 0v1600h211v-1413h377v-187h-588zM328 -237v157h157v-157h-157z" />
    <glyph glyph-name="uni1E37" unicode="&#x1e37;" horiz-adv-x="419" 
d="M104 0v1600h211v-1600h-211zM130 -237v157h157v-157h-157z" />
    <glyph glyph-name="uni1E3A" unicode="&#x1e3a;" horiz-adv-x="718" 
d="M112 0v1600h211v-1413h377v-187h-588zM120 -82h573v-102h-573v102z" />
    <glyph glyph-name="uni1E3B" unicode="&#x1e3b;" horiz-adv-x="419" 
d="M104 0v1600h211v-1600h-211zM-77 -82h573v-102h-573v102z" />
    <glyph glyph-name="uni1E42" unicode="&#x1e42;" horiz-adv-x="1430" 
d="M112 0v1600h412l109 -637l49 -771h67l48 771l110 637h411v-1600h-216v495l35 918h-86l-96 -949l-98 -460h-289l-91 460l-97 949h-85l34 -918v-495h-217zM637 -237v157h157v-157h-157z" />
    <glyph glyph-name="uni1E43" unicode="&#x1e43;" horiz-adv-x="1373" 
d="M104 0v1200h212v-118h40q36 66 79.5 100.5t129.5 34.5q83 0 137.5 -35t78.5 -112h36q36 65 87 106t137 41q113 0 172.5 -66t60.5 -219v-932h-212v950q0 58 -28 84t-79 26q-53 0 -93 -29.5t-63 -77.5v-953h-212v950q0 58 -26.5 84t-80.5 26t-99 -27.5t-65 -77.5v-955h-212
zM612 -237v157h157v-157h-157z" />
    <glyph glyph-name="uni1E44" unicode="&#x1e44;" horiz-adv-x="1081" 
d="M112 0v1600h383l100 -508l125 -904h86l-34 801l-14 611h211v-1600h-398l-106 555l-101 859h-88l31 -810l16 -604h-211zM470 1680v157h157v-157h-157z" />
    <glyph glyph-name="uni1E45" unicode="&#x1e45;" horiz-adv-x="916" 
d="M104 0v1200h212v-118h43q38 66 86 100.5t131 34.5q119 0 179.5 -66.5t61.5 -218.5v-932h-211v950q-1 58 -28.5 84t-85.5 26q-54 0 -105 -28t-71 -78v-954h-212zM383 1280v157h157v-157h-157z" />
    <glyph glyph-name="uni1E46" unicode="&#x1e46;" horiz-adv-x="1081" 
d="M112 0v1600h383l100 -508l125 -904h86l-34 801l-14 611h211v-1600h-398l-106 555l-101 859h-88l31 -810l16 -604h-211zM465 -237v157h157v-157h-157z" />
    <glyph glyph-name="uni1E47" unicode="&#x1e47;" horiz-adv-x="916" 
d="M104 0v1200h212v-118h43q38 66 86 100.5t131 34.5q119 0 179.5 -66.5t61.5 -218.5v-932h-211v950q-1 58 -28.5 84t-85.5 26q-54 0 -105 -28t-71 -78v-954h-212zM383 -237v157h157v-157h-157z" />
    <glyph glyph-name="uni1E48" unicode="&#x1e48;" horiz-adv-x="1081" 
d="M112 0v1600h383l100 -508l125 -904h86l-34 801l-14 611h211v-1600h-398l-106 555l-101 859h-88l31 -810l16 -604h-211zM257 -82h573v-102h-573v102z" />
    <glyph glyph-name="uni1E49" unicode="&#x1e49;" horiz-adv-x="916" 
d="M104 0v1200h212v-118h43q38 66 86 100.5t131 34.5q119 0 179.5 -66.5t61.5 -218.5v-932h-211v950q-1 58 -28.5 84t-85.5 26q-54 0 -105 -28t-71 -78v-954h-212zM175 -82h573v-102h-573v102z" />
    <glyph glyph-name="uni1E4C" unicode="&#x1e4c;" horiz-adv-x="914" 
d="M456 -16q-187 0 -270 76t-87 252q-2 136 -3 256t-1 235t1 234t3 252q4 175 87 251t270 76q185 0 268 -76t87 -251q4 -134 6 -253t2 -234t-2 -234.5t-6 -255.5q-4 -176 -87 -252t-268 -76zM456 160q79 0 111.5 31t33.5 110q4 137 6.5 259.5t2.5 240t-2.5 240t-6.5 259.5
q-1 78 -33.5 109.5t-111.5 31.5t-111.5 -31.5t-34.5 -109.5q-5 -135 -7 -256.5t-2 -239t2 -241t7 -262.5q2 -79 34.5 -110t111.5 -31zM608 1869h91q-3 -95 -40.5 -139t-105.5 -44q-42 0 -67.5 13t-43 30.5t-34.5 30.5t-44 13q-25 0 -38.5 -17t-19.5 -59h-91q8 103 47 146.5
t106 43.5q44 0 68.5 -13t41 -30.5t33 -30.5t43.5 -13q30 0 41.5 18.5t12.5 50.5zM391 1965l176 250h157l-184 -250h-149z" />
    <glyph glyph-name="uni1E4D" unicode="&#x1e4d;" horiz-adv-x="871" 
d="M436 -17q-124 0 -198.5 33t-109.5 104.5t-41 188.5q-3 53 -4 127.5t-1 156.5t1 160t4 139q7 118 42 189.5t109.5 103.5t197.5 32q126 0 200 -33.5t108 -104.5t40 -187q2 -58 3.5 -132.5t1.5 -155t-1.5 -157.5t-3.5 -138q-6 -117 -40.5 -188.5t-108.5 -104.5t-199 -33z
M436 144q75 0 105 28.5t32 87.5q3 90 4.5 174.5t2 167t-1.5 166.5t-5 174q-2 60 -33 87t-104 27t-105 -29t-34 -87q-2 -74 -3.5 -156.5t-2 -169.5t1.5 -176t5 -177q3 -61 34 -89t104 -28zM587 1469h91q-3 -95 -40.5 -139t-105.5 -44q-42 0 -67.5 13t-43 30.5t-34.5 30.5
t-44 13q-25 0 -38.5 -17t-19.5 -59h-91q8 103 47 146.5t106 43.5q44 0 68.5 -13t41 -30.5t33 -30.5t43.5 -13q30 0 41.5 18.5t12.5 50.5zM370 1565l176 250h157l-184 -250h-149z" />
    <glyph glyph-name="uni1E4E" unicode="&#x1e4e;" horiz-adv-x="914" 
d="M456 -16q-187 0 -270 76t-87 252q-2 136 -3 256t-1 235t1 234t3 252q4 175 87 251t270 76q185 0 268 -76t87 -251q4 -134 6 -253t2 -234t-2 -234.5t-6 -255.5q-4 -176 -87 -252t-268 -76zM456 160q79 0 111.5 31t33.5 110q4 137 6.5 259.5t2.5 240t-2.5 240t-6.5 259.5
q-1 78 -33.5 109.5t-111.5 31.5t-111.5 -31.5t-34.5 -109.5q-5 -135 -7 -256.5t-2 -239t2 -241t7 -262.5q2 -79 34.5 -110t111.5 -31zM608 1869h91q-3 -95 -40.5 -139t-105.5 -44q-42 0 -67.5 13t-43 30.5t-34.5 30.5t-44 13q-25 0 -38.5 -17t-19.5 -59h-91q8 103 47 146.5
t106 43.5q44 0 68.5 -13t41 -30.5t33 -30.5t43.5 -13q30 0 41.5 18.5t12.5 50.5zM508 1995v157h157v-157h-157zM249 1995v157h157v-157h-157z" />
    <glyph glyph-name="uni1E4F" unicode="&#x1e4f;" horiz-adv-x="871" 
d="M436 -17q-124 0 -198.5 33t-109.5 104.5t-41 188.5q-3 53 -4 127.5t-1 156.5t1 160t4 139q7 118 42 189.5t109.5 103.5t197.5 32q126 0 200 -33.5t108 -104.5t40 -187q2 -58 3.5 -132.5t1.5 -155t-1.5 -157.5t-3.5 -138q-6 -117 -40.5 -188.5t-108.5 -104.5t-199 -33z
M436 144q75 0 105 28.5t32 87.5q3 90 4.5 174.5t2 167t-1.5 166.5t-5 174q-2 60 -33 87t-104 27t-105 -29t-34 -87q-2 -74 -3.5 -156.5t-2 -169.5t1.5 -176t5 -177q3 -61 34 -89t104 -28zM587 1469h91q-3 -95 -40.5 -139t-105.5 -44q-42 0 -67.5 13t-43 30.5t-34.5 30.5
t-44 13q-25 0 -38.5 -17t-19.5 -59h-91q8 103 47 146.5t106 43.5q44 0 68.5 -13t41 -30.5t33 -30.5t43.5 -13q30 0 41.5 18.5t12.5 50.5zM487 1595v157h157v-157h-157zM228 1595v157h157v-157h-157z" />
    <glyph glyph-name="uni1E50" unicode="&#x1e50;" horiz-adv-x="914" 
d="M456 -16q-187 0 -270 76t-87 252q-2 136 -3 256t-1 235t1 234t3 252q4 175 87 251t270 76q185 0 268 -76t87 -251q4 -134 6 -253t2 -234t-2 -234.5t-6 -255.5q-4 -176 -87 -252t-268 -76zM456 160q79 0 111.5 31t33.5 110q4 137 6.5 259.5t2.5 240t-2.5 240t-6.5 259.5
q-1 78 -33.5 109.5t-111.5 31.5t-111.5 -31.5t-34.5 -109.5q-5 -135 -7 -256.5t-2 -239t2 -241t7 -262.5q2 -79 34.5 -110t111.5 -31zM171 1793h573v-102h-573v102zM363 1874l-171 250h157l163 -250h-149z" />
    <glyph glyph-name="uni1E51" unicode="&#x1e51;" horiz-adv-x="871" 
d="M436 -17q-124 0 -198.5 33t-109.5 104.5t-41 188.5q-3 53 -4 127.5t-1 156.5t1 160t4 139q7 118 42 189.5t109.5 103.5t197.5 32q126 0 200 -33.5t108 -104.5t40 -187q2 -58 3.5 -132.5t1.5 -155t-1.5 -157.5t-3.5 -138q-6 -117 -40.5 -188.5t-108.5 -104.5t-199 -33z
M436 144q75 0 105 28.5t32 87.5q3 90 4.5 174.5t2 167t-1.5 166.5t-5 174q-2 60 -33 87t-104 27t-105 -29t-34 -87q-2 -74 -3.5 -156.5t-2 -169.5t1.5 -176t5 -177q3 -61 34 -89t104 -28zM150 1393h573v-102h-573v102zM342 1474l-171 250h157l163 -250h-149z" />
    <glyph glyph-name="uni1E52" unicode="&#x1e52;" horiz-adv-x="914" 
d="M456 -16q-187 0 -270 76t-87 252q-2 136 -3 256t-1 235t1 234t3 252q4 175 87 251t270 76q185 0 268 -76t87 -251q4 -134 6 -253t2 -234t-2 -234.5t-6 -255.5q-4 -176 -87 -252t-268 -76zM456 160q79 0 111.5 31t33.5 110q4 137 6.5 259.5t2.5 240t-2.5 240t-6.5 259.5
q-1 78 -33.5 109.5t-111.5 31.5t-111.5 -31.5t-34.5 -109.5q-5 -135 -7 -256.5t-2 -239t2 -241t7 -262.5q2 -79 34.5 -110t111.5 -31zM171 1793h573v-102h-573v102zM392 1874l176 250h157l-184 -250h-149z" />
    <glyph glyph-name="uni1E53" unicode="&#x1e53;" horiz-adv-x="871" 
d="M436 -17q-124 0 -198.5 33t-109.5 104.5t-41 188.5q-3 53 -4 127.5t-1 156.5t1 160t4 139q7 118 42 189.5t109.5 103.5t197.5 32q126 0 200 -33.5t108 -104.5t40 -187q2 -58 3.5 -132.5t1.5 -155t-1.5 -157.5t-3.5 -138q-6 -117 -40.5 -188.5t-108.5 -104.5t-199 -33z
M436 144q75 0 105 28.5t32 87.5q3 90 4.5 174.5t2 167t-1.5 166.5t-5 174q-2 60 -33 87t-104 27t-105 -29t-34 -87q-2 -74 -3.5 -156.5t-2 -169.5t1.5 -176t5 -177q3 -61 34 -89t104 -28zM150 1393h573v-102h-573v102zM370 1474l176 250h157l-184 -250h-149z" />
    <glyph glyph-name="uni1E5A" unicode="&#x1e5a;" horiz-adv-x="879" 
d="M112 0v1600h338q177 0 256.5 -71.5t84.5 -236.5q3 -80 4 -144.5t0 -125t-4 -130.5q-4 -107 -38.5 -173t-105.5 -99l171 -620h-222l-149 585h-124v-585h-211zM323 772h126q68 0 98.5 27t33.5 84q3 75 4 142.5t0.5 134.5t-4.5 142q-3 58 -33.5 84.5t-97.5 26.5h-127v-641z
M377 -237v157h157v-157h-157z" />
    <glyph glyph-name="uni1E5B" unicode="&#x1e5b;" horiz-adv-x="632" 
d="M104 0v1200h216v-130h41q16 76 61 106t118 30q22 0 43 -2t38 -3v-162h-78q-97 0 -151 -29.5t-72 -102.5v-907h-216zM133 -237v157h157v-157h-157z" />
    <glyph glyph-name="uni1E5E" unicode="&#x1e5e;" horiz-adv-x="879" 
d="M112 0v1600h338q177 0 256.5 -71.5t84.5 -236.5q3 -80 4 -144.5t0 -125t-4 -130.5q-4 -107 -38.5 -173t-105.5 -99l171 -620h-222l-149 585h-124v-585h-211zM323 772h126q68 0 98.5 27t33.5 84q3 75 4 142.5t0.5 134.5t-4.5 142q-3 58 -33.5 84.5t-97.5 26.5h-127v-641z
M170 -82h573v-102h-573v102z" />
    <glyph glyph-name="uni1E5F" unicode="&#x1e5f;" horiz-adv-x="632" 
d="M104 0v1200h216v-130h41q16 76 61 106t118 30q22 0 43 -2t38 -3v-162h-78q-97 0 -151 -29.5t-72 -102.5v-907h-216zM-75 -82h573v-102h-573v102z" />
    <glyph glyph-name="uni1E60" unicode="&#x1e60;" horiz-adv-x="876" 
d="M440 -16q-184 0 -266 75t-89 248q-1 48 -1.5 93.5t1 91.5t5.5 95h200q-4 -83 -5 -161t5 -153q4 -60 39 -86.5t110 -26.5q71 0 105 26.5t39 86.5q4 41 5 84.5t-0.5 87.5t-4.5 85q-3 66 -32.5 104t-89.5 53l-139 32q-90 22 -142 65t-74.5 112t-25.5 169q-1 57 -0.5 114.5
t1.5 116.5q4 115 41.5 185t115 102.5t201.5 32.5q181 0 261.5 -74.5t87.5 -246.5q2 -55 1 -125.5t-4 -141.5h-203q3 83 4 156t-2 144q-2 60 -37 86.5t-109 26.5q-72 0 -106.5 -26.5t-39.5 -86.5q-5 -67 -5 -131t5 -132q3 -69 25 -107t76 -51l125 -27q101 -22 160 -66.5
t86.5 -114.5t30.5 -169q2 -36 2 -74.5t-1 -76t-2 -72.5q-7 -173 -89 -248t-265 -75zM358 1680v157h157v-157h-157z" />
    <glyph glyph-name="uni1E61" unicode="&#x1e61;" horiz-adv-x="795" 
d="M392 -17q-170 0 -240.5 69.5t-77.5 226.5q-1 42 -0.5 80t2.5 69h190q-3 -59 -2.5 -100t1.5 -71q2 -63 32 -88t95 -25q73 0 105 25.5t33 88.5q1 28 1 42.5v28t-1 37.5q-1 56 -18.5 85.5t-67.5 43.5l-124 34q-85 24 -140 60.5t-81.5 93.5t-28.5 145q-1 28 -0.5 48t0.5 42
q2 160 76.5 229.5t256.5 69.5q168 0 239.5 -67.5t77.5 -225.5q1 -22 0.5 -72t-3.5 -77h-195q2 28 2 61v63t-1 49q-2 60 -28 84t-92 24q-68 0 -95 -24t-29 -84q0 -14 -1 -38t-1 -62q1 -61 17.5 -96.5t74.5 -51.5l113 -28q125 -30 186.5 -97.5t61.5 -199.5q0 -27 -0.5 -50
t-1.5 -51q-2 -155 -78 -223t-258 -68zM318 1280v157h157v-157h-157z" />
    <glyph glyph-name="uni1E62" unicode="&#x1e62;" horiz-adv-x="876" 
d="M440 -16q-184 0 -266 75t-89 248q-1 48 -1.5 93.5t1 91.5t5.5 95h200q-4 -83 -5 -161t5 -153q4 -60 39 -86.5t110 -26.5q71 0 105 26.5t39 86.5q4 41 5 84.5t-0.5 87.5t-4.5 85q-3 66 -32.5 104t-89.5 53l-139 32q-90 22 -142 65t-74.5 112t-25.5 169q-1 57 -0.5 114.5
t1.5 116.5q4 115 41.5 185t115 102.5t201.5 32.5q181 0 261.5 -74.5t87.5 -246.5q2 -55 1 -125.5t-4 -141.5h-203q3 83 4 156t-2 144q-2 60 -37 86.5t-109 26.5q-72 0 -106.5 -26.5t-39.5 -86.5q-5 -67 -5 -131t5 -132q3 -69 25 -107t76 -51l125 -27q101 -22 160 -66.5
t86.5 -114.5t30.5 -169q2 -36 2 -74.5t-1 -76t-2 -72.5q-7 -173 -89 -248t-265 -75zM358 -237v157h157v-157h-157z" />
    <glyph glyph-name="uni1E63" unicode="&#x1e63;" horiz-adv-x="795" 
d="M392 -17q-170 0 -240.5 69.5t-77.5 226.5q-1 42 -0.5 80t2.5 69h190q-3 -59 -2.5 -100t1.5 -71q2 -63 32 -88t95 -25q73 0 105 25.5t33 88.5q1 28 1 42.5v28t-1 37.5q-1 56 -18.5 85.5t-67.5 43.5l-124 34q-85 24 -140 60.5t-81.5 93.5t-28.5 145q-1 28 -0.5 48t0.5 42
q2 160 76.5 229.5t256.5 69.5q168 0 239.5 -67.5t77.5 -225.5q1 -22 0.5 -72t-3.5 -77h-195q2 28 2 61v63t-1 49q-2 60 -28 84t-92 24q-68 0 -95 -24t-29 -84q0 -14 -1 -38t-1 -62q1 -61 17.5 -96.5t74.5 -51.5l113 -28q125 -30 186.5 -97.5t61.5 -199.5q0 -27 -0.5 -50
t-1.5 -51q-2 -155 -78 -223t-258 -68zM318 -237v157h157v-157h-157z" />
    <glyph glyph-name="uni1E64" unicode="&#x1e64;" horiz-adv-x="876" 
d="M440 -16q-184 0 -266 75t-89 248q-1 48 -1.5 93.5t1 91.5t5.5 95h200q-4 -83 -5 -161t5 -153q4 -60 39 -86.5t110 -26.5q71 0 105 26.5t39 86.5q4 41 5 84.5t-0.5 87.5t-4.5 85q-3 66 -32.5 104t-89.5 53l-139 32q-90 22 -142 65t-74.5 112t-25.5 169q-1 57 -0.5 114.5
t1.5 116.5q4 115 41.5 185t115 102.5t201.5 32.5q181 0 261.5 -74.5t87.5 -246.5q2 -55 1 -125.5t-4 -141.5h-203q3 83 4 156t-2 144q-2 60 -37 86.5t-109 26.5q-72 0 -106.5 -26.5t-39.5 -86.5q-5 -67 -5 -131t5 -132q3 -69 25 -107t76 -51l125 -27q101 -22 160 -66.5
t86.5 -114.5t30.5 -169q2 -36 2 -74.5t-1 -76t-2 -72.5q-7 -173 -89 -248t-265 -75zM372 1680l176 250h157l-184 -250h-149zM358 2012v157h157v-157h-157z" />
    <glyph glyph-name="uni1E65" unicode="&#x1e65;" horiz-adv-x="795" 
d="M392 -17q-170 0 -240.5 69.5t-77.5 226.5q-1 42 -0.5 80t2.5 69h190q-3 -59 -2.5 -100t1.5 -71q2 -63 32 -88t95 -25q73 0 105 25.5t33 88.5q1 28 1 42.5v28t-1 37.5q-1 56 -18.5 85.5t-67.5 43.5l-124 34q-85 24 -140 60.5t-81.5 93.5t-28.5 145q-1 28 -0.5 48t0.5 42
q2 160 76.5 229.5t256.5 69.5q168 0 239.5 -67.5t77.5 -225.5q1 -22 0.5 -72t-3.5 -77h-195q2 28 2 61v63t-1 49q-2 60 -28 84t-92 24q-68 0 -95 -24t-29 -84q0 -14 -1 -38t-1 -62q1 -61 17.5 -96.5t74.5 -51.5l113 -28q125 -30 186.5 -97.5t61.5 -199.5q0 -27 -0.5 -50
t-1.5 -51q-2 -155 -78 -223t-258 -68zM331 1280l176 250h157l-184 -250h-149zM318 1612v157h157v-157h-157z" />
    <glyph glyph-name="uni1E66" unicode="&#x1e66;" horiz-adv-x="876" 
d="M440 -16q-184 0 -266 75t-89 248q-1 48 -1.5 93.5t1 91.5t5.5 95h200q-4 -83 -5 -161t5 -153q4 -60 39 -86.5t110 -26.5q71 0 105 26.5t39 86.5q4 41 5 84.5t-0.5 87.5t-4.5 85q-3 66 -32.5 104t-89.5 53l-139 32q-90 22 -142 65t-74.5 112t-25.5 169q-1 57 -0.5 114.5
t1.5 116.5q4 115 41.5 185t115 102.5t201.5 32.5q181 0 261.5 -74.5t87.5 -246.5q2 -55 1 -125.5t-4 -141.5h-203q3 83 4 156t-2 144q-2 60 -37 86.5t-109 26.5q-72 0 -106.5 -26.5t-39.5 -86.5q-5 -67 -5 -131t5 -132q3 -69 25 -107t76 -51l125 -27q101 -22 160 -66.5
t86.5 -114.5t30.5 -169q2 -36 2 -74.5t-1 -76t-2 -72.5q-7 -173 -89 -248t-265 -75zM377 1680l-161 250h137l85 -143l86 143h136l-161 -250h-122zM358 2012v157h157v-157h-157z" />
    <glyph glyph-name="uni1E67" unicode="&#x1e67;" horiz-adv-x="795" 
d="M392 -17q-170 0 -240.5 69.5t-77.5 226.5q-1 42 -0.5 80t2.5 69h190q-3 -59 -2.5 -100t1.5 -71q2 -63 32 -88t95 -25q73 0 105 25.5t33 88.5q1 28 1 42.5v28t-1 37.5q-1 56 -18.5 85.5t-67.5 43.5l-124 34q-85 24 -140 60.5t-81.5 93.5t-28.5 145q-1 28 -0.5 48t0.5 42
q2 160 76.5 229.5t256.5 69.5q168 0 239.5 -67.5t77.5 -225.5q1 -22 0.5 -72t-3.5 -77h-195q2 28 2 61v63t-1 49q-2 60 -28 84t-92 24q-68 0 -95 -24t-29 -84q0 -14 -1 -38t-1 -62q1 -61 17.5 -96.5t74.5 -51.5l113 -28q125 -30 186.5 -97.5t61.5 -199.5q0 -27 -0.5 -50
t-1.5 -51q-2 -155 -78 -223t-258 -68zM336 1280l-161 250h137l85 -143l86 143h136l-161 -250h-122zM318 1612v157h157v-157h-157z" />
    <glyph glyph-name="uni1E68" unicode="&#x1e68;" horiz-adv-x="876" 
d="M440 -16q-184 0 -266 75t-89 248q-1 48 -1.5 93.5t1 91.5t5.5 95h200q-4 -83 -5 -161t5 -153q4 -60 39 -86.5t110 -26.5q71 0 105 26.5t39 86.5q4 41 5 84.5t-0.5 87.5t-4.5 85q-3 66 -32.5 104t-89.5 53l-139 32q-90 22 -142 65t-74.5 112t-25.5 169q-1 57 -0.5 114.5
t1.5 116.5q4 115 41.5 185t115 102.5t201.5 32.5q181 0 261.5 -74.5t87.5 -246.5q2 -55 1 -125.5t-4 -141.5h-203q3 83 4 156t-2 144q-2 60 -37 86.5t-109 26.5q-72 0 -106.5 -26.5t-39.5 -86.5q-5 -67 -5 -131t5 -132q3 -69 25 -107t76 -51l125 -27q101 -22 160 -66.5
t86.5 -114.5t30.5 -169q2 -36 2 -74.5t-1 -76t-2 -72.5q-7 -173 -89 -248t-265 -75zM358 -237v157h157v-157h-157zM358 1680v157h157v-157h-157z" />
    <glyph glyph-name="uni1E69" unicode="&#x1e69;" horiz-adv-x="795" 
d="M392 -17q-170 0 -240.5 69.5t-77.5 226.5q-1 42 -0.5 80t2.5 69h190q-3 -59 -2.5 -100t1.5 -71q2 -63 32 -88t95 -25q73 0 105 25.5t33 88.5q1 28 1 42.5v28t-1 37.5q-1 56 -18.5 85.5t-67.5 43.5l-124 34q-85 24 -140 60.5t-81.5 93.5t-28.5 145q-1 28 -0.5 48t0.5 42
q2 160 76.5 229.5t256.5 69.5q168 0 239.5 -67.5t77.5 -225.5q1 -22 0.5 -72t-3.5 -77h-195q2 28 2 61v63t-1 49q-2 60 -28 84t-92 24q-68 0 -95 -24t-29 -84q0 -14 -1 -38t-1 -62q1 -61 17.5 -96.5t74.5 -51.5l113 -28q125 -30 186.5 -97.5t61.5 -199.5q0 -27 -0.5 -50
t-1.5 -51q-2 -155 -78 -223t-258 -68zM318 -237v157h157v-157h-157zM318 1280v157h157v-157h-157z" />
    <glyph glyph-name="uni1E6C" unicode="&#x1e6c;" horiz-adv-x="743" 
d="M267 0v1413h-254v187h717v-187h-253v-1413h-210zM293 -237v157h157v-157h-157z" />
    <glyph glyph-name="uni1E6D" unicode="&#x1e6d;" horiz-adv-x="611" 
d="M485 -17q-190 0 -269 68.5t-80 230.5l-1 757h-103v161h108v340h214v-340h213v-161h-219l2 -781q0 -68 28.5 -91.5t107.5 -23.5q29 0 52 1t52 3v-154q-24 -4 -49.5 -7t-55.5 -3zM301 -237v157h157v-157h-157z" />
    <glyph glyph-name="uni1E6E" unicode="&#x1e6e;" horiz-adv-x="743" 
d="M267 0v1413h-254v187h717v-187h-253v-1413h-210zM85 -82h573v-102h-573v102z" />
    <glyph glyph-name="uni1E6F" unicode="&#x1e6f;" horiz-adv-x="611" 
d="M485 -17q-190 0 -269 68.5t-80 230.5l-1 757h-103v161h108v340h214v-340h213v-161h-219l2 -781q0 -68 28.5 -91.5t107.5 -23.5q29 0 52 1t52 3v-154q-24 -4 -49.5 -7t-55.5 -3zM93 -82h573v-102h-573v102z" />
    <glyph glyph-name="uni1E78" unicode="&#x1e78;" horiz-adv-x="905" 
d="M453 -16q-188 0 -270 74.5t-85 245.5q-4 325 -4 648.5t4 647.5h211q-3 -216 -4 -437.5t0.5 -442.5t2.5 -438q0 -63 34.5 -92t110.5 -29t110 29t34 92q1 217 2.5 438t1 442.5t-3.5 437.5h210q5 -324 5 -647.5t-5 -648.5q-2 -171 -84 -245.5t-270 -74.5zM604 1869h91
q-3 -95 -40.5 -139t-105.5 -44q-42 0 -67.5 13t-43 30.5t-34.5 30.5t-44 13q-25 0 -38.5 -17t-19.5 -59h-91q8 103 47 146.5t106 43.5q44 0 68.5 -13t41 -30.5t33 -30.5t43.5 -13q30 0 41.5 18.5t12.5 50.5zM387 1965l176 250h157l-184 -250h-149z" />
    <glyph glyph-name="uni1E79" unicode="&#x1e79;" horiz-adv-x="911" 
d="M343 -17q-117 0 -182 67t-65 219v931h213l2 -949q0 -58 25.5 -84.5t82.5 -26.5q55 0 104 28.5t69 77.5v954h214v-1200h-214v118h-32q-40 -71 -93 -103t-124 -32zM600 1469h91q-3 -95 -40.5 -139t-105.5 -44q-42 0 -67.5 13t-43 30.5t-34.5 30.5t-44 13q-25 0 -38.5 -17
t-19.5 -59h-91q8 103 47 146.5t106 43.5q44 0 68.5 -13t41 -30.5t33 -30.5t43.5 -13q30 0 41.5 18.5t12.5 50.5zM383 1565l176 250h157l-184 -250h-149z" />
    <glyph glyph-name="uni1E7A" unicode="&#x1e7a;" horiz-adv-x="905" 
d="M453 -16q-188 0 -270 74.5t-85 245.5q-4 325 -4 648.5t4 647.5h211q-3 -216 -4 -437.5t0.5 -442.5t2.5 -438q0 -63 34.5 -92t110.5 -29t110 29t34 92q1 217 2.5 438t1 442.5t-3.5 437.5h210q5 -324 5 -647.5t-5 -648.5q-2 -171 -84 -245.5t-270 -74.5zM167 1793h573v-102
h-573v102zM504 1904v157h157v-157h-157zM245 1904v157h157v-157h-157z" />
    <glyph glyph-name="uni1E7B" unicode="&#x1e7b;" horiz-adv-x="911" 
d="M343 -17q-117 0 -182 67t-65 219v931h213l2 -949q0 -58 25.5 -84.5t82.5 -26.5q55 0 104 28.5t69 77.5v954h214v-1200h-214v118h-32q-40 -71 -93 -103t-124 -32zM163 1393h573v-102h-573v102zM500 1504v157h157v-157h-157zM241 1504v157h157v-157h-157z" />
    <glyph glyph-name="Wgrave" unicode="&#x1e80;" horiz-adv-x="1447" 
d="M184 0l-126 1600h212l42 -650l37 -762h82l26 762l98 640h336l98 -640l26 -762h82l38 762l43 650h210l-126 -1600h-397l-61 495l-40 914h-81l-42 -914l-60 -495h-397zM595 1680l-171 250h157l163 -250h-149z" />
    <glyph glyph-name="wgrave" unicode="&#x1e81;" horiz-adv-x="1313" 
d="M175 0l-144 1200h214l50 -604l31 -438h70l20 438l57 601h368l53 -601l23 -438h68l30 438l54 604h213l-147 -1200h-373l-38 464l-30 575h-75l-32 -575l-35 -464h-377zM565 1280l-171 250h157l163 -250h-149z" />
    <glyph glyph-name="Wacute" unicode="&#x1e82;" horiz-adv-x="1447" 
d="M184 0l-126 1600h212l42 -650l37 -762h82l26 762l98 640h336l98 -640l26 -762h82l38 762l43 650h210l-126 -1600h-397l-61 495l-40 914h-81l-42 -914l-60 -495h-397zM623 1680l176 250h157l-184 -250h-149z" />
    <glyph glyph-name="wacute" unicode="&#x1e83;" horiz-adv-x="1313" 
d="M175 0l-144 1200h214l50 -604l31 -438h70l20 438l57 601h368l53 -601l23 -438h68l30 438l54 604h213l-147 -1200h-373l-38 464l-30 575h-75l-32 -575l-35 -464h-377zM594 1280l176 250h157l-184 -250h-149z" />
    <glyph glyph-name="Wdieresis" unicode="&#x1e84;" horiz-adv-x="1447" 
d="M184 0l-126 1600h212l42 -650l37 -762h82l26 762l98 640h336l98 -640l26 -762h82l38 762l43 650h210l-126 -1600h-397l-61 495l-40 914h-81l-42 -914l-60 -495h-397zM740 1710v157h157v-157h-157zM481 1710v157h157v-157h-157z" />
    <glyph glyph-name="wdieresis" unicode="&#x1e85;" horiz-adv-x="1313" 
d="M175 0l-144 1200h214l50 -604l31 -438h70l20 438l57 601h368l53 -601l23 -438h68l30 438l54 604h213l-147 -1200h-373l-38 464l-30 575h-75l-32 -575l-35 -464h-377zM711 1310v157h157v-157h-157zM452 1310v157h157v-157h-157z" />
    <glyph glyph-name="uni1E8E" unicode="&#x1e8e;" horiz-adv-x="800" 
d="M294 0v529h-41l-222 1071h214l77 -428l49 -462h58l48 462l77 428h216l-225 -1071h-40v-529h-211zM321 1680v157h157v-157h-157z" />
    <glyph glyph-name="uni1E8F" unicode="&#x1e8f;" horiz-adv-x="803" 
d="M205 -414q-31 0 -73 4t-75 9v159q27 -3 70.5 -5t75.5 -2q83 0 114 25.5t41 89.5l22 134h-140l-195 1200h218l61 -565l55 -477h65l51 477l57 565h219l-199 -1319q-16 -98 -52 -163.5t-110.5 -98.5t-204.5 -33zM326 1280v157h157v-157h-157z" />
    <glyph glyph-name="uni1E92" unicode="&#x1e92;" horiz-adv-x="723" 
d="M34 0v175l430 1238h-407v187h632v-180l-441 -1233h407v-187h-621zM261 -237v157h157v-157h-157z" />
    <glyph glyph-name="uni1E93" unicode="&#x1e93;" horiz-adv-x="713" 
d="M43 0v135l406 907l-397 -2v158l626 2v-139l-412 -903h402v-158h-625zM282 -237v157h157v-157h-157z" />
    <glyph glyph-name="uni1E97" unicode="&#x1e97;" horiz-adv-x="611" 
d="M485 -17q-190 0 -269 68.5t-80 230.5l-1 757h-103v161h108v340h214v-340h213v-161h-219l2 -781q0 -68 28.5 -91.5t107.5 -23.5q29 0 52 1t52 3v-154q-24 -4 -49.5 -7t-55.5 -3zM333 1672v157h157v-157h-157zM74 1672v157h157v-157h-157z" />
    <glyph glyph-name="uni1E9E" unicode="&#x1e9e;" horiz-adv-x="903" 
d="M81 0v1288q0 168 80.5 240.5t257.5 72.5h381v-160l-198 -561q113 -30 163.5 -108t55.5 -210q1 -42 1.5 -77.5t-0.5 -72t-2 -81.5q-7 -174 -85 -252.5t-259 -78.5h-109v175h109q70 0 99 31t34 91q5 72 5 133t-5 132q-4 64 -27.5 101.5t-83.5 37.5h-101l-2 169l181 556
h-157q-66 -1 -97 -25.5t-31 -78.5v-1322h-210z" />
    <glyph glyph-name="uni1EA0" unicode="&#x1ea0;" horiz-adv-x="865" 
d="M46 0l191 1600h392l190 -1600h-216l-38 409h-265l-38 -409h-216zM319 596h227l-33 345l-37 472h-87l-37 -473zM353 -237v157h157v-157h-157z" />
    <glyph glyph-name="uni1EA1" unicode="&#x1ea1;" horiz-adv-x="858" 
d="M325 -14q-121 0 -184 60.5t-73 194.5q-1 23 -2 48.5t0 46.5q6 76 32 133t83 102.5t155 86.5q51 22 104.5 41t111.5 36v205q0 61 -28 89t-95 28q-58 0 -90 -24t-35 -82q-2 -22 -2.5 -60.5t0.5 -74t2 -50.5h-205q-1 31 -2 75t0 85q4 101 37.5 165t106 95t195.5 31
q125 0 195 -33t99 -104t29 -185l-1 -895h-210v118h-31q-30 -65 -70 -98.5t-122 -33.5zM399 140q52 0 90.5 27t59.5 75l2 339q-40 -12 -81.5 -27.5t-85.5 -40.5q-64 -33 -83.5 -77.5t-22.5 -99.5v-42.5t1 -37.5q5 -55 36 -85.5t84 -30.5zM321 -237v157h157v-157h-157z" />
    <glyph glyph-name="uni1EA2" unicode="&#x1ea2;" horiz-adv-x="865" 
d="M46 0l191 1600h392l190 -1600h-216l-38 409h-265l-38 -409h-216zM319 596h227l-33 345l-37 472h-87l-37 -473zM434 1670l11 71q8 50 -9.5 67t-75.5 17h-71v103h71q115 0 165 -43t33 -144l-11 -71h-113z" />
    <glyph glyph-name="uni1EA3" unicode="&#x1ea3;" horiz-adv-x="858" 
d="M325 -14q-121 0 -184 60.5t-73 194.5q-1 23 -2 48.5t0 46.5q6 76 32 133t83 102.5t155 86.5q51 22 104.5 41t111.5 36v205q0 61 -28 89t-95 28q-58 0 -90 -24t-35 -82q-2 -22 -2.5 -60.5t0.5 -74t2 -50.5h-205q-1 31 -2 75t0 85q4 101 37.5 165t106 95t195.5 31
q125 0 195 -33t99 -104t29 -185l-1 -895h-210v118h-31q-30 -65 -70 -98.5t-122 -33.5zM399 140q52 0 90.5 27t59.5 75l2 339q-40 -12 -81.5 -27.5t-85.5 -40.5q-64 -33 -83.5 -77.5t-22.5 -99.5v-42.5t1 -37.5q5 -55 36 -85.5t84 -30.5zM404 1283l11 71q8 50 -9.5 67
t-75.5 17h-71v103h71q115 0 165 -43t33 -144l-11 -71h-113z" />
    <glyph glyph-name="uni1EA4" unicode="&#x1ea4;" horiz-adv-x="865" 
d="M46 0l191 1600h392l190 -1600h-216l-38 409h-265l-38 -409h-216zM319 596h227l-33 345l-37 472h-87l-37 -473zM202 1681l161 251h134l161 -251h-147l-81 136l-81 -136h-147zM638 1880l176 250h157l-184 -250h-149z" />
    <glyph glyph-name="uni1EA5" unicode="&#x1ea5;" horiz-adv-x="858" 
d="M325 -14q-121 0 -184 60.5t-73 194.5q-1 23 -2 48.5t0 46.5q6 76 32 133t83 102.5t155 86.5q51 22 104.5 41t111.5 36v205q0 61 -28 89t-95 28q-58 0 -90 -24t-35 -82q-2 -22 -2.5 -60.5t0.5 -74t2 -50.5h-205q-1 31 -2 75t0 85q4 101 37.5 165t106 95t195.5 31
q125 0 195 -33t99 -104t29 -185l-1 -895h-210v118h-31q-30 -65 -70 -98.5t-122 -33.5zM399 140q52 0 90.5 27t59.5 75l2 339q-40 -12 -81.5 -27.5t-85.5 -40.5q-64 -33 -83.5 -77.5t-22.5 -99.5v-42.5t1 -37.5q5 -55 36 -85.5t84 -30.5zM192 1281l161 251h134l161 -251h-147
l-81 136l-81 -136h-147zM627 1480l176 250h157l-184 -250h-149z" />
    <glyph glyph-name="uni1EA6" unicode="&#x1ea6;" horiz-adv-x="865" 
d="M46 0l191 1600h392l190 -1600h-216l-38 409h-265l-38 -409h-216zM319 596h227l-33 345l-37 472h-87l-37 -473zM202 1681l161 251h134l161 -251h-147l-81 136l-81 -136h-147zM659 1880l-171 250h157l163 -250h-149z" />
    <glyph glyph-name="uni1EA7" unicode="&#x1ea7;" horiz-adv-x="858" 
d="M325 -14q-121 0 -184 60.5t-73 194.5q-1 23 -2 48.5t0 46.5q6 76 32 133t83 102.5t155 86.5q51 22 104.5 41t111.5 36v205q0 61 -28 89t-95 28q-58 0 -90 -24t-35 -82q-2 -22 -2.5 -60.5t0.5 -74t2 -50.5h-205q-1 31 -2 75t0 85q4 101 37.5 165t106 95t195.5 31
q125 0 195 -33t99 -104t29 -185l-1 -895h-210v118h-31q-30 -65 -70 -98.5t-122 -33.5zM399 140q52 0 90.5 27t59.5 75l2 339q-40 -12 -81.5 -27.5t-85.5 -40.5q-64 -33 -83.5 -77.5t-22.5 -99.5v-42.5t1 -37.5q5 -55 36 -85.5t84 -30.5zM192 1281l161 251h134l161 -251h-147
l-81 136l-81 -136h-147zM648 1480l-171 250h157l163 -250h-149z" />
    <glyph glyph-name="uni1EA8" unicode="&#x1ea8;" horiz-adv-x="865" 
d="M46 0l191 1600h392l190 -1600h-216l-38 409h-265l-38 -409h-216zM319 596h227l-33 345l-37 472h-87l-37 -473zM202 1681l161 251h134l161 -251h-147l-81 136l-81 -136h-147zM610 1887l11 71q8 50 -9.5 67t-75.5 17h-71v103h71q115 0 165 -43t33 -144l-11 -71h-113z" />
    <glyph glyph-name="uni1EA9" unicode="&#x1ea9;" horiz-adv-x="858" 
d="M325 -14q-121 0 -184 60.5t-73 194.5q-1 23 -2 48.5t0 46.5q6 76 32 133t83 102.5t155 86.5q51 22 104.5 41t111.5 36v205q0 61 -28 89t-95 28q-58 0 -90 -24t-35 -82q-2 -22 -2.5 -60.5t0.5 -74t2 -50.5h-205q-1 31 -2 75t0 85q4 101 37.5 165t106 95t195.5 31
q125 0 195 -33t99 -104t29 -185l-1 -895h-210v118h-31q-30 -65 -70 -98.5t-122 -33.5zM399 140q52 0 90.5 27t59.5 75l2 339q-40 -12 -81.5 -27.5t-85.5 -40.5q-64 -33 -83.5 -77.5t-22.5 -99.5v-42.5t1 -37.5q5 -55 36 -85.5t84 -30.5zM192 1281l161 251h134l161 -251h-147
l-81 136l-81 -136h-147zM600 1487l11 71q8 50 -9.5 67t-75.5 17h-71v103h71q115 0 165 -43t33 -144l-11 -71h-113z" />
    <glyph glyph-name="uni1EAA" unicode="&#x1eaa;" horiz-adv-x="865" 
d="M46 0l191 1600h392l190 -1600h-216l-38 409h-265l-38 -409h-216zM319 596h227l-33 345l-37 472h-87l-37 -473zM202 1681l161 251h134l161 -251h-147l-81 136l-81 -136h-147zM583 2161h91q-3 -95 -40.5 -139t-105.5 -44q-42 0 -67.5 13t-43 30.5t-34.5 30.5t-44 13
q-25 0 -38.5 -17t-19.5 -59h-91q8 103 47 146.5t106 43.5q44 0 68.5 -13t41 -30.5t33 -30.5t43.5 -13q30 0 41.5 18.5t12.5 50.5z" />
    <glyph glyph-name="uni1EAB" unicode="&#x1eab;" horiz-adv-x="858" 
d="M325 -14q-121 0 -184 60.5t-73 194.5q-1 23 -2 48.5t0 46.5q6 76 32 133t83 102.5t155 86.5q51 22 104.5 41t111.5 36v205q0 61 -28 89t-95 28q-58 0 -90 -24t-35 -82q-2 -22 -2.5 -60.5t0.5 -74t2 -50.5h-205q-1 31 -2 75t0 85q4 101 37.5 165t106 95t195.5 31
q125 0 195 -33t99 -104t29 -185l-1 -895h-210v118h-31q-30 -65 -70 -98.5t-122 -33.5zM399 140q52 0 90.5 27t59.5 75l2 339q-40 -12 -81.5 -27.5t-85.5 -40.5q-64 -33 -83.5 -77.5t-22.5 -99.5v-42.5t1 -37.5q5 -55 36 -85.5t84 -30.5zM192 1281l161 251h134l161 -251h-147
l-81 136l-81 -136h-147zM572 1761h91q-3 -95 -40.5 -139t-105.5 -44q-42 0 -67.5 13t-43 30.5t-34.5 30.5t-44 13q-25 0 -38.5 -17t-19.5 -59h-91q8 103 47 146.5t106 43.5q44 0 68.5 -13t41 -30.5t33 -30.5t43.5 -13q30 0 41.5 18.5t12.5 50.5z" />
    <glyph glyph-name="uni1EAC" unicode="&#x1eac;" horiz-adv-x="865" 
d="M46 0l191 1600h392l190 -1600h-216l-38 409h-265l-38 -409h-216zM319 596h227l-33 345l-37 472h-87l-37 -473zM353 -237v157h157v-157h-157zM202 1681l161 251h134l161 -251h-147l-81 136l-81 -136h-147z" />
    <glyph glyph-name="uni1EAD" unicode="&#x1ead;" horiz-adv-x="858" 
d="M325 -14q-121 0 -184 60.5t-73 194.5q-1 23 -2 48.5t0 46.5q6 76 32 133t83 102.5t155 86.5q51 22 104.5 41t111.5 36v205q0 61 -28 89t-95 28q-58 0 -90 -24t-35 -82q-2 -22 -2.5 -60.5t0.5 -74t2 -50.5h-205q-1 31 -2 75t0 85q4 101 37.5 165t106 95t195.5 31
q125 0 195 -33t99 -104t29 -185l-1 -895h-210v118h-31q-30 -65 -70 -98.5t-122 -33.5zM399 140q52 0 90.5 27t59.5 75l2 339q-40 -12 -81.5 -27.5t-85.5 -40.5q-64 -33 -83.5 -77.5t-22.5 -99.5v-42.5t1 -37.5q5 -55 36 -85.5t84 -30.5zM321 -237v157h157v-157h-157z
M192 1281l161 251h134l161 -251h-147l-81 136l-81 -136h-147z" />
    <glyph glyph-name="uni1EAE" unicode="&#x1eae;" horiz-adv-x="865" 
d="M46 0l191 1600h392l190 -1600h-216l-38 409h-265l-38 -409h-216zM319 596h227l-33 345l-37 472h-87l-37 -473zM432 1670q-139 0 -204 63t-72 199h136q1 -74 33 -111t107 -37q74 0 107 36.5t34 111.5h135q-7 -136 -71.5 -199t-204.5 -63zM367 1994l176 250h157l-184 -250
h-149z" />
    <glyph glyph-name="uni1EAF" unicode="&#x1eaf;" horiz-adv-x="858" 
d="M325 -14q-121 0 -184 60.5t-73 194.5q-1 23 -2 48.5t0 46.5q6 76 32 133t83 102.5t155 86.5q51 22 104.5 41t111.5 36v205q0 61 -28 89t-95 28q-58 0 -90 -24t-35 -82q-2 -22 -2.5 -60.5t0.5 -74t2 -50.5h-205q-1 31 -2 75t0 85q4 101 37.5 165t106 95t195.5 31
q125 0 195 -33t99 -104t29 -185l-1 -895h-210v118h-31q-30 -65 -70 -98.5t-122 -33.5zM399 140q52 0 90.5 27t59.5 75l2 339q-40 -12 -81.5 -27.5t-85.5 -40.5q-64 -33 -83.5 -77.5t-22.5 -99.5v-42.5t1 -37.5q5 -55 36 -85.5t84 -30.5zM422 1270q-139 0 -204 63t-72 199
h136q1 -74 33 -111t107 -37q74 0 107 36.5t34 111.5h135q-7 -136 -71.5 -199t-204.5 -63zM356 1594l176 250h157l-184 -250h-149z" />
    <glyph glyph-name="uni1EB0" unicode="&#x1eb0;" horiz-adv-x="865" 
d="M46 0l191 1600h392l190 -1600h-216l-38 409h-265l-38 -409h-216zM319 596h227l-33 345l-37 472h-87l-37 -473zM432 1670q-139 0 -204 63t-72 199h136q1 -74 33 -111t107 -37q74 0 107 36.5t34 111.5h135q-7 -136 -71.5 -199t-204.5 -63zM339 1994l-171 250h157l163 -250
h-149z" />
    <glyph glyph-name="uni1EB1" unicode="&#x1eb1;" horiz-adv-x="858" 
d="M325 -14q-121 0 -184 60.5t-73 194.5q-1 23 -2 48.5t0 46.5q6 76 32 133t83 102.5t155 86.5q51 22 104.5 41t111.5 36v205q0 61 -28 89t-95 28q-58 0 -90 -24t-35 -82q-2 -22 -2.5 -60.5t0.5 -74t2 -50.5h-205q-1 31 -2 75t0 85q4 101 37.5 165t106 95t195.5 31
q125 0 195 -33t99 -104t29 -185l-1 -895h-210v118h-31q-30 -65 -70 -98.5t-122 -33.5zM399 140q52 0 90.5 27t59.5 75l2 339q-40 -12 -81.5 -27.5t-85.5 -40.5q-64 -33 -83.5 -77.5t-22.5 -99.5v-42.5t1 -37.5q5 -55 36 -85.5t84 -30.5zM422 1270q-139 0 -204 63t-72 199
h136q1 -74 33 -111t107 -37q74 0 107 36.5t34 111.5h135q-7 -136 -71.5 -199t-204.5 -63zM328 1594l-171 250h157l163 -250h-149z" />
    <glyph glyph-name="uni1EB2" unicode="&#x1eb2;" horiz-adv-x="865" 
d="M46 0l191 1600h392l190 -1600h-216l-38 409h-265l-38 -409h-216zM319 596h227l-33 345l-37 472h-87l-37 -473zM432 1670q-139 0 -204 63t-72 199h136q1 -74 33 -111t107 -37q74 0 107 36.5t34 111.5h135q-7 -136 -71.5 -199t-204.5 -63zM377 1945l11 71q8 50 -9.5 67
t-75.5 17h-71v103h71q115 0 165 -43t33 -144l-11 -71h-113z" />
    <glyph glyph-name="uni1EB3" unicode="&#x1eb3;" horiz-adv-x="858" 
d="M325 -14q-121 0 -184 60.5t-73 194.5q-1 23 -2 48.5t0 46.5q6 76 32 133t83 102.5t155 86.5q51 22 104.5 41t111.5 36v205q0 61 -28 89t-95 28q-58 0 -90 -24t-35 -82q-2 -22 -2.5 -60.5t0.5 -74t2 -50.5h-205q-1 31 -2 75t0 85q4 101 37.5 165t106 95t195.5 31
q125 0 195 -33t99 -104t29 -185l-1 -895h-210v118h-31q-30 -65 -70 -98.5t-122 -33.5zM399 140q52 0 90.5 27t59.5 75l2 339q-40 -12 -81.5 -27.5t-85.5 -40.5q-64 -33 -83.5 -77.5t-22.5 -99.5v-42.5t1 -37.5q5 -55 36 -85.5t84 -30.5zM422 1270q-139 0 -204 63t-72 199
h136q1 -74 33 -111t107 -37q74 0 107 36.5t34 111.5h135q-7 -136 -71.5 -199t-204.5 -63zM366 1545l11 71q8 50 -9.5 67t-75.5 17h-71v103h71q115 0 165 -43t33 -144l-11 -71h-113z" />
    <glyph glyph-name="uni1EB4" unicode="&#x1eb4;" horiz-adv-x="865" 
d="M46 0l191 1600h392l190 -1600h-216l-38 409h-265l-38 -409h-216zM319 596h227l-33 345l-37 472h-87l-37 -473zM432 1670q-139 0 -204 63t-72 199h136q1 -74 33 -111t107 -37q74 0 107 36.5t34 111.5h135q-7 -136 -71.5 -199t-204.5 -63zM584 2185h91q-3 -95 -40.5 -139
t-105.5 -44q-42 0 -67.5 13t-43 30.5t-34.5 30.5t-44 13q-25 0 -38.5 -17t-19.5 -59h-91q8 103 47 146.5t106 43.5q44 0 68.5 -13t41 -30.5t33 -30.5t43.5 -13q30 0 41.5 18.5t12.5 50.5z" />
    <glyph glyph-name="uni1EB5" unicode="&#x1eb5;" horiz-adv-x="858" 
d="M325 -14q-121 0 -184 60.5t-73 194.5q-1 23 -2 48.5t0 46.5q6 76 32 133t83 102.5t155 86.5q51 22 104.5 41t111.5 36v205q0 61 -28 89t-95 28q-58 0 -90 -24t-35 -82q-2 -22 -2.5 -60.5t0.5 -74t2 -50.5h-205q-1 31 -2 75t0 85q4 101 37.5 165t106 95t195.5 31
q125 0 195 -33t99 -104t29 -185l-1 -895h-210v118h-31q-30 -65 -70 -98.5t-122 -33.5zM399 140q52 0 90.5 27t59.5 75l2 339q-40 -12 -81.5 -27.5t-85.5 -40.5q-64 -33 -83.5 -77.5t-22.5 -99.5v-42.5t1 -37.5q5 -55 36 -85.5t84 -30.5zM422 1270q-139 0 -204 63t-72 199
h136q1 -74 33 -111t107 -37q74 0 107 36.5t34 111.5h135q-7 -136 -71.5 -199t-204.5 -63zM573 1785h91q-3 -95 -40.5 -139t-105.5 -44q-42 0 -67.5 13t-43 30.5t-34.5 30.5t-44 13q-25 0 -38.5 -17t-19.5 -59h-91q8 103 47 146.5t106 43.5q44 0 68.5 -13t41 -30.5t33 -30.5
t43.5 -13q30 0 41.5 18.5t12.5 50.5z" />
    <glyph glyph-name="uni1EB6" unicode="&#x1eb6;" horiz-adv-x="865" 
d="M46 0l191 1600h392l190 -1600h-216l-38 409h-265l-38 -409h-216zM319 596h227l-33 345l-37 472h-87l-37 -473zM353 -237v157h157v-157h-157zM432 1670q-139 0 -204 63t-72 199h136q1 -74 33 -111t107 -37q74 0 107 36.5t34 111.5h135q-7 -136 -71.5 -199t-204.5 -63z" />
    <glyph glyph-name="uni1EB7" unicode="&#x1eb7;" horiz-adv-x="858" 
d="M325 -14q-121 0 -184 60.5t-73 194.5q-1 23 -2 48.5t0 46.5q6 76 32 133t83 102.5t155 86.5q51 22 104.5 41t111.5 36v205q0 61 -28 89t-95 28q-58 0 -90 -24t-35 -82q-2 -22 -2.5 -60.5t0.5 -74t2 -50.5h-205q-1 31 -2 75t0 85q4 101 37.5 165t106 95t195.5 31
q125 0 195 -33t99 -104t29 -185l-1 -895h-210v118h-31q-30 -65 -70 -98.5t-122 -33.5zM399 140q52 0 90.5 27t59.5 75l2 339q-40 -12 -81.5 -27.5t-85.5 -40.5q-64 -33 -83.5 -77.5t-22.5 -99.5v-42.5t1 -37.5q5 -55 36 -85.5t84 -30.5zM321 -237v157h157v-157h-157z
M422 1270q-139 0 -204 63t-72 199h136q1 -74 33 -111t107 -37q74 0 107 36.5t34 111.5h135q-7 -136 -71.5 -199t-204.5 -63z" />
    <glyph glyph-name="uni1EB8" unicode="&#x1eb8;" horiz-adv-x="769" 
d="M112 0v1600h602v-187h-391v-511h371v-187h-371v-528h391v-187h-602zM355 -237v157h157v-157h-157z" />
    <glyph glyph-name="uni1EB9" unicode="&#x1eb9;" horiz-adv-x="839" 
d="M432 -17q-181 0 -259 70t-86 227q-3 62 -4 146t-1 174t1 173t4 145q9 161 89.5 230t252.5 69q175 0 252 -69t84 -222q1 -23 1.5 -84t0 -136.5t-3.5 -143.5h-468q0 -74 1.5 -149.5t3.5 -155.5q2 -62 32.5 -87.5t97.5 -25.5t94 25.5t30 87.5q2 31 2 77t-3 103h210
q2 -26 3 -75.5t-1 -81.5q-8 -159 -84 -228t-249 -69zM296 715h260q1 48 1 96t-0.5 84.5t-2.5 51.5q-3 61 -32 85.5t-93 24.5q-70 0 -98.5 -26.5t-30.5 -83.5q-1 -58 -2.5 -116.5t-1.5 -115.5zM346 -237v157h157v-157h-157z" />
    <glyph glyph-name="uni1EBA" unicode="&#x1eba;" horiz-adv-x="769" 
d="M112 0v1600h602v-187h-391v-511h371v-187h-371v-528h391v-187h-602zM394 1668l11 71q8 50 -9.5 67t-75.5 17h-71v103h71q115 0 165 -43t33 -144l-11 -71h-113z" />
    <glyph glyph-name="uni1EBB" unicode="&#x1ebb;" horiz-adv-x="839" 
d="M432 -17q-181 0 -259 70t-86 227q-3 62 -4 146t-1 174t1 173t4 145q9 161 89.5 230t252.5 69q175 0 252 -69t84 -222q1 -23 1.5 -84t0 -136.5t-3.5 -143.5h-468q0 -74 1.5 -149.5t3.5 -155.5q2 -62 32.5 -87.5t97.5 -25.5t94 25.5t30 87.5q2 31 2 77t-3 103h210
q2 -26 3 -75.5t-1 -81.5q-8 -159 -84 -228t-249 -69zM296 715h260q1 48 1 96t-0.5 84.5t-2.5 51.5q-3 61 -32 85.5t-93 24.5q-70 0 -98.5 -26.5t-30.5 -83.5q-1 -58 -2.5 -116.5t-1.5 -115.5zM431 1278l11 71q8 50 -9.5 67t-75.5 17h-71v103h71q115 0 165 -43t33 -144
l-11 -71h-113z" />
    <glyph glyph-name="uni1EBC" unicode="&#x1ebc;" horiz-adv-x="769" 
d="M112 0v1600h602v-187h-391v-511h371v-187h-371v-528h391v-187h-602zM562 1868h91q-3 -95 -40.5 -139t-105.5 -44q-42 0 -67.5 13t-43 30.5t-34.5 30.5t-44 13q-25 0 -38.5 -17t-19.5 -59h-91q8 103 47 146.5t106 43.5q44 0 68.5 -13t41 -30.5t33 -30.5t43.5 -13
q30 0 41.5 18.5t12.5 50.5z" />
    </font>
</defs>
</svg>
