<?xml version="1.0" standalone="no"?>
<!DOCTYPE svg PUBLIC "-//W3C//DTD SVG 1.1//EN" "http://www.w3.org/Graphics/SVG/1.1/DTD/svg11.dtd" >
<svg xmlns="http://www.w3.org/2000/svg" xmlns:xlink="http://www.w3.org/1999/xlink" version="1.1">
<metadata>
Created by FontForge 20201107 at Thu Feb  6 15:02:31 2025
 By 
Copyright 2019 The Big Shoulders Project Authors (https://github.com/xotypeco/big_shoulders)
</metadata>
<defs>
<font id="BigShoulders36pt-Regular" horiz-adv-x="764" >
  <font-face 
    font-family="Big Shoulders 36pt"
    font-weight="400"
    font-stretch="normal"
    units-per-em="2000"
    panose-1="0 0 0 0 0 0 0 0 0 0"
    ascent="1600"
    descent="-400"
    x-height="1200"
    cap-height="1600"
    bbox="-407 -416 2172 2291"
    underline-thickness="40"
    underline-position="-100"
    unicode-range="U+0020-FB02"
  />
<missing-glyph horiz-adv-x="1222" 
d="M111 0v1600h1000v-1600h-1000zM361 143h501l-251 485zM270 313l248 479l-248 479v-958zM952 314v956l-247 -479zM611 955l261 502h-521z" />
    <glyph glyph-name="fi" unicode="fi" horiz-adv-x="902" 
d="M137 0v1076h-104v124h104v156q-1 139 66.5 200t216.5 61q29 0 66 -4t67 -9v-120q-29 2 -61.5 3.5t-69.5 1.5q-65 0 -95.5 -26.5t-29.5 -95.5v-167h220v-124h-220v-1076h-160zM605 1435v165h217v-165h-217zM634 0v1200h159v-1200h-159z" />
    <glyph glyph-name="fl" unicode="fl" horiz-adv-x="908" 
d="M137 0v1076h-104v124h104v156q-1 139 66.5 200t216.5 61q29 0 66 -4t67 -9v-120q-29 2 -61.5 3.5t-69.5 1.5q-65 0 -95.5 -26.5t-29.5 -95.5v-167h220v-124h-220v-1076h-160zM641 0v1600h159v-1600h-159z" />
    <glyph glyph-name="f_f" unicode="ff" horiz-adv-x="1040" 
d="M137 0l-2 1076h-102v124h102v156q0 139 68 200t217 61q29 0 66 -4t67 -9v-120q-29 2 -61.5 3.5t-69.5 1.5q-65 0 -96 -26.5t-31 -95.5v-167h348v156q0 139 68 199.5t217 60.5q29 0 66 -3.5t67 -8.5v-120q-29 2 -61.5 3.5t-69.5 1.5q-65 0 -96 -26.5t-31 -95.5v-167h213
v-124h-213l2 -1077h-160l-2 1077h-348l2 -1076h-160z" />
    <glyph glyph-name="f_f_i" unicode="ffi" horiz-adv-x="1410" 
d="M137 0l-2 1076h-102v124h102v156q0 139 68 200t217 61q29 0 66 -4t67 -9v-120q-29 2 -61.5 3.5t-69.5 1.5q-65 0 -96 -26.5t-31 -95.5v-167h348v156q0 139 68 199.5t217 60.5q29 0 66 -3.5t67 -8.5v-120q-29 2 -61.5 3.5t-69.5 1.5q-65 0 -96 -26.5t-31 -95.5v-167h213
v-124h-213l2 -1077h-160l-2 1077h-348l2 -1076h-160zM1113 1435v165h217v-165h-217zM1142 0v1200h159v-1200h-159z" />
    <glyph glyph-name="f_f_l" unicode="ffl" horiz-adv-x="1416" 
d="M137 0l-2 1076h-102v124h102v156q0 139 68 200t217 61q29 0 66 -4t67 -9v-120q-29 2 -61.5 3.5t-69.5 1.5q-65 0 -96 -26.5t-31 -95.5v-167h348v156q0 139 68 199.5t217 60.5q29 0 66 -3.5t67 -8.5v-120q-29 2 -61.5 3.5t-69.5 1.5q-65 0 -96 -26.5t-31 -95.5v-167h213
v-124h-213l2 -1077h-160l-2 1077h-348l2 -1076h-160zM1149 0v1600h159v-1600h-159z" />
    <glyph glyph-name=".notdef" horiz-adv-x="1222" 
d="M111 0v1600h1000v-1600h-1000zM361 143h501l-251 485zM270 313l248 479l-248 479v-958zM952 314v956l-247 -479zM611 955l261 502h-521z" />
    <glyph glyph-name=".null" horiz-adv-x="0" 
 />
    <glyph glyph-name="nonmarkingreturn" horiz-adv-x="666" 
 />
    <glyph glyph-name="space" unicode=" " horiz-adv-x="416" 
 />
    <glyph glyph-name="exclam" unicode="!" horiz-adv-x="449" 
d="M152 326l-24 711v563h165v-563l-22 -711h-119zM78 0v195h266v-195h-266z" />
    <glyph glyph-name="quotedbl" unicode="&#x22;" horiz-adv-x="606" 
d="M124 1165l-32 227v208h145v-208l-32 -227h-81zM400 1165l-31 227v208h145v-208l-32 -227h-82z" />
    <glyph glyph-name="numbersign" unicode="#" horiz-adv-x="1197" 
d="M117 0l119 435h-176l35 133h172l123 421h-178l35 133h174l135 478h158l-134 -478h214l135 478h157l-135 -478h185l-32 -133h-185l-122 -421h182l-34 -133h-179l-120 -435h-157l120 435h-215l-120 -435h-157zM426 568h214l122 421h-215z" />
    <glyph glyph-name="dollar" unicode="$" horiz-adv-x="770" 
d="M313 -187v177q-116 15 -168.5 80t-57.5 197q-1 57 -1.5 106t0.5 99t4 108h152q-4 -87 -4.5 -170.5t4.5 -165.5q3 -66 36 -94.5t109 -28.5q72 0 103.5 28.5t35.5 94.5q4 48 4.5 94.5t-1 94t-3.5 97.5q-2 76 -27.5 119.5t-87.5 59.5l-114 28q-82 20 -127.5 59.5
t-64.5 104.5t-22 162q-1 63 0 133.5t2 139.5q4 131 56 196t172 78v191h142v-191q114 -13 166.5 -78.5t57.5 -196.5q2 -59 1 -135t-3 -158h-154q3 86 4 163t-2 152q-3 66 -35.5 94.5t-104.5 28.5q-73 0 -105 -28.5t-36 -94.5q-5 -75 -4.5 -147t4.5 -147q2 -84 23 -125.5
t77 -55.5l106 -25q89 -20 139.5 -60.5t72 -106t24.5 -160.5q2 -48 2 -91.5t-0.5 -85.5t-2.5 -86q-5 -133 -58.5 -198.5t-171.5 -78.5v-177h-142z" />
    <glyph glyph-name="percent" unicode="%" horiz-adv-x="1080" 
d="M133 0l701 1600h115l-703 -1600h-113zM784 -9q-85 0 -133 43t-51 124q-1 76 -1.5 140.5t0 128t1.5 137.5q3 80 51 122.5t133 42.5q86 0 133.5 -43.5t51.5 -121.5q1 -45 1.5 -99t0.5 -109.5t-0.5 -106.5t-1.5 -90q-4 -80 -51.5 -124t-133.5 -44zM784 87q32 0 47.5 15.5
t17.5 39.5q3 41 4 97t1 117.5t-1 119.5t-4 103q-1 24 -17.5 39t-47.5 15q-30 0 -46.5 -15t-18.5 -38q-3 -63 -4 -145t0 -161t4 -134q2 -20 18.5 -36.5t46.5 -16.5zM276 869q-84 0 -132 43t-51 124q-2 76 -2.5 140.5t0.5 128t2 137.5q2 80 50 122.5t133 42.5q87 0 134 -43.5
t51 -121.5q2 -45 2.5 -99t0.5 -109.5t-1 -106.5t-2 -90q-4 -80 -51.5 -124t-133.5 -44zM276 965q32 0 48 15.5t18 39.5q2 41 3.5 97t1.5 117.5t-1.5 119.5t-3.5 103q-1 24 -17.5 39t-48.5 15q-30 0 -46 -15t-18 -38q-3 -63 -4 -145t0 -161t4 -134q2 -20 18 -36.5t46 -16.5z
" />
    <glyph glyph-name="ampersand" unicode="&#x26;" horiz-adv-x="1008" 
d="M412 -15q-159 0 -228.5 68t-74.5 216q-2 80 -1.5 135t4 99.5t10.5 94.5q8 90 46.5 150.5t87.5 110.5q-52 122 -83.5 240.5t-35.5 222.5q-8 141 56.5 217t207.5 76q149 0 213.5 -72.5t54.5 -213.5q-6 -130 -58.5 -242t-137.5 -207q-7 -10 -17 -22t-21 -26
q38 -79 80 -157.5t86 -152.5q-1 67 -6 139.5t-15 145.5l133 2q8 -65 13.5 -149.5t7.5 -171.5t-1 -160q49 -69 92.5 -129t78.5 -105l-106 -95q-25 32 -52.5 66.5t-55.5 72.5q-20 -53 -55.5 -86.5t-90.5 -50t-132 -16.5zM415 118q66 0 98 18t45 56t20 100q-66 96 -129.5 201.5
t-118.5 213.5q-18 -24 -33 -53t-20 -66q-6 -37 -9.5 -79t-5 -99.5t1.5 -143.5q3 -73 38 -110.5t113 -37.5zM371 968q35 45 69.5 96t59 115.5t27.5 148.5q8 86 -19.5 129.5t-106.5 43.5q-65 0 -93 -41t-27 -117q1 -82 25 -177.5t65 -197.5z" />
    <glyph glyph-name="quotesingle" unicode="'" horiz-adv-x="334" 
d="M125 1165l-33 227v208h150v-208l-33 -227h-84z" />
    <glyph glyph-name="parenleft" unicode="(" horiz-adv-x="507" 
d="M326 -400q-84 129 -143.5 292t-91 345t-31.5 368q0 173 29.5 351t88 343.5t148.5 300.5h121q-110 -230 -166.5 -487.5t-56.5 -512.5q0 -169 25 -343.5t75.5 -342t122.5 -314.5h-121z" />
    <glyph glyph-name="parenright" unicode=")" horiz-adv-x="498" 
d="M172 -400h-121q73 147 123 314.5t75 342t25 343.5q0 255 -56.5 512.5t-166.5 487.5h121q90 -135 148.5 -300.5t88 -343.5t29.5 -351q0 -186 -31.5 -368t-91 -345t-143.5 -292z" />
    <glyph glyph-name="asterisk" unicode="*" horiz-adv-x="524" 
d="M49 1318l153 74l-153 74l39 68l143 -91l-8 165h78l-9 -164l144 90l38 -68l-152 -74l152 -74l-38 -68l-144 92l9 -166h-78l8 164l-143 -90z" />
    <glyph glyph-name="plus" unicode="+" horiz-adv-x="923" 
d="M398 414v289h-289v127h289v289h129v-289h287v-127h-287v-289h-129z" />
    <glyph glyph-name="comma" unicode="," horiz-adv-x="428" 
d="M129 -217l92 217h-141v197h267v-178l-115 -236h-103z" />
    <glyph glyph-name="hyphen" unicode="-" horiz-adv-x="698" 
d="M60 687v142h578v-142h-578z" />
    <glyph glyph-name="period" unicode="." horiz-adv-x="422" 
d="M78 0v195h266v-195h-266z" />
    <glyph glyph-name="slash" unicode="/" horiz-adv-x="702" 
d="M60 -400l422 2000h160l-422 -2000h-160z" />
    <glyph glyph-name="zero" unicode="0" horiz-adv-x="806" 
d="M403 -15q-141 0 -219 72.5t-81 209.5q-2 193 -3 374.5t0 354t3 337.5q3 137 80 209.5t220 72.5q141 0 219 -72.5t80 -209.5q3 -125 4.5 -259t1.5 -271t-1.5 -272.5t-4.5 -263.5q-3 -137 -81 -209.5t-218 -72.5zM403 119q135 0 139 121q5 203 6.5 397t0 375.5t-6.5 346.5
q-3 122 -139 122t-139 -122q-3 -163 -4.5 -307t-1.5 -277t1.5 -264t4.5 -270q3 -122 139 -122z" />
    <glyph glyph-name="one" unicode="1" horiz-adv-x="447" 
d="M171 0v1435h-85l-7 63l123 102h132v-1600h-163z" />
    <glyph glyph-name="two" unicode="2" horiz-adv-x="782" 
d="M100 0q-1 37 -1.5 60t-1 42t-0.5 42.5v60.5t1 97q3 133 32.5 223t81.5 150t121 103l104 68q69 47 87 104.5t22 117.5q4 70 4 143.5t-4 144.5q-4 65 -40 95t-110 30q-72 0 -105 -31.5t-35 -91.5q-2 -75 -2 -156.5t3 -163.5h-158q-1 58 -2.5 108t-1.5 95t1 90q6 152 77 218
t225 66q108 0 174 -28.5t98 -91t37 -164.5q1 -26 1.5 -62t0.5 -74.5t-0.5 -72.5t-1.5 -57q-4 -94 -30 -160.5t-72.5 -116t-113.5 -93.5l-111 -70q-42 -29 -68.5 -79.5t-38.5 -113.5t-12 -130v-160h441v-142h-602z" />
    <glyph glyph-name="three" unicode="3" horiz-adv-x="790" 
d="M395 -15q-161 0 -236.5 66.5t-80.5 219.5q-1 43 -1.5 85t0 88.5t1.5 105.5h161v-298q0 -65 37.5 -99t113.5 -34q73 0 107.5 32.5t34.5 100.5q3 100 3 193.5t-3 183.5q-3 73 -39 111.5t-127 37.5l-131 -1l-5 135l284 546h-434v142h619l-1 -133l-292 -549
q148 -6 214.5 -72.5t72.5 -217.5q1 -52 2 -103t1 -98t-0.5 -87t-2.5 -69q-8 -152 -77 -219t-221 -67z" />
    <glyph glyph-name="four" unicode="4" horiz-adv-x="807" 
d="M436 0v476h-385v130l303 994h233v-982h153v-142h-153v-476h-151zM207 618h229l19 422l18 418h-42l-107 -418z" />
    <glyph glyph-name="five" unicode="5" horiz-adv-x="804" 
d="M410 -15q-163 0 -235.5 67.5t-77.5 218.5q-3 79 -2.5 145t2.5 134h161q-3 -44 -4 -98t-0.5 -106t2.5 -91q5 -72 42 -104t107 -32q73 0 108 32.5t39 102.5q7 119 8 235t-5 228q-4 67 -37 98t-97 31q-46 0 -79.5 -18t-52.5 -47t-20 -65h-153v884h586v-142h-426v-566h34
q19 37 66.5 63t109.5 26q113 0 168 -67t60 -192q4 -72 4.5 -149t-1 -153t-5.5 -147q-7 -103 -39.5 -166.5t-96.5 -92.5t-166 -29z" />
    <glyph glyph-name="six" unicode="6" horiz-adv-x="800" 
d="M401 -16q-157 0 -226 67t-72 218q-1 143 -2.5 282t-1.5 272t1 260t3 247q6 146 80.5 215t215.5 69q147 0 223 -70.5t81 -209.5q1 -35 1 -77.5t-0.5 -86.5t-1.5 -83h-159q2 44 2.5 87t0 88t-2.5 94q-3 64 -37.5 94t-104.5 30q-68 0 -101.5 -29.5t-35.5 -93.5
q-3 -108 -4.5 -227.5t-2.5 -251.5h38q22 39 74 64t113 25q122 0 174.5 -59t55.5 -199q3 -85 3.5 -154.5t0 -136.5t-3.5 -149q-7 -152 -79 -218.5t-232 -66.5zM403 118q72 0 109.5 30t38.5 96q2 67 2.5 123.5t1 109.5t0 108.5t-2.5 119.5q-1 67 -36 97t-97 30q-67 0 -113 -32
t-49 -91q1 -108 2 -223t4 -239q2 -68 37.5 -98.5t102.5 -30.5z" />
    <glyph glyph-name="seven" unicode="7" horiz-adv-x="694" 
d="M119 0l371 1458h-451v142h612v-141l-366 -1459h-166z" />
    <glyph glyph-name="eight" unicode="8" horiz-adv-x="791" 
d="M395 -15q-154 0 -222.5 68t-76.5 218q-1 40 -2 87.5t0.5 105.5t3.5 131q6 87 38 138.5t98 78.5v30q-54 20 -86 63t-40 113q-5 62 -7 116.5t-1.5 102.5t1.5 93q8 153 75.5 219t218.5 66q150 0 219 -66.5t76 -219.5q2 -42 2 -94.5t-2 -107.5t-7 -107q-8 -71 -40.5 -114.5
t-85.5 -62.5v-32q60 -27 93.5 -77t41.5 -137q6 -108 5.5 -186.5t-3.5 -139.5q-7 -153 -75.5 -219.5t-223.5 -66.5zM395 119q72 0 105 31.5t34 101.5q1 66 1.5 123t0 114.5t-1.5 121.5q-2 72 -35 105.5t-104 33.5t-103.5 -33.5t-34.5 -105.5q-2 -94 -2.5 -179.5t2.5 -178.5
q2 -67 34 -100.5t104 -33.5zM395 902q70 0 104 33.5t35 105.5q1 79 1.5 154.5t-1.5 152.5q-2 69 -34 101t-105 32q-69 0 -102.5 -31.5t-35.5 -100.5q-1 -46 -1.5 -83.5t-0.5 -72.5t1 -72t1 -81q2 -73 36 -105.5t102 -32.5z" />
    <glyph glyph-name="nine" unicode="9" horiz-adv-x="799" 
d="M403 -16q-155 0 -226.5 66.5t-73.5 218.5v72.5t0.5 91t1.5 78.5h159q-1 -64 -1.5 -132.5t1.5 -133.5q2 -66 34.5 -96.5t102.5 -30.5q65 0 98 30t35 96q4 100 5.5 218.5t2.5 247.5h-32q-21 -38 -69.5 -64t-111.5 -26q-70 0 -124.5 27t-86 86t-33.5 154q0 50 -0.5 110.5
t-0.5 122t0.5 116.5t1.5 93q6 152 79 218.5t231 66.5q159 0 227 -67t71 -218q4 -192 5 -365t0 -343t-5 -352q-2 -152 -72.5 -218.5t-218.5 -66.5zM384 755q71 0 112 30t45 85q0 124 -2 246.5t-5 239.5q-1 65 -37 94.5t-102 29.5q-73 0 -110 -30t-38 -95q0 -35 -1 -97.5
t-1 -135v-137t1 -103.5q2 -66 38.5 -96.5t99.5 -30.5z" />
    <glyph glyph-name="colon" unicode=":" horiz-adv-x="426" 
d="M80 600v195h266v-195h-266zM80 0v195h266v-195h-266z" />
    <glyph glyph-name="semicolon" unicode=";" horiz-adv-x="430" 
d="M132 -217l91 217h-140v197h267v-178l-115 -236h-103zM80 604v195h266v-195h-266z" />
    <glyph glyph-name="less" unicode="&#x3c;" horiz-adv-x="969" 
d="M856 547l-743 118v213l743 123v-133l-389 -54l-230 -20v-43l231 -20l388 -51v-133z" />
    <glyph glyph-name="equal" unicode="=" horiz-adv-x="897" 
d="M104 835v127h689v-127h-689zM104 573v126h689v-126h-689z" />
    <glyph glyph-name="greater" unicode="&#x3e;" horiz-adv-x="950" 
d="M104 547v133l388 51l231 20v43l-230 20l-389 54v133l742 -123v-213z" />
    <glyph glyph-name="question" unicode="?" horiz-adv-x="728" 
d="M264 343l-5 244q-2 58 7 100.5t37 75t81 58.5l43 20q30 14 44.5 39t18.5 64.5t4 97.5v311q0 62 -32 93t-102 31q-64 0 -94.5 -30t-34.5 -95q-3 -70 -3.5 -149t2.5 -157h-163q-1 57 -2 103t-1 89t2 88q6 155 74 222.5t218 67.5q161 0 232.5 -67t71.5 -222v-144t1 -84
t0 -58q-2 -89 -13.5 -145t-31.5 -89.5t-49.5 -53t-67.5 -36.5l-42 -18q-42 -19 -50.5 -50.5t-10.5 -62.5l-7 -243h-127zM195 0v195h266v-195h-266z" />
    <glyph glyph-name="at" unicode="@" horiz-adv-x="1080" 
d="M541 -250q-148 0 -243 31.5t-140.5 100t-48.5 179.5q-2 142 -3.5 269.5t-2 251.5t1 256t4.5 285q3 114 48 185t139.5 104.5t244.5 33.5q146 0 240.5 -33t142 -104t49.5 -187q1 -126 1.5 -231t0.5 -198t-1 -180.5t-2 -179.5q-2 -73 -49 -109t-134 -36q-90 0 -128.5 25.5
t-48.5 64.5h-26q-20 -43 -46.5 -67t-73.5 -24q-64 0 -97 42t-39 139q-2 69 -3.5 151.5t0 166.5t3.5 154q6 99 39.5 141t99.5 42q45 0 70 -21.5t45 -66.5h20v77h128l1 -676q0 -32 14 -46.5t42 -14.5q27 0 39.5 14.5t13.5 47.5q2 81 3 167.5t1.5 183.5t0.5 206t-3 234
q-3 110 -74.5 158t-228.5 48q-152 0 -225.5 -46.5t-76.5 -159.5q-3 -151 -4.5 -285.5t-1.5 -261.5t1.5 -256t4.5 -270q3 -104 75.5 -149t226.5 -45q152 0 224 42.5t74 148.5q1 24 0.5 38t-1.5 40h127q2 -24 2.5 -39t-1.5 -38q-2 -110 -47 -176.5t-138 -96.5t-240 -30z
M516 282q28 0 52.5 20.5t36.5 53.5l-1 497q-11 36 -36 55t-52 19q-28 0 -41.5 -18t-15.5 -58q-3 -86 -4.5 -168.5t-0.5 -162.5t6 -160q2 -44 15 -61t41 -17z" />
    <glyph glyph-name="A" unicode="A" horiz-adv-x="754" 
d="M48 0l175 1600h309l174 -1600h-162l-41 448h-252l-40 -448h-163zM266 591h223l-32 344l-43 522h-73l-43 -522z" />
    <glyph glyph-name="B" unicode="B" horiz-adv-x="785" 
d="M113 0v1600h282q156 0 226 -63t72 -209q1 -94 1 -164t-2 -136q-5 -86 -36 -135.5t-100 -70.5v-34q71 -21 104 -71t36 -137q3 -84 2.5 -154t-2.5 -154q-5 -145 -74 -208.5t-223 -63.5h-286zM272 144h127q73 0 105 30.5t33 99.5q2 81 2 150.5t-2 149.5q-1 89 -32.5 124.5
t-106.5 35.5h-126v-590zM272 878h131q69 0 99 36.5t32 116.5q2 81 2 152t-2 152q-1 65 -33 93.5t-106 28.5h-123v-579z" />
    <glyph glyph-name="C" unicode="C" horiz-adv-x="795" 
d="M402 -15q-156 0 -226.5 65t-73.5 215q-2 141 -3 273t-1 261.5t1 261.5t3 273q2 144 73.5 211.5t225.5 67.5t226 -66t77 -213q2 -45 2 -96t-0.5 -101.5t-2.5 -95.5h-159l2 102t1 102t-2 102q-2 73 -35 102t-109 29q-74 0 -106 -29t-34 -102q-3 -150 -4.5 -284.5
t-1.5 -263.5t1.5 -263t4.5 -284q2 -73 34.5 -102.5t106.5 -29.5q80 0 114.5 29.5t36.5 102.5q2 48 2 98.5t-1 107t-2 121.5h158q4 -89 4.5 -163.5t-2.5 -150.5q-5 -150 -77.5 -215t-232.5 -65z" />
    <glyph glyph-name="D" unicode="D" horiz-adv-x="804" 
d="M113 0v1600h293q156 0 225 -64.5t71 -211.5q3 -187 4 -355.5t0 -336.5t-4 -354q-2 -149 -70 -213.5t-221 -64.5h-298zM272 143h139q70 0 100.5 28.5t31.5 91.5q3 144 4.5 276.5t1.5 261t-1.5 261t-4.5 276.5q-1 63 -32.5 91t-104.5 28h-134v-1314z" />
    <glyph glyph-name="E" unicode="E" horiz-adv-x="678" 
d="M113 0v1600h514v-143h-355v-580h335v-143h-335v-591h355v-143h-514z" />
    <glyph glyph-name="F" unicode="F" horiz-adv-x="668" 
d="M113 0v1600h520v-143h-361v-580h341v-143h-341v-734h-159z" />
    <glyph glyph-name="G" unicode="G" horiz-adv-x="794" 
d="M406 -14q-108 0 -173.5 28.5t-96 90.5t-33.5 162q-3 131 -4 264.5t-1 266.5t1 266t4 264q3 103 33.5 166t96 91.5t172.5 28.5q155 0 223.5 -64.5t75.5 -214.5q3 -75 3 -146t-3 -147h-159q3 81 3 155.5t-3 155.5q-3 69 -33.5 98t-106.5 29q-78 0 -109.5 -29t-33.5 -98
q-4 -146 -5.5 -282.5t-1.5 -270t1.5 -270t5.5 -281.5q2 -70 33.5 -99t110.5 -29q81 0 114 29t36 99q1 49 1.5 97t0 96t-1.5 97h-145v143h301q2 -103 1.5 -204t-2.5 -211q-6 -151 -75.5 -216t-229.5 -65z" />
    <glyph glyph-name="H" unicode="H" horiz-adv-x="819" 
d="M113 0v1600h159v-723h275v723h159v-1600h-159v734h-275v-734h-159z" />
    <glyph glyph-name="I" unicode="I" horiz-adv-x="385" 
d="M113 0v1600h159v-1600h-159z" />
    <glyph glyph-name="J" unicode="J" horiz-adv-x="729" 
d="M340 -14q-100 0 -161.5 28.5t-90.5 90.5t-32 162q-2 82 -2 156.5t2 156.5h152q-2 -53 -2.5 -109.5t0 -112.5t2.5 -109q2 -69 31.5 -98.5t100.5 -29.5q76 0 105.5 29.5t29.5 98.5v1351h159v-1333q0 -151 -67.5 -216t-226.5 -65z" />
    <glyph glyph-name="K" unicode="K" horiz-adv-x="766" 
d="M113 0v1600h167l-2 -378l-16 -438h44l134 470l114 346h172l-240 -711l264 -889h-164l-202 699l-109 -278v-421h-162z" />
    <glyph glyph-name="L" unicode="L" horiz-adv-x="641" 
d="M113 0v1600h159v-1457h353v-143h-512z" />
    <glyph glyph-name="M" unicode="M" horiz-adv-x="1227" 
d="M113 0v1600h317l98 -651l61 -800h49l60 800l99 651h316v-1600h-161v486l24 971h-68l-104 -997l-79 -454h-226l-76 454l-104 997h-67l23 -971v-486h-162z" />
    <glyph glyph-name="N" unicode="N" horiz-adv-x="941" 
d="M113 0v1600h297l91 -507l133 -950h69l-24 882l-10 575h159v-1600h-307l-100 570l-112 888h-71l22 -858l11 -600h-158z" />
    <glyph glyph-name="O" unicode="O" horiz-adv-x="807" 
d="M403 -14q-158 0 -228 66t-72 217q-3 146 -4 276.5t-1 257t1 256t4 271.5q2 153 72 218.5t228 65.5t227.5 -65.5t72.5 -218.5q3 -142 4.5 -272t1.5 -256t-1.5 -257t-4.5 -276q-3 -151 -72.5 -217t-227.5 -66zM403 121q77 0 108.5 30t32.5 105q4 149 6 282.5t2 262.5
t-2 262.5t-6 279.5q-1 76 -32.5 106.5t-108.5 30.5q-76 0 -108 -30.5t-34 -106.5q-4 -144 -5.5 -276.5t-1.5 -261.5t2 -264t5 -285q2 -75 34 -105t108 -30z" />
    <glyph glyph-name="P" unicode="P" horiz-adv-x="750" 
d="M113 0v1600h284q150 0 217.5 -62.5t72.5 -205.5q5 -130 5 -233.5t-5 -213.5q-5 -143 -73 -205.5t-218 -62.5h-124v-617h-159zM272 760h124q70 0 99.5 28t32.5 91q4 76 5 149t0 149.5t-5 160.5q-2 64 -32 91.5t-99 27.5h-125v-697z" />
    <glyph glyph-name="Q" unicode="Q" horiz-adv-x="807" 
d="M639 -218q-119 -9 -178.5 39t-73.5 165q-150 3 -216 69t-68 214q-3 146 -4 276.5t-1 257t1 256t4 271.5q2 153 72 218.5t228 65.5t227.5 -65.5t72.5 -218.5q3 -142 4.5 -272t1.5 -256t-1.5 -257t-4.5 -276q-2 -112 -41 -175t-123 -86q3 -57 27 -78.5t73 -16.5v-131z
M403 121q77 0 108.5 30t32.5 105q4 149 6 282.5t2 262.5t-2 262.5t-6 279.5q-1 76 -32.5 106.5t-108.5 30.5q-76 0 -108 -30.5t-34 -106.5q-4 -144 -5.5 -276.5t-1.5 -261.5t2 -264t5 -285q2 -75 34 -105t108 -30z" />
    <glyph glyph-name="R" unicode="R" horiz-adv-x="778" 
d="M113 0v1600h286q150 0 217.5 -62.5t72.5 -205.5q3 -90 4 -165.5t0 -146.5t-4 -146q-4 -97 -35.5 -156t-98.5 -85l164 -633h-168l-148 606h-131v-606h-159zM272 749h126q69 0 99 28t33 91q3 83 4 159t0.5 152t-4.5 159q-3 64 -33 91.5t-98 27.5h-127v-708z" />
    <glyph glyph-name="S" unicode="S" horiz-adv-x="770" 
d="M387 -14q-156 0 -225.5 65t-74.5 216q-1 57 -1.5 106t0.5 99t4 108h152q-4 -87 -4.5 -170.5t4.5 -165.5q3 -66 36 -94.5t109 -28.5q72 0 103.5 28.5t35.5 94.5q4 48 4.5 94.5t-1 94t-3.5 97.5q-2 76 -27.5 119.5t-87.5 59.5l-114 28q-82 20 -127.5 59.5t-64.5 104.5
t-22 162q-1 63 0 133.5t2 139.5q3 100 33.5 161t96 89t172.5 28q151 0 219 -64.5t73 -214.5q2 -59 1 -135t-3 -158h-154q3 86 4 163t-2 152q-3 66 -35.5 94.5t-104.5 28.5q-73 0 -105 -28.5t-36 -94.5q-5 -75 -4.5 -147t4.5 -147q2 -84 23 -125.5t77 -55.5l106 -25
q89 -20 139.5 -60.5t72 -106t24.5 -160.5q2 -48 2 -91.5t-0.5 -85.5t-2.5 -86q-6 -151 -74.5 -216t-223.5 -65z" />
    <glyph glyph-name="T" unicode="T" horiz-adv-x="643" 
d="M242 0v1457h-230v143h619v-143h-230v-1457h-159z" />
    <glyph glyph-name="U" unicode="U" horiz-adv-x="794" 
d="M397 -14q-158 0 -227 64.5t-71 212.5q-4 335 -4 668.5t4 668.5h159q-2 -223 -3.5 -450.5t-0.5 -454t2 -450.5q0 -65 33 -93.5t108 -28.5t107 28.5t32 93.5q1 224 2.5 450.5t1 454t-3.5 450.5h159q4 -335 4 -668.5t-4 -668.5q-2 -148 -71 -212.5t-227 -64.5z" />
    <glyph glyph-name="V" unicode="V" horiz-adv-x="768" 
d="M229 0l-177 1600h165l94 -885l37 -572h71l37 572l94 885h167l-180 -1600h-308z" />
    <glyph glyph-name="W" unicode="W" horiz-adv-x="1233" 
d="M178 0l-112 1600h160l36 -611l42 -846h64l40 846l71 601h275l71 -601l38 -846h65l44 846l37 611h159l-114 -1600h-306l-51 519l-47 932h-66l-49 -932l-51 -519h-306z" />
    <glyph glyph-name="X" unicode="X" horiz-adv-x="724" 
d="M41 0l190 817l-182 783h156l79 -377l52 -341h54l52 341l77 377h155l-176 -788l185 -812h-155l-84 396l-54 343h-54l-54 -343l-86 -396h-155z" />
    <glyph glyph-name="Y" unicode="Y" horiz-adv-x="714" 
d="M276 0v495l-28 1l-209 1104h162l74 -447l56 -459h51l55 459l74 447h164l-211 -1105l-28 -1v-494h-160z" />
    <glyph glyph-name="Z" unicode="Z" horiz-adv-x="639" 
d="M34 0v131l400 1326h-376v143h546v-135l-408 -1322h373v-143h-535z" />
    <glyph glyph-name="bracketleft" unicode="[" horiz-adv-x="556" 
d="M104 -400v2000h392v-86h-231v-1828h231v-86h-392z" />
    <glyph glyph-name="backslash" unicode="\" horiz-adv-x="665" 
d="M605 -400h-160l-422 2000h160z" />
    <glyph glyph-name="bracketright" unicode="]" horiz-adv-x="556" 
d="M456 -400h-393v86h231v1828h-231v86h393v-2000z" />
    <glyph glyph-name="asciicircum" unicode="^" horiz-adv-x="761" 
d="M104 923l217 457h119l217 -457h-116l-161 342l-160 -342h-116z" />
    <glyph glyph-name="underscore" unicode="_" horiz-adv-x="1335" 
d="M60 -120v40h1215v-40h-1215z" />
    <glyph glyph-name="grave" unicode="`" horiz-adv-x="485" 
d="M256 1280l-156 234h122l150 -234h-116z" />
    <glyph glyph-name="a" unicode="a" horiz-adv-x="761" 
d="M303 -13q-108 0 -163.5 58t-64.5 178l-2 50t0 49q5 72 27 129t70 104t133 89q46 23 96.5 45t101.5 41v238q0 65 -26.5 94t-93.5 29q-59 0 -91 -25t-35 -91q-1 -26 -1.5 -62.5t0 -72t1.5 -57.5h-155q-1 39 -2 86.5t0 87.5q3 90 32.5 147t91.5 84t164 27q105 0 164 -29
t83.5 -90.5t24.5 -160.5v-935h-159v111h-24q-25 -59 -61.5 -91.5t-110.5 -32.5zM352 107q53 0 90 29t57 83l2 381q-38 -12 -77.5 -30.5t-87.5 -49.5q-61 -39 -81 -87t-23 -111q0 -23 0.5 -44.5t1.5 -44.5q5 -59 35.5 -92.5t82.5 -33.5z" />
    <glyph glyph-name="b" unicode="b" horiz-adv-x="799" 
d="M488 -15q-77 0 -119 31.5t-75 94.5h-24v-111h-161v1600h161v-510h33q33 63 75 94t119 31q103 0 154.5 -58t55.5 -195q2 -81 3 -173.5t1 -189t-1 -188.5t-3 -172q-5 -135 -60 -194.5t-159 -59.5zM438 107q57 0 82 28.5t26 91.5q3 90 5 179.5t2 181t-1.5 187t-4.5 198.5
q-2 63 -26.5 91.5t-82.5 28.5q-60 0 -103.5 -28.5t-64.5 -87.5v-753q21 -61 66 -89t102 -28z" />
    <glyph glyph-name="c" unicode="c" horiz-adv-x="748" 
d="M510 783q2 32 2 66v66t-1 58q-1 66 -30.5 92t-98.5 26t-98 -26t-31 -93q-3 -97 -4 -188.5t-1 -181t1 -181t4 -190.5q2 -69 32.5 -95.5t98.5 -26.5t97 27t30 95q1 40 1 85t-2 104h157q3 -38 3.5 -87.5t-1.5 -86.5q-6 -139 -71.5 -200t-213.5 -61q-153 0 -219.5 61.5
t-72.5 199.5q-2 73 -3 163t-1 186.5t1 188t3 167.5q8 142 74.5 203t215.5 61q150 0 216.5 -60t70.5 -198q1 -40 1 -87.5t-3 -86.5h-157z" />
    <glyph glyph-name="d" unicode="d" horiz-adv-x="799" 
d="M305 -15q-105 0 -156.5 59.5t-56.5 194.5q-2 81 -3 173t-1 187.5t1 188t3 174.5q5 137 59.5 195t156.5 58q76 0 118.5 -31t75.5 -94h28v510h161v-1600h-161v111h-30q-32 -62 -75.5 -94t-119.5 -32zM362 107q57 0 101.5 28t66.5 89v753q-22 60 -66 88t-101 28t-82.5 -27.5
t-27.5 -90.5q-4 -127 -5.5 -258t0 -255.5t4.5 -231.5q3 -67 28.5 -95t81.5 -28z" />
    <glyph glyph-name="e" unicode="e" horiz-adv-x="749" 
d="M386 -15q-153 0 -220 61.5t-74 200.5q-2 73 -3 163t-1 185.5t1 187.5t3 168q8 142 76 203t217 61q147 0 212.5 -61t71.5 -197q1 -26 2 -88t0.5 -141.5t-4.5 -158.5h-419q0 -81 1.5 -165t3.5 -173q2 -68 32.5 -94.5t98.5 -26.5q67 0 95.5 26.5t31.5 94.5q2 32 1.5 82
t-2.5 107h157q3 -36 3.5 -87t-1.5 -86q-7 -140 -70.5 -201t-212.5 -61zM249 690h264q1 57 1 114.5t-1 102.5t-2 65q-4 65 -33.5 92t-92.5 27q-71 0 -100.5 -28.5t-31.5 -90.5q-1 -73 -2.5 -143t-1.5 -139z" />
    <glyph glyph-name="f" unicode="f" horiz-adv-x="532" 
d="M137 0v1076h-104v124h104v156q-1 139 66.5 200t216.5 61q29 0 66 -4t67 -9v-120q-29 2 -61.5 3.5t-69.5 1.5q-65 0 -95.5 -26.5t-29.5 -95.5v-167h220v-124h-220v-1076h-160z" />
    <glyph glyph-name="g" unicode="g" horiz-adv-x="797" 
d="M383 -337q-140 0 -220 41.5t-89 128.5q-1 12 -2 24.5t0 25.5q3 54 41 87.5t88 40.5v28q-52 15 -75.5 41t-27.5 64q-1 8 -1 18v20q4 41 34.5 69.5t74.5 34.5v29q-60 28 -88.5 84.5t-33.5 147.5q-1 47 -2 98t-1 103t1 103.5t2 98.5q6 95 36.5 153.5t92.5 85t163 26.5
q105 0 167.5 -28.5t91.5 -91.5h28q5 52 39 78.5t92 26.5v-125h-26q-45 0 -71.5 -33t-27.5 -104l-1 -74q1 -20 1 -58.5v-84.5t-0.5 -91.5t-2.5 -82.5q-5 -95 -35.5 -153t-92 -83.5t-163.5 -25.5q-79 1 -115 -17t-36 -59v-10q0 -25 16 -40t51.5 -22t95.5 -10q158 -4 236 -49
t88 -152q2 -14 2 -29t-2 -31q-6 -77 -48 -121.5t-113.5 -63t-166.5 -18.5zM385 -221q58 0 98.5 8.5t64 29.5t28.5 58q2 13 1.5 24t-2.5 23q-4 35 -25.5 53t-61.5 25.5t-102 9.5q-80 2 -126 -15t-52 -76q-1 -14 -1 -24t1 -21q4 -39 26 -59.5t60.5 -28t90.5 -7.5zM376 408
q72 0 101 28.5t33 94.5q2 39 3.5 97t1.5 121.5t-1.5 122t-3.5 98.5q-3 66 -32.5 93.5t-101.5 27.5q-71 0 -102 -28t-34 -97q-2 -40 -3 -98t-1 -120.5t1 -119.5t3 -96q4 -66 34 -95t102 -29z" />
    <glyph glyph-name="h" unicode="h" horiz-adv-x="812" 
d="M109 0v1600h161v-510h33q33 63 75 94t119 31q106 0 158.5 -59.5t52.5 -193.5l1 -962h-160l-1 974q0 64 -26 91.5t-84 27.5q-60 0 -103.5 -28.5t-64.5 -87.5v-977h-161z" />
    <glyph glyph-name="i" unicode="i" horiz-adv-x="377" 
d="M80 1435v165h217v-165h-217zM109 0v1200h159v-1200h-159z" />
    <glyph glyph-name="j" unicode="j" horiz-adv-x="379" 
d="M85 1435v165h216v-165h-216zM-18 -412q-28 0 -66.5 3.5t-67.5 7.5v122q26 -2 61.5 -3.5t70.5 -1.5q70 0 100 27t30 92v1365h160v-1352q0 -138 -68.5 -199t-219.5 -61z" />
    <glyph glyph-name="k" unicode="k" horiz-adv-x="709" 
d="M109 0v1600h151v-356l-16 -572h34l101 267l111 261h167l-225 -490l274 -710h-167l-205 542l-70 -135v-407h-155z" />
    <glyph glyph-name="l" unicode="l" horiz-adv-x="377" 
d="M109 0v1600h159v-1600h-159z" />
    <glyph glyph-name="m" unicode="m" horiz-adv-x="1224" 
d="M109 0v1200h159v-110h32q32 62 72.5 93.5t117.5 31.5q76 0 124 -31.5t68 -102.5h30q32 62 78.5 98t124.5 36q102 0 153.5 -58.5t52.5 -194.5v-962h-160v974q0 63 -26 91t-80 28q-58 0 -97 -31t-60 -87v-975h-160v974q0 63 -26 91t-81 28q-58 0 -100.5 -29t-62.5 -87v-977
h-159z" />
    <glyph glyph-name="n" unicode="n" horiz-adv-x="812" 
d="M109 0v1200h160v-110h33q33 61 77.5 93t117.5 32q106 0 158.5 -59.5t53.5 -193.5v-962h-159l-1 974q0 64 -26.5 91.5t-84.5 27.5q-54 0 -101.5 -30.5t-67.5 -85.5v-977h-160z" />
    <glyph glyph-name="o" unicode="o" horiz-adv-x="776" 
d="M389 -15q-105 0 -168.5 28.5t-93 90.5t-34.5 163q-2 67 -3.5 151t-1.5 174t1.5 178t3.5 163q6 102 35 164t92.5 90t168.5 28q106 0 169 -28.5t91.5 -90.5t33.5 -163q3 -71 4.5 -155t1.5 -173t-1.5 -175.5t-4.5 -162.5q-5 -100 -34 -162.5t-91.5 -91t-168.5 -28.5z
M389 109q73 0 103 29t32 95q3 96 4.5 186.5t2 179.5t-1.5 180t-5 189q-2 67 -32.5 95t-102.5 28q-73 0 -104 -29t-33 -96q-3 -89 -4.5 -178.5t-2 -180t1.5 -183.5t5 -190q3 -67 34 -96t103 -29z" />
    <glyph glyph-name="p" unicode="p" horiz-adv-x="799" 
d="M109 -400v1600h161v-110h28q33 63 74.5 94t119.5 31q105 0 157.5 -58.5t57.5 -194.5q2 -63 3 -157.5t1 -199t-1 -201.5t-3 -165q-5 -135 -61.5 -194.5t-160.5 -59.5q-65 0 -108 29.5t-79 96.5h-28v-511h-161zM429 107q57 0 86.5 28.5t30.5 91.5q4 114 6 211.5t1.5 186
t-2.5 174.5t-5 176q-1 63 -26 90.5t-82 27.5q-60 0 -103.5 -28.5t-64.5 -87.5v-753q22 -64 60 -90.5t99 -26.5z" />
    <glyph glyph-name="q" unicode="q" horiz-adv-x="799" 
d="M529 -400v511h-26q-35 -68 -78.5 -97t-108.5 -29q-105 0 -162 59.5t-62 194.5q-2 68 -3 161t-1 195.5t1 198t3 168.5q5 136 57.5 194.5t157.5 58.5q78 0 119.5 -31t73.5 -94h29v110h161v-1600h-161zM370 107q62 0 99.5 26.5t59.5 90.5v753q-21 60 -65.5 88t-102.5 28
q-55 0 -81 -27.5t-28 -93.5q-3 -124 -4.5 -251.5t-0.5 -252.5t5 -241q3 -63 32.5 -91.5t85.5 -28.5z" />
    <glyph glyph-name="r" unicode="r" horiz-adv-x="552" 
d="M109 0v1200h162v-119h32q18 69 58.5 96t109.5 27q19 0 37.5 -1t33.5 -2v-125h-69q-90 0 -137.5 -30t-64.5 -102v-944h-162z" />
    <glyph glyph-name="s" unicode="s" horiz-adv-x="706" 
d="M347 -15q-146 0 -205.5 61t-64.5 200q-1 43 -0.5 86.5t2.5 85.5h144q-3 -60 -2.5 -106t0.5 -81q2 -69 31 -95.5t95 -26.5q72 0 103.5 26.5t32.5 95.5q1 29 1 49.5t0.5 39.5t-0.5 44q-2 69 -19.5 104t-70.5 52l-106 32q-76 23 -122.5 58t-67.5 91t-23 144q-1 32 -0.5 55.5
t0.5 50.5q3 141 65 202.5t216 61.5q146 0 206 -60t65 -200v-80t-3 -89h-148q2 31 2 66v66.5t-1 54.5q-1 67 -27 92.5t-94 25.5t-94.5 -25.5t-28.5 -93.5q-1 -24 -2 -50.5t0 -62.5q1 -71 16 -113.5t75 -61.5l100 -27q109 -29 161 -93.5t52 -193.5q0 -33 -0.5 -63.5
t-2.5 -63.5q-3 -138 -66 -198t-219 -60z" />
    <glyph glyph-name="t" unicode="t" horiz-adv-x="529" 
d="M413 -15q-158 0 -221 60.5t-63 202.5l-1 828h-91v124h95v340h160v-340h198v-124h-202l1 -845q0 -71 24 -96.5t103 -25.5q29 0 49 1t47 4v-119q-22 -4 -47 -7t-52 -3z" />
    <glyph glyph-name="u" unicode="u" horiz-adv-x="808" 
d="M317 -15q-105 0 -160.5 59.5t-55.5 195.5v960h160l1 -973q0 -63 25.5 -91.5t81.5 -28.5t102.5 31t67.5 86v976h160v-1200h-160v111h-28q-34 -65 -82 -95.5t-112 -30.5z" />
    <glyph glyph-name="v" unicode="v" horiz-adv-x="684" 
d="M194 0l-159 1200h164l66 -605l44 -473h62l46 473l68 605h165l-164 -1200h-292z" />
    <glyph glyph-name="w" unicode="w" horiz-adv-x="1143" 
d="M165 0l-130 1200h160l49 -605l36 -473h62l27 473l55 600h294l51 -600l29 -473h62l37 473l51 605h160l-133 -1200h-295l-36 462l-39 611h-69l-40 -611l-35 -462h-296z" />
    <glyph glyph-name="x" unicode="x" horiz-adv-x="648" 
d="M27 0l177 619l-173 581h156l65 -258l52 -257h38l54 257l66 258h156l-174 -584l178 -616h-156l-76 315l-49 249h-35l-47 -249l-76 -315h-156z" />
    <glyph glyph-name="y" unicode="y" horiz-adv-x="708" 
d="M185 -410q-28 0 -68 4t-70 8v123q25 -3 64.5 -5.5t71.5 -2.5q78 0 106 27t39 96l25 160h-128l-174 1200h165l60 -578l59 -499h58l57 499l58 578h165l-185 -1349q-13 -90 -43.5 -147.5t-92.5 -85.5t-167 -28z" />
    <glyph glyph-name="z" unicode="z" horiz-adv-x="623" 
d="M40 0v103l376 975l-367 -3v123l540 2v-106l-380 -972h368v-122h-537z" />
    <glyph glyph-name="braceleft" unicode="{" horiz-adv-x="629" 
d="M569 -402q-107 0 -191 34.5t-132 106t-48 182.5q0 25 1.5 74t4 108t5 116t4.5 99.5t2 58.5q0 81 -29.5 108t-79.5 27h-46v173h46q50 0 79.5 27t29.5 109q0 14 -2 57t-4 100t-5 116t-4.5 108.5t-1.5 74.5q0 112 48 183.5t132 105.5t191 34v-88q-61 0 -109.5 -30t-76 -83
t-27.5 -122q0 -22 1.5 -64.5t4 -94.5t4.5 -103t3.5 -92t1.5 -60q0 -99 -38 -166t-113 -81v-33q75 -14 113 -81.5t38 -165.5q0 -20 -1.5 -60.5t-3.5 -92t-4.5 -103t-4 -94t-1.5 -65.5q0 -68 27.5 -121t76 -83.5t109.5 -30.5v-88z" />
    <glyph glyph-name="bar" unicode="|" horiz-adv-x="368" 
d="M104 1825h160v-2065h-160v2065z" />
    <glyph glyph-name="braceright" unicode="}" horiz-adv-x="619" 
d="M50 -402v88q62 0 110 30.5t75.5 83.5t27.5 121q0 23 -1.5 65.5t-3.5 94t-4.5 103t-4 92t-1.5 60.5q0 98 38.5 165.5t112.5 81.5v33q-74 14 -112.5 81t-38.5 166q0 19 1.5 60t4 92t4.5 103t3.5 94.5t1.5 64.5q0 69 -27.5 122t-75.5 83t-110 30v88q107 0 191 -34
t132 -105.5t48 -183.5q0 -25 -1.5 -74.5t-4 -108.5t-5 -116t-4 -99.5t-1.5 -57.5q0 -82 29.5 -109t78.5 -27h46v-173h-46q-49 0 -78.5 -27t-29.5 -108q0 -16 1.5 -58.5t4 -99.5t5 -116t4 -108t1.5 -74q0 -111 -48 -182.5t-132 -106t-191 -34.5z" />
    <glyph glyph-name="asciitilde" unicode="~" horiz-adv-x="950" 
d="M616 652q-50 3 -85.5 21.5t-64.5 42t-58.5 43t-67.5 23.5q-55 8 -92 -24t-41 -94h-103q9 130 77.5 190.5t168.5 50.5q55 -4 91.5 -23.5t64 -43t54 -41.5t62.5 -21q55 -5 88 26t34 87h102q-4 -123 -67.5 -183.5t-162.5 -53.5z" />
    <glyph glyph-name="uni00A0" unicode="&#xa0;" horiz-adv-x="416" 
 />
    <glyph glyph-name="exclamdown" unicode="&#xa1;" horiz-adv-x="449" 
d="M152 874h119l22 -711v-563h-165v563zM78 1200h266v-195h-266v195z" />
    <glyph glyph-name="cent" unicode="&#xa2;" horiz-adv-x="748" 
d="M308 0v191q-110 13 -160 74t-56 181q-2 74 -3 169.5t-1 196.5t1 190t3 149q6 123 56.5 184.5t159.5 74.5v190h143v-189q112 -12 163.5 -72.5t54.5 -181.5v-86t-2 -88h-157q1 32 1.5 67t0 67.5t-0.5 55.5q-2 66 -31 92t-98 26t-98.5 -26t-31.5 -93q-2 -97 -3 -188.5
t-1 -181t1 -181t3 -190.5q2 -69 32.5 -95.5t99.5 -26.5q67 0 96 27t31 95q1 37 1 83.5t-2 105.5h157q2 -38 3 -87.5t-1 -86.5q-5 -122 -55.5 -183t-162.5 -73v-190h-143z" />
    <glyph glyph-name="sterling" unicode="&#xa3;" horiz-adv-x="840" 
d="M128 0v136q41 30 65.5 92t35 147t10.5 184q0 59 -5 109.5t-12 94.5h-116v93h94q-15 68 -32 136.5t-28 150t-11 188.5q2 138 71 210.5t223 72.5t223 -66t73 -218q2 -43 2 -91.5t-0.5 -99.5t-1.5 -102h-160q1 35 1.5 76.5t0.5 84.5v84t-1 74q-1 66 -33.5 95t-103.5 29
q-69 0 -101 -29t-33 -95q0 -98 13.5 -180.5t32.5 -159.5t34 -160h189v-93h-175q6 -40 9.5 -84.5t3.5 -93.5q0 -158 -30.5 -257.5t-79.5 -153.5v-32h451v-142h-609z" />
    <glyph glyph-name="currency" unicode="&#xa4;" horiz-adv-x="987" 
d="M185 54l-78 62l129 167q-19 32 -29 76t-12 100q-3 67 -4.5 151t-1.5 174t1.5 178t4.5 163q2 58 13 102.5t31 77.5l-132 168l74 61l128 -162q65 35 181 35q120 0 184 -37l131 162l75 -63l-137 -168q20 -32 30 -76t12 -100q3 -71 4 -155.5t1 -173.5t-1 -175.5t-4 -161.5
q-2 -56 -12.5 -99.5t-29.5 -76.5l128 -166l-76 -62l-122 158q-63 -36 -183 -36q-118 0 -184 37zM490 301q74 0 103.5 29t31.5 95q4 96 5.5 186.5t1.5 179.5t-1.5 180t-5.5 189q-2 67 -32 95t-103 28t-103.5 -29t-32.5 -96q-3 -89 -5 -178.5t-2 -180t2 -183.5t5 -190
q2 -67 33 -96t103 -29z" />
    <glyph glyph-name="yen" unicode="&#xa5;" horiz-adv-x="714" 
d="M278 0v204h-153v85h153v66h-153v87h153v52h-29l-210 1106h164l77 -447l51 -459h51l52 459l77 447h164l-210 -1106l-29 -1v-51h154v-87h-154v-66h154v-85h-154v-204h-158z" />
    <glyph glyph-name="brokenbar" unicode="&#xa6;" horiz-adv-x="368" 
d="M104 1825h160v-809h-160v809zM104 536h160v-776h-160v776z" />
    <glyph glyph-name="section" unicode="&#xa7;" horiz-adv-x="775" 
d="M380 -415q-97 0 -155 23t-84.5 76.5t-30.5 146.5q-1 27 -1 60.5t1 67t2 61.5h144q-2 -40 -3 -70.5t-0.5 -59t1.5 -64.5q3 -66 32 -91.5t94 -25.5q73 0 103.5 26t31.5 96q2 43 2.5 86t-0.5 83q-2 70 -17 108t-72 49l-88 22q-102 23 -165.5 75t-67.5 163q-2 80 -2 159.5
t2 168.5q3 77 35 125t79 71v36q-54 23 -82 65.5t-33 136.5q-2 42 -1 91.5t3 92.5q8 95 33.5 147.5t84 73.5t163.5 21q147 0 206.5 -60t62.5 -198q2 -37 2 -83.5t-4 -98.5h-148q3 33 3.5 70.5t0 71.5t-1.5 55q-3 69 -29.5 90t-91.5 21q-70 0 -94.5 -21.5t-29.5 -87.5
q-2 -37 -3 -93t0 -93q4 -70 17 -107t75 -51l100 -22q96 -21 151 -84.5t62 -172.5q5 -94 4 -165t-6 -158q-4 -68 -32.5 -112.5t-80.5 -67.5v-29q59 -24 87 -79t30 -134q0 -37 -0.5 -83.5t-3.5 -81.5q-6 -91 -33.5 -144.5t-88 -77.5t-163.5 -24zM393 299q72 0 97.5 37t29.5 84
t5 106t0 117.5t-5 102.5q-4 46 -29 82.5t-98 36.5q-71 0 -100.5 -35.5t-33.5 -83.5q-4 -74 -3 -162.5t4 -163.5q5 -49 33.5 -85t99.5 -36z" />
    <glyph glyph-name="dieresis" unicode="&#xa8;" horiz-adv-x="607" 
d="M354 1310v129h129v-129h-129zM133 1310v129h129v-129h-129z" />
    <glyph glyph-name="copyright" unicode="&#xa9;" horiz-adv-x="1261" 
d="M631 -10q-178 0 -295.5 66t-174.5 201.5t-57 342.5q0 208 57 343t174.5 201t295.5 66q267 0 396.5 -149t129.5 -461q0 -207 -57 -342.5t-174 -201.5t-295 -66zM632 76q219 0 324 127t105 397q0 268 -105 396t-325 128q-221 0 -326 -127t-105 -397q0 -269 105 -396.5
t327 -127.5zM636 184q-109 0 -158 45t-55 153q-1 43 -2 97.5t-1 113t1 114t2 102.5q4 108 53 154t158 46q111 0 158.5 -45.5t51.5 -150.5q1 -21 0.5 -38.5t-2.5 -37.5h-104q2 22 1.5 44t-0.5 41q0 60 -24.5 81t-80.5 21q-54 0 -78.5 -21.5t-26.5 -81.5q-2 -76 -2 -153.5
t0.5 -152t1.5 -143.5q2 -60 27 -81.5t80 -21.5t78.5 22t24.5 81q1 22 1 40.5t-2 52.5h104q2 -26 2.5 -44t-0.5 -40q-5 -105 -52 -151t-156 -46z" />
    <glyph glyph-name="ordfeminine" unicode="&#xaa;" horiz-adv-x="684" 
d="M284 754q-87 0 -127.5 41t-50.5 131q-1 16 -1.5 32.5t-0.5 34.5q5 78 45 131t143 95q33 14 74.5 29t86.5 29q0 40 -1 79.5t-3 78.5q-1 40 -20.5 60.5t-78.5 20.5q-47 0 -71 -17t-29 -62q-1 -11 -1 -37t1 -53t2 -40h-126q-1 11 -2 36t-1 50t1 35q3 94 54 140.5t177 46.5
q85 0 133 -21.5t68 -67t22 -119.5q1 -36 1.5 -99t0.5 -139.5t-0.5 -153.5t-0.5 -143.5t-1 -107.5h-130q0 21 0.5 40.5t1.5 38.5h-22q-20 -42 -52.5 -65.5t-91.5 -23.5zM329 849q39 0 72 18.5t50 58.5q2 66 2.5 129t0.5 123q-33 -9 -66.5 -21t-69.5 -32q-50 -25 -66.5 -58
t-18.5 -73q-1 -7 -0.5 -27.5t1.5 -31.5q2 -43 29 -64.5t66 -21.5z" />
    <glyph glyph-name="guillemotleft" unicode="&#xab;" horiz-adv-x="689" 
d="M321 846l-287 -304v161l287 304v-161zM321 239l-287 303v161l287 -304v-160zM580 846l-287 -304v161l287 304v-161zM580 239l-287 303v161l287 -304v-160z" />
    <glyph glyph-name="logicalnot" unicode="&#xac;" horiz-adv-x="897" 
d="M665 523v311h-561v126h689v-437h-128z" />
    <glyph glyph-name="uni00AD" unicode="&#xad;" horiz-adv-x="698" 
d="M60 687v142h578v-142h-578z" />
    <glyph glyph-name="registered" unicode="&#xae;" horiz-adv-x="835" 
d="M420 1028q-159 0 -237.5 86.5t-78.5 261.5q0 180 78.5 267t237.5 87q157 0 234 -87t77 -267q0 -175 -77 -261.5t-234 -86.5zM420 1082q133 0 194.5 70t61.5 224q0 157 -61.5 227.5t-194.5 70.5q-136 0 -198.5 -69.5t-62.5 -228.5q0 -154 63 -224t198 -70zM328 1176v424
h95q49 0 75 -19.5t28 -70.5q1 -14 1 -31.5t-1 -31.5q-1 -26 -13.5 -43.5t-38.5 -23.5v-11q26 -6 38 -22.5t13 -45.5q1 -15 1.5 -37.5t0.5 -45.5t-1 -42h-62q1 35 0.5 71.5t-2.5 62.5q-1 40 -39 40h-33v-174h-62zM390 1404h33q18 0 28.5 8.5t10.5 27.5q2 19 2 36t-2 39
q-1 31 -39 31h-33v-142z" />
    <glyph glyph-name="macron" unicode="&#xaf;" horiz-adv-x="786" 
d="M93 1370h489v-84h-489v84z" />
    <glyph glyph-name="degree" unicode="&#xb0;" horiz-adv-x="669" 
d="M335 1182q-63 0 -115.5 30t-84 79.5t-31.5 108.5q0 60 31.5 110t84.5 80t116 30q62 0 114 -30t83.5 -80t31.5 -110q0 -59 -31.5 -108.5t-83.5 -79.5t-115 -30zM335 1258q63 0 108 42t45 100q0 60 -45 102.5t-108 42.5t-108.5 -42.5t-45.5 -102.5q0 -58 45.5 -100
t108.5 -42z" />
    <glyph glyph-name="plusminus" unicode="&#xb1;" horiz-adv-x="937" 
d="M406 561v143h-302v124h302v171h125v-171h302v-124h-302v-143h-125zM104 362v104h729v-104h-729z" />
    <glyph glyph-name="uni00B2" unicode="&#xb2;" horiz-adv-x="498" 
d="M73 880v80v65q2 83 41 131.5t96 79.5l59 33q28 18 38.5 38t12.5 51q2 26 1.5 52t-1.5 54q-1 20 -15 34.5t-50 14.5q-62 0 -64 -49q-1 -34 0 -69t2 -61h-118q-1 33 -2 57.5t0 57.5q4 81 50 120.5t132 39.5q93 0 138 -40t46 -120q1 -16 1.5 -28t1 -26t-0.5 -37
q-1 -70 -35 -109.5t-93 -70.5l-67 -34q-22 -14 -35 -42.5t-13 -64.5v-54h233v-103h-358z" />
    <glyph glyph-name="uni00B3" unicode="&#xb3;" horiz-adv-x="502" 
d="M253 871q-92 0 -141 38t-50 115q-1 18 -1.5 30.5t0 27.5t1.5 39h120q-2 -26 -2 -52v-45q2 -26 17.5 -41.5t51.5 -15.5q35 0 50.5 14t16.5 40q1 37 1 66.5t-1 64.5q-2 31 -19.5 45t-54.5 14h-82l-4 88l132 198h-219v103h365l-1 -99l-144 -197q67 -6 107.5 -41t40.5 -110
q1 -18 1 -43.5v-48t-1 -36.5q-1 -73 -46 -113.5t-138 -40.5z" />
    <glyph glyph-name="acute" unicode="&#xb4;" horiz-adv-x="485" 
d="M105 1280l157 234h123l-165 -234h-115z" />
    <glyph glyph-name="uni00B5" unicode="&#xb5;" horiz-adv-x="832" 
d="M105 -400l-1 1600h160l1 -973q2 -63 27.5 -91.5t82.5 -28.5q54 0 98 31t64 86v976h161v-998q0 -68 8 -120.5t23 -81.5h-161q-9 19 -16 47t-10 64h-33q-26 -51 -61 -81.5t-85 -37.5q-57 -6 -97 11v-403h-161z" />
    <glyph glyph-name="paragraph" unicode="&#xb6;" horiz-adv-x="959" 
d="M472 -200v1016h-74q-99 0 -161.5 26t-93.5 87.5t-37 167.5q-2 38 -2.5 80.5t0.5 80t2 61.5q6 105 36.5 166.5t92.5 88t163 26.5h458v-94h-92v-1706h-111v1706h-70v-1706h-111z" />
    <glyph glyph-name="periodcentered" unicode="&#xb7;" horiz-adv-x="321" 
d="M92 763v137h137v-137h-137z" />
    <glyph glyph-name="cedilla" unicode="&#xb8;" horiz-adv-x="455" 
d="M81 -293v91h53q48 0 66 22t8 71l-23 109h99l23 -109q16 -94 -26.5 -139t-146.5 -45h-53z" />
    <glyph glyph-name="uni00B9" unicode="&#xb9;" horiz-adv-x="334" 
d="M122 880v615h-83l-3 41l112 64h99v-720h-125z" />
    <glyph glyph-name="ordmasculine" unicode="&#xba;" horiz-adv-x="694" 
d="M346 754q-126 0 -178 46.5t-59 163.5q-1 24 -2.5 67.5t-2 97.5t0 107.5t1.5 98.5t3 70q7 75 29.5 121t71 67.5t134.5 21.5q135 0 186.5 -50.5t56.5 -159.5q2 -26 3 -71.5t1.5 -100t0 -108t-1.5 -96.5t-3 -65q-5 -72 -27 -118.5t-72.5 -69t-141.5 -22.5zM348 851
q59 0 83 19.5t25 64.5q4 79 5.5 140.5t1.5 116.5t-2 113t-5 129q-1 45 -25.5 64t-82.5 19q-54 0 -80.5 -18.5t-28.5 -65.5q-3 -94 -4.5 -169.5t0 -152.5t4.5 -176q2 -47 28.5 -65.5t80.5 -18.5z" />
    <glyph glyph-name="guillemotright" unicode="&#xbb;" horiz-adv-x="675" 
d="M354 846v161l287 -304v-161zM354 239v160l287 304v-161zM95 846v161l287 -304v-161zM95 239v160l287 304v-161z" />
    <glyph glyph-name="onequarter" unicode="&#xbc;" horiz-adv-x="914" 
d="M122 880v615h-83l-3 41l112 64h99v-720h-125zM-73 0l786 1600h122l-787 -1600h-121zM794 720v-426h80v-103h-80v-191h-112v191h-220v98l172 431h160zM682 294l14 171l14 152h-25l-48 -152l-57 -171h102z" />
    <glyph glyph-name="onehalf" unicode="&#xbd;" horiz-adv-x="936" 
d="M122 880v615h-83l-3 41l112 64h99v-720h-125zM-73 0l786 1600h122l-787 -1600h-121zM511 0v80v65q2 83 41 131.5t96 79.5l59 33q28 18 38.5 38t12.5 51q2 26 1.5 52t-1.5 54q-1 20 -15 34.5t-50 14.5q-62 0 -64 -49q-1 -34 0 -69t2 -61h-118q-1 33 -2 57.5t0 57.5
q4 81 50 120.5t132 39.5q93 0 138 -40t46 -120q1 -16 1.5 -28t1 -26t-0.5 -37q-1 -70 -35 -109.5t-93 -70.5l-67 -34q-22 -14 -35 -42.5t-13 -64.5v-54h233v-103h-358z" />
    <glyph glyph-name="threequarters" unicode="&#xbe;" horiz-adv-x="1114" 
d="M253 871q-92 0 -141 38t-50 115q-1 18 -1.5 30.5t0 27.5t1.5 39h120q-2 -26 -2 -52v-45q2 -26 17.5 -41.5t51.5 -15.5q35 0 50.5 14t16.5 40q1 37 1 66.5t-1 64.5q-2 31 -19.5 45t-54.5 14h-82l-4 88l132 198h-219v103h365l-1 -99l-144 -197q67 -6 107.5 -41t40.5 -110
q1 -18 1 -43.5v-48t-1 -36.5q-1 -73 -46 -113.5t-138 -40.5zM128 0l786 1600h122l-787 -1600h-121zM994 720v-426h80v-103h-80v-191h-112v191h-220v98l172 431h160zM882 294l14 171l14 152h-25l-48 -152l-57 -171h102z" />
    <glyph glyph-name="questiondown" unicode="&#xbf;" horiz-adv-x="728" 
d="M369 -416q-161 0 -232 67t-71 222q0 91 -0.5 144t-1 84.5t0.5 57.5q1 89 12.5 145t32 89.5t50 53t67.5 36.5l42 18q42 19 50.5 50.5t10.5 62.5l7 243h126l5 -244q2 -58 -7 -100.5t-36.5 -74.5t-81.5 -59l-42 -20q-30 -14 -44.5 -39t-18.5 -64.5t-4 -97.5v-311
q0 -61 32 -92.5t101 -31.5q65 0 95.5 30t34.5 95q3 70 3 149t-3 157h164q1 -56 2 -102.5t0.5 -89.5t-1.5 -88q-6 -155 -74 -222.5t-219 -67.5zM267 1005v195h266v-195h-266z" />
    <glyph glyph-name="Agrave" unicode="&#xc0;" horiz-adv-x="754" 
d="M48 0l175 1600h309l174 -1600h-162l-41 448h-252l-40 -448h-163zM266 591h223l-32 344l-43 522h-73l-43 -522zM306 1680l-156 234h122l150 -234h-116z" />
    <glyph glyph-name="Aacute" unicode="&#xc1;" horiz-adv-x="754" 
d="M48 0l175 1600h309l174 -1600h-162l-41 448h-252l-40 -448h-163zM266 591h223l-32 344l-43 522h-73l-43 -522zM327 1680l157 234h123l-165 -234h-115z" />
    <glyph glyph-name="Acircumflex" unicode="&#xc2;" horiz-adv-x="754" 
d="M48 0l175 1600h309l174 -1600h-162l-41 448h-252l-40 -448h-163zM266 591h223l-32 344l-43 522h-73l-43 -522zM180 1681l145 235h104l145 -235h-116l-80 140l-82 -140h-116z" />
    <glyph glyph-name="Atilde" unicode="&#xc3;" horiz-adv-x="754" 
d="M48 0l175 1600h309l174 -1600h-162l-41 448h-252l-40 -448h-163zM266 591h223l-32 344l-43 522h-73l-43 -522zM516 1847h75q-2 -81 -34.5 -120t-90.5 -39q-38 0 -60 12t-38 28t-32 27.5t-40 11.5q-22 0 -36 -16t-19 -55h-75q7 87 42 124.5t92 37.5q39 0 61.5 -11.5
t37.5 -27.5t29.5 -28t38.5 -12q26 0 37 18t12 50z" />
    <glyph glyph-name="Adieresis" unicode="&#xc4;" horiz-adv-x="754" 
d="M48 0l175 1600h309l174 -1600h-162l-41 448h-252l-40 -448h-163zM266 591h223l-32 344l-43 522h-73l-43 -522zM424 1710v129h129v-129h-129zM203 1710v129h129v-129h-129z" />
    <glyph glyph-name="Aring" unicode="&#xc5;" horiz-adv-x="754" 
d="M48 0l175 1600h309l174 -1600h-162l-41 448h-252l-40 -448h-163zM266 591h223l-32 344l-43 522h-73l-43 -522zM378 1672q-64 0 -110.5 46t-46.5 112q0 64 46.5 110.5t110.5 46.5q65 0 112 -46.5t47 -110.5q0 -66 -47 -112t-112 -46zM378 1766q27 0 46 19t19 44
q0 27 -19 46t-46 19q-25 0 -44.5 -19t-19.5 -46q0 -25 19 -44t45 -19z" />
    <glyph glyph-name="AE" unicode="&#xc6;" horiz-adv-x="1085" 
d="M48 0l282 1600h703v-143h-354v-580h334v-143h-334v-591h354v-143h-512v444h-225l-77 -444h-171zM325 587h196v871h-67l-73 -559z" />
    <glyph glyph-name="Ccedilla" unicode="&#xc7;" horiz-adv-x="795" 
d="M402 -15q-156 0 -226.5 65t-73.5 215q-2 141 -3 273t-1 261.5t1 261.5t3 273q2 144 73.5 211.5t225.5 67.5t226 -66t77 -213q2 -45 2 -96t-0.5 -101.5t-2.5 -95.5h-159l2 102t1 102t-2 102q-2 73 -35 102t-109 29q-74 0 -106 -29t-34 -102q-3 -150 -4.5 -284.5
t-1.5 -263.5t1.5 -263t4.5 -284q2 -73 34.5 -102.5t106.5 -29.5q80 0 114.5 29.5t36.5 102.5q2 48 2 98.5t-1 107t-2 121.5h158q4 -89 4.5 -163.5t-2.5 -150.5q-5 -150 -77.5 -215t-232.5 -65zM245 -285v91h53q48 0 66 22t8 71l-23 109h99l23 -109q16 -94 -26.5 -139
t-146.5 -45h-53z" />
    <glyph glyph-name="Egrave" unicode="&#xc8;" horiz-adv-x="678" 
d="M113 0v1600h514v-143h-355v-580h335v-143h-335v-591h355v-143h-514zM292 1679l-156 234h122l150 -234h-116z" />
    <glyph glyph-name="Eacute" unicode="&#xc9;" horiz-adv-x="678" 
d="M113 0v1600h514v-143h-355v-580h335v-143h-335v-591h355v-143h-514zM313 1679l157 234h123l-165 -234h-115z" />
    <glyph glyph-name="Ecircumflex" unicode="&#xca;" horiz-adv-x="678" 
d="M113 0v1600h514v-143h-355v-580h335v-143h-335v-591h355v-143h-514zM166 1680l145 235h104l145 -235h-116l-80 140l-82 -140h-116z" />
    <glyph glyph-name="Edieresis" unicode="&#xcb;" horiz-adv-x="678" 
d="M113 0v1600h514v-143h-355v-580h335v-143h-335v-591h355v-143h-514zM410 1709v129h129v-129h-129zM189 1709v129h129v-129h-129z" />
    <glyph glyph-name="Igrave" unicode="&#xcc;" horiz-adv-x="385" 
d="M113 0v1600h159v-1600h-159zM121 1680l-156 234h122l150 -234h-116z" />
    <glyph glyph-name="Iacute" unicode="&#xcd;" horiz-adv-x="385" 
d="M113 0v1600h159v-1600h-159zM142 1680l157 234h123l-165 -234h-115z" />
    <glyph glyph-name="Icircumflex" unicode="&#xce;" horiz-adv-x="385" 
d="M113 0v1600h159v-1600h-159zM-5 1681l145 235h104l145 -235h-116l-80 140l-82 -140h-116z" />
    <glyph glyph-name="Idieresis" unicode="&#xcf;" horiz-adv-x="385" 
d="M113 0v1600h159v-1600h-159zM239 1710v129h129v-129h-129zM18 1710v129h129v-129h-129z" />
    <glyph glyph-name="Eth" unicode="&#xd0;" horiz-adv-x="864" 
d="M71 946h380v-89h-380v89zM173 0v1600h293q156 0 225 -64.5t71 -211.5q3 -187 4 -355.5t0 -336.5t-4 -354q-2 -149 -70 -213.5t-221 -64.5h-298zM332 143h139q71 0 101.5 28.5t31.5 91.5q3 144 4.5 276.5t1.5 261t-1.5 261t-4.5 276.5q-1 63 -33 91t-105 28h-134v-1314z
" />
    <glyph glyph-name="Ntilde" unicode="&#xd1;" horiz-adv-x="941" 
d="M113 0v1600h297l91 -507l133 -950h69l-24 882l-10 575h159v-1600h-307l-100 570l-112 888h-71l22 -858l11 -600h-158zM620 1847h75q-2 -81 -34.5 -120t-90.5 -39q-38 0 -60 12t-38 28t-32 27.5t-40 11.5q-22 0 -36 -16t-19 -55h-75q7 87 42 124.5t92 37.5
q39 0 61.5 -11.5t37.5 -27.5t29.5 -28t38.5 -12q26 0 37 18t12 50z" />
    <glyph glyph-name="Ograve" unicode="&#xd2;" horiz-adv-x="807" 
d="M403 -14q-158 0 -228 66t-72 217q-3 146 -4 276.5t-1 257t1 256t4 271.5q2 153 72 218.5t228 65.5t227.5 -65.5t72.5 -218.5q3 -142 4.5 -272t1.5 -256t-1.5 -257t-4.5 -276q-3 -151 -72.5 -217t-227.5 -66zM403 121q77 0 108.5 30t32.5 105q4 149 6 282.5t2 262.5
t-2 262.5t-6 279.5q-1 76 -32.5 106.5t-108.5 30.5q-76 0 -108 -30.5t-34 -106.5q-4 -144 -5.5 -276.5t-1.5 -261.5t2 -264t5 -285q2 -75 34 -105t108 -30zM332 1680l-156 234h122l150 -234h-116z" />
    <glyph glyph-name="Oacute" unicode="&#xd3;" horiz-adv-x="807" 
d="M403 -14q-158 0 -228 66t-72 217q-3 146 -4 276.5t-1 257t1 256t4 271.5q2 153 72 218.5t228 65.5t227.5 -65.5t72.5 -218.5q3 -142 4.5 -272t1.5 -256t-1.5 -257t-4.5 -276q-3 -151 -72.5 -217t-227.5 -66zM403 121q77 0 108.5 30t32.5 105q4 149 6 282.5t2 262.5
t-2 262.5t-6 279.5q-1 76 -32.5 106.5t-108.5 30.5q-76 0 -108 -30.5t-34 -106.5q-4 -144 -5.5 -276.5t-1.5 -261.5t2 -264t5 -285q2 -75 34 -105t108 -30zM353 1680l157 234h123l-165 -234h-115z" />
    <glyph glyph-name="Ocircumflex" unicode="&#xd4;" horiz-adv-x="807" 
d="M403 -14q-158 0 -228 66t-72 217q-3 146 -4 276.5t-1 257t1 256t4 271.5q2 153 72 218.5t228 65.5t227.5 -65.5t72.5 -218.5q3 -142 4.5 -272t1.5 -256t-1.5 -257t-4.5 -276q-3 -151 -72.5 -217t-227.5 -66zM403 121q77 0 108.5 30t32.5 105q4 149 6 282.5t2 262.5
t-2 262.5t-6 279.5q-1 76 -32.5 106.5t-108.5 30.5q-76 0 -108 -30.5t-34 -106.5q-4 -144 -5.5 -276.5t-1.5 -261.5t2 -264t5 -285q2 -75 34 -105t108 -30zM206 1681l145 235h104l145 -235h-116l-80 140l-82 -140h-116z" />
    <glyph glyph-name="Otilde" unicode="&#xd5;" horiz-adv-x="807" 
d="M403 -14q-158 0 -228 66t-72 217q-3 146 -4 276.5t-1 257t1 256t4 271.5q2 153 72 218.5t228 65.5t227.5 -65.5t72.5 -218.5q3 -142 4.5 -272t1.5 -256t-1.5 -257t-4.5 -276q-3 -151 -72.5 -217t-227.5 -66zM403 121q77 0 108.5 30t32.5 105q4 149 6 282.5t2 262.5
t-2 262.5t-6 279.5q-1 76 -32.5 106.5t-108.5 30.5q-76 0 -108 -30.5t-34 -106.5q-4 -144 -5.5 -276.5t-1.5 -261.5t2 -264t5 -285q2 -75 34 -105t108 -30zM542 1847h75q-2 -81 -34.5 -120t-90.5 -39q-38 0 -60 12t-38 28t-32 27.5t-40 11.5q-22 0 -36 -16t-19 -55h-75
q7 87 42 124.5t92 37.5q39 0 61.5 -11.5t37.5 -27.5t29.5 -28t38.5 -12q26 0 37 18t12 50z" />
    <glyph glyph-name="Odieresis" unicode="&#xd6;" horiz-adv-x="807" 
d="M403 -14q-158 0 -228 66t-72 217q-3 146 -4 276.5t-1 257t1 256t4 271.5q2 153 72 218.5t228 65.5t227.5 -65.5t72.5 -218.5q3 -142 4.5 -272t1.5 -256t-1.5 -257t-4.5 -276q-3 -151 -72.5 -217t-227.5 -66zM403 121q77 0 108.5 30t32.5 105q4 149 6 282.5t2 262.5
t-2 262.5t-6 279.5q-1 76 -32.5 106.5t-108.5 30.5q-76 0 -108 -30.5t-34 -106.5q-4 -144 -5.5 -276.5t-1.5 -261.5t2 -264t5 -285q2 -75 34 -105t108 -30zM450 1710v129h129v-129h-129zM229 1710v129h129v-129h-129z" />
    <glyph glyph-name="multiply" unicode="&#xd7;" horiz-adv-x="818" 
d="M193 473l-89 87l215 207l-215 206l89 87l216 -207l216 207l89 -87l-215 -206l215 -207l-89 -87l-216 207z" />
    <glyph glyph-name="Oslash" unicode="&#xd8;" horiz-adv-x="807" 
d="M403 -14q-158 0 -228 66t-72 217q-3 146 -4 276.5t-1 257t1 256t4 271.5q2 153 72 218.5t228 65.5t227.5 -65.5t72.5 -218.5q3 -142 4.5 -272t1.5 -256t-1.5 -257t-4.5 -276q-3 -151 -72.5 -217t-227.5 -66zM403 121q77 0 108.5 30t32.5 105q4 131 5.5 245.5t2 224.5
t-0.5 226l-293 -529q1 -40 1.5 -81.5t1.5 -85.5q2 -75 34 -105t108 -30zM255 637l293 524q0 45 -1 90.5t-3 91.5q-1 76 -32.5 106.5t-108.5 30.5q-76 0 -108 -30.5t-34 -106.5q-3 -129 -5 -244.5t-2 -228.5t1 -233z" />
    <glyph glyph-name="Ugrave" unicode="&#xd9;" horiz-adv-x="794" 
d="M397 -14q-158 0 -227 64.5t-71 212.5q-4 335 -4 668.5t4 668.5h159q-2 -223 -3.5 -450.5t-0.5 -454t2 -450.5q0 -65 33 -93.5t108 -28.5t107 28.5t32 93.5q1 224 2.5 450.5t1 454t-3.5 450.5h159q4 -335 4 -668.5t-4 -668.5q-2 -148 -71 -212.5t-227 -64.5zM325 1680
l-156 234h122l150 -234h-116z" />
    <glyph glyph-name="Uacute" unicode="&#xda;" horiz-adv-x="794" 
d="M397 -14q-158 0 -227 64.5t-71 212.5q-4 335 -4 668.5t4 668.5h159q-2 -223 -3.5 -450.5t-0.5 -454t2 -450.5q0 -65 33 -93.5t108 -28.5t107 28.5t32 93.5q1 224 2.5 450.5t1 454t-3.5 450.5h159q4 -335 4 -668.5t-4 -668.5q-2 -148 -71 -212.5t-227 -64.5zM346 1680
l157 234h123l-165 -234h-115z" />
    <glyph glyph-name="Ucircumflex" unicode="&#xdb;" horiz-adv-x="794" 
d="M397 -14q-158 0 -227 64.5t-71 212.5q-4 335 -4 668.5t4 668.5h159q-2 -223 -3.5 -450.5t-0.5 -454t2 -450.5q0 -65 33 -93.5t108 -28.5t107 28.5t32 93.5q1 224 2.5 450.5t1 454t-3.5 450.5h159q4 -335 4 -668.5t-4 -668.5q-2 -148 -71 -212.5t-227 -64.5zM199 1681
l145 235h104l145 -235h-116l-80 140l-82 -140h-116z" />
    <glyph glyph-name="Udieresis" unicode="&#xdc;" horiz-adv-x="794" 
d="M397 -14q-158 0 -227 64.5t-71 212.5q-4 335 -4 668.5t4 668.5h159q-2 -223 -3.5 -450.5t-0.5 -454t2 -450.5q0 -65 33 -93.5t108 -28.5t107 28.5t32 93.5q1 224 2.5 450.5t1 454t-3.5 450.5h159q4 -335 4 -668.5t-4 -668.5q-2 -148 -71 -212.5t-227 -64.5zM443 1710v129
h129v-129h-129zM222 1710v129h129v-129h-129z" />
    <glyph glyph-name="Yacute" unicode="&#xdd;" horiz-adv-x="714" 
d="M276 0v495l-28 1l-209 1104h162l74 -447l56 -459h51l55 459l74 447h164l-211 -1105l-28 -1v-494h-160zM304 1680l157 234h123l-165 -234h-115z" />
    <glyph glyph-name="Thorn" unicode="&#xde;" horiz-adv-x="728" 
d="M104 0v1600h159v-288h118q150 0 217.5 -62t72.5 -206q4 -130 4 -233.5t-4 -212.5q-6 -144 -73.5 -206.5t-217.5 -62.5h-117v-329h-159zM263 472h117q70 0 100 28t32 91q3 81 4.5 155.5t0.5 149t-5 154.5q-3 63 -32.5 91t-98.5 28h-118v-697z" />
    <glyph glyph-name="germandbls" unicode="&#xdf;" horiz-adv-x="766" 
d="M104 0v1318q0 94 27 156t92 94t178 32q155 0 222.5 -64.5t69.5 -214.5q1 -84 1 -150t-2 -136q-4 -90 -37.5 -139.5t-97.5 -71.5v-34q72 -20 107.5 -71.5t39.5 -144.5q2 -49 2.5 -96.5t0 -96.5t-2.5 -102q-4 -102 -38 -163.5t-99 -88.5t-165 -27h-46v142h46q68 0 103 32.5
t38 106.5q4 78 4 145.5t-4 141.5q-3 96 -39.5 131.5t-108.5 35.5h-33v143h28q69 0 104.5 38t37.5 120q2 61 2.5 105.5t-0.5 89.5t-2 106q-2 69 -33.5 99.5t-100.5 30.5q-75 0 -103.5 -32t-28.5 -95l-1 -1340h-161z" />
    <glyph glyph-name="agrave" unicode="&#xe0;" horiz-adv-x="761" 
d="M303 -13q-108 0 -163.5 58t-64.5 178l-2 50t0 49q5 72 27 129t70 104t133 89q46 23 96.5 45t101.5 41v238q0 65 -26.5 94t-93.5 29q-59 0 -91 -25t-35 -91q-1 -26 -1.5 -62.5t0 -72t1.5 -57.5h-155q-1 39 -2 86.5t0 87.5q3 90 32.5 147t91.5 84t164 27q105 0 164 -29
t83.5 -90.5t24.5 -160.5v-935h-159v111h-24q-25 -59 -61.5 -91.5t-110.5 -32.5zM352 107q53 0 90 29t57 83l2 381q-38 -12 -77.5 -30.5t-87.5 -49.5q-61 -39 -81 -87t-23 -111q0 -23 0.5 -44.5t1.5 -44.5q5 -59 35.5 -92.5t82.5 -33.5zM301 1280l-156 234h122l150 -234h-116
z" />
    <glyph glyph-name="aacute" unicode="&#xe1;" horiz-adv-x="761" 
d="M303 -13q-108 0 -163.5 58t-64.5 178l-2 50t0 49q5 72 27 129t70 104t133 89q46 23 96.5 45t101.5 41v238q0 65 -26.5 94t-93.5 29q-59 0 -91 -25t-35 -91q-1 -26 -1.5 -62.5t0 -72t1.5 -57.5h-155q-1 39 -2 86.5t0 87.5q3 90 32.5 147t91.5 84t164 27q105 0 164 -29
t83.5 -90.5t24.5 -160.5v-935h-159v111h-24q-25 -59 -61.5 -91.5t-110.5 -32.5zM352 107q53 0 90 29t57 83l2 381q-38 -12 -77.5 -30.5t-87.5 -49.5q-61 -39 -81 -87t-23 -111q0 -23 0.5 -44.5t1.5 -44.5q5 -59 35.5 -92.5t82.5 -33.5zM322 1280l157 234h123l-165 -234h-115
z" />
    <glyph glyph-name="acircumflex" unicode="&#xe2;" horiz-adv-x="761" 
d="M303 -13q-108 0 -163.5 58t-64.5 178l-2 50t0 49q5 72 27 129t70 104t133 89q46 23 96.5 45t101.5 41v238q0 65 -26.5 94t-93.5 29q-59 0 -91 -25t-35 -91q-1 -26 -1.5 -62.5t0 -72t1.5 -57.5h-155q-1 39 -2 86.5t0 87.5q3 90 32.5 147t91.5 84t164 27q105 0 164 -29
t83.5 -90.5t24.5 -160.5v-935h-159v111h-24q-25 -59 -61.5 -91.5t-110.5 -32.5zM352 107q53 0 90 29t57 83l2 381q-38 -12 -77.5 -30.5t-87.5 -49.5q-61 -39 -81 -87t-23 -111q0 -23 0.5 -44.5t1.5 -44.5q5 -59 35.5 -92.5t82.5 -33.5zM174 1281l145 235h104l145 -235h-116
l-80 140l-82 -140h-116z" />
    <glyph glyph-name="atilde" unicode="&#xe3;" horiz-adv-x="761" 
d="M303 -13q-108 0 -163.5 58t-64.5 178l-2 50t0 49q5 72 27 129t70 104t133 89q46 23 96.5 45t101.5 41v238q0 65 -26.5 94t-93.5 29q-59 0 -91 -25t-35 -91q-1 -26 -1.5 -62.5t0 -72t1.5 -57.5h-155q-1 39 -2 86.5t0 87.5q3 90 32.5 147t91.5 84t164 27q105 0 164 -29
t83.5 -90.5t24.5 -160.5v-935h-159v111h-24q-25 -59 -61.5 -91.5t-110.5 -32.5zM352 107q53 0 90 29t57 83l2 381q-38 -12 -77.5 -30.5t-87.5 -49.5q-61 -39 -81 -87t-23 -111q0 -23 0.5 -44.5t1.5 -44.5q5 -59 35.5 -92.5t82.5 -33.5zM511 1447h75q-2 -81 -34.5 -120
t-90.5 -39q-38 0 -60 12t-38 28t-32 27.5t-40 11.5q-22 0 -36 -16t-19 -55h-75q7 87 42 124.5t92 37.5q39 0 61.5 -11.5t37.5 -27.5t29.5 -28t38.5 -12q26 0 37 18t12 50z" />
    <glyph glyph-name="adieresis" unicode="&#xe4;" horiz-adv-x="761" 
d="M303 -13q-108 0 -163.5 58t-64.5 178l-2 50t0 49q5 72 27 129t70 104t133 89q46 23 96.5 45t101.5 41v238q0 65 -26.5 94t-93.5 29q-59 0 -91 -25t-35 -91q-1 -26 -1.5 -62.5t0 -72t1.5 -57.5h-155q-1 39 -2 86.5t0 87.5q3 90 32.5 147t91.5 84t164 27q105 0 164 -29
t83.5 -90.5t24.5 -160.5v-935h-159v111h-24q-25 -59 -61.5 -91.5t-110.5 -32.5zM352 107q53 0 90 29t57 83l2 381q-38 -12 -77.5 -30.5t-87.5 -49.5q-61 -39 -81 -87t-23 -111q0 -23 0.5 -44.5t1.5 -44.5q5 -59 35.5 -92.5t82.5 -33.5zM419 1310v129h129v-129h-129z
M198 1310v129h129v-129h-129z" />
    <glyph glyph-name="aring" unicode="&#xe5;" horiz-adv-x="761" 
d="M303 -13q-108 0 -163.5 58t-64.5 178l-2 50t0 49q5 72 27 129t70 104t133 89q46 23 96.5 45t101.5 41v238q0 65 -26.5 94t-93.5 29q-59 0 -91 -25t-35 -91q-1 -26 -1.5 -62.5t0 -72t1.5 -57.5h-155q-1 39 -2 86.5t0 87.5q3 90 32.5 147t91.5 84t164 27q105 0 164 -29
t83.5 -90.5t24.5 -160.5v-935h-159v111h-24q-25 -59 -61.5 -91.5t-110.5 -32.5zM352 107q53 0 90 29t57 83l2 381q-38 -12 -77.5 -30.5t-87.5 -49.5q-61 -39 -81 -87t-23 -111q0 -23 0.5 -44.5t1.5 -44.5q5 -59 35.5 -92.5t82.5 -33.5zM372 1272q-64 0 -110.5 46t-46.5 112
q0 64 46.5 110.5t110.5 46.5q65 0 112 -46.5t47 -110.5q0 -66 -47 -112t-112 -46zM372 1366q27 0 46 19t19 44q0 27 -19 46t-46 19q-25 0 -44.5 -19t-19.5 -46q0 -25 19 -44t45 -19z" />
    <glyph glyph-name="ae" unicode="&#xe6;" horiz-adv-x="1137" 
d="M292 -13q-98 0 -153 57t-64 178q-2 29 -2.5 51t0.5 49q7 103 66.5 170t157.5 116q46 24 94.5 46t97.5 41v90.5v91v91.5q0 32 -8 60t-33 45.5t-78 17.5q-59 0 -85 -26.5t-30 -91.5q-1 -21 -2 -56t-0.5 -71.5t2.5 -62.5h-157q-1 23 -1.5 56t-0.5 65.5t1 55.5
q4 89 32.5 145.5t88.5 83t156 26.5q72 0 120.5 -14t78.5 -40q35 28 85.5 41t118.5 13q142 0 208.5 -59.5t71.5 -198.5q1 -18 1.5 -61t1 -98.5t-0.5 -112t-4 -102.5h-407v-176v-176q0 -69 32.5 -95t98.5 -26t92.5 27t29.5 94q1 34 1.5 75t-3.5 114h156q3 -34 3.5 -86
t-1.5 -87q-6 -140 -69 -201t-208 -61q-107 0 -171 30.5t-93 95.5h-15q-26 -61 -81 -92.5t-128 -31.5zM347 107q34 0 66.5 15.5t54.5 58t23 122.5q0 54 -1 123.5t-1 144.5q-34 -13 -74.5 -33t-81.5 -49q-52 -34 -75 -72t-26 -95q-1 -23 -1 -43t3 -46q6 -57 32 -91.5t81 -34.5
zM648 704h253q2 80 1.5 156t-1.5 113q-3 63 -32 90.5t-92 27.5q-65 0 -97 -27.5t-32 -90.5v-137v-132z" />
    <glyph glyph-name="ccedilla" unicode="&#xe7;" horiz-adv-x="748" 
d="M510 783q2 32 2 66v66t-1 58q-1 66 -30.5 92t-98.5 26t-98 -26t-31 -93q-3 -97 -4 -188.5t-1 -181t1 -181t4 -190.5q2 -69 32.5 -95.5t98.5 -26.5t97 27t30 95q1 40 1 85t-2 104h157q3 -38 3.5 -87.5t-1.5 -86.5q-6 -139 -71.5 -200t-213.5 -61q-153 0 -219.5 61.5
t-72.5 199.5q-2 73 -3 163t-1 186.5t1 188t3 167.5q8 142 74.5 203t215.5 61q150 0 216.5 -60t70.5 -198q1 -40 1 -87.5t-3 -86.5h-157zM222 -285v91h53q48 0 66 22t8 71l-23 109h99l23 -109q16 -94 -26.5 -139t-146.5 -45h-53z" />
    <glyph glyph-name="egrave" unicode="&#xe8;" horiz-adv-x="749" 
d="M386 -15q-153 0 -220 61.5t-74 200.5q-2 73 -3 163t-1 185.5t1 187.5t3 168q8 142 76 203t217 61q147 0 212.5 -61t71.5 -197q1 -26 2 -88t0.5 -141.5t-4.5 -158.5h-419q0 -81 1.5 -165t3.5 -173q2 -68 32.5 -94.5t98.5 -26.5q67 0 95.5 26.5t31.5 94.5q2 32 1.5 82
t-2.5 107h157q3 -36 3.5 -87t-1.5 -86q-7 -140 -70.5 -201t-212.5 -61zM249 690h264q1 57 1 114.5t-1 102.5t-2 65q-4 65 -33.5 92t-92.5 27q-71 0 -100.5 -28.5t-31.5 -90.5q-1 -73 -2.5 -143t-1.5 -139zM309 1280l-156 234h122l150 -234h-116z" />
    <glyph glyph-name="eacute" unicode="&#xe9;" horiz-adv-x="749" 
d="M386 -15q-153 0 -220 61.5t-74 200.5q-2 73 -3 163t-1 185.5t1 187.5t3 168q8 142 76 203t217 61q147 0 212.5 -61t71.5 -197q1 -26 2 -88t0.5 -141.5t-4.5 -158.5h-419q0 -81 1.5 -165t3.5 -173q2 -68 32.5 -94.5t98.5 -26.5q67 0 95.5 26.5t31.5 94.5q2 32 1.5 82
t-2.5 107h157q3 -36 3.5 -87t-1.5 -86q-7 -140 -70.5 -201t-212.5 -61zM249 690h264q1 57 1 114.5t-1 102.5t-2 65q-4 65 -33.5 92t-92.5 27q-71 0 -100.5 -28.5t-31.5 -90.5q-1 -73 -2.5 -143t-1.5 -139zM330 1280l157 234h123l-165 -234h-115z" />
    <glyph glyph-name="ecircumflex" unicode="&#xea;" horiz-adv-x="749" 
d="M386 -15q-153 0 -220 61.5t-74 200.5q-2 73 -3 163t-1 185.5t1 187.5t3 168q8 142 76 203t217 61q147 0 212.5 -61t71.5 -197q1 -26 2 -88t0.5 -141.5t-4.5 -158.5h-419q0 -81 1.5 -165t3.5 -173q2 -68 32.5 -94.5t98.5 -26.5q67 0 95.5 26.5t31.5 94.5q2 32 1.5 82
t-2.5 107h157q3 -36 3.5 -87t-1.5 -86q-7 -140 -70.5 -201t-212.5 -61zM249 690h264q1 57 1 114.5t-1 102.5t-2 65q-4 65 -33.5 92t-92.5 27q-71 0 -100.5 -28.5t-31.5 -90.5q-1 -73 -2.5 -143t-1.5 -139zM182 1281l145 235h104l145 -235h-116l-80 140l-82 -140h-116z" />
    <glyph glyph-name="edieresis" unicode="&#xeb;" horiz-adv-x="749" 
d="M386 -15q-153 0 -220 61.5t-74 200.5q-2 73 -3 163t-1 185.5t1 187.5t3 168q8 142 76 203t217 61q147 0 212.5 -61t71.5 -197q1 -26 2 -88t0.5 -141.5t-4.5 -158.5h-419q0 -81 1.5 -165t3.5 -173q2 -68 32.5 -94.5t98.5 -26.5q67 0 95.5 26.5t31.5 94.5q2 32 1.5 82
t-2.5 107h157q3 -36 3.5 -87t-1.5 -86q-7 -140 -70.5 -201t-212.5 -61zM249 690h264q1 57 1 114.5t-1 102.5t-2 65q-4 65 -33.5 92t-92.5 27q-71 0 -100.5 -28.5t-31.5 -90.5q-1 -73 -2.5 -143t-1.5 -139zM427 1310v129h129v-129h-129zM206 1310v129h129v-129h-129z" />
    <glyph glyph-name="igrave" unicode="&#xec;" horiz-adv-x="377" 
d="M109 0v1200h159v-1200h-159zM117 1280l-156 234h122l150 -234h-116z" />
    <glyph glyph-name="iacute" unicode="&#xed;" horiz-adv-x="377" 
d="M109 0v1200h159v-1200h-159zM138 1280l157 234h123l-165 -234h-115z" />
    <glyph glyph-name="icircumflex" unicode="&#xee;" horiz-adv-x="377" 
d="M109 0v1200h159v-1200h-159zM-10 1281l145 235h104l145 -235h-116l-80 140l-82 -140h-116z" />
    <glyph glyph-name="idieresis" unicode="&#xef;" horiz-adv-x="377" 
d="M109 0v1200h159v-1200h-159zM235 1310v129h129v-129h-129zM14 1310v129h129v-129h-129z" />
    <glyph glyph-name="eth" unicode="&#xf0;" horiz-adv-x="792" 
d="M401 -16q-157 0 -227.5 66.5t-77.5 218.5q-3 74 -4 162t0.5 188.5t3.5 214.5q2 124 62 189.5t163 65.5q62 0 109.5 -23.5t68.5 -62.5h19q-13 67 -34 125t-50 107l-147 -69l-39 76l134 63q-37 52 -83 94t-100 79l85 136q75 -51 135.5 -106t107.5 -124l143 67l38 -77
l-132 -61q59 -104 88.5 -237.5t33.5 -305.5q1 -77 1 -163.5v-173t-1 -165.5q-2 -101 -33 -163.5t-95.5 -91.5t-168.5 -29zM400 118q68 0 102 30.5t36 94.5q1 94 2 187.5t0 195.5t-4 222q-1 53 -44.5 81t-107.5 28q-66 0 -96.5 -31.5t-32.5 -96.5q-2 -104 -2 -208t1 -200.5
t3 -176.5q2 -67 37.5 -96.5t105.5 -29.5z" />
    <glyph glyph-name="ntilde" unicode="&#xf1;" horiz-adv-x="812" 
d="M109 0v1200h160v-110h33q33 61 77.5 93t117.5 32q106 0 158.5 -59.5t53.5 -193.5v-962h-159l-1 974q0 64 -26.5 91.5t-84.5 27.5q-54 0 -101.5 -30.5t-67.5 -85.5v-977h-160zM549 1447h75q-2 -81 -34.5 -120t-90.5 -39q-38 0 -60 12t-38 28t-32 27.5t-40 11.5
q-22 0 -36 -16t-19 -55h-75q7 87 42 124.5t92 37.5q39 0 61.5 -11.5t37.5 -27.5t29.5 -28t38.5 -12q26 0 37 18t12 50z" />
    <glyph glyph-name="ograve" unicode="&#xf2;" horiz-adv-x="776" 
d="M389 -15q-105 0 -168.5 28.5t-93 90.5t-34.5 163q-2 67 -3.5 151t-1.5 174t1.5 178t3.5 163q6 102 35 164t92.5 90t168.5 28q106 0 169 -28.5t91.5 -90.5t33.5 -163q3 -71 4.5 -155t1.5 -173t-1.5 -175.5t-4.5 -162.5q-5 -100 -34 -162.5t-91.5 -91t-168.5 -28.5z
M389 109q73 0 103 29t32 95q3 96 4.5 186.5t2 179.5t-1.5 180t-5 189q-2 67 -32.5 95t-102.5 28q-73 0 -104 -29t-33 -96q-3 -89 -4.5 -178.5t-2 -180t1.5 -183.5t5 -190q3 -67 34 -96t103 -29zM317 1280l-156 234h122l150 -234h-116z" />
    <glyph glyph-name="oacute" unicode="&#xf3;" horiz-adv-x="776" 
d="M389 -15q-105 0 -168.5 28.5t-93 90.5t-34.5 163q-2 67 -3.5 151t-1.5 174t1.5 178t3.5 163q6 102 35 164t92.5 90t168.5 28q106 0 169 -28.5t91.5 -90.5t33.5 -163q3 -71 4.5 -155t1.5 -173t-1.5 -175.5t-4.5 -162.5q-5 -100 -34 -162.5t-91.5 -91t-168.5 -28.5z
M389 109q73 0 103 29t32 95q3 96 4.5 186.5t2 179.5t-1.5 180t-5 189q-2 67 -32.5 95t-102.5 28q-73 0 -104 -29t-33 -96q-3 -89 -4.5 -178.5t-2 -180t1.5 -183.5t5 -190q3 -67 34 -96t103 -29zM338 1280l157 234h123l-165 -234h-115z" />
    <glyph glyph-name="ocircumflex" unicode="&#xf4;" horiz-adv-x="776" 
d="M389 -15q-105 0 -168.5 28.5t-93 90.5t-34.5 163q-2 67 -3.5 151t-1.5 174t1.5 178t3.5 163q6 102 35 164t92.5 90t168.5 28q106 0 169 -28.5t91.5 -90.5t33.5 -163q3 -71 4.5 -155t1.5 -173t-1.5 -175.5t-4.5 -162.5q-5 -100 -34 -162.5t-91.5 -91t-168.5 -28.5z
M389 109q73 0 103 29t32 95q3 96 4.5 186.5t2 179.5t-1.5 180t-5 189q-2 67 -32.5 95t-102.5 28q-73 0 -104 -29t-33 -96q-3 -89 -4.5 -178.5t-2 -180t1.5 -183.5t5 -190q3 -67 34 -96t103 -29zM190 1281l145 235h104l145 -235h-116l-80 140l-82 -140h-116z" />
    <glyph glyph-name="otilde" unicode="&#xf5;" horiz-adv-x="776" 
d="M389 -15q-105 0 -168.5 28.5t-93 90.5t-34.5 163q-2 67 -3.5 151t-1.5 174t1.5 178t3.5 163q6 102 35 164t92.5 90t168.5 28q106 0 169 -28.5t91.5 -90.5t33.5 -163q3 -71 4.5 -155t1.5 -173t-1.5 -175.5t-4.5 -162.5q-5 -100 -34 -162.5t-91.5 -91t-168.5 -28.5z
M389 109q73 0 103 29t32 95q3 96 4.5 186.5t2 179.5t-1.5 180t-5 189q-2 67 -32.5 95t-102.5 28q-73 0 -104 -29t-33 -96q-3 -89 -4.5 -178.5t-2 -180t1.5 -183.5t5 -190q3 -67 34 -96t103 -29zM527 1447h75q-2 -81 -34.5 -120t-90.5 -39q-38 0 -60 12t-38 28t-32 27.5
t-40 11.5q-22 0 -36 -16t-19 -55h-75q7 87 42 124.5t92 37.5q39 0 61.5 -11.5t37.5 -27.5t29.5 -28t38.5 -12q26 0 37 18t12 50z" />
    <glyph glyph-name="odieresis" unicode="&#xf6;" horiz-adv-x="776" 
d="M389 -15q-105 0 -168.5 28.5t-93 90.5t-34.5 163q-2 67 -3.5 151t-1.5 174t1.5 178t3.5 163q6 102 35 164t92.5 90t168.5 28q106 0 169 -28.5t91.5 -90.5t33.5 -163q3 -71 4.5 -155t1.5 -173t-1.5 -175.5t-4.5 -162.5q-5 -100 -34 -162.5t-91.5 -91t-168.5 -28.5z
M389 109q73 0 103 29t32 95q3 96 4.5 186.5t2 179.5t-1.5 180t-5 189q-2 67 -32.5 95t-102.5 28q-73 0 -104 -29t-33 -96q-3 -89 -4.5 -178.5t-2 -180t1.5 -183.5t5 -190q3 -67 34 -96t103 -29zM435 1310v129h129v-129h-129zM214 1310v129h129v-129h-129z" />
    <glyph glyph-name="divide" unicode="&#xf7;" horiz-adv-x="958" 
d="M104 703v127h750v-127h-750zM401 937v154h158v-154h-158zM401 441v154h158v-154h-158z" />
    <glyph glyph-name="oslash" unicode="&#xf8;" horiz-adv-x="776" 
d="M139 323l476 623l57 -84l-493 -637zM389 -15q-105 0 -168.5 28.5t-93 90.5t-34.5 163q-2 67 -3.5 151t-1.5 174t1.5 178t3.5 163q6 102 35 164t92.5 90t168.5 28q106 0 169 -28.5t91.5 -90.5t33.5 -163q3 -71 4.5 -155t1.5 -173t-1.5 -175.5t-4.5 -162.5
q-5 -100 -34 -162.5t-91.5 -91t-168.5 -28.5zM389 109q73 0 103 29t32 95q3 96 4.5 186.5t2 179.5t-1.5 180t-5 189q-2 67 -32.5 95t-102.5 28q-73 0 -104 -29t-33 -96q-3 -89 -4.5 -178.5t-2 -180t1.5 -183.5t5 -190q3 -67 34 -96t103 -29z" />
    <glyph glyph-name="ugrave" unicode="&#xf9;" horiz-adv-x="808" 
d="M317 -15q-105 0 -160.5 59.5t-55.5 195.5v960h160l1 -973q0 -63 25.5 -91.5t81.5 -28.5t102.5 31t67.5 86v976h160v-1200h-160v111h-28q-34 -65 -82 -95.5t-112 -30.5zM326 1280l-156 234h122l150 -234h-116z" />
    <glyph glyph-name="uacute" unicode="&#xfa;" horiz-adv-x="808" 
d="M317 -15q-105 0 -160.5 59.5t-55.5 195.5v960h160l1 -973q0 -63 25.5 -91.5t81.5 -28.5t102.5 31t67.5 86v976h160v-1200h-160v111h-28q-34 -65 -82 -95.5t-112 -30.5zM347 1280l157 234h123l-165 -234h-115z" />
    <glyph glyph-name="ucircumflex" unicode="&#xfb;" horiz-adv-x="808" 
d="M317 -15q-105 0 -160.5 59.5t-55.5 195.5v960h160l1 -973q0 -63 25.5 -91.5t81.5 -28.5t102.5 31t67.5 86v976h160v-1200h-160v111h-28q-34 -65 -82 -95.5t-112 -30.5zM200 1281l145 235h104l145 -235h-116l-80 140l-82 -140h-116z" />
    <glyph glyph-name="udieresis" unicode="&#xfc;" horiz-adv-x="808" 
d="M317 -15q-105 0 -160.5 59.5t-55.5 195.5v960h160l1 -973q0 -63 25.5 -91.5t81.5 -28.5t102.5 31t67.5 86v976h160v-1200h-160v111h-28q-34 -65 -82 -95.5t-112 -30.5zM444 1310v129h129v-129h-129zM223 1310v129h129v-129h-129z" />
    <glyph glyph-name="yacute" unicode="&#xfd;" horiz-adv-x="708" 
d="M185 -410q-28 0 -68 4t-70 8v123q25 -3 64.5 -5.5t71.5 -2.5q78 0 106 27t39 96l25 160h-128l-174 1200h165l60 -578l59 -499h58l57 499l58 578h165l-185 -1349q-13 -90 -43.5 -147.5t-92.5 -85.5t-167 -28zM314 1280l157 234h123l-165 -234h-115z" />
    <glyph glyph-name="thorn" unicode="&#xfe;" horiz-adv-x="809" 
d="M104 -400v2000h161v-510h28q33 63 74.5 94t119.5 31q105 0 157.5 -58.5t57.5 -194.5q2 -63 3 -157.5t1 -199t-1 -201.5t-3 -165q-5 -135 -61.5 -194.5t-160.5 -59.5q-65 0 -108 29.5t-79 96.5h-28v-511h-161zM424 107q57 0 86 28.5t31 91.5q4 90 6 188t1.5 196.5t-2 191
t-5.5 172.5q-2 63 -26.5 90.5t-81.5 27.5q-60 0 -103.5 -28.5t-64.5 -87.5v-753q22 -64 60 -90.5t99 -26.5z" />
    <glyph glyph-name="ydieresis" unicode="&#xff;" horiz-adv-x="708" 
d="M185 -410q-28 0 -68 4t-70 8v123q25 -3 64.5 -5.5t71.5 -2.5q78 0 106 27t39 96l25 160h-128l-174 1200h165l60 -578l59 -499h58l57 499l58 578h165l-185 -1349q-13 -90 -43.5 -147.5t-92.5 -85.5t-167 -28zM412 1310v129h129v-129h-129zM191 1310v129h129v-129h-129z
" />
    <glyph glyph-name="Amacron" unicode="&#x100;" horiz-adv-x="754" 
d="M48 0l175 1600h309l174 -1600h-162l-41 448h-252l-40 -448h-163zM266 591h223l-32 344l-43 522h-73l-43 -522zM135 1770h489v-84h-489v84z" />
    <glyph glyph-name="amacron" unicode="&#x101;" horiz-adv-x="761" 
d="M303 -13q-108 0 -163.5 58t-64.5 178l-2 50t0 49q5 72 27 129t70 104t133 89q46 23 96.5 45t101.5 41v238q0 65 -26.5 94t-93.5 29q-59 0 -91 -25t-35 -91q-1 -26 -1.5 -62.5t0 -72t1.5 -57.5h-155q-1 39 -2 86.5t0 87.5q3 90 32.5 147t91.5 84t164 27q105 0 164 -29
t83.5 -90.5t24.5 -160.5v-935h-159v111h-24q-25 -59 -61.5 -91.5t-110.5 -32.5zM352 107q53 0 90 29t57 83l2 381q-38 -12 -77.5 -30.5t-87.5 -49.5q-61 -39 -81 -87t-23 -111q0 -23 0.5 -44.5t1.5 -44.5q5 -59 35.5 -92.5t82.5 -33.5zM130 1370h489v-84h-489v84z" />
    <glyph glyph-name="Abreve" unicode="&#x102;" horiz-adv-x="754" 
d="M48 0l175 1600h309l174 -1600h-162l-41 448h-252l-40 -448h-163zM266 591h223l-32 344l-43 522h-73l-43 -522zM378 1672q-123 0 -179.5 56t-61.5 178h106q1 -72 31.5 -108t103.5 -36q70 0 102 35t33 109h105q-6 -122 -62 -178t-178 -56z" />
    <glyph glyph-name="abreve" unicode="&#x103;" horiz-adv-x="761" 
d="M303 -13q-108 0 -163.5 58t-64.5 178l-2 50t0 49q5 72 27 129t70 104t133 89q46 23 96.5 45t101.5 41v238q0 65 -26.5 94t-93.5 29q-59 0 -91 -25t-35 -91q-1 -26 -1.5 -62.5t0 -72t1.5 -57.5h-155q-1 39 -2 86.5t0 87.5q3 90 32.5 147t91.5 84t164 27q105 0 164 -29
t83.5 -90.5t24.5 -160.5v-935h-159v111h-24q-25 -59 -61.5 -91.5t-110.5 -32.5zM352 107q53 0 90 29t57 83l2 381q-38 -12 -77.5 -30.5t-87.5 -49.5q-61 -39 -81 -87t-23 -111q0 -23 0.5 -44.5t1.5 -44.5q5 -59 35.5 -92.5t82.5 -33.5zM378 1289q-123 0 -179.5 56t-61.5 178
h106q1 -72 31.5 -108t103.5 -36q70 0 102 35t33 109h105q-6 -122 -62 -178t-178 -56z" />
    <glyph glyph-name="Aogonek" unicode="&#x104;" horiz-adv-x="754" 
d="M48 0l175 1600h309l174 -1600h-162l-41 448h-252l-40 -448h-163zM266 591h223l-32 344l-43 522h-73l-43 -522zM748 -292h-54q-103 0 -145.5 45t-26.5 139l23 109h99l-23 -109q-10 -49 8 -71t66 -22h53v-91z" />
    <glyph glyph-name="aogonek" unicode="&#x105;" horiz-adv-x="761" 
d="M303 -13q-108 0 -163.5 58t-64.5 178l-2 50t0 49q5 72 27 129t70 104t133 89q46 23 96.5 45t101.5 41v238q0 65 -26.5 94t-93.5 29q-59 0 -91 -25t-35 -91q-1 -26 -1.5 -62.5t0 -72t1.5 -57.5h-155q-1 39 -2 86.5t0 87.5q3 90 32.5 147t91.5 84t164 27q105 0 164 -29
t83.5 -90.5t24.5 -160.5v-935h-159v111h-24q-25 -59 -61.5 -91.5t-110.5 -32.5zM352 107q53 0 90 29t57 83l2 381q-38 -12 -77.5 -30.5t-87.5 -49.5q-61 -39 -81 -87t-23 -111q0 -23 0.5 -44.5t1.5 -44.5q5 -59 35.5 -92.5t82.5 -33.5zM697 -287h-54q-103 0 -145.5 45
t-26.5 139l23 109h99l-23 -109q-10 -49 8 -71t66 -22h53v-91z" />
    <glyph glyph-name="Cacute" unicode="&#x106;" horiz-adv-x="795" 
d="M402 -15q-156 0 -226.5 65t-73.5 215q-2 141 -3 273t-1 261.5t1 261.5t3 273q2 144 73.5 211.5t225.5 67.5t226 -66t77 -213q2 -45 2 -96t-0.5 -101.5t-2.5 -95.5h-159l2 102t1 102t-2 102q-2 73 -35 102t-109 29q-74 0 -106 -29t-34 -102q-3 -150 -4.5 -284.5
t-1.5 -263.5t1.5 -263t4.5 -284q2 -73 34.5 -102.5t106.5 -29.5q80 0 114.5 29.5t36.5 102.5q2 48 2 98.5t-1 107t-2 121.5h158q4 -89 4.5 -163.5t-2.5 -150.5q-5 -150 -77.5 -215t-232.5 -65zM347 1680l157 234h123l-165 -234h-115z" />
    <glyph glyph-name="cacute" unicode="&#x107;" horiz-adv-x="748" 
d="M510 783q2 32 2 66v66t-1 58q-1 66 -30.5 92t-98.5 26t-98 -26t-31 -93q-3 -97 -4 -188.5t-1 -181t1 -181t4 -190.5q2 -69 32.5 -95.5t98.5 -26.5t97 27t30 95q1 40 1 85t-2 104h157q3 -38 3.5 -87.5t-1.5 -86.5q-6 -139 -71.5 -200t-213.5 -61q-153 0 -219.5 61.5
t-72.5 199.5q-2 73 -3 163t-1 186.5t1 188t3 167.5q8 142 74.5 203t215.5 61q150 0 216.5 -60t70.5 -198q1 -40 1 -87.5t-3 -86.5h-157zM331 1280l157 234h123l-165 -234h-115z" />
    <glyph glyph-name="Ccircumflex" unicode="&#x108;" horiz-adv-x="795" 
d="M402 -15q-156 0 -226.5 65t-73.5 215q-2 141 -3 273t-1 261.5t1 261.5t3 273q2 144 73.5 211.5t225.5 67.5t226 -66t77 -213q2 -45 2 -96t-0.5 -101.5t-2.5 -95.5h-159l2 102t1 102t-2 102q-2 73 -35 102t-109 29q-74 0 -106 -29t-34 -102q-3 -150 -4.5 -284.5
t-1.5 -263.5t1.5 -263t4.5 -284q2 -73 34.5 -102.5t106.5 -29.5q80 0 114.5 29.5t36.5 102.5q2 48 2 98.5t-1 107t-2 121.5h158q4 -89 4.5 -163.5t-2.5 -150.5q-5 -150 -77.5 -215t-232.5 -65zM199 1681l145 235h104l145 -235h-116l-80 140l-82 -140h-116z" />
    <glyph glyph-name="ccircumflex" unicode="&#x109;" horiz-adv-x="748" 
d="M510 783q2 32 2 66v66t-1 58q-1 66 -30.5 92t-98.5 26t-98 -26t-31 -93q-3 -97 -4 -188.5t-1 -181t1 -181t4 -190.5q2 -69 32.5 -95.5t98.5 -26.5t97 27t30 95q1 40 1 85t-2 104h157q3 -38 3.5 -87.5t-1.5 -86.5q-6 -139 -71.5 -200t-213.5 -61q-153 0 -219.5 61.5
t-72.5 199.5q-2 73 -3 163t-1 186.5t1 188t3 167.5q8 142 74.5 203t215.5 61q150 0 216.5 -60t70.5 -198q1 -40 1 -87.5t-3 -86.5h-157zM184 1281l145 235h104l145 -235h-116l-80 140l-82 -140h-116z" />
    <glyph glyph-name="Cdotaccent" unicode="&#x10a;" horiz-adv-x="795" 
d="M402 -15q-156 0 -226.5 65t-73.5 215q-2 141 -3 273t-1 261.5t1 261.5t3 273q2 144 73.5 211.5t225.5 67.5t226 -66t77 -213q2 -45 2 -96t-0.5 -101.5t-2.5 -95.5h-159l2 102t1 102t-2 102q-2 73 -35 102t-109 29q-74 0 -106 -29t-34 -102q-3 -150 -4.5 -284.5
t-1.5 -263.5t1.5 -263t4.5 -284q2 -73 34.5 -102.5t106.5 -29.5q80 0 114.5 29.5t36.5 102.5q2 48 2 98.5t-1 107t-2 121.5h158q4 -89 4.5 -163.5t-2.5 -150.5q-5 -150 -77.5 -215t-232.5 -65zM333 1680v129h129v-129h-129z" />
    <glyph glyph-name="cdotaccent" unicode="&#x10b;" horiz-adv-x="748" 
d="M510 783q2 32 2 66v66t-1 58q-1 66 -30.5 92t-98.5 26t-98 -26t-31 -93q-3 -97 -4 -188.5t-1 -181t1 -181t4 -190.5q2 -69 32.5 -95.5t98.5 -26.5t97 27t30 95q1 40 1 85t-2 104h157q3 -38 3.5 -87.5t-1.5 -86.5q-6 -139 -71.5 -200t-213.5 -61q-153 0 -219.5 61.5
t-72.5 199.5q-2 73 -3 163t-1 186.5t1 188t3 167.5q8 142 74.5 203t215.5 61q150 0 216.5 -60t70.5 -198q1 -40 1 -87.5t-3 -86.5h-157zM317 1280v129h129v-129h-129z" />
    <glyph glyph-name="Ccaron" unicode="&#x10c;" horiz-adv-x="795" 
d="M402 -15q-156 0 -226.5 65t-73.5 215q-2 141 -3 273t-1 261.5t1 261.5t3 273q2 144 73.5 211.5t225.5 67.5t226 -66t77 -213q2 -45 2 -96t-0.5 -101.5t-2.5 -95.5h-159l2 102t1 102t-2 102q-2 73 -35 102t-109 29q-74 0 -106 -29t-34 -102q-3 -150 -4.5 -284.5
t-1.5 -263.5t1.5 -263t4.5 -284q2 -73 34.5 -102.5t106.5 -29.5q80 0 114.5 29.5t36.5 102.5q2 48 2 98.5t-1 107t-2 121.5h158q4 -89 4.5 -163.5t-2.5 -150.5q-5 -150 -77.5 -215t-232.5 -65zM350 1681l-145 234h108l86 -147l84 147h108l-145 -234h-96z" />
    <glyph glyph-name="ccaron" unicode="&#x10d;" horiz-adv-x="748" 
d="M510 783q2 32 2 66v66t-1 58q-1 66 -30.5 92t-98.5 26t-98 -26t-31 -93q-3 -97 -4 -188.5t-1 -181t1 -181t4 -190.5q2 -69 32.5 -95.5t98.5 -26.5t97 27t30 95q1 40 1 85t-2 104h157q3 -38 3.5 -87.5t-1.5 -86.5q-6 -139 -71.5 -200t-213.5 -61q-153 0 -219.5 61.5
t-72.5 199.5q-2 73 -3 163t-1 186.5t1 188t3 167.5q8 142 74.5 203t215.5 61q150 0 216.5 -60t70.5 -198q1 -40 1 -87.5t-3 -86.5h-157zM335 1281l-145 234h108l86 -147l84 147h108l-145 -234h-96z" />
    <glyph glyph-name="Dcaron" unicode="&#x10e;" horiz-adv-x="804" 
d="M113 0v1600h293q156 0 225 -64.5t71 -211.5q3 -187 4 -355.5t0 -336.5t-4 -354q-2 -149 -70 -213.5t-221 -64.5h-298zM272 143h139q70 0 100.5 28.5t31.5 91.5q3 144 4.5 276.5t1.5 261t-1.5 261t-4.5 276.5q-1 63 -32.5 91t-104.5 28h-134v-1314zM348 1681l-145 234h108
l86 -147l84 147h108l-145 -234h-96z" />
    <glyph glyph-name="dcaron" unicode="&#x10f;" horiz-adv-x="928" 
d="M305 -15q-105 0 -156.5 59.5t-56.5 194.5q-2 81 -3 173t-1 187.5t1 188t3 174.5q5 137 59.5 195t156.5 58q76 0 118.5 -31t75.5 -94h28v510h161v-1600h-161v111h-30q-32 -62 -75.5 -94t-119.5 -32zM362 107q57 0 101.5 28t66.5 89v753q-22 60 -66 88t-101 28t-82.5 -27.5
t-27.5 -90.5q-4 -127 -5.5 -258t0 -255.5t4.5 -231.5q3 -67 28.5 -95t81.5 -28zM752 1330l54 271h121l-61 -271h-114z" />
    <glyph glyph-name="Dcroat" unicode="&#x110;" horiz-adv-x="864" 
d="M71 946h380v-89h-380v89zM173 0v1600h293q156 0 225 -64.5t71 -211.5q3 -187 4 -355.5t0 -336.5t-4 -354q-2 -149 -70 -213.5t-221 -64.5h-298zM332 143h139q71 0 101.5 28.5t31.5 91.5q3 144 4.5 276.5t1.5 261t-1.5 261t-4.5 276.5q-1 63 -33 91t-105 28h-134v-1314z
" />
    <glyph glyph-name="dcroat" unicode="&#x111;" horiz-adv-x="797" 
d="M352 1445h408v-107h-408v107zM305 -15q-105 0 -156.5 59.5t-56.5 194.5q-2 81 -3 173t-1 187.5t1 188t3 174.5q5 137 59.5 195t156.5 58q76 0 118.5 -31t75.5 -94h28v510h161v-1600h-161v111h-30q-32 -62 -75.5 -94t-119.5 -32zM362 107q57 0 101.5 28t66.5 89v753
q-22 60 -66 88t-101 28t-82.5 -27.5t-27.5 -90.5q-4 -127 -5.5 -258t0 -255.5t4.5 -231.5q3 -67 28.5 -95t81.5 -28z" />
    <glyph glyph-name="Emacron" unicode="&#x112;" horiz-adv-x="678" 
d="M113 0v1600h514v-143h-355v-580h335v-143h-335v-591h355v-143h-514zM121 1769h489v-84h-489v84z" />
    <glyph glyph-name="emacron" unicode="&#x113;" horiz-adv-x="749" 
d="M386 -15q-153 0 -220 61.5t-74 200.5q-2 73 -3 163t-1 185.5t1 187.5t3 168q8 142 76 203t217 61q147 0 212.5 -61t71.5 -197q1 -26 2 -88t0.5 -141.5t-4.5 -158.5h-419q0 -81 1.5 -165t3.5 -173q2 -68 32.5 -94.5t98.5 -26.5q67 0 95.5 26.5t31.5 94.5q2 32 1.5 82
t-2.5 107h157q3 -36 3.5 -87t-1.5 -86q-7 -140 -70.5 -201t-212.5 -61zM249 690h264q1 57 1 114.5t-1 102.5t-2 65q-4 65 -33.5 92t-92.5 27q-71 0 -100.5 -28.5t-31.5 -90.5q-1 -73 -2.5 -143t-1.5 -139zM137 1370h489v-84h-489v84z" />
    <glyph glyph-name="Ebreve" unicode="&#x114;" horiz-adv-x="678" 
d="M113 0v1600h514v-143h-355v-580h335v-143h-335v-591h355v-143h-514zM365 1671q-123 0 -179.5 56t-61.5 178h106q1 -72 31.5 -108t103.5 -36q70 0 102 35t33 109h105q-6 -122 -62 -178t-178 -56z" />
    <glyph glyph-name="ebreve" unicode="&#x115;" horiz-adv-x="749" 
d="M386 -15q-153 0 -220 61.5t-74 200.5q-2 73 -3 163t-1 185.5t1 187.5t3 168q8 142 76 203t217 61q147 0 212.5 -61t71.5 -197q1 -26 2 -88t0.5 -141.5t-4.5 -158.5h-419q0 -81 1.5 -165t3.5 -173q2 -68 32.5 -94.5t98.5 -26.5q67 0 95.5 26.5t31.5 94.5q2 32 1.5 82
t-2.5 107h157q3 -36 3.5 -87t-1.5 -86q-7 -140 -70.5 -201t-212.5 -61zM249 690h264q1 57 1 114.5t-1 102.5t-2 65q-4 65 -33.5 92t-92.5 27q-71 0 -100.5 -28.5t-31.5 -90.5q-1 -73 -2.5 -143t-1.5 -139zM381 1272q-123 0 -179.5 56t-61.5 178h106q1 -72 31.5 -108
t103.5 -36q70 0 102 35t33 109h105q-6 -122 -62 -178t-178 -56z" />
    <glyph glyph-name="Edotaccent" unicode="&#x116;" horiz-adv-x="678" 
d="M113 0v1600h514v-143h-355v-580h335v-143h-335v-591h355v-143h-514zM299 1679v129h129v-129h-129z" />
    <glyph glyph-name="edotaccent" unicode="&#x117;" horiz-adv-x="749" 
d="M386 -15q-153 0 -220 61.5t-74 200.5q-2 73 -3 163t-1 185.5t1 187.5t3 168q8 142 76 203t217 61q147 0 212.5 -61t71.5 -197q1 -26 2 -88t0.5 -141.5t-4.5 -158.5h-419q0 -81 1.5 -165t3.5 -173q2 -68 32.5 -94.5t98.5 -26.5q67 0 95.5 26.5t31.5 94.5q2 32 1.5 82
t-2.5 107h157q3 -36 3.5 -87t-1.5 -86q-7 -140 -70.5 -201t-212.5 -61zM249 690h264q1 57 1 114.5t-1 102.5t-2 65q-4 65 -33.5 92t-92.5 27q-71 0 -100.5 -28.5t-31.5 -90.5q-1 -73 -2.5 -143t-1.5 -139zM316 1280v129h129v-129h-129z" />
    <glyph glyph-name="Eogonek" unicode="&#x118;" horiz-adv-x="678" 
d="M113 0v1600h514v-143h-355v-580h335v-143h-335v-591h355v-143h-514zM631 -292h-54q-103 0 -145.5 45t-26.5 139l23 109h99l-23 -109q-10 -49 8 -71t66 -22h53v-91z" />
    <glyph glyph-name="eogonek" unicode="&#x119;" horiz-adv-x="749" 
d="M386 -15q-153 0 -220 61.5t-74 200.5q-2 73 -3 163t-1 185.5t1 187.5t3 168q8 142 76 203t217 61q147 0 212.5 -61t71.5 -197q1 -26 2 -88t0.5 -141.5t-4.5 -158.5h-419q0 -81 1.5 -165t3.5 -173q2 -68 32.5 -94.5t98.5 -26.5q67 0 95.5 26.5t31.5 94.5q2 32 1.5 82
t-2.5 107h157q3 -36 3.5 -87t-1.5 -86q-7 -140 -70.5 -201t-212.5 -61zM249 690h264q1 57 1 114.5t-1 102.5t-2 65q-4 65 -33.5 92t-92.5 27q-71 0 -100.5 -28.5t-31.5 -90.5q-1 -73 -2.5 -143t-1.5 -139zM655 -262h-54q-103 0 -145.5 45t-26.5 139l23 109h99l-23 -109
q-10 -49 8 -71t66 -22h53v-91z" />
    <glyph glyph-name="Ecaron" unicode="&#x11a;" horiz-adv-x="678" 
d="M113 0v1600h514v-143h-355v-580h335v-143h-335v-591h355v-143h-514zM317 1680l-145 234h108l86 -147l84 147h108l-145 -234h-96z" />
    <glyph glyph-name="ecaron" unicode="&#x11b;" horiz-adv-x="749" 
d="M386 -15q-153 0 -220 61.5t-74 200.5q-2 73 -3 163t-1 185.5t1 187.5t3 168q8 142 76 203t217 61q147 0 212.5 -61t71.5 -197q1 -26 2 -88t0.5 -141.5t-4.5 -158.5h-419q0 -81 1.5 -165t3.5 -173q2 -68 32.5 -94.5t98.5 -26.5q67 0 95.5 26.5t31.5 94.5q2 32 1.5 82
t-2.5 107h157q3 -36 3.5 -87t-1.5 -86q-7 -140 -70.5 -201t-212.5 -61zM249 690h264q1 57 1 114.5t-1 102.5t-2 65q-4 65 -33.5 92t-92.5 27q-71 0 -100.5 -28.5t-31.5 -90.5q-1 -73 -2.5 -143t-1.5 -139zM333 1281l-145 234h108l86 -147l84 147h108l-145 -234h-96z" />
    <glyph glyph-name="Gcircumflex" unicode="&#x11c;" horiz-adv-x="794" 
d="M406 -14q-108 0 -173.5 28.5t-96 90.5t-33.5 162q-3 131 -4 264.5t-1 266.5t1 266t4 264q3 103 33.5 166t96 91.5t172.5 28.5q155 0 223.5 -64.5t75.5 -214.5q3 -75 3 -146t-3 -147h-159q3 81 3 155.5t-3 155.5q-3 69 -33.5 98t-106.5 29q-78 0 -109.5 -29t-33.5 -98
q-4 -146 -5.5 -282.5t-1.5 -270t1.5 -270t5.5 -281.5q2 -70 33.5 -99t110.5 -29q81 0 114 29t36 99q1 49 1.5 97t0 96t-1.5 97h-145v143h301q2 -103 1.5 -204t-2.5 -211q-6 -151 -75.5 -216t-229.5 -65zM202 1681l145 235h104l145 -235h-116l-80 140l-82 -140h-116z" />
    <glyph glyph-name="gcircumflex" unicode="&#x11d;" horiz-adv-x="797" 
d="M383 -337q-140 0 -220 41.5t-89 128.5q-1 12 -2 24.5t0 25.5q3 54 41 87.5t88 40.5v28q-52 15 -75.5 41t-27.5 64q-1 8 -1 18v20q4 41 34.5 69.5t74.5 34.5v29q-60 28 -88.5 84.5t-33.5 147.5q-1 47 -2 98t-1 103t1 103.5t2 98.5q6 95 36.5 153.5t92.5 85t163 26.5
q105 0 167.5 -28.5t91.5 -91.5h28q5 52 39 78.5t92 26.5v-125h-26q-45 0 -71.5 -33t-27.5 -104l-1 -74q1 -20 1 -58.5v-84.5t-0.5 -91.5t-2.5 -82.5q-5 -95 -35.5 -153t-92 -83.5t-163.5 -25.5q-79 1 -115 -17t-36 -59v-10q0 -25 16 -40t51.5 -22t95.5 -10q158 -4 236 -49
t88 -152q2 -14 2 -29t-2 -31q-6 -77 -48 -121.5t-113.5 -63t-166.5 -18.5zM385 -221q58 0 98.5 8.5t64 29.5t28.5 58q2 13 1.5 24t-2.5 23q-4 35 -25.5 53t-61.5 25.5t-102 9.5q-80 2 -126 -15t-52 -76q-1 -14 -1 -24t1 -21q4 -39 26 -59.5t60.5 -28t90.5 -7.5zM376 408
q72 0 101 28.5t33 94.5q2 39 3.5 97t1.5 121.5t-1.5 122t-3.5 98.5q-3 66 -32.5 93.5t-101.5 27.5q-71 0 -102 -28t-34 -97q-2 -40 -3 -98t-1 -120.5t1 -119.5t3 -96q4 -66 34 -95t102 -29zM178 1281l145 235h104l145 -235h-116l-80 140l-82 -140h-116z" />
    <glyph glyph-name="Gbreve" unicode="&#x11e;" horiz-adv-x="794" 
d="M406 -14q-108 0 -173.5 28.5t-96 90.5t-33.5 162q-3 131 -4 264.5t-1 266.5t1 266t4 264q3 103 33.5 166t96 91.5t172.5 28.5q155 0 223.5 -64.5t75.5 -214.5q3 -75 3 -146t-3 -147h-159q3 81 3 155.5t-3 155.5q-3 69 -33.5 98t-106.5 29q-78 0 -109.5 -29t-33.5 -98
q-4 -146 -5.5 -282.5t-1.5 -270t1.5 -270t5.5 -281.5q2 -70 33.5 -99t110.5 -29q81 0 114 29t36 99q1 49 1.5 97t0 96t-1.5 97h-145v143h301q2 -103 1.5 -204t-2.5 -211q-6 -151 -75.5 -216t-229.5 -65zM401 1672q-123 0 -179.5 56t-61.5 178h106q1 -72 31.5 -108t103.5 -36
q70 0 102 35t33 109h105q-6 -122 -62 -178t-178 -56z" />
    <glyph glyph-name="gbreve" unicode="&#x11f;" horiz-adv-x="797" 
d="M383 -337q-140 0 -220 41.5t-89 128.5q-1 12 -2 24.5t0 25.5q3 54 41 87.5t88 40.5v28q-52 15 -75.5 41t-27.5 64q-1 8 -1 18v20q4 41 34.5 69.5t74.5 34.5v29q-60 28 -88.5 84.5t-33.5 147.5q-1 47 -2 98t-1 103t1 103.5t2 98.5q6 95 36.5 153.5t92.5 85t163 26.5
q105 0 167.5 -28.5t91.5 -91.5h28q5 52 39 78.5t92 26.5v-125h-26q-45 0 -71.5 -33t-27.5 -104l-1 -74q1 -20 1 -58.5v-84.5t-0.5 -91.5t-2.5 -82.5q-5 -95 -35.5 -153t-92 -83.5t-163.5 -25.5q-79 1 -115 -17t-36 -59v-10q0 -25 16 -40t51.5 -22t95.5 -10q158 -4 236 -49
t88 -152q2 -14 2 -29t-2 -31q-6 -77 -48 -121.5t-113.5 -63t-166.5 -18.5zM385 -221q58 0 98.5 8.5t64 29.5t28.5 58q2 13 1.5 24t-2.5 23q-4 35 -25.5 53t-61.5 25.5t-102 9.5q-80 2 -126 -15t-52 -76q-1 -14 -1 -24t1 -21q4 -39 26 -59.5t60.5 -28t90.5 -7.5zM376 408
q72 0 101 28.5t33 94.5q2 39 3.5 97t1.5 121.5t-1.5 122t-3.5 98.5q-3 66 -32.5 93.5t-101.5 27.5q-71 0 -102 -28t-34 -97q-2 -40 -3 -98t-1 -120.5t1 -119.5t3 -96q4 -66 34 -95t102 -29zM376 1272q-123 0 -179.5 56t-61.5 178h106q1 -72 31.5 -108t103.5 -36q70 0 102 35
t33 109h105q-6 -122 -62 -178t-178 -56z" />
    <glyph glyph-name="Gdotaccent" unicode="&#x120;" horiz-adv-x="794" 
d="M406 -14q-108 0 -173.5 28.5t-96 90.5t-33.5 162q-3 131 -4 264.5t-1 266.5t1 266t4 264q3 103 33.5 166t96 91.5t172.5 28.5q155 0 223.5 -64.5t75.5 -214.5q3 -75 3 -146t-3 -147h-159q3 81 3 155.5t-3 155.5q-3 69 -33.5 98t-106.5 29q-78 0 -109.5 -29t-33.5 -98
q-4 -146 -5.5 -282.5t-1.5 -270t1.5 -270t5.5 -281.5q2 -70 33.5 -99t110.5 -29q81 0 114 29t36 99q1 49 1.5 97t0 96t-1.5 97h-145v143h301q2 -103 1.5 -204t-2.5 -211q-6 -151 -75.5 -216t-229.5 -65zM335 1680v129h129v-129h-129z" />
    <glyph glyph-name="gdotaccent" unicode="&#x121;" horiz-adv-x="797" 
d="M383 -337q-140 0 -220 41.5t-89 128.5q-1 12 -2 24.5t0 25.5q3 54 41 87.5t88 40.5v28q-52 15 -75.5 41t-27.5 64q-1 8 -1 18v20q4 41 34.5 69.5t74.5 34.5v29q-60 28 -88.5 84.5t-33.5 147.5q-1 47 -2 98t-1 103t1 103.5t2 98.5q6 95 36.5 153.5t92.5 85t163 26.5
q105 0 167.5 -28.5t91.5 -91.5h28q5 52 39 78.5t92 26.5v-125h-26q-45 0 -71.5 -33t-27.5 -104l-1 -74q1 -20 1 -58.5v-84.5t-0.5 -91.5t-2.5 -82.5q-5 -95 -35.5 -153t-92 -83.5t-163.5 -25.5q-79 1 -115 -17t-36 -59v-10q0 -25 16 -40t51.5 -22t95.5 -10q158 -4 236 -49
t88 -152q2 -14 2 -29t-2 -31q-6 -77 -48 -121.5t-113.5 -63t-166.5 -18.5zM385 -221q58 0 98.5 8.5t64 29.5t28.5 58q2 13 1.5 24t-2.5 23q-4 35 -25.5 53t-61.5 25.5t-102 9.5q-80 2 -126 -15t-52 -76q-1 -14 -1 -24t1 -21q4 -39 26 -59.5t60.5 -28t90.5 -7.5zM376 408
q72 0 101 28.5t33 94.5q2 39 3.5 97t1.5 121.5t-1.5 122t-3.5 98.5q-3 66 -32.5 93.5t-101.5 27.5q-71 0 -102 -28t-34 -97q-2 -40 -3 -98t-1 -120.5t1 -119.5t3 -96q4 -66 34 -95t102 -29zM311 1280v129h129v-129h-129z" />
    <glyph glyph-name="uni0122" unicode="&#x122;" horiz-adv-x="794" 
d="M406 -14q-108 0 -173.5 28.5t-96 90.5t-33.5 162q-3 131 -4 264.5t-1 266.5t1 266t4 264q3 103 33.5 166t96 91.5t172.5 28.5q155 0 223.5 -64.5t75.5 -214.5q3 -75 3 -146t-3 -147h-159q3 81 3 155.5t-3 155.5q-3 69 -33.5 98t-106.5 29q-78 0 -109.5 -29t-33.5 -98
q-4 -146 -5.5 -282.5t-1.5 -270t1.5 -270t5.5 -281.5q2 -70 33.5 -99t110.5 -29q81 0 114 29t36 99q1 49 1.5 97t0 96t-1.5 97h-145v143h301q2 -103 1.5 -204t-2.5 -211q-6 -151 -75.5 -216t-229.5 -65zM334 -366l61 129h-87v157h200v-138l-76 -148h-98z" />
    <glyph glyph-name="uni0123" unicode="&#x123;" horiz-adv-x="797" 
d="M383 -337q-140 0 -220 41.5t-89 128.5q-1 12 -2 24.5t0 25.5q3 54 41 87.5t88 40.5v28q-52 15 -75.5 41t-27.5 64q-1 8 -1 18v20q4 41 34.5 69.5t74.5 34.5v29q-60 28 -88.5 84.5t-33.5 147.5q-1 47 -2 98t-1 103t1 103.5t2 98.5q6 95 36.5 153.5t92.5 85t163 26.5
q105 0 167.5 -28.5t91.5 -91.5h28q5 52 39 78.5t92 26.5v-125h-26q-45 0 -71.5 -33t-27.5 -104l-1 -74q1 -20 1 -58.5v-84.5t-0.5 -91.5t-2.5 -82.5q-5 -95 -35.5 -153t-92 -83.5t-163.5 -25.5q-79 1 -115 -17t-36 -59v-10q0 -25 16 -40t51.5 -22t95.5 -10q158 -4 236 -49
t88 -152q2 -14 2 -29t-2 -31q-6 -77 -48 -121.5t-113.5 -63t-166.5 -18.5zM385 -221q58 0 98.5 8.5t64 29.5t28.5 58q2 13 1.5 24t-2.5 23q-4 35 -25.5 53t-61.5 25.5t-102 9.5q-80 2 -126 -15t-52 -76q-1 -14 -1 -24t1 -21q4 -39 26 -59.5t60.5 -28t90.5 -7.5zM376 408
q72 0 101 28.5t33 94.5q2 39 3.5 97t1.5 121.5t-1.5 122t-3.5 98.5q-3 66 -32.5 93.5t-101.5 27.5q-71 0 -102 -28t-34 -97q-2 -40 -3 -98t-1 -120.5t1 -119.5t3 -96q4 -66 34 -95t102 -29zM454 1578l-62 -129h88v-157h-200v139l76 147h98z" />
    <glyph glyph-name="Hcircumflex" unicode="&#x124;" horiz-adv-x="819" 
d="M113 0v1600h159v-723h275v723h159v-1600h-159v734h-275v-734h-159zM212 1681l145 235h104l145 -235h-116l-80 140l-82 -140h-116z" />
    <glyph glyph-name="hcircumflex" unicode="&#x125;" horiz-adv-x="812" 
d="M109 0v1600h161v-510h33q33 63 75 94t119 31q106 0 158.5 -59.5t52.5 -193.5l1 -962h-160l-1 974q0 64 -26 91.5t-84 27.5q-60 0 -103.5 -28.5t-64.5 -87.5v-977h-161zM217 1681l145 235h104l145 -235h-116l-80 140l-82 -140h-116z" />
    <glyph glyph-name="Hbar" unicode="&#x126;" horiz-adv-x="966" 
d="M101 1236h765v-89h-765v89zM189 0v1600h159v-723h275v723h159v-1600h-159v734h-275v-734h-159z" />
    <glyph glyph-name="hbar" unicode="&#x127;" horiz-adv-x="812" 
d="M109 0v1600h161v-510h33q33 63 75 94t119 31q106 0 158.5 -59.5t52.5 -193.5l1 -962h-160l-1 974q0 64 -26 91.5t-84 27.5q-60 0 -103.5 -28.5t-64.5 -87.5v-977h-161zM35 1423h407v-108h-407v108z" />
    <glyph glyph-name="Itilde" unicode="&#x128;" horiz-adv-x="385" 
d="M113 0v1600h159v-1600h-159zM331 1847h75q-2 -81 -34.5 -120t-90.5 -39q-38 0 -60 12t-38 28t-32 27.5t-40 11.5q-22 0 -36 -16t-19 -55h-75q7 87 42 124.5t92 37.5q39 0 61.5 -11.5t37.5 -27.5t29.5 -28t38.5 -12q26 0 37 18t12 50z" />
    <glyph glyph-name="itilde" unicode="&#x129;" horiz-adv-x="377" 
d="M109 0v1200h159v-1200h-159zM327 1447h75q-2 -81 -34.5 -120t-90.5 -39q-38 0 -60 12t-38 28t-32 27.5t-40 11.5q-22 0 -36 -16t-19 -55h-75q7 87 42 124.5t92 37.5q39 0 61.5 -11.5t37.5 -27.5t29.5 -28t38.5 -12q26 0 37 18t12 50z" />
    <glyph glyph-name="Imacron" unicode="&#x12a;" horiz-adv-x="385" 
d="M113 0v1600h159v-1600h-159zM-50 1770h489v-84h-489v84z" />
    <glyph glyph-name="imacron" unicode="&#x12b;" horiz-adv-x="377" 
d="M109 0v1200h159v-1200h-159zM-54 1370h489v-84h-489v84z" />
    <glyph glyph-name="Ibreve" unicode="&#x12c;" horiz-adv-x="385" 
d="M113 0v1600h159v-1600h-159zM193 1672q-123 0 -179.5 56t-61.5 178h106q1 -72 31.5 -108t103.5 -36q70 0 102 35t33 109h105q-6 -122 -62 -178t-178 -56z" />
    <glyph glyph-name="ibreve" unicode="&#x12d;" horiz-adv-x="377" 
d="M109 0v1200h159v-1200h-159zM189 1272q-123 0 -179.5 56t-61.5 178h106q1 -72 31.5 -108t103.5 -36q70 0 102 35t33 109h105q-6 -122 -62 -178t-178 -56z" />
    <glyph glyph-name="Iogonek" unicode="&#x12e;" horiz-adv-x="385" 
d="M113 0v1600h159v-1600h-159zM317 -293h-54q-103 0 -145.5 45t-26.5 139l23 109h99l-23 -109q-10 -49 8 -71t66 -22h53v-91z" />
    <glyph glyph-name="iogonek" unicode="&#x12f;" horiz-adv-x="367" 
d="M76 1435v165h217v-165h-217zM109 0v1200h159v-1200h-159zM307 -292h-54q-103 0 -145.5 45t-26.5 139l23 109h99l-23 -109q-10 -50 8 -71.5t66 -21.5h53v-91z" />
    <glyph glyph-name="Idotaccent" unicode="&#x130;" horiz-adv-x="385" 
d="M113 0v1600h159v-1600h-159zM128 1680v129h129v-129h-129z" />
    <glyph glyph-name="dotlessi" unicode="&#x131;" horiz-adv-x="377" 
d="M109 0v1200h159v-1200h-159z" />
    <glyph glyph-name="Jcircumflex" unicode="&#x134;" horiz-adv-x="729" 
d="M340 -14q-100 0 -161.5 28.5t-90.5 90.5t-32 162q-2 82 -2 156.5t2 156.5h152q-2 -53 -2.5 -109.5t0 -112.5t2.5 -109q2 -69 31.5 -98.5t100.5 -29.5q76 0 105.5 29.5t29.5 98.5v1351h159v-1333q0 -151 -67.5 -216t-226.5 -65zM193 1681l145 235h104l145 -235h-116
l-80 140l-82 -140h-116z" />
    <glyph glyph-name="jcircumflex" unicode="&#x135;" horiz-adv-x="380" 
d="M-18 -412q-28 0 -66.5 3.5t-67.5 7.5v122q26 -2 61.5 -3.5t70.5 -1.5q70 0 100 27t30 92v1365h161v-1352q-1 -138 -69.5 -199t-219.5 -61zM-8 1281l145 235h104l145 -235h-116l-80 140l-82 -140h-116z" />
    <glyph glyph-name="uni0136" unicode="&#x136;" horiz-adv-x="766" 
d="M113 0v1600h167l-2 -378l-16 -438h44l134 470l114 346h172l-240 -711l264 -889h-164l-202 699l-109 -278v-421h-162zM352 -366l61 129h-87v157h200v-138l-76 -148h-98z" />
    <glyph glyph-name="uni0137" unicode="&#x137;" horiz-adv-x="709" 
d="M109 0v1600h151v-356l-16 -572h34l101 267l111 261h167l-225 -490l274 -710h-167l-205 542l-70 -135v-407h-155zM315 -366l61 129h-87v157h200v-138l-76 -148h-98z" />
    <glyph glyph-name="kgreenlandic" unicode="&#x138;" horiz-adv-x="766" 
d="M109 0v1200h151v-227l-16 -319h34l91 230l159 316h168l-262 -510l272 -690h-167l-203 523l-72 -141v-382h-155z" />
    <glyph glyph-name="Lacute" unicode="&#x139;" horiz-adv-x="641" 
d="M113 0v1600h159v-1457h353v-143h-512zM305 1680l157 234h123l-165 -234h-115z" />
    <glyph glyph-name="lacute" unicode="&#x13a;" horiz-adv-x="377" 
d="M109 0v1600h159v-1600h-159zM138 1680l157 234h123l-165 -234h-115z" />
    <glyph glyph-name="uni013B" unicode="&#x13b;" horiz-adv-x="641" 
d="M113 0v1600h159v-1457h353v-143h-512zM304 -366l61 129h-87v157h200v-138l-76 -148h-98z" />
    <glyph glyph-name="uni013C" unicode="&#x13c;" horiz-adv-x="377" 
d="M109 0v1600h159v-1600h-159zM122 -366l61 129h-87v157h200v-138l-76 -148h-98z" />
    <glyph glyph-name="Lcaron" unicode="&#x13d;" horiz-adv-x="641" 
d="M113 0v1600h159v-1457h353v-143h-512zM430 1327l54 271h121l-61 -271h-114z" />
    <glyph glyph-name="lcaron" unicode="&#x13e;" horiz-adv-x="500" 
d="M109 0v1600h159v-1600h-159zM325 1330l54 271h121l-61 -271h-114z" />
    <glyph glyph-name="Ldot" unicode="&#x13f;" horiz-adv-x="641" 
d="M113 0v1600h159v-1457h353v-143h-512zM488 763v137h137v-137h-137z" />
    <glyph glyph-name="ldot" unicode="&#x140;" horiz-adv-x="514" 
d="M109 0v1600h159v-1600h-159zM354 757v137h137v-137h-137z" />
    <glyph glyph-name="Lslash" unicode="&#x141;" horiz-adv-x="704" 
d="M175 0v508l-37 -126h-121l158 390v828h159v-529l40 129h129l-169 -408v-649h353v-143h-512z" />
    <glyph glyph-name="lslash" unicode="&#x142;" horiz-adv-x="506" 
d="M167 0v502l-36 -120h-121l157 386v832h159v-534l41 134h129l-170 -414v-786h-159z" />
    <glyph glyph-name="Nacute" unicode="&#x143;" horiz-adv-x="941" 
d="M113 0v1600h297l91 -507l133 -950h69l-24 882l-10 575h159v-1600h-307l-100 570l-112 888h-71l22 -858l11 -600h-158zM431 1680l157 234h123l-165 -234h-115z" />
    <glyph glyph-name="nacute" unicode="&#x144;" horiz-adv-x="812" 
d="M109 0v1200h160v-110h33q33 61 77.5 93t117.5 32q106 0 158.5 -59.5t53.5 -193.5v-962h-159l-1 974q0 64 -26.5 91.5t-84.5 27.5q-54 0 -101.5 -30.5t-67.5 -85.5v-977h-160zM360 1280l157 234h123l-165 -234h-115z" />
    <glyph glyph-name="uni0145" unicode="&#x145;" horiz-adv-x="941" 
d="M113 0v1600h297l91 -507l133 -950h69l-24 882l-10 575h159v-1600h-307l-100 570l-112 888h-71l22 -858l11 -600h-158zM408 -366l61 129h-87v157h200v-138l-76 -148h-98z" />
    <glyph glyph-name="uni0146" unicode="&#x146;" horiz-adv-x="812" 
d="M109 0v1200h160v-110h33q33 61 77.5 93t117.5 32q106 0 158.5 -59.5t53.5 -193.5v-962h-159l-1 974q0 64 -26.5 91.5t-84.5 27.5q-54 0 -101.5 -30.5t-67.5 -85.5v-977h-160zM345 -366l61 129h-87v157h200v-138l-76 -148h-98z" />
    <glyph glyph-name="Ncaron" unicode="&#x147;" horiz-adv-x="941" 
d="M113 0v1600h297l91 -507l133 -950h69l-24 882l-10 575h159v-1600h-307l-100 570l-112 888h-71l22 -858l11 -600h-158zM435 1681l-145 234h108l86 -147l84 147h108l-145 -234h-96z" />
    <glyph glyph-name="ncaron" unicode="&#x148;" horiz-adv-x="812" 
d="M109 0v1200h160v-110h33q33 61 77.5 93t117.5 32q106 0 158.5 -59.5t53.5 -193.5v-962h-159l-1 974q0 64 -26.5 91.5t-84.5 27.5q-54 0 -101.5 -30.5t-67.5 -85.5v-977h-160zM364 1281l-145 234h108l86 -147l84 147h108l-145 -234h-96z" />
    <glyph glyph-name="Eng" unicode="&#x14a;" horiz-adv-x="941" 
d="M578 -406q-25 0 -61.5 3t-62.5 8v112q23 -2 54.5 -4t66.5 -2q63 0 92.5 23.5t29.5 80.5v251h131v-243q0 -117 -56 -173t-194 -56zM113 0v1600h297l91 -507l133 -950h69l-24 882l-10 575h159v-1600h-307l-100 570l-112 888h-71l22 -858l11 -600h-158z" />
    <glyph glyph-name="eng" unicode="&#x14b;" horiz-adv-x="810" 
d="M403 -411q-27 0 -65 4t-67 9v119q24 -2 60 -3.5t69 -1.5q82 0 114 26t32 95v1137q0 63 -25 91t-83 28q-54 0 -101 -30.5t-67 -85.5v-977h-161v1200h161v-110h33q32 61 76.5 93t117.5 32q106 0 158 -59t52 -194v-1112q0 -139 -72.5 -200t-231.5 -61z" />
    <glyph glyph-name="Omacron" unicode="&#x14c;" horiz-adv-x="807" 
d="M403 -14q-158 0 -228 66t-72 217q-3 146 -4 276.5t-1 257t1 256t4 271.5q2 153 72 218.5t228 65.5t227.5 -65.5t72.5 -218.5q3 -142 4.5 -272t1.5 -256t-1.5 -257t-4.5 -276q-3 -151 -72.5 -217t-227.5 -66zM403 121q77 0 108.5 30t32.5 105q4 149 6 282.5t2 262.5
t-2 262.5t-6 279.5q-1 76 -32.5 106.5t-108.5 30.5q-76 0 -108 -30.5t-34 -106.5q-4 -144 -5.5 -276.5t-1.5 -261.5t2 -264t5 -285q2 -75 34 -105t108 -30zM161 1770h489v-84h-489v84z" />
    <glyph glyph-name="omacron" unicode="&#x14d;" horiz-adv-x="776" 
d="M389 -15q-105 0 -168.5 28.5t-93 90.5t-34.5 163q-2 67 -3.5 151t-1.5 174t1.5 178t3.5 163q6 102 35 164t92.5 90t168.5 28q106 0 169 -28.5t91.5 -90.5t33.5 -163q3 -71 4.5 -155t1.5 -173t-1.5 -175.5t-4.5 -162.5q-5 -100 -34 -162.5t-91.5 -91t-168.5 -28.5z
M389 109q73 0 103 29t32 95q3 96 4.5 186.5t2 179.5t-1.5 180t-5 189q-2 67 -32.5 95t-102.5 28q-73 0 -104 -29t-33 -96q-3 -89 -4.5 -178.5t-2 -180t1.5 -183.5t5 -190q3 -67 34 -96t103 -29zM146 1370h489v-84h-489v84z" />
    <glyph glyph-name="Obreve" unicode="&#x14e;" horiz-adv-x="807" 
d="M403 -14q-158 0 -228 66t-72 217q-3 146 -4 276.5t-1 257t1 256t4 271.5q2 153 72 218.5t228 65.5t227.5 -65.5t72.5 -218.5q3 -142 4.5 -272t1.5 -256t-1.5 -257t-4.5 -276q-3 -151 -72.5 -217t-227.5 -66zM403 121q77 0 108.5 30t32.5 105q4 149 6 282.5t2 262.5
t-2 262.5t-6 279.5q-1 76 -32.5 106.5t-108.5 30.5q-76 0 -108 -30.5t-34 -106.5q-4 -144 -5.5 -276.5t-1.5 -261.5t2 -264t5 -285q2 -75 34 -105t108 -30zM405 1672q-123 0 -179.5 56t-61.5 178h106q1 -72 31.5 -108t103.5 -36q70 0 102 35t33 109h105q-6 -122 -62 -178
t-178 -56z" />
    <glyph glyph-name="obreve" unicode="&#x14f;" horiz-adv-x="776" 
d="M389 -15q-105 0 -168.5 28.5t-93 90.5t-34.5 163q-2 67 -3.5 151t-1.5 174t1.5 178t3.5 163q6 102 35 164t92.5 90t168.5 28q106 0 169 -28.5t91.5 -90.5t33.5 -163q3 -71 4.5 -155t1.5 -173t-1.5 -175.5t-4.5 -162.5q-5 -100 -34 -162.5t-91.5 -91t-168.5 -28.5z
M389 109q73 0 103 29t32 95q3 96 4.5 186.5t2 179.5t-1.5 180t-5 189q-2 67 -32.5 95t-102.5 28q-73 0 -104 -29t-33 -96q-3 -89 -4.5 -178.5t-2 -180t1.5 -183.5t5 -190q3 -67 34 -96t103 -29zM389 1272q-123 0 -179.5 56t-61.5 178h106q1 -72 31.5 -108t103.5 -36
q70 0 102 35t33 109h105q-6 -122 -62 -178t-178 -56z" />
    <glyph glyph-name="Ohungarumlaut" unicode="&#x150;" horiz-adv-x="807" 
d="M403 -14q-158 0 -228 66t-72 217q-3 146 -4 276.5t-1 257t1 256t4 271.5q2 153 72 218.5t228 65.5t227.5 -65.5t72.5 -218.5q3 -142 4.5 -272t1.5 -256t-1.5 -257t-4.5 -276q-3 -151 -72.5 -217t-227.5 -66zM403 121q77 0 108.5 30t32.5 105q4 149 6 282.5t2 262.5
t-2 262.5t-6 279.5q-1 76 -32.5 106.5t-108.5 30.5q-76 0 -108 -30.5t-34 -106.5q-4 -144 -5.5 -276.5t-1.5 -261.5t2 -264t5 -285q2 -75 34 -105t108 -30zM233 1681l175 236h119l-175 -236h-119zM455 1681l176 236h120l-176 -236h-120z" />
    <glyph glyph-name="ohungarumlaut" unicode="&#x151;" horiz-adv-x="776" 
d="M389 -15q-105 0 -168.5 28.5t-93 90.5t-34.5 163q-2 67 -3.5 151t-1.5 174t1.5 178t3.5 163q6 102 35 164t92.5 90t168.5 28q106 0 169 -28.5t91.5 -90.5t33.5 -163q3 -71 4.5 -155t1.5 -173t-1.5 -175.5t-4.5 -162.5q-5 -100 -34 -162.5t-91.5 -91t-168.5 -28.5z
M389 109q73 0 103 29t32 95q3 96 4.5 186.5t2 179.5t-1.5 180t-5 189q-2 67 -32.5 95t-102.5 28q-73 0 -104 -29t-33 -96q-3 -89 -4.5 -178.5t-2 -180t1.5 -183.5t5 -190q3 -67 34 -96t103 -29zM218 1281l175 236h119l-175 -236h-119zM440 1281l176 236h120l-176 -236h-120z
" />
    <glyph glyph-name="OE" unicode="&#x152;" horiz-adv-x="1116" 
d="M403 -14q-158 0 -228 66t-72 217q-3 146 -4 276.5t-1 257t1 256t4 271.5q2 152 72 218t228 66q104 0 166 -33l1 19h494v-143h-354v-580h334v-143h-334v-591h354v-143h-495l-1 19q-60 -33 -165 -33zM403 121q77 0 108.5 30t32.5 105q2 41 3 109.5t1 155t0.5 182t0 190.5
t-1 182t-1 156.5t-2.5 111.5q-1 76 -32.5 106.5t-108.5 30.5q-76 0 -108 -30.5t-34 -106.5q-4 -144 -5.5 -276.5t-1.5 -261.5t2 -264t5 -285q2 -75 34 -105t108 -30z" />
    <glyph glyph-name="oe" unicode="&#x153;" horiz-adv-x="1192" 
d="M389 -15q-105 0 -168.5 28.5t-93 90.5t-34.5 163q-2 67 -3.5 151t-1.5 174t1.5 178t3.5 163q6 102 35 164t92.5 90t168.5 28q106 0 169 -28.5t91.5 -90.5t33.5 -163q3 -71 4.5 -155t1.5 -173t-1.5 -175.5t-4.5 -162.5q-5 -100 -34 -162.5t-91.5 -91t-168.5 -28.5z
M389 109q73 0 103 29t32 95q3 96 4.5 186.5t2 179.5t-1.5 180t-5 189q-2 67 -32.5 95t-102.5 28q-73 0 -104 -29t-33 -96q-3 -89 -4.5 -178.5t-2 -180t1.5 -183.5t5 -190q3 -67 34 -96t103 -29zM829 -15q-153 0 -220 61.5t-74 200.5q-2 73 -3 163t-1 185.5t1 187.5t3 168
q8 142 76 203t217 61q147 0 212.5 -61t71.5 -197q1 -26 2 -88t0.5 -141.5t-4.5 -158.5h-419q0 -81 1.5 -165t3.5 -173q2 -68 32.5 -94.5t98.5 -26.5q67 0 95.5 26.5t31.5 94.5q2 32 1.5 82t-2.5 107h157q3 -36 3.5 -87t-1.5 -86q-7 -140 -70.5 -201t-212.5 -61zM692 690h264
q1 57 1 114.5t-1 102.5t-2 65q-4 65 -33.5 92t-92.5 27q-71 0 -100.5 -28.5t-31.5 -90.5q-1 -73 -2.5 -143t-1.5 -139z" />
    <glyph glyph-name="Racute" unicode="&#x154;" horiz-adv-x="778" 
d="M113 0v1600h286q150 0 217.5 -62.5t72.5 -205.5q3 -90 4 -165.5t0 -146.5t-4 -146q-4 -97 -35.5 -156t-98.5 -85l164 -633h-168l-148 606h-131v-606h-159zM272 749h126q69 0 99 28t33 91q3 83 4 159t0.5 152t-4.5 159q-3 64 -33 91.5t-98 27.5h-127v-708zM334 1680
l157 234h123l-165 -234h-115z" />
    <glyph glyph-name="racute" unicode="&#x155;" horiz-adv-x="552" 
d="M109 0v1200h162v-119h32q18 69 58.5 96t109.5 27q19 0 37.5 -1t33.5 -2v-125h-69q-90 0 -137.5 -30t-64.5 -102v-944h-162zM259 1280l157 234h123l-165 -234h-115z" />
    <glyph glyph-name="uni0156" unicode="&#x156;" horiz-adv-x="778" 
d="M113 0v1600h286q150 0 217.5 -62.5t72.5 -205.5q3 -90 4 -165.5t0 -146.5t-4 -146q-4 -97 -35.5 -156t-98.5 -85l164 -633h-168l-148 606h-131v-606h-159zM272 749h126q69 0 99 28t33 91q3 83 4 159t0.5 152t-4.5 159q-3 64 -33 91.5t-98 27.5h-127v-708zM342 -366
l61 129h-87v157h200v-138l-76 -148h-98z" />
    <glyph glyph-name="uni0157" unicode="&#x157;" horiz-adv-x="552" 
d="M109 0v1200h162v-119h32q18 69 58.5 96t109.5 27q19 0 37.5 -1t33.5 -2v-125h-69q-90 0 -137.5 -30t-64.5 -102v-944h-162zM124 -366l61 129h-87v157h200v-138l-76 -148h-98z" />
    <glyph glyph-name="Rcaron" unicode="&#x158;" horiz-adv-x="778" 
d="M113 0v1600h286q150 0 217.5 -62.5t72.5 -205.5q3 -90 4 -165.5t0 -146.5t-4 -146q-4 -97 -35.5 -156t-98.5 -85l164 -633h-168l-148 606h-131v-606h-159zM272 749h126q69 0 99 28t33 91q3 83 4 159t0.5 152t-4.5 159q-3 64 -33 91.5t-98 27.5h-127v-708zM338 1681
l-145 234h108l86 -147l84 147h108l-145 -234h-96z" />
    <glyph glyph-name="rcaron" unicode="&#x159;" horiz-adv-x="552" 
d="M109 0v1200h162v-119h32q18 69 58.5 96t109.5 27q19 0 37.5 -1t33.5 -2v-125h-69q-90 0 -137.5 -30t-64.5 -102v-944h-162zM262 1281l-145 234h108l86 -147l84 147h108l-145 -234h-96z" />
    <glyph glyph-name="Sacute" unicode="&#x15a;" horiz-adv-x="770" 
d="M387 -14q-156 0 -225.5 65t-74.5 216q-1 57 -1.5 106t0.5 99t4 108h152q-4 -87 -4.5 -170.5t4.5 -165.5q3 -66 36 -94.5t109 -28.5q72 0 103.5 28.5t35.5 94.5q4 48 4.5 94.5t-1 94t-3.5 97.5q-2 76 -27.5 119.5t-87.5 59.5l-114 28q-82 20 -127.5 59.5t-64.5 104.5
t-22 162q-1 63 0 133.5t2 139.5q3 100 33.5 161t96 89t172.5 28q151 0 219 -64.5t73 -214.5q2 -59 1 -135t-3 -158h-154q3 86 4 163t-2 152q-3 66 -35.5 94.5t-104.5 28.5q-73 0 -105 -28.5t-36 -94.5q-5 -75 -4.5 -147t4.5 -147q2 -84 23 -125.5t77 -55.5l106 -25
q89 -20 139.5 -60.5t72 -106t24.5 -160.5q2 -48 2 -91.5t-0.5 -85.5t-2.5 -86q-6 -151 -74.5 -216t-223.5 -65zM334 1680l157 234h123l-165 -234h-115z" />
    <glyph glyph-name="sacute" unicode="&#x15b;" horiz-adv-x="706" 
d="M347 -15q-146 0 -205.5 61t-64.5 200q-1 43 -0.5 86.5t2.5 85.5h144q-3 -60 -2.5 -106t0.5 -81q2 -69 31 -95.5t95 -26.5q72 0 103.5 26.5t32.5 95.5q1 29 1 49.5t0.5 39.5t-0.5 44q-2 69 -19.5 104t-70.5 52l-106 32q-76 23 -122.5 58t-67.5 91t-23 144q-1 32 -0.5 55.5
t0.5 50.5q3 141 65 202.5t216 61.5q146 0 206 -60t65 -200v-80t-3 -89h-148q2 31 2 66v66.5t-1 54.5q-1 67 -27 92.5t-94 25.5t-94.5 -25.5t-28.5 -93.5q-1 -24 -2 -50.5t0 -62.5q1 -71 16 -113.5t75 -61.5l100 -27q109 -29 161 -93.5t52 -193.5q0 -33 -0.5 -63.5
t-2.5 -63.5q-3 -138 -66 -198t-219 -60zM301 1280l157 234h123l-165 -234h-115z" />
    <glyph glyph-name="Scircumflex" unicode="&#x15c;" horiz-adv-x="770" 
d="M387 -14q-156 0 -225.5 65t-74.5 216q-1 57 -1.5 106t0.5 99t4 108h152q-4 -87 -4.5 -170.5t4.5 -165.5q3 -66 36 -94.5t109 -28.5q72 0 103.5 28.5t35.5 94.5q4 48 4.5 94.5t-1 94t-3.5 97.5q-2 76 -27.5 119.5t-87.5 59.5l-114 28q-82 20 -127.5 59.5t-64.5 104.5
t-22 162q-1 63 0 133.5t2 139.5q3 100 33.5 161t96 89t172.5 28q151 0 219 -64.5t73 -214.5q2 -59 1 -135t-3 -158h-154q3 86 4 163t-2 152q-3 66 -35.5 94.5t-104.5 28.5q-73 0 -105 -28.5t-36 -94.5q-5 -75 -4.5 -147t4.5 -147q2 -84 23 -125.5t77 -55.5l106 -25
q89 -20 139.5 -60.5t72 -106t24.5 -160.5q2 -48 2 -91.5t-0.5 -85.5t-2.5 -86q-6 -151 -74.5 -216t-223.5 -65zM186 1681l145 235h104l145 -235h-116l-80 140l-82 -140h-116z" />
    <glyph glyph-name="scircumflex" unicode="&#x15d;" horiz-adv-x="706" 
d="M347 -15q-146 0 -205.5 61t-64.5 200q-1 43 -0.5 86.5t2.5 85.5h144q-3 -60 -2.5 -106t0.5 -81q2 -69 31 -95.5t95 -26.5q72 0 103.5 26.5t32.5 95.5q1 29 1 49.5t0.5 39.5t-0.5 44q-2 69 -19.5 104t-70.5 52l-106 32q-76 23 -122.5 58t-67.5 91t-23 144q-1 32 -0.5 55.5
t0.5 50.5q3 141 65 202.5t216 61.5q146 0 206 -60t65 -200v-80t-3 -89h-148q2 31 2 66v66.5t-1 54.5q-1 67 -27 92.5t-94 25.5t-94.5 -25.5t-28.5 -93.5q-1 -24 -2 -50.5t0 -62.5q1 -71 16 -113.5t75 -61.5l100 -27q109 -29 161 -93.5t52 -193.5q0 -33 -0.5 -63.5
t-2.5 -63.5q-3 -138 -66 -198t-219 -60zM154 1281l145 235h104l145 -235h-116l-80 140l-82 -140h-116z" />
    <glyph glyph-name="Scedilla" unicode="&#x15e;" horiz-adv-x="770" 
d="M387 -14q-156 0 -225.5 65t-74.5 216q-1 57 -1.5 106t0.5 99t4 108h152q-4 -87 -4.5 -170.5t4.5 -165.5q3 -66 36 -94.5t109 -28.5q72 0 103.5 28.5t35.5 94.5q4 48 4.5 94.5t-1 94t-3.5 97.5q-2 76 -27.5 119.5t-87.5 59.5l-114 28q-82 20 -127.5 59.5t-64.5 104.5
t-22 162q-1 63 0 133.5t2 139.5q3 100 33.5 161t96 89t172.5 28q151 0 219 -64.5t73 -214.5q2 -59 1 -135t-3 -158h-154q3 86 4 163t-2 152q-3 66 -35.5 94.5t-104.5 28.5q-73 0 -105 -28.5t-36 -94.5q-5 -75 -4.5 -147t4.5 -147q2 -84 23 -125.5t77 -55.5l106 -25
q89 -20 139.5 -60.5t72 -106t24.5 -160.5q2 -48 2 -91.5t-0.5 -85.5t-2.5 -86q-6 -151 -74.5 -216t-223.5 -65zM232 -285v91h53q48 0 66 22t8 71l-23 109h99l23 -109q16 -94 -26.5 -139t-146.5 -45h-53z" />
    <glyph glyph-name="scedilla" unicode="&#x15f;" horiz-adv-x="706" 
d="M347 -15q-146 0 -205.5 61t-64.5 200q-1 43 -0.5 86.5t2.5 85.5h144q-3 -60 -2.5 -106t0.5 -81q2 -69 31 -95.5t95 -26.5q72 0 103.5 26.5t32.5 95.5q1 29 1 49.5t0.5 39.5t-0.5 44q-2 69 -19.5 104t-70.5 52l-106 32q-76 23 -122.5 58t-67.5 91t-23 144q-1 32 -0.5 55.5
t0.5 50.5q3 141 65 202.5t216 61.5q146 0 206 -60t65 -200v-80t-3 -89h-148q2 31 2 66v66.5t-1 54.5q-1 67 -27 92.5t-94 25.5t-94.5 -25.5t-28.5 -93.5q-1 -24 -2 -50.5t0 -62.5q1 -71 16 -113.5t75 -61.5l100 -27q109 -29 161 -93.5t52 -193.5q0 -33 -0.5 -63.5
t-2.5 -63.5q-3 -138 -66 -198t-219 -60zM199 -285v91h53q48 0 66 22t8 71l-23 109h99l23 -109q16 -94 -26.5 -139t-146.5 -45h-53z" />
    <glyph glyph-name="Scaron" unicode="&#x160;" horiz-adv-x="770" 
d="M387 -14q-156 0 -225.5 65t-74.5 216q-1 57 -1.5 106t0.5 99t4 108h152q-4 -87 -4.5 -170.5t4.5 -165.5q3 -66 36 -94.5t109 -28.5q72 0 103.5 28.5t35.5 94.5q4 48 4.5 94.5t-1 94t-3.5 97.5q-2 76 -27.5 119.5t-87.5 59.5l-114 28q-82 20 -127.5 59.5t-64.5 104.5
t-22 162q-1 63 0 133.5t2 139.5q3 100 33.5 161t96 89t172.5 28q151 0 219 -64.5t73 -214.5q2 -59 1 -135t-3 -158h-154q3 86 4 163t-2 152q-3 66 -35.5 94.5t-104.5 28.5q-73 0 -105 -28.5t-36 -94.5q-5 -75 -4.5 -147t4.5 -147q2 -84 23 -125.5t77 -55.5l106 -25
q89 -20 139.5 -60.5t72 -106t24.5 -160.5q2 -48 2 -91.5t-0.5 -85.5t-2.5 -86q-6 -151 -74.5 -216t-223.5 -65zM337 1681l-145 234h108l86 -147l84 147h108l-145 -234h-96z" />
    <glyph glyph-name="scaron" unicode="&#x161;" horiz-adv-x="706" 
d="M347 -15q-146 0 -205.5 61t-64.5 200q-1 43 -0.5 86.5t2.5 85.5h144q-3 -60 -2.5 -106t0.5 -81q2 -69 31 -95.5t95 -26.5q72 0 103.5 26.5t32.5 95.5q1 29 1 49.5t0.5 39.5t-0.5 44q-2 69 -19.5 104t-70.5 52l-106 32q-76 23 -122.5 58t-67.5 91t-23 144q-1 32 -0.5 55.5
t0.5 50.5q3 141 65 202.5t216 61.5q146 0 206 -60t65 -200v-80t-3 -89h-148q2 31 2 66v66.5t-1 54.5q-1 67 -27 92.5t-94 25.5t-94.5 -25.5t-28.5 -93.5q-1 -24 -2 -50.5t0 -62.5q1 -71 16 -113.5t75 -61.5l100 -27q109 -29 161 -93.5t52 -193.5q0 -33 -0.5 -63.5
t-2.5 -63.5q-3 -138 -66 -198t-219 -60zM305 1281l-145 234h108l86 -147l84 147h108l-145 -234h-96z" />
    <glyph glyph-name="uni0162" unicode="&#x162;" horiz-adv-x="643" 
d="M242 0v1457h-230v143h619v-143h-230v-1457h-159zM168 -285v91h53q48 0 66 22t8 71l-23 109h99l23 -109q16 -94 -26.5 -139t-146.5 -45h-53z" />
    <glyph glyph-name="uni0163" unicode="&#x163;" horiz-adv-x="529" 
d="M413 -15q-158 0 -221 60.5t-63 202.5l-1 828h-91v124h95v340h160v-340h198v-124h-202l1 -845q0 -71 24 -96.5t103 -25.5q29 0 49 1t47 4v-119q-22 -4 -47 -7t-52 -3zM185 -285v91h53q48 0 66 22t8 71l-23 109h99l23 -109q16 -94 -26.5 -139t-146.5 -45h-53z" />
    <glyph glyph-name="Tcaron" unicode="&#x164;" horiz-adv-x="643" 
d="M242 0v1457h-230v143h619v-143h-230v-1457h-159zM275 1681l-145 234h108l86 -147l84 147h108l-145 -234h-96z" />
    <glyph glyph-name="tcaron" unicode="&#x165;" horiz-adv-x="546" 
d="M413 -15q-158 0 -221 60.5t-63 202.5l-1 828h-91v124h95v340h160v-340h198v-124h-202l1 -845q0 -71 24 -96.5t103 -25.5q29 0 49 1t47 4v-119q-22 -4 -47 -7t-52 -3zM353 1330l54 271h121l-61 -271h-114z" />
    <glyph glyph-name="Tbar" unicode="&#x166;" horiz-adv-x="643" 
d="M242 0v1457h-230v143h619v-143h-230v-1457h-159zM118 811h407v-108h-407v108z" />
    <glyph glyph-name="tbar" unicode="&#x167;" horiz-adv-x="529" 
d="M413 -15q-158 0 -221 60.5t-63 202.5l-1 828h-91v124h95v340h160v-340h198v-124h-202l1 -845q0 -71 24 -96.5t103 -25.5q29 0 49 1t47 4v-119q-22 -4 -47 -7t-52 -3zM57 745h407v-108h-407v108z" />
    <glyph glyph-name="Utilde" unicode="&#x168;" horiz-adv-x="794" 
d="M397 -14q-158 0 -227 64.5t-71 212.5q-4 335 -4 668.5t4 668.5h159q-2 -223 -3.5 -450.5t-0.5 -454t2 -450.5q0 -65 33 -93.5t108 -28.5t107 28.5t32 93.5q1 224 2.5 450.5t1 454t-3.5 450.5h159q4 -335 4 -668.5t-4 -668.5q-2 -148 -71 -212.5t-227 -64.5zM535 1847h75
q-2 -81 -34.5 -120t-90.5 -39q-38 0 -60 12t-38 28t-32 27.5t-40 11.5q-22 0 -36 -16t-19 -55h-75q7 87 42 124.5t92 37.5q39 0 61.5 -11.5t37.5 -27.5t29.5 -28t38.5 -12q26 0 37 18t12 50z" />
    <glyph glyph-name="utilde" unicode="&#x169;" horiz-adv-x="808" 
d="M317 -15q-105 0 -160.5 59.5t-55.5 195.5v960h160l1 -973q0 -63 25.5 -91.5t81.5 -28.5t102.5 31t67.5 86v976h160v-1200h-160v111h-28q-34 -65 -82 -95.5t-112 -30.5zM536 1447h75q-2 -81 -34.5 -120t-90.5 -39q-38 0 -60 12t-38 28t-32 27.5t-40 11.5q-22 0 -36 -16
t-19 -55h-75q7 87 42 124.5t92 37.5q39 0 61.5 -11.5t37.5 -27.5t29.5 -28t38.5 -12q26 0 37 18t12 50z" />
    <glyph glyph-name="Umacron" unicode="&#x16a;" horiz-adv-x="794" 
d="M397 -14q-158 0 -227 64.5t-71 212.5q-4 335 -4 668.5t4 668.5h159q-2 -223 -3.5 -450.5t-0.5 -454t2 -450.5q0 -65 33 -93.5t108 -28.5t107 28.5t32 93.5q1 224 2.5 450.5t1 454t-3.5 450.5h159q4 -335 4 -668.5t-4 -668.5q-2 -148 -71 -212.5t-227 -64.5zM154 1770h489
v-84h-489v84z" />
    <glyph glyph-name="umacron" unicode="&#x16b;" horiz-adv-x="808" 
d="M317 -15q-105 0 -160.5 59.5t-55.5 195.5v960h160l1 -973q0 -63 25.5 -91.5t81.5 -28.5t102.5 31t67.5 86v976h160v-1200h-160v111h-28q-34 -65 -82 -95.5t-112 -30.5zM155 1370h489v-84h-489v84z" />
    <glyph glyph-name="Ubreve" unicode="&#x16c;" horiz-adv-x="794" 
d="M397 -14q-158 0 -227 64.5t-71 212.5q-4 335 -4 668.5t4 668.5h159q-2 -223 -3.5 -450.5t-0.5 -454t2 -450.5q0 -65 33 -93.5t108 -28.5t107 28.5t32 93.5q1 224 2.5 450.5t1 454t-3.5 450.5h159q4 -335 4 -668.5t-4 -668.5q-2 -148 -71 -212.5t-227 -64.5zM397 1672
q-123 0 -179.5 56t-61.5 178h106q1 -72 31.5 -108t103.5 -36q70 0 102 35t33 109h105q-6 -122 -62 -178t-178 -56z" />
    <glyph glyph-name="ubreve" unicode="&#x16d;" horiz-adv-x="808" 
d="M317 -15q-105 0 -160.5 59.5t-55.5 195.5v960h160l1 -973q0 -63 25.5 -91.5t81.5 -28.5t102.5 31t67.5 86v976h160v-1200h-160v111h-28q-34 -65 -82 -95.5t-112 -30.5zM398 1272q-123 0 -179.5 56t-61.5 178h106q1 -72 31.5 -108t103.5 -36q70 0 102 35t33 109h105
q-6 -122 -62 -178t-178 -56z" />
    <glyph glyph-name="Uring" unicode="&#x16e;" horiz-adv-x="794" 
d="M397 -14q-158 0 -227 64.5t-71 212.5q-4 335 -4 668.5t4 668.5h159q-2 -223 -3.5 -450.5t-0.5 -454t2 -450.5q0 -65 33 -93.5t108 -28.5t107 28.5t32 93.5q1 224 2.5 450.5t1 454t-3.5 450.5h159q4 -335 4 -668.5t-4 -668.5q-2 -148 -71 -212.5t-227 -64.5zM397 1672
q-64 0 -110.5 46t-46.5 112q0 64 46.5 110.5t110.5 46.5q65 0 112 -46.5t47 -110.5q0 -66 -47 -112t-112 -46zM397 1766q27 0 46 19t19 44q0 27 -19 46t-46 19q-25 0 -44.5 -19t-19.5 -46q0 -25 19 -44t45 -19z" />
    <glyph glyph-name="uring" unicode="&#x16f;" horiz-adv-x="808" 
d="M317 -15q-105 0 -160.5 59.5t-55.5 195.5v960h160l1 -973q0 -63 25.5 -91.5t81.5 -28.5t102.5 31t67.5 86v976h160v-1200h-160v111h-28q-34 -65 -82 -95.5t-112 -30.5zM398 1272q-64 0 -110.5 46t-46.5 112q0 64 46.5 110.5t110.5 46.5q65 0 112 -46.5t47 -110.5
q0 -66 -47 -112t-112 -46zM398 1366q27 0 46 19t19 44q0 27 -19 46t-46 19q-25 0 -44.5 -19t-19.5 -46q0 -25 19 -44t45 -19z" />
    <glyph glyph-name="Uhungarumlaut" unicode="&#x170;" horiz-adv-x="794" 
d="M397 -14q-158 0 -227 64.5t-71 212.5q-4 335 -4 668.5t4 668.5h159q-2 -223 -3.5 -450.5t-0.5 -454t2 -450.5q0 -65 33 -93.5t108 -28.5t107 28.5t32 93.5q1 224 2.5 450.5t1 454t-3.5 450.5h159q4 -335 4 -668.5t-4 -668.5q-2 -148 -71 -212.5t-227 -64.5zM226 1681
l175 236h119l-175 -236h-119zM448 1681l176 236h120l-176 -236h-120z" />
    <glyph glyph-name="uhungarumlaut" unicode="&#x171;" horiz-adv-x="808" 
d="M317 -15q-105 0 -160.5 59.5t-55.5 195.5v960h160l1 -973q0 -63 25.5 -91.5t81.5 -28.5t102.5 31t67.5 86v976h160v-1200h-160v111h-28q-34 -65 -82 -95.5t-112 -30.5zM227 1281l175 236h119l-175 -236h-119zM449 1281l176 236h120l-176 -236h-120z" />
    <glyph glyph-name="Uogonek" unicode="&#x172;" horiz-adv-x="794" 
d="M397 -14q-158 0 -227 64.5t-71 212.5q-4 335 -4 668.5t4 668.5h159q-2 -223 -3.5 -450.5t-0.5 -454t2 -450.5q0 -65 33 -93.5t108 -28.5t107 28.5t32 93.5q1 224 2.5 450.5t1 454t-3.5 450.5h159q4 -335 4 -668.5t-4 -668.5q-2 -148 -71 -212.5t-227 -64.5zM683 -268h-54
q-103 0 -145.5 45t-26.5 139l23 109h99l-23 -109q-10 -49 8 -71t66 -22h53v-91z" />
    <glyph glyph-name="uogonek" unicode="&#x173;" horiz-adv-x="808" 
d="M317 -15q-105 0 -160.5 59.5t-55.5 195.5v960h160l1 -973q0 -63 25.5 -91.5t81.5 -28.5t102.5 31t67.5 86v976h160v-1200h-160v111h-28q-34 -65 -82 -95.5t-112 -30.5zM743 -288h-54q-103 0 -145.5 45t-26.5 139l23 109h99l-23 -109q-10 -49 8 -71t66 -22h53v-91z" />
    <glyph glyph-name="Wcircumflex" unicode="&#x174;" horiz-adv-x="1233" 
d="M178 0l-112 1600h160l36 -611l42 -846h64l40 846l71 601h275l71 -601l38 -846h65l44 846l37 611h159l-114 -1600h-306l-51 519l-47 932h-66l-49 -932l-51 -519h-306zM404 1681l145 235h104l145 -235h-116l-80 140l-82 -140h-116z" />
    <glyph glyph-name="wcircumflex" unicode="&#x175;" horiz-adv-x="1143" 
d="M165 0l-130 1200h160l49 -605l36 -473h62l27 473l55 600h294l51 -600l29 -473h62l37 473l51 605h160l-133 -1200h-295l-36 462l-39 611h-69l-40 -611l-35 -462h-296zM374 1281l145 235h104l145 -235h-116l-80 140l-82 -140h-116z" />
    <glyph glyph-name="Ycircumflex" unicode="&#x176;" horiz-adv-x="714" 
d="M276 0v495l-28 1l-209 1104h162l74 -447l56 -459h51l55 459l74 447h164l-211 -1105l-28 -1v-494h-160zM156 1681l145 235h104l145 -235h-116l-80 140l-82 -140h-116z" />
    <glyph glyph-name="ycircumflex" unicode="&#x177;" horiz-adv-x="708" 
d="M185 -410q-28 0 -68 4t-70 8v123q25 -3 64.5 -5.5t71.5 -2.5q78 0 106 27t39 96l25 160h-128l-174 1200h165l60 -578l59 -499h58l57 499l58 578h165l-185 -1349q-13 -90 -43.5 -147.5t-92.5 -85.5t-167 -28zM167 1281l145 235h104l145 -235h-116l-80 140l-82 -140h-116z
" />
    <glyph glyph-name="Ydieresis" unicode="&#x178;" horiz-adv-x="714" 
d="M276 0v495l-28 1l-209 1104h162l74 -447l56 -459h51l55 459l74 447h164l-211 -1105l-28 -1v-494h-160zM401 1710v129h129v-129h-129zM180 1710v129h129v-129h-129z" />
    <glyph glyph-name="Zacute" unicode="&#x179;" horiz-adv-x="639" 
d="M34 0v131l400 1326h-376v143h546v-135l-408 -1322h373v-143h-535zM272 1680l157 234h123l-165 -234h-115z" />
    <glyph glyph-name="zacute" unicode="&#x17a;" horiz-adv-x="623" 
d="M40 0v103l376 975l-367 -3v123l540 2v-106l-380 -972h368v-122h-537zM265 1280l157 234h123l-165 -234h-115z" />
    <glyph glyph-name="Zdotaccent" unicode="&#x17b;" horiz-adv-x="639" 
d="M34 0v131l400 1326h-376v143h546v-135l-408 -1322h373v-143h-535zM258 1680v129h129v-129h-129z" />
    <glyph glyph-name="zdotaccent" unicode="&#x17c;" horiz-adv-x="623" 
d="M40 0v103l376 975l-367 -3v123l540 2v-106l-380 -972h368v-122h-537zM251 1280v129h129v-129h-129z" />
    <glyph glyph-name="Zcaron" unicode="&#x17d;" horiz-adv-x="639" 
d="M34 0v131l400 1326h-376v143h546v-135l-408 -1322h373v-143h-535zM276 1681l-145 234h108l86 -147l84 147h108l-145 -234h-96z" />
    <glyph glyph-name="zcaron" unicode="&#x17e;" horiz-adv-x="623" 
d="M40 0v103l376 975l-367 -3v123l540 2v-106l-380 -972h368v-122h-537zM268 1281l-145 234h108l86 -147l84 147h108l-145 -234h-96z" />
    <glyph glyph-name="uni018E" unicode="&#x18e;" horiz-adv-x="678" 
d="M565 0h-513v143h354v591h-334v143h334v580h-354v143h513v-1600z" />
    <glyph glyph-name="uni018F" unicode="&#x18f;" horiz-adv-x="802" 
d="M406 -15q-157 0 -226.5 65t-71.5 215q-2 152 -1.5 288.5t1.5 291.5h441q-1 123 -3 247.5t-5 262.5q-1 66 -33 94t-103 28q-76 0 -110 -28t-36 -94q-1 -48 -1.5 -103t0.5 -113.5t2 -119.5h-159q-2 89 -2.5 161.5t1.5 152.5q4 150 75 214.5t230 64.5q157 0 225 -64.5
t70 -214.5q3 -140 4 -272.5t1 -262t-1 -262.5t-4 -273q-2 -143 -70.5 -210.5t-223.5 -67.5zM406 121q71 0 102.5 28t32.5 93q3 130 5 249t3 235h-285q0 -84 -0.5 -160.5t0 -154.5t3.5 -169q2 -65 34 -93t105 -28z" />
    <glyph glyph-name="florin" unicode="&#x192;" horiz-adv-x="1288" 
d="M232 -16q-33 0 -68 4t-60 9l20 121q24 -3 57.5 -4.5t58.5 -1.5q71 0 112 33t58 98l143 520h-216v93h243l140 509q37 135 114.5 193.5t221.5 58.5q34 0 69 -4t59 -9l-18 -119q-26 2 -55 3t-62 1q-72 0 -112.5 -33t-58.5 -97l-139 -503h266v-93h-291l-146 -526
q-24 -87 -64 -143t-105 -83t-167 -27z" />
    <glyph glyph-name="Ohorn" unicode="&#x1a0;" horiz-adv-x="807" 
d="M403 -14q-158 0 -228 66t-72 217q-3 146 -4 276.5t-1 257t1 256t4 271.5q2 153 72 218.5t228 65.5t227.5 -65.5t72.5 -218.5q3 -142 4.5 -272t1.5 -256t-1.5 -257t-4.5 -276q-3 -151 -72.5 -217t-227.5 -66zM403 121q77 0 108.5 30t32.5 105q4 149 6 282.5t2 262.5
t-2 262.5t-6 279.5q-1 76 -32.5 106.5t-108.5 30.5q-76 0 -108 -30.5t-34 -106.5q-4 -144 -5.5 -276.5t-1.5 -261.5t2 -264t5 -285q2 -75 34 -105t108 -30zM560 1499q-8 0 -18 1t-21 3l-1 91h23h17q66 2 89 28.5t26 99.5q1 20 1.5 48t0 56.5t-1.5 48.5h102q1 -20 1.5 -48.5
t0 -56.5t-1.5 -48q-7 -116 -58 -169.5t-159 -53.5z" />
    <glyph glyph-name="ohorn" unicode="&#x1a1;" horiz-adv-x="776" 
d="M389 -15q-105 0 -168.5 28.5t-93 90.5t-34.5 163q-2 67 -3.5 151t-1.5 174t1.5 178t3.5 163q6 102 35 164t92.5 90t168.5 28q106 0 169 -28.5t91.5 -90.5t33.5 -163q3 -71 4.5 -155t1.5 -173t-1.5 -175.5t-4.5 -162.5q-5 -100 -34 -162.5t-91.5 -91t-168.5 -28.5z
M389 109q73 0 103 29t32 95q3 96 4.5 186.5t2 179.5t-1.5 180t-5 189q-2 67 -32.5 95t-102.5 28q-73 0 -104 -29t-33 -96q-3 -89 -4.5 -178.5t-2 -180t1.5 -183.5t5 -190q3 -67 34 -96t103 -29zM570 1098q-8 0 -18 1t-21 3l-1 91h23h17q66 2 89 28.5t26 99.5q1 20 1.5 48
t0 56.5t-1.5 48.5h102q1 -20 1.5 -48.5t0 -56.5t-1.5 -48q-7 -116 -58 -169.5t-159 -53.5z" />
    <glyph glyph-name="Uhorn" unicode="&#x1af;" horiz-adv-x="794" 
d="M397 -14q-158 0 -227 64.5t-71 212.5q-4 335 -4 668.5t4 668.5h159q-2 -223 -3.5 -450.5t-0.5 -454t2 -450.5q0 -65 33 -93.5t108 -28.5t107 28.5t32 93.5q1 224 2.5 450.5t1 454t-3.5 450.5h159q4 -335 4 -668.5t-4 -668.5q-2 -148 -71 -212.5t-227 -64.5zM597 1505
q-8 0 -18 1t-21 3l-1 91h23h17q66 2 89 28.5t26 99.5q1 20 1.5 48t0 56.5t-1.5 48.5h102q1 -20 1.5 -48.5t0 -56.5t-1.5 -48q-7 -116 -58 -169.5t-159 -53.5z" />
    <glyph glyph-name="uhorn" unicode="&#x1b0;" horiz-adv-x="808" 
d="M317 -15q-105 0 -160.5 59.5t-55.5 195.5v960h160l1 -973q0 -63 25.5 -91.5t81.5 -28.5t102.5 31t67.5 86v976h160v-1200h-160v111h-28q-34 -65 -82 -95.5t-112 -30.5zM623 1103q-8 0 -18 1t-21 3l-1 91h23h17q66 2 89 28.5t26 99.5q1 20 1.5 48t0 56.5t-1.5 48.5h102
q1 -20 1.5 -48.5t0 -56.5t-1.5 -48q-7 -116 -58 -169.5t-159 -53.5z" />
    <glyph glyph-name="uni01C4" unicode="&#x1c4;" horiz-adv-x="1434" 
d="M113 0v1600h293q156 0 225 -64.5t71 -211.5q3 -187 4 -355.5t0 -336.5t-4 -354q-2 -149 -70 -213.5t-221 -64.5h-298zM272 143h139q70 0 100.5 28.5t31.5 91.5q3 144 4.5 276.5t1.5 261t-1.5 261t-4.5 276.5q-1 63 -32.5 91t-104.5 28h-134v-1314zM829 0v131l400 1326
h-376v143h546v-135l-408 -1322h373v-143h-535zM1071 1681l-145 234h108l86 -147l84 147h108l-145 -234h-96z" />
    <glyph glyph-name="uni01C5" unicode="&#x1c5;" horiz-adv-x="1427" 
d="M113 0v1600h293q156 0 225 -64.5t71 -211.5q3 -187 4 -355.5t0 -336.5t-4 -354q-2 -149 -70 -213.5t-221 -64.5h-298zM272 143h139q70 0 100.5 28.5t31.5 91.5q3 144 4.5 276.5t1.5 261t-1.5 261t-4.5 276.5q-1 63 -32.5 91t-104.5 28h-134v-1314zM844 0v103l376 975
l-367 -3v123l540 2v-106l-380 -972h368v-122h-537zM1072 1281l-145 234h108l86 -147l84 147h108l-145 -234h-96z" />
    <glyph glyph-name="uni01C6" unicode="&#x1c6;" horiz-adv-x="1423" 
d="M305 -15q-105 0 -156.5 59.5t-56.5 194.5q-2 81 -3 173t-1 187.5t1 188t3 174.5q5 137 59.5 195t156.5 58q76 0 118.5 -31t75.5 -94h28v510h161v-1600h-161v111h-30q-32 -62 -75.5 -94t-119.5 -32zM362 107q57 0 101.5 28t66.5 89v753q-22 60 -66 88t-101 28t-82.5 -27.5
t-27.5 -90.5q-4 -127 -5.5 -258t0 -255.5t4.5 -231.5q3 -67 28.5 -95t81.5 -28zM839 0v103l376 975l-367 -3v123l540 2v-106l-380 -972h368v-122h-537zM1068 1281l-145 234h108l86 -147l84 147h108l-145 -234h-96z" />
    <glyph glyph-name="uni01C7" unicode="&#x1c7;" horiz-adv-x="1370" 
d="M113 0v1600h159v-1457h353v-143h-512zM981 -14q-100 0 -161.5 28.5t-90.5 90.5t-32 162q-2 82 -2 156.5t2 156.5h152q-2 -53 -2.5 -109.5t0 -112.5t2.5 -109q2 -69 31.5 -98.5t100.5 -29.5q76 0 105.5 29.5t29.5 98.5v1351h159v-1333q0 -151 -67.5 -216t-226.5 -65z" />
    <glyph glyph-name="uni01C8" unicode="&#x1c8;" horiz-adv-x="1020" 
d="M113 0v1600h159v-1457h353v-143h-512zM726 1435v165h216v-165h-216zM623 -412q-28 0 -66.5 3.5t-67.5 7.5v122q26 -2 61.5 -3.5t70.5 -1.5q70 0 100 27t30 92v1365h160v-1352q0 -138 -68.5 -199t-219.5 -61z" />
    <glyph glyph-name="uni01C9" unicode="&#x1c9;" horiz-adv-x="755" 
d="M109 0v1600h159v-1600h-159zM462 1435v165h216v-165h-216zM359 -412q-28 0 -66.5 3.5t-67.5 7.5v122q26 -2 61.5 -3.5t70.5 -1.5q70 0 100 27t30 92v1365h160v-1352q0 -138 -68.5 -199t-219.5 -61z" />
    <glyph glyph-name="uni01CA" unicode="&#x1ca;" horiz-adv-x="1670" 
d="M113 0v1600h297l91 -507l133 -950h69l-24 882l-10 575h159v-1600h-307l-100 570l-112 888h-71l22 -858l11 -600h-158zM1281 -14q-100 0 -161.5 28.5t-90.5 90.5t-32 162q-2 82 -2 156.5t2 156.5h152q-2 -53 -2.5 -109.5t0 -112.5t2.5 -109q2 -69 31.5 -98.5t100.5 -29.5
q76 0 105.5 29.5t29.5 98.5v1351h159v-1333q0 -151 -67.5 -216t-226.5 -65z" />
    <glyph glyph-name="uni01CB" unicode="&#x1cb;" horiz-adv-x="1320" 
d="M113 0v1600h297l91 -507l133 -950h69l-24 882l-10 575h159v-1600h-307l-100 570l-112 888h-71l22 -858l11 -600h-158zM1026 1435v165h216v-165h-216zM923 -412q-28 0 -66.5 3.5t-67.5 7.5v122q26 -2 61.5 -3.5t70.5 -1.5q70 0 100 27t30 92v1365h160v-1352
q0 -138 -68.5 -199t-219.5 -61z" />
    <glyph glyph-name="uni01CC" unicode="&#x1cc;" horiz-adv-x="1191" 
d="M109 0v1200h160v-110h33q33 61 77.5 93t117.5 32q106 0 158.5 -59.5t53.5 -193.5v-962h-159l-1 974q0 64 -26.5 91.5t-84.5 27.5q-54 0 -101.5 -30.5t-67.5 -85.5v-977h-160zM897 1435v165h216v-165h-216zM794 -412q-28 0 -66.5 3.5t-67.5 7.5v122q26 -2 61.5 -3.5
t70.5 -1.5q70 0 100 27t30 92v1365h160v-1352q0 -138 -68.5 -199t-219.5 -61z" />
    <glyph glyph-name="uni01CD" unicode="&#x1cd;" horiz-adv-x="754" 
d="M48 0l175 1600h309l174 -1600h-162l-41 448h-252l-40 -448h-163zM266 591h223l-32 344l-43 522h-73l-43 -522zM331 1681l-145 234h108l86 -147l84 147h108l-145 -234h-96z" />
    <glyph glyph-name="uni01CE" unicode="&#x1ce;" horiz-adv-x="761" 
d="M303 -13q-108 0 -163.5 58t-64.5 178l-2 50t0 49q5 72 27 129t70 104t133 89q46 23 96.5 45t101.5 41v238q0 65 -26.5 94t-93.5 29q-59 0 -91 -25t-35 -91q-1 -26 -1.5 -62.5t0 -72t1.5 -57.5h-155q-1 39 -2 86.5t0 87.5q3 90 32.5 147t91.5 84t164 27q105 0 164 -29
t83.5 -90.5t24.5 -160.5v-935h-159v111h-24q-25 -59 -61.5 -91.5t-110.5 -32.5zM352 107q53 0 90 29t57 83l2 381q-38 -12 -77.5 -30.5t-87.5 -49.5q-61 -39 -81 -87t-23 -111q0 -23 0.5 -44.5t1.5 -44.5q5 -59 35.5 -92.5t82.5 -33.5zM325 1281l-145 234h108l86 -147
l84 147h108l-145 -234h-96z" />
    <glyph glyph-name="uni01CF" unicode="&#x1cf;" horiz-adv-x="385" 
d="M113 0v1600h159v-1600h-159zM146 1681l-145 234h108l86 -147l84 147h108l-145 -234h-96z" />
    <glyph glyph-name="uni01D0" unicode="&#x1d0;" horiz-adv-x="377" 
d="M109 0v1200h159v-1200h-159zM141 1281l-145 234h108l86 -147l84 147h108l-145 -234h-96z" />
    <glyph glyph-name="uni01D1" unicode="&#x1d1;" horiz-adv-x="807" 
d="M403 -14q-158 0 -228 66t-72 217q-3 146 -4 276.5t-1 257t1 256t4 271.5q2 153 72 218.5t228 65.5t227.5 -65.5t72.5 -218.5q3 -142 4.5 -272t1.5 -256t-1.5 -257t-4.5 -276q-3 -151 -72.5 -217t-227.5 -66zM403 121q77 0 108.5 30t32.5 105q4 149 6 282.5t2 262.5
t-2 262.5t-6 279.5q-1 76 -32.5 106.5t-108.5 30.5q-76 0 -108 -30.5t-34 -106.5q-4 -144 -5.5 -276.5t-1.5 -261.5t2 -264t5 -285q2 -75 34 -105t108 -30zM357 1681l-145 234h108l86 -147l84 147h108l-145 -234h-96z" />
    <glyph glyph-name="uni01D2" unicode="&#x1d2;" horiz-adv-x="776" 
d="M389 -15q-105 0 -168.5 28.5t-93 90.5t-34.5 163q-2 67 -3.5 151t-1.5 174t1.5 178t3.5 163q6 102 35 164t92.5 90t168.5 28q106 0 169 -28.5t91.5 -90.5t33.5 -163q3 -71 4.5 -155t1.5 -173t-1.5 -175.5t-4.5 -162.5q-5 -100 -34 -162.5t-91.5 -91t-168.5 -28.5z
M389 109q73 0 103 29t32 95q3 96 4.5 186.5t2 179.5t-1.5 180t-5 189q-2 67 -32.5 95t-102.5 28q-73 0 -104 -29t-33 -96q-3 -89 -4.5 -178.5t-2 -180t1.5 -183.5t5 -190q3 -67 34 -96t103 -29zM341 1281l-145 234h108l86 -147l84 147h108l-145 -234h-96z" />
    <glyph glyph-name="uni01D3" unicode="&#x1d3;" horiz-adv-x="794" 
d="M397 -14q-158 0 -227 64.5t-71 212.5q-4 335 -4 668.5t4 668.5h159q-2 -223 -3.5 -450.5t-0.5 -454t2 -450.5q0 -65 33 -93.5t108 -28.5t107 28.5t32 93.5q1 224 2.5 450.5t1 454t-3.5 450.5h159q4 -335 4 -668.5t-4 -668.5q-2 -148 -71 -212.5t-227 -64.5zM350 1681
l-145 234h108l86 -147l84 147h108l-145 -234h-96z" />
    <glyph glyph-name="uni01D4" unicode="&#x1d4;" horiz-adv-x="808" 
d="M317 -15q-105 0 -160.5 59.5t-55.5 195.5v960h160l1 -973q0 -63 25.5 -91.5t81.5 -28.5t102.5 31t67.5 86v976h160v-1200h-160v111h-28q-34 -65 -82 -95.5t-112 -30.5zM351 1281l-145 234h108l86 -147l84 147h108l-145 -234h-96z" />
    <glyph glyph-name="uni01D5" unicode="&#x1d5;" horiz-adv-x="794" 
d="M397 -14q-158 0 -227 64.5t-71 212.5q-4 335 -4 668.5t4 668.5h159q-2 -223 -3.5 -450.5t-0.5 -454t2 -450.5q0 -65 33 -93.5t108 -28.5t107 28.5t32 93.5q1 224 2.5 450.5t1 454t-3.5 450.5h159q4 -335 4 -668.5t-4 -668.5q-2 -148 -71 -212.5t-227 -64.5zM443 1710v129
h129v-129h-129zM222 1710v129h129v-129h-129zM154 1980h489v-84h-489v84z" />
    <glyph glyph-name="uni01D6" unicode="&#x1d6;" horiz-adv-x="808" 
d="M317 -15q-105 0 -160.5 59.5t-55.5 195.5v960h160l1 -973q0 -63 25.5 -91.5t81.5 -28.5t102.5 31t67.5 86v976h160v-1200h-160v111h-28q-34 -65 -82 -95.5t-112 -30.5zM444 1310v129h129v-129h-129zM223 1310v129h129v-129h-129zM155 1580h489v-84h-489v84z" />
    <glyph glyph-name="uni01D7" unicode="&#x1d7;" horiz-adv-x="794" 
d="M397 -14q-158 0 -227 64.5t-71 212.5q-4 335 -4 668.5t4 668.5h159q-2 -223 -3.5 -450.5t-0.5 -454t2 -450.5q0 -65 33 -93.5t108 -28.5t107 28.5t32 93.5q1 224 2.5 450.5t1 454t-3.5 450.5h159q4 -335 4 -668.5t-4 -668.5q-2 -148 -71 -212.5t-227 -64.5zM443 1710v129
h129v-129h-129zM222 1710v129h129v-129h-129zM346 1890l157 234h123l-165 -234h-115z" />
    <glyph glyph-name="uni01D8" unicode="&#x1d8;" horiz-adv-x="808" 
d="M317 -15q-105 0 -160.5 59.5t-55.5 195.5v960h160l1 -973q0 -63 25.5 -91.5t81.5 -28.5t102.5 31t67.5 86v976h160v-1200h-160v111h-28q-34 -65 -82 -95.5t-112 -30.5zM444 1310v129h129v-129h-129zM223 1310v129h129v-129h-129zM347 1490l157 234h123l-165 -234h-115z
" />
    <glyph glyph-name="uni01D9" unicode="&#x1d9;" horiz-adv-x="794" 
d="M397 -14q-158 0 -227 64.5t-71 212.5q-4 335 -4 668.5t4 668.5h159q-2 -223 -3.5 -450.5t-0.5 -454t2 -450.5q0 -65 33 -93.5t108 -28.5t107 28.5t32 93.5q1 224 2.5 450.5t1 454t-3.5 450.5h159q4 -335 4 -668.5t-4 -668.5q-2 -148 -71 -212.5t-227 -64.5zM443 1710v129
h129v-129h-129zM222 1710v129h129v-129h-129zM350 1891l-145 234h108l86 -147l84 147h108l-145 -234h-96z" />
    <glyph glyph-name="uni01DA" unicode="&#x1da;" horiz-adv-x="808" 
d="M317 -15q-105 0 -160.5 59.5t-55.5 195.5v960h160l1 -973q0 -63 25.5 -91.5t81.5 -28.5t102.5 31t67.5 86v976h160v-1200h-160v111h-28q-34 -65 -82 -95.5t-112 -30.5zM444 1310v129h129v-129h-129zM223 1310v129h129v-129h-129zM351 1491l-145 234h108l86 -147l84 147
h108l-145 -234h-96z" />
    <glyph glyph-name="uni01DB" unicode="&#x1db;" horiz-adv-x="794" 
d="M397 -14q-158 0 -227 64.5t-71 212.5q-4 335 -4 668.5t4 668.5h159q-2 -223 -3.5 -450.5t-0.5 -454t2 -450.5q0 -65 33 -93.5t108 -28.5t107 28.5t32 93.5q1 224 2.5 450.5t1 454t-3.5 450.5h159q4 -335 4 -668.5t-4 -668.5q-2 -148 -71 -212.5t-227 -64.5zM443 1710v129
h129v-129h-129zM222 1710v129h129v-129h-129zM325 1890l-156 234h122l150 -234h-116z" />
    <glyph glyph-name="uni01DC" unicode="&#x1dc;" horiz-adv-x="808" 
d="M317 -15q-105 0 -160.5 59.5t-55.5 195.5v960h160l1 -973q0 -63 25.5 -91.5t81.5 -28.5t102.5 31t67.5 86v976h160v-1200h-160v111h-28q-34 -65 -82 -95.5t-112 -30.5zM444 1310v129h129v-129h-129zM223 1310v129h129v-129h-129zM326 1490l-156 234h122l150 -234h-116z
" />
    <glyph glyph-name="uni01DD" unicode="&#x1dd;" horiz-adv-x="749" 
d="M363 1215q154 0 221 -61t73 -201q2 -72 3.5 -162.5t1.5 -186t-1.5 -187t-3.5 -168.5q-7 -141 -75 -202.5t-217 -61.5q-148 0 -213 61.5t-72 196.5q-1 26 -1.5 88t0 141.5t3.5 158.5h419q0 82 -1 165.5t-3 172.5q-1 69 -32.5 95t-99.5 26q-66 0 -94.5 -26t-31.5 -95
q-1 -32 -1.5 -81.5t1.5 -107.5h-157q-2 37 -2.5 88t0.5 85q8 140 71 201t212 61zM501 510h-264q-1 -57 -1 -114.5t0.5 -102.5t2.5 -65q3 -65 33 -92t93 -27q71 0 101 28.5t31 90.5q2 74 3 144t1 138z" />
    <glyph glyph-name="Gcaron" unicode="&#x1e6;" horiz-adv-x="794" 
d="M406 -14q-108 0 -173.5 28.5t-96 90.5t-33.5 162q-3 131 -4 264.5t-1 266.5t1 266t4 264q3 103 33.5 166t96 91.5t172.5 28.5q155 0 223.5 -64.5t75.5 -214.5q3 -75 3 -146t-3 -147h-159q3 81 3 155.5t-3 155.5q-3 69 -33.5 98t-106.5 29q-78 0 -109.5 -29t-33.5 -98
q-4 -146 -5.5 -282.5t-1.5 -270t1.5 -270t5.5 -281.5q2 -70 33.5 -99t110.5 -29q81 0 114 29t36 99q1 49 1.5 97t0 96t-1.5 97h-145v143h301q2 -103 1.5 -204t-2.5 -211q-6 -151 -75.5 -216t-229.5 -65zM353 1681l-145 234h108l86 -147l84 147h108l-145 -234h-96z" />
    <glyph glyph-name="gcaron" unicode="&#x1e7;" horiz-adv-x="797" 
d="M383 -337q-140 0 -220 41.5t-89 128.5q-1 12 -2 24.5t0 25.5q3 54 41 87.5t88 40.5v28q-52 15 -75.5 41t-27.5 64q-1 8 -1 18v20q4 41 34.5 69.5t74.5 34.5v29q-60 28 -88.5 84.5t-33.5 147.5q-1 47 -2 98t-1 103t1 103.5t2 98.5q6 95 36.5 153.5t92.5 85t163 26.5
q105 0 167.5 -28.5t91.5 -91.5h28q5 52 39 78.5t92 26.5v-125h-26q-45 0 -71.5 -33t-27.5 -104l-1 -74q1 -20 1 -58.5v-84.5t-0.5 -91.5t-2.5 -82.5q-5 -95 -35.5 -153t-92 -83.5t-163.5 -25.5q-79 1 -115 -17t-36 -59v-10q0 -25 16 -40t51.5 -22t95.5 -10q158 -4 236 -49
t88 -152q2 -14 2 -29t-2 -31q-6 -77 -48 -121.5t-113.5 -63t-166.5 -18.5zM385 -221q58 0 98.5 8.5t64 29.5t28.5 58q2 13 1.5 24t-2.5 23q-4 35 -25.5 53t-61.5 25.5t-102 9.5q-80 2 -126 -15t-52 -76q-1 -14 -1 -24t1 -21q4 -39 26 -59.5t60.5 -28t90.5 -7.5zM376 408
q72 0 101 28.5t33 94.5q2 39 3.5 97t1.5 121.5t-1.5 122t-3.5 98.5q-3 66 -32.5 93.5t-101.5 27.5q-71 0 -102 -28t-34 -97q-2 -40 -3 -98t-1 -120.5t1 -119.5t3 -96q4 -66 34 -95t102 -29zM329 1281l-145 234h108l86 -147l84 147h108l-145 -234h-96z" />
    <glyph glyph-name="uni01EA" unicode="&#x1ea;" horiz-adv-x="807" 
d="M403 -14q-158 0 -228 66t-72 217q-3 146 -4 276.5t-1 257t1 256t4 271.5q2 153 72 218.5t228 65.5t227.5 -65.5t72.5 -218.5q3 -142 4.5 -272t1.5 -256t-1.5 -257t-4.5 -276q-3 -151 -72.5 -217t-227.5 -66zM403 121q77 0 108.5 30t32.5 105q4 149 6 282.5t2 262.5
t-2 262.5t-6 279.5q-1 76 -32.5 106.5t-108.5 30.5q-76 0 -108 -30.5t-34 -106.5q-4 -144 -5.5 -276.5t-1.5 -261.5t2 -264t5 -285q2 -75 34 -105t108 -30zM691 -266h-54q-103 0 -145.5 45t-26.5 139l23 109h99l-23 -109q-10 -49 8 -71t66 -22h53v-91z" />
    <glyph glyph-name="uni01EB" unicode="&#x1eb;" horiz-adv-x="776" 
d="M389 -15q-105 0 -168.5 28.5t-93 90.5t-34.5 163q-2 67 -3.5 151t-1.5 174t1.5 178t3.5 163q6 102 35 164t92.5 90t168.5 28q106 0 169 -28.5t91.5 -90.5t33.5 -163q3 -71 4.5 -155t1.5 -173t-1.5 -175.5t-4.5 -162.5q-5 -100 -34 -162.5t-91.5 -91t-168.5 -28.5z
M389 109q73 0 103 29t32 95q3 96 4.5 186.5t2 179.5t-1.5 180t-5 189q-2 67 -32.5 95t-102.5 28q-73 0 -104 -29t-33 -96q-3 -89 -4.5 -178.5t-2 -180t1.5 -183.5t5 -190q3 -67 34 -96t103 -29zM694 -250h-54q-103 0 -145.5 45t-26.5 139l23 109h99l-23 -109q-10 -49 8 -71
t66 -22h53v-91z" />
    <glyph glyph-name="Aringacute" unicode="&#x1fa;" horiz-adv-x="754" 
d="M48 0l175 1600h309l174 -1600h-162l-41 448h-252l-40 -448h-163zM266 591h223l-32 344l-43 522h-73l-43 -522zM378 1672q-64 0 -110.5 46t-46.5 112q0 64 46.5 110.5t110.5 46.5q65 0 112 -46.5t47 -110.5q0 -66 -47 -112t-112 -46zM378 1766q27 0 46 19t19 44
q0 27 -19 46t-46 19q-25 0 -44.5 -19t-19.5 -46q0 -25 19 -44t45 -19zM327 2057l157 234h123l-165 -234h-115z" />
    <glyph glyph-name="aringacute" unicode="&#x1fb;" horiz-adv-x="761" 
d="M303 -13q-108 0 -163.5 58t-64.5 178l-2 50t0 49q5 72 27 129t70 104t133 89q46 23 96.5 45t101.5 41v238q0 65 -26.5 94t-93.5 29q-59 0 -91 -25t-35 -91q-1 -26 -1.5 -62.5t0 -72t1.5 -57.5h-155q-1 39 -2 86.5t0 87.5q3 90 32.5 147t91.5 84t164 27q105 0 164 -29
t83.5 -90.5t24.5 -160.5v-935h-159v111h-24q-25 -59 -61.5 -91.5t-110.5 -32.5zM352 107q53 0 90 29t57 83l2 381q-38 -12 -77.5 -30.5t-87.5 -49.5q-61 -39 -81 -87t-23 -111q0 -23 0.5 -44.5t1.5 -44.5q5 -59 35.5 -92.5t82.5 -33.5zM372 1272q-64 0 -110.5 46t-46.5 112
q0 64 46.5 110.5t110.5 46.5q65 0 112 -46.5t47 -110.5q0 -66 -47 -112t-112 -46zM372 1366q27 0 46 19t19 44q0 27 -19 46t-46 19q-25 0 -44.5 -19t-19.5 -46q0 -25 19 -44t45 -19zM322 1657l157 234h123l-165 -234h-115z" />
    <glyph glyph-name="AEacute" unicode="&#x1fc;" horiz-adv-x="1085" 
d="M48 0l282 1600h703v-143h-354v-580h334v-143h-334v-591h354v-143h-512v444h-225l-77 -444h-171zM325 587h196v871h-67l-73 -559zM575 1680l157 234h123l-165 -234h-115z" />
    <glyph glyph-name="aeacute" unicode="&#x1fd;" horiz-adv-x="1137" 
d="M292 -13q-98 0 -153 57t-64 178q-2 29 -2.5 51t0.5 49q7 103 66.5 170t157.5 116q46 24 94.5 46t97.5 41v90.5v91v91.5q0 32 -8 60t-33 45.5t-78 17.5q-59 0 -85 -26.5t-30 -91.5q-1 -21 -2 -56t-0.5 -71.5t2.5 -62.5h-157q-1 23 -1.5 56t-0.5 65.5t1 55.5
q4 89 32.5 145.5t88.5 83t156 26.5q72 0 120.5 -14t78.5 -40q35 28 85.5 41t118.5 13q142 0 208.5 -59.5t71.5 -198.5q1 -18 1.5 -61t1 -98.5t-0.5 -112t-4 -102.5h-407v-176v-176q0 -69 32.5 -95t98.5 -26t92.5 27t29.5 94q1 34 1.5 75t-3.5 114h156q3 -34 3.5 -86
t-1.5 -87q-6 -140 -69 -201t-208 -61q-107 0 -171 30.5t-93 95.5h-15q-26 -61 -81 -92.5t-128 -31.5zM347 107q34 0 66.5 15.5t54.5 58t23 122.5q0 54 -1 123.5t-1 144.5q-34 -13 -74.5 -33t-81.5 -49q-52 -34 -75 -72t-26 -95q-1 -23 -1 -43t3 -46q6 -57 32 -91.5t81 -34.5
zM648 704h253q2 80 1.5 156t-1.5 113q-3 63 -32 90.5t-92 27.5q-65 0 -97 -27.5t-32 -90.5v-137v-132zM530 1280l157 234h123l-165 -234h-115z" />
    <glyph glyph-name="Oslashacute" unicode="&#x1fe;" horiz-adv-x="807" 
d="M403 -14q-158 0 -228 66t-72 217q-3 146 -4 276.5t-1 257t1 256t4 271.5q2 153 72 218.5t228 65.5t227.5 -65.5t72.5 -218.5q3 -142 4.5 -272t1.5 -256t-1.5 -257t-4.5 -276q-3 -151 -72.5 -217t-227.5 -66zM403 121q77 0 108.5 30t32.5 105q4 131 5.5 245.5t2 224.5
t-0.5 226l-293 -529q1 -40 1.5 -81.5t1.5 -85.5q2 -75 34 -105t108 -30zM255 637l293 524q0 45 -1 90.5t-3 91.5q-1 76 -32.5 106.5t-108.5 30.5q-76 0 -108 -30.5t-34 -106.5q-3 -129 -5 -244.5t-2 -228.5t1 -233zM353 1680l157 234h123l-165 -234h-115z" />
    <glyph glyph-name="oslashacute" unicode="&#x1ff;" horiz-adv-x="776" 
d="M139 323l476 623l57 -84l-493 -637zM389 -15q-105 0 -168.5 28.5t-93 90.5t-34.5 163q-2 67 -3.5 151t-1.5 174t1.5 178t3.5 163q6 102 35 164t92.5 90t168.5 28q106 0 169 -28.5t91.5 -90.5t33.5 -163q3 -71 4.5 -155t1.5 -173t-1.5 -175.5t-4.5 -162.5
q-5 -100 -34 -162.5t-91.5 -91t-168.5 -28.5zM389 109q73 0 103 29t32 95q3 96 4.5 186.5t2 179.5t-1.5 180t-5 189q-2 67 -32.5 95t-102.5 28q-73 0 -104 -29t-33 -96q-3 -89 -4.5 -178.5t-2 -180t1.5 -183.5t5 -190q3 -67 34 -96t103 -29zM338 1280l157 234h123l-165 -234
h-115z" />
    <glyph glyph-name="uni0200" unicode="&#x200;" horiz-adv-x="754" 
d="M48 0l175 1600h309l174 -1600h-162l-41 448h-252l-40 -448h-163zM266 591h223l-32 344l-43 522h-73l-43 -522zM419 1680l-164 234h118l164 -234h-118zM190 1680l-164 234h118l164 -234h-118z" />
    <glyph glyph-name="uni0201" unicode="&#x201;" horiz-adv-x="761" 
d="M303 -13q-108 0 -163.5 58t-64.5 178l-2 50t0 49q5 72 27 129t70 104t133 89q46 23 96.5 45t101.5 41v238q0 65 -26.5 94t-93.5 29q-59 0 -91 -25t-35 -91q-1 -26 -1.5 -62.5t0 -72t1.5 -57.5h-155q-1 39 -2 86.5t0 87.5q3 90 32.5 147t91.5 84t164 27q105 0 164 -29
t83.5 -90.5t24.5 -160.5v-935h-159v111h-24q-25 -59 -61.5 -91.5t-110.5 -32.5zM352 107q53 0 90 29t57 83l2 381q-38 -12 -77.5 -30.5t-87.5 -49.5q-61 -39 -81 -87t-23 -111q0 -23 0.5 -44.5t1.5 -44.5q5 -59 35.5 -92.5t82.5 -33.5zM414 1280l-164 234h118l164 -234h-118
zM185 1280l-164 234h118l164 -234h-118z" />
    <glyph glyph-name="uni0202" unicode="&#x202;" horiz-adv-x="754" 
d="M48 0l175 1600h309l174 -1600h-162l-41 448h-252l-40 -448h-163zM266 591h223l-32 344l-43 522h-73l-43 -522zM378 1908q122 0 178 -56t62 -178h-105q-1 74 -33 109t-102 35q-73 0 -103.5 -36t-31.5 -108h-106q5 123 61.5 178.5t179.5 55.5z" />
    <glyph glyph-name="uni0203" unicode="&#x203;" horiz-adv-x="761" 
d="M303 -13q-108 0 -163.5 58t-64.5 178l-2 50t0 49q5 72 27 129t70 104t133 89q46 23 96.5 45t101.5 41v238q0 65 -26.5 94t-93.5 29q-59 0 -91 -25t-35 -91q-1 -26 -1.5 -62.5t0 -72t1.5 -57.5h-155q-1 39 -2 86.5t0 87.5q3 90 32.5 147t91.5 84t164 27q105 0 164 -29
t83.5 -90.5t24.5 -160.5v-935h-159v111h-24q-25 -59 -61.5 -91.5t-110.5 -32.5zM352 107q53 0 90 29t57 83l2 381q-38 -12 -77.5 -30.5t-87.5 -49.5q-61 -39 -81 -87t-23 -111q0 -23 0.5 -44.5t1.5 -44.5q5 -59 35.5 -92.5t82.5 -33.5zM373 1508q122 0 178 -56t62 -178h-105
q-1 74 -33 109t-102 35q-73 0 -103.5 -36t-31.5 -108h-106q5 123 61.5 178.5t179.5 55.5z" />
    <glyph glyph-name="uni0204" unicode="&#x204;" horiz-adv-x="678" 
d="M113 0v1600h514v-143h-355v-580h335v-143h-335v-591h355v-143h-514zM406 1679l-164 234h118l164 -234h-118zM177 1679l-164 234h118l164 -234h-118z" />
    <glyph glyph-name="uni0205" unicode="&#x205;" horiz-adv-x="749" 
d="M386 -15q-153 0 -220 61.5t-74 200.5q-2 73 -3 163t-1 185.5t1 187.5t3 168q8 142 76 203t217 61q147 0 212.5 -61t71.5 -197q1 -26 2 -88t0.5 -141.5t-4.5 -158.5h-419q0 -81 1.5 -165t3.5 -173q2 -68 32.5 -94.5t98.5 -26.5q67 0 95.5 26.5t31.5 94.5q2 32 1.5 82
t-2.5 107h157q3 -36 3.5 -87t-1.5 -86q-7 -140 -70.5 -201t-212.5 -61zM249 690h264q1 57 1 114.5t-1 102.5t-2 65q-4 65 -33.5 92t-92.5 27q-71 0 -100.5 -28.5t-31.5 -90.5q-1 -73 -2.5 -143t-1.5 -139zM422 1280l-164 234h118l164 -234h-118zM193 1280l-164 234h118
l164 -234h-118z" />
    <glyph glyph-name="uni0206" unicode="&#x206;" horiz-adv-x="678" 
d="M113 0v1600h514v-143h-355v-580h335v-143h-335v-591h355v-143h-514zM365 1907q122 0 178 -56t62 -178h-105q-1 74 -33 109t-102 35q-73 0 -103.5 -36t-31.5 -108h-106q5 123 61.5 178.5t179.5 55.5z" />
    <glyph glyph-name="uni0207" unicode="&#x207;" horiz-adv-x="749" 
d="M386 -15q-153 0 -220 61.5t-74 200.5q-2 73 -3 163t-1 185.5t1 187.5t3 168q8 142 76 203t217 61q147 0 212.5 -61t71.5 -197q1 -26 2 -88t0.5 -141.5t-4.5 -158.5h-419q0 -81 1.5 -165t3.5 -173q2 -68 32.5 -94.5t98.5 -26.5q67 0 95.5 26.5t31.5 94.5q2 32 1.5 82
t-2.5 107h157q3 -36 3.5 -87t-1.5 -86q-7 -140 -70.5 -201t-212.5 -61zM249 690h264q1 57 1 114.5t-1 102.5t-2 65q-4 65 -33.5 92t-92.5 27q-71 0 -100.5 -28.5t-31.5 -90.5q-1 -73 -2.5 -143t-1.5 -139zM381 1508q122 0 178 -56t62 -178h-105q-1 74 -33 109t-102 35
q-73 0 -103.5 -36t-31.5 -108h-106q5 123 61.5 178.5t179.5 55.5z" />
    <glyph glyph-name="uni0208" unicode="&#x208;" horiz-adv-x="385" 
d="M113 0v1600h159v-1600h-159zM234 1680l-164 234h118l164 -234h-118zM5 1680l-164 234h118l164 -234h-118z" />
    <glyph glyph-name="uni0209" unicode="&#x209;" horiz-adv-x="377" 
d="M109 0v1200h159v-1200h-159zM230 1280l-164 234h118l164 -234h-118zM1 1280l-164 234h118l164 -234h-118z" />
    <glyph glyph-name="uni020A" unicode="&#x20a;" horiz-adv-x="385" 
d="M113 0v1600h159v-1600h-159zM193 1908q122 0 178 -56t62 -178h-105q-1 74 -33 109t-102 35q-73 0 -103.5 -36t-31.5 -108h-106q5 123 61.5 178.5t179.5 55.5z" />
    <glyph glyph-name="uni020B" unicode="&#x20b;" horiz-adv-x="377" 
d="M109 0v1200h159v-1200h-159zM189 1508q122 0 178 -56t62 -178h-105q-1 74 -33 109t-102 35q-73 0 -103.5 -36t-31.5 -108h-106q5 123 61.5 178.5t179.5 55.5z" />
    <glyph glyph-name="uni020C" unicode="&#x20c;" horiz-adv-x="807" 
d="M403 -14q-158 0 -228 66t-72 217q-3 146 -4 276.5t-1 257t1 256t4 271.5q2 153 72 218.5t228 65.5t227.5 -65.5t72.5 -218.5q3 -142 4.5 -272t1.5 -256t-1.5 -257t-4.5 -276q-3 -151 -72.5 -217t-227.5 -66zM403 121q77 0 108.5 30t32.5 105q4 149 6 282.5t2 262.5
t-2 262.5t-6 279.5q-1 76 -32.5 106.5t-108.5 30.5q-76 0 -108 -30.5t-34 -106.5q-4 -144 -5.5 -276.5t-1.5 -261.5t2 -264t5 -285q2 -75 34 -105t108 -30zM446 1680l-164 234h118l164 -234h-118zM217 1680l-164 234h118l164 -234h-118z" />
    <glyph glyph-name="uni020D" unicode="&#x20d;" horiz-adv-x="776" 
d="M389 -15q-105 0 -168.5 28.5t-93 90.5t-34.5 163q-2 67 -3.5 151t-1.5 174t1.5 178t3.5 163q6 102 35 164t92.5 90t168.5 28q106 0 169 -28.5t91.5 -90.5t33.5 -163q3 -71 4.5 -155t1.5 -173t-1.5 -175.5t-4.5 -162.5q-5 -100 -34 -162.5t-91.5 -91t-168.5 -28.5z
M389 109q73 0 103 29t32 95q3 96 4.5 186.5t2 179.5t-1.5 180t-5 189q-2 67 -32.5 95t-102.5 28q-73 0 -104 -29t-33 -96q-3 -89 -4.5 -178.5t-2 -180t1.5 -183.5t5 -190q3 -67 34 -96t103 -29zM430 1280l-164 234h118l164 -234h-118zM201 1280l-164 234h118l164 -234h-118z
" />
    <glyph glyph-name="uni020E" unicode="&#x20e;" horiz-adv-x="807" 
d="M403 -14q-158 0 -228 66t-72 217q-3 146 -4 276.5t-1 257t1 256t4 271.5q2 153 72 218.5t228 65.5t227.5 -65.5t72.5 -218.5q3 -142 4.5 -272t1.5 -256t-1.5 -257t-4.5 -276q-3 -151 -72.5 -217t-227.5 -66zM403 121q77 0 108.5 30t32.5 105q4 149 6 282.5t2 262.5
t-2 262.5t-6 279.5q-1 76 -32.5 106.5t-108.5 30.5q-76 0 -108 -30.5t-34 -106.5q-4 -144 -5.5 -276.5t-1.5 -261.5t2 -264t5 -285q2 -75 34 -105t108 -30zM405 1908q122 0 178 -56t62 -178h-105q-1 74 -33 109t-102 35q-73 0 -103.5 -36t-31.5 -108h-106q5 123 61.5 178.5
t179.5 55.5z" />
    <glyph glyph-name="uni020F" unicode="&#x20f;" horiz-adv-x="776" 
d="M389 -15q-105 0 -168.5 28.5t-93 90.5t-34.5 163q-2 67 -3.5 151t-1.5 174t1.5 178t3.5 163q6 102 35 164t92.5 90t168.5 28q106 0 169 -28.5t91.5 -90.5t33.5 -163q3 -71 4.5 -155t1.5 -173t-1.5 -175.5t-4.5 -162.5q-5 -100 -34 -162.5t-91.5 -91t-168.5 -28.5z
M389 109q73 0 103 29t32 95q3 96 4.5 186.5t2 179.5t-1.5 180t-5 189q-2 67 -32.5 95t-102.5 28q-73 0 -104 -29t-33 -96q-3 -89 -4.5 -178.5t-2 -180t1.5 -183.5t5 -190q3 -67 34 -96t103 -29zM389 1508q122 0 178 -56t62 -178h-105q-1 74 -33 109t-102 35
q-73 0 -103.5 -36t-31.5 -108h-106q5 123 61.5 178.5t179.5 55.5z" />
    <glyph glyph-name="uni0210" unicode="&#x210;" horiz-adv-x="778" 
d="M113 0v1600h286q150 0 217.5 -62.5t72.5 -205.5q3 -90 4 -165.5t0 -146.5t-4 -146q-4 -97 -35.5 -156t-98.5 -85l164 -633h-168l-148 606h-131v-606h-159zM272 749h126q69 0 99 28t33 91q3 83 4 159t0.5 152t-4.5 159q-3 64 -33 91.5t-98 27.5h-127v-708zM426 1680
l-164 234h118l164 -234h-118zM197 1680l-164 234h118l164 -234h-118z" />
    <glyph glyph-name="uni0211" unicode="&#x211;" horiz-adv-x="552" 
d="M109 0v1200h162v-119h32q18 69 58.5 96t109.5 27q19 0 37.5 -1t33.5 -2v-125h-69q-90 0 -137.5 -30t-64.5 -102v-944h-162zM351 1280l-164 234h118l164 -234h-118zM122 1280l-164 234h118l164 -234h-118z" />
    <glyph glyph-name="uni0212" unicode="&#x212;" horiz-adv-x="778" 
d="M113 0v1600h286q150 0 217.5 -62.5t72.5 -205.5q3 -90 4 -165.5t0 -146.5t-4 -146q-4 -97 -35.5 -156t-98.5 -85l164 -633h-168l-148 606h-131v-606h-159zM272 749h126q69 0 99 28t33 91q3 83 4 159t0.5 152t-4.5 159q-3 64 -33 91.5t-98 27.5h-127v-708zM385 1908
q122 0 178 -56t62 -178h-105q-1 74 -33 109t-102 35q-73 0 -103.5 -36t-31.5 -108h-106q5 123 61.5 178.5t179.5 55.5z" />
    <glyph glyph-name="uni0213" unicode="&#x213;" horiz-adv-x="552" 
d="M109 0v1200h162v-119h32q18 69 58.5 96t109.5 27q19 0 37.5 -1t33.5 -2v-125h-69q-90 0 -137.5 -30t-64.5 -102v-944h-162zM310 1508q122 0 178 -56t62 -178h-105q-1 74 -33 109t-102 35q-73 0 -103.5 -36t-31.5 -108h-106q5 123 61.5 178.5t179.5 55.5z" />
    <glyph glyph-name="uni0214" unicode="&#x214;" horiz-adv-x="794" 
d="M397 -14q-158 0 -227 64.5t-71 212.5q-4 335 -4 668.5t4 668.5h159q-2 -223 -3.5 -450.5t-0.5 -454t2 -450.5q0 -65 33 -93.5t108 -28.5t107 28.5t32 93.5q1 224 2.5 450.5t1 454t-3.5 450.5h159q4 -335 4 -668.5t-4 -668.5q-2 -148 -71 -212.5t-227 -64.5zM439 1680
l-164 234h118l164 -234h-118zM210 1680l-164 234h118l164 -234h-118z" />
    <glyph glyph-name="uni0215" unicode="&#x215;" horiz-adv-x="808" 
d="M317 -15q-105 0 -160.5 59.5t-55.5 195.5v960h160l1 -973q0 -63 25.5 -91.5t81.5 -28.5t102.5 31t67.5 86v976h160v-1200h-160v111h-28q-34 -65 -82 -95.5t-112 -30.5zM439 1280l-164 234h118l164 -234h-118zM210 1280l-164 234h118l164 -234h-118z" />
    <glyph glyph-name="uni0216" unicode="&#x216;" horiz-adv-x="794" 
d="M397 -14q-158 0 -227 64.5t-71 212.5q-4 335 -4 668.5t4 668.5h159q-2 -223 -3.5 -450.5t-0.5 -454t2 -450.5q0 -65 33 -93.5t108 -28.5t107 28.5t32 93.5q1 224 2.5 450.5t1 454t-3.5 450.5h159q4 -335 4 -668.5t-4 -668.5q-2 -148 -71 -212.5t-227 -64.5zM397 1908
q122 0 178 -56t62 -178h-105q-1 74 -33 109t-102 35q-73 0 -103.5 -36t-31.5 -108h-106q5 123 61.5 178.5t179.5 55.5z" />
    <glyph glyph-name="uni0217" unicode="&#x217;" horiz-adv-x="808" 
d="M317 -15q-105 0 -160.5 59.5t-55.5 195.5v960h160l1 -973q0 -63 25.5 -91.5t81.5 -28.5t102.5 31t67.5 86v976h160v-1200h-160v111h-28q-34 -65 -82 -95.5t-112 -30.5zM398 1508q122 0 178 -56t62 -178h-105q-1 74 -33 109t-102 35q-73 0 -103.5 -36t-31.5 -108h-106
q5 123 61.5 178.5t179.5 55.5z" />
    <glyph glyph-name="uni0218" unicode="&#x218;" horiz-adv-x="770" 
d="M387 -14q-156 0 -225.5 65t-74.5 216q-1 57 -1.5 106t0.5 99t4 108h152q-4 -87 -4.5 -170.5t4.5 -165.5q3 -66 36 -94.5t109 -28.5q72 0 103.5 28.5t35.5 94.5q4 48 4.5 94.5t-1 94t-3.5 97.5q-2 76 -27.5 119.5t-87.5 59.5l-114 28q-82 20 -127.5 59.5t-64.5 104.5
t-22 162q-1 63 0 133.5t2 139.5q3 100 33.5 161t96 89t172.5 28q151 0 219 -64.5t73 -214.5q2 -59 1 -135t-3 -158h-154q3 86 4 163t-2 152q-3 66 -35.5 94.5t-104.5 28.5q-73 0 -105 -28.5t-36 -94.5q-5 -75 -4.5 -147t4.5 -147q2 -84 23 -125.5t77 -55.5l106 -25
q89 -20 139.5 -60.5t72 -106t24.5 -160.5q2 -48 2 -91.5t-0.5 -85.5t-2.5 -86q-6 -151 -74.5 -216t-223.5 -65zM318 -366l61 129h-87v157h200v-138l-76 -148h-98z" />
    <glyph glyph-name="uni0219" unicode="&#x219;" horiz-adv-x="706" 
d="M347 -15q-146 0 -205.5 61t-64.5 200q-1 43 -0.5 86.5t2.5 85.5h144q-3 -60 -2.5 -106t0.5 -81q2 -69 31 -95.5t95 -26.5q72 0 103.5 26.5t32.5 95.5q1 29 1 49.5t0.5 39.5t-0.5 44q-2 69 -19.5 104t-70.5 52l-106 32q-76 23 -122.5 58t-67.5 91t-23 144q-1 32 -0.5 55.5
t0.5 50.5q3 141 65 202.5t216 61.5q146 0 206 -60t65 -200v-80t-3 -89h-148q2 31 2 66v66.5t-1 54.5q-1 67 -27 92.5t-94 25.5t-94.5 -25.5t-28.5 -93.5q-1 -24 -2 -50.5t0 -62.5q1 -71 16 -113.5t75 -61.5l100 -27q109 -29 161 -93.5t52 -193.5q0 -33 -0.5 -63.5
t-2.5 -63.5q-3 -138 -66 -198t-219 -60zM286 -366l61 129h-87v157h200v-138l-76 -148h-98z" />
    <glyph glyph-name="uni021A" unicode="&#x21a;" horiz-adv-x="643" 
d="M242 0v1457h-230v143h619v-143h-230v-1457h-159zM255 -366l61 129h-87v157h200v-138l-76 -148h-98z" />
    <glyph glyph-name="uni021B" unicode="&#x21b;" horiz-adv-x="529" 
d="M413 -15q-158 0 -221 60.5t-63 202.5l-1 828h-91v124h95v340h160v-340h198v-124h-202l1 -845q0 -71 24 -96.5t103 -25.5q29 0 49 1t47 4v-119q-22 -4 -47 -7t-52 -3zM271 -366l61 129h-87v157h200v-138l-76 -148h-98z" />
    <glyph glyph-name="uni022A" unicode="&#x22a;" horiz-adv-x="807" 
d="M403 -14q-158 0 -228 66t-72 217q-3 146 -4 276.5t-1 257t1 256t4 271.5q2 153 72 218.5t228 65.5t227.5 -65.5t72.5 -218.5q3 -142 4.5 -272t1.5 -256t-1.5 -257t-4.5 -276q-3 -151 -72.5 -217t-227.5 -66zM403 121q77 0 108.5 30t32.5 105q4 149 6 282.5t2 262.5
t-2 262.5t-6 279.5q-1 76 -32.5 106.5t-108.5 30.5q-76 0 -108 -30.5t-34 -106.5q-4 -144 -5.5 -276.5t-1.5 -261.5t2 -264t5 -285q2 -75 34 -105t108 -30zM450 1710v129h129v-129h-129zM229 1710v129h129v-129h-129zM161 1980h489v-84h-489v84z" />
    <glyph glyph-name="uni022B" unicode="&#x22b;" horiz-adv-x="776" 
d="M389 -15q-105 0 -168.5 28.5t-93 90.5t-34.5 163q-2 67 -3.5 151t-1.5 174t1.5 178t3.5 163q6 102 35 164t92.5 90t168.5 28q106 0 169 -28.5t91.5 -90.5t33.5 -163q3 -71 4.5 -155t1.5 -173t-1.5 -175.5t-4.5 -162.5q-5 -100 -34 -162.5t-91.5 -91t-168.5 -28.5z
M389 109q73 0 103 29t32 95q3 96 4.5 186.5t2 179.5t-1.5 180t-5 189q-2 67 -32.5 95t-102.5 28q-73 0 -104 -29t-33 -96q-3 -89 -4.5 -178.5t-2 -180t1.5 -183.5t5 -190q3 -67 34 -96t103 -29zM435 1310v129h129v-129h-129zM214 1310v129h129v-129h-129zM146 1580h489v-84
h-489v84z" />
    <glyph glyph-name="uni022C" unicode="&#x22c;" horiz-adv-x="807" 
d="M403 -14q-158 0 -228 66t-72 217q-3 146 -4 276.5t-1 257t1 256t4 271.5q2 153 72 218.5t228 65.5t227.5 -65.5t72.5 -218.5q3 -142 4.5 -272t1.5 -256t-1.5 -257t-4.5 -276q-3 -151 -72.5 -217t-227.5 -66zM403 121q77 0 108.5 30t32.5 105q4 149 6 282.5t2 262.5
t-2 262.5t-6 279.5q-1 76 -32.5 106.5t-108.5 30.5q-76 0 -108 -30.5t-34 -106.5q-4 -144 -5.5 -276.5t-1.5 -261.5t2 -264t5 -285q2 -75 34 -105t108 -30zM542 1847h75q-2 -81 -34.5 -120t-90.5 -39q-38 0 -60 12t-38 28t-32 27.5t-40 11.5q-22 0 -36 -16t-19 -55h-75
q7 87 42 124.5t92 37.5q39 0 61.5 -11.5t37.5 -27.5t29.5 -28t38.5 -12q26 0 37 18t12 50zM159 2022h489v-84h-489v84z" />
    <glyph glyph-name="uni022D" unicode="&#x22d;" horiz-adv-x="776" 
d="M389 -15q-105 0 -168.5 28.5t-93 90.5t-34.5 163q-2 67 -3.5 151t-1.5 174t1.5 178t3.5 163q6 102 35 164t92.5 90t168.5 28q106 0 169 -28.5t91.5 -90.5t33.5 -163q3 -71 4.5 -155t1.5 -173t-1.5 -175.5t-4.5 -162.5q-5 -100 -34 -162.5t-91.5 -91t-168.5 -28.5z
M389 109q73 0 103 29t32 95q3 96 4.5 186.5t2 179.5t-1.5 180t-5 189q-2 67 -32.5 95t-102.5 28q-73 0 -104 -29t-33 -96q-3 -89 -4.5 -178.5t-2 -180t1.5 -183.5t5 -190q3 -67 34 -96t103 -29zM527 1447h75q-2 -81 -34.5 -120t-90.5 -39q-38 0 -60 12t-38 28t-32 27.5
t-40 11.5q-22 0 -36 -16t-19 -55h-75q7 87 42 124.5t92 37.5q39 0 61.5 -11.5t37.5 -27.5t29.5 -28t38.5 -12q26 0 37 18t12 50zM144 1622h489v-84h-489v84z" />
    <glyph glyph-name="uni0230" unicode="&#x230;" horiz-adv-x="807" 
d="M403 -14q-158 0 -228 66t-72 217q-3 146 -4 276.5t-1 257t1 256t4 271.5q2 153 72 218.5t228 65.5t227.5 -65.5t72.5 -218.5q3 -142 4.5 -272t1.5 -256t-1.5 -257t-4.5 -276q-3 -151 -72.5 -217t-227.5 -66zM403 121q77 0 108.5 30t32.5 105q4 149 6 282.5t2 262.5
t-2 262.5t-6 279.5q-1 76 -32.5 106.5t-108.5 30.5q-76 0 -108 -30.5t-34 -106.5q-4 -144 -5.5 -276.5t-1.5 -261.5t2 -264t5 -285q2 -75 34 -105t108 -30zM339 1680v129h129v-129h-129zM161 1980h489v-84h-489v84z" />
    <glyph glyph-name="uni0231" unicode="&#x231;" horiz-adv-x="776" 
d="M389 -15q-105 0 -168.5 28.5t-93 90.5t-34.5 163q-2 67 -3.5 151t-1.5 174t1.5 178t3.5 163q6 102 35 164t92.5 90t168.5 28q106 0 169 -28.5t91.5 -90.5t33.5 -163q3 -71 4.5 -155t1.5 -173t-1.5 -175.5t-4.5 -162.5q-5 -100 -34 -162.5t-91.5 -91t-168.5 -28.5z
M389 109q73 0 103 29t32 95q3 96 4.5 186.5t2 179.5t-1.5 180t-5 189q-2 67 -32.5 95t-102.5 28q-73 0 -104 -29t-33 -96q-3 -89 -4.5 -178.5t-2 -180t1.5 -183.5t5 -190q3 -67 34 -96t103 -29zM324 1280v129h129v-129h-129zM146 1580h489v-84h-489v84z" />
    <glyph glyph-name="uni0232" unicode="&#x232;" horiz-adv-x="714" 
d="M276 0v495l-28 1l-209 1104h162l74 -447l56 -459h51l55 459l74 447h164l-211 -1105l-28 -1v-494h-160zM111 1770h489v-84h-489v84z" />
    <glyph glyph-name="uni0233" unicode="&#x233;" horiz-adv-x="708" 
d="M185 -410q-28 0 -68 4t-70 8v123q25 -3 64.5 -5.5t71.5 -2.5q78 0 106 27t39 96l25 160h-128l-174 1200h165l60 -578l59 -499h58l57 499l58 578h165l-185 -1349q-13 -90 -43.5 -147.5t-92.5 -85.5t-167 -28zM122 1370h489v-84h-489v84z" />
    <glyph glyph-name="uni0237" unicode="&#x237;" horiz-adv-x="380" 
d="M-18 -412q-28 0 -66.5 3.5t-67.5 7.5v122q26 -2 61.5 -3.5t70.5 -1.5q70 0 100 27t30 92v1365h161v-1352q-1 -138 -69.5 -199t-219.5 -61z" />
    <glyph glyph-name="uni0259" unicode="&#x259;" horiz-adv-x="749" 
d="M363 1215q154 0 221 -61t73 -201q2 -72 3.5 -162.5t1.5 -186t-1.5 -187t-3.5 -168.5q-7 -141 -75 -202.5t-217 -61.5q-148 0 -213 61.5t-72 196.5q-1 26 -1.5 88t0 141.5t3.5 158.5h419q0 82 -1 165.5t-3 172.5q-1 69 -32.5 95t-99.5 26q-66 0 -94.5 -26t-31.5 -95
q-1 -32 -1.5 -81.5t1.5 -107.5h-157q-2 37 -2.5 88t0.5 85q8 140 71 201t212 61zM501 510h-264q-1 -57 -1 -114.5t0.5 -102.5t2.5 -65q3 -65 33 -92t93 -27q71 0 101 28.5t31 90.5q2 74 3 144t1 138z" />
    <glyph glyph-name="uni02B9" unicode="&#x2b9;" horiz-adv-x="358" 
d="M137 1165l-33 227v208h150v-208l-33 -227h-84z" />
    <glyph glyph-name="uni02BA" unicode="&#x2ba;" horiz-adv-x="630" 
d="M136 1165l-32 227v208h145v-208l-32 -227h-81zM412 1165l-31 227v208h145v-208l-32 -227h-82z" />
    <glyph glyph-name="uni02BB" unicode="&#x2bb;" horiz-adv-x="408" 
d="M278 1578l-62 -129h88v-157h-200v139l76 147h98z" />
    <glyph glyph-name="uni02BC" unicode="&#x2bc;" horiz-adv-x="358" 
d="M137 1165l-33 227v208h150v-208l-33 -227h-84z" />
    <glyph glyph-name="uni02BE" unicode="&#x2be;" horiz-adv-x="411" 
d="M100 1209v99q45 -4 79 26.5t34 74.5t-34.5 74.5t-81.5 26.5v98q59 3 108.5 -24t79 -73t29.5 -103q0 -55 -30 -101t-79 -73t-105 -25z" />
    <glyph glyph-name="uni02BF" unicode="&#x2bf;" horiz-adv-x="411" 
d="M311 1209q-56 -2 -105 25t-79 73t-30 101q0 57 29.5 103t79 73t108.5 24v-98q-47 4 -81.5 -26.5t-34.5 -74.5t34.5 -74.5t78.5 -26.5v-99z" />
    <glyph glyph-name="circumflex" unicode="&#x2c6;" horiz-adv-x="602" 
d="M104 1281l145 235h104l145 -235h-116l-80 140l-82 -140h-116z" />
    <glyph glyph-name="caron" unicode="&#x2c7;" horiz-adv-x="600" 
d="M253 1281l-145 234h108l86 -147l84 147h108l-145 -234h-96z" />
    <glyph glyph-name="uni02C8" unicode="&#x2c8;" horiz-adv-x="351" 
d="M104 1600h143v-744h-143v744z" />
    <glyph glyph-name="uni02C9" unicode="&#x2c9;" horiz-adv-x="786" 
d="M93 1370h489v-84h-489v84z" />
    <glyph glyph-name="uni02CA" unicode="&#x2ca;" horiz-adv-x="557" 
d="M198 1165h-94l205 435h144z" />
    <glyph glyph-name="uni02CB" unicode="&#x2cb;" horiz-adv-x="557" 
d="M359 1165l-255 435h144l205 -435h-94z" />
    <glyph glyph-name="uni02CC" unicode="&#x2cc;" horiz-adv-x="351" 
d="M104 376h143v-776h-143v776z" />
    <glyph glyph-name="breve" unicode="&#x2d8;" horiz-adv-x="681" 
d="M345 1272q-123 0 -179.5 56t-61.5 178h106q1 -72 31.5 -108t103.5 -36q70 0 102 35t33 109h105q-6 -122 -62 -178t-178 -56z" />
    <glyph glyph-name="dotaccent" unicode="&#x2d9;" horiz-adv-x="383" 
d="M120 1280v129h129v-129h-129z" />
    <glyph glyph-name="ring" unicode="&#x2da;" horiz-adv-x="633" 
d="M250 1272q-64 0 -110.5 46t-46.5 112q0 64 46.5 110.5t110.5 46.5q65 0 112 -46.5t47 -110.5q0 -66 -47 -112t-112 -46zM250 1366q27 0 46 19t19 44q0 27 -19 46t-46 19q-25 0 -44.5 -19t-19.5 -46q0 -25 19 -44t45 -19z" />
    <glyph glyph-name="ogonek" unicode="&#x2db;" horiz-adv-x="447" 
d="M308 -293h-54q-103 0 -145.5 45t-26.5 139l23 109h99l-23 -109q-10 -49 8 -71t66 -22h53v-91z" />
    <glyph glyph-name="tilde" unicode="&#x2dc;" horiz-adv-x="715" 
d="M492 1446h75q-2 -81 -34.5 -120t-90.5 -39q-38 0 -60 12t-38 28t-32 27.5t-40 11.5q-22 0 -36 -16t-19 -55h-75q7 87 42 124.5t92 37.5q39 0 61.5 -11.5t37.5 -27.5t29.5 -28t38.5 -12q26 0 37 18t12 50z" />
    <glyph glyph-name="hungarumlaut" unicode="&#x2dd;" horiz-adv-x="715" 
d="M93 1281l175 236h119l-175 -236h-119zM315 1281l176 236h120l-176 -236h-120z" />
    <glyph glyph-name="gravecomb" unicode="&#x300;" horiz-adv-x="0" 
d="M256 1280l-156 234h122l150 -234h-116z" />
    <glyph glyph-name="acutecomb" unicode="&#x301;" horiz-adv-x="0" 
d="M96 1280l157 234h123l-165 -234h-115z" />
    <glyph glyph-name="uni0302" unicode="&#x302;" horiz-adv-x="0" 
d="M104 1281l145 235h104l145 -235h-116l-80 140l-82 -140h-116z" />
    <glyph glyph-name="tildecomb" unicode="&#x303;" horiz-adv-x="0" 
d="M492 1446h75q-2 -81 -34.5 -120t-90.5 -39q-38 0 -60 12t-38 28t-32 27.5t-40 11.5q-22 0 -36 -16t-19 -55h-75q7 87 42 124.5t92 37.5q39 0 61.5 -11.5t37.5 -27.5t29.5 -28t38.5 -12q26 0 37 18t12 50z" />
    <glyph glyph-name="uni0304" unicode="&#x304;" horiz-adv-x="0" 
d="M93 1370h489v-84h-489v84z" />
    <glyph glyph-name="uni0306" unicode="&#x306;" horiz-adv-x="0" 
d="M345 1272q-123 0 -179.5 56t-61.5 178h106q1 -72 31.5 -108t103.5 -36q70 0 102 35t33 109h105q-6 -122 -62 -178t-178 -56z" />
    <glyph glyph-name="uni0307" unicode="&#x307;" horiz-adv-x="0" 
d="M120 1280v129h129v-129h-129z" />
    <glyph glyph-name="uni0308" unicode="&#x308;" horiz-adv-x="0" 
d="M354 1310v129h129v-129h-129zM133 1310v129h129v-129h-129z" />
    <glyph glyph-name="hookabovecomb" unicode="&#x309;" horiz-adv-x="0" 
d="M190 1264l12 81q7 42 -7.5 56.5t-62.5 14.5h-78v82h78q94 0 133.5 -35.5t26.5 -117.5l-12 -81h-90z" />
    <glyph glyph-name="uni030A" unicode="&#x30a;" horiz-adv-x="0" 
d="M250 1272q-64 0 -110.5 46t-46.5 112q0 64 46.5 110.5t110.5 46.5q65 0 112 -46.5t47 -110.5q0 -66 -47 -112t-112 -46zM250 1366q27 0 46 19t19 44q0 27 -19 46t-46 19q-25 0 -44.5 -19t-19.5 -46q0 -25 19 -44t45 -19z" />
    <glyph glyph-name="uni030B" unicode="&#x30b;" horiz-adv-x="0" 
d="M93 1281l175 236h119l-175 -236h-119zM315 1281l176 236h120l-176 -236h-120z" />
    <glyph glyph-name="uni030C" unicode="&#x30c;" horiz-adv-x="0" 
d="M249 1281l-145 234h108l86 -147l84 147h108l-145 -234h-96z" />
    <glyph glyph-name="uni030F" unicode="&#x30f;" horiz-adv-x="0" 
d="M493 1280l-164 234h118l164 -234h-118zM264 1280l-164 234h118l164 -234h-118z" />
    <glyph glyph-name="uni0311" unicode="&#x311;" horiz-adv-x="0" 
d="M345 1508q122 0 178 -56t62 -178h-105q-1 74 -33 109t-102 35q-73 0 -103.5 -36t-31.5 -108h-106q5 123 61.5 178.5t179.5 55.5z" />
    <glyph glyph-name="uni0312" unicode="&#x312;" horiz-adv-x="0" 
d="M278 1578l-62 -129h88v-157h-200v139l76 147h98z" />
    <glyph glyph-name="uni031B" unicode="&#x31b;" horiz-adv-x="0" 
d="M160 986q-8 0 -18 1t-21 3l-1 91h23h17q66 2 89 28.5t26 99.5q1 20 1.5 48t0 56.5t-1.5 48.5h102q1 -20 1.5 -48.5t0 -56.5t-1.5 -48q-7 -116 -58 -169.5t-159 -53.5z" />
    <glyph glyph-name="dotbelowcomb" unicode="&#x323;" horiz-adv-x="0" 
d="M100 -209v129h129v-129h-129z" />
    <glyph glyph-name="uni0324" unicode="&#x324;" horiz-adv-x="0" 
d="M354 -180v129h129v-129h-129zM133 -180v129h129v-129h-129z" />
    <glyph glyph-name="uni0326" unicode="&#x326;" horiz-adv-x="0" 
d="M130 -366l61 129h-87v157h200v-138l-76 -148h-98z" />
    <glyph glyph-name="uni0327" unicode="&#x327;" horiz-adv-x="0" 
d="M78 -293v91h53q48 0 66 22t8 71l-23 109h99l23 -109q16 -94 -26.5 -139t-146.5 -45h-53z" />
    <glyph glyph-name="uni0328" unicode="&#x328;" horiz-adv-x="0" 
d="M309 -293h-54q-103 0 -145.5 45t-26.5 139l23 109h99l-23 -109q-10 -49 8 -71t66 -22h53v-91z" />
    <glyph glyph-name="uni032E" unicode="&#x32e;" horiz-adv-x="0" 
d="M345 -315q-123 0 -179.5 56t-61.5 178h106q1 -72 31.5 -108t103.5 -36q70 0 102 35t33 109h105q-6 -122 -62 -178t-178 -56z" />
    <glyph glyph-name="uni0331" unicode="&#x331;" horiz-adv-x="0" 
d="M93 -88h489v-84h-489v84z" />
    <glyph glyph-name="uni0335" unicode="&#x335;" horiz-adv-x="0" 
d="M104 813h407v-108h-407v108z" />
    <glyph glyph-name="pi" unicode="&#x3c0;" horiz-adv-x="1133" 
d="M920 -10q-105 0 -165.5 26.5t-86 84.5t-28.5 150l-1 804h-198v-1055h-160v1055h-161v143h858v-143h-179v-819q0 -69 22.5 -95.5t100.5 -26.5q27 0 47 1.5t44 4.5v-119q-20 -5 -43.5 -8t-49.5 -3z" />
    <glyph glyph-name="uni1E08" unicode="&#x1e08;" horiz-adv-x="795" 
d="M402 -15q-156 0 -226.5 65t-73.5 215q-2 141 -3 273t-1 261.5t1 261.5t3 273q2 144 73.5 211.5t225.5 67.5t226 -66t77 -213q2 -45 2 -96t-0.5 -101.5t-2.5 -95.5h-159l2 102t1 102t-2 102q-2 73 -35 102t-109 29q-74 0 -106 -29t-34 -102q-3 -150 -4.5 -284.5
t-1.5 -263.5t1.5 -263t4.5 -284q2 -73 34.5 -102.5t106.5 -29.5q80 0 114.5 29.5t36.5 102.5q2 48 2 98.5t-1 107t-2 121.5h158q4 -89 4.5 -163.5t-2.5 -150.5q-5 -150 -77.5 -215t-232.5 -65zM245 -285v91h53q48 0 66 22t8 71l-23 109h99l23 -109q16 -94 -26.5 -139
t-146.5 -45h-53zM347 1680l157 234h123l-165 -234h-115z" />
    <glyph glyph-name="uni1E09" unicode="&#x1e09;" horiz-adv-x="748" 
d="M510 783q2 32 2 66v66t-1 58q-1 66 -30.5 92t-98.5 26t-98 -26t-31 -93q-3 -97 -4 -188.5t-1 -181t1 -181t4 -190.5q2 -69 32.5 -95.5t98.5 -26.5t97 27t30 95q1 40 1 85t-2 104h157q3 -38 3.5 -87.5t-1.5 -86.5q-6 -139 -71.5 -200t-213.5 -61q-153 0 -219.5 61.5
t-72.5 199.5q-2 73 -3 163t-1 186.5t1 188t3 167.5q8 142 74.5 203t215.5 61q150 0 216.5 -60t70.5 -198q1 -40 1 -87.5t-3 -86.5h-157zM222 -285v91h53q48 0 66 22t8 71l-23 109h99l23 -109q16 -94 -26.5 -139t-146.5 -45h-53zM331 1280l157 234h123l-165 -234h-115z" />
    <glyph glyph-name="uni1E0C" unicode="&#x1e0c;" horiz-adv-x="804" 
d="M113 0v1600h293q156 0 225 -64.5t71 -211.5q3 -187 4 -355.5t0 -336.5t-4 -354q-2 -149 -70 -213.5t-221 -64.5h-298zM272 143h139q70 0 100.5 28.5t31.5 91.5q3 144 4.5 276.5t1.5 261t-1.5 261t-4.5 276.5q-1 63 -32.5 91t-104.5 28h-134v-1314zM324 -209v129h129v-129
h-129z" />
    <glyph glyph-name="uni1E0D" unicode="&#x1e0d;" horiz-adv-x="799" 
d="M305 -15q-105 0 -156.5 59.5t-56.5 194.5q-2 81 -3 173t-1 187.5t1 188t3 174.5q5 137 59.5 195t156.5 58q76 0 118.5 -31t75.5 -94h28v510h161v-1600h-161v111h-30q-32 -62 -75.5 -94t-119.5 -32zM362 107q57 0 101.5 28t66.5 89v753q-22 60 -66 88t-101 28t-82.5 -27.5
t-27.5 -90.5q-4 -127 -5.5 -258t0 -255.5t4.5 -231.5q3 -67 28.5 -95t81.5 -28zM332 -209v129h129v-129h-129z" />
    <glyph glyph-name="uni1E0E" unicode="&#x1e0e;" horiz-adv-x="804" 
d="M113 0v1600h293q156 0 225 -64.5t71 -211.5q3 -187 4 -355.5t0 -336.5t-4 -354q-2 -149 -70 -213.5t-221 -64.5h-298zM272 143h139q70 0 100.5 28.5t31.5 91.5q3 144 4.5 276.5t1.5 261t-1.5 261t-4.5 276.5q-1 63 -32.5 91t-104.5 28h-134v-1314zM144 -88h489v-84h-489
v84z" />
    <glyph glyph-name="uni1E0F" unicode="&#x1e0f;" horiz-adv-x="799" 
d="M305 -15q-105 0 -156.5 59.5t-56.5 194.5q-2 81 -3 173t-1 187.5t1 188t3 174.5q5 137 59.5 195t156.5 58q76 0 118.5 -31t75.5 -94h28v510h161v-1600h-161v111h-30q-32 -62 -75.5 -94t-119.5 -32zM362 107q57 0 101.5 28t66.5 89v753q-22 60 -66 88t-101 28t-82.5 -27.5
t-27.5 -90.5q-4 -127 -5.5 -258t0 -255.5t4.5 -231.5q3 -67 28.5 -95t81.5 -28zM152 -88h489v-84h-489v84z" />
    <glyph glyph-name="uni1E14" unicode="&#x1e14;" horiz-adv-x="678" 
d="M113 0v1600h514v-143h-355v-580h335v-143h-335v-591h355v-143h-514zM121 1769h489v-84h-489v84zM292 1851l-156 234h122l150 -234h-116z" />
    <glyph glyph-name="uni1E15" unicode="&#x1e15;" horiz-adv-x="749" 
d="M386 -15q-153 0 -220 61.5t-74 200.5q-2 73 -3 163t-1 185.5t1 187.5t3 168q8 142 76 203t217 61q147 0 212.5 -61t71.5 -197q1 -26 2 -88t0.5 -141.5t-4.5 -158.5h-419q0 -81 1.5 -165t3.5 -173q2 -68 32.5 -94.5t98.5 -26.5q67 0 95.5 26.5t31.5 94.5q2 32 1.5 82
t-2.5 107h157q3 -36 3.5 -87t-1.5 -86q-7 -140 -70.5 -201t-212.5 -61zM249 690h264q1 57 1 114.5t-1 102.5t-2 65q-4 65 -33.5 92t-92.5 27q-71 0 -100.5 -28.5t-31.5 -90.5q-1 -73 -2.5 -143t-1.5 -139zM137 1370h489v-84h-489v84zM309 1453l-156 234h122l150 -234h-116z
" />
    <glyph glyph-name="uni1E16" unicode="&#x1e16;" horiz-adv-x="678" 
d="M113 0v1600h514v-143h-355v-580h335v-143h-335v-591h355v-143h-514zM121 1769h489v-84h-489v84zM313 1851l157 234h123l-165 -234h-115z" />
    <glyph glyph-name="uni1E17" unicode="&#x1e17;" horiz-adv-x="749" 
d="M386 -15q-153 0 -220 61.5t-74 200.5q-2 73 -3 163t-1 185.5t1 187.5t3 168q8 142 76 203t217 61q147 0 212.5 -61t71.5 -197q1 -26 2 -88t0.5 -141.5t-4.5 -158.5h-419q0 -81 1.5 -165t3.5 -173q2 -68 32.5 -94.5t98.5 -26.5q67 0 95.5 26.5t31.5 94.5q2 32 1.5 82
t-2.5 107h157q3 -36 3.5 -87t-1.5 -86q-7 -140 -70.5 -201t-212.5 -61zM249 690h264q1 57 1 114.5t-1 102.5t-2 65q-4 65 -33.5 92t-92.5 27q-71 0 -100.5 -28.5t-31.5 -90.5q-1 -73 -2.5 -143t-1.5 -139zM137 1370h489v-84h-489v84zM330 1453l157 234h123l-165 -234h-115z
" />
    <glyph glyph-name="uni1E1C" unicode="&#x1e1c;" horiz-adv-x="678" 
d="M113 0v1600h514v-143h-355v-580h335v-143h-335v-591h355v-143h-514zM226 -285v91h53q48 0 66 22t8 71l-23 109h99l23 -109q16 -94 -26.5 -139t-146.5 -45h-53zM365 1671q-123 0 -179.5 56t-61.5 178h106q1 -72 31.5 -108t103.5 -36q70 0 102 35t33 109h105
q-6 -122 -62 -178t-178 -56z" />
    <glyph glyph-name="uni1E1D" unicode="&#x1e1d;" horiz-adv-x="749" 
d="M386 -15q-153 0 -220 61.5t-74 200.5q-2 73 -3 163t-1 185.5t1 187.5t3 168q8 142 76 203t217 61q147 0 212.5 -61t71.5 -197q1 -26 2 -88t0.5 -141.5t-4.5 -158.5h-419q0 -81 1.5 -165t3.5 -173q2 -68 32.5 -94.5t98.5 -26.5q67 0 95.5 26.5t31.5 94.5q2 32 1.5 82
t-2.5 107h157q3 -36 3.5 -87t-1.5 -86q-7 -140 -70.5 -201t-212.5 -61zM249 690h264q1 57 1 114.5t-1 102.5t-2 65q-4 65 -33.5 92t-92.5 27q-71 0 -100.5 -28.5t-31.5 -90.5q-1 -73 -2.5 -143t-1.5 -139zM228 -285v91h53q48 0 66 22t8 71l-23 109h99l23 -109
q16 -94 -26.5 -139t-146.5 -45h-53zM381 1272q-123 0 -179.5 56t-61.5 178h106q1 -72 31.5 -108t103.5 -36q70 0 102 35t33 109h105q-6 -122 -62 -178t-178 -56z" />
    <glyph glyph-name="uni1E20" unicode="&#x1e20;" horiz-adv-x="794" 
d="M406 -14q-108 0 -173.5 28.5t-96 90.5t-33.5 162q-3 131 -4 264.5t-1 266.5t1 266t4 264q3 103 33.5 166t96 91.5t172.5 28.5q155 0 223.5 -64.5t75.5 -214.5q3 -75 3 -146t-3 -147h-159q3 81 3 155.5t-3 155.5q-3 69 -33.5 98t-106.5 29q-78 0 -109.5 -29t-33.5 -98
q-4 -146 -5.5 -282.5t-1.5 -270t1.5 -270t5.5 -281.5q2 -70 33.5 -99t110.5 -29q81 0 114 29t36 99q1 49 1.5 97t0 96t-1.5 97h-145v143h301q2 -103 1.5 -204t-2.5 -211q-6 -151 -75.5 -216t-229.5 -65zM157 1770h489v-84h-489v84z" />
    <glyph glyph-name="uni1E21" unicode="&#x1e21;" horiz-adv-x="797" 
d="M383 -337q-140 0 -220 41.5t-89 128.5q-1 12 -2 24.5t0 25.5q3 54 41 87.5t88 40.5v28q-52 15 -75.5 41t-27.5 64q-1 8 -1 18v20q4 41 34.5 69.5t74.5 34.5v29q-60 28 -88.5 84.5t-33.5 147.5q-1 47 -2 98t-1 103t1 103.5t2 98.5q6 95 36.5 153.5t92.5 85t163 26.5
q105 0 167.5 -28.5t91.5 -91.5h28q5 52 39 78.5t92 26.5v-125h-26q-45 0 -71.5 -33t-27.5 -104l-1 -74q1 -20 1 -58.5v-84.5t-0.5 -91.5t-2.5 -82.5q-5 -95 -35.5 -153t-92 -83.5t-163.5 -25.5q-79 1 -115 -17t-36 -59v-10q0 -25 16 -40t51.5 -22t95.5 -10q158 -4 236 -49
t88 -152q2 -14 2 -29t-2 -31q-6 -77 -48 -121.5t-113.5 -63t-166.5 -18.5zM385 -221q58 0 98.5 8.5t64 29.5t28.5 58q2 13 1.5 24t-2.5 23q-4 35 -25.5 53t-61.5 25.5t-102 9.5q-80 2 -126 -15t-52 -76q-1 -14 -1 -24t1 -21q4 -39 26 -59.5t60.5 -28t90.5 -7.5zM376 408
q72 0 101 28.5t33 94.5q2 39 3.5 97t1.5 121.5t-1.5 122t-3.5 98.5q-3 66 -32.5 93.5t-101.5 27.5q-71 0 -102 -28t-34 -97q-2 -40 -3 -98t-1 -120.5t1 -119.5t3 -96q4 -66 34 -95t102 -29zM133 1370h489v-84h-489v84z" />
    <glyph glyph-name="uni1E24" unicode="&#x1e24;" horiz-adv-x="819" 
d="M113 0v1600h159v-723h275v723h159v-1600h-159v734h-275v-734h-159zM345 -209v129h129v-129h-129z" />
    <glyph glyph-name="uni1E25" unicode="&#x1e25;" horiz-adv-x="812" 
d="M109 0v1600h161v-510h33q33 63 75 94t119 31q106 0 158.5 -59.5t52.5 -193.5l1 -962h-160l-1 974q0 64 -26 91.5t-84 27.5q-60 0 -103.5 -28.5t-64.5 -87.5v-977h-161zM341 -209v129h129v-129h-129z" />
    <glyph glyph-name="uni1E2A" unicode="&#x1e2a;" horiz-adv-x="819" 
d="M113 0v1600h159v-723h275v723h159v-1600h-159v734h-275v-734h-159zM411 -315q-123 0 -179.5 56t-61.5 178h106q1 -72 31.5 -108t103.5 -36q70 0 102 35t33 109h105q-6 -122 -62 -178t-178 -56z" />
    <glyph glyph-name="uni1E2B" unicode="&#x1e2b;" horiz-adv-x="812" 
d="M109 0v1600h161v-510h33q33 63 75 94t119 31q106 0 158.5 -59.5t52.5 -193.5l1 -962h-160l-1 974q0 64 -26 91.5t-84 27.5q-60 0 -103.5 -28.5t-64.5 -87.5v-977h-161zM407 -315q-123 0 -179.5 56t-61.5 178h106q1 -72 31.5 -108t103.5 -36q70 0 102 35t33 109h105
q-6 -122 -62 -178t-178 -56z" />
    <glyph glyph-name="uni1E2E" unicode="&#x1e2e;" horiz-adv-x="385" 
d="M113 0v1600h159v-1600h-159zM239 1710v129h129v-129h-129zM18 1710v129h129v-129h-129zM142 1890l157 234h123l-165 -234h-115z" />
    <glyph glyph-name="uni1E2F" unicode="&#x1e2f;" horiz-adv-x="377" 
d="M109 0v1200h159v-1200h-159zM235 1310v129h129v-129h-129zM14 1310v129h129v-129h-129zM138 1490l157 234h123l-165 -234h-115z" />
    <glyph glyph-name="uni1E36" unicode="&#x1e36;" horiz-adv-x="641" 
d="M113 0v1600h159v-1457h353v-143h-512zM305 -209v129h129v-129h-129z" />
    <glyph glyph-name="uni1E37" unicode="&#x1e37;" horiz-adv-x="377" 
d="M109 0v1600h159v-1600h-159zM123 -209v129h129v-129h-129z" />
    <glyph glyph-name="uni1E3A" unicode="&#x1e3a;" horiz-adv-x="641" 
d="M113 0v1600h159v-1457h353v-143h-512zM126 -88h489v-84h-489v84z" />
    <glyph glyph-name="uni1E3B" unicode="&#x1e3b;" horiz-adv-x="377" 
d="M109 0v1600h159v-1600h-159zM-56 -88h489v-84h-489v84z" />
    <glyph glyph-name="uni1E42" unicode="&#x1e42;" horiz-adv-x="1227" 
d="M113 0v1600h317l98 -651l61 -800h49l60 800l99 651h316v-1600h-161v486l24 971h-68l-104 -997l-79 -454h-226l-76 454l-104 997h-67l23 -971v-486h-162zM549 -209v129h129v-129h-129z" />
    <glyph glyph-name="uni1E43" unicode="&#x1e43;" horiz-adv-x="1224" 
d="M109 0v1200h159v-110h32q32 62 72.5 93.5t117.5 31.5q76 0 124 -31.5t68 -102.5h30q32 62 78.5 98t124.5 36q102 0 153.5 -58.5t52.5 -194.5v-962h-160v974q0 63 -26 91t-80 28q-58 0 -97 -31t-60 -87v-975h-160v974q0 63 -26 91t-81 28q-58 0 -100.5 -29t-62.5 -87v-977
h-159zM552 -209v129h129v-129h-129z" />
    <glyph glyph-name="uni1E44" unicode="&#x1e44;" horiz-adv-x="941" 
d="M113 0v1600h297l91 -507l133 -950h69l-24 882l-10 575h159v-1600h-307l-100 570l-112 888h-71l22 -858l11 -600h-158zM417 1680v129h129v-129h-129z" />
    <glyph glyph-name="uni1E45" unicode="&#x1e45;" horiz-adv-x="812" 
d="M109 0v1200h160v-110h33q33 61 77.5 93t117.5 32q106 0 158.5 -59.5t53.5 -193.5v-962h-159l-1 974q0 64 -26.5 91.5t-84.5 27.5q-54 0 -101.5 -30.5t-67.5 -85.5v-977h-160zM346 1280v129h129v-129h-129z" />
    <glyph glyph-name="uni1E46" unicode="&#x1e46;" horiz-adv-x="941" 
d="M113 0v1600h297l91 -507l133 -950h69l-24 882l-10 575h159v-1600h-307l-100 570l-112 888h-71l22 -858l11 -600h-158zM409 -209v129h129v-129h-129z" />
    <glyph glyph-name="uni1E47" unicode="&#x1e47;" horiz-adv-x="812" 
d="M109 0v1200h160v-110h33q33 61 77.5 93t117.5 32q106 0 158.5 -59.5t53.5 -193.5v-962h-159l-1 974q0 64 -26.5 91.5t-84.5 27.5q-54 0 -101.5 -30.5t-67.5 -85.5v-977h-160zM346 -209v129h129v-129h-129z" />
    <glyph glyph-name="uni1E48" unicode="&#x1e48;" horiz-adv-x="941" 
d="M113 0v1600h297l91 -507l133 -950h69l-24 882l-10 575h159v-1600h-307l-100 570l-112 888h-71l22 -858l11 -600h-158zM229 -88h489v-84h-489v84z" />
    <glyph glyph-name="uni1E49" unicode="&#x1e49;" horiz-adv-x="812" 
d="M109 0v1200h160v-110h33q33 61 77.5 93t117.5 32q106 0 158.5 -59.5t53.5 -193.5v-962h-159l-1 974q0 64 -26.5 91.5t-84.5 27.5q-54 0 -101.5 -30.5t-67.5 -85.5v-977h-160zM166 -88h489v-84h-489v84z" />
    <glyph glyph-name="uni1E4C" unicode="&#x1e4c;" horiz-adv-x="807" 
d="M403 -14q-158 0 -228 66t-72 217q-3 146 -4 276.5t-1 257t1 256t4 271.5q2 153 72 218.5t228 65.5t227.5 -65.5t72.5 -218.5q3 -142 4.5 -272t1.5 -256t-1.5 -257t-4.5 -276q-3 -151 -72.5 -217t-227.5 -66zM403 121q77 0 108.5 30t32.5 105q4 149 6 282.5t2 262.5
t-2 262.5t-6 279.5q-1 76 -32.5 106.5t-108.5 30.5q-76 0 -108 -30.5t-34 -106.5q-4 -144 -5.5 -276.5t-1.5 -261.5t2 -264t5 -285q2 -75 34 -105t108 -30zM542 1847h75q-2 -81 -34.5 -120t-90.5 -39q-38 0 -60 12t-38 28t-32 27.5t-40 11.5q-22 0 -36 -16t-19 -55h-75
q7 87 42 124.5t92 37.5q39 0 61.5 -11.5t37.5 -27.5t29.5 -28t38.5 -12q26 0 37 18t12 50zM351 1932l157 234h123l-165 -234h-115z" />
    <glyph glyph-name="uni1E4D" unicode="&#x1e4d;" horiz-adv-x="776" 
d="M389 -15q-105 0 -168.5 28.5t-93 90.5t-34.5 163q-2 67 -3.5 151t-1.5 174t1.5 178t3.5 163q6 102 35 164t92.5 90t168.5 28q106 0 169 -28.5t91.5 -90.5t33.5 -163q3 -71 4.5 -155t1.5 -173t-1.5 -175.5t-4.5 -162.5q-5 -100 -34 -162.5t-91.5 -91t-168.5 -28.5z
M389 109q73 0 103 29t32 95q3 96 4.5 186.5t2 179.5t-1.5 180t-5 189q-2 67 -32.5 95t-102.5 28q-73 0 -104 -29t-33 -96q-3 -89 -4.5 -178.5t-2 -180t1.5 -183.5t5 -190q3 -67 34 -96t103 -29zM527 1447h75q-2 -81 -34.5 -120t-90.5 -39q-38 0 -60 12t-38 28t-32 27.5
t-40 11.5q-22 0 -36 -16t-19 -55h-75q7 87 42 124.5t92 37.5q39 0 61.5 -11.5t37.5 -27.5t29.5 -28t38.5 -12q26 0 37 18t12 50zM336 1532l157 234h123l-165 -234h-115z" />
    <glyph glyph-name="uni1E4E" unicode="&#x1e4e;" horiz-adv-x="807" 
d="M403 -14q-158 0 -228 66t-72 217q-3 146 -4 276.5t-1 257t1 256t4 271.5q2 153 72 218.5t228 65.5t227.5 -65.5t72.5 -218.5q3 -142 4.5 -272t1.5 -256t-1.5 -257t-4.5 -276q-3 -151 -72.5 -217t-227.5 -66zM403 121q77 0 108.5 30t32.5 105q4 149 6 282.5t2 262.5
t-2 262.5t-6 279.5q-1 76 -32.5 106.5t-108.5 30.5q-76 0 -108 -30.5t-34 -106.5q-4 -144 -5.5 -276.5t-1.5 -261.5t2 -264t5 -285q2 -75 34 -105t108 -30zM542 1847h75q-2 -81 -34.5 -120t-90.5 -39q-38 0 -60 12t-38 28t-32 27.5t-40 11.5q-22 0 -36 -16t-19 -55h-75
q7 87 42 124.5t92 37.5q39 0 61.5 -11.5t37.5 -27.5t29.5 -28t38.5 -12q26 0 37 18t12 50zM448 1962v129h129v-129h-129zM227 1962v129h129v-129h-129z" />
    <glyph glyph-name="uni1E4F" unicode="&#x1e4f;" horiz-adv-x="776" 
d="M389 -15q-105 0 -168.5 28.5t-93 90.5t-34.5 163q-2 67 -3.5 151t-1.5 174t1.5 178t3.5 163q6 102 35 164t92.5 90t168.5 28q106 0 169 -28.5t91.5 -90.5t33.5 -163q3 -71 4.5 -155t1.5 -173t-1.5 -175.5t-4.5 -162.5q-5 -100 -34 -162.5t-91.5 -91t-168.5 -28.5z
M389 109q73 0 103 29t32 95q3 96 4.5 186.5t2 179.5t-1.5 180t-5 189q-2 67 -32.5 95t-102.5 28q-73 0 -104 -29t-33 -96q-3 -89 -4.5 -178.5t-2 -180t1.5 -183.5t5 -190q3 -67 34 -96t103 -29zM527 1447h75q-2 -81 -34.5 -120t-90.5 -39q-38 0 -60 12t-38 28t-32 27.5
t-40 11.5q-22 0 -36 -16t-19 -55h-75q7 87 42 124.5t92 37.5q39 0 61.5 -11.5t37.5 -27.5t29.5 -28t38.5 -12q26 0 37 18t12 50zM433 1562v129h129v-129h-129zM212 1562v129h129v-129h-129z" />
    <glyph glyph-name="uni1E50" unicode="&#x1e50;" horiz-adv-x="807" 
d="M403 -14q-158 0 -228 66t-72 217q-3 146 -4 276.5t-1 257t1 256t4 271.5q2 153 72 218.5t228 65.5t227.5 -65.5t72.5 -218.5q3 -142 4.5 -272t1.5 -256t-1.5 -257t-4.5 -276q-3 -151 -72.5 -217t-227.5 -66zM403 121q77 0 108.5 30t32.5 105q4 149 6 282.5t2 262.5
t-2 262.5t-6 279.5q-1 76 -32.5 106.5t-108.5 30.5q-76 0 -108 -30.5t-34 -106.5q-4 -144 -5.5 -276.5t-1.5 -261.5t2 -264t5 -285q2 -75 34 -105t108 -30zM161 1770h489v-84h-489v84zM332 1853l-156 234h122l150 -234h-116z" />
    <glyph glyph-name="uni1E51" unicode="&#x1e51;" horiz-adv-x="776" 
d="M389 -15q-105 0 -168.5 28.5t-93 90.5t-34.5 163q-2 67 -3.5 151t-1.5 174t1.5 178t3.5 163q6 102 35 164t92.5 90t168.5 28q106 0 169 -28.5t91.5 -90.5t33.5 -163q3 -71 4.5 -155t1.5 -173t-1.5 -175.5t-4.5 -162.5q-5 -100 -34 -162.5t-91.5 -91t-168.5 -28.5z
M389 109q73 0 103 29t32 95q3 96 4.5 186.5t2 179.5t-1.5 180t-5 189q-2 67 -32.5 95t-102.5 28q-73 0 -104 -29t-33 -96q-3 -89 -4.5 -178.5t-2 -180t1.5 -183.5t5 -190q3 -67 34 -96t103 -29zM146 1370h489v-84h-489v84zM317 1453l-156 234h122l150 -234h-116z" />
    <glyph glyph-name="uni1E52" unicode="&#x1e52;" horiz-adv-x="807" 
d="M403 -14q-158 0 -228 66t-72 217q-3 146 -4 276.5t-1 257t1 256t4 271.5q2 153 72 218.5t228 65.5t227.5 -65.5t72.5 -218.5q3 -142 4.5 -272t1.5 -256t-1.5 -257t-4.5 -276q-3 -151 -72.5 -217t-227.5 -66zM403 121q77 0 108.5 30t32.5 105q4 149 6 282.5t2 262.5
t-2 262.5t-6 279.5q-1 76 -32.5 106.5t-108.5 30.5q-76 0 -108 -30.5t-34 -106.5q-4 -144 -5.5 -276.5t-1.5 -261.5t2 -264t5 -285q2 -75 34 -105t108 -30zM161 1770h489v-84h-489v84zM353 1853l157 234h123l-165 -234h-115z" />
    <glyph glyph-name="uni1E53" unicode="&#x1e53;" horiz-adv-x="776" 
d="M389 -15q-105 0 -168.5 28.5t-93 90.5t-34.5 163q-2 67 -3.5 151t-1.5 174t1.5 178t3.5 163q6 102 35 164t92.5 90t168.5 28q106 0 169 -28.5t91.5 -90.5t33.5 -163q3 -71 4.5 -155t1.5 -173t-1.5 -175.5t-4.5 -162.5q-5 -100 -34 -162.5t-91.5 -91t-168.5 -28.5z
M389 109q73 0 103 29t32 95q3 96 4.5 186.5t2 179.5t-1.5 180t-5 189q-2 67 -32.5 95t-102.5 28q-73 0 -104 -29t-33 -96q-3 -89 -4.5 -178.5t-2 -180t1.5 -183.5t5 -190q3 -67 34 -96t103 -29zM146 1370h489v-84h-489v84zM338 1453l157 234h123l-165 -234h-115z" />
    <glyph glyph-name="uni1E5A" unicode="&#x1e5a;" horiz-adv-x="778" 
d="M113 0v1600h286q150 0 217.5 -62.5t72.5 -205.5q3 -90 4 -165.5t0 -146.5t-4 -146q-4 -97 -35.5 -156t-98.5 -85l164 -633h-168l-148 606h-131v-606h-159zM272 749h126q69 0 99 28t33 91q3 83 4 159t0.5 152t-4.5 159q-3 64 -33 91.5t-98 27.5h-127v-708zM343 -209v129
h129v-129h-129z" />
    <glyph glyph-name="uni1E5B" unicode="&#x1e5b;" horiz-adv-x="552" 
d="M109 0v1200h162v-119h32q18 69 58.5 96t109.5 27q19 0 37.5 -1t33.5 -2v-125h-69q-90 0 -137.5 -30t-64.5 -102v-944h-162zM125 -209v129h129v-129h-129z" />
    <glyph glyph-name="uni1E5E" unicode="&#x1e5e;" horiz-adv-x="778" 
d="M113 0v1600h286q150 0 217.5 -62.5t72.5 -205.5q3 -90 4 -165.5t0 -146.5t-4 -146q-4 -97 -35.5 -156t-98.5 -85l164 -633h-168l-148 606h-131v-606h-159zM272 749h126q69 0 99 28t33 91q3 83 4 159t0.5 152t-4.5 159q-3 64 -33 91.5t-98 27.5h-127v-708zM163 -88h489
v-84h-489v84z" />
    <glyph glyph-name="uni1E5F" unicode="&#x1e5f;" horiz-adv-x="552" 
d="M109 0v1200h162v-119h32q18 69 58.5 96t109.5 27q19 0 37.5 -1t33.5 -2v-125h-69q-90 0 -137.5 -30t-64.5 -102v-944h-162zM-55 -88h489v-84h-489v84z" />
    <glyph glyph-name="uni1E60" unicode="&#x1e60;" horiz-adv-x="770" 
d="M387 -14q-156 0 -225.5 65t-74.5 216q-1 57 -1.5 106t0.5 99t4 108h152q-4 -87 -4.5 -170.5t4.5 -165.5q3 -66 36 -94.5t109 -28.5q72 0 103.5 28.5t35.5 94.5q4 48 4.5 94.5t-1 94t-3.5 97.5q-2 76 -27.5 119.5t-87.5 59.5l-114 28q-82 20 -127.5 59.5t-64.5 104.5
t-22 162q-1 63 0 133.5t2 139.5q3 100 33.5 161t96 89t172.5 28q151 0 219 -64.5t73 -214.5q2 -59 1 -135t-3 -158h-154q3 86 4 163t-2 152q-3 66 -35.5 94.5t-104.5 28.5q-73 0 -105 -28.5t-36 -94.5q-5 -75 -4.5 -147t4.5 -147q2 -84 23 -125.5t77 -55.5l106 -25
q89 -20 139.5 -60.5t72 -106t24.5 -160.5q2 -48 2 -91.5t-0.5 -85.5t-2.5 -86q-6 -151 -74.5 -216t-223.5 -65zM320 1680v129h129v-129h-129z" />
    <glyph glyph-name="uni1E61" unicode="&#x1e61;" horiz-adv-x="706" 
d="M347 -15q-146 0 -205.5 61t-64.5 200q-1 43 -0.5 86.5t2.5 85.5h144q-3 -60 -2.5 -106t0.5 -81q2 -69 31 -95.5t95 -26.5q72 0 103.5 26.5t32.5 95.5q1 29 1 49.5t0.5 39.5t-0.5 44q-2 69 -19.5 104t-70.5 52l-106 32q-76 23 -122.5 58t-67.5 91t-23 144q-1 32 -0.5 55.5
t0.5 50.5q3 141 65 202.5t216 61.5q146 0 206 -60t65 -200v-80t-3 -89h-148q2 31 2 66v66.5t-1 54.5q-1 67 -27 92.5t-94 25.5t-94.5 -25.5t-28.5 -93.5q-1 -24 -2 -50.5t0 -62.5q1 -71 16 -113.5t75 -61.5l100 -27q109 -29 161 -93.5t52 -193.5q0 -33 -0.5 -63.5
t-2.5 -63.5q-3 -138 -66 -198t-219 -60zM287 1280v129h129v-129h-129z" />
    <glyph glyph-name="uni1E62" unicode="&#x1e62;" horiz-adv-x="770" 
d="M387 -14q-156 0 -225.5 65t-74.5 216q-1 57 -1.5 106t0.5 99t4 108h152q-4 -87 -4.5 -170.5t4.5 -165.5q3 -66 36 -94.5t109 -28.5q72 0 103.5 28.5t35.5 94.5q4 48 4.5 94.5t-1 94t-3.5 97.5q-2 76 -27.5 119.5t-87.5 59.5l-114 28q-82 20 -127.5 59.5t-64.5 104.5
t-22 162q-1 63 0 133.5t2 139.5q3 100 33.5 161t96 89t172.5 28q151 0 219 -64.5t73 -214.5q2 -59 1 -135t-3 -158h-154q3 86 4 163t-2 152q-3 66 -35.5 94.5t-104.5 28.5q-73 0 -105 -28.5t-36 -94.5q-5 -75 -4.5 -147t4.5 -147q2 -84 23 -125.5t77 -55.5l106 -25
q89 -20 139.5 -60.5t72 -106t24.5 -160.5q2 -48 2 -91.5t-0.5 -85.5t-2.5 -86q-6 -151 -74.5 -216t-223.5 -65zM319 -209v129h129v-129h-129z" />
    <glyph glyph-name="uni1E63" unicode="&#x1e63;" horiz-adv-x="706" 
d="M347 -15q-146 0 -205.5 61t-64.5 200q-1 43 -0.5 86.5t2.5 85.5h144q-3 -60 -2.5 -106t0.5 -81q2 -69 31 -95.5t95 -26.5q72 0 103.5 26.5t32.5 95.5q1 29 1 49.5t0.5 39.5t-0.5 44q-2 69 -19.5 104t-70.5 52l-106 32q-76 23 -122.5 58t-67.5 91t-23 144q-1 32 -0.5 55.5
t0.5 50.5q3 141 65 202.5t216 61.5q146 0 206 -60t65 -200v-80t-3 -89h-148q2 31 2 66v66.5t-1 54.5q-1 67 -27 92.5t-94 25.5t-94.5 -25.5t-28.5 -93.5q-1 -24 -2 -50.5t0 -62.5q1 -71 16 -113.5t75 -61.5l100 -27q109 -29 161 -93.5t52 -193.5q0 -33 -0.5 -63.5
t-2.5 -63.5q-3 -138 -66 -198t-219 -60zM287 -209v129h129v-129h-129z" />
    <glyph glyph-name="uni1E64" unicode="&#x1e64;" horiz-adv-x="770" 
d="M387 -14q-156 0 -225.5 65t-74.5 216q-1 57 -1.5 106t0.5 99t4 108h152q-4 -87 -4.5 -170.5t4.5 -165.5q3 -66 36 -94.5t109 -28.5q72 0 103.5 28.5t35.5 94.5q4 48 4.5 94.5t-1 94t-3.5 97.5q-2 76 -27.5 119.5t-87.5 59.5l-114 28q-82 20 -127.5 59.5t-64.5 104.5
t-22 162q-1 63 0 133.5t2 139.5q3 100 33.5 161t96 89t172.5 28q151 0 219 -64.5t73 -214.5q2 -59 1 -135t-3 -158h-154q3 86 4 163t-2 152q-3 66 -35.5 94.5t-104.5 28.5q-73 0 -105 -28.5t-36 -94.5q-5 -75 -4.5 -147t4.5 -147q2 -84 23 -125.5t77 -55.5l106 -25
q89 -20 139.5 -60.5t72 -106t24.5 -160.5q2 -48 2 -91.5t-0.5 -85.5t-2.5 -86q-6 -151 -74.5 -216t-223.5 -65zM334 1680l157 234h123l-165 -234h-115zM320 1996v129h129v-129h-129z" />
    <glyph glyph-name="uni1E65" unicode="&#x1e65;" horiz-adv-x="706" 
d="M347 -15q-146 0 -205.5 61t-64.5 200q-1 43 -0.5 86.5t2.5 85.5h144q-3 -60 -2.5 -106t0.5 -81q2 -69 31 -95.5t95 -26.5q72 0 103.5 26.5t32.5 95.5q1 29 1 49.5t0.5 39.5t-0.5 44q-2 69 -19.5 104t-70.5 52l-106 32q-76 23 -122.5 58t-67.5 91t-23 144q-1 32 -0.5 55.5
t0.5 50.5q3 141 65 202.5t216 61.5q146 0 206 -60t65 -200v-80t-3 -89h-148q2 31 2 66v66.5t-1 54.5q-1 67 -27 92.5t-94 25.5t-94.5 -25.5t-28.5 -93.5q-1 -24 -2 -50.5t0 -62.5q1 -71 16 -113.5t75 -61.5l100 -27q109 -29 161 -93.5t52 -193.5q0 -33 -0.5 -63.5
t-2.5 -63.5q-3 -138 -66 -198t-219 -60zM301 1280l157 234h123l-165 -234h-115zM287 1596v129h129v-129h-129z" />
    <glyph glyph-name="uni1E66" unicode="&#x1e66;" horiz-adv-x="770" 
d="M387 -14q-156 0 -225.5 65t-74.5 216q-1 57 -1.5 106t0.5 99t4 108h152q-4 -87 -4.5 -170.5t4.5 -165.5q3 -66 36 -94.5t109 -28.5q72 0 103.5 28.5t35.5 94.5q4 48 4.5 94.5t-1 94t-3.5 97.5q-2 76 -27.5 119.5t-87.5 59.5l-114 28q-82 20 -127.5 59.5t-64.5 104.5
t-22 162q-1 63 0 133.5t2 139.5q3 100 33.5 161t96 89t172.5 28q151 0 219 -64.5t73 -214.5q2 -59 1 -135t-3 -158h-154q3 86 4 163t-2 152q-3 66 -35.5 94.5t-104.5 28.5q-73 0 -105 -28.5t-36 -94.5q-5 -75 -4.5 -147t4.5 -147q2 -84 23 -125.5t77 -55.5l106 -25
q89 -20 139.5 -60.5t72 -106t24.5 -160.5q2 -48 2 -91.5t-0.5 -85.5t-2.5 -86q-6 -151 -74.5 -216t-223.5 -65zM337 1681l-145 234h108l86 -147l84 147h108l-145 -234h-96zM320 1996v129h129v-129h-129z" />
    <glyph glyph-name="uni1E67" unicode="&#x1e67;" horiz-adv-x="706" 
d="M347 -15q-146 0 -205.5 61t-64.5 200q-1 43 -0.5 86.5t2.5 85.5h144q-3 -60 -2.5 -106t0.5 -81q2 -69 31 -95.5t95 -26.5q72 0 103.5 26.5t32.5 95.5q1 29 1 49.5t0.5 39.5t-0.5 44q-2 69 -19.5 104t-70.5 52l-106 32q-76 23 -122.5 58t-67.5 91t-23 144q-1 32 -0.5 55.5
t0.5 50.5q3 141 65 202.5t216 61.5q146 0 206 -60t65 -200v-80t-3 -89h-148q2 31 2 66v66.5t-1 54.5q-1 67 -27 92.5t-94 25.5t-94.5 -25.5t-28.5 -93.5q-1 -24 -2 -50.5t0 -62.5q1 -71 16 -113.5t75 -61.5l100 -27q109 -29 161 -93.5t52 -193.5q0 -33 -0.5 -63.5
t-2.5 -63.5q-3 -138 -66 -198t-219 -60zM305 1281l-145 234h108l86 -147l84 147h108l-145 -234h-96zM287 1596v129h129v-129h-129z" />
    <glyph glyph-name="uni1E68" unicode="&#x1e68;" horiz-adv-x="770" 
d="M387 -14q-156 0 -225.5 65t-74.5 216q-1 57 -1.5 106t0.5 99t4 108h152q-4 -87 -4.5 -170.5t4.5 -165.5q3 -66 36 -94.5t109 -28.5q72 0 103.5 28.5t35.5 94.5q4 48 4.5 94.5t-1 94t-3.5 97.5q-2 76 -27.5 119.5t-87.5 59.5l-114 28q-82 20 -127.5 59.5t-64.5 104.5
t-22 162q-1 63 0 133.5t2 139.5q3 100 33.5 161t96 89t172.5 28q151 0 219 -64.5t73 -214.5q2 -59 1 -135t-3 -158h-154q3 86 4 163t-2 152q-3 66 -35.5 94.5t-104.5 28.5q-73 0 -105 -28.5t-36 -94.5q-5 -75 -4.5 -147t4.5 -147q2 -84 23 -125.5t77 -55.5l106 -25
q89 -20 139.5 -60.5t72 -106t24.5 -160.5q2 -48 2 -91.5t-0.5 -85.5t-2.5 -86q-6 -151 -74.5 -216t-223.5 -65zM319 -209v129h129v-129h-129zM320 1680v129h129v-129h-129z" />
    <glyph glyph-name="uni1E69" unicode="&#x1e69;" horiz-adv-x="706" 
d="M347 -15q-146 0 -205.5 61t-64.5 200q-1 43 -0.5 86.5t2.5 85.5h144q-3 -60 -2.5 -106t0.5 -81q2 -69 31 -95.5t95 -26.5q72 0 103.5 26.5t32.5 95.5q1 29 1 49.5t0.5 39.5t-0.5 44q-2 69 -19.5 104t-70.5 52l-106 32q-76 23 -122.5 58t-67.5 91t-23 144q-1 32 -0.5 55.5
t0.5 50.5q3 141 65 202.5t216 61.5q146 0 206 -60t65 -200v-80t-3 -89h-148q2 31 2 66v66.5t-1 54.5q-1 67 -27 92.5t-94 25.5t-94.5 -25.5t-28.5 -93.5q-1 -24 -2 -50.5t0 -62.5q1 -71 16 -113.5t75 -61.5l100 -27q109 -29 161 -93.5t52 -193.5q0 -33 -0.5 -63.5
t-2.5 -63.5q-3 -138 -66 -198t-219 -60zM287 -209v129h129v-129h-129zM287 1280v129h129v-129h-129z" />
    <glyph glyph-name="uni1E6C" unicode="&#x1e6c;" horiz-adv-x="643" 
d="M242 0v1457h-230v143h619v-143h-230v-1457h-159zM256 -209v129h129v-129h-129z" />
    <glyph glyph-name="uni1E6D" unicode="&#x1e6d;" horiz-adv-x="529" 
d="M413 -15q-158 0 -221 60.5t-63 202.5l-1 828h-91v124h95v340h160v-340h198v-124h-202l1 -845q0 -71 24 -96.5t103 -25.5q29 0 49 1t47 4v-119q-22 -4 -47 -7t-52 -3zM273 -209v129h129v-129h-129z" />
    <glyph glyph-name="uni1E6E" unicode="&#x1e6e;" horiz-adv-x="643" 
d="M242 0v1457h-230v143h619v-143h-230v-1457h-159zM76 -88h489v-84h-489v84z" />
    <glyph glyph-name="uni1E6F" unicode="&#x1e6f;" horiz-adv-x="529" 
d="M413 -15q-158 0 -221 60.5t-63 202.5l-1 828h-91v124h95v340h160v-340h198v-124h-202l1 -845q0 -71 24 -96.5t103 -25.5q29 0 49 1t47 4v-119q-22 -4 -47 -7t-52 -3zM93 -88h489v-84h-489v84z" />
    <glyph glyph-name="uni1E78" unicode="&#x1e78;" horiz-adv-x="794" 
d="M397 -14q-158 0 -227 64.5t-71 212.5q-4 335 -4 668.5t4 668.5h159q-2 -223 -3.5 -450.5t-0.5 -454t2 -450.5q0 -65 33 -93.5t108 -28.5t107 28.5t32 93.5q1 224 2.5 450.5t1 454t-3.5 450.5h159q4 -335 4 -668.5t-4 -668.5q-2 -148 -71 -212.5t-227 -64.5zM535 1847h75
q-2 -81 -34.5 -120t-90.5 -39q-38 0 -60 12t-38 28t-32 27.5t-40 11.5q-22 0 -36 -16t-19 -55h-75q7 87 42 124.5t92 37.5q39 0 61.5 -11.5t37.5 -27.5t29.5 -28t38.5 -12q26 0 37 18t12 50zM344 1932l157 234h123l-165 -234h-115z" />
    <glyph glyph-name="uni1E79" unicode="&#x1e79;" horiz-adv-x="808" 
d="M317 -15q-105 0 -160.5 59.5t-55.5 195.5v960h160l1 -973q0 -63 25.5 -91.5t81.5 -28.5t102.5 31t67.5 86v976h160v-1200h-160v111h-28q-34 -65 -82 -95.5t-112 -30.5zM536 1447h75q-2 -81 -34.5 -120t-90.5 -39q-38 0 -60 12t-38 28t-32 27.5t-40 11.5q-22 0 -36 -16
t-19 -55h-75q7 87 42 124.5t92 37.5q39 0 61.5 -11.5t37.5 -27.5t29.5 -28t38.5 -12q26 0 37 18t12 50zM345 1532l157 234h123l-165 -234h-115z" />
    <glyph glyph-name="uni1E7A" unicode="&#x1e7a;" horiz-adv-x="794" 
d="M397 -14q-158 0 -227 64.5t-71 212.5q-4 335 -4 668.5t4 668.5h159q-2 -223 -3.5 -450.5t-0.5 -454t2 -450.5q0 -65 33 -93.5t108 -28.5t107 28.5t32 93.5q1 224 2.5 450.5t1 454t-3.5 450.5h159q4 -335 4 -668.5t-4 -668.5q-2 -148 -71 -212.5t-227 -64.5zM154 1770h489
v-84h-489v84zM443 1883v129h129v-129h-129zM222 1883v129h129v-129h-129z" />
    <glyph glyph-name="uni1E7B" unicode="&#x1e7b;" horiz-adv-x="808" 
d="M317 -15q-105 0 -160.5 59.5t-55.5 195.5v960h160l1 -973q0 -63 25.5 -91.5t81.5 -28.5t102.5 31t67.5 86v976h160v-1200h-160v111h-28q-34 -65 -82 -95.5t-112 -30.5zM155 1370h489v-84h-489v84zM444 1483v129h129v-129h-129zM223 1483v129h129v-129h-129z" />
    <glyph glyph-name="Wgrave" unicode="&#x1e80;" horiz-adv-x="1233" 
d="M178 0l-112 1600h160l36 -611l42 -846h64l40 846l71 601h275l71 -601l38 -846h65l44 846l37 611h159l-114 -1600h-306l-51 519l-47 932h-66l-49 -932l-51 -519h-306zM530 1680l-156 234h122l150 -234h-116z" />
    <glyph glyph-name="wgrave" unicode="&#x1e81;" horiz-adv-x="1143" 
d="M165 0l-130 1200h160l49 -605l36 -473h62l27 473l55 600h294l51 -600l29 -473h62l37 473l51 605h160l-133 -1200h-295l-36 462l-39 611h-69l-40 -611l-35 -462h-296zM501 1280l-156 234h122l150 -234h-116z" />
    <glyph glyph-name="Wacute" unicode="&#x1e82;" horiz-adv-x="1233" 
d="M178 0l-112 1600h160l36 -611l42 -846h64l40 846l71 601h275l71 -601l38 -846h65l44 846l37 611h159l-114 -1600h-306l-51 519l-47 932h-66l-49 -932l-51 -519h-306zM551 1680l157 234h123l-165 -234h-115z" />
    <glyph glyph-name="wacute" unicode="&#x1e83;" horiz-adv-x="1143" 
d="M165 0l-130 1200h160l49 -605l36 -473h62l27 473l55 600h294l51 -600l29 -473h62l37 473l51 605h160l-133 -1200h-295l-36 462l-39 611h-69l-40 -611l-35 -462h-296zM522 1280l157 234h123l-165 -234h-115z" />
    <glyph glyph-name="Wdieresis" unicode="&#x1e84;" horiz-adv-x="1233" 
d="M178 0l-112 1600h160l36 -611l42 -846h64l40 846l71 601h275l71 -601l38 -846h65l44 846l37 611h159l-114 -1600h-306l-51 519l-47 932h-66l-49 -932l-51 -519h-306zM648 1710v129h129v-129h-129zM427 1710v129h129v-129h-129z" />
    <glyph glyph-name="wdieresis" unicode="&#x1e85;" horiz-adv-x="1143" 
d="M165 0l-130 1200h160l49 -605l36 -473h62l27 473l55 600h294l51 -600l29 -473h62l37 473l51 605h160l-133 -1200h-295l-36 462l-39 611h-69l-40 -611l-35 -462h-296zM619 1310v129h129v-129h-129zM398 1310v129h129v-129h-129z" />
    <glyph glyph-name="uni1E8E" unicode="&#x1e8e;" horiz-adv-x="714" 
d="M276 0v495l-28 1l-209 1104h162l74 -447l56 -459h51l55 459l74 447h164l-211 -1105l-28 -1v-494h-160zM289 1680v129h129v-129h-129z" />
    <glyph glyph-name="uni1E8F" unicode="&#x1e8f;" horiz-adv-x="708" 
d="M185 -410q-28 0 -68 4t-70 8v123q25 -3 64.5 -5.5t71.5 -2.5q78 0 106 27t39 96l25 160h-128l-174 1200h165l60 -578l59 -499h58l57 499l58 578h165l-185 -1349q-13 -90 -43.5 -147.5t-92.5 -85.5t-167 -28zM300 1280v129h129v-129h-129z" />
    <glyph glyph-name="uni1E92" unicode="&#x1e92;" horiz-adv-x="639" 
d="M34 0v131l400 1326h-376v143h546v-135l-408 -1322h373v-143h-535zM241 -209v129h129v-129h-129z" />
    <glyph glyph-name="uni1E93" unicode="&#x1e93;" horiz-adv-x="623" 
d="M40 0v103l376 975l-367 -3v123l540 2v-106l-380 -972h368v-122h-537zM250 -209v129h129v-129h-129z" />
    <glyph glyph-name="uni1E97" unicode="&#x1e97;" horiz-adv-x="529" 
d="M413 -15q-158 0 -221 60.5t-63 202.5l-1 828h-91v124h95v340h160v-340h198v-124h-202l1 -845q0 -71 24 -96.5t103 -25.5q29 0 49 1t47 4v-119q-22 -4 -47 -7t-52 -3zM298 1684v129h129v-129h-129zM77 1684v129h129v-129h-129z" />
    <glyph glyph-name="uni1E9E" unicode="&#x1e9e;" horiz-adv-x="809" 
d="M90 0v1331q0 144 68.5 207t221.5 63l318 1v-122l-189 -620q105 -21 153.5 -91.5t52.5 -199.5q2 -51 2.5 -93t0 -85t-2.5 -99q-5 -153 -73.5 -222.5t-224.5 -69.5h-108v135h108q73 0 104 33t35 101q5 82 5 150.5t-5 149.5q-4 77 -29.5 116t-89.5 39h-84l-2 129l177 614
l-148 -1q-70 0 -100.5 -25.5t-30.5 -87.5v-1353h-159z" />
    <glyph glyph-name="uni1EA0" unicode="&#x1ea0;" horiz-adv-x="754" 
d="M48 0l175 1600h309l174 -1600h-162l-41 448h-252l-40 -448h-163zM266 591h223l-32 344l-43 522h-73l-43 -522zM313 -209v129h129v-129h-129z" />
    <glyph glyph-name="uni1EA1" unicode="&#x1ea1;" horiz-adv-x="761" 
d="M303 -13q-108 0 -163.5 58t-64.5 178l-2 50t0 49q5 72 27 129t70 104t133 89q46 23 96.5 45t101.5 41v238q0 65 -26.5 94t-93.5 29q-59 0 -91 -25t-35 -91q-1 -26 -1.5 -62.5t0 -72t1.5 -57.5h-155q-1 39 -2 86.5t0 87.5q3 90 32.5 147t91.5 84t164 27q105 0 164 -29
t83.5 -90.5t24.5 -160.5v-935h-159v111h-24q-25 -59 -61.5 -91.5t-110.5 -32.5zM352 107q53 0 90 29t57 83l2 381q-38 -12 -77.5 -30.5t-87.5 -49.5q-61 -39 -81 -87t-23 -111q0 -23 0.5 -44.5t1.5 -44.5q5 -59 35.5 -92.5t82.5 -33.5zM291 -209v129h129v-129h-129z" />
    <glyph glyph-name="uni1EA2" unicode="&#x1ea2;" horiz-adv-x="754" 
d="M48 0l175 1600h309l174 -1600h-162l-41 448h-252l-40 -448h-163zM266 591h223l-32 344l-43 522h-73l-43 -522zM376 1686l12 81q7 42 -7.5 56.5t-62.5 14.5h-78v82h78q94 0 133.5 -35.5t26.5 -117.5l-12 -81h-90z" />
    <glyph glyph-name="uni1EA3" unicode="&#x1ea3;" horiz-adv-x="761" 
d="M303 -13q-108 0 -163.5 58t-64.5 178l-2 50t0 49q5 72 27 129t70 104t133 89q46 23 96.5 45t101.5 41v238q0 65 -26.5 94t-93.5 29q-59 0 -91 -25t-35 -91q-1 -26 -1.5 -62.5t0 -72t1.5 -57.5h-155q-1 39 -2 86.5t0 87.5q3 90 32.5 147t91.5 84t164 27q105 0 164 -29
t83.5 -90.5t24.5 -160.5v-935h-159v111h-24q-25 -59 -61.5 -91.5t-110.5 -32.5zM352 107q53 0 90 29t57 83l2 381q-38 -12 -77.5 -30.5t-87.5 -49.5q-61 -39 -81 -87t-23 -111q0 -23 0.5 -44.5t1.5 -44.5q5 -59 35.5 -92.5t82.5 -33.5zM351 1289l12 81q7 42 -7.5 56.5
t-62.5 14.5h-78v82h78q94 0 133.5 -35.5t26.5 -117.5l-12 -81h-90z" />
    <glyph glyph-name="uni1EA4" unicode="&#x1ea4;" horiz-adv-x="754" 
d="M48 0l175 1600h309l174 -1600h-162l-41 448h-252l-40 -448h-163zM266 591h223l-32 344l-43 522h-73l-43 -522zM180 1681l145 235h104l145 -235h-116l-80 140l-82 -140h-116zM559 1875l157 234h123l-165 -234h-115z" />
    <glyph glyph-name="uni1EA5" unicode="&#x1ea5;" horiz-adv-x="761" 
d="M303 -13q-108 0 -163.5 58t-64.5 178l-2 50t0 49q5 72 27 129t70 104t133 89q46 23 96.5 45t101.5 41v238q0 65 -26.5 94t-93.5 29q-59 0 -91 -25t-35 -91q-1 -26 -1.5 -62.5t0 -72t1.5 -57.5h-155q-1 39 -2 86.5t0 87.5q3 90 32.5 147t91.5 84t164 27q105 0 164 -29
t83.5 -90.5t24.5 -160.5v-935h-159v111h-24q-25 -59 -61.5 -91.5t-110.5 -32.5zM352 107q53 0 90 29t57 83l2 381q-38 -12 -77.5 -30.5t-87.5 -49.5q-61 -39 -81 -87t-23 -111q0 -23 0.5 -44.5t1.5 -44.5q5 -59 35.5 -92.5t82.5 -33.5zM174 1281l145 235h104l145 -235h-116
l-80 140l-82 -140h-116zM554 1475l157 234h123l-165 -234h-115z" />
    <glyph glyph-name="uni1EA6" unicode="&#x1ea6;" horiz-adv-x="754" 
d="M48 0l175 1600h309l174 -1600h-162l-41 448h-252l-40 -448h-163zM266 591h223l-32 344l-43 522h-73l-43 -522zM180 1681l145 235h104l145 -235h-116l-80 140l-82 -140h-116zM577 1875l-156 234h122l150 -234h-116z" />
    <glyph glyph-name="uni1EA7" unicode="&#x1ea7;" horiz-adv-x="761" 
d="M303 -13q-108 0 -163.5 58t-64.5 178l-2 50t0 49q5 72 27 129t70 104t133 89q46 23 96.5 45t101.5 41v238q0 65 -26.5 94t-93.5 29q-59 0 -91 -25t-35 -91q-1 -26 -1.5 -62.5t0 -72t1.5 -57.5h-155q-1 39 -2 86.5t0 87.5q3 90 32.5 147t91.5 84t164 27q105 0 164 -29
t83.5 -90.5t24.5 -160.5v-935h-159v111h-24q-25 -59 -61.5 -91.5t-110.5 -32.5zM352 107q53 0 90 29t57 83l2 381q-38 -12 -77.5 -30.5t-87.5 -49.5q-61 -39 -81 -87t-23 -111q0 -23 0.5 -44.5t1.5 -44.5q5 -59 35.5 -92.5t82.5 -33.5zM174 1281l145 235h104l145 -235h-116
l-80 140l-82 -140h-116zM572 1475l-156 234h122l150 -234h-116z" />
    <glyph glyph-name="uni1EA8" unicode="&#x1ea8;" horiz-adv-x="754" 
d="M48 0l175 1600h309l174 -1600h-162l-41 448h-252l-40 -448h-163zM266 591h223l-32 344l-43 522h-73l-43 -522zM180 1681l145 235h104l145 -235h-116l-80 140l-82 -140h-116zM534 1888l12 81q7 42 -7.5 56.5t-62.5 14.5h-78v82h78q94 0 133.5 -35.5t26.5 -117.5l-12 -81
h-90z" />
    <glyph glyph-name="uni1EA9" unicode="&#x1ea9;" horiz-adv-x="761" 
d="M303 -13q-108 0 -163.5 58t-64.5 178l-2 50t0 49q5 72 27 129t70 104t133 89q46 23 96.5 45t101.5 41v238q0 65 -26.5 94t-93.5 29q-59 0 -91 -25t-35 -91q-1 -26 -1.5 -62.5t0 -72t1.5 -57.5h-155q-1 39 -2 86.5t0 87.5q3 90 32.5 147t91.5 84t164 27q105 0 164 -29
t83.5 -90.5t24.5 -160.5v-935h-159v111h-24q-25 -59 -61.5 -91.5t-110.5 -32.5zM352 107q53 0 90 29t57 83l2 381q-38 -12 -77.5 -30.5t-87.5 -49.5q-61 -39 -81 -87t-23 -111q0 -23 0.5 -44.5t1.5 -44.5q5 -59 35.5 -92.5t82.5 -33.5zM174 1281l145 235h104l145 -235h-116
l-80 140l-82 -140h-116zM529 1488l12 81q7 42 -7.5 56.5t-62.5 14.5h-78v82h78q94 0 133.5 -35.5t26.5 -117.5l-12 -81h-90z" />
    <glyph glyph-name="uni1EAA" unicode="&#x1eaa;" horiz-adv-x="754" 
d="M48 0l175 1600h309l174 -1600h-162l-41 448h-252l-40 -448h-163zM266 591h223l-32 344l-43 522h-73l-43 -522zM180 1681l145 235h104l145 -235h-116l-80 140l-82 -140h-116zM521 2127h75q-2 -81 -34.5 -120t-90.5 -39q-38 0 -60 12t-38 28t-32 27.5t-40 11.5
q-22 0 -36 -16t-19 -55h-75q7 87 42 124.5t92 37.5q39 0 61.5 -11.5t37.5 -27.5t29.5 -28t38.5 -12q26 0 37 18t12 50z" />
    <glyph glyph-name="uni1EAB" unicode="&#x1eab;" horiz-adv-x="761" 
d="M303 -13q-108 0 -163.5 58t-64.5 178l-2 50t0 49q5 72 27 129t70 104t133 89q46 23 96.5 45t101.5 41v238q0 65 -26.5 94t-93.5 29q-59 0 -91 -25t-35 -91q-1 -26 -1.5 -62.5t0 -72t1.5 -57.5h-155q-1 39 -2 86.5t0 87.5q3 90 32.5 147t91.5 84t164 27q105 0 164 -29
t83.5 -90.5t24.5 -160.5v-935h-159v111h-24q-25 -59 -61.5 -91.5t-110.5 -32.5zM352 107q53 0 90 29t57 83l2 381q-38 -12 -77.5 -30.5t-87.5 -49.5q-61 -39 -81 -87t-23 -111q0 -23 0.5 -44.5t1.5 -44.5q5 -59 35.5 -92.5t82.5 -33.5zM174 1281l145 235h104l145 -235h-116
l-80 140l-82 -140h-116zM515 1727h75q-2 -81 -34.5 -120t-90.5 -39q-38 0 -60 12t-38 28t-32 27.5t-40 11.5q-22 0 -36 -16t-19 -55h-75q7 87 42 124.5t92 37.5q39 0 61.5 -11.5t37.5 -27.5t29.5 -28t38.5 -12q26 0 37 18t12 50z" />
    <glyph glyph-name="uni1EAC" unicode="&#x1eac;" horiz-adv-x="754" 
d="M48 0l175 1600h309l174 -1600h-162l-41 448h-252l-40 -448h-163zM266 591h223l-32 344l-43 522h-73l-43 -522zM313 -209v129h129v-129h-129zM180 1681l145 235h104l145 -235h-116l-80 140l-82 -140h-116z" />
    <glyph glyph-name="uni1EAD" unicode="&#x1ead;" horiz-adv-x="761" 
d="M303 -13q-108 0 -163.5 58t-64.5 178l-2 50t0 49q5 72 27 129t70 104t133 89q46 23 96.5 45t101.5 41v238q0 65 -26.5 94t-93.5 29q-59 0 -91 -25t-35 -91q-1 -26 -1.5 -62.5t0 -72t1.5 -57.5h-155q-1 39 -2 86.5t0 87.5q3 90 32.5 147t91.5 84t164 27q105 0 164 -29
t83.5 -90.5t24.5 -160.5v-935h-159v111h-24q-25 -59 -61.5 -91.5t-110.5 -32.5zM352 107q53 0 90 29t57 83l2 381q-38 -12 -77.5 -30.5t-87.5 -49.5q-61 -39 -81 -87t-23 -111q0 -23 0.5 -44.5t1.5 -44.5q5 -59 35.5 -92.5t82.5 -33.5zM291 -209v129h129v-129h-129z
M174 1281l145 235h104l145 -235h-116l-80 140l-82 -140h-116z" />
    <glyph glyph-name="uni1EAE" unicode="&#x1eae;" horiz-adv-x="754" 
d="M48 0l175 1600h309l174 -1600h-162l-41 448h-252l-40 -448h-163zM266 591h223l-32 344l-43 522h-73l-43 -522zM378 1672q-123 0 -179.5 56t-61.5 178h106q1 -72 31.5 -108t103.5 -36q70 0 102 35t33 109h105q-6 -122 -62 -178t-178 -56zM327 1960l157 234h123l-165 -234
h-115z" />
    <glyph glyph-name="uni1EAF" unicode="&#x1eaf;" horiz-adv-x="761" 
d="M303 -13q-108 0 -163.5 58t-64.5 178l-2 50t0 49q5 72 27 129t70 104t133 89q46 23 96.5 45t101.5 41v238q0 65 -26.5 94t-93.5 29q-59 0 -91 -25t-35 -91q-1 -26 -1.5 -62.5t0 -72t1.5 -57.5h-155q-1 39 -2 86.5t0 87.5q3 90 32.5 147t91.5 84t164 27q105 0 164 -29
t83.5 -90.5t24.5 -160.5v-935h-159v111h-24q-25 -59 -61.5 -91.5t-110.5 -32.5zM352 107q53 0 90 29t57 83l2 381q-38 -12 -77.5 -30.5t-87.5 -49.5q-61 -39 -81 -87t-23 -111q0 -23 0.5 -44.5t1.5 -44.5q5 -59 35.5 -92.5t82.5 -33.5zM373 1272q-123 0 -179.5 56t-61.5 178
h106q1 -72 31.5 -108t103.5 -36q70 0 102 35t33 109h105q-6 -122 -62 -178t-178 -56zM322 1560l157 234h123l-165 -234h-115z" />
    <glyph glyph-name="uni1EB0" unicode="&#x1eb0;" horiz-adv-x="754" 
d="M48 0l175 1600h309l174 -1600h-162l-41 448h-252l-40 -448h-163zM266 591h223l-32 344l-43 522h-73l-43 -522zM378 1672q-123 0 -179.5 56t-61.5 178h106q1 -72 31.5 -108t103.5 -36q70 0 102 35t33 109h105q-6 -122 -62 -178t-178 -56zM306 1960l-156 234h122l150 -234
h-116z" />
    <glyph glyph-name="uni1EB1" unicode="&#x1eb1;" horiz-adv-x="761" 
d="M303 -13q-108 0 -163.5 58t-64.5 178l-2 50t0 49q5 72 27 129t70 104t133 89q46 23 96.5 45t101.5 41v238q0 65 -26.5 94t-93.5 29q-59 0 -91 -25t-35 -91q-1 -26 -1.5 -62.5t0 -72t1.5 -57.5h-155q-1 39 -2 86.5t0 87.5q3 90 32.5 147t91.5 84t164 27q105 0 164 -29
t83.5 -90.5t24.5 -160.5v-935h-159v111h-24q-25 -59 -61.5 -91.5t-110.5 -32.5zM352 107q53 0 90 29t57 83l2 381q-38 -12 -77.5 -30.5t-87.5 -49.5q-61 -39 -81 -87t-23 -111q0 -23 0.5 -44.5t1.5 -44.5q5 -59 35.5 -92.5t82.5 -33.5zM373 1272q-123 0 -179.5 56t-61.5 178
h106q1 -72 31.5 -108t103.5 -36q70 0 102 35t33 109h105q-6 -122 -62 -178t-178 -56zM301 1560l-156 234h122l150 -234h-116z" />
    <glyph glyph-name="uni1EB2" unicode="&#x1eb2;" horiz-adv-x="754" 
d="M48 0l175 1600h309l174 -1600h-162l-41 448h-252l-40 -448h-163zM266 591h223l-32 344l-43 522h-73l-43 -522zM378 1672q-123 0 -179.5 56t-61.5 178h106q1 -72 31.5 -108t103.5 -36q70 0 102 35t33 109h105q-6 -122 -62 -178t-178 -56zM335 1928l12 81q7 42 -7.5 56.5
t-62.5 14.5h-78v82h78q94 0 133.5 -35.5t26.5 -117.5l-12 -81h-90z" />
    <glyph glyph-name="uni1EB3" unicode="&#x1eb3;" horiz-adv-x="761" 
d="M303 -13q-108 0 -163.5 58t-64.5 178l-2 50t0 49q5 72 27 129t70 104t133 89q46 23 96.5 45t101.5 41v238q0 65 -26.5 94t-93.5 29q-59 0 -91 -25t-35 -91q-1 -26 -1.5 -62.5t0 -72t1.5 -57.5h-155q-1 39 -2 86.5t0 87.5q3 90 32.5 147t91.5 84t164 27q105 0 164 -29
t83.5 -90.5t24.5 -160.5v-935h-159v111h-24q-25 -59 -61.5 -91.5t-110.5 -32.5zM352 107q53 0 90 29t57 83l2 381q-38 -12 -77.5 -30.5t-87.5 -49.5q-61 -39 -81 -87t-23 -111q0 -23 0.5 -44.5t1.5 -44.5q5 -59 35.5 -92.5t82.5 -33.5zM373 1272q-123 0 -179.5 56t-61.5 178
h106q1 -72 31.5 -108t103.5 -36q70 0 102 35t33 109h105q-6 -122 -62 -178t-178 -56zM329 1528l12 81q7 42 -7.5 56.5t-62.5 14.5h-78v82h78q94 0 133.5 -35.5t26.5 -117.5l-12 -81h-90z" />
    <glyph glyph-name="uni1EB4" unicode="&#x1eb4;" horiz-adv-x="754" 
d="M48 0l175 1600h309l174 -1600h-162l-41 448h-252l-40 -448h-163zM266 591h223l-32 344l-43 522h-73l-43 -522zM378 1672q-123 0 -179.5 56t-61.5 178h106q1 -72 31.5 -108t103.5 -36q70 0 102 35t33 109h105q-6 -122 -62 -178t-178 -56zM516 2144h75q-2 -81 -34.5 -120
t-90.5 -39q-38 0 -60 12t-38 28t-32 27.5t-40 11.5q-22 0 -36 -16t-19 -55h-75q7 87 42 124.5t92 37.5q39 0 61.5 -11.5t37.5 -27.5t29.5 -28t38.5 -12q26 0 37 18t12 50z" />
    <glyph glyph-name="uni1EB5" unicode="&#x1eb5;" horiz-adv-x="761" 
d="M303 -13q-108 0 -163.5 58t-64.5 178l-2 50t0 49q5 72 27 129t70 104t133 89q46 23 96.5 45t101.5 41v238q0 65 -26.5 94t-93.5 29q-59 0 -91 -25t-35 -91q-1 -26 -1.5 -62.5t0 -72t1.5 -57.5h-155q-1 39 -2 86.5t0 87.5q3 90 32.5 147t91.5 84t164 27q105 0 164 -29
t83.5 -90.5t24.5 -160.5v-935h-159v111h-24q-25 -59 -61.5 -91.5t-110.5 -32.5zM352 107q53 0 90 29t57 83l2 381q-38 -12 -77.5 -30.5t-87.5 -49.5q-61 -39 -81 -87t-23 -111q0 -23 0.5 -44.5t1.5 -44.5q5 -59 35.5 -92.5t82.5 -33.5zM373 1272q-123 0 -179.5 56t-61.5 178
h106q1 -72 31.5 -108t103.5 -36q70 0 102 35t33 109h105q-6 -122 -62 -178t-178 -56zM511 1744h75q-2 -81 -34.5 -120t-90.5 -39q-38 0 -60 12t-38 28t-32 27.5t-40 11.5q-22 0 -36 -16t-19 -55h-75q7 87 42 124.5t92 37.5q39 0 61.5 -11.5t37.5 -27.5t29.5 -28t38.5 -12
q26 0 37 18t12 50z" />
    <glyph glyph-name="uni1EB6" unicode="&#x1eb6;" horiz-adv-x="754" 
d="M48 0l175 1600h309l174 -1600h-162l-41 448h-252l-40 -448h-163zM266 591h223l-32 344l-43 522h-73l-43 -522zM313 -209v129h129v-129h-129zM378 1672q-123 0 -179.5 56t-61.5 178h106q1 -72 31.5 -108t103.5 -36q70 0 102 35t33 109h105q-6 -122 -62 -178t-178 -56z" />
    <glyph glyph-name="uni1EB7" unicode="&#x1eb7;" horiz-adv-x="761" 
d="M303 -13q-108 0 -163.5 58t-64.5 178l-2 50t0 49q5 72 27 129t70 104t133 89q46 23 96.5 45t101.5 41v238q0 65 -26.5 94t-93.5 29q-59 0 -91 -25t-35 -91q-1 -26 -1.5 -62.5t0 -72t1.5 -57.5h-155q-1 39 -2 86.5t0 87.5q3 90 32.5 147t91.5 84t164 27q105 0 164 -29
t83.5 -90.5t24.5 -160.5v-935h-159v111h-24q-25 -59 -61.5 -91.5t-110.5 -32.5zM352 107q53 0 90 29t57 83l2 381q-38 -12 -77.5 -30.5t-87.5 -49.5q-61 -39 -81 -87t-23 -111q0 -23 0.5 -44.5t1.5 -44.5q5 -59 35.5 -92.5t82.5 -33.5zM291 -209v129h129v-129h-129z
M373 1272q-123 0 -179.5 56t-61.5 178h106q1 -72 31.5 -108t103.5 -36q70 0 102 35t33 109h105q-6 -122 -62 -178t-178 -56z" />
    <glyph glyph-name="uni1EB8" unicode="&#x1eb8;" horiz-adv-x="678" 
d="M113 0v1600h514v-143h-355v-580h335v-143h-335v-591h355v-143h-514zM313 -209v129h129v-129h-129z" />
    <glyph glyph-name="uni1EB9" unicode="&#x1eb9;" horiz-adv-x="749" 
d="M386 -15q-153 0 -220 61.5t-74 200.5q-2 73 -3 163t-1 185.5t1 187.5t3 168q8 142 76 203t217 61q147 0 212.5 -61t71.5 -197q1 -26 2 -88t0.5 -141.5t-4.5 -158.5h-419q0 -81 1.5 -165t3.5 -173q2 -68 32.5 -94.5t98.5 -26.5q67 0 95.5 26.5t31.5 94.5q2 32 1.5 82
t-2.5 107h157q3 -36 3.5 -87t-1.5 -86q-7 -140 -70.5 -201t-212.5 -61zM249 690h264q1 57 1 114.5t-1 102.5t-2 65q-4 65 -33.5 92t-92.5 27q-71 0 -100.5 -28.5t-31.5 -90.5q-1 -73 -2.5 -143t-1.5 -139zM315 -209v129h129v-129h-129z" />
    <glyph glyph-name="uni1EBA" unicode="&#x1eba;" horiz-adv-x="678" 
d="M113 0v1600h514v-143h-355v-580h335v-143h-335v-591h355v-143h-514zM352 1684l12 81q7 42 -7.5 56.5t-62.5 14.5h-78v82h78q94 0 133.5 -35.5t26.5 -117.5l-12 -81h-90z" />
    <glyph glyph-name="uni1EBB" unicode="&#x1ebb;" horiz-adv-x="749" 
d="M386 -15q-153 0 -220 61.5t-74 200.5q-2 73 -3 163t-1 185.5t1 187.5t3 168q8 142 76 203t217 61q147 0 212.5 -61t71.5 -197q1 -26 2 -88t0.5 -141.5t-4.5 -158.5h-419q0 -81 1.5 -165t3.5 -173q2 -68 32.5 -94.5t98.5 -26.5q67 0 95.5 26.5t31.5 94.5q2 32 1.5 82
t-2.5 107h157q3 -36 3.5 -87t-1.5 -86q-7 -140 -70.5 -201t-212.5 -61zM249 690h264q1 57 1 114.5t-1 102.5t-2 65q-4 65 -33.5 92t-92.5 27q-71 0 -100.5 -28.5t-31.5 -90.5q-1 -73 -2.5 -143t-1.5 -139zM384 1288l12 81q7 42 -7.5 56.5t-62.5 14.5h-78v82h78
q94 0 133.5 -35.5t26.5 -117.5l-12 -81h-90z" />
    </font>
</defs>
</svg>
